G04 #@! TF.GenerationSoftware,KiCad,Pcbnew,(2018-01-30 revision 342197bb3)-makepkg*
G04 #@! TF.CreationDate,2019-02-26T10:02:36-05:00*
G04 #@! TF.ProjectId,AAMB,41414D422E6B696361645F7063620000,rev?*
G04 #@! TF.SameCoordinates,Original*
G04 #@! TF.FileFunction,Legend,Top*
G04 #@! TF.FilePolarity,Positive*
%FSLAX46Y46*%
G04 Gerber Fmt 4.6, Leading zero omitted, Abs format (unit mm)*
G04 Created by KiCad (PCBNEW (2018-01-30 revision 342197bb3)-makepkg) date 02/26/19 10:02:36*
%MOMM*%
%LPD*%
G01*
G04 APERTURE LIST*
%ADD10C,0.120000*%
%ADD11C,0.150000*%
G04 APERTURE END LIST*
D10*
X154798000Y-94818000D02*
X156098000Y-94818000D01*
X155448000Y-95418000D02*
X155448000Y-94218000D01*
X155094000Y-89657000D02*
X155802000Y-89657000D01*
X154889000Y-89697000D02*
X156007000Y-89697000D01*
X154741000Y-89737000D02*
X156155000Y-89737000D01*
X154619000Y-89777000D02*
X156277000Y-89777000D01*
X154514000Y-89817000D02*
X156382000Y-89817000D01*
X154420000Y-89857000D02*
X156476000Y-89857000D01*
X154336000Y-89897000D02*
X156560000Y-89897000D01*
X154259000Y-89937000D02*
X156637000Y-89937000D01*
X154187000Y-89977000D02*
X156709000Y-89977000D01*
X154121000Y-90017000D02*
X156775000Y-90017000D01*
X154058000Y-90057000D02*
X156838000Y-90057000D01*
X154000000Y-90097000D02*
X156896000Y-90097000D01*
X153944000Y-90137000D02*
X156952000Y-90137000D01*
X153892000Y-90177000D02*
X157004000Y-90177000D01*
X153842000Y-90217000D02*
X157054000Y-90217000D01*
X156428000Y-90257000D02*
X157102000Y-90257000D01*
X153794000Y-90257000D02*
X154468000Y-90257000D01*
X156428000Y-90297000D02*
X157147000Y-90297000D01*
X153749000Y-90297000D02*
X154468000Y-90297000D01*
X156428000Y-90337000D02*
X157190000Y-90337000D01*
X153706000Y-90337000D02*
X154468000Y-90337000D01*
X156428000Y-90377000D02*
X157231000Y-90377000D01*
X153665000Y-90377000D02*
X154468000Y-90377000D01*
X156428000Y-90417000D02*
X157271000Y-90417000D01*
X153625000Y-90417000D02*
X154468000Y-90417000D01*
X156428000Y-90457000D02*
X157309000Y-90457000D01*
X153587000Y-90457000D02*
X154468000Y-90457000D01*
X156428000Y-90497000D02*
X157345000Y-90497000D01*
X153551000Y-90497000D02*
X154468000Y-90497000D01*
X156428000Y-90537000D02*
X157380000Y-90537000D01*
X153516000Y-90537000D02*
X154468000Y-90537000D01*
X156428000Y-90577000D02*
X157413000Y-90577000D01*
X153483000Y-90577000D02*
X154468000Y-90577000D01*
X156428000Y-90617000D02*
X157445000Y-90617000D01*
X153451000Y-90617000D02*
X154468000Y-90617000D01*
X156428000Y-90657000D02*
X157476000Y-90657000D01*
X153420000Y-90657000D02*
X154468000Y-90657000D01*
X156428000Y-90697000D02*
X157506000Y-90697000D01*
X153390000Y-90697000D02*
X154468000Y-90697000D01*
X156428000Y-90737000D02*
X157534000Y-90737000D01*
X153362000Y-90737000D02*
X154468000Y-90737000D01*
X156428000Y-90777000D02*
X157561000Y-90777000D01*
X153335000Y-90777000D02*
X154468000Y-90777000D01*
X156428000Y-90817000D02*
X157588000Y-90817000D01*
X153308000Y-90817000D02*
X154468000Y-90817000D01*
X156428000Y-90857000D02*
X157613000Y-90857000D01*
X153283000Y-90857000D02*
X154468000Y-90857000D01*
X156428000Y-90897000D02*
X157637000Y-90897000D01*
X153259000Y-90897000D02*
X154468000Y-90897000D01*
X156428000Y-90937000D02*
X157660000Y-90937000D01*
X153236000Y-90937000D02*
X154468000Y-90937000D01*
X156428000Y-90977000D02*
X157682000Y-90977000D01*
X153214000Y-90977000D02*
X154468000Y-90977000D01*
X156428000Y-91017000D02*
X157704000Y-91017000D01*
X153192000Y-91017000D02*
X154468000Y-91017000D01*
X156428000Y-91057000D02*
X157724000Y-91057000D01*
X153172000Y-91057000D02*
X154468000Y-91057000D01*
X156428000Y-91097000D02*
X157744000Y-91097000D01*
X153152000Y-91097000D02*
X154468000Y-91097000D01*
X156428000Y-91137000D02*
X157763000Y-91137000D01*
X153133000Y-91137000D02*
X154468000Y-91137000D01*
X156428000Y-91177000D02*
X157781000Y-91177000D01*
X153115000Y-91177000D02*
X154468000Y-91177000D01*
X156428000Y-91217000D02*
X157798000Y-91217000D01*
X153098000Y-91217000D02*
X154468000Y-91217000D01*
X156428000Y-91257000D02*
X157814000Y-91257000D01*
X153082000Y-91257000D02*
X154468000Y-91257000D01*
X156428000Y-91297000D02*
X157830000Y-91297000D01*
X153066000Y-91297000D02*
X154468000Y-91297000D01*
X156428000Y-91337000D02*
X157844000Y-91337000D01*
X153052000Y-91337000D02*
X154468000Y-91337000D01*
X156428000Y-91377000D02*
X157858000Y-91377000D01*
X153038000Y-91377000D02*
X154468000Y-91377000D01*
X156428000Y-91417000D02*
X157872000Y-91417000D01*
X153024000Y-91417000D02*
X154468000Y-91417000D01*
X156428000Y-91457000D02*
X157884000Y-91457000D01*
X153012000Y-91457000D02*
X154468000Y-91457000D01*
X156428000Y-91497000D02*
X157896000Y-91497000D01*
X153000000Y-91497000D02*
X154468000Y-91497000D01*
X156428000Y-91538000D02*
X157908000Y-91538000D01*
X152988000Y-91538000D02*
X154468000Y-91538000D01*
X156428000Y-91578000D02*
X157918000Y-91578000D01*
X152978000Y-91578000D02*
X154468000Y-91578000D01*
X156428000Y-91618000D02*
X157928000Y-91618000D01*
X152968000Y-91618000D02*
X154468000Y-91618000D01*
X156428000Y-91658000D02*
X157937000Y-91658000D01*
X152959000Y-91658000D02*
X154468000Y-91658000D01*
X156428000Y-91698000D02*
X157946000Y-91698000D01*
X152950000Y-91698000D02*
X154468000Y-91698000D01*
X156428000Y-91738000D02*
X157954000Y-91738000D01*
X152942000Y-91738000D02*
X154468000Y-91738000D01*
X156428000Y-91778000D02*
X157961000Y-91778000D01*
X152935000Y-91778000D02*
X154468000Y-91778000D01*
X156428000Y-91818000D02*
X157967000Y-91818000D01*
X152929000Y-91818000D02*
X154468000Y-91818000D01*
X156428000Y-91858000D02*
X157973000Y-91858000D01*
X152923000Y-91858000D02*
X154468000Y-91858000D01*
X156428000Y-91898000D02*
X157979000Y-91898000D01*
X152917000Y-91898000D02*
X154468000Y-91898000D01*
X156428000Y-91938000D02*
X157983000Y-91938000D01*
X152913000Y-91938000D02*
X154468000Y-91938000D01*
X156428000Y-91978000D02*
X157987000Y-91978000D01*
X152909000Y-91978000D02*
X154468000Y-91978000D01*
X156428000Y-92018000D02*
X157991000Y-92018000D01*
X152905000Y-92018000D02*
X154468000Y-92018000D01*
X156428000Y-92058000D02*
X157994000Y-92058000D01*
X152902000Y-92058000D02*
X154468000Y-92058000D01*
X156428000Y-92098000D02*
X157996000Y-92098000D01*
X152900000Y-92098000D02*
X154468000Y-92098000D01*
X156428000Y-92138000D02*
X157997000Y-92138000D01*
X152899000Y-92138000D02*
X154468000Y-92138000D01*
X156428000Y-92178000D02*
X157998000Y-92178000D01*
X152898000Y-92178000D02*
X154468000Y-92178000D01*
X152898000Y-92218000D02*
X157998000Y-92218000D01*
X156627723Y-89912278D02*
G75*
G03X154268000Y-89912420I-1179723J-2305722D01*
G01*
X156627723Y-89912278D02*
G75*
G02X156628000Y-94523580I-1179723J-2305722D01*
G01*
X154268277Y-89912278D02*
G75*
G03X154268000Y-94523580I1179723J-2305722D01*
G01*
X165120000Y-93248000D02*
X164456000Y-93248000D01*
X167776000Y-93248000D02*
X167112000Y-93248000D01*
X165120000Y-88028000D02*
X164456000Y-88028000D01*
X167776000Y-88028000D02*
X167112000Y-88028000D01*
X164456000Y-88028000D02*
X164456000Y-93248000D01*
X167776000Y-88028000D02*
X167776000Y-93248000D01*
X151302000Y-88888000D02*
X151302000Y-87388000D01*
X152052000Y-88138000D02*
X150552000Y-88138000D01*
X141771000Y-88417000D02*
X141771000Y-87859000D01*
X141811000Y-88810000D02*
X141811000Y-87466000D01*
X141851000Y-89051000D02*
X141851000Y-87225000D01*
X141891000Y-89242000D02*
X141891000Y-87034000D01*
X141931000Y-89403000D02*
X141931000Y-86873000D01*
X141971000Y-89545000D02*
X141971000Y-86731000D01*
X142011000Y-89674000D02*
X142011000Y-86602000D01*
X142051000Y-89792000D02*
X142051000Y-86484000D01*
X142091000Y-89901000D02*
X142091000Y-86375000D01*
X142131000Y-90004000D02*
X142131000Y-86272000D01*
X142171000Y-90100000D02*
X142171000Y-86176000D01*
X142211000Y-90191000D02*
X142211000Y-86085000D01*
X142251000Y-90278000D02*
X142251000Y-85998000D01*
X142291000Y-90360000D02*
X142291000Y-85916000D01*
X142331000Y-90439000D02*
X142331000Y-85837000D01*
X142371000Y-90515000D02*
X142371000Y-85761000D01*
X142411000Y-90587000D02*
X142411000Y-85689000D01*
X142451000Y-90657000D02*
X142451000Y-85619000D01*
X142491000Y-90725000D02*
X142491000Y-85551000D01*
X142531000Y-90790000D02*
X142531000Y-85486000D01*
X142571000Y-90853000D02*
X142571000Y-85423000D01*
X142611000Y-90915000D02*
X142611000Y-85361000D01*
X142651000Y-90974000D02*
X142651000Y-85302000D01*
X142691000Y-91032000D02*
X142691000Y-85244000D01*
X142731000Y-91087000D02*
X142731000Y-85189000D01*
X142771000Y-91142000D02*
X142771000Y-85134000D01*
X142811000Y-91195000D02*
X142811000Y-85081000D01*
X142851000Y-91246000D02*
X142851000Y-85030000D01*
X142891000Y-91296000D02*
X142891000Y-84980000D01*
X142931000Y-91345000D02*
X142931000Y-84931000D01*
X142971000Y-91393000D02*
X142971000Y-84883000D01*
X143011000Y-91440000D02*
X143011000Y-84836000D01*
X143051000Y-91485000D02*
X143051000Y-84791000D01*
X143091000Y-91529000D02*
X143091000Y-84747000D01*
X143131000Y-91573000D02*
X143131000Y-84703000D01*
X143171000Y-91615000D02*
X143171000Y-84661000D01*
X143211000Y-86957000D02*
X143211000Y-84620000D01*
X143211000Y-91656000D02*
X143211000Y-89319000D01*
X143251000Y-86957000D02*
X143251000Y-84579000D01*
X143251000Y-91697000D02*
X143251000Y-89319000D01*
X143291000Y-86957000D02*
X143291000Y-84540000D01*
X143291000Y-91736000D02*
X143291000Y-89319000D01*
X143331000Y-86957000D02*
X143331000Y-84501000D01*
X143331000Y-91775000D02*
X143331000Y-89319000D01*
X143371000Y-86957000D02*
X143371000Y-84463000D01*
X143371000Y-91813000D02*
X143371000Y-89319000D01*
X143411000Y-86957000D02*
X143411000Y-84426000D01*
X143411000Y-91850000D02*
X143411000Y-89319000D01*
X143451000Y-86957000D02*
X143451000Y-84390000D01*
X143451000Y-91886000D02*
X143451000Y-89319000D01*
X143491000Y-86957000D02*
X143491000Y-84354000D01*
X143491000Y-91922000D02*
X143491000Y-89319000D01*
X143531000Y-86957000D02*
X143531000Y-84319000D01*
X143531000Y-91957000D02*
X143531000Y-89319000D01*
X143571000Y-86957000D02*
X143571000Y-84285000D01*
X143571000Y-91991000D02*
X143571000Y-89319000D01*
X143611000Y-86957000D02*
X143611000Y-84252000D01*
X143611000Y-92024000D02*
X143611000Y-89319000D01*
X143651000Y-86957000D02*
X143651000Y-84219000D01*
X143651000Y-92057000D02*
X143651000Y-89319000D01*
X143691000Y-86957000D02*
X143691000Y-84187000D01*
X143691000Y-92089000D02*
X143691000Y-89319000D01*
X143731000Y-86957000D02*
X143731000Y-84156000D01*
X143731000Y-92120000D02*
X143731000Y-89319000D01*
X143771000Y-86957000D02*
X143771000Y-84125000D01*
X143771000Y-92151000D02*
X143771000Y-89319000D01*
X143811000Y-86957000D02*
X143811000Y-84095000D01*
X143811000Y-92181000D02*
X143811000Y-89319000D01*
X143851000Y-86957000D02*
X143851000Y-84066000D01*
X143851000Y-92210000D02*
X143851000Y-89319000D01*
X143891000Y-86957000D02*
X143891000Y-84037000D01*
X143891000Y-92239000D02*
X143891000Y-89319000D01*
X143931000Y-86957000D02*
X143931000Y-84008000D01*
X143931000Y-92268000D02*
X143931000Y-89319000D01*
X143971000Y-86957000D02*
X143971000Y-83981000D01*
X143971000Y-92295000D02*
X143971000Y-89319000D01*
X144011000Y-86957000D02*
X144011000Y-83953000D01*
X144011000Y-92323000D02*
X144011000Y-89319000D01*
X144051000Y-86957000D02*
X144051000Y-83927000D01*
X144051000Y-92349000D02*
X144051000Y-89319000D01*
X144091000Y-86957000D02*
X144091000Y-83901000D01*
X144091000Y-92375000D02*
X144091000Y-89319000D01*
X144131000Y-86957000D02*
X144131000Y-83875000D01*
X144131000Y-92401000D02*
X144131000Y-89319000D01*
X144171000Y-86957000D02*
X144171000Y-83850000D01*
X144171000Y-92426000D02*
X144171000Y-89319000D01*
X144211000Y-86957000D02*
X144211000Y-83826000D01*
X144211000Y-92450000D02*
X144211000Y-89319000D01*
X144251000Y-86957000D02*
X144251000Y-83802000D01*
X144251000Y-92474000D02*
X144251000Y-89319000D01*
X144291000Y-86957000D02*
X144291000Y-83778000D01*
X144291000Y-92498000D02*
X144291000Y-89319000D01*
X144331000Y-86957000D02*
X144331000Y-83755000D01*
X144331000Y-92521000D02*
X144331000Y-89319000D01*
X144371000Y-86957000D02*
X144371000Y-83733000D01*
X144371000Y-92543000D02*
X144371000Y-89319000D01*
X144411000Y-86957000D02*
X144411000Y-83710000D01*
X144411000Y-92566000D02*
X144411000Y-89319000D01*
X144451000Y-86957000D02*
X144451000Y-83689000D01*
X144451000Y-92587000D02*
X144451000Y-89319000D01*
X144491000Y-86957000D02*
X144491000Y-83668000D01*
X144491000Y-92608000D02*
X144491000Y-89319000D01*
X144531000Y-86957000D02*
X144531000Y-83647000D01*
X144531000Y-92629000D02*
X144531000Y-89319000D01*
X144571000Y-86957000D02*
X144571000Y-83627000D01*
X144571000Y-92649000D02*
X144571000Y-89319000D01*
X144611000Y-86957000D02*
X144611000Y-83607000D01*
X144611000Y-92669000D02*
X144611000Y-89319000D01*
X144651000Y-86957000D02*
X144651000Y-83588000D01*
X144651000Y-92688000D02*
X144651000Y-89319000D01*
X144691000Y-86957000D02*
X144691000Y-83569000D01*
X144691000Y-92707000D02*
X144691000Y-89319000D01*
X144731000Y-86957000D02*
X144731000Y-83550000D01*
X144731000Y-92726000D02*
X144731000Y-89319000D01*
X144771000Y-86957000D02*
X144771000Y-83532000D01*
X144771000Y-92744000D02*
X144771000Y-89319000D01*
X144811000Y-86957000D02*
X144811000Y-83514000D01*
X144811000Y-92762000D02*
X144811000Y-89319000D01*
X144851000Y-86957000D02*
X144851000Y-83497000D01*
X144851000Y-92779000D02*
X144851000Y-89319000D01*
X144891000Y-86957000D02*
X144891000Y-83480000D01*
X144891000Y-92796000D02*
X144891000Y-89319000D01*
X144931000Y-86957000D02*
X144931000Y-83464000D01*
X144931000Y-92812000D02*
X144931000Y-89319000D01*
X144971000Y-86957000D02*
X144971000Y-83447000D01*
X144971000Y-92829000D02*
X144971000Y-89319000D01*
X145011000Y-86957000D02*
X145011000Y-83432000D01*
X145011000Y-92844000D02*
X145011000Y-89319000D01*
X145051000Y-86957000D02*
X145051000Y-83416000D01*
X145051000Y-92860000D02*
X145051000Y-89319000D01*
X145091000Y-86957000D02*
X145091000Y-83401000D01*
X145091000Y-92875000D02*
X145091000Y-89319000D01*
X145131000Y-86957000D02*
X145131000Y-83387000D01*
X145131000Y-92889000D02*
X145131000Y-89319000D01*
X145171000Y-86957000D02*
X145171000Y-83373000D01*
X145171000Y-92903000D02*
X145171000Y-89319000D01*
X145211000Y-86957000D02*
X145211000Y-83359000D01*
X145211000Y-92917000D02*
X145211000Y-89319000D01*
X145251000Y-86957000D02*
X145251000Y-83346000D01*
X145251000Y-92930000D02*
X145251000Y-89319000D01*
X145291000Y-86957000D02*
X145291000Y-83332000D01*
X145291000Y-92944000D02*
X145291000Y-89319000D01*
X145331000Y-86957000D02*
X145331000Y-83320000D01*
X145331000Y-92956000D02*
X145331000Y-89319000D01*
X145371000Y-86957000D02*
X145371000Y-83307000D01*
X145371000Y-92969000D02*
X145371000Y-89319000D01*
X145411000Y-86957000D02*
X145411000Y-83295000D01*
X145411000Y-92981000D02*
X145411000Y-89319000D01*
X145451000Y-86957000D02*
X145451000Y-83284000D01*
X145451000Y-92992000D02*
X145451000Y-89319000D01*
X145491000Y-86957000D02*
X145491000Y-83273000D01*
X145491000Y-93003000D02*
X145491000Y-89319000D01*
X145531000Y-86957000D02*
X145531000Y-83262000D01*
X145531000Y-93014000D02*
X145531000Y-89319000D01*
X145571000Y-93025000D02*
X145571000Y-83251000D01*
X145611000Y-93035000D02*
X145611000Y-83241000D01*
X145651000Y-93045000D02*
X145651000Y-83231000D01*
X145691000Y-93055000D02*
X145691000Y-83221000D01*
X145731000Y-93064000D02*
X145731000Y-83212000D01*
X145771000Y-93073000D02*
X145771000Y-83203000D01*
X145811000Y-93081000D02*
X145811000Y-83195000D01*
X145851000Y-93089000D02*
X145851000Y-83187000D01*
X145891000Y-93097000D02*
X145891000Y-83179000D01*
X145931000Y-93105000D02*
X145931000Y-83171000D01*
X145971000Y-93112000D02*
X145971000Y-83164000D01*
X146011000Y-93119000D02*
X146011000Y-83157000D01*
X146051000Y-93125000D02*
X146051000Y-83151000D01*
X146091000Y-93131000D02*
X146091000Y-83145000D01*
X146131000Y-93137000D02*
X146131000Y-83139000D01*
X146172000Y-93143000D02*
X146172000Y-83133000D01*
X146212000Y-93148000D02*
X146212000Y-83128000D01*
X146252000Y-93153000D02*
X146252000Y-83123000D01*
X146292000Y-93158000D02*
X146292000Y-83118000D01*
X146332000Y-93162000D02*
X146332000Y-83114000D01*
X146372000Y-93166000D02*
X146372000Y-83110000D01*
X146412000Y-93169000D02*
X146412000Y-83107000D01*
X146452000Y-93173000D02*
X146452000Y-83103000D01*
X146492000Y-93176000D02*
X146492000Y-83100000D01*
X146532000Y-93178000D02*
X146532000Y-83098000D01*
X146572000Y-93181000D02*
X146572000Y-83095000D01*
X146612000Y-93183000D02*
X146612000Y-83093000D01*
X146652000Y-93185000D02*
X146652000Y-83091000D01*
X146692000Y-93186000D02*
X146692000Y-83090000D01*
X146732000Y-93187000D02*
X146732000Y-83089000D01*
X146772000Y-93188000D02*
X146772000Y-83088000D01*
X146812000Y-93188000D02*
X146812000Y-83088000D01*
X146852000Y-93188000D02*
X146852000Y-83088000D01*
X141953563Y-86754736D02*
G75*
G03X141952643Y-89518000I4898437J-1383264D01*
G01*
X141953563Y-86754736D02*
G75*
G02X151751357Y-86758000I4898437J-1383264D01*
G01*
X141953563Y-89521264D02*
G75*
G03X151751357Y-89518000I4898437J1383264D01*
G01*
X142358000Y-73262000D02*
X142358000Y-68042000D01*
X145678000Y-73262000D02*
X145678000Y-68042000D01*
X142358000Y-73262000D02*
X143022000Y-73262000D01*
X145014000Y-73262000D02*
X145678000Y-73262000D01*
X142358000Y-68042000D02*
X143022000Y-68042000D01*
X145014000Y-68042000D02*
X145678000Y-68042000D01*
X172860736Y-64483563D02*
G75*
G03X172864000Y-74281357I1383264J-4898437D01*
G01*
X175627264Y-64483563D02*
G75*
G02X175624000Y-74281357I-1383264J-4898437D01*
G01*
X175627264Y-64483563D02*
G75*
G03X172864000Y-64482643I-1383264J-4898437D01*
G01*
X169194000Y-69382000D02*
X179294000Y-69382000D01*
X169194000Y-69342000D02*
X179294000Y-69342000D01*
X169194000Y-69302000D02*
X179294000Y-69302000D01*
X169195000Y-69262000D02*
X179293000Y-69262000D01*
X169196000Y-69222000D02*
X179292000Y-69222000D01*
X169197000Y-69182000D02*
X179291000Y-69182000D01*
X169199000Y-69142000D02*
X179289000Y-69142000D01*
X169201000Y-69102000D02*
X179287000Y-69102000D01*
X169204000Y-69062000D02*
X179284000Y-69062000D01*
X169206000Y-69022000D02*
X179282000Y-69022000D01*
X169209000Y-68982000D02*
X179279000Y-68982000D01*
X169213000Y-68942000D02*
X179275000Y-68942000D01*
X169216000Y-68902000D02*
X179272000Y-68902000D01*
X169220000Y-68862000D02*
X179268000Y-68862000D01*
X169224000Y-68822000D02*
X179264000Y-68822000D01*
X169229000Y-68782000D02*
X179259000Y-68782000D01*
X169234000Y-68742000D02*
X179254000Y-68742000D01*
X169239000Y-68702000D02*
X179249000Y-68702000D01*
X169245000Y-68661000D02*
X179243000Y-68661000D01*
X169251000Y-68621000D02*
X179237000Y-68621000D01*
X169257000Y-68581000D02*
X179231000Y-68581000D01*
X169263000Y-68541000D02*
X179225000Y-68541000D01*
X169270000Y-68501000D02*
X179218000Y-68501000D01*
X169277000Y-68461000D02*
X179211000Y-68461000D01*
X169285000Y-68421000D02*
X179203000Y-68421000D01*
X169293000Y-68381000D02*
X179195000Y-68381000D01*
X169301000Y-68341000D02*
X179187000Y-68341000D01*
X169309000Y-68301000D02*
X179179000Y-68301000D01*
X169318000Y-68261000D02*
X179170000Y-68261000D01*
X169327000Y-68221000D02*
X179161000Y-68221000D01*
X169337000Y-68181000D02*
X179151000Y-68181000D01*
X169347000Y-68141000D02*
X179141000Y-68141000D01*
X169357000Y-68101000D02*
X179131000Y-68101000D01*
X169368000Y-68061000D02*
X173063000Y-68061000D01*
X175425000Y-68061000D02*
X179120000Y-68061000D01*
X169379000Y-68021000D02*
X173063000Y-68021000D01*
X175425000Y-68021000D02*
X179109000Y-68021000D01*
X169390000Y-67981000D02*
X173063000Y-67981000D01*
X175425000Y-67981000D02*
X179098000Y-67981000D01*
X169401000Y-67941000D02*
X173063000Y-67941000D01*
X175425000Y-67941000D02*
X179087000Y-67941000D01*
X169413000Y-67901000D02*
X173063000Y-67901000D01*
X175425000Y-67901000D02*
X179075000Y-67901000D01*
X169426000Y-67861000D02*
X173063000Y-67861000D01*
X175425000Y-67861000D02*
X179062000Y-67861000D01*
X169438000Y-67821000D02*
X173063000Y-67821000D01*
X175425000Y-67821000D02*
X179050000Y-67821000D01*
X169452000Y-67781000D02*
X173063000Y-67781000D01*
X175425000Y-67781000D02*
X179036000Y-67781000D01*
X169465000Y-67741000D02*
X173063000Y-67741000D01*
X175425000Y-67741000D02*
X179023000Y-67741000D01*
X169479000Y-67701000D02*
X173063000Y-67701000D01*
X175425000Y-67701000D02*
X179009000Y-67701000D01*
X169493000Y-67661000D02*
X173063000Y-67661000D01*
X175425000Y-67661000D02*
X178995000Y-67661000D01*
X169507000Y-67621000D02*
X173063000Y-67621000D01*
X175425000Y-67621000D02*
X178981000Y-67621000D01*
X169522000Y-67581000D02*
X173063000Y-67581000D01*
X175425000Y-67581000D02*
X178966000Y-67581000D01*
X169538000Y-67541000D02*
X173063000Y-67541000D01*
X175425000Y-67541000D02*
X178950000Y-67541000D01*
X169553000Y-67501000D02*
X173063000Y-67501000D01*
X175425000Y-67501000D02*
X178935000Y-67501000D01*
X169570000Y-67461000D02*
X173063000Y-67461000D01*
X175425000Y-67461000D02*
X178918000Y-67461000D01*
X169586000Y-67421000D02*
X173063000Y-67421000D01*
X175425000Y-67421000D02*
X178902000Y-67421000D01*
X169603000Y-67381000D02*
X173063000Y-67381000D01*
X175425000Y-67381000D02*
X178885000Y-67381000D01*
X169620000Y-67341000D02*
X173063000Y-67341000D01*
X175425000Y-67341000D02*
X178868000Y-67341000D01*
X169638000Y-67301000D02*
X173063000Y-67301000D01*
X175425000Y-67301000D02*
X178850000Y-67301000D01*
X169656000Y-67261000D02*
X173063000Y-67261000D01*
X175425000Y-67261000D02*
X178832000Y-67261000D01*
X169675000Y-67221000D02*
X173063000Y-67221000D01*
X175425000Y-67221000D02*
X178813000Y-67221000D01*
X169694000Y-67181000D02*
X173063000Y-67181000D01*
X175425000Y-67181000D02*
X178794000Y-67181000D01*
X169713000Y-67141000D02*
X173063000Y-67141000D01*
X175425000Y-67141000D02*
X178775000Y-67141000D01*
X169733000Y-67101000D02*
X173063000Y-67101000D01*
X175425000Y-67101000D02*
X178755000Y-67101000D01*
X169753000Y-67061000D02*
X173063000Y-67061000D01*
X175425000Y-67061000D02*
X178735000Y-67061000D01*
X169774000Y-67021000D02*
X173063000Y-67021000D01*
X175425000Y-67021000D02*
X178714000Y-67021000D01*
X169795000Y-66981000D02*
X173063000Y-66981000D01*
X175425000Y-66981000D02*
X178693000Y-66981000D01*
X169816000Y-66941000D02*
X173063000Y-66941000D01*
X175425000Y-66941000D02*
X178672000Y-66941000D01*
X169839000Y-66901000D02*
X173063000Y-66901000D01*
X175425000Y-66901000D02*
X178649000Y-66901000D01*
X169861000Y-66861000D02*
X173063000Y-66861000D01*
X175425000Y-66861000D02*
X178627000Y-66861000D01*
X169884000Y-66821000D02*
X173063000Y-66821000D01*
X175425000Y-66821000D02*
X178604000Y-66821000D01*
X169908000Y-66781000D02*
X173063000Y-66781000D01*
X175425000Y-66781000D02*
X178580000Y-66781000D01*
X169932000Y-66741000D02*
X173063000Y-66741000D01*
X175425000Y-66741000D02*
X178556000Y-66741000D01*
X169956000Y-66701000D02*
X173063000Y-66701000D01*
X175425000Y-66701000D02*
X178532000Y-66701000D01*
X169981000Y-66661000D02*
X173063000Y-66661000D01*
X175425000Y-66661000D02*
X178507000Y-66661000D01*
X170007000Y-66621000D02*
X173063000Y-66621000D01*
X175425000Y-66621000D02*
X178481000Y-66621000D01*
X170033000Y-66581000D02*
X173063000Y-66581000D01*
X175425000Y-66581000D02*
X178455000Y-66581000D01*
X170059000Y-66541000D02*
X173063000Y-66541000D01*
X175425000Y-66541000D02*
X178429000Y-66541000D01*
X170087000Y-66501000D02*
X173063000Y-66501000D01*
X175425000Y-66501000D02*
X178401000Y-66501000D01*
X170114000Y-66461000D02*
X173063000Y-66461000D01*
X175425000Y-66461000D02*
X178374000Y-66461000D01*
X170143000Y-66421000D02*
X173063000Y-66421000D01*
X175425000Y-66421000D02*
X178345000Y-66421000D01*
X170172000Y-66381000D02*
X173063000Y-66381000D01*
X175425000Y-66381000D02*
X178316000Y-66381000D01*
X170201000Y-66341000D02*
X173063000Y-66341000D01*
X175425000Y-66341000D02*
X178287000Y-66341000D01*
X170231000Y-66301000D02*
X173063000Y-66301000D01*
X175425000Y-66301000D02*
X178257000Y-66301000D01*
X170262000Y-66261000D02*
X173063000Y-66261000D01*
X175425000Y-66261000D02*
X178226000Y-66261000D01*
X170293000Y-66221000D02*
X173063000Y-66221000D01*
X175425000Y-66221000D02*
X178195000Y-66221000D01*
X170325000Y-66181000D02*
X173063000Y-66181000D01*
X175425000Y-66181000D02*
X178163000Y-66181000D01*
X170358000Y-66141000D02*
X173063000Y-66141000D01*
X175425000Y-66141000D02*
X178130000Y-66141000D01*
X170391000Y-66101000D02*
X173063000Y-66101000D01*
X175425000Y-66101000D02*
X178097000Y-66101000D01*
X170425000Y-66061000D02*
X173063000Y-66061000D01*
X175425000Y-66061000D02*
X178063000Y-66061000D01*
X170460000Y-66021000D02*
X173063000Y-66021000D01*
X175425000Y-66021000D02*
X178028000Y-66021000D01*
X170496000Y-65981000D02*
X173063000Y-65981000D01*
X175425000Y-65981000D02*
X177992000Y-65981000D01*
X170532000Y-65941000D02*
X173063000Y-65941000D01*
X175425000Y-65941000D02*
X177956000Y-65941000D01*
X170569000Y-65901000D02*
X173063000Y-65901000D01*
X175425000Y-65901000D02*
X177919000Y-65901000D01*
X170607000Y-65861000D02*
X173063000Y-65861000D01*
X175425000Y-65861000D02*
X177881000Y-65861000D01*
X170646000Y-65821000D02*
X173063000Y-65821000D01*
X175425000Y-65821000D02*
X177842000Y-65821000D01*
X170685000Y-65781000D02*
X173063000Y-65781000D01*
X175425000Y-65781000D02*
X177803000Y-65781000D01*
X170726000Y-65741000D02*
X173063000Y-65741000D01*
X175425000Y-65741000D02*
X177762000Y-65741000D01*
X170767000Y-65701000D02*
X177721000Y-65701000D01*
X170809000Y-65661000D02*
X177679000Y-65661000D01*
X170853000Y-65621000D02*
X177635000Y-65621000D01*
X170897000Y-65581000D02*
X177591000Y-65581000D01*
X170942000Y-65541000D02*
X177546000Y-65541000D01*
X170989000Y-65501000D02*
X177499000Y-65501000D01*
X171037000Y-65461000D02*
X177451000Y-65461000D01*
X171086000Y-65421000D02*
X177402000Y-65421000D01*
X171136000Y-65381000D02*
X177352000Y-65381000D01*
X171187000Y-65341000D02*
X177301000Y-65341000D01*
X171240000Y-65301000D02*
X177248000Y-65301000D01*
X171295000Y-65261000D02*
X177193000Y-65261000D01*
X171350000Y-65221000D02*
X177138000Y-65221000D01*
X171408000Y-65181000D02*
X177080000Y-65181000D01*
X171467000Y-65141000D02*
X177021000Y-65141000D01*
X171529000Y-65101000D02*
X176959000Y-65101000D01*
X171592000Y-65061000D02*
X176896000Y-65061000D01*
X171657000Y-65021000D02*
X176831000Y-65021000D01*
X171725000Y-64981000D02*
X176763000Y-64981000D01*
X171795000Y-64941000D02*
X176693000Y-64941000D01*
X171867000Y-64901000D02*
X176621000Y-64901000D01*
X171943000Y-64861000D02*
X176545000Y-64861000D01*
X172022000Y-64821000D02*
X176466000Y-64821000D01*
X172104000Y-64781000D02*
X176384000Y-64781000D01*
X172191000Y-64741000D02*
X176297000Y-64741000D01*
X172282000Y-64701000D02*
X176206000Y-64701000D01*
X172378000Y-64661000D02*
X176110000Y-64661000D01*
X172481000Y-64621000D02*
X176007000Y-64621000D01*
X172590000Y-64581000D02*
X175898000Y-64581000D01*
X172708000Y-64541000D02*
X175780000Y-64541000D01*
X172837000Y-64501000D02*
X175651000Y-64501000D01*
X172979000Y-64461000D02*
X175509000Y-64461000D01*
X173140000Y-64421000D02*
X175348000Y-64421000D01*
X173331000Y-64381000D02*
X175157000Y-64381000D01*
X173572000Y-64341000D02*
X174916000Y-64341000D01*
X173965000Y-64301000D02*
X174523000Y-64301000D01*
X174244000Y-74582000D02*
X174244000Y-73082000D01*
X173494000Y-73832000D02*
X174994000Y-73832000D01*
X165628000Y-61752000D02*
X164964000Y-61752000D01*
X168284000Y-61752000D02*
X167620000Y-61752000D01*
X165628000Y-56532000D02*
X164964000Y-56532000D01*
X168284000Y-56532000D02*
X167620000Y-56532000D01*
X164964000Y-56532000D02*
X164964000Y-61752000D01*
X168284000Y-56532000D02*
X168284000Y-61752000D01*
X140272000Y-56110000D02*
X140272000Y-60730000D01*
X132952000Y-56110000D02*
X132952000Y-60730000D01*
X132952000Y-60730000D02*
X140272000Y-60730000D01*
X132952000Y-56110000D02*
X140272000Y-56110000D01*
X153780000Y-72620000D02*
X161100000Y-72620000D01*
X153780000Y-77240000D02*
X161100000Y-77240000D01*
X153780000Y-72620000D02*
X153780000Y-77240000D01*
X161100000Y-72620000D02*
X161100000Y-77240000D01*
X173458000Y-55816000D02*
X178078000Y-55816000D01*
X173458000Y-63136000D02*
X178078000Y-63136000D01*
X178078000Y-63136000D02*
X178078000Y-55816000D01*
X173458000Y-63136000D02*
X173458000Y-55816000D01*
X159117264Y-71660437D02*
G75*
G03X159114000Y-61862643I-1383264J4898437D01*
G01*
X156350736Y-71660437D02*
G75*
G02X156354000Y-61862643I1383264J4898437D01*
G01*
X156350736Y-71660437D02*
G75*
G03X159114000Y-71661357I1383264J4898437D01*
G01*
X162784000Y-66762000D02*
X152684000Y-66762000D01*
X162784000Y-66802000D02*
X152684000Y-66802000D01*
X162784000Y-66842000D02*
X152684000Y-66842000D01*
X162783000Y-66882000D02*
X152685000Y-66882000D01*
X162782000Y-66922000D02*
X152686000Y-66922000D01*
X162781000Y-66962000D02*
X152687000Y-66962000D01*
X162779000Y-67002000D02*
X152689000Y-67002000D01*
X162777000Y-67042000D02*
X152691000Y-67042000D01*
X162774000Y-67082000D02*
X152694000Y-67082000D01*
X162772000Y-67122000D02*
X152696000Y-67122000D01*
X162769000Y-67162000D02*
X152699000Y-67162000D01*
X162765000Y-67202000D02*
X152703000Y-67202000D01*
X162762000Y-67242000D02*
X152706000Y-67242000D01*
X162758000Y-67282000D02*
X152710000Y-67282000D01*
X162754000Y-67322000D02*
X152714000Y-67322000D01*
X162749000Y-67362000D02*
X152719000Y-67362000D01*
X162744000Y-67402000D02*
X152724000Y-67402000D01*
X162739000Y-67442000D02*
X152729000Y-67442000D01*
X162733000Y-67483000D02*
X152735000Y-67483000D01*
X162727000Y-67523000D02*
X152741000Y-67523000D01*
X162721000Y-67563000D02*
X152747000Y-67563000D01*
X162715000Y-67603000D02*
X152753000Y-67603000D01*
X162708000Y-67643000D02*
X152760000Y-67643000D01*
X162701000Y-67683000D02*
X152767000Y-67683000D01*
X162693000Y-67723000D02*
X152775000Y-67723000D01*
X162685000Y-67763000D02*
X152783000Y-67763000D01*
X162677000Y-67803000D02*
X152791000Y-67803000D01*
X162669000Y-67843000D02*
X152799000Y-67843000D01*
X162660000Y-67883000D02*
X152808000Y-67883000D01*
X162651000Y-67923000D02*
X152817000Y-67923000D01*
X162641000Y-67963000D02*
X152827000Y-67963000D01*
X162631000Y-68003000D02*
X152837000Y-68003000D01*
X162621000Y-68043000D02*
X152847000Y-68043000D01*
X162610000Y-68083000D02*
X158915000Y-68083000D01*
X156553000Y-68083000D02*
X152858000Y-68083000D01*
X162599000Y-68123000D02*
X158915000Y-68123000D01*
X156553000Y-68123000D02*
X152869000Y-68123000D01*
X162588000Y-68163000D02*
X158915000Y-68163000D01*
X156553000Y-68163000D02*
X152880000Y-68163000D01*
X162577000Y-68203000D02*
X158915000Y-68203000D01*
X156553000Y-68203000D02*
X152891000Y-68203000D01*
X162565000Y-68243000D02*
X158915000Y-68243000D01*
X156553000Y-68243000D02*
X152903000Y-68243000D01*
X162552000Y-68283000D02*
X158915000Y-68283000D01*
X156553000Y-68283000D02*
X152916000Y-68283000D01*
X162540000Y-68323000D02*
X158915000Y-68323000D01*
X156553000Y-68323000D02*
X152928000Y-68323000D01*
X162526000Y-68363000D02*
X158915000Y-68363000D01*
X156553000Y-68363000D02*
X152942000Y-68363000D01*
X162513000Y-68403000D02*
X158915000Y-68403000D01*
X156553000Y-68403000D02*
X152955000Y-68403000D01*
X162499000Y-68443000D02*
X158915000Y-68443000D01*
X156553000Y-68443000D02*
X152969000Y-68443000D01*
X162485000Y-68483000D02*
X158915000Y-68483000D01*
X156553000Y-68483000D02*
X152983000Y-68483000D01*
X162471000Y-68523000D02*
X158915000Y-68523000D01*
X156553000Y-68523000D02*
X152997000Y-68523000D01*
X162456000Y-68563000D02*
X158915000Y-68563000D01*
X156553000Y-68563000D02*
X153012000Y-68563000D01*
X162440000Y-68603000D02*
X158915000Y-68603000D01*
X156553000Y-68603000D02*
X153028000Y-68603000D01*
X162425000Y-68643000D02*
X158915000Y-68643000D01*
X156553000Y-68643000D02*
X153043000Y-68643000D01*
X162408000Y-68683000D02*
X158915000Y-68683000D01*
X156553000Y-68683000D02*
X153060000Y-68683000D01*
X162392000Y-68723000D02*
X158915000Y-68723000D01*
X156553000Y-68723000D02*
X153076000Y-68723000D01*
X162375000Y-68763000D02*
X158915000Y-68763000D01*
X156553000Y-68763000D02*
X153093000Y-68763000D01*
X162358000Y-68803000D02*
X158915000Y-68803000D01*
X156553000Y-68803000D02*
X153110000Y-68803000D01*
X162340000Y-68843000D02*
X158915000Y-68843000D01*
X156553000Y-68843000D02*
X153128000Y-68843000D01*
X162322000Y-68883000D02*
X158915000Y-68883000D01*
X156553000Y-68883000D02*
X153146000Y-68883000D01*
X162303000Y-68923000D02*
X158915000Y-68923000D01*
X156553000Y-68923000D02*
X153165000Y-68923000D01*
X162284000Y-68963000D02*
X158915000Y-68963000D01*
X156553000Y-68963000D02*
X153184000Y-68963000D01*
X162265000Y-69003000D02*
X158915000Y-69003000D01*
X156553000Y-69003000D02*
X153203000Y-69003000D01*
X162245000Y-69043000D02*
X158915000Y-69043000D01*
X156553000Y-69043000D02*
X153223000Y-69043000D01*
X162225000Y-69083000D02*
X158915000Y-69083000D01*
X156553000Y-69083000D02*
X153243000Y-69083000D01*
X162204000Y-69123000D02*
X158915000Y-69123000D01*
X156553000Y-69123000D02*
X153264000Y-69123000D01*
X162183000Y-69163000D02*
X158915000Y-69163000D01*
X156553000Y-69163000D02*
X153285000Y-69163000D01*
X162162000Y-69203000D02*
X158915000Y-69203000D01*
X156553000Y-69203000D02*
X153306000Y-69203000D01*
X162139000Y-69243000D02*
X158915000Y-69243000D01*
X156553000Y-69243000D02*
X153329000Y-69243000D01*
X162117000Y-69283000D02*
X158915000Y-69283000D01*
X156553000Y-69283000D02*
X153351000Y-69283000D01*
X162094000Y-69323000D02*
X158915000Y-69323000D01*
X156553000Y-69323000D02*
X153374000Y-69323000D01*
X162070000Y-69363000D02*
X158915000Y-69363000D01*
X156553000Y-69363000D02*
X153398000Y-69363000D01*
X162046000Y-69403000D02*
X158915000Y-69403000D01*
X156553000Y-69403000D02*
X153422000Y-69403000D01*
X162022000Y-69443000D02*
X158915000Y-69443000D01*
X156553000Y-69443000D02*
X153446000Y-69443000D01*
X161997000Y-69483000D02*
X158915000Y-69483000D01*
X156553000Y-69483000D02*
X153471000Y-69483000D01*
X161971000Y-69523000D02*
X158915000Y-69523000D01*
X156553000Y-69523000D02*
X153497000Y-69523000D01*
X161945000Y-69563000D02*
X158915000Y-69563000D01*
X156553000Y-69563000D02*
X153523000Y-69563000D01*
X161919000Y-69603000D02*
X158915000Y-69603000D01*
X156553000Y-69603000D02*
X153549000Y-69603000D01*
X161891000Y-69643000D02*
X158915000Y-69643000D01*
X156553000Y-69643000D02*
X153577000Y-69643000D01*
X161864000Y-69683000D02*
X158915000Y-69683000D01*
X156553000Y-69683000D02*
X153604000Y-69683000D01*
X161835000Y-69723000D02*
X158915000Y-69723000D01*
X156553000Y-69723000D02*
X153633000Y-69723000D01*
X161806000Y-69763000D02*
X158915000Y-69763000D01*
X156553000Y-69763000D02*
X153662000Y-69763000D01*
X161777000Y-69803000D02*
X158915000Y-69803000D01*
X156553000Y-69803000D02*
X153691000Y-69803000D01*
X161747000Y-69843000D02*
X158915000Y-69843000D01*
X156553000Y-69843000D02*
X153721000Y-69843000D01*
X161716000Y-69883000D02*
X158915000Y-69883000D01*
X156553000Y-69883000D02*
X153752000Y-69883000D01*
X161685000Y-69923000D02*
X158915000Y-69923000D01*
X156553000Y-69923000D02*
X153783000Y-69923000D01*
X161653000Y-69963000D02*
X158915000Y-69963000D01*
X156553000Y-69963000D02*
X153815000Y-69963000D01*
X161620000Y-70003000D02*
X158915000Y-70003000D01*
X156553000Y-70003000D02*
X153848000Y-70003000D01*
X161587000Y-70043000D02*
X158915000Y-70043000D01*
X156553000Y-70043000D02*
X153881000Y-70043000D01*
X161553000Y-70083000D02*
X158915000Y-70083000D01*
X156553000Y-70083000D02*
X153915000Y-70083000D01*
X161518000Y-70123000D02*
X158915000Y-70123000D01*
X156553000Y-70123000D02*
X153950000Y-70123000D01*
X161482000Y-70163000D02*
X158915000Y-70163000D01*
X156553000Y-70163000D02*
X153986000Y-70163000D01*
X161446000Y-70203000D02*
X158915000Y-70203000D01*
X156553000Y-70203000D02*
X154022000Y-70203000D01*
X161409000Y-70243000D02*
X158915000Y-70243000D01*
X156553000Y-70243000D02*
X154059000Y-70243000D01*
X161371000Y-70283000D02*
X158915000Y-70283000D01*
X156553000Y-70283000D02*
X154097000Y-70283000D01*
X161332000Y-70323000D02*
X158915000Y-70323000D01*
X156553000Y-70323000D02*
X154136000Y-70323000D01*
X161293000Y-70363000D02*
X158915000Y-70363000D01*
X156553000Y-70363000D02*
X154175000Y-70363000D01*
X161252000Y-70403000D02*
X158915000Y-70403000D01*
X156553000Y-70403000D02*
X154216000Y-70403000D01*
X161211000Y-70443000D02*
X154257000Y-70443000D01*
X161169000Y-70483000D02*
X154299000Y-70483000D01*
X161125000Y-70523000D02*
X154343000Y-70523000D01*
X161081000Y-70563000D02*
X154387000Y-70563000D01*
X161036000Y-70603000D02*
X154432000Y-70603000D01*
X160989000Y-70643000D02*
X154479000Y-70643000D01*
X160941000Y-70683000D02*
X154527000Y-70683000D01*
X160892000Y-70723000D02*
X154576000Y-70723000D01*
X160842000Y-70763000D02*
X154626000Y-70763000D01*
X160791000Y-70803000D02*
X154677000Y-70803000D01*
X160738000Y-70843000D02*
X154730000Y-70843000D01*
X160683000Y-70883000D02*
X154785000Y-70883000D01*
X160628000Y-70923000D02*
X154840000Y-70923000D01*
X160570000Y-70963000D02*
X154898000Y-70963000D01*
X160511000Y-71003000D02*
X154957000Y-71003000D01*
X160449000Y-71043000D02*
X155019000Y-71043000D01*
X160386000Y-71083000D02*
X155082000Y-71083000D01*
X160321000Y-71123000D02*
X155147000Y-71123000D01*
X160253000Y-71163000D02*
X155215000Y-71163000D01*
X160183000Y-71203000D02*
X155285000Y-71203000D01*
X160111000Y-71243000D02*
X155357000Y-71243000D01*
X160035000Y-71283000D02*
X155433000Y-71283000D01*
X159956000Y-71323000D02*
X155512000Y-71323000D01*
X159874000Y-71363000D02*
X155594000Y-71363000D01*
X159787000Y-71403000D02*
X155681000Y-71403000D01*
X159696000Y-71443000D02*
X155772000Y-71443000D01*
X159600000Y-71483000D02*
X155868000Y-71483000D01*
X159497000Y-71523000D02*
X155971000Y-71523000D01*
X159388000Y-71563000D02*
X156080000Y-71563000D01*
X159270000Y-71603000D02*
X156198000Y-71603000D01*
X159141000Y-71643000D02*
X156327000Y-71643000D01*
X158999000Y-71683000D02*
X156469000Y-71683000D01*
X158838000Y-71723000D02*
X156630000Y-71723000D01*
X158647000Y-71763000D02*
X156821000Y-71763000D01*
X158406000Y-71803000D02*
X157062000Y-71803000D01*
X158013000Y-71843000D02*
X157455000Y-71843000D01*
X157734000Y-61562000D02*
X157734000Y-63062000D01*
X158484000Y-62312000D02*
X156984000Y-62312000D01*
X196330000Y-62312000D02*
X194830000Y-62312000D01*
X195580000Y-61562000D02*
X195580000Y-63062000D01*
X195859000Y-71843000D02*
X195301000Y-71843000D01*
X196252000Y-71803000D02*
X194908000Y-71803000D01*
X196493000Y-71763000D02*
X194667000Y-71763000D01*
X196684000Y-71723000D02*
X194476000Y-71723000D01*
X196845000Y-71683000D02*
X194315000Y-71683000D01*
X196987000Y-71643000D02*
X194173000Y-71643000D01*
X197116000Y-71603000D02*
X194044000Y-71603000D01*
X197234000Y-71563000D02*
X193926000Y-71563000D01*
X197343000Y-71523000D02*
X193817000Y-71523000D01*
X197446000Y-71483000D02*
X193714000Y-71483000D01*
X197542000Y-71443000D02*
X193618000Y-71443000D01*
X197633000Y-71403000D02*
X193527000Y-71403000D01*
X197720000Y-71363000D02*
X193440000Y-71363000D01*
X197802000Y-71323000D02*
X193358000Y-71323000D01*
X197881000Y-71283000D02*
X193279000Y-71283000D01*
X197957000Y-71243000D02*
X193203000Y-71243000D01*
X198029000Y-71203000D02*
X193131000Y-71203000D01*
X198099000Y-71163000D02*
X193061000Y-71163000D01*
X198167000Y-71123000D02*
X192993000Y-71123000D01*
X198232000Y-71083000D02*
X192928000Y-71083000D01*
X198295000Y-71043000D02*
X192865000Y-71043000D01*
X198357000Y-71003000D02*
X192803000Y-71003000D01*
X198416000Y-70963000D02*
X192744000Y-70963000D01*
X198474000Y-70923000D02*
X192686000Y-70923000D01*
X198529000Y-70883000D02*
X192631000Y-70883000D01*
X198584000Y-70843000D02*
X192576000Y-70843000D01*
X198637000Y-70803000D02*
X192523000Y-70803000D01*
X198688000Y-70763000D02*
X192472000Y-70763000D01*
X198738000Y-70723000D02*
X192422000Y-70723000D01*
X198787000Y-70683000D02*
X192373000Y-70683000D01*
X198835000Y-70643000D02*
X192325000Y-70643000D01*
X198882000Y-70603000D02*
X192278000Y-70603000D01*
X198927000Y-70563000D02*
X192233000Y-70563000D01*
X198971000Y-70523000D02*
X192189000Y-70523000D01*
X199015000Y-70483000D02*
X192145000Y-70483000D01*
X199057000Y-70443000D02*
X192103000Y-70443000D01*
X194399000Y-70403000D02*
X192062000Y-70403000D01*
X199098000Y-70403000D02*
X196761000Y-70403000D01*
X194399000Y-70363000D02*
X192021000Y-70363000D01*
X199139000Y-70363000D02*
X196761000Y-70363000D01*
X194399000Y-70323000D02*
X191982000Y-70323000D01*
X199178000Y-70323000D02*
X196761000Y-70323000D01*
X194399000Y-70283000D02*
X191943000Y-70283000D01*
X199217000Y-70283000D02*
X196761000Y-70283000D01*
X194399000Y-70243000D02*
X191905000Y-70243000D01*
X199255000Y-70243000D02*
X196761000Y-70243000D01*
X194399000Y-70203000D02*
X191868000Y-70203000D01*
X199292000Y-70203000D02*
X196761000Y-70203000D01*
X194399000Y-70163000D02*
X191832000Y-70163000D01*
X199328000Y-70163000D02*
X196761000Y-70163000D01*
X194399000Y-70123000D02*
X191796000Y-70123000D01*
X199364000Y-70123000D02*
X196761000Y-70123000D01*
X194399000Y-70083000D02*
X191761000Y-70083000D01*
X199399000Y-70083000D02*
X196761000Y-70083000D01*
X194399000Y-70043000D02*
X191727000Y-70043000D01*
X199433000Y-70043000D02*
X196761000Y-70043000D01*
X194399000Y-70003000D02*
X191694000Y-70003000D01*
X199466000Y-70003000D02*
X196761000Y-70003000D01*
X194399000Y-69963000D02*
X191661000Y-69963000D01*
X199499000Y-69963000D02*
X196761000Y-69963000D01*
X194399000Y-69923000D02*
X191629000Y-69923000D01*
X199531000Y-69923000D02*
X196761000Y-69923000D01*
X194399000Y-69883000D02*
X191598000Y-69883000D01*
X199562000Y-69883000D02*
X196761000Y-69883000D01*
X194399000Y-69843000D02*
X191567000Y-69843000D01*
X199593000Y-69843000D02*
X196761000Y-69843000D01*
X194399000Y-69803000D02*
X191537000Y-69803000D01*
X199623000Y-69803000D02*
X196761000Y-69803000D01*
X194399000Y-69763000D02*
X191508000Y-69763000D01*
X199652000Y-69763000D02*
X196761000Y-69763000D01*
X194399000Y-69723000D02*
X191479000Y-69723000D01*
X199681000Y-69723000D02*
X196761000Y-69723000D01*
X194399000Y-69683000D02*
X191450000Y-69683000D01*
X199710000Y-69683000D02*
X196761000Y-69683000D01*
X194399000Y-69643000D02*
X191423000Y-69643000D01*
X199737000Y-69643000D02*
X196761000Y-69643000D01*
X194399000Y-69603000D02*
X191395000Y-69603000D01*
X199765000Y-69603000D02*
X196761000Y-69603000D01*
X194399000Y-69563000D02*
X191369000Y-69563000D01*
X199791000Y-69563000D02*
X196761000Y-69563000D01*
X194399000Y-69523000D02*
X191343000Y-69523000D01*
X199817000Y-69523000D02*
X196761000Y-69523000D01*
X194399000Y-69483000D02*
X191317000Y-69483000D01*
X199843000Y-69483000D02*
X196761000Y-69483000D01*
X194399000Y-69443000D02*
X191292000Y-69443000D01*
X199868000Y-69443000D02*
X196761000Y-69443000D01*
X194399000Y-69403000D02*
X191268000Y-69403000D01*
X199892000Y-69403000D02*
X196761000Y-69403000D01*
X194399000Y-69363000D02*
X191244000Y-69363000D01*
X199916000Y-69363000D02*
X196761000Y-69363000D01*
X194399000Y-69323000D02*
X191220000Y-69323000D01*
X199940000Y-69323000D02*
X196761000Y-69323000D01*
X194399000Y-69283000D02*
X191197000Y-69283000D01*
X199963000Y-69283000D02*
X196761000Y-69283000D01*
X194399000Y-69243000D02*
X191175000Y-69243000D01*
X199985000Y-69243000D02*
X196761000Y-69243000D01*
X194399000Y-69203000D02*
X191152000Y-69203000D01*
X200008000Y-69203000D02*
X196761000Y-69203000D01*
X194399000Y-69163000D02*
X191131000Y-69163000D01*
X200029000Y-69163000D02*
X196761000Y-69163000D01*
X194399000Y-69123000D02*
X191110000Y-69123000D01*
X200050000Y-69123000D02*
X196761000Y-69123000D01*
X194399000Y-69083000D02*
X191089000Y-69083000D01*
X200071000Y-69083000D02*
X196761000Y-69083000D01*
X194399000Y-69043000D02*
X191069000Y-69043000D01*
X200091000Y-69043000D02*
X196761000Y-69043000D01*
X194399000Y-69003000D02*
X191049000Y-69003000D01*
X200111000Y-69003000D02*
X196761000Y-69003000D01*
X194399000Y-68963000D02*
X191030000Y-68963000D01*
X200130000Y-68963000D02*
X196761000Y-68963000D01*
X194399000Y-68923000D02*
X191011000Y-68923000D01*
X200149000Y-68923000D02*
X196761000Y-68923000D01*
X194399000Y-68883000D02*
X190992000Y-68883000D01*
X200168000Y-68883000D02*
X196761000Y-68883000D01*
X194399000Y-68843000D02*
X190974000Y-68843000D01*
X200186000Y-68843000D02*
X196761000Y-68843000D01*
X194399000Y-68803000D02*
X190956000Y-68803000D01*
X200204000Y-68803000D02*
X196761000Y-68803000D01*
X194399000Y-68763000D02*
X190939000Y-68763000D01*
X200221000Y-68763000D02*
X196761000Y-68763000D01*
X194399000Y-68723000D02*
X190922000Y-68723000D01*
X200238000Y-68723000D02*
X196761000Y-68723000D01*
X194399000Y-68683000D02*
X190906000Y-68683000D01*
X200254000Y-68683000D02*
X196761000Y-68683000D01*
X194399000Y-68643000D02*
X190889000Y-68643000D01*
X200271000Y-68643000D02*
X196761000Y-68643000D01*
X194399000Y-68603000D02*
X190874000Y-68603000D01*
X200286000Y-68603000D02*
X196761000Y-68603000D01*
X194399000Y-68563000D02*
X190858000Y-68563000D01*
X200302000Y-68563000D02*
X196761000Y-68563000D01*
X194399000Y-68523000D02*
X190843000Y-68523000D01*
X200317000Y-68523000D02*
X196761000Y-68523000D01*
X194399000Y-68483000D02*
X190829000Y-68483000D01*
X200331000Y-68483000D02*
X196761000Y-68483000D01*
X194399000Y-68443000D02*
X190815000Y-68443000D01*
X200345000Y-68443000D02*
X196761000Y-68443000D01*
X194399000Y-68403000D02*
X190801000Y-68403000D01*
X200359000Y-68403000D02*
X196761000Y-68403000D01*
X194399000Y-68363000D02*
X190788000Y-68363000D01*
X200372000Y-68363000D02*
X196761000Y-68363000D01*
X194399000Y-68323000D02*
X190774000Y-68323000D01*
X200386000Y-68323000D02*
X196761000Y-68323000D01*
X194399000Y-68283000D02*
X190762000Y-68283000D01*
X200398000Y-68283000D02*
X196761000Y-68283000D01*
X194399000Y-68243000D02*
X190749000Y-68243000D01*
X200411000Y-68243000D02*
X196761000Y-68243000D01*
X194399000Y-68203000D02*
X190737000Y-68203000D01*
X200423000Y-68203000D02*
X196761000Y-68203000D01*
X194399000Y-68163000D02*
X190726000Y-68163000D01*
X200434000Y-68163000D02*
X196761000Y-68163000D01*
X194399000Y-68123000D02*
X190715000Y-68123000D01*
X200445000Y-68123000D02*
X196761000Y-68123000D01*
X194399000Y-68083000D02*
X190704000Y-68083000D01*
X200456000Y-68083000D02*
X196761000Y-68083000D01*
X200467000Y-68043000D02*
X190693000Y-68043000D01*
X200477000Y-68003000D02*
X190683000Y-68003000D01*
X200487000Y-67963000D02*
X190673000Y-67963000D01*
X200497000Y-67923000D02*
X190663000Y-67923000D01*
X200506000Y-67883000D02*
X190654000Y-67883000D01*
X200515000Y-67843000D02*
X190645000Y-67843000D01*
X200523000Y-67803000D02*
X190637000Y-67803000D01*
X200531000Y-67763000D02*
X190629000Y-67763000D01*
X200539000Y-67723000D02*
X190621000Y-67723000D01*
X200547000Y-67683000D02*
X190613000Y-67683000D01*
X200554000Y-67643000D02*
X190606000Y-67643000D01*
X200561000Y-67603000D02*
X190599000Y-67603000D01*
X200567000Y-67563000D02*
X190593000Y-67563000D01*
X200573000Y-67523000D02*
X190587000Y-67523000D01*
X200579000Y-67483000D02*
X190581000Y-67483000D01*
X200585000Y-67442000D02*
X190575000Y-67442000D01*
X200590000Y-67402000D02*
X190570000Y-67402000D01*
X200595000Y-67362000D02*
X190565000Y-67362000D01*
X200600000Y-67322000D02*
X190560000Y-67322000D01*
X200604000Y-67282000D02*
X190556000Y-67282000D01*
X200608000Y-67242000D02*
X190552000Y-67242000D01*
X200611000Y-67202000D02*
X190549000Y-67202000D01*
X200615000Y-67162000D02*
X190545000Y-67162000D01*
X200618000Y-67122000D02*
X190542000Y-67122000D01*
X200620000Y-67082000D02*
X190540000Y-67082000D01*
X200623000Y-67042000D02*
X190537000Y-67042000D01*
X200625000Y-67002000D02*
X190535000Y-67002000D01*
X200627000Y-66962000D02*
X190533000Y-66962000D01*
X200628000Y-66922000D02*
X190532000Y-66922000D01*
X200629000Y-66882000D02*
X190531000Y-66882000D01*
X200630000Y-66842000D02*
X190530000Y-66842000D01*
X200630000Y-66802000D02*
X190530000Y-66802000D01*
X200630000Y-66762000D02*
X190530000Y-66762000D01*
X194196736Y-71660437D02*
G75*
G03X196960000Y-71661357I1383264J4898437D01*
G01*
X194196736Y-71660437D02*
G75*
G02X194200000Y-61862643I1383264J4898437D01*
G01*
X196963264Y-71660437D02*
G75*
G03X196960000Y-61862643I-1383264J4898437D01*
G01*
X167676000Y-70802000D02*
X167676000Y-70646000D01*
X167676000Y-73118000D02*
X167676000Y-72962000D01*
X165074870Y-70802163D02*
G75*
G02X167156961Y-70802000I1041130J-1079837D01*
G01*
X165074870Y-72961837D02*
G75*
G03X167156961Y-72962000I1041130J1079837D01*
G01*
X164443665Y-70803392D02*
G75*
G02X167676000Y-70646484I1672335J-1078608D01*
G01*
X164443665Y-72960608D02*
G75*
G03X167676000Y-73117516I1672335J1078608D01*
G01*
X127254000Y-63966000D02*
X127254000Y-70466000D01*
X123754000Y-63966000D02*
X130754000Y-63966000D01*
X130754000Y-55216000D02*
X130754000Y-63966000D01*
X123754000Y-55216000D02*
X123754000Y-63966000D01*
X129754000Y-77966000D02*
X129754000Y-79216000D01*
X124754000Y-77716000D02*
X124754000Y-79216000D01*
X129754000Y-65716000D02*
X129754000Y-77966000D01*
X124754000Y-65966000D02*
X124754000Y-77716000D01*
X129754000Y-55216000D02*
X129754000Y-65716000D01*
X124754000Y-55216000D02*
X124754000Y-65966000D01*
X124754000Y-55216000D02*
X129754000Y-55216000D01*
X123754000Y-54216000D02*
X123754000Y-55216000D01*
X123754000Y-54216000D02*
X130754000Y-54216000D01*
X130754000Y-54216000D02*
X130754000Y-55216000D01*
X124754000Y-79216000D02*
X129754000Y-79216000D01*
X123754000Y-70466000D02*
X123754000Y-80216000D01*
X123754000Y-80216000D02*
X130754000Y-80216000D01*
X130754000Y-70466000D02*
X130754000Y-80216000D01*
X123754000Y-70466000D02*
X130754000Y-70466000D01*
X190810000Y-88688000D02*
X197810000Y-88688000D01*
X197810000Y-88688000D02*
X197810000Y-98438000D01*
X190810000Y-98438000D02*
X197810000Y-98438000D01*
X190810000Y-88688000D02*
X190810000Y-98438000D01*
X191810000Y-97438000D02*
X196810000Y-97438000D01*
X197810000Y-72438000D02*
X197810000Y-73438000D01*
X190810000Y-72438000D02*
X197810000Y-72438000D01*
X190810000Y-72438000D02*
X190810000Y-73438000D01*
X191810000Y-73438000D02*
X196810000Y-73438000D01*
X191810000Y-73438000D02*
X191810000Y-84188000D01*
X196810000Y-73438000D02*
X196810000Y-83938000D01*
X191810000Y-84188000D02*
X191810000Y-95938000D01*
X196810000Y-83938000D02*
X196810000Y-96188000D01*
X191810000Y-95938000D02*
X191810000Y-97438000D01*
X196810000Y-96188000D02*
X196810000Y-97438000D01*
X190810000Y-73438000D02*
X190810000Y-82188000D01*
X197810000Y-73438000D02*
X197810000Y-82188000D01*
X190810000Y-82188000D02*
X197810000Y-82188000D01*
X194310000Y-82188000D02*
X194310000Y-88688000D01*
D11*
X162687000Y-85852000D02*
X162687000Y-75692000D01*
X170307000Y-85852000D02*
X162687000Y-85852000D01*
X170307000Y-75692000D02*
X170307000Y-85852000D01*
X162687000Y-75692000D02*
X170307000Y-75692000D01*
X163957000Y-78232000D02*
X163957000Y-75692000D01*
X169037000Y-78232000D02*
X163957000Y-78232000D01*
X169037000Y-75692000D02*
X169037000Y-78232000D01*
D10*
X157408000Y-84525500D02*
X157408000Y-88125500D01*
X157419522Y-84487022D02*
G75*
G02X161858000Y-86325500I1838478J-1838478D01*
G01*
X157419522Y-88163978D02*
G75*
G03X161858000Y-86325500I1838478J1838478D01*
G01*
X158060000Y-82318000D02*
X158060000Y-78718000D01*
X158048478Y-82356478D02*
G75*
G02X153610000Y-80518000I-1838478J1838478D01*
G01*
X158048478Y-78679522D02*
G75*
G03X153610000Y-80518000I-1838478J-1838478D01*
G01*
X157032478Y-84487022D02*
G75*
G03X152594000Y-86325500I-1838478J-1838478D01*
G01*
X157032478Y-88163978D02*
G75*
G02X152594000Y-86325500I-1838478J1838478D01*
G01*
X157044000Y-88125500D02*
X157044000Y-84525500D01*
X144195000Y-79724000D02*
X144195000Y-78894000D01*
X144195000Y-82384000D02*
X144195000Y-80804000D01*
X147396000Y-79214000D02*
X147396000Y-78894000D01*
X147396000Y-82384000D02*
X147396000Y-81314000D01*
X141676000Y-82384000D02*
X141676000Y-78894000D01*
X149916000Y-82384000D02*
X149916000Y-78894000D01*
X149916000Y-78894000D02*
X141676000Y-78894000D01*
X149916000Y-82384000D02*
X141676000Y-82384000D01*
X151190478Y-71942478D02*
G75*
G03X149352000Y-67504000I-1838478J1838478D01*
G01*
X147513522Y-71942478D02*
G75*
G02X149352000Y-67504000I1838478J1838478D01*
G01*
X147552000Y-71954000D02*
X151152000Y-71954000D01*
X147905000Y-77248000D02*
X147905000Y-78078000D01*
X147905000Y-74588000D02*
X147905000Y-76168000D01*
X144704000Y-77758000D02*
X144704000Y-78078000D01*
X144704000Y-74588000D02*
X144704000Y-75658000D01*
X150424000Y-74588000D02*
X150424000Y-78078000D01*
X142184000Y-74588000D02*
X142184000Y-78078000D01*
X142184000Y-78078000D02*
X150424000Y-78078000D01*
X142184000Y-74588000D02*
X150424000Y-74588000D01*
X169076000Y-63810000D02*
X169076000Y-55570000D01*
X172566000Y-63810000D02*
X172566000Y-55570000D01*
X169076000Y-63810000D02*
X172566000Y-63810000D01*
X169076000Y-55570000D02*
X172566000Y-55570000D01*
X169076000Y-61290000D02*
X170146000Y-61290000D01*
X172246000Y-61290000D02*
X172566000Y-61290000D01*
X169076000Y-58089000D02*
X170656000Y-58089000D01*
X171736000Y-58089000D02*
X172566000Y-58089000D01*
X141380000Y-55891000D02*
X144650000Y-55891000D01*
X147450000Y-55891000D02*
X150101000Y-55891000D01*
X152900000Y-55891000D02*
X155550000Y-55891000D01*
X158350000Y-55891000D02*
X161620000Y-55891000D01*
X141380000Y-61132000D02*
X161620000Y-61132000D01*
X141380000Y-55891000D02*
X141380000Y-61132000D01*
X161620000Y-55891000D02*
X161620000Y-61132000D01*
X141380000Y-58132000D02*
X144650000Y-58132000D01*
X147450000Y-58132000D02*
X150101000Y-58132000D01*
X152900000Y-58132000D02*
X155550000Y-58132000D01*
X158350000Y-58132000D02*
X161620000Y-58132000D01*
X149850000Y-55891000D02*
X149850000Y-58132000D01*
X153150000Y-55891000D02*
X153150000Y-58132000D01*
X190488000Y-55891000D02*
X190488000Y-58132000D01*
X187188000Y-55891000D02*
X187188000Y-58132000D01*
X195688000Y-58132000D02*
X198958000Y-58132000D01*
X190238000Y-58132000D02*
X192888000Y-58132000D01*
X184788000Y-58132000D02*
X187439000Y-58132000D01*
X178718000Y-58132000D02*
X181988000Y-58132000D01*
X198958000Y-55891000D02*
X198958000Y-61132000D01*
X178718000Y-55891000D02*
X178718000Y-61132000D01*
X178718000Y-61132000D02*
X198958000Y-61132000D01*
X195688000Y-55891000D02*
X198958000Y-55891000D01*
X190238000Y-55891000D02*
X192888000Y-55891000D01*
X184788000Y-55891000D02*
X187439000Y-55891000D01*
X178718000Y-55891000D02*
X181988000Y-55891000D01*
X159340000Y-92618000D02*
X159340000Y-91618000D01*
X160700000Y-91618000D02*
X160700000Y-92618000D01*
X151810000Y-80018000D02*
X151810000Y-81018000D01*
X150450000Y-81018000D02*
X150450000Y-80018000D01*
X167040000Y-69006000D02*
X166040000Y-69006000D01*
X166040000Y-67646000D02*
X167040000Y-67646000D01*
X149174000Y-73832000D02*
X148174000Y-73832000D01*
X148174000Y-72472000D02*
X149174000Y-72472000D01*
X167040000Y-64434000D02*
X166040000Y-64434000D01*
X166040000Y-63074000D02*
X167040000Y-63074000D01*
X167040000Y-66720000D02*
X166040000Y-66720000D01*
X166040000Y-65360000D02*
X167040000Y-65360000D01*
X136398000Y-92346000D02*
X136398000Y-91046000D01*
X136398000Y-64626000D02*
X136398000Y-65926000D01*
X140958000Y-91046000D02*
X140958000Y-65926000D01*
X131838000Y-91046000D02*
X140958000Y-91046000D01*
X131838000Y-65926000D02*
X131838000Y-91046000D01*
X140958000Y-65926000D02*
X131838000Y-65926000D01*
X180352000Y-90792000D02*
X189472000Y-90792000D01*
X189472000Y-90792000D02*
X189472000Y-65672000D01*
X189472000Y-65672000D02*
X180352000Y-65672000D01*
X180352000Y-65672000D02*
X180352000Y-90792000D01*
X184912000Y-92092000D02*
X184912000Y-90792000D01*
X184912000Y-64372000D02*
X184912000Y-65672000D01*
X141941000Y-61482000D02*
X143941000Y-61482000D01*
X141941000Y-63482000D02*
X141941000Y-61482000D01*
X143568000Y-63264000D02*
X144447000Y-62387000D01*
X142835000Y-63997000D02*
X143528000Y-63305000D01*
X142695000Y-63856000D02*
X144306000Y-62246000D01*
X151951000Y-61722000D02*
X142181000Y-61722000D01*
X151951000Y-66792000D02*
X151951000Y-61722000D01*
X150961000Y-66792000D02*
X151951000Y-66792000D01*
X150961000Y-66412000D02*
X150961000Y-66792000D01*
X143171000Y-66412000D02*
X150961000Y-66412000D01*
X143171000Y-66792000D02*
X143171000Y-66412000D01*
X142181000Y-66792000D02*
X143171000Y-66792000D01*
X142181000Y-61722000D02*
X142181000Y-66792000D01*
X143550226Y-61968043D02*
G75*
G02X144714000Y-63282000I20774J-1153957D01*
G01*
X143550842Y-64276824D02*
G75*
G02X143571000Y-61967000I20158J1154824D01*
G01*
D11*
X170053000Y-97790000D02*
X170053000Y-87630000D01*
X177673000Y-97790000D02*
X170053000Y-97790000D01*
X177673000Y-87630000D02*
X177673000Y-97790000D01*
X170053000Y-87630000D02*
X177673000Y-87630000D01*
X171323000Y-90170000D02*
X171323000Y-87630000D01*
X176403000Y-90170000D02*
X171323000Y-90170000D01*
X176403000Y-87630000D02*
X176403000Y-90170000D01*
X171577000Y-85852000D02*
X171577000Y-75692000D01*
X179197000Y-85852000D02*
X171577000Y-85852000D01*
X179197000Y-75692000D02*
X179197000Y-85852000D01*
X171577000Y-75692000D02*
X179197000Y-75692000D01*
X172847000Y-78232000D02*
X172847000Y-75692000D01*
X177927000Y-78232000D02*
X172847000Y-78232000D01*
X177927000Y-75692000D02*
X177927000Y-78232000D01*
X128905000Y-81534000D02*
X128905000Y-84074000D01*
X128905000Y-84074000D02*
X123825000Y-84074000D01*
X123825000Y-84074000D02*
X123825000Y-81534000D01*
X122555000Y-81534000D02*
X130175000Y-81534000D01*
X130175000Y-81534000D02*
X130175000Y-91694000D01*
X130175000Y-91694000D02*
X122555000Y-91694000D01*
X122555000Y-91694000D02*
X122555000Y-81534000D01*
X157821333Y-95099142D02*
X157773714Y-95146761D01*
X157630857Y-95194380D01*
X157535619Y-95194380D01*
X157392761Y-95146761D01*
X157297523Y-95051523D01*
X157249904Y-94956285D01*
X157202285Y-94765809D01*
X157202285Y-94622952D01*
X157249904Y-94432476D01*
X157297523Y-94337238D01*
X157392761Y-94242000D01*
X157535619Y-94194380D01*
X157630857Y-94194380D01*
X157773714Y-94242000D01*
X157821333Y-94289619D01*
X158773714Y-95194380D02*
X158202285Y-95194380D01*
X158488000Y-95194380D02*
X158488000Y-94194380D01*
X158392761Y-94337238D01*
X158297523Y-94432476D01*
X158202285Y-94480095D01*
X164187142Y-92114666D02*
X164234761Y-92162285D01*
X164282380Y-92305142D01*
X164282380Y-92400380D01*
X164234761Y-92543238D01*
X164139523Y-92638476D01*
X164044285Y-92686095D01*
X163853809Y-92733714D01*
X163710952Y-92733714D01*
X163520476Y-92686095D01*
X163425238Y-92638476D01*
X163330000Y-92543238D01*
X163282380Y-92400380D01*
X163282380Y-92305142D01*
X163330000Y-92162285D01*
X163377619Y-92114666D01*
X163377619Y-91733714D02*
X163330000Y-91686095D01*
X163282380Y-91590857D01*
X163282380Y-91352761D01*
X163330000Y-91257523D01*
X163377619Y-91209904D01*
X163472857Y-91162285D01*
X163568095Y-91162285D01*
X163710952Y-91209904D01*
X164282380Y-91781333D01*
X164282380Y-91162285D01*
X143089333Y-93575142D02*
X143041714Y-93622761D01*
X142898857Y-93670380D01*
X142803619Y-93670380D01*
X142660761Y-93622761D01*
X142565523Y-93527523D01*
X142517904Y-93432285D01*
X142470285Y-93241809D01*
X142470285Y-93098952D01*
X142517904Y-92908476D01*
X142565523Y-92813238D01*
X142660761Y-92718000D01*
X142803619Y-92670380D01*
X142898857Y-92670380D01*
X143041714Y-92718000D01*
X143089333Y-92765619D01*
X143422666Y-92670380D02*
X144041714Y-92670380D01*
X143708380Y-93051333D01*
X143851238Y-93051333D01*
X143946476Y-93098952D01*
X143994095Y-93146571D01*
X144041714Y-93241809D01*
X144041714Y-93479904D01*
X143994095Y-93575142D01*
X143946476Y-93622761D01*
X143851238Y-93670380D01*
X143565523Y-93670380D01*
X143470285Y-93622761D01*
X143422666Y-93575142D01*
X145883333Y-67921142D02*
X145835714Y-67968761D01*
X145692857Y-68016380D01*
X145597619Y-68016380D01*
X145454761Y-67968761D01*
X145359523Y-67873523D01*
X145311904Y-67778285D01*
X145264285Y-67587809D01*
X145264285Y-67444952D01*
X145311904Y-67254476D01*
X145359523Y-67159238D01*
X145454761Y-67064000D01*
X145597619Y-67016380D01*
X145692857Y-67016380D01*
X145835714Y-67064000D01*
X145883333Y-67111619D01*
X146740476Y-67349714D02*
X146740476Y-68016380D01*
X146502380Y-66968761D02*
X146264285Y-67683047D01*
X146883333Y-67683047D01*
X178141333Y-74525142D02*
X178093714Y-74572761D01*
X177950857Y-74620380D01*
X177855619Y-74620380D01*
X177712761Y-74572761D01*
X177617523Y-74477523D01*
X177569904Y-74382285D01*
X177522285Y-74191809D01*
X177522285Y-74048952D01*
X177569904Y-73858476D01*
X177617523Y-73763238D01*
X177712761Y-73668000D01*
X177855619Y-73620380D01*
X177950857Y-73620380D01*
X178093714Y-73668000D01*
X178141333Y-73715619D01*
X179046095Y-73620380D02*
X178569904Y-73620380D01*
X178522285Y-74096571D01*
X178569904Y-74048952D01*
X178665142Y-74001333D01*
X178903238Y-74001333D01*
X178998476Y-74048952D01*
X179046095Y-74096571D01*
X179093714Y-74191809D01*
X179093714Y-74429904D01*
X179046095Y-74525142D01*
X178998476Y-74572761D01*
X178903238Y-74620380D01*
X178665142Y-74620380D01*
X178569904Y-74572761D01*
X178522285Y-74525142D01*
X164441142Y-59308666D02*
X164488761Y-59356285D01*
X164536380Y-59499142D01*
X164536380Y-59594380D01*
X164488761Y-59737238D01*
X164393523Y-59832476D01*
X164298285Y-59880095D01*
X164107809Y-59927714D01*
X163964952Y-59927714D01*
X163774476Y-59880095D01*
X163679238Y-59832476D01*
X163584000Y-59737238D01*
X163536380Y-59594380D01*
X163536380Y-59499142D01*
X163584000Y-59356285D01*
X163631619Y-59308666D01*
X163536380Y-58451523D02*
X163536380Y-58642000D01*
X163584000Y-58737238D01*
X163631619Y-58784857D01*
X163774476Y-58880095D01*
X163964952Y-58927714D01*
X164345904Y-58927714D01*
X164441142Y-58880095D01*
X164488761Y-58832476D01*
X164536380Y-58737238D01*
X164536380Y-58546761D01*
X164488761Y-58451523D01*
X164441142Y-58403904D01*
X164345904Y-58356285D01*
X164107809Y-58356285D01*
X164012571Y-58403904D01*
X163964952Y-58451523D01*
X163917333Y-58546761D01*
X163917333Y-58737238D01*
X163964952Y-58832476D01*
X164012571Y-58880095D01*
X164107809Y-58927714D01*
X139533333Y-61825142D02*
X139485714Y-61872761D01*
X139342857Y-61920380D01*
X139247619Y-61920380D01*
X139104761Y-61872761D01*
X139009523Y-61777523D01*
X138961904Y-61682285D01*
X138914285Y-61491809D01*
X138914285Y-61348952D01*
X138961904Y-61158476D01*
X139009523Y-61063238D01*
X139104761Y-60968000D01*
X139247619Y-60920380D01*
X139342857Y-60920380D01*
X139485714Y-60968000D01*
X139533333Y-61015619D01*
X139866666Y-60920380D02*
X140533333Y-60920380D01*
X140104761Y-61920380D01*
X160361333Y-78335142D02*
X160313714Y-78382761D01*
X160170857Y-78430380D01*
X160075619Y-78430380D01*
X159932761Y-78382761D01*
X159837523Y-78287523D01*
X159789904Y-78192285D01*
X159742285Y-78001809D01*
X159742285Y-77858952D01*
X159789904Y-77668476D01*
X159837523Y-77573238D01*
X159932761Y-77478000D01*
X160075619Y-77430380D01*
X160170857Y-77430380D01*
X160313714Y-77478000D01*
X160361333Y-77525619D01*
X160932761Y-77858952D02*
X160837523Y-77811333D01*
X160789904Y-77763714D01*
X160742285Y-77668476D01*
X160742285Y-77620857D01*
X160789904Y-77525619D01*
X160837523Y-77478000D01*
X160932761Y-77430380D01*
X161123238Y-77430380D01*
X161218476Y-77478000D01*
X161266095Y-77525619D01*
X161313714Y-77620857D01*
X161313714Y-77668476D01*
X161266095Y-77763714D01*
X161218476Y-77811333D01*
X161123238Y-77858952D01*
X160932761Y-77858952D01*
X160837523Y-77906571D01*
X160789904Y-77954190D01*
X160742285Y-78049428D01*
X160742285Y-78239904D01*
X160789904Y-78335142D01*
X160837523Y-78382761D01*
X160932761Y-78430380D01*
X161123238Y-78430380D01*
X161218476Y-78382761D01*
X161266095Y-78335142D01*
X161313714Y-78239904D01*
X161313714Y-78049428D01*
X161266095Y-77954190D01*
X161218476Y-77906571D01*
X161123238Y-77858952D01*
X179427142Y-63158666D02*
X179474761Y-63206285D01*
X179522380Y-63349142D01*
X179522380Y-63444380D01*
X179474761Y-63587238D01*
X179379523Y-63682476D01*
X179284285Y-63730095D01*
X179093809Y-63777714D01*
X178950952Y-63777714D01*
X178760476Y-63730095D01*
X178665238Y-63682476D01*
X178570000Y-63587238D01*
X178522380Y-63444380D01*
X178522380Y-63349142D01*
X178570000Y-63206285D01*
X178617619Y-63158666D01*
X179522380Y-62682476D02*
X179522380Y-62492000D01*
X179474761Y-62396761D01*
X179427142Y-62349142D01*
X179284285Y-62253904D01*
X179093809Y-62206285D01*
X178712857Y-62206285D01*
X178617619Y-62253904D01*
X178570000Y-62301523D01*
X178522380Y-62396761D01*
X178522380Y-62587238D01*
X178570000Y-62682476D01*
X178617619Y-62730095D01*
X178712857Y-62777714D01*
X178950952Y-62777714D01*
X179046190Y-62730095D01*
X179093809Y-62682476D01*
X179141428Y-62587238D01*
X179141428Y-62396761D01*
X179093809Y-62301523D01*
X179046190Y-62253904D01*
X178950952Y-62206285D01*
X160901142Y-62333142D02*
X160853523Y-62380761D01*
X160710666Y-62428380D01*
X160615428Y-62428380D01*
X160472571Y-62380761D01*
X160377333Y-62285523D01*
X160329714Y-62190285D01*
X160282095Y-61999809D01*
X160282095Y-61856952D01*
X160329714Y-61666476D01*
X160377333Y-61571238D01*
X160472571Y-61476000D01*
X160615428Y-61428380D01*
X160710666Y-61428380D01*
X160853523Y-61476000D01*
X160901142Y-61523619D01*
X161853523Y-62428380D02*
X161282095Y-62428380D01*
X161567809Y-62428380D02*
X161567809Y-61428380D01*
X161472571Y-61571238D01*
X161377333Y-61666476D01*
X161282095Y-61714095D01*
X162472571Y-61428380D02*
X162567809Y-61428380D01*
X162663047Y-61476000D01*
X162710666Y-61523619D01*
X162758285Y-61618857D01*
X162805904Y-61809333D01*
X162805904Y-62047428D01*
X162758285Y-62237904D01*
X162710666Y-62333142D01*
X162663047Y-62380761D01*
X162567809Y-62428380D01*
X162472571Y-62428380D01*
X162377333Y-62380761D01*
X162329714Y-62333142D01*
X162282095Y-62237904D01*
X162234476Y-62047428D01*
X162234476Y-61809333D01*
X162282095Y-61618857D01*
X162329714Y-61523619D01*
X162377333Y-61476000D01*
X162472571Y-61428380D01*
X189857142Y-62841142D02*
X189809523Y-62888761D01*
X189666666Y-62936380D01*
X189571428Y-62936380D01*
X189428571Y-62888761D01*
X189333333Y-62793523D01*
X189285714Y-62698285D01*
X189238095Y-62507809D01*
X189238095Y-62364952D01*
X189285714Y-62174476D01*
X189333333Y-62079238D01*
X189428571Y-61984000D01*
X189571428Y-61936380D01*
X189666666Y-61936380D01*
X189809523Y-61984000D01*
X189857142Y-62031619D01*
X190809523Y-62936380D02*
X190238095Y-62936380D01*
X190523809Y-62936380D02*
X190523809Y-61936380D01*
X190428571Y-62079238D01*
X190333333Y-62174476D01*
X190238095Y-62222095D01*
X191761904Y-62936380D02*
X191190476Y-62936380D01*
X191476190Y-62936380D02*
X191476190Y-61936380D01*
X191380952Y-62079238D01*
X191285714Y-62174476D01*
X191190476Y-62222095D01*
X165377904Y-75294380D02*
X165377904Y-74294380D01*
X165616000Y-74294380D01*
X165758857Y-74342000D01*
X165854095Y-74437238D01*
X165901714Y-74532476D01*
X165949333Y-74722952D01*
X165949333Y-74865809D01*
X165901714Y-75056285D01*
X165854095Y-75151523D01*
X165758857Y-75246761D01*
X165616000Y-75294380D01*
X165377904Y-75294380D01*
X166901714Y-75294380D02*
X166330285Y-75294380D01*
X166616000Y-75294380D02*
X166616000Y-74294380D01*
X166520761Y-74437238D01*
X166425523Y-74532476D01*
X166330285Y-74580095D01*
X123626571Y-67549333D02*
X123626571Y-67882666D01*
X124150380Y-67882666D02*
X123150380Y-67882666D01*
X123150380Y-67406476D01*
X124150380Y-66501714D02*
X124150380Y-67073142D01*
X124150380Y-66787428D02*
X123150380Y-66787428D01*
X123293238Y-66882666D01*
X123388476Y-66977904D01*
X123436095Y-67073142D01*
X189920571Y-96599333D02*
X189920571Y-96932666D01*
X190444380Y-96932666D02*
X189444380Y-96932666D01*
X189444380Y-96456476D01*
X189539619Y-96123142D02*
X189492000Y-96075523D01*
X189444380Y-95980285D01*
X189444380Y-95742190D01*
X189492000Y-95646952D01*
X189539619Y-95599333D01*
X189634857Y-95551714D01*
X189730095Y-95551714D01*
X189872952Y-95599333D01*
X190444380Y-96170761D01*
X190444380Y-95551714D01*
X165243142Y-86066380D02*
X165243142Y-86780666D01*
X165195523Y-86923523D01*
X165100285Y-87018761D01*
X164957428Y-87066380D01*
X164862190Y-87066380D01*
X165481238Y-87161619D02*
X166243142Y-87161619D01*
X166671714Y-86066380D02*
X166862190Y-86066380D01*
X166957428Y-86114000D01*
X167052666Y-86209238D01*
X167100285Y-86399714D01*
X167100285Y-86733047D01*
X167052666Y-86923523D01*
X166957428Y-87018761D01*
X166862190Y-87066380D01*
X166671714Y-87066380D01*
X166576476Y-87018761D01*
X166481238Y-86923523D01*
X166433619Y-86733047D01*
X166433619Y-86399714D01*
X166481238Y-86209238D01*
X166576476Y-86114000D01*
X166671714Y-86066380D01*
X167528857Y-86066380D02*
X167528857Y-86875904D01*
X167576476Y-86971142D01*
X167624095Y-87018761D01*
X167719333Y-87066380D01*
X167909809Y-87066380D01*
X168005047Y-87018761D01*
X168052666Y-86971142D01*
X168100285Y-86875904D01*
X168100285Y-86066380D01*
X168433619Y-86066380D02*
X169005047Y-86066380D01*
X168719333Y-87066380D02*
X168719333Y-86066380D01*
X169862190Y-87066380D02*
X169290761Y-87066380D01*
X169576476Y-87066380D02*
X169576476Y-86066380D01*
X169481238Y-86209238D01*
X169386000Y-86304476D01*
X169290761Y-86352095D01*
X162599619Y-88741238D02*
X162552000Y-88836476D01*
X162456761Y-88931714D01*
X162313904Y-89074571D01*
X162266285Y-89169809D01*
X162266285Y-89265047D01*
X162504380Y-89217428D02*
X162456761Y-89312666D01*
X162361523Y-89407904D01*
X162171047Y-89455523D01*
X161837714Y-89455523D01*
X161647238Y-89407904D01*
X161552000Y-89312666D01*
X161504380Y-89217428D01*
X161504380Y-89026952D01*
X161552000Y-88931714D01*
X161647238Y-88836476D01*
X161837714Y-88788857D01*
X162171047Y-88788857D01*
X162361523Y-88836476D01*
X162456761Y-88931714D01*
X162504380Y-89026952D01*
X162504380Y-89217428D01*
X162504380Y-87836476D02*
X162504380Y-88407904D01*
X162504380Y-88122190D02*
X161504380Y-88122190D01*
X161647238Y-88217428D01*
X161742476Y-88312666D01*
X161790095Y-88407904D01*
X159551619Y-81121238D02*
X159504000Y-81216476D01*
X159408761Y-81311714D01*
X159265904Y-81454571D01*
X159218285Y-81549809D01*
X159218285Y-81645047D01*
X159456380Y-81597428D02*
X159408761Y-81692666D01*
X159313523Y-81787904D01*
X159123047Y-81835523D01*
X158789714Y-81835523D01*
X158599238Y-81787904D01*
X158504000Y-81692666D01*
X158456380Y-81597428D01*
X158456380Y-81406952D01*
X158504000Y-81311714D01*
X158599238Y-81216476D01*
X158789714Y-81168857D01*
X159123047Y-81168857D01*
X159313523Y-81216476D01*
X159408761Y-81311714D01*
X159456380Y-81406952D01*
X159456380Y-81597428D01*
X158551619Y-80787904D02*
X158504000Y-80740285D01*
X158456380Y-80645047D01*
X158456380Y-80406952D01*
X158504000Y-80311714D01*
X158551619Y-80264095D01*
X158646857Y-80216476D01*
X158742095Y-80216476D01*
X158884952Y-80264095D01*
X159456380Y-80835523D01*
X159456380Y-80216476D01*
X153455619Y-89249238D02*
X153408000Y-89344476D01*
X153312761Y-89439714D01*
X153169904Y-89582571D01*
X153122285Y-89677809D01*
X153122285Y-89773047D01*
X153360380Y-89725428D02*
X153312761Y-89820666D01*
X153217523Y-89915904D01*
X153027047Y-89963523D01*
X152693714Y-89963523D01*
X152503238Y-89915904D01*
X152408000Y-89820666D01*
X152360380Y-89725428D01*
X152360380Y-89534952D01*
X152408000Y-89439714D01*
X152503238Y-89344476D01*
X152693714Y-89296857D01*
X153027047Y-89296857D01*
X153217523Y-89344476D01*
X153312761Y-89439714D01*
X153360380Y-89534952D01*
X153360380Y-89725428D01*
X152360380Y-88963523D02*
X152360380Y-88344476D01*
X152741333Y-88677809D01*
X152741333Y-88534952D01*
X152788952Y-88439714D01*
X152836571Y-88392095D01*
X152931809Y-88344476D01*
X153169904Y-88344476D01*
X153265142Y-88392095D01*
X153312761Y-88439714D01*
X153360380Y-88534952D01*
X153360380Y-88820666D01*
X153312761Y-88915904D01*
X153265142Y-88963523D01*
X142398761Y-83859619D02*
X142303523Y-83812000D01*
X142208285Y-83716761D01*
X142065428Y-83573904D01*
X141970190Y-83526285D01*
X141874952Y-83526285D01*
X141922571Y-83764380D02*
X141827333Y-83716761D01*
X141732095Y-83621523D01*
X141684476Y-83431047D01*
X141684476Y-83097714D01*
X141732095Y-82907238D01*
X141827333Y-82812000D01*
X141922571Y-82764380D01*
X142113047Y-82764380D01*
X142208285Y-82812000D01*
X142303523Y-82907238D01*
X142351142Y-83097714D01*
X142351142Y-83431047D01*
X142303523Y-83621523D01*
X142208285Y-83716761D01*
X142113047Y-83764380D01*
X141922571Y-83764380D01*
X143208285Y-83097714D02*
X143208285Y-83764380D01*
X142970190Y-82716761D02*
X142732095Y-83431047D01*
X143351142Y-83431047D01*
X152558761Y-72429619D02*
X152463523Y-72382000D01*
X152368285Y-72286761D01*
X152225428Y-72143904D01*
X152130190Y-72096285D01*
X152034952Y-72096285D01*
X152082571Y-72334380D02*
X151987333Y-72286761D01*
X151892095Y-72191523D01*
X151844476Y-72001047D01*
X151844476Y-71667714D01*
X151892095Y-71477238D01*
X151987333Y-71382000D01*
X152082571Y-71334380D01*
X152273047Y-71334380D01*
X152368285Y-71382000D01*
X152463523Y-71477238D01*
X152511142Y-71667714D01*
X152511142Y-72001047D01*
X152463523Y-72191523D01*
X152368285Y-72286761D01*
X152273047Y-72334380D01*
X152082571Y-72334380D01*
X153415904Y-71334380D02*
X152939714Y-71334380D01*
X152892095Y-71810571D01*
X152939714Y-71762952D01*
X153034952Y-71715333D01*
X153273047Y-71715333D01*
X153368285Y-71762952D01*
X153415904Y-71810571D01*
X153463523Y-71905809D01*
X153463523Y-72143904D01*
X153415904Y-72239142D01*
X153368285Y-72286761D01*
X153273047Y-72334380D01*
X153034952Y-72334380D01*
X152939714Y-72286761D01*
X152892095Y-72239142D01*
X151931619Y-76295238D02*
X151884000Y-76390476D01*
X151788761Y-76485714D01*
X151645904Y-76628571D01*
X151598285Y-76723809D01*
X151598285Y-76819047D01*
X151836380Y-76771428D02*
X151788761Y-76866666D01*
X151693523Y-76961904D01*
X151503047Y-77009523D01*
X151169714Y-77009523D01*
X150979238Y-76961904D01*
X150884000Y-76866666D01*
X150836380Y-76771428D01*
X150836380Y-76580952D01*
X150884000Y-76485714D01*
X150979238Y-76390476D01*
X151169714Y-76342857D01*
X151503047Y-76342857D01*
X151693523Y-76390476D01*
X151788761Y-76485714D01*
X151836380Y-76580952D01*
X151836380Y-76771428D01*
X150836380Y-75485714D02*
X150836380Y-75676190D01*
X150884000Y-75771428D01*
X150931619Y-75819047D01*
X151074476Y-75914285D01*
X151264952Y-75961904D01*
X151645904Y-75961904D01*
X151741142Y-75914285D01*
X151788761Y-75866666D01*
X151836380Y-75771428D01*
X151836380Y-75580952D01*
X151788761Y-75485714D01*
X151741142Y-75438095D01*
X151645904Y-75390476D01*
X151407809Y-75390476D01*
X151312571Y-75438095D01*
X151264952Y-75485714D01*
X151217333Y-75580952D01*
X151217333Y-75771428D01*
X151264952Y-75866666D01*
X151312571Y-75914285D01*
X151407809Y-75961904D01*
X168052761Y-55919619D02*
X167957523Y-55872000D01*
X167862285Y-55776761D01*
X167719428Y-55633904D01*
X167624190Y-55586285D01*
X167528952Y-55586285D01*
X167576571Y-55824380D02*
X167481333Y-55776761D01*
X167386095Y-55681523D01*
X167338476Y-55491047D01*
X167338476Y-55157714D01*
X167386095Y-54967238D01*
X167481333Y-54872000D01*
X167576571Y-54824380D01*
X167767047Y-54824380D01*
X167862285Y-54872000D01*
X167957523Y-54967238D01*
X168005142Y-55157714D01*
X168005142Y-55491047D01*
X167957523Y-55681523D01*
X167862285Y-55776761D01*
X167767047Y-55824380D01*
X167576571Y-55824380D01*
X168338476Y-54824380D02*
X169005142Y-54824380D01*
X168576571Y-55824380D01*
X160178761Y-55665619D02*
X160083523Y-55618000D01*
X159988285Y-55522761D01*
X159845428Y-55379904D01*
X159750190Y-55332285D01*
X159654952Y-55332285D01*
X159702571Y-55570380D02*
X159607333Y-55522761D01*
X159512095Y-55427523D01*
X159464476Y-55237047D01*
X159464476Y-54903714D01*
X159512095Y-54713238D01*
X159607333Y-54618000D01*
X159702571Y-54570380D01*
X159893047Y-54570380D01*
X159988285Y-54618000D01*
X160083523Y-54713238D01*
X160131142Y-54903714D01*
X160131142Y-55237047D01*
X160083523Y-55427523D01*
X159988285Y-55522761D01*
X159893047Y-55570380D01*
X159702571Y-55570380D01*
X160702571Y-54998952D02*
X160607333Y-54951333D01*
X160559714Y-54903714D01*
X160512095Y-54808476D01*
X160512095Y-54760857D01*
X160559714Y-54665619D01*
X160607333Y-54618000D01*
X160702571Y-54570380D01*
X160893047Y-54570380D01*
X160988285Y-54618000D01*
X161035904Y-54665619D01*
X161083523Y-54760857D01*
X161083523Y-54808476D01*
X161035904Y-54903714D01*
X160988285Y-54951333D01*
X160893047Y-54998952D01*
X160702571Y-54998952D01*
X160607333Y-55046571D01*
X160559714Y-55094190D01*
X160512095Y-55189428D01*
X160512095Y-55379904D01*
X160559714Y-55475142D01*
X160607333Y-55522761D01*
X160702571Y-55570380D01*
X160893047Y-55570380D01*
X160988285Y-55522761D01*
X161035904Y-55475142D01*
X161083523Y-55379904D01*
X161083523Y-55189428D01*
X161035904Y-55094190D01*
X160988285Y-55046571D01*
X160893047Y-54998952D01*
X180498761Y-55665619D02*
X180403523Y-55618000D01*
X180308285Y-55522761D01*
X180165428Y-55379904D01*
X180070190Y-55332285D01*
X179974952Y-55332285D01*
X180022571Y-55570380D02*
X179927333Y-55522761D01*
X179832095Y-55427523D01*
X179784476Y-55237047D01*
X179784476Y-54903714D01*
X179832095Y-54713238D01*
X179927333Y-54618000D01*
X180022571Y-54570380D01*
X180213047Y-54570380D01*
X180308285Y-54618000D01*
X180403523Y-54713238D01*
X180451142Y-54903714D01*
X180451142Y-55237047D01*
X180403523Y-55427523D01*
X180308285Y-55522761D01*
X180213047Y-55570380D01*
X180022571Y-55570380D01*
X180927333Y-55570380D02*
X181117809Y-55570380D01*
X181213047Y-55522761D01*
X181260666Y-55475142D01*
X181355904Y-55332285D01*
X181403523Y-55141809D01*
X181403523Y-54760857D01*
X181355904Y-54665619D01*
X181308285Y-54618000D01*
X181213047Y-54570380D01*
X181022571Y-54570380D01*
X180927333Y-54618000D01*
X180879714Y-54665619D01*
X180832095Y-54760857D01*
X180832095Y-54998952D01*
X180879714Y-55094190D01*
X180927333Y-55141809D01*
X181022571Y-55189428D01*
X181213047Y-55189428D01*
X181308285Y-55141809D01*
X181355904Y-55094190D01*
X181403523Y-54998952D01*
X161996380Y-93130666D02*
X161520190Y-93464000D01*
X161996380Y-93702095D02*
X160996380Y-93702095D01*
X160996380Y-93321142D01*
X161044000Y-93225904D01*
X161091619Y-93178285D01*
X161186857Y-93130666D01*
X161329714Y-93130666D01*
X161424952Y-93178285D01*
X161472571Y-93225904D01*
X161520190Y-93321142D01*
X161520190Y-93702095D01*
X161996380Y-92178285D02*
X161996380Y-92749714D01*
X161996380Y-92464000D02*
X160996380Y-92464000D01*
X161139238Y-92559238D01*
X161234476Y-92654476D01*
X161282095Y-92749714D01*
X153032380Y-80684666D02*
X152556190Y-81018000D01*
X153032380Y-81256095D02*
X152032380Y-81256095D01*
X152032380Y-80875142D01*
X152080000Y-80779904D01*
X152127619Y-80732285D01*
X152222857Y-80684666D01*
X152365714Y-80684666D01*
X152460952Y-80732285D01*
X152508571Y-80779904D01*
X152556190Y-80875142D01*
X152556190Y-81256095D01*
X152032380Y-79779904D02*
X152032380Y-80256095D01*
X152508571Y-80303714D01*
X152460952Y-80256095D01*
X152413333Y-80160857D01*
X152413333Y-79922761D01*
X152460952Y-79827523D01*
X152508571Y-79779904D01*
X152603809Y-79732285D01*
X152841904Y-79732285D01*
X152937142Y-79779904D01*
X152984761Y-79827523D01*
X153032380Y-79922761D01*
X153032380Y-80160857D01*
X152984761Y-80256095D01*
X152937142Y-80303714D01*
X164282380Y-68492666D02*
X163806190Y-68826000D01*
X164282380Y-69064095D02*
X163282380Y-69064095D01*
X163282380Y-68683142D01*
X163330000Y-68587904D01*
X163377619Y-68540285D01*
X163472857Y-68492666D01*
X163615714Y-68492666D01*
X163710952Y-68540285D01*
X163758571Y-68587904D01*
X163806190Y-68683142D01*
X163806190Y-69064095D01*
X163282380Y-67635523D02*
X163282380Y-67826000D01*
X163330000Y-67921238D01*
X163377619Y-67968857D01*
X163520476Y-68064095D01*
X163710952Y-68111714D01*
X164091904Y-68111714D01*
X164187142Y-68064095D01*
X164234761Y-68016476D01*
X164282380Y-67921238D01*
X164282380Y-67730761D01*
X164234761Y-67635523D01*
X164187142Y-67587904D01*
X164091904Y-67540285D01*
X163853809Y-67540285D01*
X163758571Y-67587904D01*
X163710952Y-67635523D01*
X163663333Y-67730761D01*
X163663333Y-67921238D01*
X163710952Y-68016476D01*
X163758571Y-68064095D01*
X163853809Y-68111714D01*
X151471333Y-74112380D02*
X151138000Y-73636190D01*
X150899904Y-74112380D02*
X150899904Y-73112380D01*
X151280857Y-73112380D01*
X151376095Y-73160000D01*
X151423714Y-73207619D01*
X151471333Y-73302857D01*
X151471333Y-73445714D01*
X151423714Y-73540952D01*
X151376095Y-73588571D01*
X151280857Y-73636190D01*
X150899904Y-73636190D01*
X151947523Y-74112380D02*
X152138000Y-74112380D01*
X152233238Y-74064761D01*
X152280857Y-74017142D01*
X152376095Y-73874285D01*
X152423714Y-73683809D01*
X152423714Y-73302857D01*
X152376095Y-73207619D01*
X152328476Y-73160000D01*
X152233238Y-73112380D01*
X152042761Y-73112380D01*
X151947523Y-73160000D01*
X151899904Y-73207619D01*
X151852285Y-73302857D01*
X151852285Y-73540952D01*
X151899904Y-73636190D01*
X151947523Y-73683809D01*
X152042761Y-73731428D01*
X152233238Y-73731428D01*
X152328476Y-73683809D01*
X152376095Y-73636190D01*
X152423714Y-73540952D01*
X164282380Y-63888857D02*
X163806190Y-64222190D01*
X164282380Y-64460285D02*
X163282380Y-64460285D01*
X163282380Y-64079333D01*
X163330000Y-63984095D01*
X163377619Y-63936476D01*
X163472857Y-63888857D01*
X163615714Y-63888857D01*
X163710952Y-63936476D01*
X163758571Y-63984095D01*
X163806190Y-64079333D01*
X163806190Y-64460285D01*
X164282380Y-62936476D02*
X164282380Y-63507904D01*
X164282380Y-63222190D02*
X163282380Y-63222190D01*
X163425238Y-63317428D01*
X163520476Y-63412666D01*
X163568095Y-63507904D01*
X163282380Y-62317428D02*
X163282380Y-62222190D01*
X163330000Y-62126952D01*
X163377619Y-62079333D01*
X163472857Y-62031714D01*
X163663333Y-61984095D01*
X163901428Y-61984095D01*
X164091904Y-62031714D01*
X164187142Y-62079333D01*
X164234761Y-62126952D01*
X164282380Y-62222190D01*
X164282380Y-62317428D01*
X164234761Y-62412666D01*
X164187142Y-62460285D01*
X164091904Y-62507904D01*
X163901428Y-62555523D01*
X163663333Y-62555523D01*
X163472857Y-62507904D01*
X163377619Y-62460285D01*
X163330000Y-62412666D01*
X163282380Y-62317428D01*
X169029142Y-65476380D02*
X168695809Y-65000190D01*
X168457714Y-65476380D02*
X168457714Y-64476380D01*
X168838666Y-64476380D01*
X168933904Y-64524000D01*
X168981523Y-64571619D01*
X169029142Y-64666857D01*
X169029142Y-64809714D01*
X168981523Y-64904952D01*
X168933904Y-64952571D01*
X168838666Y-65000190D01*
X168457714Y-65000190D01*
X169981523Y-65476380D02*
X169410095Y-65476380D01*
X169695809Y-65476380D02*
X169695809Y-64476380D01*
X169600571Y-64619238D01*
X169505333Y-64714476D01*
X169410095Y-64762095D01*
X170933904Y-65476380D02*
X170362476Y-65476380D01*
X170648190Y-65476380D02*
X170648190Y-64476380D01*
X170552952Y-64619238D01*
X170457714Y-64714476D01*
X170362476Y-64762095D01*
X138803142Y-65476380D02*
X138469809Y-65000190D01*
X138231714Y-65476380D02*
X138231714Y-64476380D01*
X138612666Y-64476380D01*
X138707904Y-64524000D01*
X138755523Y-64571619D01*
X138803142Y-64666857D01*
X138803142Y-64809714D01*
X138755523Y-64904952D01*
X138707904Y-64952571D01*
X138612666Y-65000190D01*
X138231714Y-65000190D01*
X139755523Y-65476380D02*
X139184095Y-65476380D01*
X139469809Y-65476380D02*
X139469809Y-64476380D01*
X139374571Y-64619238D01*
X139279333Y-64714476D01*
X139184095Y-64762095D01*
X140612666Y-64809714D02*
X140612666Y-65476380D01*
X140374571Y-64428761D02*
X140136476Y-65143047D01*
X140755523Y-65143047D01*
X186809142Y-65476380D02*
X186475809Y-65000190D01*
X186237714Y-65476380D02*
X186237714Y-64476380D01*
X186618666Y-64476380D01*
X186713904Y-64524000D01*
X186761523Y-64571619D01*
X186809142Y-64666857D01*
X186809142Y-64809714D01*
X186761523Y-64904952D01*
X186713904Y-64952571D01*
X186618666Y-65000190D01*
X186237714Y-65000190D01*
X187761523Y-65476380D02*
X187190095Y-65476380D01*
X187475809Y-65476380D02*
X187475809Y-64476380D01*
X187380571Y-64619238D01*
X187285333Y-64714476D01*
X187190095Y-64762095D01*
X188666285Y-64476380D02*
X188190095Y-64476380D01*
X188142476Y-64952571D01*
X188190095Y-64904952D01*
X188285333Y-64857333D01*
X188523428Y-64857333D01*
X188618666Y-64904952D01*
X188666285Y-64952571D01*
X188713904Y-65047809D01*
X188713904Y-65285904D01*
X188666285Y-65381142D01*
X188618666Y-65428761D01*
X188523428Y-65476380D01*
X188285333Y-65476380D01*
X188190095Y-65428761D01*
X188142476Y-65381142D01*
X152360380Y-64047523D02*
X153360380Y-63714190D01*
X152360380Y-63380857D01*
X153360380Y-62476095D02*
X152884190Y-62809428D01*
X153360380Y-63047523D02*
X152360380Y-63047523D01*
X152360380Y-62666571D01*
X152408000Y-62571333D01*
X152455619Y-62523714D01*
X152550857Y-62476095D01*
X152693714Y-62476095D01*
X152788952Y-62523714D01*
X152836571Y-62571333D01*
X152884190Y-62666571D01*
X152884190Y-63047523D01*
X153360380Y-61523714D02*
X153360380Y-62095142D01*
X153360380Y-61809428D02*
X152360380Y-61809428D01*
X152503238Y-61904666D01*
X152598476Y-61999904D01*
X152646095Y-62095142D01*
X178014380Y-96726190D02*
X178728666Y-96726190D01*
X178871523Y-96773809D01*
X178966761Y-96869047D01*
X179014380Y-97011904D01*
X179014380Y-97107142D01*
X179109619Y-96488095D02*
X179109619Y-95726190D01*
X179014380Y-95488095D02*
X178014380Y-95488095D01*
X179014380Y-95011904D02*
X178014380Y-95011904D01*
X179014380Y-94440476D01*
X178014380Y-94440476D01*
X179014380Y-93440476D02*
X179014380Y-94011904D01*
X179014380Y-93726190D02*
X178014380Y-93726190D01*
X178157238Y-93821428D01*
X178252476Y-93916666D01*
X178300095Y-94011904D01*
X174593523Y-86066380D02*
X174593523Y-86780666D01*
X174545904Y-86923523D01*
X174450666Y-87018761D01*
X174307809Y-87066380D01*
X174212571Y-87066380D01*
X174831619Y-87161619D02*
X175593523Y-87161619D01*
X175831619Y-87066380D02*
X175831619Y-86066380D01*
X176403047Y-87066380D01*
X176403047Y-86066380D01*
X176784000Y-86066380D02*
X177403047Y-86066380D01*
X177069714Y-86447333D01*
X177212571Y-86447333D01*
X177307809Y-86494952D01*
X177355428Y-86542571D01*
X177403047Y-86637809D01*
X177403047Y-86875904D01*
X177355428Y-86971142D01*
X177307809Y-87018761D01*
X177212571Y-87066380D01*
X176926857Y-87066380D01*
X176831619Y-87018761D01*
X176784000Y-86971142D01*
X178307809Y-86066380D02*
X177831619Y-86066380D01*
X177784000Y-86542571D01*
X177831619Y-86494952D01*
X177926857Y-86447333D01*
X178164952Y-86447333D01*
X178260190Y-86494952D01*
X178307809Y-86542571D01*
X178355428Y-86637809D01*
X178355428Y-86875904D01*
X178307809Y-86971142D01*
X178260190Y-87018761D01*
X178164952Y-87066380D01*
X177926857Y-87066380D01*
X177831619Y-87018761D01*
X177784000Y-86971142D01*
X179307809Y-87066380D02*
X178736380Y-87066380D01*
X179022095Y-87066380D02*
X179022095Y-86066380D01*
X178926857Y-86209238D01*
X178831619Y-86304476D01*
X178736380Y-86352095D01*
X123563333Y-92416380D02*
X123563333Y-93130666D01*
X123515714Y-93273523D01*
X123420476Y-93368761D01*
X123277619Y-93416380D01*
X123182380Y-93416380D01*
X123801428Y-93511619D02*
X124563333Y-93511619D01*
X124801428Y-93416380D02*
X124801428Y-92416380D01*
X125182380Y-92416380D01*
X125277619Y-92464000D01*
X125325238Y-92511619D01*
X125372857Y-92606857D01*
X125372857Y-92749714D01*
X125325238Y-92844952D01*
X125277619Y-92892571D01*
X125182380Y-92940190D01*
X124801428Y-92940190D01*
X125706190Y-92416380D02*
X126325238Y-92416380D01*
X125991904Y-92797333D01*
X126134761Y-92797333D01*
X126230000Y-92844952D01*
X126277619Y-92892571D01*
X126325238Y-92987809D01*
X126325238Y-93225904D01*
X126277619Y-93321142D01*
X126230000Y-93368761D01*
X126134761Y-93416380D01*
X125849047Y-93416380D01*
X125753809Y-93368761D01*
X125706190Y-93321142D01*
X127230000Y-92416380D02*
X126753809Y-92416380D01*
X126706190Y-92892571D01*
X126753809Y-92844952D01*
X126849047Y-92797333D01*
X127087142Y-92797333D01*
X127182380Y-92844952D01*
X127230000Y-92892571D01*
X127277619Y-92987809D01*
X127277619Y-93225904D01*
X127230000Y-93321142D01*
X127182380Y-93368761D01*
X127087142Y-93416380D01*
X126849047Y-93416380D01*
X126753809Y-93368761D01*
X126706190Y-93321142D01*
X128230000Y-93416380D02*
X127658571Y-93416380D01*
X127944285Y-93416380D02*
X127944285Y-92416380D01*
X127849047Y-92559238D01*
X127753809Y-92654476D01*
X127658571Y-92702095D01*
M02*
