G04 #@! TF.GenerationSoftware,KiCad,Pcbnew,(2018-01-30 revision 342197bb3)-makepkg*
G04 #@! TF.CreationDate,2019-02-26T10:02:36-05:00*
G04 #@! TF.ProjectId,AAMB,41414D422E6B696361645F7063620000,rev?*
G04 #@! TF.SameCoordinates,Original*
G04 #@! TF.FileFunction,Soldermask,Bot*
G04 #@! TF.FilePolarity,Negative*
%FSLAX46Y46*%
G04 Gerber Fmt 4.6, Leading zero omitted, Abs format (unit mm)*
G04 Created by KiCad (PCBNEW (2018-01-30 revision 342197bb3)-makepkg) date 02/26/19 10:02:36*
%MOMM*%
%LPD*%
G01*
G04 APERTURE LIST*
%ADD10C,3.200000*%
%ADD11C,1.600000*%
%ADD12R,1.600000X1.600000*%
%ADD13C,2.000000*%
%ADD14R,2.000000X2.000000*%
%ADD15C,1.800000*%
%ADD16R,1.800000X1.800000*%
%ADD17C,2.350000*%
%ADD18O,3.000000X4.000000*%
%ADD19R,3.000000X4.000000*%
%ADD20O,1.500000X0.900000*%
%ADD21R,1.500000X0.900000*%
%ADD22O,1.800000X1.800000*%
%ADD23R,0.900000X1.500000*%
%ADD24O,0.900000X1.500000*%
%ADD25R,2.500000X4.500000*%
%ADD26O,2.500000X4.500000*%
%ADD27R,1.200000X0.900000*%
%ADD28R,0.900000X1.200000*%
%ADD29O,2.400000X2.400000*%
%ADD30C,2.400000*%
%ADD31C,1.620000*%
%ADD32R,1.620000X1.620000*%
G04 APERTURE END LIST*
D10*
X125476000Y-96012000D03*
D11*
X155448000Y-91218000D03*
D12*
X155448000Y-93218000D03*
D11*
X166116000Y-93138000D03*
X166116000Y-88138000D03*
D13*
X144352000Y-88138000D03*
D14*
X149352000Y-88138000D03*
D11*
X144018000Y-73152000D03*
X144018000Y-68152000D03*
D14*
X174244000Y-71882000D03*
D13*
X174244000Y-66882000D03*
D11*
X166624000Y-61642000D03*
X166624000Y-56642000D03*
X139112000Y-58420000D03*
X134112000Y-58420000D03*
X154940000Y-74930000D03*
X159940000Y-74930000D03*
X175768000Y-56976000D03*
X175768000Y-61976000D03*
D14*
X157734000Y-64262000D03*
D13*
X157734000Y-69262000D03*
X195580000Y-69262000D03*
D14*
X195580000Y-64262000D03*
D15*
X164846000Y-71882000D03*
D16*
X167386000Y-71882000D03*
D17*
X127254000Y-62216000D03*
X127254000Y-57216000D03*
X127254000Y-72216000D03*
X127254000Y-77216000D03*
X194310000Y-95438000D03*
X194310000Y-90438000D03*
X194310000Y-75438000D03*
X194310000Y-80438000D03*
D18*
X164439600Y-80772000D03*
D19*
X168402000Y-80772000D03*
D20*
X159258000Y-86325500D03*
X159258000Y-87595500D03*
D21*
X159258000Y-85055500D03*
D20*
X156210000Y-80518000D03*
X156210000Y-79248000D03*
D21*
X156210000Y-81788000D03*
X155194000Y-87595500D03*
D20*
X155194000Y-85055500D03*
X155194000Y-86325500D03*
D22*
X143256000Y-80264000D03*
X145796000Y-80264000D03*
D16*
X148336000Y-80264000D03*
D23*
X148082000Y-70104000D03*
D24*
X150622000Y-70104000D03*
X149352000Y-70104000D03*
D22*
X148844000Y-76708000D03*
X146304000Y-76708000D03*
D16*
X143764000Y-76708000D03*
X171196000Y-62230000D03*
D22*
X171196000Y-59690000D03*
X171196000Y-57150000D03*
D25*
X146050000Y-57912000D03*
D26*
X151500000Y-57912000D03*
X156950000Y-57912000D03*
X194288000Y-57912000D03*
X188838000Y-57912000D03*
D25*
X183388000Y-57912000D03*
D27*
X163830000Y-94234000D03*
X161630000Y-94234000D03*
X160281000Y-92544000D03*
X158081000Y-92544000D03*
D28*
X152908000Y-80010000D03*
X152908000Y-82210000D03*
X152908000Y-84074000D03*
X152908000Y-86274000D03*
D27*
X158582000Y-79502000D03*
X160782000Y-79502000D03*
D28*
X142748000Y-57998000D03*
X142748000Y-60198000D03*
X173736000Y-61806000D03*
X173736000Y-59606000D03*
D29*
X136398000Y-93726000D03*
D30*
X136398000Y-63246000D03*
X184912000Y-93472000D03*
D29*
X184912000Y-62992000D03*
D27*
X165354000Y-84836000D03*
X167554000Y-84836000D03*
D31*
X149606000Y-64262000D03*
X147066000Y-64262000D03*
D32*
X144526000Y-64262000D03*
D18*
X171805600Y-92710000D03*
D19*
X175768000Y-92710000D03*
D18*
X173329600Y-80772000D03*
D19*
X177292000Y-80772000D03*
X128270000Y-86614000D03*
D18*
X124307600Y-86614000D03*
D10*
X201676000Y-96012000D03*
X202184000Y-56642000D03*
M02*
