M48
;DRILL file {KiCad (2018-01-30 revision 342197bb3)-makepkg} date 02/26/19 10:02:33
;FORMAT={-:-/ absolute / inch / decimal}
FMAT,2
INCH,TZ
T1C0.0157
T2C0.0236
T3C0.0315
T4C0.0354
T5C0.0394
T6C0.0472
T7C0.0531
T8C0.0591
T9C0.0669
T10C0.1260
%
G90
G05
M72
T1
X5.6673Y-2.4588
X6.3036Y-3.5131
T2
X6.15Y-3.12
X6.15Y-3.17
X6.15Y-3.22
X6.11Y-3.3486
X6.11Y-3.3986
X6.11Y-3.4486
X6.27Y-3.3486
X6.27Y-3.3986
X6.27Y-3.4486
X5.83Y-2.76
X5.88Y-2.76
X5.93Y-2.76
T3
X5.28Y-2.3
X5.4769Y-2.3
X5.67Y-2.6831
X6.92Y-2.2431
X6.54Y-3.47
X6.54Y-3.6669
X5.67Y-2.88
X6.12Y-3.5913
X6.56Y-2.23
X6.56Y-2.4269
X6.92Y-2.44
X6.2969Y-2.95
X6.12Y-3.67
X6.1Y-2.95
T4
X6.49Y-2.83
X6.59Y-2.83
X5.69Y-2.53
X5.79Y-2.53
X5.89Y-2.53
T5
X7.7Y-2.53
X6.74Y-2.25
X6.74Y-2.35
X6.74Y-2.45
X7.7Y-2.7269
X6.21Y-2.53
X6.21Y-2.7269
X5.64Y-3.16
X5.74Y-3.16
X5.84Y-3.16
X5.6831Y-3.47
X5.88Y-3.47
X5.66Y-3.02
X5.76Y-3.02
X5.86Y-3.02
X6.86Y-2.6331
X6.86Y-2.83
T6
X7.28Y-2.48
X5.37Y-2.49
X5.37Y-3.69
X7.28Y-3.68
T7
X5.01Y-2.2526
X5.01Y-2.4494
X5.01Y-2.8431
X5.01Y-3.04
X7.65Y-2.97
X7.65Y-3.1669
X7.65Y-3.5606
X7.65Y-3.7574
T8
X7.22Y-2.28
X7.4346Y-2.28
X7.6491Y-2.28
X5.75Y-2.28
X5.9646Y-2.28
X6.1791Y-2.28
T9
X4.894Y-3.41
X5.05Y-3.41
X6.474Y-3.18
X6.63Y-3.18
X6.764Y-3.65
X6.92Y-3.65
X6.824Y-3.18
X6.98Y-3.18
T10
X7.94Y-3.78
X4.94Y-3.78
X7.96Y-2.23
T0
M30
