G04 #@! TF.GenerationSoftware,KiCad,Pcbnew,(5.1.4)-1*
G04 #@! TF.CreationDate,2020-01-15T13:51:39-05:00*
G04 #@! TF.ProjectId,AAMB,41414d42-2e6b-4696-9361-645f70636258,rev?*
G04 #@! TF.SameCoordinates,Original*
G04 #@! TF.FileFunction,Soldermask,Bot*
G04 #@! TF.FilePolarity,Negative*
%FSLAX46Y46*%
G04 Gerber Fmt 4.6, Leading zero omitted, Abs format (unit mm)*
G04 Created by KiCad (PCBNEW (5.1.4)-1) date 2020-01-15 13:51:39*
%MOMM*%
%LPD*%
G04 APERTURE LIST*
%ADD10C,1.371600*%
%ADD11R,1.371600X1.371600*%
%ADD12C,0.100000*%
%ADD13C,0.950000*%
%ADD14O,2.400000X2.400000*%
%ADD15C,2.400000*%
%ADD16R,1.050000X1.500000*%
%ADD17O,1.050000X1.500000*%
%ADD18O,2.500000X4.500000*%
%ADD19R,2.500000X4.500000*%
%ADD20O,1.800000X1.800000*%
%ADD21R,1.800000X1.800000*%
%ADD22R,1.500000X1.050000*%
%ADD23O,1.500000X1.050000*%
%ADD24C,2.350000*%
%ADD25C,1.800000*%
%ADD26C,2.000000*%
%ADD27R,2.000000X2.000000*%
%ADD28C,1.600000*%
%ADD29R,1.600000X1.600000*%
%ADD30O,3.000000X4.000000*%
%ADD31R,3.000000X4.000000*%
%ADD32O,4.000000X3.000000*%
%ADD33R,4.000000X3.000000*%
G04 APERTURE END LIST*
D10*
X201447400Y-46968400D03*
X201447400Y-49468400D03*
D11*
X201447400Y-51968400D03*
D10*
X122453400Y-47222400D03*
X122453400Y-49722400D03*
D11*
X122453400Y-52222400D03*
D12*
G36*
X232706779Y-74964144D02*
G01*
X232729834Y-74967563D01*
X232752443Y-74973227D01*
X232774387Y-74981079D01*
X232795457Y-74991044D01*
X232815448Y-75003026D01*
X232834168Y-75016910D01*
X232851438Y-75032562D01*
X232867090Y-75049832D01*
X232880974Y-75068552D01*
X232892956Y-75088543D01*
X232902921Y-75109613D01*
X232910773Y-75131557D01*
X232916437Y-75154166D01*
X232919856Y-75177221D01*
X232921000Y-75200500D01*
X232921000Y-75675500D01*
X232919856Y-75698779D01*
X232916437Y-75721834D01*
X232910773Y-75744443D01*
X232902921Y-75766387D01*
X232892956Y-75787457D01*
X232880974Y-75807448D01*
X232867090Y-75826168D01*
X232851438Y-75843438D01*
X232834168Y-75859090D01*
X232815448Y-75872974D01*
X232795457Y-75884956D01*
X232774387Y-75894921D01*
X232752443Y-75902773D01*
X232729834Y-75908437D01*
X232706779Y-75911856D01*
X232683500Y-75913000D01*
X232108500Y-75913000D01*
X232085221Y-75911856D01*
X232062166Y-75908437D01*
X232039557Y-75902773D01*
X232017613Y-75894921D01*
X231996543Y-75884956D01*
X231976552Y-75872974D01*
X231957832Y-75859090D01*
X231940562Y-75843438D01*
X231924910Y-75826168D01*
X231911026Y-75807448D01*
X231899044Y-75787457D01*
X231889079Y-75766387D01*
X231881227Y-75744443D01*
X231875563Y-75721834D01*
X231872144Y-75698779D01*
X231871000Y-75675500D01*
X231871000Y-75200500D01*
X231872144Y-75177221D01*
X231875563Y-75154166D01*
X231881227Y-75131557D01*
X231889079Y-75109613D01*
X231899044Y-75088543D01*
X231911026Y-75068552D01*
X231924910Y-75049832D01*
X231940562Y-75032562D01*
X231957832Y-75016910D01*
X231976552Y-75003026D01*
X231996543Y-74991044D01*
X232017613Y-74981079D01*
X232039557Y-74973227D01*
X232062166Y-74967563D01*
X232085221Y-74964144D01*
X232108500Y-74963000D01*
X232683500Y-74963000D01*
X232706779Y-74964144D01*
X232706779Y-74964144D01*
G37*
D13*
X232396000Y-75438000D03*
D12*
G36*
X230956779Y-74964144D02*
G01*
X230979834Y-74967563D01*
X231002443Y-74973227D01*
X231024387Y-74981079D01*
X231045457Y-74991044D01*
X231065448Y-75003026D01*
X231084168Y-75016910D01*
X231101438Y-75032562D01*
X231117090Y-75049832D01*
X231130974Y-75068552D01*
X231142956Y-75088543D01*
X231152921Y-75109613D01*
X231160773Y-75131557D01*
X231166437Y-75154166D01*
X231169856Y-75177221D01*
X231171000Y-75200500D01*
X231171000Y-75675500D01*
X231169856Y-75698779D01*
X231166437Y-75721834D01*
X231160773Y-75744443D01*
X231152921Y-75766387D01*
X231142956Y-75787457D01*
X231130974Y-75807448D01*
X231117090Y-75826168D01*
X231101438Y-75843438D01*
X231084168Y-75859090D01*
X231065448Y-75872974D01*
X231045457Y-75884956D01*
X231024387Y-75894921D01*
X231002443Y-75902773D01*
X230979834Y-75908437D01*
X230956779Y-75911856D01*
X230933500Y-75913000D01*
X230358500Y-75913000D01*
X230335221Y-75911856D01*
X230312166Y-75908437D01*
X230289557Y-75902773D01*
X230267613Y-75894921D01*
X230246543Y-75884956D01*
X230226552Y-75872974D01*
X230207832Y-75859090D01*
X230190562Y-75843438D01*
X230174910Y-75826168D01*
X230161026Y-75807448D01*
X230149044Y-75787457D01*
X230139079Y-75766387D01*
X230131227Y-75744443D01*
X230125563Y-75721834D01*
X230122144Y-75698779D01*
X230121000Y-75675500D01*
X230121000Y-75200500D01*
X230122144Y-75177221D01*
X230125563Y-75154166D01*
X230131227Y-75131557D01*
X230139079Y-75109613D01*
X230149044Y-75088543D01*
X230161026Y-75068552D01*
X230174910Y-75049832D01*
X230190562Y-75032562D01*
X230207832Y-75016910D01*
X230226552Y-75003026D01*
X230246543Y-74991044D01*
X230267613Y-74981079D01*
X230289557Y-74973227D01*
X230312166Y-74967563D01*
X230335221Y-74964144D01*
X230358500Y-74963000D01*
X230933500Y-74963000D01*
X230956779Y-74964144D01*
X230956779Y-74964144D01*
G37*
D13*
X230646000Y-75438000D03*
D14*
X211963000Y-50800000D03*
D15*
X211963000Y-81280000D03*
D14*
X221742000Y-81280000D03*
D15*
X221742000Y-50800000D03*
D12*
G36*
X226320779Y-54184144D02*
G01*
X226343834Y-54187563D01*
X226366443Y-54193227D01*
X226388387Y-54201079D01*
X226409457Y-54211044D01*
X226429448Y-54223026D01*
X226448168Y-54236910D01*
X226465438Y-54252562D01*
X226481090Y-54269832D01*
X226494974Y-54288552D01*
X226506956Y-54308543D01*
X226516921Y-54329613D01*
X226524773Y-54351557D01*
X226530437Y-54374166D01*
X226533856Y-54397221D01*
X226535000Y-54420500D01*
X226535000Y-54995500D01*
X226533856Y-55018779D01*
X226530437Y-55041834D01*
X226524773Y-55064443D01*
X226516921Y-55086387D01*
X226506956Y-55107457D01*
X226494974Y-55127448D01*
X226481090Y-55146168D01*
X226465438Y-55163438D01*
X226448168Y-55179090D01*
X226429448Y-55192974D01*
X226409457Y-55204956D01*
X226388387Y-55214921D01*
X226366443Y-55222773D01*
X226343834Y-55228437D01*
X226320779Y-55231856D01*
X226297500Y-55233000D01*
X225822500Y-55233000D01*
X225799221Y-55231856D01*
X225776166Y-55228437D01*
X225753557Y-55222773D01*
X225731613Y-55214921D01*
X225710543Y-55204956D01*
X225690552Y-55192974D01*
X225671832Y-55179090D01*
X225654562Y-55163438D01*
X225638910Y-55146168D01*
X225625026Y-55127448D01*
X225613044Y-55107457D01*
X225603079Y-55086387D01*
X225595227Y-55064443D01*
X225589563Y-55041834D01*
X225586144Y-55018779D01*
X225585000Y-54995500D01*
X225585000Y-54420500D01*
X225586144Y-54397221D01*
X225589563Y-54374166D01*
X225595227Y-54351557D01*
X225603079Y-54329613D01*
X225613044Y-54308543D01*
X225625026Y-54288552D01*
X225638910Y-54269832D01*
X225654562Y-54252562D01*
X225671832Y-54236910D01*
X225690552Y-54223026D01*
X225710543Y-54211044D01*
X225731613Y-54201079D01*
X225753557Y-54193227D01*
X225776166Y-54187563D01*
X225799221Y-54184144D01*
X225822500Y-54183000D01*
X226297500Y-54183000D01*
X226320779Y-54184144D01*
X226320779Y-54184144D01*
G37*
D13*
X226060000Y-54708000D03*
D12*
G36*
X226320779Y-55934144D02*
G01*
X226343834Y-55937563D01*
X226366443Y-55943227D01*
X226388387Y-55951079D01*
X226409457Y-55961044D01*
X226429448Y-55973026D01*
X226448168Y-55986910D01*
X226465438Y-56002562D01*
X226481090Y-56019832D01*
X226494974Y-56038552D01*
X226506956Y-56058543D01*
X226516921Y-56079613D01*
X226524773Y-56101557D01*
X226530437Y-56124166D01*
X226533856Y-56147221D01*
X226535000Y-56170500D01*
X226535000Y-56745500D01*
X226533856Y-56768779D01*
X226530437Y-56791834D01*
X226524773Y-56814443D01*
X226516921Y-56836387D01*
X226506956Y-56857457D01*
X226494974Y-56877448D01*
X226481090Y-56896168D01*
X226465438Y-56913438D01*
X226448168Y-56929090D01*
X226429448Y-56942974D01*
X226409457Y-56954956D01*
X226388387Y-56964921D01*
X226366443Y-56972773D01*
X226343834Y-56978437D01*
X226320779Y-56981856D01*
X226297500Y-56983000D01*
X225822500Y-56983000D01*
X225799221Y-56981856D01*
X225776166Y-56978437D01*
X225753557Y-56972773D01*
X225731613Y-56964921D01*
X225710543Y-56954956D01*
X225690552Y-56942974D01*
X225671832Y-56929090D01*
X225654562Y-56913438D01*
X225638910Y-56896168D01*
X225625026Y-56877448D01*
X225613044Y-56857457D01*
X225603079Y-56836387D01*
X225595227Y-56814443D01*
X225589563Y-56791834D01*
X225586144Y-56768779D01*
X225585000Y-56745500D01*
X225585000Y-56170500D01*
X225586144Y-56147221D01*
X225589563Y-56124166D01*
X225595227Y-56101557D01*
X225603079Y-56079613D01*
X225613044Y-56058543D01*
X225625026Y-56038552D01*
X225638910Y-56019832D01*
X225654562Y-56002562D01*
X225671832Y-55986910D01*
X225690552Y-55973026D01*
X225710543Y-55961044D01*
X225731613Y-55951079D01*
X225753557Y-55943227D01*
X225776166Y-55937563D01*
X225799221Y-55934144D01*
X225822500Y-55933000D01*
X226297500Y-55933000D01*
X226320779Y-55934144D01*
X226320779Y-55934144D01*
G37*
D13*
X226060000Y-56458000D03*
D12*
G36*
X188581779Y-46897144D02*
G01*
X188604834Y-46900563D01*
X188627443Y-46906227D01*
X188649387Y-46914079D01*
X188670457Y-46924044D01*
X188690448Y-46936026D01*
X188709168Y-46949910D01*
X188726438Y-46965562D01*
X188742090Y-46982832D01*
X188755974Y-47001552D01*
X188767956Y-47021543D01*
X188777921Y-47042613D01*
X188785773Y-47064557D01*
X188791437Y-47087166D01*
X188794856Y-47110221D01*
X188796000Y-47133500D01*
X188796000Y-47608500D01*
X188794856Y-47631779D01*
X188791437Y-47654834D01*
X188785773Y-47677443D01*
X188777921Y-47699387D01*
X188767956Y-47720457D01*
X188755974Y-47740448D01*
X188742090Y-47759168D01*
X188726438Y-47776438D01*
X188709168Y-47792090D01*
X188690448Y-47805974D01*
X188670457Y-47817956D01*
X188649387Y-47827921D01*
X188627443Y-47835773D01*
X188604834Y-47841437D01*
X188581779Y-47844856D01*
X188558500Y-47846000D01*
X187983500Y-47846000D01*
X187960221Y-47844856D01*
X187937166Y-47841437D01*
X187914557Y-47835773D01*
X187892613Y-47827921D01*
X187871543Y-47817956D01*
X187851552Y-47805974D01*
X187832832Y-47792090D01*
X187815562Y-47776438D01*
X187799910Y-47759168D01*
X187786026Y-47740448D01*
X187774044Y-47720457D01*
X187764079Y-47699387D01*
X187756227Y-47677443D01*
X187750563Y-47654834D01*
X187747144Y-47631779D01*
X187746000Y-47608500D01*
X187746000Y-47133500D01*
X187747144Y-47110221D01*
X187750563Y-47087166D01*
X187756227Y-47064557D01*
X187764079Y-47042613D01*
X187774044Y-47021543D01*
X187786026Y-47001552D01*
X187799910Y-46982832D01*
X187815562Y-46965562D01*
X187832832Y-46949910D01*
X187851552Y-46936026D01*
X187871543Y-46924044D01*
X187892613Y-46914079D01*
X187914557Y-46906227D01*
X187937166Y-46900563D01*
X187960221Y-46897144D01*
X187983500Y-46896000D01*
X188558500Y-46896000D01*
X188581779Y-46897144D01*
X188581779Y-46897144D01*
G37*
D13*
X188271000Y-47371000D03*
D12*
G36*
X190331779Y-46897144D02*
G01*
X190354834Y-46900563D01*
X190377443Y-46906227D01*
X190399387Y-46914079D01*
X190420457Y-46924044D01*
X190440448Y-46936026D01*
X190459168Y-46949910D01*
X190476438Y-46965562D01*
X190492090Y-46982832D01*
X190505974Y-47001552D01*
X190517956Y-47021543D01*
X190527921Y-47042613D01*
X190535773Y-47064557D01*
X190541437Y-47087166D01*
X190544856Y-47110221D01*
X190546000Y-47133500D01*
X190546000Y-47608500D01*
X190544856Y-47631779D01*
X190541437Y-47654834D01*
X190535773Y-47677443D01*
X190527921Y-47699387D01*
X190517956Y-47720457D01*
X190505974Y-47740448D01*
X190492090Y-47759168D01*
X190476438Y-47776438D01*
X190459168Y-47792090D01*
X190440448Y-47805974D01*
X190420457Y-47817956D01*
X190399387Y-47827921D01*
X190377443Y-47835773D01*
X190354834Y-47841437D01*
X190331779Y-47844856D01*
X190308500Y-47846000D01*
X189733500Y-47846000D01*
X189710221Y-47844856D01*
X189687166Y-47841437D01*
X189664557Y-47835773D01*
X189642613Y-47827921D01*
X189621543Y-47817956D01*
X189601552Y-47805974D01*
X189582832Y-47792090D01*
X189565562Y-47776438D01*
X189549910Y-47759168D01*
X189536026Y-47740448D01*
X189524044Y-47720457D01*
X189514079Y-47699387D01*
X189506227Y-47677443D01*
X189500563Y-47654834D01*
X189497144Y-47631779D01*
X189496000Y-47608500D01*
X189496000Y-47133500D01*
X189497144Y-47110221D01*
X189500563Y-47087166D01*
X189506227Y-47064557D01*
X189514079Y-47042613D01*
X189524044Y-47021543D01*
X189536026Y-47001552D01*
X189549910Y-46982832D01*
X189565562Y-46965562D01*
X189582832Y-46949910D01*
X189601552Y-46936026D01*
X189621543Y-46924044D01*
X189642613Y-46914079D01*
X189664557Y-46906227D01*
X189687166Y-46900563D01*
X189710221Y-46897144D01*
X189733500Y-46896000D01*
X190308500Y-46896000D01*
X190331779Y-46897144D01*
X190331779Y-46897144D01*
G37*
D13*
X190021000Y-47371000D03*
D12*
G36*
X188581779Y-48421144D02*
G01*
X188604834Y-48424563D01*
X188627443Y-48430227D01*
X188649387Y-48438079D01*
X188670457Y-48448044D01*
X188690448Y-48460026D01*
X188709168Y-48473910D01*
X188726438Y-48489562D01*
X188742090Y-48506832D01*
X188755974Y-48525552D01*
X188767956Y-48545543D01*
X188777921Y-48566613D01*
X188785773Y-48588557D01*
X188791437Y-48611166D01*
X188794856Y-48634221D01*
X188796000Y-48657500D01*
X188796000Y-49132500D01*
X188794856Y-49155779D01*
X188791437Y-49178834D01*
X188785773Y-49201443D01*
X188777921Y-49223387D01*
X188767956Y-49244457D01*
X188755974Y-49264448D01*
X188742090Y-49283168D01*
X188726438Y-49300438D01*
X188709168Y-49316090D01*
X188690448Y-49329974D01*
X188670457Y-49341956D01*
X188649387Y-49351921D01*
X188627443Y-49359773D01*
X188604834Y-49365437D01*
X188581779Y-49368856D01*
X188558500Y-49370000D01*
X187983500Y-49370000D01*
X187960221Y-49368856D01*
X187937166Y-49365437D01*
X187914557Y-49359773D01*
X187892613Y-49351921D01*
X187871543Y-49341956D01*
X187851552Y-49329974D01*
X187832832Y-49316090D01*
X187815562Y-49300438D01*
X187799910Y-49283168D01*
X187786026Y-49264448D01*
X187774044Y-49244457D01*
X187764079Y-49223387D01*
X187756227Y-49201443D01*
X187750563Y-49178834D01*
X187747144Y-49155779D01*
X187746000Y-49132500D01*
X187746000Y-48657500D01*
X187747144Y-48634221D01*
X187750563Y-48611166D01*
X187756227Y-48588557D01*
X187764079Y-48566613D01*
X187774044Y-48545543D01*
X187786026Y-48525552D01*
X187799910Y-48506832D01*
X187815562Y-48489562D01*
X187832832Y-48473910D01*
X187851552Y-48460026D01*
X187871543Y-48448044D01*
X187892613Y-48438079D01*
X187914557Y-48430227D01*
X187937166Y-48424563D01*
X187960221Y-48421144D01*
X187983500Y-48420000D01*
X188558500Y-48420000D01*
X188581779Y-48421144D01*
X188581779Y-48421144D01*
G37*
D13*
X188271000Y-48895000D03*
D12*
G36*
X190331779Y-48421144D02*
G01*
X190354834Y-48424563D01*
X190377443Y-48430227D01*
X190399387Y-48438079D01*
X190420457Y-48448044D01*
X190440448Y-48460026D01*
X190459168Y-48473910D01*
X190476438Y-48489562D01*
X190492090Y-48506832D01*
X190505974Y-48525552D01*
X190517956Y-48545543D01*
X190527921Y-48566613D01*
X190535773Y-48588557D01*
X190541437Y-48611166D01*
X190544856Y-48634221D01*
X190546000Y-48657500D01*
X190546000Y-49132500D01*
X190544856Y-49155779D01*
X190541437Y-49178834D01*
X190535773Y-49201443D01*
X190527921Y-49223387D01*
X190517956Y-49244457D01*
X190505974Y-49264448D01*
X190492090Y-49283168D01*
X190476438Y-49300438D01*
X190459168Y-49316090D01*
X190440448Y-49329974D01*
X190420457Y-49341956D01*
X190399387Y-49351921D01*
X190377443Y-49359773D01*
X190354834Y-49365437D01*
X190331779Y-49368856D01*
X190308500Y-49370000D01*
X189733500Y-49370000D01*
X189710221Y-49368856D01*
X189687166Y-49365437D01*
X189664557Y-49359773D01*
X189642613Y-49351921D01*
X189621543Y-49341956D01*
X189601552Y-49329974D01*
X189582832Y-49316090D01*
X189565562Y-49300438D01*
X189549910Y-49283168D01*
X189536026Y-49264448D01*
X189524044Y-49244457D01*
X189514079Y-49223387D01*
X189506227Y-49201443D01*
X189500563Y-49178834D01*
X189497144Y-49155779D01*
X189496000Y-49132500D01*
X189496000Y-48657500D01*
X189497144Y-48634221D01*
X189500563Y-48611166D01*
X189506227Y-48588557D01*
X189514079Y-48566613D01*
X189524044Y-48545543D01*
X189536026Y-48525552D01*
X189549910Y-48506832D01*
X189565562Y-48489562D01*
X189582832Y-48473910D01*
X189601552Y-48460026D01*
X189621543Y-48448044D01*
X189642613Y-48438079D01*
X189664557Y-48430227D01*
X189687166Y-48424563D01*
X189710221Y-48421144D01*
X189733500Y-48420000D01*
X190308500Y-48420000D01*
X190331779Y-48421144D01*
X190331779Y-48421144D01*
G37*
D13*
X190021000Y-48895000D03*
D12*
G36*
X195840779Y-46056144D02*
G01*
X195863834Y-46059563D01*
X195886443Y-46065227D01*
X195908387Y-46073079D01*
X195929457Y-46083044D01*
X195949448Y-46095026D01*
X195968168Y-46108910D01*
X195985438Y-46124562D01*
X196001090Y-46141832D01*
X196014974Y-46160552D01*
X196026956Y-46180543D01*
X196036921Y-46201613D01*
X196044773Y-46223557D01*
X196050437Y-46246166D01*
X196053856Y-46269221D01*
X196055000Y-46292500D01*
X196055000Y-46867500D01*
X196053856Y-46890779D01*
X196050437Y-46913834D01*
X196044773Y-46936443D01*
X196036921Y-46958387D01*
X196026956Y-46979457D01*
X196014974Y-46999448D01*
X196001090Y-47018168D01*
X195985438Y-47035438D01*
X195968168Y-47051090D01*
X195949448Y-47064974D01*
X195929457Y-47076956D01*
X195908387Y-47086921D01*
X195886443Y-47094773D01*
X195863834Y-47100437D01*
X195840779Y-47103856D01*
X195817500Y-47105000D01*
X195342500Y-47105000D01*
X195319221Y-47103856D01*
X195296166Y-47100437D01*
X195273557Y-47094773D01*
X195251613Y-47086921D01*
X195230543Y-47076956D01*
X195210552Y-47064974D01*
X195191832Y-47051090D01*
X195174562Y-47035438D01*
X195158910Y-47018168D01*
X195145026Y-46999448D01*
X195133044Y-46979457D01*
X195123079Y-46958387D01*
X195115227Y-46936443D01*
X195109563Y-46913834D01*
X195106144Y-46890779D01*
X195105000Y-46867500D01*
X195105000Y-46292500D01*
X195106144Y-46269221D01*
X195109563Y-46246166D01*
X195115227Y-46223557D01*
X195123079Y-46201613D01*
X195133044Y-46180543D01*
X195145026Y-46160552D01*
X195158910Y-46141832D01*
X195174562Y-46124562D01*
X195191832Y-46108910D01*
X195210552Y-46095026D01*
X195230543Y-46083044D01*
X195251613Y-46073079D01*
X195273557Y-46065227D01*
X195296166Y-46059563D01*
X195319221Y-46056144D01*
X195342500Y-46055000D01*
X195817500Y-46055000D01*
X195840779Y-46056144D01*
X195840779Y-46056144D01*
G37*
D13*
X195580000Y-46580000D03*
D12*
G36*
X195840779Y-47806144D02*
G01*
X195863834Y-47809563D01*
X195886443Y-47815227D01*
X195908387Y-47823079D01*
X195929457Y-47833044D01*
X195949448Y-47845026D01*
X195968168Y-47858910D01*
X195985438Y-47874562D01*
X196001090Y-47891832D01*
X196014974Y-47910552D01*
X196026956Y-47930543D01*
X196036921Y-47951613D01*
X196044773Y-47973557D01*
X196050437Y-47996166D01*
X196053856Y-48019221D01*
X196055000Y-48042500D01*
X196055000Y-48617500D01*
X196053856Y-48640779D01*
X196050437Y-48663834D01*
X196044773Y-48686443D01*
X196036921Y-48708387D01*
X196026956Y-48729457D01*
X196014974Y-48749448D01*
X196001090Y-48768168D01*
X195985438Y-48785438D01*
X195968168Y-48801090D01*
X195949448Y-48814974D01*
X195929457Y-48826956D01*
X195908387Y-48836921D01*
X195886443Y-48844773D01*
X195863834Y-48850437D01*
X195840779Y-48853856D01*
X195817500Y-48855000D01*
X195342500Y-48855000D01*
X195319221Y-48853856D01*
X195296166Y-48850437D01*
X195273557Y-48844773D01*
X195251613Y-48836921D01*
X195230543Y-48826956D01*
X195210552Y-48814974D01*
X195191832Y-48801090D01*
X195174562Y-48785438D01*
X195158910Y-48768168D01*
X195145026Y-48749448D01*
X195133044Y-48729457D01*
X195123079Y-48708387D01*
X195115227Y-48686443D01*
X195109563Y-48663834D01*
X195106144Y-48640779D01*
X195105000Y-48617500D01*
X195105000Y-48042500D01*
X195106144Y-48019221D01*
X195109563Y-47996166D01*
X195115227Y-47973557D01*
X195123079Y-47951613D01*
X195133044Y-47930543D01*
X195145026Y-47910552D01*
X195158910Y-47891832D01*
X195174562Y-47874562D01*
X195191832Y-47858910D01*
X195210552Y-47845026D01*
X195230543Y-47833044D01*
X195251613Y-47823079D01*
X195273557Y-47815227D01*
X195296166Y-47809563D01*
X195319221Y-47806144D01*
X195342500Y-47805000D01*
X195817500Y-47805000D01*
X195840779Y-47806144D01*
X195840779Y-47806144D01*
G37*
D13*
X195580000Y-48330000D03*
D12*
G36*
X193554779Y-52294144D02*
G01*
X193577834Y-52297563D01*
X193600443Y-52303227D01*
X193622387Y-52311079D01*
X193643457Y-52321044D01*
X193663448Y-52333026D01*
X193682168Y-52346910D01*
X193699438Y-52362562D01*
X193715090Y-52379832D01*
X193728974Y-52398552D01*
X193740956Y-52418543D01*
X193750921Y-52439613D01*
X193758773Y-52461557D01*
X193764437Y-52484166D01*
X193767856Y-52507221D01*
X193769000Y-52530500D01*
X193769000Y-53105500D01*
X193767856Y-53128779D01*
X193764437Y-53151834D01*
X193758773Y-53174443D01*
X193750921Y-53196387D01*
X193740956Y-53217457D01*
X193728974Y-53237448D01*
X193715090Y-53256168D01*
X193699438Y-53273438D01*
X193682168Y-53289090D01*
X193663448Y-53302974D01*
X193643457Y-53314956D01*
X193622387Y-53324921D01*
X193600443Y-53332773D01*
X193577834Y-53338437D01*
X193554779Y-53341856D01*
X193531500Y-53343000D01*
X193056500Y-53343000D01*
X193033221Y-53341856D01*
X193010166Y-53338437D01*
X192987557Y-53332773D01*
X192965613Y-53324921D01*
X192944543Y-53314956D01*
X192924552Y-53302974D01*
X192905832Y-53289090D01*
X192888562Y-53273438D01*
X192872910Y-53256168D01*
X192859026Y-53237448D01*
X192847044Y-53217457D01*
X192837079Y-53196387D01*
X192829227Y-53174443D01*
X192823563Y-53151834D01*
X192820144Y-53128779D01*
X192819000Y-53105500D01*
X192819000Y-52530500D01*
X192820144Y-52507221D01*
X192823563Y-52484166D01*
X192829227Y-52461557D01*
X192837079Y-52439613D01*
X192847044Y-52418543D01*
X192859026Y-52398552D01*
X192872910Y-52379832D01*
X192888562Y-52362562D01*
X192905832Y-52346910D01*
X192924552Y-52333026D01*
X192944543Y-52321044D01*
X192965613Y-52311079D01*
X192987557Y-52303227D01*
X193010166Y-52297563D01*
X193033221Y-52294144D01*
X193056500Y-52293000D01*
X193531500Y-52293000D01*
X193554779Y-52294144D01*
X193554779Y-52294144D01*
G37*
D13*
X193294000Y-52818000D03*
D12*
G36*
X193554779Y-50544144D02*
G01*
X193577834Y-50547563D01*
X193600443Y-50553227D01*
X193622387Y-50561079D01*
X193643457Y-50571044D01*
X193663448Y-50583026D01*
X193682168Y-50596910D01*
X193699438Y-50612562D01*
X193715090Y-50629832D01*
X193728974Y-50648552D01*
X193740956Y-50668543D01*
X193750921Y-50689613D01*
X193758773Y-50711557D01*
X193764437Y-50734166D01*
X193767856Y-50757221D01*
X193769000Y-50780500D01*
X193769000Y-51355500D01*
X193767856Y-51378779D01*
X193764437Y-51401834D01*
X193758773Y-51424443D01*
X193750921Y-51446387D01*
X193740956Y-51467457D01*
X193728974Y-51487448D01*
X193715090Y-51506168D01*
X193699438Y-51523438D01*
X193682168Y-51539090D01*
X193663448Y-51552974D01*
X193643457Y-51564956D01*
X193622387Y-51574921D01*
X193600443Y-51582773D01*
X193577834Y-51588437D01*
X193554779Y-51591856D01*
X193531500Y-51593000D01*
X193056500Y-51593000D01*
X193033221Y-51591856D01*
X193010166Y-51588437D01*
X192987557Y-51582773D01*
X192965613Y-51574921D01*
X192944543Y-51564956D01*
X192924552Y-51552974D01*
X192905832Y-51539090D01*
X192888562Y-51523438D01*
X192872910Y-51506168D01*
X192859026Y-51487448D01*
X192847044Y-51467457D01*
X192837079Y-51446387D01*
X192829227Y-51424443D01*
X192823563Y-51401834D01*
X192820144Y-51378779D01*
X192819000Y-51355500D01*
X192819000Y-50780500D01*
X192820144Y-50757221D01*
X192823563Y-50734166D01*
X192829227Y-50711557D01*
X192837079Y-50689613D01*
X192847044Y-50668543D01*
X192859026Y-50648552D01*
X192872910Y-50629832D01*
X192888562Y-50612562D01*
X192905832Y-50596910D01*
X192924552Y-50583026D01*
X192944543Y-50571044D01*
X192965613Y-50561079D01*
X192987557Y-50553227D01*
X193010166Y-50547563D01*
X193033221Y-50544144D01*
X193056500Y-50543000D01*
X193531500Y-50543000D01*
X193554779Y-50544144D01*
X193554779Y-50544144D01*
G37*
D13*
X193294000Y-51068000D03*
D12*
G36*
X188347779Y-55667144D02*
G01*
X188370834Y-55670563D01*
X188393443Y-55676227D01*
X188415387Y-55684079D01*
X188436457Y-55694044D01*
X188456448Y-55706026D01*
X188475168Y-55719910D01*
X188492438Y-55735562D01*
X188508090Y-55752832D01*
X188521974Y-55771552D01*
X188533956Y-55791543D01*
X188543921Y-55812613D01*
X188551773Y-55834557D01*
X188557437Y-55857166D01*
X188560856Y-55880221D01*
X188562000Y-55903500D01*
X188562000Y-56478500D01*
X188560856Y-56501779D01*
X188557437Y-56524834D01*
X188551773Y-56547443D01*
X188543921Y-56569387D01*
X188533956Y-56590457D01*
X188521974Y-56610448D01*
X188508090Y-56629168D01*
X188492438Y-56646438D01*
X188475168Y-56662090D01*
X188456448Y-56675974D01*
X188436457Y-56687956D01*
X188415387Y-56697921D01*
X188393443Y-56705773D01*
X188370834Y-56711437D01*
X188347779Y-56714856D01*
X188324500Y-56716000D01*
X187849500Y-56716000D01*
X187826221Y-56714856D01*
X187803166Y-56711437D01*
X187780557Y-56705773D01*
X187758613Y-56697921D01*
X187737543Y-56687956D01*
X187717552Y-56675974D01*
X187698832Y-56662090D01*
X187681562Y-56646438D01*
X187665910Y-56629168D01*
X187652026Y-56610448D01*
X187640044Y-56590457D01*
X187630079Y-56569387D01*
X187622227Y-56547443D01*
X187616563Y-56524834D01*
X187613144Y-56501779D01*
X187612000Y-56478500D01*
X187612000Y-55903500D01*
X187613144Y-55880221D01*
X187616563Y-55857166D01*
X187622227Y-55834557D01*
X187630079Y-55812613D01*
X187640044Y-55791543D01*
X187652026Y-55771552D01*
X187665910Y-55752832D01*
X187681562Y-55735562D01*
X187698832Y-55719910D01*
X187717552Y-55706026D01*
X187737543Y-55694044D01*
X187758613Y-55684079D01*
X187780557Y-55676227D01*
X187803166Y-55670563D01*
X187826221Y-55667144D01*
X187849500Y-55666000D01*
X188324500Y-55666000D01*
X188347779Y-55667144D01*
X188347779Y-55667144D01*
G37*
D13*
X188087000Y-56191000D03*
D12*
G36*
X188347779Y-57417144D02*
G01*
X188370834Y-57420563D01*
X188393443Y-57426227D01*
X188415387Y-57434079D01*
X188436457Y-57444044D01*
X188456448Y-57456026D01*
X188475168Y-57469910D01*
X188492438Y-57485562D01*
X188508090Y-57502832D01*
X188521974Y-57521552D01*
X188533956Y-57541543D01*
X188543921Y-57562613D01*
X188551773Y-57584557D01*
X188557437Y-57607166D01*
X188560856Y-57630221D01*
X188562000Y-57653500D01*
X188562000Y-58228500D01*
X188560856Y-58251779D01*
X188557437Y-58274834D01*
X188551773Y-58297443D01*
X188543921Y-58319387D01*
X188533956Y-58340457D01*
X188521974Y-58360448D01*
X188508090Y-58379168D01*
X188492438Y-58396438D01*
X188475168Y-58412090D01*
X188456448Y-58425974D01*
X188436457Y-58437956D01*
X188415387Y-58447921D01*
X188393443Y-58455773D01*
X188370834Y-58461437D01*
X188347779Y-58464856D01*
X188324500Y-58466000D01*
X187849500Y-58466000D01*
X187826221Y-58464856D01*
X187803166Y-58461437D01*
X187780557Y-58455773D01*
X187758613Y-58447921D01*
X187737543Y-58437956D01*
X187717552Y-58425974D01*
X187698832Y-58412090D01*
X187681562Y-58396438D01*
X187665910Y-58379168D01*
X187652026Y-58360448D01*
X187640044Y-58340457D01*
X187630079Y-58319387D01*
X187622227Y-58297443D01*
X187616563Y-58274834D01*
X187613144Y-58251779D01*
X187612000Y-58228500D01*
X187612000Y-57653500D01*
X187613144Y-57630221D01*
X187616563Y-57607166D01*
X187622227Y-57584557D01*
X187630079Y-57562613D01*
X187640044Y-57541543D01*
X187652026Y-57521552D01*
X187665910Y-57502832D01*
X187681562Y-57485562D01*
X187698832Y-57469910D01*
X187717552Y-57456026D01*
X187737543Y-57444044D01*
X187758613Y-57434079D01*
X187780557Y-57426227D01*
X187803166Y-57420563D01*
X187826221Y-57417144D01*
X187849500Y-57416000D01*
X188324500Y-57416000D01*
X188347779Y-57417144D01*
X188347779Y-57417144D01*
G37*
D13*
X188087000Y-57941000D03*
D12*
G36*
X234448779Y-59096144D02*
G01*
X234471834Y-59099563D01*
X234494443Y-59105227D01*
X234516387Y-59113079D01*
X234537457Y-59123044D01*
X234557448Y-59135026D01*
X234576168Y-59148910D01*
X234593438Y-59164562D01*
X234609090Y-59181832D01*
X234622974Y-59200552D01*
X234634956Y-59220543D01*
X234644921Y-59241613D01*
X234652773Y-59263557D01*
X234658437Y-59286166D01*
X234661856Y-59309221D01*
X234663000Y-59332500D01*
X234663000Y-59907500D01*
X234661856Y-59930779D01*
X234658437Y-59953834D01*
X234652773Y-59976443D01*
X234644921Y-59998387D01*
X234634956Y-60019457D01*
X234622974Y-60039448D01*
X234609090Y-60058168D01*
X234593438Y-60075438D01*
X234576168Y-60091090D01*
X234557448Y-60104974D01*
X234537457Y-60116956D01*
X234516387Y-60126921D01*
X234494443Y-60134773D01*
X234471834Y-60140437D01*
X234448779Y-60143856D01*
X234425500Y-60145000D01*
X233950500Y-60145000D01*
X233927221Y-60143856D01*
X233904166Y-60140437D01*
X233881557Y-60134773D01*
X233859613Y-60126921D01*
X233838543Y-60116956D01*
X233818552Y-60104974D01*
X233799832Y-60091090D01*
X233782562Y-60075438D01*
X233766910Y-60058168D01*
X233753026Y-60039448D01*
X233741044Y-60019457D01*
X233731079Y-59998387D01*
X233723227Y-59976443D01*
X233717563Y-59953834D01*
X233714144Y-59930779D01*
X233713000Y-59907500D01*
X233713000Y-59332500D01*
X233714144Y-59309221D01*
X233717563Y-59286166D01*
X233723227Y-59263557D01*
X233731079Y-59241613D01*
X233741044Y-59220543D01*
X233753026Y-59200552D01*
X233766910Y-59181832D01*
X233782562Y-59164562D01*
X233799832Y-59148910D01*
X233818552Y-59135026D01*
X233838543Y-59123044D01*
X233859613Y-59113079D01*
X233881557Y-59105227D01*
X233904166Y-59099563D01*
X233927221Y-59096144D01*
X233950500Y-59095000D01*
X234425500Y-59095000D01*
X234448779Y-59096144D01*
X234448779Y-59096144D01*
G37*
D13*
X234188000Y-59620000D03*
D12*
G36*
X234448779Y-60846144D02*
G01*
X234471834Y-60849563D01*
X234494443Y-60855227D01*
X234516387Y-60863079D01*
X234537457Y-60873044D01*
X234557448Y-60885026D01*
X234576168Y-60898910D01*
X234593438Y-60914562D01*
X234609090Y-60931832D01*
X234622974Y-60950552D01*
X234634956Y-60970543D01*
X234644921Y-60991613D01*
X234652773Y-61013557D01*
X234658437Y-61036166D01*
X234661856Y-61059221D01*
X234663000Y-61082500D01*
X234663000Y-61657500D01*
X234661856Y-61680779D01*
X234658437Y-61703834D01*
X234652773Y-61726443D01*
X234644921Y-61748387D01*
X234634956Y-61769457D01*
X234622974Y-61789448D01*
X234609090Y-61808168D01*
X234593438Y-61825438D01*
X234576168Y-61841090D01*
X234557448Y-61854974D01*
X234537457Y-61866956D01*
X234516387Y-61876921D01*
X234494443Y-61884773D01*
X234471834Y-61890437D01*
X234448779Y-61893856D01*
X234425500Y-61895000D01*
X233950500Y-61895000D01*
X233927221Y-61893856D01*
X233904166Y-61890437D01*
X233881557Y-61884773D01*
X233859613Y-61876921D01*
X233838543Y-61866956D01*
X233818552Y-61854974D01*
X233799832Y-61841090D01*
X233782562Y-61825438D01*
X233766910Y-61808168D01*
X233753026Y-61789448D01*
X233741044Y-61769457D01*
X233731079Y-61748387D01*
X233723227Y-61726443D01*
X233717563Y-61703834D01*
X233714144Y-61680779D01*
X233713000Y-61657500D01*
X233713000Y-61082500D01*
X233714144Y-61059221D01*
X233717563Y-61036166D01*
X233723227Y-61013557D01*
X233731079Y-60991613D01*
X233741044Y-60970543D01*
X233753026Y-60950552D01*
X233766910Y-60931832D01*
X233782562Y-60914562D01*
X233799832Y-60898910D01*
X233818552Y-60885026D01*
X233838543Y-60873044D01*
X233859613Y-60863079D01*
X233881557Y-60855227D01*
X233904166Y-60849563D01*
X233927221Y-60846144D01*
X233950500Y-60845000D01*
X234425500Y-60845000D01*
X234448779Y-60846144D01*
X234448779Y-60846144D01*
G37*
D13*
X234188000Y-61370000D03*
D12*
G36*
X217176779Y-77341144D02*
G01*
X217199834Y-77344563D01*
X217222443Y-77350227D01*
X217244387Y-77358079D01*
X217265457Y-77368044D01*
X217285448Y-77380026D01*
X217304168Y-77393910D01*
X217321438Y-77409562D01*
X217337090Y-77426832D01*
X217350974Y-77445552D01*
X217362956Y-77465543D01*
X217372921Y-77486613D01*
X217380773Y-77508557D01*
X217386437Y-77531166D01*
X217389856Y-77554221D01*
X217391000Y-77577500D01*
X217391000Y-78152500D01*
X217389856Y-78175779D01*
X217386437Y-78198834D01*
X217380773Y-78221443D01*
X217372921Y-78243387D01*
X217362956Y-78264457D01*
X217350974Y-78284448D01*
X217337090Y-78303168D01*
X217321438Y-78320438D01*
X217304168Y-78336090D01*
X217285448Y-78349974D01*
X217265457Y-78361956D01*
X217244387Y-78371921D01*
X217222443Y-78379773D01*
X217199834Y-78385437D01*
X217176779Y-78388856D01*
X217153500Y-78390000D01*
X216678500Y-78390000D01*
X216655221Y-78388856D01*
X216632166Y-78385437D01*
X216609557Y-78379773D01*
X216587613Y-78371921D01*
X216566543Y-78361956D01*
X216546552Y-78349974D01*
X216527832Y-78336090D01*
X216510562Y-78320438D01*
X216494910Y-78303168D01*
X216481026Y-78284448D01*
X216469044Y-78264457D01*
X216459079Y-78243387D01*
X216451227Y-78221443D01*
X216445563Y-78198834D01*
X216442144Y-78175779D01*
X216441000Y-78152500D01*
X216441000Y-77577500D01*
X216442144Y-77554221D01*
X216445563Y-77531166D01*
X216451227Y-77508557D01*
X216459079Y-77486613D01*
X216469044Y-77465543D01*
X216481026Y-77445552D01*
X216494910Y-77426832D01*
X216510562Y-77409562D01*
X216527832Y-77393910D01*
X216546552Y-77380026D01*
X216566543Y-77368044D01*
X216587613Y-77358079D01*
X216609557Y-77350227D01*
X216632166Y-77344563D01*
X216655221Y-77341144D01*
X216678500Y-77340000D01*
X217153500Y-77340000D01*
X217176779Y-77341144D01*
X217176779Y-77341144D01*
G37*
D13*
X216916000Y-77865000D03*
D12*
G36*
X217176779Y-79091144D02*
G01*
X217199834Y-79094563D01*
X217222443Y-79100227D01*
X217244387Y-79108079D01*
X217265457Y-79118044D01*
X217285448Y-79130026D01*
X217304168Y-79143910D01*
X217321438Y-79159562D01*
X217337090Y-79176832D01*
X217350974Y-79195552D01*
X217362956Y-79215543D01*
X217372921Y-79236613D01*
X217380773Y-79258557D01*
X217386437Y-79281166D01*
X217389856Y-79304221D01*
X217391000Y-79327500D01*
X217391000Y-79902500D01*
X217389856Y-79925779D01*
X217386437Y-79948834D01*
X217380773Y-79971443D01*
X217372921Y-79993387D01*
X217362956Y-80014457D01*
X217350974Y-80034448D01*
X217337090Y-80053168D01*
X217321438Y-80070438D01*
X217304168Y-80086090D01*
X217285448Y-80099974D01*
X217265457Y-80111956D01*
X217244387Y-80121921D01*
X217222443Y-80129773D01*
X217199834Y-80135437D01*
X217176779Y-80138856D01*
X217153500Y-80140000D01*
X216678500Y-80140000D01*
X216655221Y-80138856D01*
X216632166Y-80135437D01*
X216609557Y-80129773D01*
X216587613Y-80121921D01*
X216566543Y-80111956D01*
X216546552Y-80099974D01*
X216527832Y-80086090D01*
X216510562Y-80070438D01*
X216494910Y-80053168D01*
X216481026Y-80034448D01*
X216469044Y-80014457D01*
X216459079Y-79993387D01*
X216451227Y-79971443D01*
X216445563Y-79948834D01*
X216442144Y-79925779D01*
X216441000Y-79902500D01*
X216441000Y-79327500D01*
X216442144Y-79304221D01*
X216445563Y-79281166D01*
X216451227Y-79258557D01*
X216459079Y-79236613D01*
X216469044Y-79215543D01*
X216481026Y-79195552D01*
X216494910Y-79176832D01*
X216510562Y-79159562D01*
X216527832Y-79143910D01*
X216546552Y-79130026D01*
X216566543Y-79118044D01*
X216587613Y-79108079D01*
X216609557Y-79100227D01*
X216632166Y-79094563D01*
X216655221Y-79091144D01*
X216678500Y-79090000D01*
X217153500Y-79090000D01*
X217176779Y-79091144D01*
X217176779Y-79091144D01*
G37*
D13*
X216916000Y-79615000D03*
D12*
G36*
X224161779Y-58375144D02*
G01*
X224184834Y-58378563D01*
X224207443Y-58384227D01*
X224229387Y-58392079D01*
X224250457Y-58402044D01*
X224270448Y-58414026D01*
X224289168Y-58427910D01*
X224306438Y-58443562D01*
X224322090Y-58460832D01*
X224335974Y-58479552D01*
X224347956Y-58499543D01*
X224357921Y-58520613D01*
X224365773Y-58542557D01*
X224371437Y-58565166D01*
X224374856Y-58588221D01*
X224376000Y-58611500D01*
X224376000Y-59186500D01*
X224374856Y-59209779D01*
X224371437Y-59232834D01*
X224365773Y-59255443D01*
X224357921Y-59277387D01*
X224347956Y-59298457D01*
X224335974Y-59318448D01*
X224322090Y-59337168D01*
X224306438Y-59354438D01*
X224289168Y-59370090D01*
X224270448Y-59383974D01*
X224250457Y-59395956D01*
X224229387Y-59405921D01*
X224207443Y-59413773D01*
X224184834Y-59419437D01*
X224161779Y-59422856D01*
X224138500Y-59424000D01*
X223663500Y-59424000D01*
X223640221Y-59422856D01*
X223617166Y-59419437D01*
X223594557Y-59413773D01*
X223572613Y-59405921D01*
X223551543Y-59395956D01*
X223531552Y-59383974D01*
X223512832Y-59370090D01*
X223495562Y-59354438D01*
X223479910Y-59337168D01*
X223466026Y-59318448D01*
X223454044Y-59298457D01*
X223444079Y-59277387D01*
X223436227Y-59255443D01*
X223430563Y-59232834D01*
X223427144Y-59209779D01*
X223426000Y-59186500D01*
X223426000Y-58611500D01*
X223427144Y-58588221D01*
X223430563Y-58565166D01*
X223436227Y-58542557D01*
X223444079Y-58520613D01*
X223454044Y-58499543D01*
X223466026Y-58479552D01*
X223479910Y-58460832D01*
X223495562Y-58443562D01*
X223512832Y-58427910D01*
X223531552Y-58414026D01*
X223551543Y-58402044D01*
X223572613Y-58392079D01*
X223594557Y-58384227D01*
X223617166Y-58378563D01*
X223640221Y-58375144D01*
X223663500Y-58374000D01*
X224138500Y-58374000D01*
X224161779Y-58375144D01*
X224161779Y-58375144D01*
G37*
D13*
X223901000Y-58899000D03*
D12*
G36*
X224161779Y-60125144D02*
G01*
X224184834Y-60128563D01*
X224207443Y-60134227D01*
X224229387Y-60142079D01*
X224250457Y-60152044D01*
X224270448Y-60164026D01*
X224289168Y-60177910D01*
X224306438Y-60193562D01*
X224322090Y-60210832D01*
X224335974Y-60229552D01*
X224347956Y-60249543D01*
X224357921Y-60270613D01*
X224365773Y-60292557D01*
X224371437Y-60315166D01*
X224374856Y-60338221D01*
X224376000Y-60361500D01*
X224376000Y-60936500D01*
X224374856Y-60959779D01*
X224371437Y-60982834D01*
X224365773Y-61005443D01*
X224357921Y-61027387D01*
X224347956Y-61048457D01*
X224335974Y-61068448D01*
X224322090Y-61087168D01*
X224306438Y-61104438D01*
X224289168Y-61120090D01*
X224270448Y-61133974D01*
X224250457Y-61145956D01*
X224229387Y-61155921D01*
X224207443Y-61163773D01*
X224184834Y-61169437D01*
X224161779Y-61172856D01*
X224138500Y-61174000D01*
X223663500Y-61174000D01*
X223640221Y-61172856D01*
X223617166Y-61169437D01*
X223594557Y-61163773D01*
X223572613Y-61155921D01*
X223551543Y-61145956D01*
X223531552Y-61133974D01*
X223512832Y-61120090D01*
X223495562Y-61104438D01*
X223479910Y-61087168D01*
X223466026Y-61068448D01*
X223454044Y-61048457D01*
X223444079Y-61027387D01*
X223436227Y-61005443D01*
X223430563Y-60982834D01*
X223427144Y-60959779D01*
X223426000Y-60936500D01*
X223426000Y-60361500D01*
X223427144Y-60338221D01*
X223430563Y-60315166D01*
X223436227Y-60292557D01*
X223444079Y-60270613D01*
X223454044Y-60249543D01*
X223466026Y-60229552D01*
X223479910Y-60210832D01*
X223495562Y-60193562D01*
X223512832Y-60177910D01*
X223531552Y-60164026D01*
X223551543Y-60152044D01*
X223572613Y-60142079D01*
X223594557Y-60134227D01*
X223617166Y-60128563D01*
X223640221Y-60125144D01*
X223663500Y-60124000D01*
X224138500Y-60124000D01*
X224161779Y-60125144D01*
X224161779Y-60125144D01*
G37*
D13*
X223901000Y-60649000D03*
D12*
G36*
X238639779Y-61522144D02*
G01*
X238662834Y-61525563D01*
X238685443Y-61531227D01*
X238707387Y-61539079D01*
X238728457Y-61549044D01*
X238748448Y-61561026D01*
X238767168Y-61574910D01*
X238784438Y-61590562D01*
X238800090Y-61607832D01*
X238813974Y-61626552D01*
X238825956Y-61646543D01*
X238835921Y-61667613D01*
X238843773Y-61689557D01*
X238849437Y-61712166D01*
X238852856Y-61735221D01*
X238854000Y-61758500D01*
X238854000Y-62333500D01*
X238852856Y-62356779D01*
X238849437Y-62379834D01*
X238843773Y-62402443D01*
X238835921Y-62424387D01*
X238825956Y-62445457D01*
X238813974Y-62465448D01*
X238800090Y-62484168D01*
X238784438Y-62501438D01*
X238767168Y-62517090D01*
X238748448Y-62530974D01*
X238728457Y-62542956D01*
X238707387Y-62552921D01*
X238685443Y-62560773D01*
X238662834Y-62566437D01*
X238639779Y-62569856D01*
X238616500Y-62571000D01*
X238141500Y-62571000D01*
X238118221Y-62569856D01*
X238095166Y-62566437D01*
X238072557Y-62560773D01*
X238050613Y-62552921D01*
X238029543Y-62542956D01*
X238009552Y-62530974D01*
X237990832Y-62517090D01*
X237973562Y-62501438D01*
X237957910Y-62484168D01*
X237944026Y-62465448D01*
X237932044Y-62445457D01*
X237922079Y-62424387D01*
X237914227Y-62402443D01*
X237908563Y-62379834D01*
X237905144Y-62356779D01*
X237904000Y-62333500D01*
X237904000Y-61758500D01*
X237905144Y-61735221D01*
X237908563Y-61712166D01*
X237914227Y-61689557D01*
X237922079Y-61667613D01*
X237932044Y-61646543D01*
X237944026Y-61626552D01*
X237957910Y-61607832D01*
X237973562Y-61590562D01*
X237990832Y-61574910D01*
X238009552Y-61561026D01*
X238029543Y-61549044D01*
X238050613Y-61539079D01*
X238072557Y-61531227D01*
X238095166Y-61525563D01*
X238118221Y-61522144D01*
X238141500Y-61521000D01*
X238616500Y-61521000D01*
X238639779Y-61522144D01*
X238639779Y-61522144D01*
G37*
D13*
X238379000Y-62046000D03*
D12*
G36*
X238639779Y-59772144D02*
G01*
X238662834Y-59775563D01*
X238685443Y-59781227D01*
X238707387Y-59789079D01*
X238728457Y-59799044D01*
X238748448Y-59811026D01*
X238767168Y-59824910D01*
X238784438Y-59840562D01*
X238800090Y-59857832D01*
X238813974Y-59876552D01*
X238825956Y-59896543D01*
X238835921Y-59917613D01*
X238843773Y-59939557D01*
X238849437Y-59962166D01*
X238852856Y-59985221D01*
X238854000Y-60008500D01*
X238854000Y-60583500D01*
X238852856Y-60606779D01*
X238849437Y-60629834D01*
X238843773Y-60652443D01*
X238835921Y-60674387D01*
X238825956Y-60695457D01*
X238813974Y-60715448D01*
X238800090Y-60734168D01*
X238784438Y-60751438D01*
X238767168Y-60767090D01*
X238748448Y-60780974D01*
X238728457Y-60792956D01*
X238707387Y-60802921D01*
X238685443Y-60810773D01*
X238662834Y-60816437D01*
X238639779Y-60819856D01*
X238616500Y-60821000D01*
X238141500Y-60821000D01*
X238118221Y-60819856D01*
X238095166Y-60816437D01*
X238072557Y-60810773D01*
X238050613Y-60802921D01*
X238029543Y-60792956D01*
X238009552Y-60780974D01*
X237990832Y-60767090D01*
X237973562Y-60751438D01*
X237957910Y-60734168D01*
X237944026Y-60715448D01*
X237932044Y-60695457D01*
X237922079Y-60674387D01*
X237914227Y-60652443D01*
X237908563Y-60629834D01*
X237905144Y-60606779D01*
X237904000Y-60583500D01*
X237904000Y-60008500D01*
X237905144Y-59985221D01*
X237908563Y-59962166D01*
X237914227Y-59939557D01*
X237922079Y-59917613D01*
X237932044Y-59896543D01*
X237944026Y-59876552D01*
X237957910Y-59857832D01*
X237973562Y-59840562D01*
X237990832Y-59824910D01*
X238009552Y-59811026D01*
X238029543Y-59799044D01*
X238050613Y-59789079D01*
X238072557Y-59781227D01*
X238095166Y-59775563D01*
X238118221Y-59772144D01*
X238141500Y-59771000D01*
X238616500Y-59771000D01*
X238639779Y-59772144D01*
X238639779Y-59772144D01*
G37*
D13*
X238379000Y-60296000D03*
D14*
X132310000Y-49810000D03*
D15*
X132310000Y-80290000D03*
D14*
X142510000Y-80220000D03*
D15*
X142510000Y-49740000D03*
D12*
G36*
X147520779Y-52961144D02*
G01*
X147543834Y-52964563D01*
X147566443Y-52970227D01*
X147588387Y-52978079D01*
X147609457Y-52988044D01*
X147629448Y-53000026D01*
X147648168Y-53013910D01*
X147665438Y-53029562D01*
X147681090Y-53046832D01*
X147694974Y-53065552D01*
X147706956Y-53085543D01*
X147716921Y-53106613D01*
X147724773Y-53128557D01*
X147730437Y-53151166D01*
X147733856Y-53174221D01*
X147735000Y-53197500D01*
X147735000Y-53772500D01*
X147733856Y-53795779D01*
X147730437Y-53818834D01*
X147724773Y-53841443D01*
X147716921Y-53863387D01*
X147706956Y-53884457D01*
X147694974Y-53904448D01*
X147681090Y-53923168D01*
X147665438Y-53940438D01*
X147648168Y-53956090D01*
X147629448Y-53969974D01*
X147609457Y-53981956D01*
X147588387Y-53991921D01*
X147566443Y-53999773D01*
X147543834Y-54005437D01*
X147520779Y-54008856D01*
X147497500Y-54010000D01*
X147022500Y-54010000D01*
X146999221Y-54008856D01*
X146976166Y-54005437D01*
X146953557Y-53999773D01*
X146931613Y-53991921D01*
X146910543Y-53981956D01*
X146890552Y-53969974D01*
X146871832Y-53956090D01*
X146854562Y-53940438D01*
X146838910Y-53923168D01*
X146825026Y-53904448D01*
X146813044Y-53884457D01*
X146803079Y-53863387D01*
X146795227Y-53841443D01*
X146789563Y-53818834D01*
X146786144Y-53795779D01*
X146785000Y-53772500D01*
X146785000Y-53197500D01*
X146786144Y-53174221D01*
X146789563Y-53151166D01*
X146795227Y-53128557D01*
X146803079Y-53106613D01*
X146813044Y-53085543D01*
X146825026Y-53065552D01*
X146838910Y-53046832D01*
X146854562Y-53029562D01*
X146871832Y-53013910D01*
X146890552Y-53000026D01*
X146910543Y-52988044D01*
X146931613Y-52978079D01*
X146953557Y-52970227D01*
X146976166Y-52964563D01*
X146999221Y-52961144D01*
X147022500Y-52960000D01*
X147497500Y-52960000D01*
X147520779Y-52961144D01*
X147520779Y-52961144D01*
G37*
D13*
X147260000Y-53485000D03*
D12*
G36*
X147520779Y-54711144D02*
G01*
X147543834Y-54714563D01*
X147566443Y-54720227D01*
X147588387Y-54728079D01*
X147609457Y-54738044D01*
X147629448Y-54750026D01*
X147648168Y-54763910D01*
X147665438Y-54779562D01*
X147681090Y-54796832D01*
X147694974Y-54815552D01*
X147706956Y-54835543D01*
X147716921Y-54856613D01*
X147724773Y-54878557D01*
X147730437Y-54901166D01*
X147733856Y-54924221D01*
X147735000Y-54947500D01*
X147735000Y-55522500D01*
X147733856Y-55545779D01*
X147730437Y-55568834D01*
X147724773Y-55591443D01*
X147716921Y-55613387D01*
X147706956Y-55634457D01*
X147694974Y-55654448D01*
X147681090Y-55673168D01*
X147665438Y-55690438D01*
X147648168Y-55706090D01*
X147629448Y-55719974D01*
X147609457Y-55731956D01*
X147588387Y-55741921D01*
X147566443Y-55749773D01*
X147543834Y-55755437D01*
X147520779Y-55758856D01*
X147497500Y-55760000D01*
X147022500Y-55760000D01*
X146999221Y-55758856D01*
X146976166Y-55755437D01*
X146953557Y-55749773D01*
X146931613Y-55741921D01*
X146910543Y-55731956D01*
X146890552Y-55719974D01*
X146871832Y-55706090D01*
X146854562Y-55690438D01*
X146838910Y-55673168D01*
X146825026Y-55654448D01*
X146813044Y-55634457D01*
X146803079Y-55613387D01*
X146795227Y-55591443D01*
X146789563Y-55568834D01*
X146786144Y-55545779D01*
X146785000Y-55522500D01*
X146785000Y-54947500D01*
X146786144Y-54924221D01*
X146789563Y-54901166D01*
X146795227Y-54878557D01*
X146803079Y-54856613D01*
X146813044Y-54835543D01*
X146825026Y-54815552D01*
X146838910Y-54796832D01*
X146854562Y-54779562D01*
X146871832Y-54763910D01*
X146890552Y-54750026D01*
X146910543Y-54738044D01*
X146931613Y-54728079D01*
X146953557Y-54720227D01*
X146976166Y-54714563D01*
X146999221Y-54711144D01*
X147022500Y-54710000D01*
X147497500Y-54710000D01*
X147520779Y-54711144D01*
X147520779Y-54711144D01*
G37*
D13*
X147260000Y-55235000D03*
D12*
G36*
X108935779Y-45716144D02*
G01*
X108958834Y-45719563D01*
X108981443Y-45725227D01*
X109003387Y-45733079D01*
X109024457Y-45743044D01*
X109044448Y-45755026D01*
X109063168Y-45768910D01*
X109080438Y-45784562D01*
X109096090Y-45801832D01*
X109109974Y-45820552D01*
X109121956Y-45840543D01*
X109131921Y-45861613D01*
X109139773Y-45883557D01*
X109145437Y-45906166D01*
X109148856Y-45929221D01*
X109150000Y-45952500D01*
X109150000Y-46427500D01*
X109148856Y-46450779D01*
X109145437Y-46473834D01*
X109139773Y-46496443D01*
X109131921Y-46518387D01*
X109121956Y-46539457D01*
X109109974Y-46559448D01*
X109096090Y-46578168D01*
X109080438Y-46595438D01*
X109063168Y-46611090D01*
X109044448Y-46624974D01*
X109024457Y-46636956D01*
X109003387Y-46646921D01*
X108981443Y-46654773D01*
X108958834Y-46660437D01*
X108935779Y-46663856D01*
X108912500Y-46665000D01*
X108337500Y-46665000D01*
X108314221Y-46663856D01*
X108291166Y-46660437D01*
X108268557Y-46654773D01*
X108246613Y-46646921D01*
X108225543Y-46636956D01*
X108205552Y-46624974D01*
X108186832Y-46611090D01*
X108169562Y-46595438D01*
X108153910Y-46578168D01*
X108140026Y-46559448D01*
X108128044Y-46539457D01*
X108118079Y-46518387D01*
X108110227Y-46496443D01*
X108104563Y-46473834D01*
X108101144Y-46450779D01*
X108100000Y-46427500D01*
X108100000Y-45952500D01*
X108101144Y-45929221D01*
X108104563Y-45906166D01*
X108110227Y-45883557D01*
X108118079Y-45861613D01*
X108128044Y-45840543D01*
X108140026Y-45820552D01*
X108153910Y-45801832D01*
X108169562Y-45784562D01*
X108186832Y-45768910D01*
X108205552Y-45755026D01*
X108225543Y-45743044D01*
X108246613Y-45733079D01*
X108268557Y-45725227D01*
X108291166Y-45719563D01*
X108314221Y-45716144D01*
X108337500Y-45715000D01*
X108912500Y-45715000D01*
X108935779Y-45716144D01*
X108935779Y-45716144D01*
G37*
D13*
X108625000Y-46190000D03*
D12*
G36*
X110685779Y-45716144D02*
G01*
X110708834Y-45719563D01*
X110731443Y-45725227D01*
X110753387Y-45733079D01*
X110774457Y-45743044D01*
X110794448Y-45755026D01*
X110813168Y-45768910D01*
X110830438Y-45784562D01*
X110846090Y-45801832D01*
X110859974Y-45820552D01*
X110871956Y-45840543D01*
X110881921Y-45861613D01*
X110889773Y-45883557D01*
X110895437Y-45906166D01*
X110898856Y-45929221D01*
X110900000Y-45952500D01*
X110900000Y-46427500D01*
X110898856Y-46450779D01*
X110895437Y-46473834D01*
X110889773Y-46496443D01*
X110881921Y-46518387D01*
X110871956Y-46539457D01*
X110859974Y-46559448D01*
X110846090Y-46578168D01*
X110830438Y-46595438D01*
X110813168Y-46611090D01*
X110794448Y-46624974D01*
X110774457Y-46636956D01*
X110753387Y-46646921D01*
X110731443Y-46654773D01*
X110708834Y-46660437D01*
X110685779Y-46663856D01*
X110662500Y-46665000D01*
X110087500Y-46665000D01*
X110064221Y-46663856D01*
X110041166Y-46660437D01*
X110018557Y-46654773D01*
X109996613Y-46646921D01*
X109975543Y-46636956D01*
X109955552Y-46624974D01*
X109936832Y-46611090D01*
X109919562Y-46595438D01*
X109903910Y-46578168D01*
X109890026Y-46559448D01*
X109878044Y-46539457D01*
X109868079Y-46518387D01*
X109860227Y-46496443D01*
X109854563Y-46473834D01*
X109851144Y-46450779D01*
X109850000Y-46427500D01*
X109850000Y-45952500D01*
X109851144Y-45929221D01*
X109854563Y-45906166D01*
X109860227Y-45883557D01*
X109868079Y-45861613D01*
X109878044Y-45840543D01*
X109890026Y-45820552D01*
X109903910Y-45801832D01*
X109919562Y-45784562D01*
X109936832Y-45768910D01*
X109955552Y-45755026D01*
X109975543Y-45743044D01*
X109996613Y-45733079D01*
X110018557Y-45725227D01*
X110041166Y-45719563D01*
X110064221Y-45716144D01*
X110087500Y-45715000D01*
X110662500Y-45715000D01*
X110685779Y-45716144D01*
X110685779Y-45716144D01*
G37*
D13*
X110375000Y-46190000D03*
D12*
G36*
X108935779Y-47226144D02*
G01*
X108958834Y-47229563D01*
X108981443Y-47235227D01*
X109003387Y-47243079D01*
X109024457Y-47253044D01*
X109044448Y-47265026D01*
X109063168Y-47278910D01*
X109080438Y-47294562D01*
X109096090Y-47311832D01*
X109109974Y-47330552D01*
X109121956Y-47350543D01*
X109131921Y-47371613D01*
X109139773Y-47393557D01*
X109145437Y-47416166D01*
X109148856Y-47439221D01*
X109150000Y-47462500D01*
X109150000Y-47937500D01*
X109148856Y-47960779D01*
X109145437Y-47983834D01*
X109139773Y-48006443D01*
X109131921Y-48028387D01*
X109121956Y-48049457D01*
X109109974Y-48069448D01*
X109096090Y-48088168D01*
X109080438Y-48105438D01*
X109063168Y-48121090D01*
X109044448Y-48134974D01*
X109024457Y-48146956D01*
X109003387Y-48156921D01*
X108981443Y-48164773D01*
X108958834Y-48170437D01*
X108935779Y-48173856D01*
X108912500Y-48175000D01*
X108337500Y-48175000D01*
X108314221Y-48173856D01*
X108291166Y-48170437D01*
X108268557Y-48164773D01*
X108246613Y-48156921D01*
X108225543Y-48146956D01*
X108205552Y-48134974D01*
X108186832Y-48121090D01*
X108169562Y-48105438D01*
X108153910Y-48088168D01*
X108140026Y-48069448D01*
X108128044Y-48049457D01*
X108118079Y-48028387D01*
X108110227Y-48006443D01*
X108104563Y-47983834D01*
X108101144Y-47960779D01*
X108100000Y-47937500D01*
X108100000Y-47462500D01*
X108101144Y-47439221D01*
X108104563Y-47416166D01*
X108110227Y-47393557D01*
X108118079Y-47371613D01*
X108128044Y-47350543D01*
X108140026Y-47330552D01*
X108153910Y-47311832D01*
X108169562Y-47294562D01*
X108186832Y-47278910D01*
X108205552Y-47265026D01*
X108225543Y-47253044D01*
X108246613Y-47243079D01*
X108268557Y-47235227D01*
X108291166Y-47229563D01*
X108314221Y-47226144D01*
X108337500Y-47225000D01*
X108912500Y-47225000D01*
X108935779Y-47226144D01*
X108935779Y-47226144D01*
G37*
D13*
X108625000Y-47700000D03*
D12*
G36*
X110685779Y-47226144D02*
G01*
X110708834Y-47229563D01*
X110731443Y-47235227D01*
X110753387Y-47243079D01*
X110774457Y-47253044D01*
X110794448Y-47265026D01*
X110813168Y-47278910D01*
X110830438Y-47294562D01*
X110846090Y-47311832D01*
X110859974Y-47330552D01*
X110871956Y-47350543D01*
X110881921Y-47371613D01*
X110889773Y-47393557D01*
X110895437Y-47416166D01*
X110898856Y-47439221D01*
X110900000Y-47462500D01*
X110900000Y-47937500D01*
X110898856Y-47960779D01*
X110895437Y-47983834D01*
X110889773Y-48006443D01*
X110881921Y-48028387D01*
X110871956Y-48049457D01*
X110859974Y-48069448D01*
X110846090Y-48088168D01*
X110830438Y-48105438D01*
X110813168Y-48121090D01*
X110794448Y-48134974D01*
X110774457Y-48146956D01*
X110753387Y-48156921D01*
X110731443Y-48164773D01*
X110708834Y-48170437D01*
X110685779Y-48173856D01*
X110662500Y-48175000D01*
X110087500Y-48175000D01*
X110064221Y-48173856D01*
X110041166Y-48170437D01*
X110018557Y-48164773D01*
X109996613Y-48156921D01*
X109975543Y-48146956D01*
X109955552Y-48134974D01*
X109936832Y-48121090D01*
X109919562Y-48105438D01*
X109903910Y-48088168D01*
X109890026Y-48069448D01*
X109878044Y-48049457D01*
X109868079Y-48028387D01*
X109860227Y-48006443D01*
X109854563Y-47983834D01*
X109851144Y-47960779D01*
X109850000Y-47937500D01*
X109850000Y-47462500D01*
X109851144Y-47439221D01*
X109854563Y-47416166D01*
X109860227Y-47393557D01*
X109868079Y-47371613D01*
X109878044Y-47350543D01*
X109890026Y-47330552D01*
X109903910Y-47311832D01*
X109919562Y-47294562D01*
X109936832Y-47278910D01*
X109955552Y-47265026D01*
X109975543Y-47253044D01*
X109996613Y-47243079D01*
X110018557Y-47235227D01*
X110041166Y-47229563D01*
X110064221Y-47226144D01*
X110087500Y-47225000D01*
X110662500Y-47225000D01*
X110685779Y-47226144D01*
X110685779Y-47226144D01*
G37*
D13*
X110375000Y-47700000D03*
D12*
G36*
X116338779Y-44930744D02*
G01*
X116361834Y-44934163D01*
X116384443Y-44939827D01*
X116406387Y-44947679D01*
X116427457Y-44957644D01*
X116447448Y-44969626D01*
X116466168Y-44983510D01*
X116483438Y-44999162D01*
X116499090Y-45016432D01*
X116512974Y-45035152D01*
X116524956Y-45055143D01*
X116534921Y-45076213D01*
X116542773Y-45098157D01*
X116548437Y-45120766D01*
X116551856Y-45143821D01*
X116553000Y-45167100D01*
X116553000Y-45742100D01*
X116551856Y-45765379D01*
X116548437Y-45788434D01*
X116542773Y-45811043D01*
X116534921Y-45832987D01*
X116524956Y-45854057D01*
X116512974Y-45874048D01*
X116499090Y-45892768D01*
X116483438Y-45910038D01*
X116466168Y-45925690D01*
X116447448Y-45939574D01*
X116427457Y-45951556D01*
X116406387Y-45961521D01*
X116384443Y-45969373D01*
X116361834Y-45975037D01*
X116338779Y-45978456D01*
X116315500Y-45979600D01*
X115840500Y-45979600D01*
X115817221Y-45978456D01*
X115794166Y-45975037D01*
X115771557Y-45969373D01*
X115749613Y-45961521D01*
X115728543Y-45951556D01*
X115708552Y-45939574D01*
X115689832Y-45925690D01*
X115672562Y-45910038D01*
X115656910Y-45892768D01*
X115643026Y-45874048D01*
X115631044Y-45854057D01*
X115621079Y-45832987D01*
X115613227Y-45811043D01*
X115607563Y-45788434D01*
X115604144Y-45765379D01*
X115603000Y-45742100D01*
X115603000Y-45167100D01*
X115604144Y-45143821D01*
X115607563Y-45120766D01*
X115613227Y-45098157D01*
X115621079Y-45076213D01*
X115631044Y-45055143D01*
X115643026Y-45035152D01*
X115656910Y-45016432D01*
X115672562Y-44999162D01*
X115689832Y-44983510D01*
X115708552Y-44969626D01*
X115728543Y-44957644D01*
X115749613Y-44947679D01*
X115771557Y-44939827D01*
X115794166Y-44934163D01*
X115817221Y-44930744D01*
X115840500Y-44929600D01*
X116315500Y-44929600D01*
X116338779Y-44930744D01*
X116338779Y-44930744D01*
G37*
D13*
X116078000Y-45454600D03*
D12*
G36*
X116338779Y-46680744D02*
G01*
X116361834Y-46684163D01*
X116384443Y-46689827D01*
X116406387Y-46697679D01*
X116427457Y-46707644D01*
X116447448Y-46719626D01*
X116466168Y-46733510D01*
X116483438Y-46749162D01*
X116499090Y-46766432D01*
X116512974Y-46785152D01*
X116524956Y-46805143D01*
X116534921Y-46826213D01*
X116542773Y-46848157D01*
X116548437Y-46870766D01*
X116551856Y-46893821D01*
X116553000Y-46917100D01*
X116553000Y-47492100D01*
X116551856Y-47515379D01*
X116548437Y-47538434D01*
X116542773Y-47561043D01*
X116534921Y-47582987D01*
X116524956Y-47604057D01*
X116512974Y-47624048D01*
X116499090Y-47642768D01*
X116483438Y-47660038D01*
X116466168Y-47675690D01*
X116447448Y-47689574D01*
X116427457Y-47701556D01*
X116406387Y-47711521D01*
X116384443Y-47719373D01*
X116361834Y-47725037D01*
X116338779Y-47728456D01*
X116315500Y-47729600D01*
X115840500Y-47729600D01*
X115817221Y-47728456D01*
X115794166Y-47725037D01*
X115771557Y-47719373D01*
X115749613Y-47711521D01*
X115728543Y-47701556D01*
X115708552Y-47689574D01*
X115689832Y-47675690D01*
X115672562Y-47660038D01*
X115656910Y-47642768D01*
X115643026Y-47624048D01*
X115631044Y-47604057D01*
X115621079Y-47582987D01*
X115613227Y-47561043D01*
X115607563Y-47538434D01*
X115604144Y-47515379D01*
X115603000Y-47492100D01*
X115603000Y-46917100D01*
X115604144Y-46893821D01*
X115607563Y-46870766D01*
X115613227Y-46848157D01*
X115621079Y-46826213D01*
X115631044Y-46805143D01*
X115643026Y-46785152D01*
X115656910Y-46766432D01*
X115672562Y-46749162D01*
X115689832Y-46733510D01*
X115708552Y-46719626D01*
X115728543Y-46707644D01*
X115749613Y-46697679D01*
X115771557Y-46689827D01*
X115794166Y-46684163D01*
X115817221Y-46680744D01*
X115840500Y-46679600D01*
X116315500Y-46679600D01*
X116338779Y-46680744D01*
X116338779Y-46680744D01*
G37*
D13*
X116078000Y-47204600D03*
D12*
G36*
X113630779Y-50693944D02*
G01*
X113653834Y-50697363D01*
X113676443Y-50703027D01*
X113698387Y-50710879D01*
X113719457Y-50720844D01*
X113739448Y-50732826D01*
X113758168Y-50746710D01*
X113775438Y-50762362D01*
X113791090Y-50779632D01*
X113804974Y-50798352D01*
X113816956Y-50818343D01*
X113826921Y-50839413D01*
X113834773Y-50861357D01*
X113840437Y-50883966D01*
X113843856Y-50907021D01*
X113845000Y-50930300D01*
X113845000Y-51505300D01*
X113843856Y-51528579D01*
X113840437Y-51551634D01*
X113834773Y-51574243D01*
X113826921Y-51596187D01*
X113816956Y-51617257D01*
X113804974Y-51637248D01*
X113791090Y-51655968D01*
X113775438Y-51673238D01*
X113758168Y-51688890D01*
X113739448Y-51702774D01*
X113719457Y-51714756D01*
X113698387Y-51724721D01*
X113676443Y-51732573D01*
X113653834Y-51738237D01*
X113630779Y-51741656D01*
X113607500Y-51742800D01*
X113132500Y-51742800D01*
X113109221Y-51741656D01*
X113086166Y-51738237D01*
X113063557Y-51732573D01*
X113041613Y-51724721D01*
X113020543Y-51714756D01*
X113000552Y-51702774D01*
X112981832Y-51688890D01*
X112964562Y-51673238D01*
X112948910Y-51655968D01*
X112935026Y-51637248D01*
X112923044Y-51617257D01*
X112913079Y-51596187D01*
X112905227Y-51574243D01*
X112899563Y-51551634D01*
X112896144Y-51528579D01*
X112895000Y-51505300D01*
X112895000Y-50930300D01*
X112896144Y-50907021D01*
X112899563Y-50883966D01*
X112905227Y-50861357D01*
X112913079Y-50839413D01*
X112923044Y-50818343D01*
X112935026Y-50798352D01*
X112948910Y-50779632D01*
X112964562Y-50762362D01*
X112981832Y-50746710D01*
X113000552Y-50732826D01*
X113020543Y-50720844D01*
X113041613Y-50710879D01*
X113063557Y-50703027D01*
X113086166Y-50697363D01*
X113109221Y-50693944D01*
X113132500Y-50692800D01*
X113607500Y-50692800D01*
X113630779Y-50693944D01*
X113630779Y-50693944D01*
G37*
D13*
X113370000Y-51217800D03*
D12*
G36*
X113630779Y-48943944D02*
G01*
X113653834Y-48947363D01*
X113676443Y-48953027D01*
X113698387Y-48960879D01*
X113719457Y-48970844D01*
X113739448Y-48982826D01*
X113758168Y-48996710D01*
X113775438Y-49012362D01*
X113791090Y-49029632D01*
X113804974Y-49048352D01*
X113816956Y-49068343D01*
X113826921Y-49089413D01*
X113834773Y-49111357D01*
X113840437Y-49133966D01*
X113843856Y-49157021D01*
X113845000Y-49180300D01*
X113845000Y-49755300D01*
X113843856Y-49778579D01*
X113840437Y-49801634D01*
X113834773Y-49824243D01*
X113826921Y-49846187D01*
X113816956Y-49867257D01*
X113804974Y-49887248D01*
X113791090Y-49905968D01*
X113775438Y-49923238D01*
X113758168Y-49938890D01*
X113739448Y-49952774D01*
X113719457Y-49964756D01*
X113698387Y-49974721D01*
X113676443Y-49982573D01*
X113653834Y-49988237D01*
X113630779Y-49991656D01*
X113607500Y-49992800D01*
X113132500Y-49992800D01*
X113109221Y-49991656D01*
X113086166Y-49988237D01*
X113063557Y-49982573D01*
X113041613Y-49974721D01*
X113020543Y-49964756D01*
X113000552Y-49952774D01*
X112981832Y-49938890D01*
X112964562Y-49923238D01*
X112948910Y-49905968D01*
X112935026Y-49887248D01*
X112923044Y-49867257D01*
X112913079Y-49846187D01*
X112905227Y-49824243D01*
X112899563Y-49801634D01*
X112896144Y-49778579D01*
X112895000Y-49755300D01*
X112895000Y-49180300D01*
X112896144Y-49157021D01*
X112899563Y-49133966D01*
X112905227Y-49111357D01*
X112913079Y-49089413D01*
X112923044Y-49068343D01*
X112935026Y-49048352D01*
X112948910Y-49029632D01*
X112964562Y-49012362D01*
X112981832Y-48996710D01*
X113000552Y-48982826D01*
X113020543Y-48970844D01*
X113041613Y-48960879D01*
X113063557Y-48953027D01*
X113086166Y-48947363D01*
X113109221Y-48943944D01*
X113132500Y-48942800D01*
X113607500Y-48942800D01*
X113630779Y-48943944D01*
X113630779Y-48943944D01*
G37*
D13*
X113370000Y-49467800D03*
D12*
G36*
X108640779Y-53801144D02*
G01*
X108663834Y-53804563D01*
X108686443Y-53810227D01*
X108708387Y-53818079D01*
X108729457Y-53828044D01*
X108749448Y-53840026D01*
X108768168Y-53853910D01*
X108785438Y-53869562D01*
X108801090Y-53886832D01*
X108814974Y-53905552D01*
X108826956Y-53925543D01*
X108836921Y-53946613D01*
X108844773Y-53968557D01*
X108850437Y-53991166D01*
X108853856Y-54014221D01*
X108855000Y-54037500D01*
X108855000Y-54612500D01*
X108853856Y-54635779D01*
X108850437Y-54658834D01*
X108844773Y-54681443D01*
X108836921Y-54703387D01*
X108826956Y-54724457D01*
X108814974Y-54744448D01*
X108801090Y-54763168D01*
X108785438Y-54780438D01*
X108768168Y-54796090D01*
X108749448Y-54809974D01*
X108729457Y-54821956D01*
X108708387Y-54831921D01*
X108686443Y-54839773D01*
X108663834Y-54845437D01*
X108640779Y-54848856D01*
X108617500Y-54850000D01*
X108142500Y-54850000D01*
X108119221Y-54848856D01*
X108096166Y-54845437D01*
X108073557Y-54839773D01*
X108051613Y-54831921D01*
X108030543Y-54821956D01*
X108010552Y-54809974D01*
X107991832Y-54796090D01*
X107974562Y-54780438D01*
X107958910Y-54763168D01*
X107945026Y-54744448D01*
X107933044Y-54724457D01*
X107923079Y-54703387D01*
X107915227Y-54681443D01*
X107909563Y-54658834D01*
X107906144Y-54635779D01*
X107905000Y-54612500D01*
X107905000Y-54037500D01*
X107906144Y-54014221D01*
X107909563Y-53991166D01*
X107915227Y-53968557D01*
X107923079Y-53946613D01*
X107933044Y-53925543D01*
X107945026Y-53905552D01*
X107958910Y-53886832D01*
X107974562Y-53869562D01*
X107991832Y-53853910D01*
X108010552Y-53840026D01*
X108030543Y-53828044D01*
X108051613Y-53818079D01*
X108073557Y-53810227D01*
X108096166Y-53804563D01*
X108119221Y-53801144D01*
X108142500Y-53800000D01*
X108617500Y-53800000D01*
X108640779Y-53801144D01*
X108640779Y-53801144D01*
G37*
D13*
X108380000Y-54325000D03*
D12*
G36*
X108640779Y-55551144D02*
G01*
X108663834Y-55554563D01*
X108686443Y-55560227D01*
X108708387Y-55568079D01*
X108729457Y-55578044D01*
X108749448Y-55590026D01*
X108768168Y-55603910D01*
X108785438Y-55619562D01*
X108801090Y-55636832D01*
X108814974Y-55655552D01*
X108826956Y-55675543D01*
X108836921Y-55696613D01*
X108844773Y-55718557D01*
X108850437Y-55741166D01*
X108853856Y-55764221D01*
X108855000Y-55787500D01*
X108855000Y-56362500D01*
X108853856Y-56385779D01*
X108850437Y-56408834D01*
X108844773Y-56431443D01*
X108836921Y-56453387D01*
X108826956Y-56474457D01*
X108814974Y-56494448D01*
X108801090Y-56513168D01*
X108785438Y-56530438D01*
X108768168Y-56546090D01*
X108749448Y-56559974D01*
X108729457Y-56571956D01*
X108708387Y-56581921D01*
X108686443Y-56589773D01*
X108663834Y-56595437D01*
X108640779Y-56598856D01*
X108617500Y-56600000D01*
X108142500Y-56600000D01*
X108119221Y-56598856D01*
X108096166Y-56595437D01*
X108073557Y-56589773D01*
X108051613Y-56581921D01*
X108030543Y-56571956D01*
X108010552Y-56559974D01*
X107991832Y-56546090D01*
X107974562Y-56530438D01*
X107958910Y-56513168D01*
X107945026Y-56494448D01*
X107933044Y-56474457D01*
X107923079Y-56453387D01*
X107915227Y-56431443D01*
X107909563Y-56408834D01*
X107906144Y-56385779D01*
X107905000Y-56362500D01*
X107905000Y-55787500D01*
X107906144Y-55764221D01*
X107909563Y-55741166D01*
X107915227Y-55718557D01*
X107923079Y-55696613D01*
X107933044Y-55675543D01*
X107945026Y-55655552D01*
X107958910Y-55636832D01*
X107974562Y-55619562D01*
X107991832Y-55603910D01*
X108010552Y-55590026D01*
X108030543Y-55578044D01*
X108051613Y-55568079D01*
X108073557Y-55560227D01*
X108096166Y-55554563D01*
X108119221Y-55551144D01*
X108142500Y-55550000D01*
X108617500Y-55550000D01*
X108640779Y-55551144D01*
X108640779Y-55551144D01*
G37*
D13*
X108380000Y-56075000D03*
D12*
G36*
X154070779Y-58381144D02*
G01*
X154093834Y-58384563D01*
X154116443Y-58390227D01*
X154138387Y-58398079D01*
X154159457Y-58408044D01*
X154179448Y-58420026D01*
X154198168Y-58433910D01*
X154215438Y-58449562D01*
X154231090Y-58466832D01*
X154244974Y-58485552D01*
X154256956Y-58505543D01*
X154266921Y-58526613D01*
X154274773Y-58548557D01*
X154280437Y-58571166D01*
X154283856Y-58594221D01*
X154285000Y-58617500D01*
X154285000Y-59192500D01*
X154283856Y-59215779D01*
X154280437Y-59238834D01*
X154274773Y-59261443D01*
X154266921Y-59283387D01*
X154256956Y-59304457D01*
X154244974Y-59324448D01*
X154231090Y-59343168D01*
X154215438Y-59360438D01*
X154198168Y-59376090D01*
X154179448Y-59389974D01*
X154159457Y-59401956D01*
X154138387Y-59411921D01*
X154116443Y-59419773D01*
X154093834Y-59425437D01*
X154070779Y-59428856D01*
X154047500Y-59430000D01*
X153572500Y-59430000D01*
X153549221Y-59428856D01*
X153526166Y-59425437D01*
X153503557Y-59419773D01*
X153481613Y-59411921D01*
X153460543Y-59401956D01*
X153440552Y-59389974D01*
X153421832Y-59376090D01*
X153404562Y-59360438D01*
X153388910Y-59343168D01*
X153375026Y-59324448D01*
X153363044Y-59304457D01*
X153353079Y-59283387D01*
X153345227Y-59261443D01*
X153339563Y-59238834D01*
X153336144Y-59215779D01*
X153335000Y-59192500D01*
X153335000Y-58617500D01*
X153336144Y-58594221D01*
X153339563Y-58571166D01*
X153345227Y-58548557D01*
X153353079Y-58526613D01*
X153363044Y-58505543D01*
X153375026Y-58485552D01*
X153388910Y-58466832D01*
X153404562Y-58449562D01*
X153421832Y-58433910D01*
X153440552Y-58420026D01*
X153460543Y-58408044D01*
X153481613Y-58398079D01*
X153503557Y-58390227D01*
X153526166Y-58384563D01*
X153549221Y-58381144D01*
X153572500Y-58380000D01*
X154047500Y-58380000D01*
X154070779Y-58381144D01*
X154070779Y-58381144D01*
G37*
D13*
X153810000Y-58905000D03*
D12*
G36*
X154070779Y-60131144D02*
G01*
X154093834Y-60134563D01*
X154116443Y-60140227D01*
X154138387Y-60148079D01*
X154159457Y-60158044D01*
X154179448Y-60170026D01*
X154198168Y-60183910D01*
X154215438Y-60199562D01*
X154231090Y-60216832D01*
X154244974Y-60235552D01*
X154256956Y-60255543D01*
X154266921Y-60276613D01*
X154274773Y-60298557D01*
X154280437Y-60321166D01*
X154283856Y-60344221D01*
X154285000Y-60367500D01*
X154285000Y-60942500D01*
X154283856Y-60965779D01*
X154280437Y-60988834D01*
X154274773Y-61011443D01*
X154266921Y-61033387D01*
X154256956Y-61054457D01*
X154244974Y-61074448D01*
X154231090Y-61093168D01*
X154215438Y-61110438D01*
X154198168Y-61126090D01*
X154179448Y-61139974D01*
X154159457Y-61151956D01*
X154138387Y-61161921D01*
X154116443Y-61169773D01*
X154093834Y-61175437D01*
X154070779Y-61178856D01*
X154047500Y-61180000D01*
X153572500Y-61180000D01*
X153549221Y-61178856D01*
X153526166Y-61175437D01*
X153503557Y-61169773D01*
X153481613Y-61161921D01*
X153460543Y-61151956D01*
X153440552Y-61139974D01*
X153421832Y-61126090D01*
X153404562Y-61110438D01*
X153388910Y-61093168D01*
X153375026Y-61074448D01*
X153363044Y-61054457D01*
X153353079Y-61033387D01*
X153345227Y-61011443D01*
X153339563Y-60988834D01*
X153336144Y-60965779D01*
X153335000Y-60942500D01*
X153335000Y-60367500D01*
X153336144Y-60344221D01*
X153339563Y-60321166D01*
X153345227Y-60298557D01*
X153353079Y-60276613D01*
X153363044Y-60255543D01*
X153375026Y-60235552D01*
X153388910Y-60216832D01*
X153404562Y-60199562D01*
X153421832Y-60183910D01*
X153440552Y-60170026D01*
X153460543Y-60158044D01*
X153481613Y-60148079D01*
X153503557Y-60140227D01*
X153526166Y-60134563D01*
X153549221Y-60131144D01*
X153572500Y-60130000D01*
X154047500Y-60130000D01*
X154070779Y-60131144D01*
X154070779Y-60131144D01*
G37*
D13*
X153810000Y-60655000D03*
D12*
G36*
X137700779Y-76891144D02*
G01*
X137723834Y-76894563D01*
X137746443Y-76900227D01*
X137768387Y-76908079D01*
X137789457Y-76918044D01*
X137809448Y-76930026D01*
X137828168Y-76943910D01*
X137845438Y-76959562D01*
X137861090Y-76976832D01*
X137874974Y-76995552D01*
X137886956Y-77015543D01*
X137896921Y-77036613D01*
X137904773Y-77058557D01*
X137910437Y-77081166D01*
X137913856Y-77104221D01*
X137915000Y-77127500D01*
X137915000Y-77702500D01*
X137913856Y-77725779D01*
X137910437Y-77748834D01*
X137904773Y-77771443D01*
X137896921Y-77793387D01*
X137886956Y-77814457D01*
X137874974Y-77834448D01*
X137861090Y-77853168D01*
X137845438Y-77870438D01*
X137828168Y-77886090D01*
X137809448Y-77899974D01*
X137789457Y-77911956D01*
X137768387Y-77921921D01*
X137746443Y-77929773D01*
X137723834Y-77935437D01*
X137700779Y-77938856D01*
X137677500Y-77940000D01*
X137202500Y-77940000D01*
X137179221Y-77938856D01*
X137156166Y-77935437D01*
X137133557Y-77929773D01*
X137111613Y-77921921D01*
X137090543Y-77911956D01*
X137070552Y-77899974D01*
X137051832Y-77886090D01*
X137034562Y-77870438D01*
X137018910Y-77853168D01*
X137005026Y-77834448D01*
X136993044Y-77814457D01*
X136983079Y-77793387D01*
X136975227Y-77771443D01*
X136969563Y-77748834D01*
X136966144Y-77725779D01*
X136965000Y-77702500D01*
X136965000Y-77127500D01*
X136966144Y-77104221D01*
X136969563Y-77081166D01*
X136975227Y-77058557D01*
X136983079Y-77036613D01*
X136993044Y-77015543D01*
X137005026Y-76995552D01*
X137018910Y-76976832D01*
X137034562Y-76959562D01*
X137051832Y-76943910D01*
X137070552Y-76930026D01*
X137090543Y-76918044D01*
X137111613Y-76908079D01*
X137133557Y-76900227D01*
X137156166Y-76894563D01*
X137179221Y-76891144D01*
X137202500Y-76890000D01*
X137677500Y-76890000D01*
X137700779Y-76891144D01*
X137700779Y-76891144D01*
G37*
D13*
X137440000Y-77415000D03*
D12*
G36*
X137700779Y-78641144D02*
G01*
X137723834Y-78644563D01*
X137746443Y-78650227D01*
X137768387Y-78658079D01*
X137789457Y-78668044D01*
X137809448Y-78680026D01*
X137828168Y-78693910D01*
X137845438Y-78709562D01*
X137861090Y-78726832D01*
X137874974Y-78745552D01*
X137886956Y-78765543D01*
X137896921Y-78786613D01*
X137904773Y-78808557D01*
X137910437Y-78831166D01*
X137913856Y-78854221D01*
X137915000Y-78877500D01*
X137915000Y-79452500D01*
X137913856Y-79475779D01*
X137910437Y-79498834D01*
X137904773Y-79521443D01*
X137896921Y-79543387D01*
X137886956Y-79564457D01*
X137874974Y-79584448D01*
X137861090Y-79603168D01*
X137845438Y-79620438D01*
X137828168Y-79636090D01*
X137809448Y-79649974D01*
X137789457Y-79661956D01*
X137768387Y-79671921D01*
X137746443Y-79679773D01*
X137723834Y-79685437D01*
X137700779Y-79688856D01*
X137677500Y-79690000D01*
X137202500Y-79690000D01*
X137179221Y-79688856D01*
X137156166Y-79685437D01*
X137133557Y-79679773D01*
X137111613Y-79671921D01*
X137090543Y-79661956D01*
X137070552Y-79649974D01*
X137051832Y-79636090D01*
X137034562Y-79620438D01*
X137018910Y-79603168D01*
X137005026Y-79584448D01*
X136993044Y-79564457D01*
X136983079Y-79543387D01*
X136975227Y-79521443D01*
X136969563Y-79498834D01*
X136966144Y-79475779D01*
X136965000Y-79452500D01*
X136965000Y-78877500D01*
X136966144Y-78854221D01*
X136969563Y-78831166D01*
X136975227Y-78808557D01*
X136983079Y-78786613D01*
X136993044Y-78765543D01*
X137005026Y-78745552D01*
X137018910Y-78726832D01*
X137034562Y-78709562D01*
X137051832Y-78693910D01*
X137070552Y-78680026D01*
X137090543Y-78668044D01*
X137111613Y-78658079D01*
X137133557Y-78650227D01*
X137156166Y-78644563D01*
X137179221Y-78641144D01*
X137202500Y-78640000D01*
X137677500Y-78640000D01*
X137700779Y-78641144D01*
X137700779Y-78641144D01*
G37*
D13*
X137440000Y-79165000D03*
D12*
G36*
X145040779Y-58151144D02*
G01*
X145063834Y-58154563D01*
X145086443Y-58160227D01*
X145108387Y-58168079D01*
X145129457Y-58178044D01*
X145149448Y-58190026D01*
X145168168Y-58203910D01*
X145185438Y-58219562D01*
X145201090Y-58236832D01*
X145214974Y-58255552D01*
X145226956Y-58275543D01*
X145236921Y-58296613D01*
X145244773Y-58318557D01*
X145250437Y-58341166D01*
X145253856Y-58364221D01*
X145255000Y-58387500D01*
X145255000Y-58962500D01*
X145253856Y-58985779D01*
X145250437Y-59008834D01*
X145244773Y-59031443D01*
X145236921Y-59053387D01*
X145226956Y-59074457D01*
X145214974Y-59094448D01*
X145201090Y-59113168D01*
X145185438Y-59130438D01*
X145168168Y-59146090D01*
X145149448Y-59159974D01*
X145129457Y-59171956D01*
X145108387Y-59181921D01*
X145086443Y-59189773D01*
X145063834Y-59195437D01*
X145040779Y-59198856D01*
X145017500Y-59200000D01*
X144542500Y-59200000D01*
X144519221Y-59198856D01*
X144496166Y-59195437D01*
X144473557Y-59189773D01*
X144451613Y-59181921D01*
X144430543Y-59171956D01*
X144410552Y-59159974D01*
X144391832Y-59146090D01*
X144374562Y-59130438D01*
X144358910Y-59113168D01*
X144345026Y-59094448D01*
X144333044Y-59074457D01*
X144323079Y-59053387D01*
X144315227Y-59031443D01*
X144309563Y-59008834D01*
X144306144Y-58985779D01*
X144305000Y-58962500D01*
X144305000Y-58387500D01*
X144306144Y-58364221D01*
X144309563Y-58341166D01*
X144315227Y-58318557D01*
X144323079Y-58296613D01*
X144333044Y-58275543D01*
X144345026Y-58255552D01*
X144358910Y-58236832D01*
X144374562Y-58219562D01*
X144391832Y-58203910D01*
X144410552Y-58190026D01*
X144430543Y-58178044D01*
X144451613Y-58168079D01*
X144473557Y-58160227D01*
X144496166Y-58154563D01*
X144519221Y-58151144D01*
X144542500Y-58150000D01*
X145017500Y-58150000D01*
X145040779Y-58151144D01*
X145040779Y-58151144D01*
G37*
D13*
X144780000Y-58675000D03*
D12*
G36*
X145040779Y-59901144D02*
G01*
X145063834Y-59904563D01*
X145086443Y-59910227D01*
X145108387Y-59918079D01*
X145129457Y-59928044D01*
X145149448Y-59940026D01*
X145168168Y-59953910D01*
X145185438Y-59969562D01*
X145201090Y-59986832D01*
X145214974Y-60005552D01*
X145226956Y-60025543D01*
X145236921Y-60046613D01*
X145244773Y-60068557D01*
X145250437Y-60091166D01*
X145253856Y-60114221D01*
X145255000Y-60137500D01*
X145255000Y-60712500D01*
X145253856Y-60735779D01*
X145250437Y-60758834D01*
X145244773Y-60781443D01*
X145236921Y-60803387D01*
X145226956Y-60824457D01*
X145214974Y-60844448D01*
X145201090Y-60863168D01*
X145185438Y-60880438D01*
X145168168Y-60896090D01*
X145149448Y-60909974D01*
X145129457Y-60921956D01*
X145108387Y-60931921D01*
X145086443Y-60939773D01*
X145063834Y-60945437D01*
X145040779Y-60948856D01*
X145017500Y-60950000D01*
X144542500Y-60950000D01*
X144519221Y-60948856D01*
X144496166Y-60945437D01*
X144473557Y-60939773D01*
X144451613Y-60931921D01*
X144430543Y-60921956D01*
X144410552Y-60909974D01*
X144391832Y-60896090D01*
X144374562Y-60880438D01*
X144358910Y-60863168D01*
X144345026Y-60844448D01*
X144333044Y-60824457D01*
X144323079Y-60803387D01*
X144315227Y-60781443D01*
X144309563Y-60758834D01*
X144306144Y-60735779D01*
X144305000Y-60712500D01*
X144305000Y-60137500D01*
X144306144Y-60114221D01*
X144309563Y-60091166D01*
X144315227Y-60068557D01*
X144323079Y-60046613D01*
X144333044Y-60025543D01*
X144345026Y-60005552D01*
X144358910Y-59986832D01*
X144374562Y-59969562D01*
X144391832Y-59953910D01*
X144410552Y-59940026D01*
X144430543Y-59928044D01*
X144451613Y-59918079D01*
X144473557Y-59910227D01*
X144496166Y-59904563D01*
X144519221Y-59901144D01*
X144542500Y-59900000D01*
X145017500Y-59900000D01*
X145040779Y-59901144D01*
X145040779Y-59901144D01*
G37*
D13*
X144780000Y-60425000D03*
D12*
G36*
X158610779Y-61121144D02*
G01*
X158633834Y-61124563D01*
X158656443Y-61130227D01*
X158678387Y-61138079D01*
X158699457Y-61148044D01*
X158719448Y-61160026D01*
X158738168Y-61173910D01*
X158755438Y-61189562D01*
X158771090Y-61206832D01*
X158784974Y-61225552D01*
X158796956Y-61245543D01*
X158806921Y-61266613D01*
X158814773Y-61288557D01*
X158820437Y-61311166D01*
X158823856Y-61334221D01*
X158825000Y-61357500D01*
X158825000Y-61932500D01*
X158823856Y-61955779D01*
X158820437Y-61978834D01*
X158814773Y-62001443D01*
X158806921Y-62023387D01*
X158796956Y-62044457D01*
X158784974Y-62064448D01*
X158771090Y-62083168D01*
X158755438Y-62100438D01*
X158738168Y-62116090D01*
X158719448Y-62129974D01*
X158699457Y-62141956D01*
X158678387Y-62151921D01*
X158656443Y-62159773D01*
X158633834Y-62165437D01*
X158610779Y-62168856D01*
X158587500Y-62170000D01*
X158112500Y-62170000D01*
X158089221Y-62168856D01*
X158066166Y-62165437D01*
X158043557Y-62159773D01*
X158021613Y-62151921D01*
X158000543Y-62141956D01*
X157980552Y-62129974D01*
X157961832Y-62116090D01*
X157944562Y-62100438D01*
X157928910Y-62083168D01*
X157915026Y-62064448D01*
X157903044Y-62044457D01*
X157893079Y-62023387D01*
X157885227Y-62001443D01*
X157879563Y-61978834D01*
X157876144Y-61955779D01*
X157875000Y-61932500D01*
X157875000Y-61357500D01*
X157876144Y-61334221D01*
X157879563Y-61311166D01*
X157885227Y-61288557D01*
X157893079Y-61266613D01*
X157903044Y-61245543D01*
X157915026Y-61225552D01*
X157928910Y-61206832D01*
X157944562Y-61189562D01*
X157961832Y-61173910D01*
X157980552Y-61160026D01*
X158000543Y-61148044D01*
X158021613Y-61138079D01*
X158043557Y-61130227D01*
X158066166Y-61124563D01*
X158089221Y-61121144D01*
X158112500Y-61120000D01*
X158587500Y-61120000D01*
X158610779Y-61121144D01*
X158610779Y-61121144D01*
G37*
D13*
X158350000Y-61645000D03*
D12*
G36*
X158610779Y-59371144D02*
G01*
X158633834Y-59374563D01*
X158656443Y-59380227D01*
X158678387Y-59388079D01*
X158699457Y-59398044D01*
X158719448Y-59410026D01*
X158738168Y-59423910D01*
X158755438Y-59439562D01*
X158771090Y-59456832D01*
X158784974Y-59475552D01*
X158796956Y-59495543D01*
X158806921Y-59516613D01*
X158814773Y-59538557D01*
X158820437Y-59561166D01*
X158823856Y-59584221D01*
X158825000Y-59607500D01*
X158825000Y-60182500D01*
X158823856Y-60205779D01*
X158820437Y-60228834D01*
X158814773Y-60251443D01*
X158806921Y-60273387D01*
X158796956Y-60294457D01*
X158784974Y-60314448D01*
X158771090Y-60333168D01*
X158755438Y-60350438D01*
X158738168Y-60366090D01*
X158719448Y-60379974D01*
X158699457Y-60391956D01*
X158678387Y-60401921D01*
X158656443Y-60409773D01*
X158633834Y-60415437D01*
X158610779Y-60418856D01*
X158587500Y-60420000D01*
X158112500Y-60420000D01*
X158089221Y-60418856D01*
X158066166Y-60415437D01*
X158043557Y-60409773D01*
X158021613Y-60401921D01*
X158000543Y-60391956D01*
X157980552Y-60379974D01*
X157961832Y-60366090D01*
X157944562Y-60350438D01*
X157928910Y-60333168D01*
X157915026Y-60314448D01*
X157903044Y-60294457D01*
X157893079Y-60273387D01*
X157885227Y-60251443D01*
X157879563Y-60228834D01*
X157876144Y-60205779D01*
X157875000Y-60182500D01*
X157875000Y-59607500D01*
X157876144Y-59584221D01*
X157879563Y-59561166D01*
X157885227Y-59538557D01*
X157893079Y-59516613D01*
X157903044Y-59495543D01*
X157915026Y-59475552D01*
X157928910Y-59456832D01*
X157944562Y-59439562D01*
X157961832Y-59423910D01*
X157980552Y-59410026D01*
X158000543Y-59398044D01*
X158021613Y-59388079D01*
X158043557Y-59380227D01*
X158066166Y-59374563D01*
X158089221Y-59371144D01*
X158112500Y-59370000D01*
X158587500Y-59370000D01*
X158610779Y-59371144D01*
X158610779Y-59371144D01*
G37*
D13*
X158350000Y-59895000D03*
D16*
X205486000Y-56642000D03*
D17*
X202946000Y-56642000D03*
X204216000Y-56642000D03*
D18*
X208131000Y-41021000D03*
X202681000Y-41021000D03*
D19*
X197231000Y-41021000D03*
D18*
X239627000Y-41021000D03*
X234177000Y-41021000D03*
D19*
X228727000Y-41021000D03*
D20*
X196723000Y-56515000D03*
X194183000Y-56515000D03*
D21*
X191643000Y-56515000D03*
D20*
X233553000Y-51562000D03*
X231013000Y-51562000D03*
D21*
X228473000Y-51562000D03*
D20*
X237363000Y-52324000D03*
X237363000Y-49784000D03*
D21*
X237363000Y-47244000D03*
D16*
X192659000Y-62484000D03*
D17*
X190119000Y-62484000D03*
X191389000Y-62484000D03*
D22*
X232156000Y-61722000D03*
D23*
X232156000Y-59182000D03*
X232156000Y-60452000D03*
D22*
X236220000Y-59182000D03*
D23*
X236220000Y-61722000D03*
X236220000Y-60452000D03*
D16*
X125390000Y-57250000D03*
D17*
X122850000Y-57250000D03*
X124120000Y-57250000D03*
D18*
X128790000Y-40030000D03*
X123340000Y-40030000D03*
D19*
X117890000Y-40030000D03*
D18*
X160160000Y-40040000D03*
X154710000Y-40040000D03*
D19*
X149260000Y-40040000D03*
D20*
X117650000Y-55740000D03*
X115110000Y-55740000D03*
D21*
X112570000Y-55740000D03*
D20*
X154370000Y-50560000D03*
X151830000Y-50560000D03*
D21*
X149290000Y-50560000D03*
D20*
X158060000Y-52620000D03*
X158060000Y-50080000D03*
D21*
X158060000Y-47540000D03*
D16*
X112130000Y-62100000D03*
D17*
X109590000Y-62100000D03*
X110860000Y-62100000D03*
D22*
X151700000Y-60950000D03*
D23*
X151700000Y-58410000D03*
X151700000Y-59680000D03*
D22*
X155930000Y-58390000D03*
D23*
X155930000Y-60930000D03*
X155930000Y-59660000D03*
D24*
X183261000Y-61783000D03*
X183261000Y-56783000D03*
X183261000Y-41783000D03*
X183261000Y-46783000D03*
X243586000Y-67625000D03*
X243586000Y-62625000D03*
X243586000Y-47625000D03*
X243586000Y-52625000D03*
X103410000Y-60720000D03*
X103410000Y-55720000D03*
X103410000Y-40720000D03*
X103410000Y-45720000D03*
X164270000Y-66680000D03*
X164270000Y-61680000D03*
X164270000Y-46680000D03*
X164270000Y-51680000D03*
D25*
X190754000Y-51943000D03*
D21*
X188214000Y-51943000D03*
D25*
X111010000Y-50700000D03*
D21*
X108470000Y-50700000D03*
D26*
X218440000Y-46402000D03*
D27*
X218440000Y-41402000D03*
D26*
X252730000Y-50847000D03*
D27*
X252730000Y-45847000D03*
D28*
X189738000Y-40085000D03*
X189738000Y-45085000D03*
X253920000Y-56515000D03*
X248920000Y-56515000D03*
X238633000Y-79803000D03*
X238633000Y-74803000D03*
X195406000Y-60071000D03*
X200406000Y-60071000D03*
D26*
X198962000Y-78359000D03*
D27*
X203962000Y-78359000D03*
D28*
X229569000Y-55118000D03*
X234569000Y-55118000D03*
D26*
X204009000Y-67564000D03*
D27*
X199009000Y-67564000D03*
D28*
X238680000Y-65405000D03*
X233680000Y-65405000D03*
X234569000Y-69247000D03*
D29*
X234569000Y-71247000D03*
D26*
X139030000Y-45380000D03*
D27*
X139030000Y-40380000D03*
D26*
X173770000Y-49510000D03*
D27*
X173770000Y-44510000D03*
D28*
X110080000Y-38980000D03*
X110080000Y-43980000D03*
X174890000Y-55210000D03*
X169890000Y-55210000D03*
X159680000Y-79770000D03*
X159680000Y-74770000D03*
X114870000Y-59450000D03*
X119870000Y-59450000D03*
D26*
X119320000Y-77810000D03*
D27*
X124320000Y-77810000D03*
D28*
X150110000Y-54560000D03*
X155110000Y-54560000D03*
D26*
X124330000Y-66910000D03*
D27*
X119330000Y-66910000D03*
D28*
X157360000Y-64970000D03*
X152360000Y-64970000D03*
X154530000Y-68910000D03*
D29*
X154530000Y-70910000D03*
D30*
X154442400Y-78840000D03*
D31*
X150480000Y-78840000D03*
D32*
X168630000Y-76662400D03*
D33*
X168630000Y-72700000D03*
D30*
X109753400Y-72771000D03*
D31*
X105791000Y-72771000D03*
X170740000Y-63730000D03*
D30*
X174702400Y-63730000D03*
D31*
X187579000Y-73787000D03*
D30*
X183616600Y-73787000D03*
X253898400Y-65024000D03*
D31*
X249936000Y-65024000D03*
D32*
X247015000Y-77368400D03*
D33*
X247015000Y-73406000D03*
D31*
X229489000Y-79121000D03*
D30*
X233451400Y-79121000D03*
D12*
G36*
X151276979Y-74506944D02*
G01*
X151300034Y-74510363D01*
X151322643Y-74516027D01*
X151344587Y-74523879D01*
X151365657Y-74533844D01*
X151385648Y-74545826D01*
X151404368Y-74559710D01*
X151421638Y-74575362D01*
X151437290Y-74592632D01*
X151451174Y-74611352D01*
X151463156Y-74631343D01*
X151473121Y-74652413D01*
X151480973Y-74674357D01*
X151486637Y-74696966D01*
X151490056Y-74720021D01*
X151491200Y-74743300D01*
X151491200Y-75218300D01*
X151490056Y-75241579D01*
X151486637Y-75264634D01*
X151480973Y-75287243D01*
X151473121Y-75309187D01*
X151463156Y-75330257D01*
X151451174Y-75350248D01*
X151437290Y-75368968D01*
X151421638Y-75386238D01*
X151404368Y-75401890D01*
X151385648Y-75415774D01*
X151365657Y-75427756D01*
X151344587Y-75437721D01*
X151322643Y-75445573D01*
X151300034Y-75451237D01*
X151276979Y-75454656D01*
X151253700Y-75455800D01*
X150678700Y-75455800D01*
X150655421Y-75454656D01*
X150632366Y-75451237D01*
X150609757Y-75445573D01*
X150587813Y-75437721D01*
X150566743Y-75427756D01*
X150546752Y-75415774D01*
X150528032Y-75401890D01*
X150510762Y-75386238D01*
X150495110Y-75368968D01*
X150481226Y-75350248D01*
X150469244Y-75330257D01*
X150459279Y-75309187D01*
X150451427Y-75287243D01*
X150445763Y-75264634D01*
X150442344Y-75241579D01*
X150441200Y-75218300D01*
X150441200Y-74743300D01*
X150442344Y-74720021D01*
X150445763Y-74696966D01*
X150451427Y-74674357D01*
X150459279Y-74652413D01*
X150469244Y-74631343D01*
X150481226Y-74611352D01*
X150495110Y-74592632D01*
X150510762Y-74575362D01*
X150528032Y-74559710D01*
X150546752Y-74545826D01*
X150566743Y-74533844D01*
X150587813Y-74523879D01*
X150609757Y-74516027D01*
X150632366Y-74510363D01*
X150655421Y-74506944D01*
X150678700Y-74505800D01*
X151253700Y-74505800D01*
X151276979Y-74506944D01*
X151276979Y-74506944D01*
G37*
D13*
X150966200Y-74980800D03*
D12*
G36*
X153026979Y-74506944D02*
G01*
X153050034Y-74510363D01*
X153072643Y-74516027D01*
X153094587Y-74523879D01*
X153115657Y-74533844D01*
X153135648Y-74545826D01*
X153154368Y-74559710D01*
X153171638Y-74575362D01*
X153187290Y-74592632D01*
X153201174Y-74611352D01*
X153213156Y-74631343D01*
X153223121Y-74652413D01*
X153230973Y-74674357D01*
X153236637Y-74696966D01*
X153240056Y-74720021D01*
X153241200Y-74743300D01*
X153241200Y-75218300D01*
X153240056Y-75241579D01*
X153236637Y-75264634D01*
X153230973Y-75287243D01*
X153223121Y-75309187D01*
X153213156Y-75330257D01*
X153201174Y-75350248D01*
X153187290Y-75368968D01*
X153171638Y-75386238D01*
X153154368Y-75401890D01*
X153135648Y-75415774D01*
X153115657Y-75427756D01*
X153094587Y-75437721D01*
X153072643Y-75445573D01*
X153050034Y-75451237D01*
X153026979Y-75454656D01*
X153003700Y-75455800D01*
X152428700Y-75455800D01*
X152405421Y-75454656D01*
X152382366Y-75451237D01*
X152359757Y-75445573D01*
X152337813Y-75437721D01*
X152316743Y-75427756D01*
X152296752Y-75415774D01*
X152278032Y-75401890D01*
X152260762Y-75386238D01*
X152245110Y-75368968D01*
X152231226Y-75350248D01*
X152219244Y-75330257D01*
X152209279Y-75309187D01*
X152201427Y-75287243D01*
X152195763Y-75264634D01*
X152192344Y-75241579D01*
X152191200Y-75218300D01*
X152191200Y-74743300D01*
X152192344Y-74720021D01*
X152195763Y-74696966D01*
X152201427Y-74674357D01*
X152209279Y-74652413D01*
X152219244Y-74631343D01*
X152231226Y-74611352D01*
X152245110Y-74592632D01*
X152260762Y-74575362D01*
X152278032Y-74559710D01*
X152296752Y-74545826D01*
X152316743Y-74533844D01*
X152337813Y-74523879D01*
X152359757Y-74516027D01*
X152382366Y-74510363D01*
X152405421Y-74506944D01*
X152428700Y-74505800D01*
X153003700Y-74505800D01*
X153026979Y-74506944D01*
X153026979Y-74506944D01*
G37*
D13*
X152716200Y-74980800D03*
M02*
