M48
; DRILL file {KiCad (5.1.4)-1} date 4/20/2020 10:06:10 PM
; FORMAT={-:-/ absolute / inch / decimal}
; #@! TF.CreationDate,2020-04-20T22:06:10-04:00
; #@! TF.GenerationSoftware,Kicad,Pcbnew,(5.1.4)-1
; #@! TF.FileFunction,Plated,1,2,PTH
FMAT,2
INCH
T1C0.0118
T2C0.0157
T3C0.0300
T4C0.0315
T5C0.0472
T6C0.0512
T7C0.0591
T8C0.0669
T9C0.1181
%
G90
G05
T1
X2.985Y-3.3725
X3.0375Y-4.4375
X3.245Y-2.745
X3.2725Y-2.8975
X3.4075Y-3.5275
X3.485Y-2.61
X3.505Y-2.5725
X3.5325Y-2.535
X3.555Y-2.5075
X3.585Y-2.5775
X3.5925Y-2.365
X3.6075Y-2.7
X3.615Y-2.51
X3.635Y-2.5775
X3.6468Y-2.6257
X3.6475Y-2.4443
X3.6575Y-2.715
X3.665Y-2.3925
X3.665Y-2.5225
X3.735Y-2.3675
X3.74Y-2.4443
X3.74Y-2.5943
X3.75Y-2.16
X3.775Y-2.5332
X3.8375Y-2.4025
X3.84Y-2.2825
X3.9025Y-3.4025
X3.92Y-2.345
X3.98Y-2.6832
X3.99Y-3.14
X4.0625Y-2.6832
X4.4825Y-3.325
X4.515Y-4.175
X5.4075Y-4.1943
T2
X2.88Y-3.6825
X2.9375Y-3.3225
X3.0025Y-3.5175
X3.035Y-4.1175
X3.0625Y-3.8575
X3.105Y-3.5175
X3.1525Y-3.75
X3.1525Y-3.8625
X3.1525Y-4.045
X3.1575Y-3.975
X3.2275Y-3.7625
X3.2275Y-3.84
X3.2525Y-4.1175
X3.3825Y-3.37
X3.385Y-4.25
X3.395Y-3.285
X3.485Y-4.5675
X3.545Y-3.4375
X3.605Y-1.85
X3.7025Y-3.5575
X3.7575Y-3.155
X3.835Y-2.57
X3.8375Y-3.19
X3.895Y-2.645
X3.9225Y-3.185
X3.9375Y-3.315
X3.9425Y-3.5075
X3.9775Y-3.3825
X3.9987Y-1.85
X3.9987Y-1.85
X4.0075Y-4.57
X4.01Y-2.555
X4.01Y-2.655
X4.055Y-3.145
X4.0625Y-2.4125
X4.085Y-2.645
X4.09Y-2.48
X4.1125Y-3.3075
X4.14Y-4.205
X4.1625Y-3.2675
X4.1675Y-3.0925
X4.17Y-3.1675
X4.185Y-2.425
X4.275Y-2.03
X4.28Y-2.285
X4.285Y-4.2975
X4.2875Y-4.0625
X4.335Y-2.195
X4.355Y-4.1625
X4.355Y-4.365
X4.38Y-3.965
X4.3924Y-1.85
X4.3924Y-1.85
X4.455Y-4.2875
X4.465Y-4.4875
X4.495Y-2.105
X4.495Y-3.855
X4.535Y-4.5
X4.6Y-3.75
X4.6393Y-4.4726
X4.7Y-3.6475
X4.705Y-2.175
X4.71Y-2.025
X4.77Y-3.615
X4.7861Y-1.85
X4.7861Y-1.85
X4.87Y-2.025
X4.895Y-3.7325
X4.915Y-2.175
X4.9725Y-4.1425
X5.0025Y-3.8025
X5.015Y-3.605
X5.0175Y-4.0475
X5.0425Y-3.7675
X5.055Y-4.085
X5.07Y-4.0
X5.085Y-2.15
X5.095Y-2.205
X5.1175Y-4.04
X5.155Y-3.7325
X5.1575Y-4.145
X5.175Y-3.4275
X5.1798Y-1.85
X5.1798Y-1.85
X5.18Y-4.59
X5.21Y-3.6975
X5.2725Y-3.4325
X5.29Y-4.3125
X5.305Y-4.3626
X5.345Y-4.435
X5.4075Y-3.7675
X5.41Y-4.2905
X5.4125Y-3.8525
X5.445Y-4.62
X5.46Y-4.305
X5.465Y-3.25
X5.475Y-4.45
X5.5229Y-4.2994
X5.54Y-4.2075
X5.55Y-4.62
X5.56Y-3.25
X5.5735Y-1.85
X5.575Y-3.77
X5.5775Y-3.855
X5.675Y-4.225
X5.7Y-4.06
X5.7075Y-3.735
X5.715Y-3.3975
X5.79Y-3.57
X5.805Y-3.3025
X5.805Y-3.75
X5.9525Y-3.905
X5.9672Y-1.85
X5.9725Y-3.3075
X5.98Y-3.7025
X6.0525Y-3.715
X6.099Y-2.6185
X6.1175Y-3.05
X6.1175Y-3.17
X6.12Y-2.91
X6.13Y-2.685
X6.1725Y-3.3175
X6.185Y-2.7975
X6.19Y-2.505
X6.24Y-2.925
X6.245Y-2.99
X6.315Y-2.005
X6.315Y-2.18
X6.315Y-3.465
X6.3175Y-4.07
X6.32Y-2.455
X6.36Y-3.3875
X6.36Y-3.7175
X6.3609Y-1.85
X6.365Y-2.99
X6.37Y-2.46
X6.37Y-2.61
X6.425Y-3.57
X6.425Y-4.16
X6.445Y-4.0675
X6.48Y-2.925
X6.505Y-2.15
X6.525Y-2.01
X6.55Y-3.08
X6.5675Y-3.595
X6.575Y-2.555
X6.625Y-3.5925
X6.6475Y-3.175
X6.6525Y-3.245
X6.655Y-3.095
X6.655Y-4.4
X6.665Y-4.5375
X6.67Y-4.735
X6.7025Y-3.5575
X6.7546Y-1.85
X6.76Y-4.1975
X6.82Y-2.94
X6.84Y-3.285
X6.84Y-3.6925
X6.8525Y-4.795
X6.88Y-2.885
X6.885Y-2.5675
X6.895Y-3.475
X6.93Y-3.235
X6.93Y-3.54
X6.9375Y-3.42
X6.9475Y-3.6575
X6.97Y-2.4375
X7.02Y-4.655
X7.025Y-4.4125
X7.04Y-3.425
X7.045Y-2.7275
X7.0475Y-4.7775
X7.075Y-3.63
X7.11Y-2.585
X7.11Y-3.33
X7.145Y-4.4425
X7.1483Y-1.85
X7.155Y-3.47
X7.2275Y-2.8375
X7.265Y-2.3525
X7.27Y-3.495
X7.27Y-3.625
X7.3375Y-3.655
X7.3625Y-3.165
X7.455Y-3.445
X7.46Y-3.2
X7.495Y-2.2075
X7.5225Y-3.215
X7.525Y-3.455
X7.542Y-1.85
X7.5725Y-2.585
X7.6225Y-2.735
X7.705Y-3.2175
X7.715Y-2.2075
X7.77Y-2.5975
X7.77Y-3.075
X7.8475Y-2.3375
X7.89Y-2.8525
X7.895Y-3.2
X7.955Y-3.4675
X8.085Y-3.625
T3
X7.0222Y-4.0088
X7.1206Y-4.1072
X7.219Y-4.0088
T4
X7.235Y-3.3475
X7.335Y-3.3475
X7.435Y-3.3475
X7.5975Y-2.85
X7.6975Y-2.85
X5.76Y-4.3891
X5.86Y-4.3891
X4.925Y-2.0806
X4.925Y-2.2775
X6.3029Y-3.2367
X6.3029Y-3.3367
X5.085Y-4.375
X5.185Y-4.375
X6.87Y-2.8125
X7.0669Y-2.8125
X3.48Y-4.1375
X3.48Y-4.2375
X8.005Y-2.275
X8.005Y-2.4719
X3.435Y-3.6856
X3.435Y-3.8825
X7.465Y-3.6375
X7.6619Y-3.6375
X4.6086Y-3.34
X4.6086Y-3.44
X3.97Y-2.85
X4.07Y-2.85
X4.17Y-2.85
X6.935Y-2.0406
X6.935Y-2.2375
T5
X4.66Y-2.5106
X4.66Y-2.7075
X3.23Y-4.0125
X3.23Y-4.3125
X7.5702Y-4.0288
X7.5702Y-4.3288
X7.675Y-2.3956
X7.675Y-2.5925
X5.05Y-2.5106
X5.05Y-2.7075
X6.705Y-2.4875
X6.9019Y-2.4875
T6
X3.115Y-2.6913
X3.5225Y-2.0725
X4.2975Y-3.005
X5.3575Y-3.055
X5.815Y-2.2575
X3.0981Y-4.74
X3.295Y-4.74
X8.185Y-4.7425
X8.3819Y-4.7425
X7.9288Y-3.7812
X7.9288Y-4.2616
X8.165Y-3.7025
X8.4012Y-3.7812
X8.4012Y-4.2616
X7.39Y-4.7575
X7.5869Y-4.7575
X7.7837Y-4.7575
X3.6388Y-3.8084
X3.6388Y-4.2888
X3.875Y-4.3675
X4.1112Y-3.8084
X4.1112Y-4.2888
X3.5881Y-4.7375
X3.785Y-4.7375
X3.9819Y-4.7375
X4.1787Y-4.7375
X2.915Y-2.1925
X2.915Y-2.3894
X2.915Y-2.5862
X2.915Y-2.7831
X4.5126Y-4.5823
X4.8079Y-4.5823
X5.0638Y-4.5823
X5.359Y-4.5823
X5.615Y-4.5823
X5.9102Y-4.5823
X6.1661Y-4.5823
X6.4614Y-4.5823
X6.7531Y-4.7575
X6.95Y-4.7575
X7.1469Y-4.7575
T7
X4.195Y-2.1025
X4.4096Y-2.1025
X4.6241Y-2.1025
X5.2259Y-2.0925
X5.4404Y-2.0925
X5.655Y-2.0925
X7.2694Y-2.0833
X7.4839Y-2.0833
X7.6985Y-2.0833
X6.2044Y-2.0892
X6.419Y-2.0892
X6.6335Y-2.0892
X4.8079Y-4.8677
X5.359Y-4.8677
X5.9102Y-4.8677
X6.4614Y-4.8677
T8
X4.4181Y-4.73
X6.5559Y-4.73
T9
X5.487Y-4.73
T0
M30
