%FSLAX45Y45*%
G04 Gerber Fmt 4.5, Leading zero omitted, Abs format (unit mm)*
G04 Created by KiCad (PCBNEW (5.1.4)-1) date 2020-04-20 22:06:11*
%MOMM*%
%LPD*%
G04 APERTURE LIST*
%ADD10C,0.200000*%
%ADD11C,0.300000*%
G04 APERTURE END LIST*
D10*
X6781800Y-12649200D02*
X6781800Y-4610100D01*
X21653500Y-12649200D02*
X6781800Y-12649200D01*
X21653500Y-4610100D02*
X21653500Y-12649200D01*
X6781800Y-4610100D02*
X21653500Y-4610100D01*
D10*
X7566900Y-8551150D02*
X7596900Y-8581150D01*
X7596900Y-8551150D02*
X7566900Y-8581150D01*
X7700250Y-11256250D02*
X7730250Y-11286250D01*
X7730250Y-11256250D02*
X7700250Y-11286250D01*
X8227300Y-6957300D02*
X8257300Y-6987300D01*
X8257300Y-6957300D02*
X8227300Y-6987300D01*
X8297150Y-7344650D02*
X8327150Y-7374650D01*
X8327150Y-7344650D02*
X8297150Y-7374650D01*
X8640050Y-8944850D02*
X8670050Y-8974850D01*
X8670050Y-8944850D02*
X8640050Y-8974850D01*
X8836900Y-6614400D02*
X8866900Y-6644400D01*
X8866900Y-6614400D02*
X8836900Y-6644400D01*
X8887700Y-6519150D02*
X8917700Y-6549150D01*
X8917700Y-6519150D02*
X8887700Y-6549150D01*
X8957550Y-6423900D02*
X8987550Y-6453900D01*
X8987550Y-6423900D02*
X8957550Y-6453900D01*
X9014700Y-6354050D02*
X9044700Y-6384050D01*
X9044700Y-6354050D02*
X9014700Y-6384050D01*
X9090900Y-6531850D02*
X9120900Y-6561850D01*
X9120900Y-6531850D02*
X9090900Y-6561850D01*
X9109950Y-5992100D02*
X9139950Y-6022100D01*
X9139950Y-5992100D02*
X9109950Y-6022100D01*
X9148050Y-6843000D02*
X9178050Y-6873000D01*
X9178050Y-6843000D02*
X9148050Y-6873000D01*
X9167100Y-6360400D02*
X9197100Y-6390400D01*
X9197100Y-6360400D02*
X9167100Y-6390400D01*
X9217900Y-6531850D02*
X9247900Y-6561850D01*
X9247900Y-6531850D02*
X9217900Y-6561850D01*
X9247760Y-6654401D02*
X9277760Y-6684401D01*
X9277760Y-6654401D02*
X9247760Y-6684401D01*
X9249650Y-6193399D02*
X9279650Y-6223399D01*
X9279650Y-6193399D02*
X9249650Y-6223399D01*
X9275050Y-6881100D02*
X9305050Y-6911100D01*
X9305050Y-6881100D02*
X9275050Y-6911100D01*
X9294100Y-6061950D02*
X9324100Y-6091950D01*
X9324100Y-6061950D02*
X9294100Y-6091950D01*
X9294100Y-6392150D02*
X9324100Y-6422150D01*
X9324100Y-6392150D02*
X9294100Y-6422150D01*
X9471900Y-5998450D02*
X9501900Y-6028450D01*
X9501900Y-5998450D02*
X9471900Y-6028450D01*
X9484600Y-6193399D02*
X9514600Y-6223399D01*
X9514600Y-6193399D02*
X9484600Y-6223399D01*
X9484600Y-6574399D02*
X9514600Y-6604399D01*
X9514600Y-6574399D02*
X9484600Y-6604399D01*
X9510000Y-5471400D02*
X9540000Y-5501400D01*
X9540000Y-5471400D02*
X9510000Y-5501400D01*
X9573500Y-6419451D02*
X9603500Y-6449451D01*
X9603500Y-6419451D02*
X9573500Y-6449451D01*
X9732250Y-6087350D02*
X9762250Y-6117350D01*
X9762250Y-6087350D02*
X9732250Y-6117350D01*
X9738600Y-5782550D02*
X9768600Y-5812550D01*
X9768600Y-5782550D02*
X9738600Y-5812550D01*
X9897350Y-8627350D02*
X9927350Y-8657350D01*
X9927350Y-8627350D02*
X9897350Y-8657350D01*
X9941800Y-5941300D02*
X9971800Y-5971300D01*
X9971800Y-5941300D02*
X9941800Y-5971300D01*
X10094200Y-6800451D02*
X10124200Y-6830451D01*
X10124200Y-6800451D02*
X10094200Y-6830451D01*
X10119600Y-7960600D02*
X10149600Y-7990600D01*
X10149600Y-7960600D02*
X10119600Y-7990600D01*
X10303750Y-6800451D02*
X10333750Y-6830451D01*
X10333750Y-6800451D02*
X10303750Y-6830451D01*
X11370550Y-8430500D02*
X11400550Y-8460500D01*
X11400550Y-8430500D02*
X11370550Y-8460500D01*
X11453100Y-10589500D02*
X11483100Y-10619500D01*
X11483100Y-10589500D02*
X11453100Y-10619500D01*
X13720050Y-10638399D02*
X13750050Y-10668399D01*
X13750050Y-10638399D02*
X13720050Y-10668399D01*
X7335200Y-9353550D02*
G75*
G03X7335200Y-9353550I-20000J0D01*
G01*
X7481250Y-8439150D02*
G75*
G03X7481250Y-8439150I-20000J0D01*
G01*
X7646350Y-8934450D02*
G75*
G03X7646350Y-8934450I-20000J0D01*
G01*
X7728900Y-10458450D02*
G75*
G03X7728900Y-10458450I-20000J0D01*
G01*
X7798750Y-9798050D02*
G75*
G03X7798750Y-9798050I-20000J0D01*
G01*
X7906700Y-8934450D02*
G75*
G03X7906700Y-8934450I-20000J0D01*
G01*
X8027350Y-9525000D02*
G75*
G03X8027350Y-9525000I-20000J0D01*
G01*
X8027350Y-9810750D02*
G75*
G03X8027350Y-9810750I-20000J0D01*
G01*
X8027350Y-10274300D02*
G75*
G03X8027350Y-10274300I-20000J0D01*
G01*
X8040050Y-10096500D02*
G75*
G03X8040050Y-10096500I-20000J0D01*
G01*
X8217850Y-9556750D02*
G75*
G03X8217850Y-9556750I-20000J0D01*
G01*
X8217850Y-9753600D02*
G75*
G03X8217850Y-9753600I-20000J0D01*
G01*
X8281350Y-10458450D02*
G75*
G03X8281350Y-10458450I-20000J0D01*
G01*
X8611550Y-8559800D02*
G75*
G03X8611550Y-8559800I-20000J0D01*
G01*
X8617900Y-10795000D02*
G75*
G03X8617900Y-10795000I-20000J0D01*
G01*
X8643300Y-8343900D02*
G75*
G03X8643300Y-8343900I-20000J0D01*
G01*
X8871900Y-11601450D02*
G75*
G03X8871900Y-11601450I-20000J0D01*
G01*
X9024300Y-8731250D02*
G75*
G03X9024300Y-8731250I-20000J0D01*
G01*
X9176700Y-4699000D02*
G75*
G03X9176700Y-4699000I-20000J0D01*
G01*
X9424350Y-9036050D02*
G75*
G03X9424350Y-9036050I-20000J0D01*
G01*
X9564050Y-8013700D02*
G75*
G03X9564050Y-8013700I-20000J0D01*
G01*
X9760900Y-6527800D02*
G75*
G03X9760900Y-6527800I-20000J0D01*
G01*
X9767250Y-8102600D02*
G75*
G03X9767250Y-8102600I-20000J0D01*
G01*
X9913300Y-6718300D02*
G75*
G03X9913300Y-6718300I-20000J0D01*
G01*
X9983150Y-8089900D02*
G75*
G03X9983150Y-8089900I-20000J0D01*
G01*
X10021250Y-8420100D02*
G75*
G03X10021250Y-8420100I-20000J0D01*
G01*
X10033950Y-8909050D02*
G75*
G03X10033950Y-8909050I-20000J0D01*
G01*
X10122850Y-8591550D02*
G75*
G03X10122850Y-8591550I-20000J0D01*
G01*
X10176700Y-4699000D02*
G75*
G03X10176700Y-4699000I-20000J0D01*
G01*
X10176700Y-4699000D02*
G75*
G03X10176700Y-4699000I-20000J0D01*
G01*
X10199050Y-11607800D02*
G75*
G03X10199050Y-11607800I-20000J0D01*
G01*
X10205400Y-6489700D02*
G75*
G03X10205400Y-6489700I-20000J0D01*
G01*
X10205400Y-6743700D02*
G75*
G03X10205400Y-6743700I-20000J0D01*
G01*
X10319700Y-7988300D02*
G75*
G03X10319700Y-7988300I-20000J0D01*
G01*
X10338750Y-6127750D02*
G75*
G03X10338750Y-6127750I-20000J0D01*
G01*
X10395900Y-6718300D02*
G75*
G03X10395900Y-6718300I-20000J0D01*
G01*
X10408600Y-6299200D02*
G75*
G03X10408600Y-6299200I-20000J0D01*
G01*
X10465750Y-8401050D02*
G75*
G03X10465750Y-8401050I-20000J0D01*
G01*
X10535600Y-10680700D02*
G75*
G03X10535600Y-10680700I-20000J0D01*
G01*
X10592750Y-8299450D02*
G75*
G03X10592750Y-8299450I-20000J0D01*
G01*
X10605450Y-7854950D02*
G75*
G03X10605450Y-7854950I-20000J0D01*
G01*
X10611800Y-8045450D02*
G75*
G03X10611800Y-8045450I-20000J0D01*
G01*
X10649900Y-6159500D02*
G75*
G03X10649900Y-6159500I-20000J0D01*
G01*
X10878500Y-5156200D02*
G75*
G03X10878500Y-5156200I-20000J0D01*
G01*
X10891200Y-5803900D02*
G75*
G03X10891200Y-5803900I-20000J0D01*
G01*
X10903900Y-10915650D02*
G75*
G03X10903900Y-10915650I-20000J0D01*
G01*
X10910250Y-10318750D02*
G75*
G03X10910250Y-10318750I-20000J0D01*
G01*
X11030900Y-5575300D02*
G75*
G03X11030900Y-5575300I-20000J0D01*
G01*
X11081700Y-10572750D02*
G75*
G03X11081700Y-10572750I-20000J0D01*
G01*
X11081700Y-11087100D02*
G75*
G03X11081700Y-11087100I-20000J0D01*
G01*
X11145200Y-10071100D02*
G75*
G03X11145200Y-10071100I-20000J0D01*
G01*
X11176700Y-4699000D02*
G75*
G03X11176700Y-4699000I-20000J0D01*
G01*
X11176700Y-4699000D02*
G75*
G03X11176700Y-4699000I-20000J0D01*
G01*
X11335700Y-10890250D02*
G75*
G03X11335700Y-10890250I-20000J0D01*
G01*
X11361100Y-11398250D02*
G75*
G03X11361100Y-11398250I-20000J0D01*
G01*
X11437300Y-5346700D02*
G75*
G03X11437300Y-5346700I-20000J0D01*
G01*
X11437300Y-9791700D02*
G75*
G03X11437300Y-9791700I-20000J0D01*
G01*
X11538900Y-11430000D02*
G75*
G03X11538900Y-11430000I-20000J0D01*
G01*
X11704000Y-9525000D02*
G75*
G03X11704000Y-9525000I-20000J0D01*
G01*
X11803849Y-11360501D02*
G75*
G03X11803849Y-11360501I-20000J0D01*
G01*
X11958000Y-9264650D02*
G75*
G03X11958000Y-9264650I-20000J0D01*
G01*
X11970700Y-5524500D02*
G75*
G03X11970700Y-5524500I-20000J0D01*
G01*
X11983400Y-5143500D02*
G75*
G03X11983400Y-5143500I-20000J0D01*
G01*
X12135800Y-9182100D02*
G75*
G03X12135800Y-9182100I-20000J0D01*
G01*
X12176700Y-4699000D02*
G75*
G03X12176700Y-4699000I-20000J0D01*
G01*
X12176700Y-4699000D02*
G75*
G03X12176700Y-4699000I-20000J0D01*
G01*
X12389800Y-5143500D02*
G75*
G03X12389800Y-5143500I-20000J0D01*
G01*
X12453300Y-9480550D02*
G75*
G03X12453300Y-9480550I-20000J0D01*
G01*
X12504100Y-5524500D02*
G75*
G03X12504100Y-5524500I-20000J0D01*
G01*
X12650150Y-10521950D02*
G75*
G03X12650150Y-10521950I-20000J0D01*
G01*
X12726350Y-9658350D02*
G75*
G03X12726350Y-9658350I-20000J0D01*
G01*
X12758100Y-9156700D02*
G75*
G03X12758100Y-9156700I-20000J0D01*
G01*
X12764450Y-10280650D02*
G75*
G03X12764450Y-10280650I-20000J0D01*
G01*
X12827950Y-9569450D02*
G75*
G03X12827950Y-9569450I-20000J0D01*
G01*
X12859700Y-10375899D02*
G75*
G03X12859700Y-10375899I-20000J0D01*
G01*
X12897800Y-10160000D02*
G75*
G03X12897800Y-10160000I-20000J0D01*
G01*
X12935900Y-5461000D02*
G75*
G03X12935900Y-5461000I-20000J0D01*
G01*
X12961300Y-5600700D02*
G75*
G03X12961300Y-5600700I-20000J0D01*
G01*
X13018450Y-10261600D02*
G75*
G03X13018450Y-10261600I-20000J0D01*
G01*
X13113700Y-9480550D02*
G75*
G03X13113700Y-9480550I-20000J0D01*
G01*
X13120050Y-10528300D02*
G75*
G03X13120050Y-10528300I-20000J0D01*
G01*
X13164500Y-8705850D02*
G75*
G03X13164500Y-8705850I-20000J0D01*
G01*
X13176700Y-4699000D02*
G75*
G03X13176700Y-4699000I-20000J0D01*
G01*
X13176700Y-4699000D02*
G75*
G03X13176700Y-4699000I-20000J0D01*
G01*
X13177200Y-11658600D02*
G75*
G03X13177200Y-11658600I-20000J0D01*
G01*
X13253400Y-9391650D02*
G75*
G03X13253400Y-9391650I-20000J0D01*
G01*
X13412150Y-8718550D02*
G75*
G03X13412150Y-8718550I-20000J0D01*
G01*
X13456600Y-10953750D02*
G75*
G03X13456600Y-10953750I-20000J0D01*
G01*
X13494592Y-11081056D02*
G75*
G03X13494592Y-11081056I-20000J0D01*
G01*
X13596300Y-11264900D02*
G75*
G03X13596300Y-11264900I-20000J0D01*
G01*
X13755050Y-9569450D02*
G75*
G03X13755050Y-9569450I-20000J0D01*
G01*
X13761400Y-10897853D02*
G75*
G03X13761400Y-10897853I-20000J0D01*
G01*
X13767750Y-9785350D02*
G75*
G03X13767750Y-9785350I-20000J0D01*
G01*
X13850300Y-11734800D02*
G75*
G03X13850300Y-11734800I-20000J0D01*
G01*
X13888400Y-10934700D02*
G75*
G03X13888400Y-10934700I-20000J0D01*
G01*
X13901100Y-8255000D02*
G75*
G03X13901100Y-8255000I-20000J0D01*
G01*
X13926500Y-11303000D02*
G75*
G03X13926500Y-11303000I-20000J0D01*
G01*
X14048180Y-10920426D02*
G75*
G03X14048180Y-10920426I-20000J0D01*
G01*
X14091600Y-10687050D02*
G75*
G03X14091600Y-10687050I-20000J0D01*
G01*
X14117000Y-11734800D02*
G75*
G03X14117000Y-11734800I-20000J0D01*
G01*
X14142400Y-8255000D02*
G75*
G03X14142400Y-8255000I-20000J0D01*
G01*
X14176700Y-4699000D02*
G75*
G03X14176700Y-4699000I-20000J0D01*
G01*
X14180500Y-9575800D02*
G75*
G03X14180500Y-9575800I-20000J0D01*
G01*
X14186850Y-9791700D02*
G75*
G03X14186850Y-9791700I-20000J0D01*
G01*
X14434500Y-10731500D02*
G75*
G03X14434500Y-10731500I-20000J0D01*
G01*
X14498000Y-10312400D02*
G75*
G03X14498000Y-10312400I-20000J0D01*
G01*
X14517050Y-9486900D02*
G75*
G03X14517050Y-9486900I-20000J0D01*
G01*
X14536100Y-8629650D02*
G75*
G03X14536100Y-8629650I-20000J0D01*
G01*
X14726600Y-9067800D02*
G75*
G03X14726600Y-9067800I-20000J0D01*
G01*
X14764700Y-8388350D02*
G75*
G03X14764700Y-8388350I-20000J0D01*
G01*
X14764700Y-9525000D02*
G75*
G03X14764700Y-9525000I-20000J0D01*
G01*
X15139350Y-9918700D02*
G75*
G03X15139350Y-9918700I-20000J0D01*
G01*
X15176700Y-4699000D02*
G75*
G03X15176700Y-4699000I-20000J0D01*
G01*
X15190150Y-8401050D02*
G75*
G03X15190150Y-8401050I-20000J0D01*
G01*
X15209200Y-9404350D02*
G75*
G03X15209200Y-9404350I-20000J0D01*
G01*
X15393350Y-9436100D02*
G75*
G03X15393350Y-9436100I-20000J0D01*
G01*
X15511392Y-6651058D02*
G75*
G03X15511392Y-6651058I-20000J0D01*
G01*
X15558450Y-7747000D02*
G75*
G03X15558450Y-7747000I-20000J0D01*
G01*
X15558450Y-8051800D02*
G75*
G03X15558450Y-8051800I-20000J0D01*
G01*
X15564800Y-7391400D02*
G75*
G03X15564800Y-7391400I-20000J0D01*
G01*
X15590200Y-6819900D02*
G75*
G03X15590200Y-6819900I-20000J0D01*
G01*
X15698150Y-8426450D02*
G75*
G03X15698150Y-8426450I-20000J0D01*
G01*
X15729900Y-7105650D02*
G75*
G03X15729900Y-7105650I-20000J0D01*
G01*
X15742600Y-6362700D02*
G75*
G03X15742600Y-6362700I-20000J0D01*
G01*
X15869600Y-7429500D02*
G75*
G03X15869600Y-7429500I-20000J0D01*
G01*
X15882300Y-7594600D02*
G75*
G03X15882300Y-7594600I-20000J0D01*
G01*
X16060100Y-5092700D02*
G75*
G03X16060100Y-5092700I-20000J0D01*
G01*
X16060100Y-5537200D02*
G75*
G03X16060100Y-5537200I-20000J0D01*
G01*
X16060100Y-8801100D02*
G75*
G03X16060100Y-8801100I-20000J0D01*
G01*
X16066450Y-10337800D02*
G75*
G03X16066450Y-10337800I-20000J0D01*
G01*
X16072800Y-6235700D02*
G75*
G03X16072800Y-6235700I-20000J0D01*
G01*
X16174400Y-8604250D02*
G75*
G03X16174400Y-8604250I-20000J0D01*
G01*
X16174400Y-9442450D02*
G75*
G03X16174400Y-9442450I-20000J0D01*
G01*
X16176700Y-4699000D02*
G75*
G03X16176700Y-4699000I-20000J0D01*
G01*
X16187100Y-7594600D02*
G75*
G03X16187100Y-7594600I-20000J0D01*
G01*
X16199800Y-6248400D02*
G75*
G03X16199800Y-6248400I-20000J0D01*
G01*
X16199800Y-6629400D02*
G75*
G03X16199800Y-6629400I-20000J0D01*
G01*
X16339500Y-9067800D02*
G75*
G03X16339500Y-9067800I-20000J0D01*
G01*
X16339500Y-10566400D02*
G75*
G03X16339500Y-10566400I-20000J0D01*
G01*
X16390300Y-10331450D02*
G75*
G03X16390300Y-10331450I-20000J0D01*
G01*
X16479200Y-7429500D02*
G75*
G03X16479200Y-7429500I-20000J0D01*
G01*
X16542700Y-5461000D02*
G75*
G03X16542700Y-5461000I-20000J0D01*
G01*
X16593500Y-5105400D02*
G75*
G03X16593500Y-5105400I-20000J0D01*
G01*
X16657000Y-7823200D02*
G75*
G03X16657000Y-7823200I-20000J0D01*
G01*
X16701450Y-9131300D02*
G75*
G03X16701450Y-9131300I-20000J0D01*
G01*
X16720500Y-6489700D02*
G75*
G03X16720500Y-6489700I-20000J0D01*
G01*
X16847500Y-9124950D02*
G75*
G03X16847500Y-9124950I-20000J0D01*
G01*
X16904650Y-8064500D02*
G75*
G03X16904650Y-8064500I-20000J0D01*
G01*
X16917350Y-8242300D02*
G75*
G03X16917350Y-8242300I-20000J0D01*
G01*
X16923700Y-7861300D02*
G75*
G03X16923700Y-7861300I-20000J0D01*
G01*
X16923700Y-11176000D02*
G75*
G03X16923700Y-11176000I-20000J0D01*
G01*
X16949100Y-11525250D02*
G75*
G03X16949100Y-11525250I-20000J0D01*
G01*
X16961800Y-12026900D02*
G75*
G03X16961800Y-12026900I-20000J0D01*
G01*
X17044350Y-9036050D02*
G75*
G03X17044350Y-9036050I-20000J0D01*
G01*
X17176700Y-4699000D02*
G75*
G03X17176700Y-4699000I-20000J0D01*
G01*
X17190400Y-10661650D02*
G75*
G03X17190400Y-10661650I-20000J0D01*
G01*
X17342800Y-7467600D02*
G75*
G03X17342800Y-7467600I-20000J0D01*
G01*
X17393600Y-8343900D02*
G75*
G03X17393600Y-8343900I-20000J0D01*
G01*
X17393600Y-9378950D02*
G75*
G03X17393600Y-9378950I-20000J0D01*
G01*
X17425350Y-12179300D02*
G75*
G03X17425350Y-12179300I-20000J0D01*
G01*
X17495200Y-7327900D02*
G75*
G03X17495200Y-7327900I-20000J0D01*
G01*
X17507900Y-6521450D02*
G75*
G03X17507900Y-6521450I-20000J0D01*
G01*
X17533300Y-8826500D02*
G75*
G03X17533300Y-8826500I-20000J0D01*
G01*
X17622200Y-8216900D02*
G75*
G03X17622200Y-8216900I-20000J0D01*
G01*
X17622200Y-8991600D02*
G75*
G03X17622200Y-8991600I-20000J0D01*
G01*
X17641250Y-8686800D02*
G75*
G03X17641250Y-8686800I-20000J0D01*
G01*
X17666650Y-9290050D02*
G75*
G03X17666650Y-9290050I-20000J0D01*
G01*
X17723800Y-6191250D02*
G75*
G03X17723800Y-6191250I-20000J0D01*
G01*
X17850800Y-11823700D02*
G75*
G03X17850800Y-11823700I-20000J0D01*
G01*
X17863500Y-11207750D02*
G75*
G03X17863500Y-11207750I-20000J0D01*
G01*
X17901600Y-8699500D02*
G75*
G03X17901600Y-8699500I-20000J0D01*
G01*
X17914300Y-6927850D02*
G75*
G03X17914300Y-6927850I-20000J0D01*
G01*
X17920650Y-12134850D02*
G75*
G03X17920650Y-12134850I-20000J0D01*
G01*
X17990500Y-9220200D02*
G75*
G03X17990500Y-9220200I-20000J0D01*
G01*
X18079400Y-6565900D02*
G75*
G03X18079400Y-6565900I-20000J0D01*
G01*
X18079400Y-8458200D02*
G75*
G03X18079400Y-8458200I-20000J0D01*
G01*
X18168300Y-11283950D02*
G75*
G03X18168300Y-11283950I-20000J0D01*
G01*
X18176700Y-4699000D02*
G75*
G03X18176700Y-4699000I-20000J0D01*
G01*
X18193700Y-8813800D02*
G75*
G03X18193700Y-8813800I-20000J0D01*
G01*
X18377850Y-7207250D02*
G75*
G03X18377850Y-7207250I-20000J0D01*
G01*
X18473100Y-5975350D02*
G75*
G03X18473100Y-5975350I-20000J0D01*
G01*
X18485800Y-8877300D02*
G75*
G03X18485800Y-8877300I-20000J0D01*
G01*
X18485800Y-9207500D02*
G75*
G03X18485800Y-9207500I-20000J0D01*
G01*
X18657250Y-9283700D02*
G75*
G03X18657250Y-9283700I-20000J0D01*
G01*
X18720750Y-8039100D02*
G75*
G03X18720750Y-8039100I-20000J0D01*
G01*
X18955700Y-8750300D02*
G75*
G03X18955700Y-8750300I-20000J0D01*
G01*
X18968400Y-8128000D02*
G75*
G03X18968400Y-8128000I-20000J0D01*
G01*
X19057300Y-5607050D02*
G75*
G03X19057300Y-5607050I-20000J0D01*
G01*
X19127150Y-8166100D02*
G75*
G03X19127150Y-8166100I-20000J0D01*
G01*
X19133500Y-8775700D02*
G75*
G03X19133500Y-8775700I-20000J0D01*
G01*
X19176700Y-4699000D02*
G75*
G03X19176700Y-4699000I-20000J0D01*
G01*
X19254150Y-6565900D02*
G75*
G03X19254150Y-6565900I-20000J0D01*
G01*
X19381150Y-6946900D02*
G75*
G03X19381150Y-6946900I-20000J0D01*
G01*
X19590700Y-8172450D02*
G75*
G03X19590700Y-8172450I-20000J0D01*
G01*
X19616100Y-5607050D02*
G75*
G03X19616100Y-5607050I-20000J0D01*
G01*
X19755800Y-6597650D02*
G75*
G03X19755800Y-6597650I-20000J0D01*
G01*
X19755800Y-7810500D02*
G75*
G03X19755800Y-7810500I-20000J0D01*
G01*
X19952650Y-5937250D02*
G75*
G03X19952650Y-5937250I-20000J0D01*
G01*
X20060600Y-7245350D02*
G75*
G03X20060600Y-7245350I-20000J0D01*
G01*
X20073300Y-8128000D02*
G75*
G03X20073300Y-8128000I-20000J0D01*
G01*
X20225700Y-8807450D02*
G75*
G03X20225700Y-8807450I-20000J0D01*
G01*
X20555900Y-9207500D02*
G75*
G03X20555900Y-9207500I-20000J0D01*
G01*
X17836300Y-10144150D02*
X17836300Y-10220350D01*
X17798200Y-10182250D02*
X17874400Y-10182250D01*
X18086300Y-10394150D02*
X18086300Y-10470350D01*
X18048200Y-10432250D02*
X18124400Y-10432250D01*
X18336300Y-10144150D02*
X18336300Y-10220350D01*
X18298200Y-10182250D02*
X18374400Y-10182250D01*
X18405185Y-8530935D02*
X18405185Y-8474366D01*
X18348616Y-8474366D01*
X18348616Y-8530935D01*
X18405185Y-8530935D01*
X18659185Y-8530935D02*
X18659185Y-8474366D01*
X18602616Y-8474366D01*
X18602616Y-8530935D01*
X18659185Y-8530935D01*
X18913185Y-8530935D02*
X18913185Y-8474366D01*
X18856616Y-8474366D01*
X18856616Y-8530935D01*
X18913185Y-8530935D01*
X19325935Y-7267284D02*
X19325935Y-7210715D01*
X19269366Y-7210715D01*
X19269366Y-7267284D01*
X19325935Y-7267284D01*
X19579935Y-7267284D02*
X19579935Y-7210715D01*
X19523366Y-7210715D01*
X19523366Y-7267284D01*
X19579935Y-7267284D01*
X14658584Y-11176535D02*
X14658584Y-11119966D01*
X14602015Y-11119966D01*
X14602015Y-11176535D01*
X14658584Y-11176535D01*
X14912584Y-11176535D02*
X14912584Y-11119966D01*
X14856015Y-11119966D01*
X14856015Y-11176535D01*
X14912584Y-11176535D01*
X12537784Y-5313135D02*
X12537784Y-5256566D01*
X12481215Y-5256566D01*
X12481215Y-5313135D01*
X12537784Y-5313135D01*
X12537784Y-5813134D02*
X12537784Y-5756565D01*
X12481215Y-5756565D01*
X12481215Y-5813134D01*
X12537784Y-5813134D01*
X16037584Y-8249534D02*
X16037584Y-8192965D01*
X15981015Y-8192965D01*
X15981015Y-8249534D01*
X16037584Y-8249534D01*
X16037584Y-8503535D02*
X16037584Y-8446966D01*
X15981015Y-8446966D01*
X15981015Y-8503535D01*
X16037584Y-8503535D01*
X12944184Y-11140785D02*
X12944184Y-11084216D01*
X12887615Y-11084216D01*
X12887615Y-11140785D01*
X12944184Y-11140785D01*
X13198184Y-11140785D02*
X13198184Y-11084216D01*
X13141615Y-11084216D01*
X13141615Y-11140785D01*
X13198184Y-11140785D01*
X17478085Y-7172034D02*
X17478085Y-7115465D01*
X17421516Y-7115465D01*
X17421516Y-7172034D01*
X17478085Y-7172034D01*
X17978085Y-7172034D02*
X17978085Y-7115465D01*
X17921516Y-7115465D01*
X17921516Y-7172034D01*
X17978085Y-7172034D01*
X8867485Y-10537535D02*
X8867485Y-10480966D01*
X8810916Y-10480966D01*
X8810916Y-10537535D01*
X8867485Y-10537535D01*
X8867485Y-10791535D02*
X8867485Y-10734966D01*
X8810916Y-10734966D01*
X8810916Y-10791535D01*
X8867485Y-10791535D01*
X20360985Y-5806784D02*
X20360985Y-5750215D01*
X20304416Y-5750215D01*
X20304416Y-5806784D01*
X20360985Y-5806784D01*
X20360985Y-6306784D02*
X20360985Y-6250215D01*
X20304416Y-6250215D01*
X20304416Y-6306784D01*
X20360985Y-6306784D01*
X8753185Y-9389835D02*
X8753185Y-9333266D01*
X8696616Y-9333266D01*
X8696616Y-9389835D01*
X8753185Y-9389835D01*
X8753185Y-9889835D02*
X8753185Y-9833266D01*
X8696616Y-9833266D01*
X8696616Y-9889835D01*
X8753185Y-9889835D01*
X18989385Y-9267535D02*
X18989385Y-9210966D01*
X18932816Y-9210966D01*
X18932816Y-9267535D01*
X18989385Y-9267535D01*
X19489385Y-9267535D02*
X19489385Y-9210966D01*
X19432816Y-9210966D01*
X19432816Y-9267535D01*
X19489385Y-9267535D01*
X11734184Y-8511935D02*
X11734184Y-8455366D01*
X11677615Y-8455366D01*
X11677615Y-8511935D01*
X11734184Y-8511935D01*
X11734184Y-8765935D02*
X11734184Y-8709366D01*
X11677615Y-8709366D01*
X11677615Y-8765935D01*
X11734184Y-8765935D01*
X10112085Y-7267284D02*
X10112085Y-7210715D01*
X10055516Y-7210715D01*
X10055516Y-7267284D01*
X10112085Y-7267284D01*
X10366085Y-7267284D02*
X10366085Y-7210715D01*
X10309516Y-7210715D01*
X10309516Y-7267284D01*
X10366085Y-7267284D01*
X10620085Y-7267284D02*
X10620085Y-7210715D01*
X10563516Y-7210715D01*
X10563516Y-7267284D01*
X10620085Y-7267284D01*
X17643185Y-5211535D02*
X17643185Y-5154966D01*
X17586616Y-5154966D01*
X17586616Y-5211535D01*
X17643185Y-5211535D01*
X17643185Y-5711534D02*
X17643185Y-5654965D01*
X17586616Y-5654965D01*
X17586616Y-5711534D01*
X17643185Y-5711534D01*
X11836400Y-6437050D02*
X11896400Y-6377050D01*
X11836400Y-6317050D01*
X11776400Y-6377050D01*
X11836400Y-6437050D01*
X11836400Y-6937050D02*
X11896400Y-6877050D01*
X11836400Y-6817050D01*
X11776400Y-6877050D01*
X11836400Y-6937050D01*
X8204200Y-10251750D02*
X8264200Y-10191750D01*
X8204200Y-10131750D01*
X8144200Y-10191750D01*
X8204200Y-10251750D01*
X8204200Y-11013750D02*
X8264200Y-10953750D01*
X8204200Y-10893750D01*
X8144200Y-10953750D01*
X8204200Y-11013750D01*
X19228300Y-10293250D02*
X19288300Y-10233250D01*
X19228300Y-10173250D01*
X19168300Y-10233250D01*
X19228300Y-10293250D01*
X19228300Y-11055250D02*
X19288300Y-10995250D01*
X19228300Y-10935250D01*
X19168300Y-10995250D01*
X19228300Y-11055250D01*
X19494500Y-6144950D02*
X19554500Y-6084950D01*
X19494500Y-6024950D01*
X19434500Y-6084950D01*
X19494500Y-6144950D01*
X19494500Y-6644950D02*
X19554500Y-6584950D01*
X19494500Y-6524950D01*
X19434500Y-6584950D01*
X19494500Y-6644950D01*
X12827000Y-6437050D02*
X12887000Y-6377050D01*
X12827000Y-6317050D01*
X12767000Y-6377050D01*
X12827000Y-6437050D01*
X12827000Y-6937050D02*
X12887000Y-6877050D01*
X12827000Y-6817050D01*
X12767000Y-6877050D01*
X12827000Y-6937050D01*
X17030700Y-6378250D02*
X17090700Y-6318250D01*
X17030700Y-6258250D01*
X16970700Y-6318250D01*
X17030700Y-6378250D01*
X17530700Y-6378250D02*
X17590700Y-6318250D01*
X17530700Y-6258250D01*
X17470700Y-6318250D01*
X17530700Y-6378250D01*
X7847100Y-6770950D02*
X7977100Y-6900950D01*
X7977100Y-6770950D02*
X7847100Y-6900950D01*
X7977100Y-6835950D02*
G75*
G03X7977100Y-6835950I-65000J0D01*
G01*
X8882150Y-5199150D02*
X9012150Y-5329150D01*
X9012150Y-5199150D02*
X8882150Y-5329150D01*
X9012150Y-5264150D02*
G75*
G03X9012150Y-5264150I-65000J0D01*
G01*
X10850650Y-7567700D02*
X10980650Y-7697700D01*
X10980650Y-7567700D02*
X10850650Y-7697700D01*
X10980650Y-7632700D02*
G75*
G03X10980650Y-7632700I-65000J0D01*
G01*
X13543050Y-7694700D02*
X13673050Y-7824700D01*
X13673050Y-7694700D02*
X13543050Y-7824700D01*
X13673050Y-7759700D02*
G75*
G03X13673050Y-7759700I-65000J0D01*
G01*
X14705100Y-5669050D02*
X14835100Y-5799050D01*
X14835100Y-5669050D02*
X14705100Y-5799050D01*
X14835100Y-5734050D02*
G75*
G03X14835100Y-5734050I-65000J0D01*
G01*
X7804300Y-11974600D02*
X7934300Y-12104600D01*
X7934300Y-11974600D02*
X7804300Y-12104600D01*
X7934300Y-12039600D02*
G75*
G03X7934300Y-12039600I-65000J0D01*
G01*
X8304300Y-11974600D02*
X8434300Y-12104600D01*
X8434300Y-11974600D02*
X8304300Y-12104600D01*
X8434300Y-12039600D02*
G75*
G03X8434300Y-12039600I-65000J0D01*
G01*
X20724900Y-11980950D02*
X20854900Y-12110950D01*
X20854900Y-11980950D02*
X20724900Y-12110950D01*
X20854900Y-12045950D02*
G75*
G03X20854900Y-12045950I-65000J0D01*
G01*
X21224900Y-11980950D02*
X21354900Y-12110950D01*
X21354900Y-11980950D02*
X21224900Y-12110950D01*
X21354900Y-12045950D02*
G75*
G03X21354900Y-12045950I-65000J0D01*
G01*
X20074100Y-9539350D02*
X20204100Y-9669350D01*
X20204100Y-9539350D02*
X20074100Y-9669350D01*
X20204100Y-9604350D02*
G75*
G03X20204100Y-9604350I-65000J0D01*
G01*
X20074100Y-10759350D02*
X20204100Y-10889350D01*
X20204100Y-10759350D02*
X20074100Y-10889350D01*
X20204100Y-10824350D02*
G75*
G03X20204100Y-10824350I-65000J0D01*
G01*
X20674100Y-9339350D02*
X20804100Y-9469350D01*
X20804100Y-9339350D02*
X20674100Y-9469350D01*
X20804100Y-9404350D02*
G75*
G03X20804100Y-9404350I-65000J0D01*
G01*
X21274100Y-9539350D02*
X21404100Y-9669350D01*
X21404100Y-9539350D02*
X21274100Y-9669350D01*
X21404100Y-9604350D02*
G75*
G03X21404100Y-9604350I-65000J0D01*
G01*
X21274100Y-10759350D02*
X21404100Y-10889350D01*
X21404100Y-10759350D02*
X21274100Y-10889350D01*
X21404100Y-10824350D02*
G75*
G03X21404100Y-10824350I-65000J0D01*
G01*
X18705600Y-12019050D02*
X18835600Y-12149050D01*
X18835600Y-12019050D02*
X18705600Y-12149050D01*
X18835600Y-12084050D02*
G75*
G03X18835600Y-12084050I-65000J0D01*
G01*
X19205600Y-12019050D02*
X19335600Y-12149050D01*
X19335600Y-12019050D02*
X19205600Y-12149050D01*
X19335600Y-12084050D02*
G75*
G03X19335600Y-12084050I-65000J0D01*
G01*
X19705600Y-12019050D02*
X19835600Y-12149050D01*
X19835600Y-12019050D02*
X19705600Y-12149050D01*
X19835600Y-12084050D02*
G75*
G03X19835600Y-12084050I-65000J0D01*
G01*
X9177500Y-9608450D02*
X9307500Y-9738450D01*
X9307500Y-9608450D02*
X9177500Y-9738450D01*
X9307500Y-9673450D02*
G75*
G03X9307500Y-9673450I-65000J0D01*
G01*
X9177500Y-10828450D02*
X9307500Y-10958450D01*
X9307500Y-10828450D02*
X9177500Y-10958450D01*
X9307500Y-10893450D02*
G75*
G03X9307500Y-10893450I-65000J0D01*
G01*
X9777500Y-11028450D02*
X9907500Y-11158450D01*
X9907500Y-11028450D02*
X9777500Y-11158450D01*
X9907500Y-11093450D02*
G75*
G03X9907500Y-11093450I-65000J0D01*
G01*
X10377500Y-9608450D02*
X10507500Y-9738450D01*
X10507500Y-9608450D02*
X10377500Y-9738450D01*
X10507500Y-9673450D02*
G75*
G03X10507500Y-9673450I-65000J0D01*
G01*
X10377500Y-10828450D02*
X10507500Y-10958450D01*
X10507500Y-10828450D02*
X10377500Y-10958450D01*
X10507500Y-10893450D02*
G75*
G03X10507500Y-10893450I-65000J0D01*
G01*
X9048900Y-11968250D02*
X9178900Y-12098250D01*
X9178900Y-11968250D02*
X9048900Y-12098250D01*
X9178900Y-12033250D02*
G75*
G03X9178900Y-12033250I-65000J0D01*
G01*
X9548900Y-11968250D02*
X9678900Y-12098250D01*
X9678900Y-11968250D02*
X9548900Y-12098250D01*
X9678900Y-12033250D02*
G75*
G03X9678900Y-12033250I-65000J0D01*
G01*
X10048900Y-11968250D02*
X10178900Y-12098250D01*
X10178900Y-11968250D02*
X10048900Y-12098250D01*
X10178900Y-12033250D02*
G75*
G03X10178900Y-12033250I-65000J0D01*
G01*
X10548900Y-11968250D02*
X10678900Y-12098250D01*
X10678900Y-11968250D02*
X10548900Y-12098250D01*
X10678900Y-12033250D02*
G75*
G03X10678900Y-12033250I-65000J0D01*
G01*
X7339100Y-5503950D02*
X7469100Y-5633950D01*
X7469100Y-5503950D02*
X7339100Y-5633950D01*
X7469100Y-5568950D02*
G75*
G03X7469100Y-5568950I-65000J0D01*
G01*
X7339100Y-6003950D02*
X7469100Y-6133950D01*
X7469100Y-6003950D02*
X7339100Y-6133950D01*
X7469100Y-6068950D02*
G75*
G03X7469100Y-6068950I-65000J0D01*
G01*
X7339100Y-6503950D02*
X7469100Y-6633950D01*
X7469100Y-6503950D02*
X7339100Y-6633950D01*
X7469100Y-6568950D02*
G75*
G03X7469100Y-6568950I-65000J0D01*
G01*
X7339100Y-7003950D02*
X7469100Y-7133950D01*
X7469100Y-7003950D02*
X7339100Y-7133950D01*
X7469100Y-7068950D02*
G75*
G03X7469100Y-7068950I-65000J0D01*
G01*
X11396980Y-11574080D02*
X11526980Y-11704080D01*
X11526980Y-11574080D02*
X11396980Y-11704080D01*
X11526980Y-11639080D02*
G75*
G03X11526980Y-11639080I-65000J0D01*
G01*
X12146980Y-11574080D02*
X12276980Y-11704080D01*
X12276980Y-11574080D02*
X12146980Y-11704080D01*
X12276980Y-11639080D02*
G75*
G03X12276980Y-11639080I-65000J0D01*
G01*
X12796980Y-11574080D02*
X12926980Y-11704080D01*
X12926980Y-11574080D02*
X12796980Y-11704080D01*
X12926980Y-11639080D02*
G75*
G03X12926980Y-11639080I-65000J0D01*
G01*
X13546980Y-11574080D02*
X13676980Y-11704080D01*
X13676980Y-11574080D02*
X13546980Y-11704080D01*
X13676980Y-11639080D02*
G75*
G03X13676980Y-11639080I-65000J0D01*
G01*
X14196980Y-11574080D02*
X14326980Y-11704080D01*
X14326980Y-11574080D02*
X14196980Y-11704080D01*
X14326980Y-11639080D02*
G75*
G03X14326980Y-11639080I-65000J0D01*
G01*
X14946980Y-11574080D02*
X15076980Y-11704080D01*
X15076980Y-11574080D02*
X14946980Y-11704080D01*
X15076980Y-11639080D02*
G75*
G03X15076980Y-11639080I-65000J0D01*
G01*
X15596980Y-11574080D02*
X15726980Y-11704080D01*
X15726980Y-11574080D02*
X15596980Y-11704080D01*
X15726980Y-11639080D02*
G75*
G03X15726980Y-11639080I-65000J0D01*
G01*
X16346980Y-11574080D02*
X16476980Y-11704080D01*
X16476980Y-11574080D02*
X16346980Y-11704080D01*
X16476980Y-11639080D02*
G75*
G03X16476980Y-11639080I-65000J0D01*
G01*
X17088000Y-12019050D02*
X17218000Y-12149050D01*
X17218000Y-12019050D02*
X17088000Y-12149050D01*
X17218000Y-12084050D02*
G75*
G03X17218000Y-12084050I-65000J0D01*
G01*
X17588000Y-12019050D02*
X17718000Y-12149050D01*
X17718000Y-12019050D02*
X17588000Y-12149050D01*
X17718000Y-12084050D02*
G75*
G03X17718000Y-12084050I-65000J0D01*
G01*
X18088000Y-12019050D02*
X18218000Y-12149050D01*
X18218000Y-12019050D02*
X18088000Y-12149050D01*
X18218000Y-12084050D02*
G75*
G03X18218000Y-12084050I-65000J0D01*
G01*
X10580300Y-5265350D02*
X10730300Y-5415350D01*
X10730300Y-5265350D02*
X10580300Y-5415350D01*
X10655300Y-5265350D02*
X10655300Y-5415350D01*
X10580300Y-5340350D02*
X10730300Y-5340350D01*
X11125300Y-5265350D02*
X11275300Y-5415350D01*
X11275300Y-5265350D02*
X11125300Y-5415350D01*
X11200300Y-5265350D02*
X11200300Y-5415350D01*
X11125300Y-5340350D02*
X11275300Y-5340350D01*
X11670300Y-5265350D02*
X11820300Y-5415350D01*
X11820300Y-5265350D02*
X11670300Y-5415350D01*
X11745300Y-5265350D02*
X11745300Y-5415350D01*
X11670300Y-5340350D02*
X11820300Y-5340350D01*
X13198700Y-5239950D02*
X13348700Y-5389950D01*
X13348700Y-5239950D02*
X13198700Y-5389950D01*
X13273700Y-5239950D02*
X13273700Y-5389950D01*
X13198700Y-5314950D02*
X13348700Y-5314950D01*
X13743700Y-5239950D02*
X13893700Y-5389950D01*
X13893700Y-5239950D02*
X13743700Y-5389950D01*
X13818700Y-5239950D02*
X13818700Y-5389950D01*
X13743700Y-5314950D02*
X13893700Y-5314950D01*
X14288700Y-5239950D02*
X14438700Y-5389950D01*
X14438700Y-5239950D02*
X14288700Y-5389950D01*
X14363700Y-5239950D02*
X14363700Y-5389950D01*
X14288700Y-5314950D02*
X14438700Y-5314950D01*
X18389200Y-5216650D02*
X18539200Y-5366650D01*
X18539200Y-5216650D02*
X18389200Y-5366650D01*
X18464200Y-5216650D02*
X18464200Y-5366650D01*
X18389200Y-5291650D02*
X18539200Y-5291650D01*
X18934200Y-5216650D02*
X19084200Y-5366650D01*
X19084200Y-5216650D02*
X18934200Y-5366650D01*
X19009200Y-5216650D02*
X19009200Y-5366650D01*
X18934200Y-5291650D02*
X19084200Y-5291650D01*
X19479200Y-5216650D02*
X19629200Y-5366650D01*
X19629200Y-5216650D02*
X19479200Y-5366650D01*
X19554200Y-5216650D02*
X19554200Y-5366650D01*
X19479200Y-5291650D02*
X19629200Y-5291650D01*
X15684200Y-5231650D02*
X15834200Y-5381650D01*
X15834200Y-5231650D02*
X15684200Y-5381650D01*
X15759200Y-5231650D02*
X15759200Y-5381650D01*
X15684200Y-5306650D02*
X15834200Y-5306650D01*
X16229200Y-5231650D02*
X16379200Y-5381650D01*
X16379200Y-5231650D02*
X16229200Y-5381650D01*
X16304200Y-5231650D02*
X16304200Y-5381650D01*
X16229200Y-5306650D02*
X16379200Y-5306650D01*
X16774200Y-5231650D02*
X16924200Y-5381650D01*
X16924200Y-5231650D02*
X16774200Y-5381650D01*
X16849200Y-5231650D02*
X16849200Y-5381650D01*
X16774200Y-5306650D02*
X16924200Y-5306650D01*
X12136980Y-12289080D02*
X12286980Y-12439080D01*
X12286980Y-12289080D02*
X12136980Y-12439080D01*
X12211980Y-12289080D02*
X12211980Y-12439080D01*
X12136980Y-12364080D02*
X12286980Y-12364080D01*
X13536980Y-12289080D02*
X13686980Y-12439080D01*
X13686980Y-12289080D02*
X13536980Y-12439080D01*
X13611980Y-12289080D02*
X13611980Y-12439080D01*
X13536980Y-12364080D02*
X13686980Y-12364080D01*
X14936980Y-12289080D02*
X15086980Y-12439080D01*
X15086980Y-12289080D02*
X14936980Y-12439080D01*
X15011980Y-12289080D02*
X15011980Y-12439080D01*
X14936980Y-12364080D02*
X15086980Y-12364080D01*
X16336980Y-12289080D02*
X16486980Y-12439080D01*
X16486980Y-12289080D02*
X16336980Y-12439080D01*
X16411980Y-12289080D02*
X16411980Y-12439080D01*
X16336980Y-12364080D02*
X16486980Y-12364080D01*
X11136980Y-11929080D02*
X11306980Y-12099080D01*
X11306980Y-11929080D02*
X11136980Y-12099080D01*
X11282085Y-12074185D02*
X11282085Y-11953975D01*
X11161875Y-11953975D01*
X11161875Y-12074185D01*
X11282085Y-12074185D01*
X16566980Y-11929080D02*
X16736980Y-12099080D01*
X16736980Y-11929080D02*
X16566980Y-12099080D01*
X16712085Y-12074185D02*
X16712085Y-11953975D01*
X16591875Y-11953975D01*
X16591875Y-12074185D01*
X16712085Y-12074185D01*
X13786980Y-11864080D02*
X14086980Y-12164080D01*
X14086980Y-11864080D02*
X13786980Y-12164080D01*
X13936980Y-12164080D02*
X14086980Y-12014080D01*
X13936980Y-11864080D01*
X13786980Y-12014080D01*
X13936980Y-12164080D01*
D11*
X7058228Y-13124914D02*
X7058228Y-12824914D01*
X7129657Y-12824914D01*
X7172514Y-12839200D01*
X7201086Y-12867771D01*
X7215371Y-12896343D01*
X7229657Y-12953486D01*
X7229657Y-12996343D01*
X7215371Y-13053486D01*
X7201086Y-13082057D01*
X7172514Y-13110629D01*
X7129657Y-13124914D01*
X7058228Y-13124914D01*
X7358228Y-13124914D02*
X7358228Y-12924914D01*
X7358228Y-12982057D02*
X7372514Y-12953486D01*
X7386800Y-12939200D01*
X7415371Y-12924914D01*
X7443943Y-12924914D01*
X7543943Y-13124914D02*
X7543943Y-12924914D01*
X7543943Y-12824914D02*
X7529657Y-12839200D01*
X7543943Y-12853486D01*
X7558228Y-12839200D01*
X7543943Y-12824914D01*
X7543943Y-12853486D01*
X7729657Y-13124914D02*
X7701086Y-13110629D01*
X7686800Y-13082057D01*
X7686800Y-12824914D01*
X7886800Y-13124914D02*
X7858228Y-13110629D01*
X7843943Y-13082057D01*
X7843943Y-12824914D01*
X8229657Y-13124914D02*
X8229657Y-12824914D01*
X8329657Y-13039200D01*
X8429657Y-12824914D01*
X8429657Y-13124914D01*
X8701086Y-13124914D02*
X8701086Y-12967771D01*
X8686800Y-12939200D01*
X8658228Y-12924914D01*
X8601086Y-12924914D01*
X8572514Y-12939200D01*
X8701086Y-13110629D02*
X8672514Y-13124914D01*
X8601086Y-13124914D01*
X8572514Y-13110629D01*
X8558228Y-13082057D01*
X8558228Y-13053486D01*
X8572514Y-13024914D01*
X8601086Y-13010629D01*
X8672514Y-13010629D01*
X8701086Y-12996343D01*
X8843943Y-12924914D02*
X8843943Y-13224914D01*
X8843943Y-12939200D02*
X8872514Y-12924914D01*
X8929657Y-12924914D01*
X8958228Y-12939200D01*
X8972514Y-12953486D01*
X8986800Y-12982057D01*
X8986800Y-13067771D01*
X8972514Y-13096343D01*
X8958228Y-13110629D01*
X8929657Y-13124914D01*
X8872514Y-13124914D01*
X8843943Y-13110629D01*
X9115371Y-13096343D02*
X9129657Y-13110629D01*
X9115371Y-13124914D01*
X9101086Y-13110629D01*
X9115371Y-13096343D01*
X9115371Y-13124914D01*
X9115371Y-12939200D02*
X9129657Y-12953486D01*
X9115371Y-12967771D01*
X9101086Y-12953486D01*
X9115371Y-12939200D01*
X9115371Y-12967771D01*
X6741800Y-13604200D02*
X6771800Y-13634200D01*
X6771800Y-13604200D02*
X6741800Y-13634200D01*
X7115371Y-13454914D02*
X7143943Y-13454914D01*
X7172514Y-13469200D01*
X7186800Y-13483486D01*
X7201086Y-13512057D01*
X7215371Y-13569200D01*
X7215371Y-13640629D01*
X7201086Y-13697771D01*
X7186800Y-13726343D01*
X7172514Y-13740629D01*
X7143943Y-13754914D01*
X7115371Y-13754914D01*
X7086800Y-13740629D01*
X7072514Y-13726343D01*
X7058228Y-13697771D01*
X7043943Y-13640629D01*
X7043943Y-13569200D01*
X7058228Y-13512057D01*
X7072514Y-13483486D01*
X7086800Y-13469200D01*
X7115371Y-13454914D01*
X7343943Y-13726343D02*
X7358228Y-13740629D01*
X7343943Y-13754914D01*
X7329657Y-13740629D01*
X7343943Y-13726343D01*
X7343943Y-13754914D01*
X7458228Y-13454914D02*
X7643943Y-13454914D01*
X7543943Y-13569200D01*
X7586800Y-13569200D01*
X7615371Y-13583486D01*
X7629657Y-13597771D01*
X7643943Y-13626343D01*
X7643943Y-13697771D01*
X7629657Y-13726343D01*
X7615371Y-13740629D01*
X7586800Y-13754914D01*
X7501086Y-13754914D01*
X7472514Y-13740629D01*
X7458228Y-13726343D01*
X7829657Y-13454914D02*
X7858228Y-13454914D01*
X7886800Y-13469200D01*
X7901086Y-13483486D01*
X7915371Y-13512057D01*
X7929657Y-13569200D01*
X7929657Y-13640629D01*
X7915371Y-13697771D01*
X7901086Y-13726343D01*
X7886800Y-13740629D01*
X7858228Y-13754914D01*
X7829657Y-13754914D01*
X7801086Y-13740629D01*
X7786800Y-13726343D01*
X7772514Y-13697771D01*
X7758228Y-13640629D01*
X7758228Y-13569200D01*
X7772514Y-13512057D01*
X7786800Y-13483486D01*
X7801086Y-13469200D01*
X7829657Y-13454914D01*
X8058228Y-13754914D02*
X8058228Y-13554914D01*
X8058228Y-13583486D02*
X8072514Y-13569200D01*
X8101086Y-13554914D01*
X8143943Y-13554914D01*
X8172514Y-13569200D01*
X8186800Y-13597771D01*
X8186800Y-13754914D01*
X8186800Y-13597771D02*
X8201086Y-13569200D01*
X8229657Y-13554914D01*
X8272514Y-13554914D01*
X8301086Y-13569200D01*
X8315371Y-13597771D01*
X8315371Y-13754914D01*
X8458228Y-13754914D02*
X8458228Y-13554914D01*
X8458228Y-13583486D02*
X8472514Y-13569200D01*
X8501086Y-13554914D01*
X8543943Y-13554914D01*
X8572514Y-13569200D01*
X8586800Y-13597771D01*
X8586800Y-13754914D01*
X8586800Y-13597771D02*
X8601086Y-13569200D01*
X8629657Y-13554914D01*
X8672514Y-13554914D01*
X8701086Y-13569200D01*
X8715371Y-13597771D01*
X8715371Y-13754914D01*
X9301086Y-13440629D02*
X9043943Y-13826343D01*
X9686800Y-13454914D02*
X9715371Y-13454914D01*
X9743943Y-13469200D01*
X9758228Y-13483486D01*
X9772514Y-13512057D01*
X9786800Y-13569200D01*
X9786800Y-13640629D01*
X9772514Y-13697771D01*
X9758228Y-13726343D01*
X9743943Y-13740629D01*
X9715371Y-13754914D01*
X9686800Y-13754914D01*
X9658228Y-13740629D01*
X9643943Y-13726343D01*
X9629657Y-13697771D01*
X9615371Y-13640629D01*
X9615371Y-13569200D01*
X9629657Y-13512057D01*
X9643943Y-13483486D01*
X9658228Y-13469200D01*
X9686800Y-13454914D01*
X9915371Y-13726343D02*
X9929657Y-13740629D01*
X9915371Y-13754914D01*
X9901086Y-13740629D01*
X9915371Y-13726343D01*
X9915371Y-13754914D01*
X10115371Y-13454914D02*
X10143943Y-13454914D01*
X10172514Y-13469200D01*
X10186800Y-13483486D01*
X10201086Y-13512057D01*
X10215371Y-13569200D01*
X10215371Y-13640629D01*
X10201086Y-13697771D01*
X10186800Y-13726343D01*
X10172514Y-13740629D01*
X10143943Y-13754914D01*
X10115371Y-13754914D01*
X10086800Y-13740629D01*
X10072514Y-13726343D01*
X10058228Y-13697771D01*
X10043943Y-13640629D01*
X10043943Y-13569200D01*
X10058228Y-13512057D01*
X10072514Y-13483486D01*
X10086800Y-13469200D01*
X10115371Y-13454914D01*
X10501086Y-13754914D02*
X10329657Y-13754914D01*
X10415371Y-13754914D02*
X10415371Y-13454914D01*
X10386800Y-13497771D01*
X10358228Y-13526343D01*
X10329657Y-13540629D01*
X10615371Y-13483486D02*
X10629657Y-13469200D01*
X10658228Y-13454914D01*
X10729657Y-13454914D01*
X10758228Y-13469200D01*
X10772514Y-13483486D01*
X10786800Y-13512057D01*
X10786800Y-13540629D01*
X10772514Y-13583486D01*
X10601086Y-13754914D01*
X10786800Y-13754914D01*
X10901086Y-13454914D02*
X10901086Y-13512057D01*
X11015371Y-13454914D02*
X11015371Y-13512057D01*
X11458228Y-13869200D02*
X11443943Y-13854914D01*
X11415371Y-13812057D01*
X11401086Y-13783486D01*
X11386800Y-13740629D01*
X11372514Y-13669200D01*
X11372514Y-13612057D01*
X11386800Y-13540629D01*
X11401086Y-13497771D01*
X11415371Y-13469200D01*
X11443943Y-13426343D01*
X11458228Y-13412057D01*
X11543943Y-13454914D02*
X11729657Y-13454914D01*
X11629657Y-13569200D01*
X11672514Y-13569200D01*
X11701086Y-13583486D01*
X11715371Y-13597771D01*
X11729657Y-13626343D01*
X11729657Y-13697771D01*
X11715371Y-13726343D01*
X11701086Y-13740629D01*
X11672514Y-13754914D01*
X11586800Y-13754914D01*
X11558228Y-13740629D01*
X11543943Y-13726343D01*
X11986800Y-13554914D02*
X11986800Y-13754914D01*
X11915371Y-13440629D02*
X11843943Y-13654914D01*
X12029657Y-13654914D01*
X12372514Y-13754914D02*
X12372514Y-13454914D01*
X12501086Y-13754914D02*
X12501086Y-13597771D01*
X12486800Y-13569200D01*
X12458228Y-13554914D01*
X12415371Y-13554914D01*
X12386800Y-13569200D01*
X12372514Y-13583486D01*
X12686800Y-13754914D02*
X12658228Y-13740629D01*
X12643943Y-13726343D01*
X12629657Y-13697771D01*
X12629657Y-13612057D01*
X12643943Y-13583486D01*
X12658228Y-13569200D01*
X12686800Y-13554914D01*
X12729657Y-13554914D01*
X12758228Y-13569200D01*
X12772514Y-13583486D01*
X12786800Y-13612057D01*
X12786800Y-13697771D01*
X12772514Y-13726343D01*
X12758228Y-13740629D01*
X12729657Y-13754914D01*
X12686800Y-13754914D01*
X12958228Y-13754914D02*
X12929657Y-13740629D01*
X12915371Y-13712057D01*
X12915371Y-13454914D01*
X13186800Y-13740629D02*
X13158228Y-13754914D01*
X13101086Y-13754914D01*
X13072514Y-13740629D01*
X13058228Y-13712057D01*
X13058228Y-13597771D01*
X13072514Y-13569200D01*
X13101086Y-13554914D01*
X13158228Y-13554914D01*
X13186800Y-13569200D01*
X13201086Y-13597771D01*
X13201086Y-13626343D01*
X13058228Y-13654914D01*
X13315371Y-13740629D02*
X13343943Y-13754914D01*
X13401086Y-13754914D01*
X13429657Y-13740629D01*
X13443943Y-13712057D01*
X13443943Y-13697771D01*
X13429657Y-13669200D01*
X13401086Y-13654914D01*
X13358228Y-13654914D01*
X13329657Y-13640629D01*
X13315371Y-13612057D01*
X13315371Y-13597771D01*
X13329657Y-13569200D01*
X13358228Y-13554914D01*
X13401086Y-13554914D01*
X13429657Y-13569200D01*
X13543943Y-13869200D02*
X13558228Y-13854914D01*
X13586800Y-13812057D01*
X13601086Y-13783486D01*
X13615371Y-13740629D01*
X13629657Y-13669200D01*
X13629657Y-13612057D01*
X13615371Y-13540629D01*
X13601086Y-13497771D01*
X13586800Y-13469200D01*
X13558228Y-13426343D01*
X13543943Y-13412057D01*
X6771800Y-14015200D02*
G75*
G03X6771800Y-14015200I-20000J0D01*
G01*
X7115371Y-13850914D02*
X7143943Y-13850914D01*
X7172514Y-13865200D01*
X7186800Y-13879486D01*
X7201086Y-13908057D01*
X7215371Y-13965200D01*
X7215371Y-14036629D01*
X7201086Y-14093771D01*
X7186800Y-14122343D01*
X7172514Y-14136629D01*
X7143943Y-14150914D01*
X7115371Y-14150914D01*
X7086800Y-14136629D01*
X7072514Y-14122343D01*
X7058228Y-14093771D01*
X7043943Y-14036629D01*
X7043943Y-13965200D01*
X7058228Y-13908057D01*
X7072514Y-13879486D01*
X7086800Y-13865200D01*
X7115371Y-13850914D01*
X7343943Y-14122343D02*
X7358228Y-14136629D01*
X7343943Y-14150914D01*
X7329657Y-14136629D01*
X7343943Y-14122343D01*
X7343943Y-14150914D01*
X7615371Y-13950914D02*
X7615371Y-14150914D01*
X7543943Y-13836629D02*
X7472514Y-14050914D01*
X7658228Y-14050914D01*
X7829657Y-13850914D02*
X7858228Y-13850914D01*
X7886800Y-13865200D01*
X7901086Y-13879486D01*
X7915371Y-13908057D01*
X7929657Y-13965200D01*
X7929657Y-14036629D01*
X7915371Y-14093771D01*
X7901086Y-14122343D01*
X7886800Y-14136629D01*
X7858228Y-14150914D01*
X7829657Y-14150914D01*
X7801086Y-14136629D01*
X7786800Y-14122343D01*
X7772514Y-14093771D01*
X7758228Y-14036629D01*
X7758228Y-13965200D01*
X7772514Y-13908057D01*
X7786800Y-13879486D01*
X7801086Y-13865200D01*
X7829657Y-13850914D01*
X8058228Y-14150914D02*
X8058228Y-13950914D01*
X8058228Y-13979486D02*
X8072514Y-13965200D01*
X8101086Y-13950914D01*
X8143943Y-13950914D01*
X8172514Y-13965200D01*
X8186800Y-13993771D01*
X8186800Y-14150914D01*
X8186800Y-13993771D02*
X8201086Y-13965200D01*
X8229657Y-13950914D01*
X8272514Y-13950914D01*
X8301086Y-13965200D01*
X8315371Y-13993771D01*
X8315371Y-14150914D01*
X8458228Y-14150914D02*
X8458228Y-13950914D01*
X8458228Y-13979486D02*
X8472514Y-13965200D01*
X8501086Y-13950914D01*
X8543943Y-13950914D01*
X8572514Y-13965200D01*
X8586800Y-13993771D01*
X8586800Y-14150914D01*
X8586800Y-13993771D02*
X8601086Y-13965200D01*
X8629657Y-13950914D01*
X8672514Y-13950914D01*
X8701086Y-13965200D01*
X8715371Y-13993771D01*
X8715371Y-14150914D01*
X9301086Y-13836629D02*
X9043943Y-14222343D01*
X9686800Y-13850914D02*
X9715371Y-13850914D01*
X9743943Y-13865200D01*
X9758228Y-13879486D01*
X9772514Y-13908057D01*
X9786800Y-13965200D01*
X9786800Y-14036629D01*
X9772514Y-14093771D01*
X9758228Y-14122343D01*
X9743943Y-14136629D01*
X9715371Y-14150914D01*
X9686800Y-14150914D01*
X9658228Y-14136629D01*
X9643943Y-14122343D01*
X9629657Y-14093771D01*
X9615371Y-14036629D01*
X9615371Y-13965200D01*
X9629657Y-13908057D01*
X9643943Y-13879486D01*
X9658228Y-13865200D01*
X9686800Y-13850914D01*
X9915371Y-14122343D02*
X9929657Y-14136629D01*
X9915371Y-14150914D01*
X9901086Y-14136629D01*
X9915371Y-14122343D01*
X9915371Y-14150914D01*
X10115371Y-13850914D02*
X10143943Y-13850914D01*
X10172514Y-13865200D01*
X10186800Y-13879486D01*
X10201086Y-13908057D01*
X10215371Y-13965200D01*
X10215371Y-14036629D01*
X10201086Y-14093771D01*
X10186800Y-14122343D01*
X10172514Y-14136629D01*
X10143943Y-14150914D01*
X10115371Y-14150914D01*
X10086800Y-14136629D01*
X10072514Y-14122343D01*
X10058228Y-14093771D01*
X10043943Y-14036629D01*
X10043943Y-13965200D01*
X10058228Y-13908057D01*
X10072514Y-13879486D01*
X10086800Y-13865200D01*
X10115371Y-13850914D01*
X10501086Y-14150914D02*
X10329657Y-14150914D01*
X10415371Y-14150914D02*
X10415371Y-13850914D01*
X10386800Y-13893771D01*
X10358228Y-13922343D01*
X10329657Y-13936629D01*
X10758228Y-13850914D02*
X10701086Y-13850914D01*
X10672514Y-13865200D01*
X10658228Y-13879486D01*
X10629657Y-13922343D01*
X10615371Y-13979486D01*
X10615371Y-14093771D01*
X10629657Y-14122343D01*
X10643943Y-14136629D01*
X10672514Y-14150914D01*
X10729657Y-14150914D01*
X10758228Y-14136629D01*
X10772514Y-14122343D01*
X10786800Y-14093771D01*
X10786800Y-14022343D01*
X10772514Y-13993771D01*
X10758228Y-13979486D01*
X10729657Y-13965200D01*
X10672514Y-13965200D01*
X10643943Y-13979486D01*
X10629657Y-13993771D01*
X10615371Y-14022343D01*
X10901086Y-13850914D02*
X10901086Y-13908057D01*
X11015371Y-13850914D02*
X11015371Y-13908057D01*
X11458228Y-14265200D02*
X11443943Y-14250914D01*
X11415371Y-14208057D01*
X11401086Y-14179486D01*
X11386800Y-14136629D01*
X11372514Y-14065200D01*
X11372514Y-14008057D01*
X11386800Y-13936629D01*
X11401086Y-13893771D01*
X11415371Y-13865200D01*
X11443943Y-13822343D01*
X11458228Y-13808057D01*
X11558228Y-13879486D02*
X11572514Y-13865200D01*
X11601086Y-13850914D01*
X11672514Y-13850914D01*
X11701086Y-13865200D01*
X11715371Y-13879486D01*
X11729657Y-13908057D01*
X11729657Y-13936629D01*
X11715371Y-13979486D01*
X11543943Y-14150914D01*
X11729657Y-14150914D01*
X11915371Y-13850914D02*
X11943943Y-13850914D01*
X11972514Y-13865200D01*
X11986800Y-13879486D01*
X12001086Y-13908057D01*
X12015371Y-13965200D01*
X12015371Y-14036629D01*
X12001086Y-14093771D01*
X11986800Y-14122343D01*
X11972514Y-14136629D01*
X11943943Y-14150914D01*
X11915371Y-14150914D01*
X11886800Y-14136629D01*
X11872514Y-14122343D01*
X11858228Y-14093771D01*
X11843943Y-14036629D01*
X11843943Y-13965200D01*
X11858228Y-13908057D01*
X11872514Y-13879486D01*
X11886800Y-13865200D01*
X11915371Y-13850914D01*
X12129657Y-13879486D02*
X12143943Y-13865200D01*
X12172514Y-13850914D01*
X12243943Y-13850914D01*
X12272514Y-13865200D01*
X12286800Y-13879486D01*
X12301086Y-13908057D01*
X12301086Y-13936629D01*
X12286800Y-13979486D01*
X12115371Y-14150914D01*
X12301086Y-14150914D01*
X12658228Y-14150914D02*
X12658228Y-13850914D01*
X12786800Y-14150914D02*
X12786800Y-13993771D01*
X12772514Y-13965200D01*
X12743943Y-13950914D01*
X12701086Y-13950914D01*
X12672514Y-13965200D01*
X12658228Y-13979486D01*
X12972514Y-14150914D02*
X12943943Y-14136629D01*
X12929657Y-14122343D01*
X12915371Y-14093771D01*
X12915371Y-14008057D01*
X12929657Y-13979486D01*
X12943943Y-13965200D01*
X12972514Y-13950914D01*
X13015371Y-13950914D01*
X13043943Y-13965200D01*
X13058228Y-13979486D01*
X13072514Y-14008057D01*
X13072514Y-14093771D01*
X13058228Y-14122343D01*
X13043943Y-14136629D01*
X13015371Y-14150914D01*
X12972514Y-14150914D01*
X13243943Y-14150914D02*
X13215371Y-14136629D01*
X13201086Y-14108057D01*
X13201086Y-13850914D01*
X13472514Y-14136629D02*
X13443943Y-14150914D01*
X13386800Y-14150914D01*
X13358228Y-14136629D01*
X13343943Y-14108057D01*
X13343943Y-13993771D01*
X13358228Y-13965200D01*
X13386800Y-13950914D01*
X13443943Y-13950914D01*
X13472514Y-13965200D01*
X13486800Y-13993771D01*
X13486800Y-14022343D01*
X13343943Y-14050914D01*
X13601086Y-14136629D02*
X13629657Y-14150914D01*
X13686800Y-14150914D01*
X13715371Y-14136629D01*
X13729657Y-14108057D01*
X13729657Y-14093771D01*
X13715371Y-14065200D01*
X13686800Y-14050914D01*
X13643943Y-14050914D01*
X13615371Y-14036629D01*
X13601086Y-14008057D01*
X13601086Y-13993771D01*
X13615371Y-13965200D01*
X13643943Y-13950914D01*
X13686800Y-13950914D01*
X13715371Y-13965200D01*
X13829657Y-14265200D02*
X13843943Y-14250914D01*
X13872514Y-14208057D01*
X13886800Y-14179486D01*
X13901086Y-14136629D01*
X13915371Y-14065200D01*
X13915371Y-14008057D01*
X13901086Y-13936629D01*
X13886800Y-13893771D01*
X13872514Y-13865200D01*
X13843943Y-13822343D01*
X13829657Y-13808057D01*
X6733700Y-14373100D02*
X6733700Y-14449300D01*
X6695600Y-14411200D02*
X6771800Y-14411200D01*
X7115371Y-14246914D02*
X7143943Y-14246914D01*
X7172514Y-14261200D01*
X7186800Y-14275486D01*
X7201086Y-14304057D01*
X7215371Y-14361200D01*
X7215371Y-14432629D01*
X7201086Y-14489771D01*
X7186800Y-14518343D01*
X7172514Y-14532629D01*
X7143943Y-14546914D01*
X7115371Y-14546914D01*
X7086800Y-14532629D01*
X7072514Y-14518343D01*
X7058228Y-14489771D01*
X7043943Y-14432629D01*
X7043943Y-14361200D01*
X7058228Y-14304057D01*
X7072514Y-14275486D01*
X7086800Y-14261200D01*
X7115371Y-14246914D01*
X7343943Y-14518343D02*
X7358228Y-14532629D01*
X7343943Y-14546914D01*
X7329657Y-14532629D01*
X7343943Y-14518343D01*
X7343943Y-14546914D01*
X7458228Y-14246914D02*
X7658228Y-14246914D01*
X7529657Y-14546914D01*
X7901086Y-14246914D02*
X7843943Y-14246914D01*
X7815371Y-14261200D01*
X7801086Y-14275486D01*
X7772514Y-14318343D01*
X7758228Y-14375486D01*
X7758228Y-14489771D01*
X7772514Y-14518343D01*
X7786800Y-14532629D01*
X7815371Y-14546914D01*
X7872514Y-14546914D01*
X7901086Y-14532629D01*
X7915371Y-14518343D01*
X7929657Y-14489771D01*
X7929657Y-14418343D01*
X7915371Y-14389771D01*
X7901086Y-14375486D01*
X7872514Y-14361200D01*
X7815371Y-14361200D01*
X7786800Y-14375486D01*
X7772514Y-14389771D01*
X7758228Y-14418343D01*
X8058228Y-14546914D02*
X8058228Y-14346914D01*
X8058228Y-14375486D02*
X8072514Y-14361200D01*
X8101086Y-14346914D01*
X8143943Y-14346914D01*
X8172514Y-14361200D01*
X8186800Y-14389771D01*
X8186800Y-14546914D01*
X8186800Y-14389771D02*
X8201086Y-14361200D01*
X8229657Y-14346914D01*
X8272514Y-14346914D01*
X8301086Y-14361200D01*
X8315371Y-14389771D01*
X8315371Y-14546914D01*
X8458228Y-14546914D02*
X8458228Y-14346914D01*
X8458228Y-14375486D02*
X8472514Y-14361200D01*
X8501086Y-14346914D01*
X8543943Y-14346914D01*
X8572514Y-14361200D01*
X8586800Y-14389771D01*
X8586800Y-14546914D01*
X8586800Y-14389771D02*
X8601086Y-14361200D01*
X8629657Y-14346914D01*
X8672514Y-14346914D01*
X8701086Y-14361200D01*
X8715371Y-14389771D01*
X8715371Y-14546914D01*
X9301086Y-14232629D02*
X9043943Y-14618343D01*
X9686800Y-14246914D02*
X9715371Y-14246914D01*
X9743943Y-14261200D01*
X9758228Y-14275486D01*
X9772514Y-14304057D01*
X9786800Y-14361200D01*
X9786800Y-14432629D01*
X9772514Y-14489771D01*
X9758228Y-14518343D01*
X9743943Y-14532629D01*
X9715371Y-14546914D01*
X9686800Y-14546914D01*
X9658228Y-14532629D01*
X9643943Y-14518343D01*
X9629657Y-14489771D01*
X9615371Y-14432629D01*
X9615371Y-14361200D01*
X9629657Y-14304057D01*
X9643943Y-14275486D01*
X9658228Y-14261200D01*
X9686800Y-14246914D01*
X9915371Y-14518343D02*
X9929657Y-14532629D01*
X9915371Y-14546914D01*
X9901086Y-14532629D01*
X9915371Y-14518343D01*
X9915371Y-14546914D01*
X10115371Y-14246914D02*
X10143943Y-14246914D01*
X10172514Y-14261200D01*
X10186800Y-14275486D01*
X10201086Y-14304057D01*
X10215371Y-14361200D01*
X10215371Y-14432629D01*
X10201086Y-14489771D01*
X10186800Y-14518343D01*
X10172514Y-14532629D01*
X10143943Y-14546914D01*
X10115371Y-14546914D01*
X10086800Y-14532629D01*
X10072514Y-14518343D01*
X10058228Y-14489771D01*
X10043943Y-14432629D01*
X10043943Y-14361200D01*
X10058228Y-14304057D01*
X10072514Y-14275486D01*
X10086800Y-14261200D01*
X10115371Y-14246914D01*
X10315371Y-14246914D02*
X10501086Y-14246914D01*
X10401086Y-14361200D01*
X10443943Y-14361200D01*
X10472514Y-14375486D01*
X10486800Y-14389771D01*
X10501086Y-14418343D01*
X10501086Y-14489771D01*
X10486800Y-14518343D01*
X10472514Y-14532629D01*
X10443943Y-14546914D01*
X10358228Y-14546914D01*
X10329657Y-14532629D01*
X10315371Y-14518343D01*
X10686800Y-14246914D02*
X10715371Y-14246914D01*
X10743943Y-14261200D01*
X10758228Y-14275486D01*
X10772514Y-14304057D01*
X10786800Y-14361200D01*
X10786800Y-14432629D01*
X10772514Y-14489771D01*
X10758228Y-14518343D01*
X10743943Y-14532629D01*
X10715371Y-14546914D01*
X10686800Y-14546914D01*
X10658228Y-14532629D01*
X10643943Y-14518343D01*
X10629657Y-14489771D01*
X10615371Y-14432629D01*
X10615371Y-14361200D01*
X10629657Y-14304057D01*
X10643943Y-14275486D01*
X10658228Y-14261200D01*
X10686800Y-14246914D01*
X10901086Y-14246914D02*
X10901086Y-14304057D01*
X11015371Y-14246914D02*
X11015371Y-14304057D01*
X11458228Y-14661200D02*
X11443943Y-14646914D01*
X11415371Y-14604057D01*
X11401086Y-14575486D01*
X11386800Y-14532629D01*
X11372514Y-14461200D01*
X11372514Y-14404057D01*
X11386800Y-14332629D01*
X11401086Y-14289771D01*
X11415371Y-14261200D01*
X11443943Y-14218343D01*
X11458228Y-14204057D01*
X11543943Y-14246914D02*
X11729657Y-14246914D01*
X11629657Y-14361200D01*
X11672514Y-14361200D01*
X11701086Y-14375486D01*
X11715371Y-14389771D01*
X11729657Y-14418343D01*
X11729657Y-14489771D01*
X11715371Y-14518343D01*
X11701086Y-14532629D01*
X11672514Y-14546914D01*
X11586800Y-14546914D01*
X11558228Y-14532629D01*
X11543943Y-14518343D01*
X12086800Y-14546914D02*
X12086800Y-14246914D01*
X12215371Y-14546914D02*
X12215371Y-14389771D01*
X12201086Y-14361200D01*
X12172514Y-14346914D01*
X12129657Y-14346914D01*
X12101086Y-14361200D01*
X12086800Y-14375486D01*
X12401086Y-14546914D02*
X12372514Y-14532629D01*
X12358228Y-14518343D01*
X12343943Y-14489771D01*
X12343943Y-14404057D01*
X12358228Y-14375486D01*
X12372514Y-14361200D01*
X12401086Y-14346914D01*
X12443943Y-14346914D01*
X12472514Y-14361200D01*
X12486800Y-14375486D01*
X12501086Y-14404057D01*
X12501086Y-14489771D01*
X12486800Y-14518343D01*
X12472514Y-14532629D01*
X12443943Y-14546914D01*
X12401086Y-14546914D01*
X12672514Y-14546914D02*
X12643943Y-14532629D01*
X12629657Y-14504057D01*
X12629657Y-14246914D01*
X12901086Y-14532629D02*
X12872514Y-14546914D01*
X12815371Y-14546914D01*
X12786800Y-14532629D01*
X12772514Y-14504057D01*
X12772514Y-14389771D01*
X12786800Y-14361200D01*
X12815371Y-14346914D01*
X12872514Y-14346914D01*
X12901086Y-14361200D01*
X12915371Y-14389771D01*
X12915371Y-14418343D01*
X12772514Y-14446914D01*
X13029657Y-14532629D02*
X13058228Y-14546914D01*
X13115371Y-14546914D01*
X13143943Y-14532629D01*
X13158228Y-14504057D01*
X13158228Y-14489771D01*
X13143943Y-14461200D01*
X13115371Y-14446914D01*
X13072514Y-14446914D01*
X13043943Y-14432629D01*
X13029657Y-14404057D01*
X13029657Y-14389771D01*
X13043943Y-14361200D01*
X13072514Y-14346914D01*
X13115371Y-14346914D01*
X13143943Y-14361200D01*
X13258228Y-14661200D02*
X13272514Y-14646914D01*
X13301086Y-14604057D01*
X13315371Y-14575486D01*
X13329657Y-14532629D01*
X13343943Y-14461200D01*
X13343943Y-14404057D01*
X13329657Y-14332629D01*
X13315371Y-14289771D01*
X13301086Y-14261200D01*
X13272514Y-14218343D01*
X13258228Y-14204057D01*
X6760084Y-14835485D02*
X6760084Y-14778916D01*
X6703515Y-14778916D01*
X6703515Y-14835485D01*
X6760084Y-14835485D01*
X7115371Y-14642914D02*
X7143943Y-14642914D01*
X7172514Y-14657200D01*
X7186800Y-14671486D01*
X7201086Y-14700057D01*
X7215371Y-14757200D01*
X7215371Y-14828629D01*
X7201086Y-14885771D01*
X7186800Y-14914343D01*
X7172514Y-14928629D01*
X7143943Y-14942914D01*
X7115371Y-14942914D01*
X7086800Y-14928629D01*
X7072514Y-14914343D01*
X7058228Y-14885771D01*
X7043943Y-14828629D01*
X7043943Y-14757200D01*
X7058228Y-14700057D01*
X7072514Y-14671486D01*
X7086800Y-14657200D01*
X7115371Y-14642914D01*
X7343943Y-14914343D02*
X7358228Y-14928629D01*
X7343943Y-14942914D01*
X7329657Y-14928629D01*
X7343943Y-14914343D01*
X7343943Y-14942914D01*
X7529657Y-14771486D02*
X7501086Y-14757200D01*
X7486800Y-14742914D01*
X7472514Y-14714343D01*
X7472514Y-14700057D01*
X7486800Y-14671486D01*
X7501086Y-14657200D01*
X7529657Y-14642914D01*
X7586800Y-14642914D01*
X7615371Y-14657200D01*
X7629657Y-14671486D01*
X7643943Y-14700057D01*
X7643943Y-14714343D01*
X7629657Y-14742914D01*
X7615371Y-14757200D01*
X7586800Y-14771486D01*
X7529657Y-14771486D01*
X7501086Y-14785771D01*
X7486800Y-14800057D01*
X7472514Y-14828629D01*
X7472514Y-14885771D01*
X7486800Y-14914343D01*
X7501086Y-14928629D01*
X7529657Y-14942914D01*
X7586800Y-14942914D01*
X7615371Y-14928629D01*
X7629657Y-14914343D01*
X7643943Y-14885771D01*
X7643943Y-14828629D01*
X7629657Y-14800057D01*
X7615371Y-14785771D01*
X7586800Y-14771486D01*
X7829657Y-14642914D02*
X7858228Y-14642914D01*
X7886800Y-14657200D01*
X7901086Y-14671486D01*
X7915371Y-14700057D01*
X7929657Y-14757200D01*
X7929657Y-14828629D01*
X7915371Y-14885771D01*
X7901086Y-14914343D01*
X7886800Y-14928629D01*
X7858228Y-14942914D01*
X7829657Y-14942914D01*
X7801086Y-14928629D01*
X7786800Y-14914343D01*
X7772514Y-14885771D01*
X7758228Y-14828629D01*
X7758228Y-14757200D01*
X7772514Y-14700057D01*
X7786800Y-14671486D01*
X7801086Y-14657200D01*
X7829657Y-14642914D01*
X8058228Y-14942914D02*
X8058228Y-14742914D01*
X8058228Y-14771486D02*
X8072514Y-14757200D01*
X8101086Y-14742914D01*
X8143943Y-14742914D01*
X8172514Y-14757200D01*
X8186800Y-14785771D01*
X8186800Y-14942914D01*
X8186800Y-14785771D02*
X8201086Y-14757200D01*
X8229657Y-14742914D01*
X8272514Y-14742914D01*
X8301086Y-14757200D01*
X8315371Y-14785771D01*
X8315371Y-14942914D01*
X8458228Y-14942914D02*
X8458228Y-14742914D01*
X8458228Y-14771486D02*
X8472514Y-14757200D01*
X8501086Y-14742914D01*
X8543943Y-14742914D01*
X8572514Y-14757200D01*
X8586800Y-14785771D01*
X8586800Y-14942914D01*
X8586800Y-14785771D02*
X8601086Y-14757200D01*
X8629657Y-14742914D01*
X8672514Y-14742914D01*
X8701086Y-14757200D01*
X8715371Y-14785771D01*
X8715371Y-14942914D01*
X9301086Y-14628629D02*
X9043943Y-15014343D01*
X9686800Y-14642914D02*
X9715371Y-14642914D01*
X9743943Y-14657200D01*
X9758228Y-14671486D01*
X9772514Y-14700057D01*
X9786800Y-14757200D01*
X9786800Y-14828629D01*
X9772514Y-14885771D01*
X9758228Y-14914343D01*
X9743943Y-14928629D01*
X9715371Y-14942914D01*
X9686800Y-14942914D01*
X9658228Y-14928629D01*
X9643943Y-14914343D01*
X9629657Y-14885771D01*
X9615371Y-14828629D01*
X9615371Y-14757200D01*
X9629657Y-14700057D01*
X9643943Y-14671486D01*
X9658228Y-14657200D01*
X9686800Y-14642914D01*
X9915371Y-14914343D02*
X9929657Y-14928629D01*
X9915371Y-14942914D01*
X9901086Y-14928629D01*
X9915371Y-14914343D01*
X9915371Y-14942914D01*
X10115371Y-14642914D02*
X10143943Y-14642914D01*
X10172514Y-14657200D01*
X10186800Y-14671486D01*
X10201086Y-14700057D01*
X10215371Y-14757200D01*
X10215371Y-14828629D01*
X10201086Y-14885771D01*
X10186800Y-14914343D01*
X10172514Y-14928629D01*
X10143943Y-14942914D01*
X10115371Y-14942914D01*
X10086800Y-14928629D01*
X10072514Y-14914343D01*
X10058228Y-14885771D01*
X10043943Y-14828629D01*
X10043943Y-14757200D01*
X10058228Y-14700057D01*
X10072514Y-14671486D01*
X10086800Y-14657200D01*
X10115371Y-14642914D01*
X10315371Y-14642914D02*
X10501086Y-14642914D01*
X10401086Y-14757200D01*
X10443943Y-14757200D01*
X10472514Y-14771486D01*
X10486800Y-14785771D01*
X10501086Y-14814343D01*
X10501086Y-14885771D01*
X10486800Y-14914343D01*
X10472514Y-14928629D01*
X10443943Y-14942914D01*
X10358228Y-14942914D01*
X10329657Y-14928629D01*
X10315371Y-14914343D01*
X10786800Y-14942914D02*
X10615371Y-14942914D01*
X10701086Y-14942914D02*
X10701086Y-14642914D01*
X10672514Y-14685771D01*
X10643943Y-14714343D01*
X10615371Y-14728629D01*
X10901086Y-14642914D02*
X10901086Y-14700057D01*
X11015371Y-14642914D02*
X11015371Y-14700057D01*
X11458228Y-15057200D02*
X11443943Y-15042914D01*
X11415371Y-15000057D01*
X11401086Y-14971486D01*
X11386800Y-14928629D01*
X11372514Y-14857200D01*
X11372514Y-14800057D01*
X11386800Y-14728629D01*
X11401086Y-14685771D01*
X11415371Y-14657200D01*
X11443943Y-14614343D01*
X11458228Y-14600057D01*
X11543943Y-14642914D02*
X11729657Y-14642914D01*
X11629657Y-14757200D01*
X11672514Y-14757200D01*
X11701086Y-14771486D01*
X11715371Y-14785771D01*
X11729657Y-14814343D01*
X11729657Y-14885771D01*
X11715371Y-14914343D01*
X11701086Y-14928629D01*
X11672514Y-14942914D01*
X11586800Y-14942914D01*
X11558228Y-14928629D01*
X11543943Y-14914343D01*
X11915371Y-14642914D02*
X11943943Y-14642914D01*
X11972514Y-14657200D01*
X11986800Y-14671486D01*
X12001086Y-14700057D01*
X12015371Y-14757200D01*
X12015371Y-14828629D01*
X12001086Y-14885771D01*
X11986800Y-14914343D01*
X11972514Y-14928629D01*
X11943943Y-14942914D01*
X11915371Y-14942914D01*
X11886800Y-14928629D01*
X11872514Y-14914343D01*
X11858228Y-14885771D01*
X11843943Y-14828629D01*
X11843943Y-14757200D01*
X11858228Y-14700057D01*
X11872514Y-14671486D01*
X11886800Y-14657200D01*
X11915371Y-14642914D01*
X12372514Y-14942914D02*
X12372514Y-14642914D01*
X12501086Y-14942914D02*
X12501086Y-14785771D01*
X12486800Y-14757200D01*
X12458228Y-14742914D01*
X12415371Y-14742914D01*
X12386800Y-14757200D01*
X12372514Y-14771486D01*
X12686800Y-14942914D02*
X12658228Y-14928629D01*
X12643943Y-14914343D01*
X12629657Y-14885771D01*
X12629657Y-14800057D01*
X12643943Y-14771486D01*
X12658228Y-14757200D01*
X12686800Y-14742914D01*
X12729657Y-14742914D01*
X12758228Y-14757200D01*
X12772514Y-14771486D01*
X12786800Y-14800057D01*
X12786800Y-14885771D01*
X12772514Y-14914343D01*
X12758228Y-14928629D01*
X12729657Y-14942914D01*
X12686800Y-14942914D01*
X12958228Y-14942914D02*
X12929657Y-14928629D01*
X12915371Y-14900057D01*
X12915371Y-14642914D01*
X13186800Y-14928629D02*
X13158228Y-14942914D01*
X13101086Y-14942914D01*
X13072514Y-14928629D01*
X13058228Y-14900057D01*
X13058228Y-14785771D01*
X13072514Y-14757200D01*
X13101086Y-14742914D01*
X13158228Y-14742914D01*
X13186800Y-14757200D01*
X13201086Y-14785771D01*
X13201086Y-14814343D01*
X13058228Y-14842914D01*
X13315371Y-14928629D02*
X13343943Y-14942914D01*
X13401086Y-14942914D01*
X13429657Y-14928629D01*
X13443943Y-14900057D01*
X13443943Y-14885771D01*
X13429657Y-14857200D01*
X13401086Y-14842914D01*
X13358228Y-14842914D01*
X13329657Y-14828629D01*
X13315371Y-14800057D01*
X13315371Y-14785771D01*
X13329657Y-14757200D01*
X13358228Y-14742914D01*
X13401086Y-14742914D01*
X13429657Y-14757200D01*
X13543943Y-15057200D02*
X13558228Y-15042914D01*
X13586800Y-15000057D01*
X13601086Y-14971486D01*
X13615371Y-14928629D01*
X13629657Y-14857200D01*
X13629657Y-14800057D01*
X13615371Y-14728629D01*
X13601086Y-14685771D01*
X13586800Y-14657200D01*
X13558228Y-14614343D01*
X13543943Y-14600057D01*
X6711800Y-15263200D02*
X6771800Y-15203200D01*
X6711800Y-15143200D01*
X6651800Y-15203200D01*
X6711800Y-15263200D01*
X7215371Y-15338914D02*
X7043943Y-15338914D01*
X7129657Y-15338914D02*
X7129657Y-15038914D01*
X7101086Y-15081771D01*
X7072514Y-15110343D01*
X7043943Y-15124629D01*
X7343943Y-15310343D02*
X7358228Y-15324629D01*
X7343943Y-15338914D01*
X7329657Y-15324629D01*
X7343943Y-15310343D01*
X7343943Y-15338914D01*
X7472514Y-15067486D02*
X7486800Y-15053200D01*
X7515371Y-15038914D01*
X7586800Y-15038914D01*
X7615371Y-15053200D01*
X7629657Y-15067486D01*
X7643943Y-15096057D01*
X7643943Y-15124629D01*
X7629657Y-15167486D01*
X7458228Y-15338914D01*
X7643943Y-15338914D01*
X7829657Y-15038914D02*
X7858228Y-15038914D01*
X7886800Y-15053200D01*
X7901086Y-15067486D01*
X7915371Y-15096057D01*
X7929657Y-15153200D01*
X7929657Y-15224629D01*
X7915371Y-15281771D01*
X7901086Y-15310343D01*
X7886800Y-15324629D01*
X7858228Y-15338914D01*
X7829657Y-15338914D01*
X7801086Y-15324629D01*
X7786800Y-15310343D01*
X7772514Y-15281771D01*
X7758228Y-15224629D01*
X7758228Y-15153200D01*
X7772514Y-15096057D01*
X7786800Y-15067486D01*
X7801086Y-15053200D01*
X7829657Y-15038914D01*
X8058228Y-15338914D02*
X8058228Y-15138914D01*
X8058228Y-15167486D02*
X8072514Y-15153200D01*
X8101086Y-15138914D01*
X8143943Y-15138914D01*
X8172514Y-15153200D01*
X8186800Y-15181771D01*
X8186800Y-15338914D01*
X8186800Y-15181771D02*
X8201086Y-15153200D01*
X8229657Y-15138914D01*
X8272514Y-15138914D01*
X8301086Y-15153200D01*
X8315371Y-15181771D01*
X8315371Y-15338914D01*
X8458228Y-15338914D02*
X8458228Y-15138914D01*
X8458228Y-15167486D02*
X8472514Y-15153200D01*
X8501086Y-15138914D01*
X8543943Y-15138914D01*
X8572514Y-15153200D01*
X8586800Y-15181771D01*
X8586800Y-15338914D01*
X8586800Y-15181771D02*
X8601086Y-15153200D01*
X8629657Y-15138914D01*
X8672514Y-15138914D01*
X8701086Y-15153200D01*
X8715371Y-15181771D01*
X8715371Y-15338914D01*
X9301086Y-15024629D02*
X9043943Y-15410343D01*
X9686800Y-15038914D02*
X9715371Y-15038914D01*
X9743943Y-15053200D01*
X9758228Y-15067486D01*
X9772514Y-15096057D01*
X9786800Y-15153200D01*
X9786800Y-15224629D01*
X9772514Y-15281771D01*
X9758228Y-15310343D01*
X9743943Y-15324629D01*
X9715371Y-15338914D01*
X9686800Y-15338914D01*
X9658228Y-15324629D01*
X9643943Y-15310343D01*
X9629657Y-15281771D01*
X9615371Y-15224629D01*
X9615371Y-15153200D01*
X9629657Y-15096057D01*
X9643943Y-15067486D01*
X9658228Y-15053200D01*
X9686800Y-15038914D01*
X9915371Y-15310343D02*
X9929657Y-15324629D01*
X9915371Y-15338914D01*
X9901086Y-15324629D01*
X9915371Y-15310343D01*
X9915371Y-15338914D01*
X10115371Y-15038914D02*
X10143943Y-15038914D01*
X10172514Y-15053200D01*
X10186800Y-15067486D01*
X10201086Y-15096057D01*
X10215371Y-15153200D01*
X10215371Y-15224629D01*
X10201086Y-15281771D01*
X10186800Y-15310343D01*
X10172514Y-15324629D01*
X10143943Y-15338914D01*
X10115371Y-15338914D01*
X10086800Y-15324629D01*
X10072514Y-15310343D01*
X10058228Y-15281771D01*
X10043943Y-15224629D01*
X10043943Y-15153200D01*
X10058228Y-15096057D01*
X10072514Y-15067486D01*
X10086800Y-15053200D01*
X10115371Y-15038914D01*
X10472514Y-15138914D02*
X10472514Y-15338914D01*
X10401086Y-15024629D02*
X10329657Y-15238914D01*
X10515371Y-15238914D01*
X10601086Y-15038914D02*
X10801086Y-15038914D01*
X10672514Y-15338914D01*
X10901086Y-15038914D02*
X10901086Y-15096057D01*
X11015371Y-15038914D02*
X11015371Y-15096057D01*
X11458228Y-15453200D02*
X11443943Y-15438914D01*
X11415371Y-15396057D01*
X11401086Y-15367486D01*
X11386800Y-15324629D01*
X11372514Y-15253200D01*
X11372514Y-15196057D01*
X11386800Y-15124629D01*
X11401086Y-15081771D01*
X11415371Y-15053200D01*
X11443943Y-15010343D01*
X11458228Y-14996057D01*
X11729657Y-15338914D02*
X11558228Y-15338914D01*
X11643943Y-15338914D02*
X11643943Y-15038914D01*
X11615371Y-15081771D01*
X11586800Y-15110343D01*
X11558228Y-15124629D01*
X11843943Y-15067486D02*
X11858228Y-15053200D01*
X11886800Y-15038914D01*
X11958228Y-15038914D01*
X11986800Y-15053200D01*
X12001086Y-15067486D01*
X12015371Y-15096057D01*
X12015371Y-15124629D01*
X12001086Y-15167486D01*
X11829657Y-15338914D01*
X12015371Y-15338914D01*
X12372514Y-15338914D02*
X12372514Y-15038914D01*
X12501086Y-15338914D02*
X12501086Y-15181771D01*
X12486800Y-15153200D01*
X12458228Y-15138914D01*
X12415371Y-15138914D01*
X12386800Y-15153200D01*
X12372514Y-15167486D01*
X12686800Y-15338914D02*
X12658228Y-15324629D01*
X12643943Y-15310343D01*
X12629657Y-15281771D01*
X12629657Y-15196057D01*
X12643943Y-15167486D01*
X12658228Y-15153200D01*
X12686800Y-15138914D01*
X12729657Y-15138914D01*
X12758228Y-15153200D01*
X12772514Y-15167486D01*
X12786800Y-15196057D01*
X12786800Y-15281771D01*
X12772514Y-15310343D01*
X12758228Y-15324629D01*
X12729657Y-15338914D01*
X12686800Y-15338914D01*
X12958228Y-15338914D02*
X12929657Y-15324629D01*
X12915371Y-15296057D01*
X12915371Y-15038914D01*
X13186800Y-15324629D02*
X13158228Y-15338914D01*
X13101086Y-15338914D01*
X13072514Y-15324629D01*
X13058228Y-15296057D01*
X13058228Y-15181771D01*
X13072514Y-15153200D01*
X13101086Y-15138914D01*
X13158228Y-15138914D01*
X13186800Y-15153200D01*
X13201086Y-15181771D01*
X13201086Y-15210343D01*
X13058228Y-15238914D01*
X13315371Y-15324629D02*
X13343943Y-15338914D01*
X13401086Y-15338914D01*
X13429657Y-15324629D01*
X13443943Y-15296057D01*
X13443943Y-15281771D01*
X13429657Y-15253200D01*
X13401086Y-15238914D01*
X13358228Y-15238914D01*
X13329657Y-15224629D01*
X13315371Y-15196057D01*
X13315371Y-15181771D01*
X13329657Y-15153200D01*
X13358228Y-15138914D01*
X13401086Y-15138914D01*
X13429657Y-15153200D01*
X13543943Y-15453200D02*
X13558228Y-15438914D01*
X13586800Y-15396057D01*
X13601086Y-15367486D01*
X13615371Y-15324629D01*
X13629657Y-15253200D01*
X13629657Y-15196057D01*
X13615371Y-15124629D01*
X13601086Y-15081771D01*
X13586800Y-15053200D01*
X13558228Y-15010343D01*
X13543943Y-14996057D01*
X6641800Y-15534200D02*
X6771800Y-15664200D01*
X6771800Y-15534200D02*
X6641800Y-15664200D01*
X6771800Y-15599200D02*
G75*
G03X6771800Y-15599200I-65000J0D01*
G01*
X7215371Y-15734914D02*
X7043943Y-15734914D01*
X7129657Y-15734914D02*
X7129657Y-15434914D01*
X7101086Y-15477771D01*
X7072514Y-15506343D01*
X7043943Y-15520629D01*
X7343943Y-15706343D02*
X7358228Y-15720629D01*
X7343943Y-15734914D01*
X7329657Y-15720629D01*
X7343943Y-15706343D01*
X7343943Y-15734914D01*
X7458228Y-15434914D02*
X7643943Y-15434914D01*
X7543943Y-15549200D01*
X7586800Y-15549200D01*
X7615371Y-15563486D01*
X7629657Y-15577771D01*
X7643943Y-15606343D01*
X7643943Y-15677771D01*
X7629657Y-15706343D01*
X7615371Y-15720629D01*
X7586800Y-15734914D01*
X7501086Y-15734914D01*
X7472514Y-15720629D01*
X7458228Y-15706343D01*
X7829657Y-15434914D02*
X7858228Y-15434914D01*
X7886800Y-15449200D01*
X7901086Y-15463486D01*
X7915371Y-15492057D01*
X7929657Y-15549200D01*
X7929657Y-15620629D01*
X7915371Y-15677771D01*
X7901086Y-15706343D01*
X7886800Y-15720629D01*
X7858228Y-15734914D01*
X7829657Y-15734914D01*
X7801086Y-15720629D01*
X7786800Y-15706343D01*
X7772514Y-15677771D01*
X7758228Y-15620629D01*
X7758228Y-15549200D01*
X7772514Y-15492057D01*
X7786800Y-15463486D01*
X7801086Y-15449200D01*
X7829657Y-15434914D01*
X8058228Y-15734914D02*
X8058228Y-15534914D01*
X8058228Y-15563486D02*
X8072514Y-15549200D01*
X8101086Y-15534914D01*
X8143943Y-15534914D01*
X8172514Y-15549200D01*
X8186800Y-15577771D01*
X8186800Y-15734914D01*
X8186800Y-15577771D02*
X8201086Y-15549200D01*
X8229657Y-15534914D01*
X8272514Y-15534914D01*
X8301086Y-15549200D01*
X8315371Y-15577771D01*
X8315371Y-15734914D01*
X8458228Y-15734914D02*
X8458228Y-15534914D01*
X8458228Y-15563486D02*
X8472514Y-15549200D01*
X8501086Y-15534914D01*
X8543943Y-15534914D01*
X8572514Y-15549200D01*
X8586800Y-15577771D01*
X8586800Y-15734914D01*
X8586800Y-15577771D02*
X8601086Y-15549200D01*
X8629657Y-15534914D01*
X8672514Y-15534914D01*
X8701086Y-15549200D01*
X8715371Y-15577771D01*
X8715371Y-15734914D01*
X9301086Y-15420629D02*
X9043943Y-15806343D01*
X9686800Y-15434914D02*
X9715371Y-15434914D01*
X9743943Y-15449200D01*
X9758228Y-15463486D01*
X9772514Y-15492057D01*
X9786800Y-15549200D01*
X9786800Y-15620629D01*
X9772514Y-15677771D01*
X9758228Y-15706343D01*
X9743943Y-15720629D01*
X9715371Y-15734914D01*
X9686800Y-15734914D01*
X9658228Y-15720629D01*
X9643943Y-15706343D01*
X9629657Y-15677771D01*
X9615371Y-15620629D01*
X9615371Y-15549200D01*
X9629657Y-15492057D01*
X9643943Y-15463486D01*
X9658228Y-15449200D01*
X9686800Y-15434914D01*
X9915371Y-15706343D02*
X9929657Y-15720629D01*
X9915371Y-15734914D01*
X9901086Y-15720629D01*
X9915371Y-15706343D01*
X9915371Y-15734914D01*
X10115371Y-15434914D02*
X10143943Y-15434914D01*
X10172514Y-15449200D01*
X10186800Y-15463486D01*
X10201086Y-15492057D01*
X10215371Y-15549200D01*
X10215371Y-15620629D01*
X10201086Y-15677771D01*
X10186800Y-15706343D01*
X10172514Y-15720629D01*
X10143943Y-15734914D01*
X10115371Y-15734914D01*
X10086800Y-15720629D01*
X10072514Y-15706343D01*
X10058228Y-15677771D01*
X10043943Y-15620629D01*
X10043943Y-15549200D01*
X10058228Y-15492057D01*
X10072514Y-15463486D01*
X10086800Y-15449200D01*
X10115371Y-15434914D01*
X10486800Y-15434914D02*
X10343943Y-15434914D01*
X10329657Y-15577771D01*
X10343943Y-15563486D01*
X10372514Y-15549200D01*
X10443943Y-15549200D01*
X10472514Y-15563486D01*
X10486800Y-15577771D01*
X10501086Y-15606343D01*
X10501086Y-15677771D01*
X10486800Y-15706343D01*
X10472514Y-15720629D01*
X10443943Y-15734914D01*
X10372514Y-15734914D01*
X10343943Y-15720629D01*
X10329657Y-15706343D01*
X10786800Y-15734914D02*
X10615371Y-15734914D01*
X10701086Y-15734914D02*
X10701086Y-15434914D01*
X10672514Y-15477771D01*
X10643943Y-15506343D01*
X10615371Y-15520629D01*
X10901086Y-15434914D02*
X10901086Y-15492057D01*
X11015371Y-15434914D02*
X11015371Y-15492057D01*
X11458228Y-15849200D02*
X11443943Y-15834914D01*
X11415371Y-15792057D01*
X11401086Y-15763486D01*
X11386800Y-15720629D01*
X11372514Y-15649200D01*
X11372514Y-15592057D01*
X11386800Y-15520629D01*
X11401086Y-15477771D01*
X11415371Y-15449200D01*
X11443943Y-15406343D01*
X11458228Y-15392057D01*
X11701086Y-15534914D02*
X11701086Y-15734914D01*
X11629657Y-15420629D02*
X11558228Y-15634914D01*
X11743943Y-15634914D01*
X12015371Y-15734914D02*
X11843943Y-15734914D01*
X11929657Y-15734914D02*
X11929657Y-15434914D01*
X11901086Y-15477771D01*
X11872514Y-15506343D01*
X11843943Y-15520629D01*
X12372514Y-15734914D02*
X12372514Y-15434914D01*
X12501086Y-15734914D02*
X12501086Y-15577771D01*
X12486800Y-15549200D01*
X12458228Y-15534914D01*
X12415371Y-15534914D01*
X12386800Y-15549200D01*
X12372514Y-15563486D01*
X12686800Y-15734914D02*
X12658228Y-15720629D01*
X12643943Y-15706343D01*
X12629657Y-15677771D01*
X12629657Y-15592057D01*
X12643943Y-15563486D01*
X12658228Y-15549200D01*
X12686800Y-15534914D01*
X12729657Y-15534914D01*
X12758228Y-15549200D01*
X12772514Y-15563486D01*
X12786800Y-15592057D01*
X12786800Y-15677771D01*
X12772514Y-15706343D01*
X12758228Y-15720629D01*
X12729657Y-15734914D01*
X12686800Y-15734914D01*
X12958228Y-15734914D02*
X12929657Y-15720629D01*
X12915371Y-15692057D01*
X12915371Y-15434914D01*
X13186800Y-15720629D02*
X13158228Y-15734914D01*
X13101086Y-15734914D01*
X13072514Y-15720629D01*
X13058228Y-15692057D01*
X13058228Y-15577771D01*
X13072514Y-15549200D01*
X13101086Y-15534914D01*
X13158228Y-15534914D01*
X13186800Y-15549200D01*
X13201086Y-15577771D01*
X13201086Y-15606343D01*
X13058228Y-15634914D01*
X13315371Y-15720629D02*
X13343943Y-15734914D01*
X13401086Y-15734914D01*
X13429657Y-15720629D01*
X13443943Y-15692057D01*
X13443943Y-15677771D01*
X13429657Y-15649200D01*
X13401086Y-15634914D01*
X13358228Y-15634914D01*
X13329657Y-15620629D01*
X13315371Y-15592057D01*
X13315371Y-15577771D01*
X13329657Y-15549200D01*
X13358228Y-15534914D01*
X13401086Y-15534914D01*
X13429657Y-15549200D01*
X13543943Y-15849200D02*
X13558228Y-15834914D01*
X13586800Y-15792057D01*
X13601086Y-15763486D01*
X13615371Y-15720629D01*
X13629657Y-15649200D01*
X13629657Y-15592057D01*
X13615371Y-15520629D01*
X13601086Y-15477771D01*
X13586800Y-15449200D01*
X13558228Y-15406343D01*
X13543943Y-15392057D01*
X6621800Y-15920200D02*
X6771800Y-16070200D01*
X6771800Y-15920200D02*
X6621800Y-16070200D01*
X6696800Y-15920200D02*
X6696800Y-16070200D01*
X6621800Y-15995200D02*
X6771800Y-15995200D01*
X7215371Y-16130914D02*
X7043943Y-16130914D01*
X7129657Y-16130914D02*
X7129657Y-15830914D01*
X7101086Y-15873771D01*
X7072514Y-15902343D01*
X7043943Y-15916629D01*
X7343943Y-16102343D02*
X7358228Y-16116629D01*
X7343943Y-16130914D01*
X7329657Y-16116629D01*
X7343943Y-16102343D01*
X7343943Y-16130914D01*
X7629657Y-15830914D02*
X7486800Y-15830914D01*
X7472514Y-15973771D01*
X7486800Y-15959486D01*
X7515371Y-15945200D01*
X7586800Y-15945200D01*
X7615371Y-15959486D01*
X7629657Y-15973771D01*
X7643943Y-16002343D01*
X7643943Y-16073771D01*
X7629657Y-16102343D01*
X7615371Y-16116629D01*
X7586800Y-16130914D01*
X7515371Y-16130914D01*
X7486800Y-16116629D01*
X7472514Y-16102343D01*
X7829657Y-15830914D02*
X7858228Y-15830914D01*
X7886800Y-15845200D01*
X7901086Y-15859486D01*
X7915371Y-15888057D01*
X7929657Y-15945200D01*
X7929657Y-16016629D01*
X7915371Y-16073771D01*
X7901086Y-16102343D01*
X7886800Y-16116629D01*
X7858228Y-16130914D01*
X7829657Y-16130914D01*
X7801086Y-16116629D01*
X7786800Y-16102343D01*
X7772514Y-16073771D01*
X7758228Y-16016629D01*
X7758228Y-15945200D01*
X7772514Y-15888057D01*
X7786800Y-15859486D01*
X7801086Y-15845200D01*
X7829657Y-15830914D01*
X8058228Y-16130914D02*
X8058228Y-15930914D01*
X8058228Y-15959486D02*
X8072514Y-15945200D01*
X8101086Y-15930914D01*
X8143943Y-15930914D01*
X8172514Y-15945200D01*
X8186800Y-15973771D01*
X8186800Y-16130914D01*
X8186800Y-15973771D02*
X8201086Y-15945200D01*
X8229657Y-15930914D01*
X8272514Y-15930914D01*
X8301086Y-15945200D01*
X8315371Y-15973771D01*
X8315371Y-16130914D01*
X8458228Y-16130914D02*
X8458228Y-15930914D01*
X8458228Y-15959486D02*
X8472514Y-15945200D01*
X8501086Y-15930914D01*
X8543943Y-15930914D01*
X8572514Y-15945200D01*
X8586800Y-15973771D01*
X8586800Y-16130914D01*
X8586800Y-15973771D02*
X8601086Y-15945200D01*
X8629657Y-15930914D01*
X8672514Y-15930914D01*
X8701086Y-15945200D01*
X8715371Y-15973771D01*
X8715371Y-16130914D01*
X9301086Y-15816629D02*
X9043943Y-16202343D01*
X9686800Y-15830914D02*
X9715371Y-15830914D01*
X9743943Y-15845200D01*
X9758228Y-15859486D01*
X9772514Y-15888057D01*
X9786800Y-15945200D01*
X9786800Y-16016629D01*
X9772514Y-16073771D01*
X9758228Y-16102343D01*
X9743943Y-16116629D01*
X9715371Y-16130914D01*
X9686800Y-16130914D01*
X9658228Y-16116629D01*
X9643943Y-16102343D01*
X9629657Y-16073771D01*
X9615371Y-16016629D01*
X9615371Y-15945200D01*
X9629657Y-15888057D01*
X9643943Y-15859486D01*
X9658228Y-15845200D01*
X9686800Y-15830914D01*
X9915371Y-16102343D02*
X9929657Y-16116629D01*
X9915371Y-16130914D01*
X9901086Y-16116629D01*
X9915371Y-16102343D01*
X9915371Y-16130914D01*
X10115371Y-15830914D02*
X10143943Y-15830914D01*
X10172514Y-15845200D01*
X10186800Y-15859486D01*
X10201086Y-15888057D01*
X10215371Y-15945200D01*
X10215371Y-16016629D01*
X10201086Y-16073771D01*
X10186800Y-16102343D01*
X10172514Y-16116629D01*
X10143943Y-16130914D01*
X10115371Y-16130914D01*
X10086800Y-16116629D01*
X10072514Y-16102343D01*
X10058228Y-16073771D01*
X10043943Y-16016629D01*
X10043943Y-15945200D01*
X10058228Y-15888057D01*
X10072514Y-15859486D01*
X10086800Y-15845200D01*
X10115371Y-15830914D01*
X10486800Y-15830914D02*
X10343943Y-15830914D01*
X10329657Y-15973771D01*
X10343943Y-15959486D01*
X10372514Y-15945200D01*
X10443943Y-15945200D01*
X10472514Y-15959486D01*
X10486800Y-15973771D01*
X10501086Y-16002343D01*
X10501086Y-16073771D01*
X10486800Y-16102343D01*
X10472514Y-16116629D01*
X10443943Y-16130914D01*
X10372514Y-16130914D01*
X10343943Y-16116629D01*
X10329657Y-16102343D01*
X10643943Y-16130914D02*
X10701086Y-16130914D01*
X10729657Y-16116629D01*
X10743943Y-16102343D01*
X10772514Y-16059486D01*
X10786800Y-16002343D01*
X10786800Y-15888057D01*
X10772514Y-15859486D01*
X10758228Y-15845200D01*
X10729657Y-15830914D01*
X10672514Y-15830914D01*
X10643943Y-15845200D01*
X10629657Y-15859486D01*
X10615371Y-15888057D01*
X10615371Y-15959486D01*
X10629657Y-15988057D01*
X10643943Y-16002343D01*
X10672514Y-16016629D01*
X10729657Y-16016629D01*
X10758228Y-16002343D01*
X10772514Y-15988057D01*
X10786800Y-15959486D01*
X10901086Y-15830914D02*
X10901086Y-15888057D01*
X11015371Y-15830914D02*
X11015371Y-15888057D01*
X11458228Y-16245200D02*
X11443943Y-16230914D01*
X11415371Y-16188057D01*
X11401086Y-16159486D01*
X11386800Y-16116629D01*
X11372514Y-16045200D01*
X11372514Y-15988057D01*
X11386800Y-15916629D01*
X11401086Y-15873771D01*
X11415371Y-15845200D01*
X11443943Y-15802343D01*
X11458228Y-15788057D01*
X11729657Y-16130914D02*
X11558228Y-16130914D01*
X11643943Y-16130914D02*
X11643943Y-15830914D01*
X11615371Y-15873771D01*
X11586800Y-15902343D01*
X11558228Y-15916629D01*
X11986800Y-15830914D02*
X11929657Y-15830914D01*
X11901086Y-15845200D01*
X11886800Y-15859486D01*
X11858228Y-15902343D01*
X11843943Y-15959486D01*
X11843943Y-16073771D01*
X11858228Y-16102343D01*
X11872514Y-16116629D01*
X11901086Y-16130914D01*
X11958228Y-16130914D01*
X11986800Y-16116629D01*
X12001086Y-16102343D01*
X12015371Y-16073771D01*
X12015371Y-16002343D01*
X12001086Y-15973771D01*
X11986800Y-15959486D01*
X11958228Y-15945200D01*
X11901086Y-15945200D01*
X11872514Y-15959486D01*
X11858228Y-15973771D01*
X11843943Y-16002343D01*
X12372514Y-16130914D02*
X12372514Y-15830914D01*
X12501086Y-16130914D02*
X12501086Y-15973771D01*
X12486800Y-15945200D01*
X12458228Y-15930914D01*
X12415371Y-15930914D01*
X12386800Y-15945200D01*
X12372514Y-15959486D01*
X12686800Y-16130914D02*
X12658228Y-16116629D01*
X12643943Y-16102343D01*
X12629657Y-16073771D01*
X12629657Y-15988057D01*
X12643943Y-15959486D01*
X12658228Y-15945200D01*
X12686800Y-15930914D01*
X12729657Y-15930914D01*
X12758228Y-15945200D01*
X12772514Y-15959486D01*
X12786800Y-15988057D01*
X12786800Y-16073771D01*
X12772514Y-16102343D01*
X12758228Y-16116629D01*
X12729657Y-16130914D01*
X12686800Y-16130914D01*
X12958228Y-16130914D02*
X12929657Y-16116629D01*
X12915371Y-16088057D01*
X12915371Y-15830914D01*
X13186800Y-16116629D02*
X13158228Y-16130914D01*
X13101086Y-16130914D01*
X13072514Y-16116629D01*
X13058228Y-16088057D01*
X13058228Y-15973771D01*
X13072514Y-15945200D01*
X13101086Y-15930914D01*
X13158228Y-15930914D01*
X13186800Y-15945200D01*
X13201086Y-15973771D01*
X13201086Y-16002343D01*
X13058228Y-16030914D01*
X13315371Y-16116629D02*
X13343943Y-16130914D01*
X13401086Y-16130914D01*
X13429657Y-16116629D01*
X13443943Y-16088057D01*
X13443943Y-16073771D01*
X13429657Y-16045200D01*
X13401086Y-16030914D01*
X13358228Y-16030914D01*
X13329657Y-16016629D01*
X13315371Y-15988057D01*
X13315371Y-15973771D01*
X13329657Y-15945200D01*
X13358228Y-15930914D01*
X13401086Y-15930914D01*
X13429657Y-15945200D01*
X13543943Y-16245200D02*
X13558228Y-16230914D01*
X13586800Y-16188057D01*
X13601086Y-16159486D01*
X13615371Y-16116629D01*
X13629657Y-16045200D01*
X13629657Y-15988057D01*
X13615371Y-15916629D01*
X13601086Y-15873771D01*
X13586800Y-15845200D01*
X13558228Y-15802343D01*
X13543943Y-15788057D01*
X6601800Y-16306200D02*
X6771800Y-16476200D01*
X6771800Y-16306200D02*
X6601800Y-16476200D01*
X6746905Y-16451305D02*
X6746905Y-16331095D01*
X6626695Y-16331095D01*
X6626695Y-16451305D01*
X6746905Y-16451305D01*
X7215371Y-16526914D02*
X7043943Y-16526914D01*
X7129657Y-16526914D02*
X7129657Y-16226914D01*
X7101086Y-16269771D01*
X7072514Y-16298343D01*
X7043943Y-16312629D01*
X7343943Y-16498343D02*
X7358228Y-16512629D01*
X7343943Y-16526914D01*
X7329657Y-16512629D01*
X7343943Y-16498343D01*
X7343943Y-16526914D01*
X7458228Y-16226914D02*
X7658228Y-16226914D01*
X7529657Y-16526914D01*
X7829657Y-16226914D02*
X7858228Y-16226914D01*
X7886800Y-16241200D01*
X7901086Y-16255486D01*
X7915371Y-16284057D01*
X7929657Y-16341200D01*
X7929657Y-16412629D01*
X7915371Y-16469771D01*
X7901086Y-16498343D01*
X7886800Y-16512629D01*
X7858228Y-16526914D01*
X7829657Y-16526914D01*
X7801086Y-16512629D01*
X7786800Y-16498343D01*
X7772514Y-16469771D01*
X7758228Y-16412629D01*
X7758228Y-16341200D01*
X7772514Y-16284057D01*
X7786800Y-16255486D01*
X7801086Y-16241200D01*
X7829657Y-16226914D01*
X8058228Y-16526914D02*
X8058228Y-16326914D01*
X8058228Y-16355486D02*
X8072514Y-16341200D01*
X8101086Y-16326914D01*
X8143943Y-16326914D01*
X8172514Y-16341200D01*
X8186800Y-16369771D01*
X8186800Y-16526914D01*
X8186800Y-16369771D02*
X8201086Y-16341200D01*
X8229657Y-16326914D01*
X8272514Y-16326914D01*
X8301086Y-16341200D01*
X8315371Y-16369771D01*
X8315371Y-16526914D01*
X8458228Y-16526914D02*
X8458228Y-16326914D01*
X8458228Y-16355486D02*
X8472514Y-16341200D01*
X8501086Y-16326914D01*
X8543943Y-16326914D01*
X8572514Y-16341200D01*
X8586800Y-16369771D01*
X8586800Y-16526914D01*
X8586800Y-16369771D02*
X8601086Y-16341200D01*
X8629657Y-16326914D01*
X8672514Y-16326914D01*
X8701086Y-16341200D01*
X8715371Y-16369771D01*
X8715371Y-16526914D01*
X9301086Y-16212629D02*
X9043943Y-16598343D01*
X9686800Y-16226914D02*
X9715371Y-16226914D01*
X9743943Y-16241200D01*
X9758228Y-16255486D01*
X9772514Y-16284057D01*
X9786800Y-16341200D01*
X9786800Y-16412629D01*
X9772514Y-16469771D01*
X9758228Y-16498343D01*
X9743943Y-16512629D01*
X9715371Y-16526914D01*
X9686800Y-16526914D01*
X9658228Y-16512629D01*
X9643943Y-16498343D01*
X9629657Y-16469771D01*
X9615371Y-16412629D01*
X9615371Y-16341200D01*
X9629657Y-16284057D01*
X9643943Y-16255486D01*
X9658228Y-16241200D01*
X9686800Y-16226914D01*
X9915371Y-16498343D02*
X9929657Y-16512629D01*
X9915371Y-16526914D01*
X9901086Y-16512629D01*
X9915371Y-16498343D01*
X9915371Y-16526914D01*
X10115371Y-16226914D02*
X10143943Y-16226914D01*
X10172514Y-16241200D01*
X10186800Y-16255486D01*
X10201086Y-16284057D01*
X10215371Y-16341200D01*
X10215371Y-16412629D01*
X10201086Y-16469771D01*
X10186800Y-16498343D01*
X10172514Y-16512629D01*
X10143943Y-16526914D01*
X10115371Y-16526914D01*
X10086800Y-16512629D01*
X10072514Y-16498343D01*
X10058228Y-16469771D01*
X10043943Y-16412629D01*
X10043943Y-16341200D01*
X10058228Y-16284057D01*
X10072514Y-16255486D01*
X10086800Y-16241200D01*
X10115371Y-16226914D01*
X10472514Y-16226914D02*
X10415371Y-16226914D01*
X10386800Y-16241200D01*
X10372514Y-16255486D01*
X10343943Y-16298343D01*
X10329657Y-16355486D01*
X10329657Y-16469771D01*
X10343943Y-16498343D01*
X10358228Y-16512629D01*
X10386800Y-16526914D01*
X10443943Y-16526914D01*
X10472514Y-16512629D01*
X10486800Y-16498343D01*
X10501086Y-16469771D01*
X10501086Y-16398343D01*
X10486800Y-16369771D01*
X10472514Y-16355486D01*
X10443943Y-16341200D01*
X10386800Y-16341200D01*
X10358228Y-16355486D01*
X10343943Y-16369771D01*
X10329657Y-16398343D01*
X10601086Y-16226914D02*
X10801086Y-16226914D01*
X10672514Y-16526914D01*
X10901086Y-16226914D02*
X10901086Y-16284057D01*
X11015371Y-16226914D02*
X11015371Y-16284057D01*
X11458228Y-16641200D02*
X11443943Y-16626914D01*
X11415371Y-16584057D01*
X11401086Y-16555486D01*
X11386800Y-16512629D01*
X11372514Y-16441200D01*
X11372514Y-16384057D01*
X11386800Y-16312629D01*
X11401086Y-16269771D01*
X11415371Y-16241200D01*
X11443943Y-16198343D01*
X11458228Y-16184057D01*
X11558228Y-16255486D02*
X11572514Y-16241200D01*
X11601086Y-16226914D01*
X11672514Y-16226914D01*
X11701086Y-16241200D01*
X11715371Y-16255486D01*
X11729657Y-16284057D01*
X11729657Y-16312629D01*
X11715371Y-16355486D01*
X11543943Y-16526914D01*
X11729657Y-16526914D01*
X12086800Y-16526914D02*
X12086800Y-16226914D01*
X12215371Y-16526914D02*
X12215371Y-16369771D01*
X12201086Y-16341200D01*
X12172514Y-16326914D01*
X12129657Y-16326914D01*
X12101086Y-16341200D01*
X12086800Y-16355486D01*
X12401086Y-16526914D02*
X12372514Y-16512629D01*
X12358228Y-16498343D01*
X12343943Y-16469771D01*
X12343943Y-16384057D01*
X12358228Y-16355486D01*
X12372514Y-16341200D01*
X12401086Y-16326914D01*
X12443943Y-16326914D01*
X12472514Y-16341200D01*
X12486800Y-16355486D01*
X12501086Y-16384057D01*
X12501086Y-16469771D01*
X12486800Y-16498343D01*
X12472514Y-16512629D01*
X12443943Y-16526914D01*
X12401086Y-16526914D01*
X12672514Y-16526914D02*
X12643943Y-16512629D01*
X12629657Y-16484057D01*
X12629657Y-16226914D01*
X12901086Y-16512629D02*
X12872514Y-16526914D01*
X12815371Y-16526914D01*
X12786800Y-16512629D01*
X12772514Y-16484057D01*
X12772514Y-16369771D01*
X12786800Y-16341200D01*
X12815371Y-16326914D01*
X12872514Y-16326914D01*
X12901086Y-16341200D01*
X12915371Y-16369771D01*
X12915371Y-16398343D01*
X12772514Y-16426914D01*
X13029657Y-16512629D02*
X13058228Y-16526914D01*
X13115371Y-16526914D01*
X13143943Y-16512629D01*
X13158228Y-16484057D01*
X13158228Y-16469771D01*
X13143943Y-16441200D01*
X13115371Y-16426914D01*
X13072514Y-16426914D01*
X13043943Y-16412629D01*
X13029657Y-16384057D01*
X13029657Y-16369771D01*
X13043943Y-16341200D01*
X13072514Y-16326914D01*
X13115371Y-16326914D01*
X13143943Y-16341200D01*
X13258228Y-16641200D02*
X13272514Y-16626914D01*
X13301086Y-16584057D01*
X13315371Y-16555486D01*
X13329657Y-16512629D01*
X13343943Y-16441200D01*
X13343943Y-16384057D01*
X13329657Y-16312629D01*
X13315371Y-16269771D01*
X13301086Y-16241200D01*
X13272514Y-16198343D01*
X13258228Y-16184057D01*
X6471800Y-16637200D02*
X6771800Y-16937200D01*
X6771800Y-16637200D02*
X6471800Y-16937200D01*
X6621800Y-16937200D02*
X6771800Y-16787200D01*
X6621800Y-16637200D01*
X6471800Y-16787200D01*
X6621800Y-16937200D01*
X7029657Y-16622914D02*
X7215371Y-16622914D01*
X7115371Y-16737200D01*
X7158228Y-16737200D01*
X7186800Y-16751486D01*
X7201086Y-16765771D01*
X7215371Y-16794343D01*
X7215371Y-16865772D01*
X7201086Y-16894343D01*
X7186800Y-16908629D01*
X7158228Y-16922914D01*
X7072514Y-16922914D01*
X7043943Y-16908629D01*
X7029657Y-16894343D01*
X7343943Y-16894343D02*
X7358228Y-16908629D01*
X7343943Y-16922914D01*
X7329657Y-16908629D01*
X7343943Y-16894343D01*
X7343943Y-16922914D01*
X7543943Y-16622914D02*
X7572514Y-16622914D01*
X7601086Y-16637200D01*
X7615371Y-16651486D01*
X7629657Y-16680057D01*
X7643943Y-16737200D01*
X7643943Y-16808629D01*
X7629657Y-16865772D01*
X7615371Y-16894343D01*
X7601086Y-16908629D01*
X7572514Y-16922914D01*
X7543943Y-16922914D01*
X7515371Y-16908629D01*
X7501086Y-16894343D01*
X7486800Y-16865772D01*
X7472514Y-16808629D01*
X7472514Y-16737200D01*
X7486800Y-16680057D01*
X7501086Y-16651486D01*
X7515371Y-16637200D01*
X7543943Y-16622914D01*
X7829657Y-16622914D02*
X7858228Y-16622914D01*
X7886800Y-16637200D01*
X7901086Y-16651486D01*
X7915371Y-16680057D01*
X7929657Y-16737200D01*
X7929657Y-16808629D01*
X7915371Y-16865772D01*
X7901086Y-16894343D01*
X7886800Y-16908629D01*
X7858228Y-16922914D01*
X7829657Y-16922914D01*
X7801086Y-16908629D01*
X7786800Y-16894343D01*
X7772514Y-16865772D01*
X7758228Y-16808629D01*
X7758228Y-16737200D01*
X7772514Y-16680057D01*
X7786800Y-16651486D01*
X7801086Y-16637200D01*
X7829657Y-16622914D01*
X8058228Y-16922914D02*
X8058228Y-16722914D01*
X8058228Y-16751486D02*
X8072514Y-16737200D01*
X8101086Y-16722914D01*
X8143943Y-16722914D01*
X8172514Y-16737200D01*
X8186800Y-16765771D01*
X8186800Y-16922914D01*
X8186800Y-16765771D02*
X8201086Y-16737200D01*
X8229657Y-16722914D01*
X8272514Y-16722914D01*
X8301086Y-16737200D01*
X8315371Y-16765771D01*
X8315371Y-16922914D01*
X8458228Y-16922914D02*
X8458228Y-16722914D01*
X8458228Y-16751486D02*
X8472514Y-16737200D01*
X8501086Y-16722914D01*
X8543943Y-16722914D01*
X8572514Y-16737200D01*
X8586800Y-16765771D01*
X8586800Y-16922914D01*
X8586800Y-16765771D02*
X8601086Y-16737200D01*
X8629657Y-16722914D01*
X8672514Y-16722914D01*
X8701086Y-16737200D01*
X8715371Y-16765771D01*
X8715371Y-16922914D01*
X9301086Y-16608629D02*
X9043943Y-16994343D01*
X9686800Y-16622914D02*
X9715371Y-16622914D01*
X9743943Y-16637200D01*
X9758228Y-16651486D01*
X9772514Y-16680057D01*
X9786800Y-16737200D01*
X9786800Y-16808629D01*
X9772514Y-16865772D01*
X9758228Y-16894343D01*
X9743943Y-16908629D01*
X9715371Y-16922914D01*
X9686800Y-16922914D01*
X9658228Y-16908629D01*
X9643943Y-16894343D01*
X9629657Y-16865772D01*
X9615371Y-16808629D01*
X9615371Y-16737200D01*
X9629657Y-16680057D01*
X9643943Y-16651486D01*
X9658228Y-16637200D01*
X9686800Y-16622914D01*
X9915371Y-16894343D02*
X9929657Y-16908629D01*
X9915371Y-16922914D01*
X9901086Y-16908629D01*
X9915371Y-16894343D01*
X9915371Y-16922914D01*
X10215371Y-16922914D02*
X10043943Y-16922914D01*
X10129657Y-16922914D02*
X10129657Y-16622914D01*
X10101086Y-16665771D01*
X10072514Y-16694343D01*
X10043943Y-16708629D01*
X10501086Y-16922914D02*
X10329657Y-16922914D01*
X10415371Y-16922914D02*
X10415371Y-16622914D01*
X10386800Y-16665771D01*
X10358228Y-16694343D01*
X10329657Y-16708629D01*
X10672514Y-16751486D02*
X10643943Y-16737200D01*
X10629657Y-16722914D01*
X10615371Y-16694343D01*
X10615371Y-16680057D01*
X10629657Y-16651486D01*
X10643943Y-16637200D01*
X10672514Y-16622914D01*
X10729657Y-16622914D01*
X10758228Y-16637200D01*
X10772514Y-16651486D01*
X10786800Y-16680057D01*
X10786800Y-16694343D01*
X10772514Y-16722914D01*
X10758228Y-16737200D01*
X10729657Y-16751486D01*
X10672514Y-16751486D01*
X10643943Y-16765771D01*
X10629657Y-16780057D01*
X10615371Y-16808629D01*
X10615371Y-16865772D01*
X10629657Y-16894343D01*
X10643943Y-16908629D01*
X10672514Y-16922914D01*
X10729657Y-16922914D01*
X10758228Y-16908629D01*
X10772514Y-16894343D01*
X10786800Y-16865772D01*
X10786800Y-16808629D01*
X10772514Y-16780057D01*
X10758228Y-16765771D01*
X10729657Y-16751486D01*
X10901086Y-16622914D02*
X10901086Y-16680057D01*
X11015371Y-16622914D02*
X11015371Y-16680057D01*
X11458228Y-17037200D02*
X11443943Y-17022914D01*
X11415371Y-16980057D01*
X11401086Y-16951486D01*
X11386800Y-16908629D01*
X11372514Y-16837200D01*
X11372514Y-16780057D01*
X11386800Y-16708629D01*
X11401086Y-16665771D01*
X11415371Y-16637200D01*
X11443943Y-16594343D01*
X11458228Y-16580057D01*
X11729657Y-16922914D02*
X11558228Y-16922914D01*
X11643943Y-16922914D02*
X11643943Y-16622914D01*
X11615371Y-16665771D01*
X11586800Y-16694343D01*
X11558228Y-16708629D01*
X12086800Y-16922914D02*
X12086800Y-16622914D01*
X12215371Y-16922914D02*
X12215371Y-16765771D01*
X12201086Y-16737200D01*
X12172514Y-16722914D01*
X12129657Y-16722914D01*
X12101086Y-16737200D01*
X12086800Y-16751486D01*
X12401086Y-16922914D02*
X12372514Y-16908629D01*
X12358228Y-16894343D01*
X12343943Y-16865772D01*
X12343943Y-16780057D01*
X12358228Y-16751486D01*
X12372514Y-16737200D01*
X12401086Y-16722914D01*
X12443943Y-16722914D01*
X12472514Y-16737200D01*
X12486800Y-16751486D01*
X12501086Y-16780057D01*
X12501086Y-16865772D01*
X12486800Y-16894343D01*
X12472514Y-16908629D01*
X12443943Y-16922914D01*
X12401086Y-16922914D01*
X12672514Y-16922914D02*
X12643943Y-16908629D01*
X12629657Y-16880057D01*
X12629657Y-16622914D01*
X12901086Y-16908629D02*
X12872514Y-16922914D01*
X12815371Y-16922914D01*
X12786800Y-16908629D01*
X12772514Y-16880057D01*
X12772514Y-16765771D01*
X12786800Y-16737200D01*
X12815371Y-16722914D01*
X12872514Y-16722914D01*
X12901086Y-16737200D01*
X12915371Y-16765771D01*
X12915371Y-16794343D01*
X12772514Y-16822914D01*
X13015371Y-17037200D02*
X13029657Y-17022914D01*
X13058228Y-16980057D01*
X13072514Y-16951486D01*
X13086800Y-16908629D01*
X13101086Y-16837200D01*
X13101086Y-16780057D01*
X13086800Y-16708629D01*
X13072514Y-16665771D01*
X13058228Y-16637200D01*
X13029657Y-16594343D01*
X13015371Y-16580057D01*
M02*
