%TF.GenerationSoftware,KiCad,Pcbnew,5.1.5-52549c5~84~ubuntu19.10.1*%
%TF.CreationDate,2020-02-07T20:24:03-05:00*%
%TF.ProjectId,AAMB,41414d42-2e6b-4696-9361-645f70636258,rev?*%
%TF.SameCoordinates,Original*%
%TF.FileFunction,Legend,Bot*%
%TF.FilePolarity,Positive*%
%FSLAX46Y46*%
G04 Gerber Fmt 4.6, Leading zero omitted, Abs format (unit mm)*
G04 Created by KiCad (PCBNEW 5.1.5-52549c5~84~ubuntu19.10.1) date 2020-02-07 20:24:03*
%MOMM*%
%LPD*%
G04 APERTURE LIST*
%ADD10C,0.120000*%
%ADD11C,0.150000*%
G04 APERTURE END LIST*
D10*
X111144733Y-118556000D02*
X111487267Y-118556000D01*
X111144733Y-117536000D02*
X111487267Y-117536000D01*
X112176000Y-91949000D02*
X106776000Y-91949000D01*
X112176000Y-95249000D02*
X106776000Y-95249000D01*
X112176000Y-91949000D02*
X112176000Y-95249000D01*
X110207000Y-104268000D02*
X110207000Y-107568000D01*
X110207000Y-107568000D02*
X104807000Y-107568000D01*
X110207000Y-104268000D02*
X104807000Y-104268000D01*
X93770267Y-88771000D02*
X93427733Y-88771000D01*
X93770267Y-89791000D02*
X93427733Y-89791000D01*
X69996233Y-92521500D02*
X70338767Y-92521500D01*
X69996233Y-91501500D02*
X70338767Y-91501500D01*
X77662500Y-111550267D02*
X77662500Y-111207733D01*
X76642500Y-111550267D02*
X76642500Y-111207733D01*
X86332600Y-102762733D02*
X86332600Y-103105267D01*
X87352600Y-102762733D02*
X87352600Y-103105267D01*
X91886500Y-102176733D02*
X91886500Y-102519267D01*
X90866500Y-102176733D02*
X90866500Y-102519267D01*
X110508733Y-109222000D02*
X110851267Y-109222000D01*
X110508733Y-108202000D02*
X110851267Y-108202000D01*
X111423267Y-120144000D02*
X111080733Y-120144000D01*
X111423267Y-119124000D02*
X111080733Y-119124000D01*
X109158000Y-119043267D02*
X109158000Y-118700733D01*
X108138000Y-119043267D02*
X108138000Y-118700733D01*
X174580733Y-114552000D02*
X174923267Y-114552000D01*
X174580733Y-115572000D02*
X174923267Y-115572000D01*
X86456733Y-98740500D02*
X86799267Y-98740500D01*
X86456733Y-99760500D02*
X86799267Y-99760500D01*
X85219000Y-93593767D02*
X85219000Y-93251233D01*
X84199000Y-93593767D02*
X84199000Y-93251233D01*
X82484500Y-93251233D02*
X82484500Y-93593767D01*
X83504500Y-93251233D02*
X83504500Y-93593767D01*
X98077233Y-88072500D02*
X98419767Y-88072500D01*
X98077233Y-89092500D02*
X98419767Y-89092500D01*
X98419767Y-86485000D02*
X98077233Y-86485000D01*
X98419767Y-87505000D02*
X98077233Y-87505000D01*
X82646733Y-78424500D02*
X82989267Y-78424500D01*
X82646733Y-77404500D02*
X82989267Y-77404500D01*
X127552267Y-81595500D02*
X127209733Y-81595500D01*
X127552267Y-82615500D02*
X127209733Y-82615500D01*
X127538267Y-79504000D02*
X127195733Y-79504000D01*
X127538267Y-78484000D02*
X127195733Y-78484000D01*
X127195733Y-81091500D02*
X127538267Y-81091500D01*
X127195733Y-80071500D02*
X127538267Y-80071500D01*
X127160733Y-76960000D02*
X127503267Y-76960000D01*
X127160733Y-77980000D02*
X127503267Y-77980000D01*
X80600733Y-73340500D02*
X80943267Y-73340500D01*
X80600733Y-74360500D02*
X80943267Y-74360500D01*
X93756267Y-86993000D02*
X93413733Y-86993000D01*
X93756267Y-88013000D02*
X93413733Y-88013000D01*
X91120500Y-73944267D02*
X91120500Y-73601733D01*
X92140500Y-73944267D02*
X92140500Y-73601733D01*
X197465267Y-84736400D02*
X197122733Y-84736400D01*
X197465267Y-83716400D02*
X197122733Y-83716400D01*
X197479267Y-86362000D02*
X197136733Y-86362000D01*
X197479267Y-85342000D02*
X197136733Y-85342000D01*
X197122733Y-82116200D02*
X197465267Y-82116200D01*
X197122733Y-83136200D02*
X197465267Y-83136200D01*
X201424000Y-105682733D02*
X201424000Y-106025267D01*
X200404000Y-105682733D02*
X200404000Y-106025267D01*
X205758733Y-97538000D02*
X206101267Y-97538000D01*
X205758733Y-96518000D02*
X206101267Y-96518000D01*
X202877267Y-76261500D02*
X202534733Y-76261500D01*
X202877267Y-77281500D02*
X202534733Y-77281500D01*
X205163267Y-73154000D02*
X204820733Y-73154000D01*
X205163267Y-72134000D02*
X204820733Y-72134000D01*
X202622333Y-90172000D02*
X202964867Y-90172000D01*
X202622333Y-89152000D02*
X202964867Y-89152000D01*
X192449267Y-75884500D02*
X192106733Y-75884500D01*
X192449267Y-74864500D02*
X192106733Y-74864500D01*
X108438000Y-113348000D02*
X108438000Y-109898000D01*
X108438000Y-113348000D02*
X108438000Y-115298000D01*
X113558000Y-113348000D02*
X113558000Y-111398000D01*
X113558000Y-113348000D02*
X113558000Y-115298000D01*
X166619267Y-80583500D02*
X166276733Y-80583500D01*
X166619267Y-79563500D02*
X166276733Y-79563500D01*
X69996233Y-99756000D02*
X70338767Y-99756000D01*
X69996233Y-100776000D02*
X70338767Y-100776000D01*
X69511500Y-111284936D02*
X69511500Y-112489064D01*
X71331500Y-111284936D02*
X71331500Y-112489064D01*
X67648500Y-98167436D02*
X67648500Y-99371564D01*
X65828500Y-98167436D02*
X65828500Y-99371564D01*
X137988000Y-80689267D02*
X137988000Y-80346733D01*
X136968000Y-80689267D02*
X136968000Y-80346733D01*
X91078233Y-119188000D02*
X91420767Y-119188000D01*
X91078233Y-120208000D02*
X91420767Y-120208000D01*
X211256164Y-82233600D02*
X208452036Y-82233600D01*
X211256164Y-79513600D02*
X208452036Y-79513600D01*
X202458336Y-91756400D02*
X205262464Y-91756400D01*
X202458336Y-94476400D02*
X205262464Y-94476400D01*
X99658000Y-81211436D02*
X99658000Y-84015564D01*
X96938000Y-81211436D02*
X96938000Y-84015564D01*
X182593064Y-104352000D02*
X181388936Y-104352000D01*
X182593064Y-102532000D02*
X181388936Y-102532000D01*
X100399936Y-95525000D02*
X101604064Y-95525000D01*
X100399936Y-93705000D02*
X101604064Y-93705000D01*
X162681936Y-82155200D02*
X165486064Y-82155200D01*
X162681936Y-84875200D02*
X165486064Y-84875200D01*
X172671200Y-86875467D02*
X172671200Y-86532933D01*
X171651200Y-86875467D02*
X171651200Y-86532933D01*
X187115267Y-87378000D02*
X186772733Y-87378000D01*
X187115267Y-86358000D02*
X186772733Y-86358000D01*
D11*
X111958857Y-119833142D02*
X112006476Y-119880761D01*
X112149333Y-119928380D01*
X112244571Y-119928380D01*
X112387428Y-119880761D01*
X112482666Y-119785523D01*
X112530285Y-119690285D01*
X112577904Y-119499809D01*
X112577904Y-119356952D01*
X112530285Y-119166476D01*
X112482666Y-119071238D01*
X112387428Y-118976000D01*
X112244571Y-118928380D01*
X112149333Y-118928380D01*
X112006476Y-118976000D01*
X111958857Y-119023619D01*
X111006476Y-119928380D02*
X111577904Y-119928380D01*
X111292190Y-119928380D02*
X111292190Y-118928380D01*
X111387428Y-119071238D01*
X111482666Y-119166476D01*
X111577904Y-119214095D01*
X110625523Y-119023619D02*
X110577904Y-118976000D01*
X110482666Y-118928380D01*
X110244571Y-118928380D01*
X110149333Y-118976000D01*
X110101714Y-119023619D01*
X110054095Y-119118857D01*
X110054095Y-119214095D01*
X110101714Y-119356952D01*
X110673142Y-119928380D01*
X110054095Y-119928380D01*
X109990285Y-91551380D02*
X109990285Y-90551380D01*
X109752190Y-90551380D01*
X109609333Y-90599000D01*
X109514095Y-90694238D01*
X109466476Y-90789476D01*
X109418857Y-90979952D01*
X109418857Y-91122809D01*
X109466476Y-91313285D01*
X109514095Y-91408523D01*
X109609333Y-91503761D01*
X109752190Y-91551380D01*
X109990285Y-91551380D01*
X108466476Y-91551380D02*
X109037904Y-91551380D01*
X108752190Y-91551380D02*
X108752190Y-90551380D01*
X108847428Y-90694238D01*
X108942666Y-90789476D01*
X109037904Y-90837095D01*
X107514095Y-91551380D02*
X108085523Y-91551380D01*
X107799809Y-91551380D02*
X107799809Y-90551380D01*
X107895047Y-90694238D01*
X107990285Y-90789476D01*
X108085523Y-90837095D01*
X108021285Y-103870380D02*
X108021285Y-102870380D01*
X107783190Y-102870380D01*
X107640333Y-102918000D01*
X107545095Y-103013238D01*
X107497476Y-103108476D01*
X107449857Y-103298952D01*
X107449857Y-103441809D01*
X107497476Y-103632285D01*
X107545095Y-103727523D01*
X107640333Y-103822761D01*
X107783190Y-103870380D01*
X108021285Y-103870380D01*
X106497476Y-103870380D02*
X107068904Y-103870380D01*
X106783190Y-103870380D02*
X106783190Y-102870380D01*
X106878428Y-103013238D01*
X106973666Y-103108476D01*
X107068904Y-103156095D01*
X106164142Y-102870380D02*
X105545095Y-102870380D01*
X105878428Y-103251333D01*
X105735571Y-103251333D01*
X105640333Y-103298952D01*
X105592714Y-103346571D01*
X105545095Y-103441809D01*
X105545095Y-103679904D01*
X105592714Y-103775142D01*
X105640333Y-103822761D01*
X105735571Y-103870380D01*
X106021285Y-103870380D01*
X106116523Y-103822761D01*
X106164142Y-103775142D01*
X93765666Y-88303380D02*
X94099000Y-87827190D01*
X94337095Y-88303380D02*
X94337095Y-87303380D01*
X93956142Y-87303380D01*
X93860904Y-87351000D01*
X93813285Y-87398619D01*
X93765666Y-87493857D01*
X93765666Y-87636714D01*
X93813285Y-87731952D01*
X93860904Y-87779571D01*
X93956142Y-87827190D01*
X94337095Y-87827190D01*
X92813285Y-88303380D02*
X93384714Y-88303380D01*
X93099000Y-88303380D02*
X93099000Y-87303380D01*
X93194238Y-87446238D01*
X93289476Y-87541476D01*
X93384714Y-87589095D01*
X70334166Y-93893880D02*
X70667500Y-93417690D01*
X70905595Y-93893880D02*
X70905595Y-92893880D01*
X70524642Y-92893880D01*
X70429404Y-92941500D01*
X70381785Y-92989119D01*
X70334166Y-93084357D01*
X70334166Y-93227214D01*
X70381785Y-93322452D01*
X70429404Y-93370071D01*
X70524642Y-93417690D01*
X70905595Y-93417690D01*
X70000833Y-92893880D02*
X69381785Y-92893880D01*
X69715119Y-93274833D01*
X69572261Y-93274833D01*
X69477023Y-93322452D01*
X69429404Y-93370071D01*
X69381785Y-93465309D01*
X69381785Y-93703404D01*
X69429404Y-93798642D01*
X69477023Y-93846261D01*
X69572261Y-93893880D01*
X69857976Y-93893880D01*
X69953214Y-93846261D01*
X70000833Y-93798642D01*
X79034880Y-111212333D02*
X78558690Y-110879000D01*
X79034880Y-110640904D02*
X78034880Y-110640904D01*
X78034880Y-111021857D01*
X78082500Y-111117095D01*
X78130119Y-111164714D01*
X78225357Y-111212333D01*
X78368214Y-111212333D01*
X78463452Y-111164714D01*
X78511071Y-111117095D01*
X78558690Y-111021857D01*
X78558690Y-110640904D01*
X78034880Y-112117095D02*
X78034880Y-111640904D01*
X78511071Y-111593285D01*
X78463452Y-111640904D01*
X78415833Y-111736142D01*
X78415833Y-111974238D01*
X78463452Y-112069476D01*
X78511071Y-112117095D01*
X78606309Y-112164714D01*
X78844404Y-112164714D01*
X78939642Y-112117095D01*
X78987261Y-112069476D01*
X79034880Y-111974238D01*
X79034880Y-111736142D01*
X78987261Y-111640904D01*
X78939642Y-111593285D01*
X85864980Y-102767333D02*
X85388790Y-102434000D01*
X85864980Y-102195904D02*
X84864980Y-102195904D01*
X84864980Y-102576857D01*
X84912600Y-102672095D01*
X84960219Y-102719714D01*
X85055457Y-102767333D01*
X85198314Y-102767333D01*
X85293552Y-102719714D01*
X85341171Y-102672095D01*
X85388790Y-102576857D01*
X85388790Y-102195904D01*
X85864980Y-103243523D02*
X85864980Y-103434000D01*
X85817361Y-103529238D01*
X85769742Y-103576857D01*
X85626885Y-103672095D01*
X85436409Y-103719714D01*
X85055457Y-103719714D01*
X84960219Y-103672095D01*
X84912600Y-103624476D01*
X84864980Y-103529238D01*
X84864980Y-103338761D01*
X84912600Y-103243523D01*
X84960219Y-103195904D01*
X85055457Y-103148285D01*
X85293552Y-103148285D01*
X85388790Y-103195904D01*
X85436409Y-103243523D01*
X85484028Y-103338761D01*
X85484028Y-103529238D01*
X85436409Y-103624476D01*
X85388790Y-103672095D01*
X85293552Y-103719714D01*
X90398880Y-101705142D02*
X89922690Y-101371809D01*
X90398880Y-101133714D02*
X89398880Y-101133714D01*
X89398880Y-101514666D01*
X89446500Y-101609904D01*
X89494119Y-101657523D01*
X89589357Y-101705142D01*
X89732214Y-101705142D01*
X89827452Y-101657523D01*
X89875071Y-101609904D01*
X89922690Y-101514666D01*
X89922690Y-101133714D01*
X90398880Y-102657523D02*
X90398880Y-102086095D01*
X90398880Y-102371809D02*
X89398880Y-102371809D01*
X89541738Y-102276571D01*
X89636976Y-102181333D01*
X89684595Y-102086095D01*
X89398880Y-103276571D02*
X89398880Y-103371809D01*
X89446500Y-103467047D01*
X89494119Y-103514666D01*
X89589357Y-103562285D01*
X89779833Y-103609904D01*
X90017928Y-103609904D01*
X90208404Y-103562285D01*
X90303642Y-103514666D01*
X90351261Y-103467047D01*
X90398880Y-103371809D01*
X90398880Y-103276571D01*
X90351261Y-103181333D01*
X90303642Y-103133714D01*
X90208404Y-103086095D01*
X90017928Y-103038476D01*
X89779833Y-103038476D01*
X89589357Y-103086095D01*
X89494119Y-103133714D01*
X89446500Y-103181333D01*
X89398880Y-103276571D01*
X111322857Y-110594380D02*
X111656190Y-110118190D01*
X111894285Y-110594380D02*
X111894285Y-109594380D01*
X111513333Y-109594380D01*
X111418095Y-109642000D01*
X111370476Y-109689619D01*
X111322857Y-109784857D01*
X111322857Y-109927714D01*
X111370476Y-110022952D01*
X111418095Y-110070571D01*
X111513333Y-110118190D01*
X111894285Y-110118190D01*
X110941904Y-109689619D02*
X110894285Y-109642000D01*
X110799047Y-109594380D01*
X110560952Y-109594380D01*
X110465714Y-109642000D01*
X110418095Y-109689619D01*
X110370476Y-109784857D01*
X110370476Y-109880095D01*
X110418095Y-110022952D01*
X110989523Y-110594380D01*
X110370476Y-110594380D01*
X110037142Y-109594380D02*
X109418095Y-109594380D01*
X109751428Y-109975333D01*
X109608571Y-109975333D01*
X109513333Y-110022952D01*
X109465714Y-110070571D01*
X109418095Y-110165809D01*
X109418095Y-110403904D01*
X109465714Y-110499142D01*
X109513333Y-110546761D01*
X109608571Y-110594380D01*
X109894285Y-110594380D01*
X109989523Y-110546761D01*
X110037142Y-110499142D01*
X111894857Y-118656380D02*
X112228190Y-118180190D01*
X112466285Y-118656380D02*
X112466285Y-117656380D01*
X112085333Y-117656380D01*
X111990095Y-117704000D01*
X111942476Y-117751619D01*
X111894857Y-117846857D01*
X111894857Y-117989714D01*
X111942476Y-118084952D01*
X111990095Y-118132571D01*
X112085333Y-118180190D01*
X112466285Y-118180190D01*
X111561523Y-117656380D02*
X110942476Y-117656380D01*
X111275809Y-118037333D01*
X111132952Y-118037333D01*
X111037714Y-118084952D01*
X110990095Y-118132571D01*
X110942476Y-118227809D01*
X110942476Y-118465904D01*
X110990095Y-118561142D01*
X111037714Y-118608761D01*
X111132952Y-118656380D01*
X111418666Y-118656380D01*
X111513904Y-118608761D01*
X111561523Y-118561142D01*
X110609142Y-117656380D02*
X109990095Y-117656380D01*
X110323428Y-118037333D01*
X110180571Y-118037333D01*
X110085333Y-118084952D01*
X110037714Y-118132571D01*
X109990095Y-118227809D01*
X109990095Y-118465904D01*
X110037714Y-118561142D01*
X110085333Y-118608761D01*
X110180571Y-118656380D01*
X110466285Y-118656380D01*
X110561523Y-118608761D01*
X110609142Y-118561142D01*
X110530380Y-118229142D02*
X110054190Y-117895809D01*
X110530380Y-117657714D02*
X109530380Y-117657714D01*
X109530380Y-118038666D01*
X109578000Y-118133904D01*
X109625619Y-118181523D01*
X109720857Y-118229142D01*
X109863714Y-118229142D01*
X109958952Y-118181523D01*
X110006571Y-118133904D01*
X110054190Y-118038666D01*
X110054190Y-117657714D01*
X109530380Y-118562476D02*
X109530380Y-119181523D01*
X109911333Y-118848190D01*
X109911333Y-118991047D01*
X109958952Y-119086285D01*
X110006571Y-119133904D01*
X110101809Y-119181523D01*
X110339904Y-119181523D01*
X110435142Y-119133904D01*
X110482761Y-119086285D01*
X110530380Y-118991047D01*
X110530380Y-118705333D01*
X110482761Y-118610095D01*
X110435142Y-118562476D01*
X109530380Y-120086285D02*
X109530380Y-119610095D01*
X110006571Y-119562476D01*
X109958952Y-119610095D01*
X109911333Y-119705333D01*
X109911333Y-119943428D01*
X109958952Y-120038666D01*
X110006571Y-120086285D01*
X110101809Y-120133904D01*
X110339904Y-120133904D01*
X110435142Y-120086285D01*
X110482761Y-120038666D01*
X110530380Y-119943428D01*
X110530380Y-119705333D01*
X110482761Y-119610095D01*
X110435142Y-119562476D01*
X175394857Y-116944380D02*
X175728190Y-116468190D01*
X175966285Y-116944380D02*
X175966285Y-115944380D01*
X175585333Y-115944380D01*
X175490095Y-115992000D01*
X175442476Y-116039619D01*
X175394857Y-116134857D01*
X175394857Y-116277714D01*
X175442476Y-116372952D01*
X175490095Y-116420571D01*
X175585333Y-116468190D01*
X175966285Y-116468190D01*
X175061523Y-115944380D02*
X174442476Y-115944380D01*
X174775809Y-116325333D01*
X174632952Y-116325333D01*
X174537714Y-116372952D01*
X174490095Y-116420571D01*
X174442476Y-116515809D01*
X174442476Y-116753904D01*
X174490095Y-116849142D01*
X174537714Y-116896761D01*
X174632952Y-116944380D01*
X174918666Y-116944380D01*
X175013904Y-116896761D01*
X175061523Y-116849142D01*
X173871047Y-116372952D02*
X173966285Y-116325333D01*
X174013904Y-116277714D01*
X174061523Y-116182476D01*
X174061523Y-116134857D01*
X174013904Y-116039619D01*
X173966285Y-115992000D01*
X173871047Y-115944380D01*
X173680571Y-115944380D01*
X173585333Y-115992000D01*
X173537714Y-116039619D01*
X173490095Y-116134857D01*
X173490095Y-116182476D01*
X173537714Y-116277714D01*
X173585333Y-116325333D01*
X173680571Y-116372952D01*
X173871047Y-116372952D01*
X173966285Y-116420571D01*
X174013904Y-116468190D01*
X174061523Y-116563428D01*
X174061523Y-116753904D01*
X174013904Y-116849142D01*
X173966285Y-116896761D01*
X173871047Y-116944380D01*
X173680571Y-116944380D01*
X173585333Y-116896761D01*
X173537714Y-116849142D01*
X173490095Y-116753904D01*
X173490095Y-116563428D01*
X173537714Y-116468190D01*
X173585333Y-116420571D01*
X173680571Y-116372952D01*
X87747047Y-101132880D02*
X88080380Y-100656690D01*
X88318476Y-101132880D02*
X88318476Y-100132880D01*
X87937523Y-100132880D01*
X87842285Y-100180500D01*
X87794666Y-100228119D01*
X87747047Y-100323357D01*
X87747047Y-100466214D01*
X87794666Y-100561452D01*
X87842285Y-100609071D01*
X87937523Y-100656690D01*
X88318476Y-100656690D01*
X87366095Y-100228119D02*
X87318476Y-100180500D01*
X87223238Y-100132880D01*
X86985142Y-100132880D01*
X86889904Y-100180500D01*
X86842285Y-100228119D01*
X86794666Y-100323357D01*
X86794666Y-100418595D01*
X86842285Y-100561452D01*
X87413714Y-101132880D01*
X86794666Y-101132880D01*
X86175619Y-100132880D02*
X86080380Y-100132880D01*
X85985142Y-100180500D01*
X85937523Y-100228119D01*
X85889904Y-100323357D01*
X85842285Y-100513833D01*
X85842285Y-100751928D01*
X85889904Y-100942404D01*
X85937523Y-101037642D01*
X85985142Y-101085261D01*
X86080380Y-101132880D01*
X86175619Y-101132880D01*
X86270857Y-101085261D01*
X86318476Y-101037642D01*
X86366095Y-100942404D01*
X86413714Y-100751928D01*
X86413714Y-100513833D01*
X86366095Y-100323357D01*
X86318476Y-100228119D01*
X86270857Y-100180500D01*
X86175619Y-100132880D01*
X84889904Y-101132880D02*
X85461333Y-101132880D01*
X85175619Y-101132880D02*
X85175619Y-100132880D01*
X85270857Y-100275738D01*
X85366095Y-100370976D01*
X85461333Y-100418595D01*
X86591380Y-92303452D02*
X86115190Y-91970119D01*
X86591380Y-91732023D02*
X85591380Y-91732023D01*
X85591380Y-92112976D01*
X85639000Y-92208214D01*
X85686619Y-92255833D01*
X85781857Y-92303452D01*
X85924714Y-92303452D01*
X86019952Y-92255833D01*
X86067571Y-92208214D01*
X86115190Y-92112976D01*
X86115190Y-91732023D01*
X85686619Y-92684404D02*
X85639000Y-92732023D01*
X85591380Y-92827261D01*
X85591380Y-93065357D01*
X85639000Y-93160595D01*
X85686619Y-93208214D01*
X85781857Y-93255833D01*
X85877095Y-93255833D01*
X86019952Y-93208214D01*
X86591380Y-92636785D01*
X86591380Y-93255833D01*
X85591380Y-93874880D02*
X85591380Y-93970119D01*
X85639000Y-94065357D01*
X85686619Y-94112976D01*
X85781857Y-94160595D01*
X85972333Y-94208214D01*
X86210428Y-94208214D01*
X86400904Y-94160595D01*
X86496142Y-94112976D01*
X86543761Y-94065357D01*
X86591380Y-93970119D01*
X86591380Y-93874880D01*
X86543761Y-93779642D01*
X86496142Y-93732023D01*
X86400904Y-93684404D01*
X86210428Y-93636785D01*
X85972333Y-93636785D01*
X85781857Y-93684404D01*
X85686619Y-93732023D01*
X85639000Y-93779642D01*
X85591380Y-93874880D01*
X85686619Y-94589166D02*
X85639000Y-94636785D01*
X85591380Y-94732023D01*
X85591380Y-94970119D01*
X85639000Y-95065357D01*
X85686619Y-95112976D01*
X85781857Y-95160595D01*
X85877095Y-95160595D01*
X86019952Y-95112976D01*
X86591380Y-94541547D01*
X86591380Y-95160595D01*
X82016880Y-92303452D02*
X81540690Y-91970119D01*
X82016880Y-91732023D02*
X81016880Y-91732023D01*
X81016880Y-92112976D01*
X81064500Y-92208214D01*
X81112119Y-92255833D01*
X81207357Y-92303452D01*
X81350214Y-92303452D01*
X81445452Y-92255833D01*
X81493071Y-92208214D01*
X81540690Y-92112976D01*
X81540690Y-91732023D01*
X81112119Y-92684404D02*
X81064500Y-92732023D01*
X81016880Y-92827261D01*
X81016880Y-93065357D01*
X81064500Y-93160595D01*
X81112119Y-93208214D01*
X81207357Y-93255833D01*
X81302595Y-93255833D01*
X81445452Y-93208214D01*
X82016880Y-92636785D01*
X82016880Y-93255833D01*
X81016880Y-93874880D02*
X81016880Y-93970119D01*
X81064500Y-94065357D01*
X81112119Y-94112976D01*
X81207357Y-94160595D01*
X81397833Y-94208214D01*
X81635928Y-94208214D01*
X81826404Y-94160595D01*
X81921642Y-94112976D01*
X81969261Y-94065357D01*
X82016880Y-93970119D01*
X82016880Y-93874880D01*
X81969261Y-93779642D01*
X81921642Y-93732023D01*
X81826404Y-93684404D01*
X81635928Y-93636785D01*
X81397833Y-93636785D01*
X81207357Y-93684404D01*
X81112119Y-93732023D01*
X81064500Y-93779642D01*
X81016880Y-93874880D01*
X81016880Y-94541547D02*
X81016880Y-95160595D01*
X81397833Y-94827261D01*
X81397833Y-94970119D01*
X81445452Y-95065357D01*
X81493071Y-95112976D01*
X81588309Y-95160595D01*
X81826404Y-95160595D01*
X81921642Y-95112976D01*
X81969261Y-95065357D01*
X82016880Y-94970119D01*
X82016880Y-94684404D01*
X81969261Y-94589166D01*
X81921642Y-94541547D01*
X99367547Y-90464880D02*
X99700880Y-89988690D01*
X99938976Y-90464880D02*
X99938976Y-89464880D01*
X99558023Y-89464880D01*
X99462785Y-89512500D01*
X99415166Y-89560119D01*
X99367547Y-89655357D01*
X99367547Y-89798214D01*
X99415166Y-89893452D01*
X99462785Y-89941071D01*
X99558023Y-89988690D01*
X99938976Y-89988690D01*
X98986595Y-89560119D02*
X98938976Y-89512500D01*
X98843738Y-89464880D01*
X98605642Y-89464880D01*
X98510404Y-89512500D01*
X98462785Y-89560119D01*
X98415166Y-89655357D01*
X98415166Y-89750595D01*
X98462785Y-89893452D01*
X99034214Y-90464880D01*
X98415166Y-90464880D01*
X97796119Y-89464880D02*
X97700880Y-89464880D01*
X97605642Y-89512500D01*
X97558023Y-89560119D01*
X97510404Y-89655357D01*
X97462785Y-89845833D01*
X97462785Y-90083928D01*
X97510404Y-90274404D01*
X97558023Y-90369642D01*
X97605642Y-90417261D01*
X97700880Y-90464880D01*
X97796119Y-90464880D01*
X97891357Y-90417261D01*
X97938976Y-90369642D01*
X97986595Y-90274404D01*
X98034214Y-90083928D01*
X98034214Y-89845833D01*
X97986595Y-89655357D01*
X97938976Y-89560119D01*
X97891357Y-89512500D01*
X97796119Y-89464880D01*
X96605642Y-89798214D02*
X96605642Y-90464880D01*
X96843738Y-89417261D02*
X97081833Y-90131547D01*
X96462785Y-90131547D01*
X99367547Y-86017380D02*
X99700880Y-85541190D01*
X99938976Y-86017380D02*
X99938976Y-85017380D01*
X99558023Y-85017380D01*
X99462785Y-85065000D01*
X99415166Y-85112619D01*
X99367547Y-85207857D01*
X99367547Y-85350714D01*
X99415166Y-85445952D01*
X99462785Y-85493571D01*
X99558023Y-85541190D01*
X99938976Y-85541190D01*
X98986595Y-85112619D02*
X98938976Y-85065000D01*
X98843738Y-85017380D01*
X98605642Y-85017380D01*
X98510404Y-85065000D01*
X98462785Y-85112619D01*
X98415166Y-85207857D01*
X98415166Y-85303095D01*
X98462785Y-85445952D01*
X99034214Y-86017380D01*
X98415166Y-86017380D01*
X97796119Y-85017380D02*
X97700880Y-85017380D01*
X97605642Y-85065000D01*
X97558023Y-85112619D01*
X97510404Y-85207857D01*
X97462785Y-85398333D01*
X97462785Y-85636428D01*
X97510404Y-85826904D01*
X97558023Y-85922142D01*
X97605642Y-85969761D01*
X97700880Y-86017380D01*
X97796119Y-86017380D01*
X97891357Y-85969761D01*
X97938976Y-85922142D01*
X97986595Y-85826904D01*
X98034214Y-85636428D01*
X98034214Y-85398333D01*
X97986595Y-85207857D01*
X97938976Y-85112619D01*
X97891357Y-85065000D01*
X97796119Y-85017380D01*
X96558023Y-85017380D02*
X97034214Y-85017380D01*
X97081833Y-85493571D01*
X97034214Y-85445952D01*
X96938976Y-85398333D01*
X96700880Y-85398333D01*
X96605642Y-85445952D01*
X96558023Y-85493571D01*
X96510404Y-85588809D01*
X96510404Y-85826904D01*
X96558023Y-85922142D01*
X96605642Y-85969761D01*
X96700880Y-86017380D01*
X96938976Y-86017380D01*
X97034214Y-85969761D01*
X97081833Y-85922142D01*
X83923047Y-79954380D02*
X84256380Y-79478190D01*
X84494476Y-79954380D02*
X84494476Y-78954380D01*
X84113523Y-78954380D01*
X84018285Y-79002000D01*
X83970666Y-79049619D01*
X83923047Y-79144857D01*
X83923047Y-79287714D01*
X83970666Y-79382952D01*
X84018285Y-79430571D01*
X84113523Y-79478190D01*
X84494476Y-79478190D01*
X83542095Y-79049619D02*
X83494476Y-79002000D01*
X83399238Y-78954380D01*
X83161142Y-78954380D01*
X83065904Y-79002000D01*
X83018285Y-79049619D01*
X82970666Y-79144857D01*
X82970666Y-79240095D01*
X83018285Y-79382952D01*
X83589714Y-79954380D01*
X82970666Y-79954380D01*
X82351619Y-78954380D02*
X82256380Y-78954380D01*
X82161142Y-79002000D01*
X82113523Y-79049619D01*
X82065904Y-79144857D01*
X82018285Y-79335333D01*
X82018285Y-79573428D01*
X82065904Y-79763904D01*
X82113523Y-79859142D01*
X82161142Y-79906761D01*
X82256380Y-79954380D01*
X82351619Y-79954380D01*
X82446857Y-79906761D01*
X82494476Y-79859142D01*
X82542095Y-79763904D01*
X82589714Y-79573428D01*
X82589714Y-79335333D01*
X82542095Y-79144857D01*
X82494476Y-79049619D01*
X82446857Y-79002000D01*
X82351619Y-78954380D01*
X81161142Y-78954380D02*
X81351619Y-78954380D01*
X81446857Y-79002000D01*
X81494476Y-79049619D01*
X81589714Y-79192476D01*
X81637333Y-79382952D01*
X81637333Y-79763904D01*
X81589714Y-79859142D01*
X81542095Y-79906761D01*
X81446857Y-79954380D01*
X81256380Y-79954380D01*
X81161142Y-79906761D01*
X81113523Y-79859142D01*
X81065904Y-79763904D01*
X81065904Y-79525809D01*
X81113523Y-79430571D01*
X81161142Y-79382952D01*
X81256380Y-79335333D01*
X81446857Y-79335333D01*
X81542095Y-79382952D01*
X81589714Y-79430571D01*
X81637333Y-79525809D01*
X128500047Y-81127880D02*
X128833380Y-80651690D01*
X129071476Y-81127880D02*
X129071476Y-80127880D01*
X128690523Y-80127880D01*
X128595285Y-80175500D01*
X128547666Y-80223119D01*
X128500047Y-80318357D01*
X128500047Y-80461214D01*
X128547666Y-80556452D01*
X128595285Y-80604071D01*
X128690523Y-80651690D01*
X129071476Y-80651690D01*
X128119095Y-80223119D02*
X128071476Y-80175500D01*
X127976238Y-80127880D01*
X127738142Y-80127880D01*
X127642904Y-80175500D01*
X127595285Y-80223119D01*
X127547666Y-80318357D01*
X127547666Y-80413595D01*
X127595285Y-80556452D01*
X128166714Y-81127880D01*
X127547666Y-81127880D01*
X126928619Y-80127880D02*
X126833380Y-80127880D01*
X126738142Y-80175500D01*
X126690523Y-80223119D01*
X126642904Y-80318357D01*
X126595285Y-80508833D01*
X126595285Y-80746928D01*
X126642904Y-80937404D01*
X126690523Y-81032642D01*
X126738142Y-81080261D01*
X126833380Y-81127880D01*
X126928619Y-81127880D01*
X127023857Y-81080261D01*
X127071476Y-81032642D01*
X127119095Y-80937404D01*
X127166714Y-80746928D01*
X127166714Y-80508833D01*
X127119095Y-80318357D01*
X127071476Y-80223119D01*
X127023857Y-80175500D01*
X126928619Y-80127880D01*
X126261952Y-80127880D02*
X125595285Y-80127880D01*
X126023857Y-81127880D01*
X128486047Y-78016380D02*
X128819380Y-77540190D01*
X129057476Y-78016380D02*
X129057476Y-77016380D01*
X128676523Y-77016380D01*
X128581285Y-77064000D01*
X128533666Y-77111619D01*
X128486047Y-77206857D01*
X128486047Y-77349714D01*
X128533666Y-77444952D01*
X128581285Y-77492571D01*
X128676523Y-77540190D01*
X129057476Y-77540190D01*
X128105095Y-77111619D02*
X128057476Y-77064000D01*
X127962238Y-77016380D01*
X127724142Y-77016380D01*
X127628904Y-77064000D01*
X127581285Y-77111619D01*
X127533666Y-77206857D01*
X127533666Y-77302095D01*
X127581285Y-77444952D01*
X128152714Y-78016380D01*
X127533666Y-78016380D01*
X126914619Y-77016380D02*
X126819380Y-77016380D01*
X126724142Y-77064000D01*
X126676523Y-77111619D01*
X126628904Y-77206857D01*
X126581285Y-77397333D01*
X126581285Y-77635428D01*
X126628904Y-77825904D01*
X126676523Y-77921142D01*
X126724142Y-77968761D01*
X126819380Y-78016380D01*
X126914619Y-78016380D01*
X127009857Y-77968761D01*
X127057476Y-77921142D01*
X127105095Y-77825904D01*
X127152714Y-77635428D01*
X127152714Y-77397333D01*
X127105095Y-77206857D01*
X127057476Y-77111619D01*
X127009857Y-77064000D01*
X126914619Y-77016380D01*
X126105095Y-78016380D02*
X125914619Y-78016380D01*
X125819380Y-77968761D01*
X125771761Y-77921142D01*
X125676523Y-77778285D01*
X125628904Y-77587809D01*
X125628904Y-77206857D01*
X125676523Y-77111619D01*
X125724142Y-77064000D01*
X125819380Y-77016380D01*
X126009857Y-77016380D01*
X126105095Y-77064000D01*
X126152714Y-77111619D01*
X126200333Y-77206857D01*
X126200333Y-77444952D01*
X126152714Y-77540190D01*
X126105095Y-77587809D01*
X126009857Y-77635428D01*
X125819380Y-77635428D01*
X125724142Y-77587809D01*
X125676523Y-77540190D01*
X125628904Y-77444952D01*
X128486047Y-82463880D02*
X128819380Y-81987690D01*
X129057476Y-82463880D02*
X129057476Y-81463880D01*
X128676523Y-81463880D01*
X128581285Y-81511500D01*
X128533666Y-81559119D01*
X128486047Y-81654357D01*
X128486047Y-81797214D01*
X128533666Y-81892452D01*
X128581285Y-81940071D01*
X128676523Y-81987690D01*
X129057476Y-81987690D01*
X128105095Y-81559119D02*
X128057476Y-81511500D01*
X127962238Y-81463880D01*
X127724142Y-81463880D01*
X127628904Y-81511500D01*
X127581285Y-81559119D01*
X127533666Y-81654357D01*
X127533666Y-81749595D01*
X127581285Y-81892452D01*
X128152714Y-82463880D01*
X127533666Y-82463880D01*
X126581285Y-82463880D02*
X127152714Y-82463880D01*
X126867000Y-82463880D02*
X126867000Y-81463880D01*
X126962238Y-81606738D01*
X127057476Y-81701976D01*
X127152714Y-81749595D01*
X125962238Y-81463880D02*
X125867000Y-81463880D01*
X125771761Y-81511500D01*
X125724142Y-81559119D01*
X125676523Y-81654357D01*
X125628904Y-81844833D01*
X125628904Y-82082928D01*
X125676523Y-82273404D01*
X125724142Y-82368642D01*
X125771761Y-82416261D01*
X125867000Y-82463880D01*
X125962238Y-82463880D01*
X126057476Y-82416261D01*
X126105095Y-82368642D01*
X126152714Y-82273404D01*
X126200333Y-82082928D01*
X126200333Y-81844833D01*
X126152714Y-81654357D01*
X126105095Y-81559119D01*
X126057476Y-81511500D01*
X125962238Y-81463880D01*
X128451047Y-79352380D02*
X128784380Y-78876190D01*
X129022476Y-79352380D02*
X129022476Y-78352380D01*
X128641523Y-78352380D01*
X128546285Y-78400000D01*
X128498666Y-78447619D01*
X128451047Y-78542857D01*
X128451047Y-78685714D01*
X128498666Y-78780952D01*
X128546285Y-78828571D01*
X128641523Y-78876190D01*
X129022476Y-78876190D01*
X128070095Y-78447619D02*
X128022476Y-78400000D01*
X127927238Y-78352380D01*
X127689142Y-78352380D01*
X127593904Y-78400000D01*
X127546285Y-78447619D01*
X127498666Y-78542857D01*
X127498666Y-78638095D01*
X127546285Y-78780952D01*
X128117714Y-79352380D01*
X127498666Y-79352380D01*
X126546285Y-79352380D02*
X127117714Y-79352380D01*
X126832000Y-79352380D02*
X126832000Y-78352380D01*
X126927238Y-78495238D01*
X127022476Y-78590476D01*
X127117714Y-78638095D01*
X125593904Y-79352380D02*
X126165333Y-79352380D01*
X125879619Y-79352380D02*
X125879619Y-78352380D01*
X125974857Y-78495238D01*
X126070095Y-78590476D01*
X126165333Y-78638095D01*
X81891047Y-75732880D02*
X82224380Y-75256690D01*
X82462476Y-75732880D02*
X82462476Y-74732880D01*
X82081523Y-74732880D01*
X81986285Y-74780500D01*
X81938666Y-74828119D01*
X81891047Y-74923357D01*
X81891047Y-75066214D01*
X81938666Y-75161452D01*
X81986285Y-75209071D01*
X82081523Y-75256690D01*
X82462476Y-75256690D01*
X81510095Y-74828119D02*
X81462476Y-74780500D01*
X81367238Y-74732880D01*
X81129142Y-74732880D01*
X81033904Y-74780500D01*
X80986285Y-74828119D01*
X80938666Y-74923357D01*
X80938666Y-75018595D01*
X80986285Y-75161452D01*
X81557714Y-75732880D01*
X80938666Y-75732880D01*
X79986285Y-75732880D02*
X80557714Y-75732880D01*
X80272000Y-75732880D02*
X80272000Y-74732880D01*
X80367238Y-74875738D01*
X80462476Y-74970976D01*
X80557714Y-75018595D01*
X79605333Y-74828119D02*
X79557714Y-74780500D01*
X79462476Y-74732880D01*
X79224380Y-74732880D01*
X79129142Y-74780500D01*
X79081523Y-74828119D01*
X79033904Y-74923357D01*
X79033904Y-75018595D01*
X79081523Y-75161452D01*
X79652952Y-75732880D01*
X79033904Y-75732880D01*
X94704047Y-86525380D02*
X95037380Y-86049190D01*
X95275476Y-86525380D02*
X95275476Y-85525380D01*
X94894523Y-85525380D01*
X94799285Y-85573000D01*
X94751666Y-85620619D01*
X94704047Y-85715857D01*
X94704047Y-85858714D01*
X94751666Y-85953952D01*
X94799285Y-86001571D01*
X94894523Y-86049190D01*
X95275476Y-86049190D01*
X94323095Y-85620619D02*
X94275476Y-85573000D01*
X94180238Y-85525380D01*
X93942142Y-85525380D01*
X93846904Y-85573000D01*
X93799285Y-85620619D01*
X93751666Y-85715857D01*
X93751666Y-85811095D01*
X93799285Y-85953952D01*
X94370714Y-86525380D01*
X93751666Y-86525380D01*
X92799285Y-86525380D02*
X93370714Y-86525380D01*
X93085000Y-86525380D02*
X93085000Y-85525380D01*
X93180238Y-85668238D01*
X93275476Y-85763476D01*
X93370714Y-85811095D01*
X91894523Y-85525380D02*
X92370714Y-85525380D01*
X92418333Y-86001571D01*
X92370714Y-85953952D01*
X92275476Y-85906333D01*
X92037380Y-85906333D01*
X91942142Y-85953952D01*
X91894523Y-86001571D01*
X91846904Y-86096809D01*
X91846904Y-86334904D01*
X91894523Y-86430142D01*
X91942142Y-86477761D01*
X92037380Y-86525380D01*
X92275476Y-86525380D01*
X92370714Y-86477761D01*
X92418333Y-86430142D01*
X93512880Y-72653952D02*
X93036690Y-72320619D01*
X93512880Y-72082523D02*
X92512880Y-72082523D01*
X92512880Y-72463476D01*
X92560500Y-72558714D01*
X92608119Y-72606333D01*
X92703357Y-72653952D01*
X92846214Y-72653952D01*
X92941452Y-72606333D01*
X92989071Y-72558714D01*
X93036690Y-72463476D01*
X93036690Y-72082523D01*
X92608119Y-73034904D02*
X92560500Y-73082523D01*
X92512880Y-73177761D01*
X92512880Y-73415857D01*
X92560500Y-73511095D01*
X92608119Y-73558714D01*
X92703357Y-73606333D01*
X92798595Y-73606333D01*
X92941452Y-73558714D01*
X93512880Y-72987285D01*
X93512880Y-73606333D01*
X93512880Y-74558714D02*
X93512880Y-73987285D01*
X93512880Y-74273000D02*
X92512880Y-74273000D01*
X92655738Y-74177761D01*
X92750976Y-74082523D01*
X92798595Y-73987285D01*
X92512880Y-75415857D02*
X92512880Y-75225380D01*
X92560500Y-75130142D01*
X92608119Y-75082523D01*
X92750976Y-74987285D01*
X92941452Y-74939666D01*
X93322404Y-74939666D01*
X93417642Y-74987285D01*
X93465261Y-75034904D01*
X93512880Y-75130142D01*
X93512880Y-75320619D01*
X93465261Y-75415857D01*
X93417642Y-75463476D01*
X93322404Y-75511095D01*
X93084309Y-75511095D01*
X92989071Y-75463476D01*
X92941452Y-75415857D01*
X92893833Y-75320619D01*
X92893833Y-75130142D01*
X92941452Y-75034904D01*
X92989071Y-74987285D01*
X93084309Y-74939666D01*
X198413047Y-83248780D02*
X198746380Y-82772590D01*
X198984476Y-83248780D02*
X198984476Y-82248780D01*
X198603523Y-82248780D01*
X198508285Y-82296400D01*
X198460666Y-82344019D01*
X198413047Y-82439257D01*
X198413047Y-82582114D01*
X198460666Y-82677352D01*
X198508285Y-82724971D01*
X198603523Y-82772590D01*
X198984476Y-82772590D01*
X198079714Y-82248780D02*
X197460666Y-82248780D01*
X197794000Y-82629733D01*
X197651142Y-82629733D01*
X197555904Y-82677352D01*
X197508285Y-82724971D01*
X197460666Y-82820209D01*
X197460666Y-83058304D01*
X197508285Y-83153542D01*
X197555904Y-83201161D01*
X197651142Y-83248780D01*
X197936857Y-83248780D01*
X198032095Y-83201161D01*
X198079714Y-83153542D01*
X196841619Y-82248780D02*
X196746380Y-82248780D01*
X196651142Y-82296400D01*
X196603523Y-82344019D01*
X196555904Y-82439257D01*
X196508285Y-82629733D01*
X196508285Y-82867828D01*
X196555904Y-83058304D01*
X196603523Y-83153542D01*
X196651142Y-83201161D01*
X196746380Y-83248780D01*
X196841619Y-83248780D01*
X196936857Y-83201161D01*
X196984476Y-83153542D01*
X197032095Y-83058304D01*
X197079714Y-82867828D01*
X197079714Y-82629733D01*
X197032095Y-82439257D01*
X196984476Y-82344019D01*
X196936857Y-82296400D01*
X196841619Y-82248780D01*
X195555904Y-83248780D02*
X196127333Y-83248780D01*
X195841619Y-83248780D02*
X195841619Y-82248780D01*
X195936857Y-82391638D01*
X196032095Y-82486876D01*
X196127333Y-82534495D01*
X198427047Y-84874380D02*
X198760380Y-84398190D01*
X198998476Y-84874380D02*
X198998476Y-83874380D01*
X198617523Y-83874380D01*
X198522285Y-83922000D01*
X198474666Y-83969619D01*
X198427047Y-84064857D01*
X198427047Y-84207714D01*
X198474666Y-84302952D01*
X198522285Y-84350571D01*
X198617523Y-84398190D01*
X198998476Y-84398190D01*
X198093714Y-83874380D02*
X197474666Y-83874380D01*
X197808000Y-84255333D01*
X197665142Y-84255333D01*
X197569904Y-84302952D01*
X197522285Y-84350571D01*
X197474666Y-84445809D01*
X197474666Y-84683904D01*
X197522285Y-84779142D01*
X197569904Y-84826761D01*
X197665142Y-84874380D01*
X197950857Y-84874380D01*
X198046095Y-84826761D01*
X198093714Y-84779142D01*
X196855619Y-83874380D02*
X196760380Y-83874380D01*
X196665142Y-83922000D01*
X196617523Y-83969619D01*
X196569904Y-84064857D01*
X196522285Y-84255333D01*
X196522285Y-84493428D01*
X196569904Y-84683904D01*
X196617523Y-84779142D01*
X196665142Y-84826761D01*
X196760380Y-84874380D01*
X196855619Y-84874380D01*
X196950857Y-84826761D01*
X196998476Y-84779142D01*
X197046095Y-84683904D01*
X197093714Y-84493428D01*
X197093714Y-84255333D01*
X197046095Y-84064857D01*
X196998476Y-83969619D01*
X196950857Y-83922000D01*
X196855619Y-83874380D01*
X196141333Y-83969619D02*
X196093714Y-83922000D01*
X195998476Y-83874380D01*
X195760380Y-83874380D01*
X195665142Y-83922000D01*
X195617523Y-83969619D01*
X195569904Y-84064857D01*
X195569904Y-84160095D01*
X195617523Y-84302952D01*
X196188952Y-84874380D01*
X195569904Y-84874380D01*
X198413047Y-84508580D02*
X198746380Y-84032390D01*
X198984476Y-84508580D02*
X198984476Y-83508580D01*
X198603523Y-83508580D01*
X198508285Y-83556200D01*
X198460666Y-83603819D01*
X198413047Y-83699057D01*
X198413047Y-83841914D01*
X198460666Y-83937152D01*
X198508285Y-83984771D01*
X198603523Y-84032390D01*
X198984476Y-84032390D01*
X198079714Y-83508580D02*
X197460666Y-83508580D01*
X197794000Y-83889533D01*
X197651142Y-83889533D01*
X197555904Y-83937152D01*
X197508285Y-83984771D01*
X197460666Y-84080009D01*
X197460666Y-84318104D01*
X197508285Y-84413342D01*
X197555904Y-84460961D01*
X197651142Y-84508580D01*
X197936857Y-84508580D01*
X198032095Y-84460961D01*
X198079714Y-84413342D01*
X196841619Y-83508580D02*
X196746380Y-83508580D01*
X196651142Y-83556200D01*
X196603523Y-83603819D01*
X196555904Y-83699057D01*
X196508285Y-83889533D01*
X196508285Y-84127628D01*
X196555904Y-84318104D01*
X196603523Y-84413342D01*
X196651142Y-84460961D01*
X196746380Y-84508580D01*
X196841619Y-84508580D01*
X196936857Y-84460961D01*
X196984476Y-84413342D01*
X197032095Y-84318104D01*
X197079714Y-84127628D01*
X197079714Y-83889533D01*
X197032095Y-83699057D01*
X196984476Y-83603819D01*
X196936857Y-83556200D01*
X196841619Y-83508580D01*
X196174952Y-83508580D02*
X195555904Y-83508580D01*
X195889238Y-83889533D01*
X195746380Y-83889533D01*
X195651142Y-83937152D01*
X195603523Y-83984771D01*
X195555904Y-84080009D01*
X195555904Y-84318104D01*
X195603523Y-84413342D01*
X195651142Y-84460961D01*
X195746380Y-84508580D01*
X196032095Y-84508580D01*
X196127333Y-84460961D01*
X196174952Y-84413342D01*
X199936380Y-104734952D02*
X199460190Y-104401619D01*
X199936380Y-104163523D02*
X198936380Y-104163523D01*
X198936380Y-104544476D01*
X198984000Y-104639714D01*
X199031619Y-104687333D01*
X199126857Y-104734952D01*
X199269714Y-104734952D01*
X199364952Y-104687333D01*
X199412571Y-104639714D01*
X199460190Y-104544476D01*
X199460190Y-104163523D01*
X198936380Y-105068285D02*
X198936380Y-105687333D01*
X199317333Y-105354000D01*
X199317333Y-105496857D01*
X199364952Y-105592095D01*
X199412571Y-105639714D01*
X199507809Y-105687333D01*
X199745904Y-105687333D01*
X199841142Y-105639714D01*
X199888761Y-105592095D01*
X199936380Y-105496857D01*
X199936380Y-105211142D01*
X199888761Y-105115904D01*
X199841142Y-105068285D01*
X198936380Y-106306380D02*
X198936380Y-106401619D01*
X198984000Y-106496857D01*
X199031619Y-106544476D01*
X199126857Y-106592095D01*
X199317333Y-106639714D01*
X199555428Y-106639714D01*
X199745904Y-106592095D01*
X199841142Y-106544476D01*
X199888761Y-106496857D01*
X199936380Y-106401619D01*
X199936380Y-106306380D01*
X199888761Y-106211142D01*
X199841142Y-106163523D01*
X199745904Y-106115904D01*
X199555428Y-106068285D01*
X199317333Y-106068285D01*
X199126857Y-106115904D01*
X199031619Y-106163523D01*
X198984000Y-106211142D01*
X198936380Y-106306380D01*
X199269714Y-107496857D02*
X199936380Y-107496857D01*
X198888761Y-107258761D02*
X199603047Y-107020666D01*
X199603047Y-107639714D01*
X207049047Y-98910380D02*
X207382380Y-98434190D01*
X207620476Y-98910380D02*
X207620476Y-97910380D01*
X207239523Y-97910380D01*
X207144285Y-97958000D01*
X207096666Y-98005619D01*
X207049047Y-98100857D01*
X207049047Y-98243714D01*
X207096666Y-98338952D01*
X207144285Y-98386571D01*
X207239523Y-98434190D01*
X207620476Y-98434190D01*
X206715714Y-97910380D02*
X206096666Y-97910380D01*
X206430000Y-98291333D01*
X206287142Y-98291333D01*
X206191904Y-98338952D01*
X206144285Y-98386571D01*
X206096666Y-98481809D01*
X206096666Y-98719904D01*
X206144285Y-98815142D01*
X206191904Y-98862761D01*
X206287142Y-98910380D01*
X206572857Y-98910380D01*
X206668095Y-98862761D01*
X206715714Y-98815142D01*
X205477619Y-97910380D02*
X205382380Y-97910380D01*
X205287142Y-97958000D01*
X205239523Y-98005619D01*
X205191904Y-98100857D01*
X205144285Y-98291333D01*
X205144285Y-98529428D01*
X205191904Y-98719904D01*
X205239523Y-98815142D01*
X205287142Y-98862761D01*
X205382380Y-98910380D01*
X205477619Y-98910380D01*
X205572857Y-98862761D01*
X205620476Y-98815142D01*
X205668095Y-98719904D01*
X205715714Y-98529428D01*
X205715714Y-98291333D01*
X205668095Y-98100857D01*
X205620476Y-98005619D01*
X205572857Y-97958000D01*
X205477619Y-97910380D01*
X204239523Y-97910380D02*
X204715714Y-97910380D01*
X204763333Y-98386571D01*
X204715714Y-98338952D01*
X204620476Y-98291333D01*
X204382380Y-98291333D01*
X204287142Y-98338952D01*
X204239523Y-98386571D01*
X204191904Y-98481809D01*
X204191904Y-98719904D01*
X204239523Y-98815142D01*
X204287142Y-98862761D01*
X204382380Y-98910380D01*
X204620476Y-98910380D01*
X204715714Y-98862761D01*
X204763333Y-98815142D01*
X203825047Y-75793880D02*
X204158380Y-75317690D01*
X204396476Y-75793880D02*
X204396476Y-74793880D01*
X204015523Y-74793880D01*
X203920285Y-74841500D01*
X203872666Y-74889119D01*
X203825047Y-74984357D01*
X203825047Y-75127214D01*
X203872666Y-75222452D01*
X203920285Y-75270071D01*
X204015523Y-75317690D01*
X204396476Y-75317690D01*
X203491714Y-74793880D02*
X202872666Y-74793880D01*
X203206000Y-75174833D01*
X203063142Y-75174833D01*
X202967904Y-75222452D01*
X202920285Y-75270071D01*
X202872666Y-75365309D01*
X202872666Y-75603404D01*
X202920285Y-75698642D01*
X202967904Y-75746261D01*
X203063142Y-75793880D01*
X203348857Y-75793880D01*
X203444095Y-75746261D01*
X203491714Y-75698642D01*
X202253619Y-74793880D02*
X202158380Y-74793880D01*
X202063142Y-74841500D01*
X202015523Y-74889119D01*
X201967904Y-74984357D01*
X201920285Y-75174833D01*
X201920285Y-75412928D01*
X201967904Y-75603404D01*
X202015523Y-75698642D01*
X202063142Y-75746261D01*
X202158380Y-75793880D01*
X202253619Y-75793880D01*
X202348857Y-75746261D01*
X202396476Y-75698642D01*
X202444095Y-75603404D01*
X202491714Y-75412928D01*
X202491714Y-75174833D01*
X202444095Y-74984357D01*
X202396476Y-74889119D01*
X202348857Y-74841500D01*
X202253619Y-74793880D01*
X201063142Y-74793880D02*
X201253619Y-74793880D01*
X201348857Y-74841500D01*
X201396476Y-74889119D01*
X201491714Y-75031976D01*
X201539333Y-75222452D01*
X201539333Y-75603404D01*
X201491714Y-75698642D01*
X201444095Y-75746261D01*
X201348857Y-75793880D01*
X201158380Y-75793880D01*
X201063142Y-75746261D01*
X201015523Y-75698642D01*
X200967904Y-75603404D01*
X200967904Y-75365309D01*
X201015523Y-75270071D01*
X201063142Y-75222452D01*
X201158380Y-75174833D01*
X201348857Y-75174833D01*
X201444095Y-75222452D01*
X201491714Y-75270071D01*
X201539333Y-75365309D01*
X206111047Y-71666380D02*
X206444380Y-71190190D01*
X206682476Y-71666380D02*
X206682476Y-70666380D01*
X206301523Y-70666380D01*
X206206285Y-70714000D01*
X206158666Y-70761619D01*
X206111047Y-70856857D01*
X206111047Y-70999714D01*
X206158666Y-71094952D01*
X206206285Y-71142571D01*
X206301523Y-71190190D01*
X206682476Y-71190190D01*
X205777714Y-70666380D02*
X205158666Y-70666380D01*
X205492000Y-71047333D01*
X205349142Y-71047333D01*
X205253904Y-71094952D01*
X205206285Y-71142571D01*
X205158666Y-71237809D01*
X205158666Y-71475904D01*
X205206285Y-71571142D01*
X205253904Y-71618761D01*
X205349142Y-71666380D01*
X205634857Y-71666380D01*
X205730095Y-71618761D01*
X205777714Y-71571142D01*
X204206285Y-71666380D02*
X204777714Y-71666380D01*
X204492000Y-71666380D02*
X204492000Y-70666380D01*
X204587238Y-70809238D01*
X204682476Y-70904476D01*
X204777714Y-70952095D01*
X203825333Y-70761619D02*
X203777714Y-70714000D01*
X203682476Y-70666380D01*
X203444380Y-70666380D01*
X203349142Y-70714000D01*
X203301523Y-70761619D01*
X203253904Y-70856857D01*
X203253904Y-70952095D01*
X203301523Y-71094952D01*
X203872952Y-71666380D01*
X203253904Y-71666380D01*
X203912647Y-91544380D02*
X204245980Y-91068190D01*
X204484076Y-91544380D02*
X204484076Y-90544380D01*
X204103123Y-90544380D01*
X204007885Y-90592000D01*
X203960266Y-90639619D01*
X203912647Y-90734857D01*
X203912647Y-90877714D01*
X203960266Y-90972952D01*
X204007885Y-91020571D01*
X204103123Y-91068190D01*
X204484076Y-91068190D01*
X203579314Y-90544380D02*
X202960266Y-90544380D01*
X203293600Y-90925333D01*
X203150742Y-90925333D01*
X203055504Y-90972952D01*
X203007885Y-91020571D01*
X202960266Y-91115809D01*
X202960266Y-91353904D01*
X203007885Y-91449142D01*
X203055504Y-91496761D01*
X203150742Y-91544380D01*
X203436457Y-91544380D01*
X203531695Y-91496761D01*
X203579314Y-91449142D01*
X202007885Y-91544380D02*
X202579314Y-91544380D01*
X202293600Y-91544380D02*
X202293600Y-90544380D01*
X202388838Y-90687238D01*
X202484076Y-90782476D01*
X202579314Y-90830095D01*
X201103123Y-90544380D02*
X201579314Y-90544380D01*
X201626933Y-91020571D01*
X201579314Y-90972952D01*
X201484076Y-90925333D01*
X201245980Y-90925333D01*
X201150742Y-90972952D01*
X201103123Y-91020571D01*
X201055504Y-91115809D01*
X201055504Y-91353904D01*
X201103123Y-91449142D01*
X201150742Y-91496761D01*
X201245980Y-91544380D01*
X201484076Y-91544380D01*
X201579314Y-91496761D01*
X201626933Y-91449142D01*
X193397047Y-74396880D02*
X193730380Y-73920690D01*
X193968476Y-74396880D02*
X193968476Y-73396880D01*
X193587523Y-73396880D01*
X193492285Y-73444500D01*
X193444666Y-73492119D01*
X193397047Y-73587357D01*
X193397047Y-73730214D01*
X193444666Y-73825452D01*
X193492285Y-73873071D01*
X193587523Y-73920690D01*
X193968476Y-73920690D01*
X193063714Y-73396880D02*
X192444666Y-73396880D01*
X192778000Y-73777833D01*
X192635142Y-73777833D01*
X192539904Y-73825452D01*
X192492285Y-73873071D01*
X192444666Y-73968309D01*
X192444666Y-74206404D01*
X192492285Y-74301642D01*
X192539904Y-74349261D01*
X192635142Y-74396880D01*
X192920857Y-74396880D01*
X193016095Y-74349261D01*
X193063714Y-74301642D01*
X191492285Y-74396880D02*
X192063714Y-74396880D01*
X191778000Y-74396880D02*
X191778000Y-73396880D01*
X191873238Y-73539738D01*
X191968476Y-73634976D01*
X192063714Y-73682595D01*
X190635142Y-73396880D02*
X190825619Y-73396880D01*
X190920857Y-73444500D01*
X190968476Y-73492119D01*
X191063714Y-73634976D01*
X191111333Y-73825452D01*
X191111333Y-74206404D01*
X191063714Y-74301642D01*
X191016095Y-74349261D01*
X190920857Y-74396880D01*
X190730380Y-74396880D01*
X190635142Y-74349261D01*
X190587523Y-74301642D01*
X190539904Y-74206404D01*
X190539904Y-73968309D01*
X190587523Y-73873071D01*
X190635142Y-73825452D01*
X190730380Y-73777833D01*
X190920857Y-73777833D01*
X191016095Y-73825452D01*
X191063714Y-73873071D01*
X191111333Y-73968309D01*
X107050380Y-112586095D02*
X107859904Y-112586095D01*
X107955142Y-112633714D01*
X108002761Y-112681333D01*
X108050380Y-112776571D01*
X108050380Y-112967047D01*
X108002761Y-113062285D01*
X107955142Y-113109904D01*
X107859904Y-113157523D01*
X107050380Y-113157523D01*
X107050380Y-113538476D02*
X107050380Y-114157523D01*
X107431333Y-113824190D01*
X107431333Y-113967047D01*
X107478952Y-114062285D01*
X107526571Y-114109904D01*
X107621809Y-114157523D01*
X107859904Y-114157523D01*
X107955142Y-114109904D01*
X108002761Y-114062285D01*
X108050380Y-113967047D01*
X108050380Y-113681333D01*
X108002761Y-113586095D01*
X107955142Y-113538476D01*
X166614666Y-79095880D02*
X166948000Y-78619690D01*
X167186095Y-79095880D02*
X167186095Y-78095880D01*
X166805142Y-78095880D01*
X166709904Y-78143500D01*
X166662285Y-78191119D01*
X166614666Y-78286357D01*
X166614666Y-78429214D01*
X166662285Y-78524452D01*
X166709904Y-78572071D01*
X166805142Y-78619690D01*
X167186095Y-78619690D01*
X166233714Y-78191119D02*
X166186095Y-78143500D01*
X166090857Y-78095880D01*
X165852761Y-78095880D01*
X165757523Y-78143500D01*
X165709904Y-78191119D01*
X165662285Y-78286357D01*
X165662285Y-78381595D01*
X165709904Y-78524452D01*
X166281333Y-79095880D01*
X165662285Y-79095880D01*
X70334166Y-102148380D02*
X70667500Y-101672190D01*
X70905595Y-102148380D02*
X70905595Y-101148380D01*
X70524642Y-101148380D01*
X70429404Y-101196000D01*
X70381785Y-101243619D01*
X70334166Y-101338857D01*
X70334166Y-101481714D01*
X70381785Y-101576952D01*
X70429404Y-101624571D01*
X70524642Y-101672190D01*
X70905595Y-101672190D01*
X69477023Y-101148380D02*
X69667500Y-101148380D01*
X69762738Y-101196000D01*
X69810357Y-101243619D01*
X69905595Y-101386476D01*
X69953214Y-101576952D01*
X69953214Y-101957904D01*
X69905595Y-102053142D01*
X69857976Y-102100761D01*
X69762738Y-102148380D01*
X69572261Y-102148380D01*
X69477023Y-102100761D01*
X69429404Y-102053142D01*
X69381785Y-101957904D01*
X69381785Y-101719809D01*
X69429404Y-101624571D01*
X69477023Y-101576952D01*
X69572261Y-101529333D01*
X69762738Y-101529333D01*
X69857976Y-101576952D01*
X69905595Y-101624571D01*
X69953214Y-101719809D01*
X68958642Y-111720333D02*
X69006261Y-111672714D01*
X69053880Y-111529857D01*
X69053880Y-111434619D01*
X69006261Y-111291761D01*
X68911023Y-111196523D01*
X68815785Y-111148904D01*
X68625309Y-111101285D01*
X68482452Y-111101285D01*
X68291976Y-111148904D01*
X68196738Y-111196523D01*
X68101500Y-111291761D01*
X68053880Y-111434619D01*
X68053880Y-111529857D01*
X68101500Y-111672714D01*
X68149119Y-111720333D01*
X69053880Y-112672714D02*
X69053880Y-112101285D01*
X69053880Y-112387000D02*
X68053880Y-112387000D01*
X68196738Y-112291761D01*
X68291976Y-112196523D01*
X68339595Y-112101285D01*
X65275642Y-98602833D02*
X65323261Y-98555214D01*
X65370880Y-98412357D01*
X65370880Y-98317119D01*
X65323261Y-98174261D01*
X65228023Y-98079023D01*
X65132785Y-98031404D01*
X64942309Y-97983785D01*
X64799452Y-97983785D01*
X64608976Y-98031404D01*
X64513738Y-98079023D01*
X64418500Y-98174261D01*
X64370880Y-98317119D01*
X64370880Y-98412357D01*
X64418500Y-98555214D01*
X64466119Y-98602833D01*
X64466119Y-98983785D02*
X64418500Y-99031404D01*
X64370880Y-99126642D01*
X64370880Y-99364738D01*
X64418500Y-99459976D01*
X64466119Y-99507595D01*
X64561357Y-99555214D01*
X64656595Y-99555214D01*
X64799452Y-99507595D01*
X65370880Y-98936166D01*
X65370880Y-99555214D01*
X139360380Y-79398952D02*
X138884190Y-79065619D01*
X139360380Y-78827523D02*
X138360380Y-78827523D01*
X138360380Y-79208476D01*
X138408000Y-79303714D01*
X138455619Y-79351333D01*
X138550857Y-79398952D01*
X138693714Y-79398952D01*
X138788952Y-79351333D01*
X138836571Y-79303714D01*
X138884190Y-79208476D01*
X138884190Y-78827523D01*
X138455619Y-79779904D02*
X138408000Y-79827523D01*
X138360380Y-79922761D01*
X138360380Y-80160857D01*
X138408000Y-80256095D01*
X138455619Y-80303714D01*
X138550857Y-80351333D01*
X138646095Y-80351333D01*
X138788952Y-80303714D01*
X139360380Y-79732285D01*
X139360380Y-80351333D01*
X138360380Y-80970380D02*
X138360380Y-81065619D01*
X138408000Y-81160857D01*
X138455619Y-81208476D01*
X138550857Y-81256095D01*
X138741333Y-81303714D01*
X138979428Y-81303714D01*
X139169904Y-81256095D01*
X139265142Y-81208476D01*
X139312761Y-81160857D01*
X139360380Y-81065619D01*
X139360380Y-80970380D01*
X139312761Y-80875142D01*
X139265142Y-80827523D01*
X139169904Y-80779904D01*
X138979428Y-80732285D01*
X138741333Y-80732285D01*
X138550857Y-80779904D01*
X138455619Y-80827523D01*
X138408000Y-80875142D01*
X138360380Y-80970380D01*
X138788952Y-81875142D02*
X138741333Y-81779904D01*
X138693714Y-81732285D01*
X138598476Y-81684666D01*
X138550857Y-81684666D01*
X138455619Y-81732285D01*
X138408000Y-81779904D01*
X138360380Y-81875142D01*
X138360380Y-82065619D01*
X138408000Y-82160857D01*
X138455619Y-82208476D01*
X138550857Y-82256095D01*
X138598476Y-82256095D01*
X138693714Y-82208476D01*
X138741333Y-82160857D01*
X138788952Y-82065619D01*
X138788952Y-81875142D01*
X138836571Y-81779904D01*
X138884190Y-81732285D01*
X138979428Y-81684666D01*
X139169904Y-81684666D01*
X139265142Y-81732285D01*
X139312761Y-81779904D01*
X139360380Y-81875142D01*
X139360380Y-82065619D01*
X139312761Y-82160857D01*
X139265142Y-82208476D01*
X139169904Y-82256095D01*
X138979428Y-82256095D01*
X138884190Y-82208476D01*
X138836571Y-82160857D01*
X138788952Y-82065619D01*
X91892357Y-121580380D02*
X92225690Y-121104190D01*
X92463785Y-121580380D02*
X92463785Y-120580380D01*
X92082833Y-120580380D01*
X91987595Y-120628000D01*
X91939976Y-120675619D01*
X91892357Y-120770857D01*
X91892357Y-120913714D01*
X91939976Y-121008952D01*
X91987595Y-121056571D01*
X92082833Y-121104190D01*
X92463785Y-121104190D01*
X90939976Y-121580380D02*
X91511404Y-121580380D01*
X91225690Y-121580380D02*
X91225690Y-120580380D01*
X91320928Y-120723238D01*
X91416166Y-120818476D01*
X91511404Y-120866095D01*
X89987595Y-121580380D02*
X90559023Y-121580380D01*
X90273309Y-121580380D02*
X90273309Y-120580380D01*
X90368547Y-120723238D01*
X90463785Y-120818476D01*
X90559023Y-120866095D01*
X210496957Y-79045980D02*
X210830290Y-78569790D01*
X211068385Y-79045980D02*
X211068385Y-78045980D01*
X210687433Y-78045980D01*
X210592195Y-78093600D01*
X210544576Y-78141219D01*
X210496957Y-78236457D01*
X210496957Y-78379314D01*
X210544576Y-78474552D01*
X210592195Y-78522171D01*
X210687433Y-78569790D01*
X211068385Y-78569790D01*
X209639814Y-78379314D02*
X209639814Y-79045980D01*
X209877909Y-77998361D02*
X210116004Y-78712647D01*
X209496957Y-78712647D01*
X208687433Y-78379314D02*
X208687433Y-79045980D01*
X208925528Y-77998361D02*
X209163623Y-78712647D01*
X208544576Y-78712647D01*
X204503257Y-95848780D02*
X204836590Y-95372590D01*
X205074685Y-95848780D02*
X205074685Y-94848780D01*
X204693733Y-94848780D01*
X204598495Y-94896400D01*
X204550876Y-94944019D01*
X204503257Y-95039257D01*
X204503257Y-95182114D01*
X204550876Y-95277352D01*
X204598495Y-95324971D01*
X204693733Y-95372590D01*
X205074685Y-95372590D01*
X203646114Y-95182114D02*
X203646114Y-95848780D01*
X203884209Y-94801161D02*
X204122304Y-95515447D01*
X203503257Y-95515447D01*
X203217542Y-94848780D02*
X202598495Y-94848780D01*
X202931828Y-95229733D01*
X202788971Y-95229733D01*
X202693733Y-95277352D01*
X202646114Y-95324971D01*
X202598495Y-95420209D01*
X202598495Y-95658304D01*
X202646114Y-95753542D01*
X202693733Y-95801161D01*
X202788971Y-95848780D01*
X203074685Y-95848780D01*
X203169923Y-95801161D01*
X203217542Y-95753542D01*
X96470380Y-81970642D02*
X95994190Y-81637309D01*
X96470380Y-81399214D02*
X95470380Y-81399214D01*
X95470380Y-81780166D01*
X95518000Y-81875404D01*
X95565619Y-81923023D01*
X95660857Y-81970642D01*
X95803714Y-81970642D01*
X95898952Y-81923023D01*
X95946571Y-81875404D01*
X95994190Y-81780166D01*
X95994190Y-81399214D01*
X95803714Y-82827785D02*
X96470380Y-82827785D01*
X95422761Y-82589690D02*
X96137047Y-82351595D01*
X96137047Y-82970642D01*
X95470380Y-83542071D02*
X95470380Y-83637309D01*
X95518000Y-83732547D01*
X95565619Y-83780166D01*
X95660857Y-83827785D01*
X95851333Y-83875404D01*
X96089428Y-83875404D01*
X96279904Y-83827785D01*
X96375142Y-83780166D01*
X96422761Y-83732547D01*
X96470380Y-83637309D01*
X96470380Y-83542071D01*
X96422761Y-83446833D01*
X96375142Y-83399214D01*
X96279904Y-83351595D01*
X96089428Y-83303976D01*
X95851333Y-83303976D01*
X95660857Y-83351595D01*
X95565619Y-83399214D01*
X95518000Y-83446833D01*
X95470380Y-83542071D01*
X182157666Y-101979142D02*
X182205285Y-102026761D01*
X182348142Y-102074380D01*
X182443380Y-102074380D01*
X182586238Y-102026761D01*
X182681476Y-101931523D01*
X182729095Y-101836285D01*
X182776714Y-101645809D01*
X182776714Y-101502952D01*
X182729095Y-101312476D01*
X182681476Y-101217238D01*
X182586238Y-101122000D01*
X182443380Y-101074380D01*
X182348142Y-101074380D01*
X182205285Y-101122000D01*
X182157666Y-101169619D01*
X181252904Y-101074380D02*
X181729095Y-101074380D01*
X181776714Y-101550571D01*
X181729095Y-101502952D01*
X181633857Y-101455333D01*
X181395761Y-101455333D01*
X181300523Y-101502952D01*
X181252904Y-101550571D01*
X181205285Y-101645809D01*
X181205285Y-101883904D01*
X181252904Y-101979142D01*
X181300523Y-102026761D01*
X181395761Y-102074380D01*
X181633857Y-102074380D01*
X181729095Y-102026761D01*
X181776714Y-101979142D01*
X101168666Y-96792142D02*
X101216285Y-96839761D01*
X101359142Y-96887380D01*
X101454380Y-96887380D01*
X101597238Y-96839761D01*
X101692476Y-96744523D01*
X101740095Y-96649285D01*
X101787714Y-96458809D01*
X101787714Y-96315952D01*
X101740095Y-96125476D01*
X101692476Y-96030238D01*
X101597238Y-95935000D01*
X101454380Y-95887380D01*
X101359142Y-95887380D01*
X101216285Y-95935000D01*
X101168666Y-95982619D01*
X100311523Y-95887380D02*
X100502000Y-95887380D01*
X100597238Y-95935000D01*
X100644857Y-95982619D01*
X100740095Y-96125476D01*
X100787714Y-96315952D01*
X100787714Y-96696904D01*
X100740095Y-96792142D01*
X100692476Y-96839761D01*
X100597238Y-96887380D01*
X100406761Y-96887380D01*
X100311523Y-96839761D01*
X100263904Y-96792142D01*
X100216285Y-96696904D01*
X100216285Y-96458809D01*
X100263904Y-96363571D01*
X100311523Y-96315952D01*
X100406761Y-96268333D01*
X100597238Y-96268333D01*
X100692476Y-96315952D01*
X100740095Y-96363571D01*
X100787714Y-96458809D01*
X164726857Y-86247580D02*
X165060190Y-85771390D01*
X165298285Y-86247580D02*
X165298285Y-85247580D01*
X164917333Y-85247580D01*
X164822095Y-85295200D01*
X164774476Y-85342819D01*
X164726857Y-85438057D01*
X164726857Y-85580914D01*
X164774476Y-85676152D01*
X164822095Y-85723771D01*
X164917333Y-85771390D01*
X165298285Y-85771390D01*
X163869714Y-85580914D02*
X163869714Y-86247580D01*
X164107809Y-85199961D02*
X164345904Y-85914247D01*
X163726857Y-85914247D01*
X162869714Y-85247580D02*
X163345904Y-85247580D01*
X163393523Y-85723771D01*
X163345904Y-85676152D01*
X163250666Y-85628533D01*
X163012571Y-85628533D01*
X162917333Y-85676152D01*
X162869714Y-85723771D01*
X162822095Y-85819009D01*
X162822095Y-86057104D01*
X162869714Y-86152342D01*
X162917333Y-86199961D01*
X163012571Y-86247580D01*
X163250666Y-86247580D01*
X163345904Y-86199961D01*
X163393523Y-86152342D01*
X174043580Y-85585152D02*
X173567390Y-85251819D01*
X174043580Y-85013723D02*
X173043580Y-85013723D01*
X173043580Y-85394676D01*
X173091200Y-85489914D01*
X173138819Y-85537533D01*
X173234057Y-85585152D01*
X173376914Y-85585152D01*
X173472152Y-85537533D01*
X173519771Y-85489914D01*
X173567390Y-85394676D01*
X173567390Y-85013723D01*
X173043580Y-85918485D02*
X173043580Y-86537533D01*
X173424533Y-86204200D01*
X173424533Y-86347057D01*
X173472152Y-86442295D01*
X173519771Y-86489914D01*
X173615009Y-86537533D01*
X173853104Y-86537533D01*
X173948342Y-86489914D01*
X173995961Y-86442295D01*
X174043580Y-86347057D01*
X174043580Y-86061342D01*
X173995961Y-85966104D01*
X173948342Y-85918485D01*
X173043580Y-87156580D02*
X173043580Y-87251819D01*
X173091200Y-87347057D01*
X173138819Y-87394676D01*
X173234057Y-87442295D01*
X173424533Y-87489914D01*
X173662628Y-87489914D01*
X173853104Y-87442295D01*
X173948342Y-87394676D01*
X173995961Y-87347057D01*
X174043580Y-87251819D01*
X174043580Y-87156580D01*
X173995961Y-87061342D01*
X173948342Y-87013723D01*
X173853104Y-86966104D01*
X173662628Y-86918485D01*
X173424533Y-86918485D01*
X173234057Y-86966104D01*
X173138819Y-87013723D01*
X173091200Y-87061342D01*
X173043580Y-87156580D01*
X173043580Y-87823247D02*
X173043580Y-88489914D01*
X174043580Y-88061342D01*
X188063047Y-85890380D02*
X188396380Y-85414190D01*
X188634476Y-85890380D02*
X188634476Y-84890380D01*
X188253523Y-84890380D01*
X188158285Y-84938000D01*
X188110666Y-84985619D01*
X188063047Y-85080857D01*
X188063047Y-85223714D01*
X188110666Y-85318952D01*
X188158285Y-85366571D01*
X188253523Y-85414190D01*
X188634476Y-85414190D01*
X187729714Y-84890380D02*
X187110666Y-84890380D01*
X187444000Y-85271333D01*
X187301142Y-85271333D01*
X187205904Y-85318952D01*
X187158285Y-85366571D01*
X187110666Y-85461809D01*
X187110666Y-85699904D01*
X187158285Y-85795142D01*
X187205904Y-85842761D01*
X187301142Y-85890380D01*
X187586857Y-85890380D01*
X187682095Y-85842761D01*
X187729714Y-85795142D01*
X186491619Y-84890380D02*
X186396380Y-84890380D01*
X186301142Y-84938000D01*
X186253523Y-84985619D01*
X186205904Y-85080857D01*
X186158285Y-85271333D01*
X186158285Y-85509428D01*
X186205904Y-85699904D01*
X186253523Y-85795142D01*
X186301142Y-85842761D01*
X186396380Y-85890380D01*
X186491619Y-85890380D01*
X186586857Y-85842761D01*
X186634476Y-85795142D01*
X186682095Y-85699904D01*
X186729714Y-85509428D01*
X186729714Y-85271333D01*
X186682095Y-85080857D01*
X186634476Y-84985619D01*
X186586857Y-84938000D01*
X186491619Y-84890380D01*
X185586857Y-85318952D02*
X185682095Y-85271333D01*
X185729714Y-85223714D01*
X185777333Y-85128476D01*
X185777333Y-85080857D01*
X185729714Y-84985619D01*
X185682095Y-84938000D01*
X185586857Y-84890380D01*
X185396380Y-84890380D01*
X185301142Y-84938000D01*
X185253523Y-84985619D01*
X185205904Y-85080857D01*
X185205904Y-85128476D01*
X185253523Y-85223714D01*
X185301142Y-85271333D01*
X185396380Y-85318952D01*
X185586857Y-85318952D01*
X185682095Y-85366571D01*
X185729714Y-85414190D01*
X185777333Y-85509428D01*
X185777333Y-85699904D01*
X185729714Y-85795142D01*
X185682095Y-85842761D01*
X185586857Y-85890380D01*
X185396380Y-85890380D01*
X185301142Y-85842761D01*
X185253523Y-85795142D01*
X185205904Y-85699904D01*
X185205904Y-85509428D01*
X185253523Y-85414190D01*
X185301142Y-85366571D01*
X185396380Y-85318952D01*
M02*
