M48
; DRILL file {KiCad 5.1.5-52549c5~84~ubuntu19.10.1} date Fri 07 Feb 2020 08:24:07 PM EST
; FORMAT={-:-/ absolute / inch / decimal}
; #@! TF.CreationDate,2020-02-07T20:24:07-05:00
; #@! TF.GenerationSoftware,Kicad,Pcbnew,5.1.5-52549c5~84~ubuntu19.10.1
; #@! TF.FileFunction,Plated,1,4,PTH
FMAT,2
INCH
T1C0.0157
T2C0.0295
T3C0.0315
T4C0.0340
T5C0.0354
T6C0.0394
T7C0.0433
T8C0.0472
T9C0.0512
T10C0.0531
T11C0.0591
T12C0.0669
T13C0.1181
%
G90
G05
T1
X2.885Y-3.625
X3.39Y-3.63
X3.81Y-3.555
X3.81Y-4.85
X3.88Y-3.56
X4.2Y-3.765
X4.28Y-4.9361
X4.41Y-3.775
X4.41Y-3.775
X4.415Y-4.455
X4.605Y-4.295
X4.625Y-4.205
X4.645Y-4.41
X4.69Y-4.71
X4.72Y-4.07
X4.75Y-4.405
X4.755Y-4.27
X4.91Y-4.045
X4.91Y-4.865
X4.94Y-4.14
X4.94Y-4.285
X5.0Y-4.41
X5.075Y-4.14
X5.075Y-4.285
X5.19Y-3.005
X5.26Y-4.685
X5.31Y-4.09
X5.3237Y-4.2087
X5.35Y-4.925
X5.425Y-4.23
X5.525Y-4.305
X5.5538Y-4.0788
X5.575Y-4.18
X5.605Y-4.675
X5.74Y-4.105
X5.745Y-4.905
X5.755Y-3.915
X5.775Y-4.19
X5.84Y-4.75
X6.06Y-3.465
X6.14Y-4.825
X6.33Y-4.835
X6.49Y-3.565
X6.52Y-4.825
X6.53Y-4.93
X6.56Y-3.45
X6.61Y-4.9
X6.63Y-4.52
X6.63Y-4.5661
X6.635Y-4.37
X6.685Y-4.615
X6.7Y-4.815
X6.76Y-4.8
X6.7851Y-4.7749
X6.805Y-4.54
X6.845Y-3.475
X6.895Y-4.645
X6.915Y-4.7
X7.0Y-4.75
X7.02Y-4.635
X7.115Y-4.8992
X7.14Y-4.725
X7.22Y-4.785
X7.355Y-3.375
X7.36Y-4.785
X7.455Y-4.74
X7.48Y-3.575
X7.49Y-4.65
X7.69Y-4.68
X7.735Y-3.435
X7.945Y-4.845
T2
X3.1975Y-4.49
X3.1975Y-4.54
X3.1975Y-4.59
X7.79Y-3.0855
X7.79Y-3.1355
X7.79Y-3.1855
X3.5125Y-4.0025
X3.5125Y-4.0525
X3.5125Y-4.1025
X3.2525Y-3.26
X3.2525Y-3.31
X3.2525Y-3.36
X7.6275Y-3.0855
X7.6275Y-3.1355
X7.6275Y-3.1855
X7.615Y-2.7775
X7.615Y-2.8275
X7.615Y-2.8775
X3.415Y-3.26
X3.415Y-3.31
X3.415Y-3.36
X5.1525Y-3.1175
X5.1525Y-3.1675
X5.1525Y-3.2175
X8.08Y-3.08
X8.08Y-3.13
X8.08Y-3.18
X3.51Y-2.8075
X3.51Y-2.8575
X3.51Y-2.9075
X3.0875Y-3.9475
X3.1375Y-3.9475
X3.1875Y-3.9475
T3
X4.08Y-4.75
X4.18Y-4.75
X3.215Y-4.2775
X3.215Y-4.3562
X4.5275Y-4.7825
X4.6275Y-4.7825
X4.7781Y-2.8
X4.975Y-2.8
X3.57Y-2.6125
X3.7669Y-2.6125
X3.3725Y-4.575
X3.6725Y-4.575
X6.165Y-3.885
X6.165Y-3.985
X3.455Y-3.475
X3.455Y-3.6719
X5.5Y-2.5775
X5.5Y-2.7744
X3.6963Y-3.94
X3.775Y-3.94
X8.1981Y-4.3875
X8.395Y-4.3875
X7.335Y-3.175
X7.335Y-3.275
X4.1087Y-4.5775
X4.1875Y-4.5775
X5.9695Y-3.641
X6.1663Y-3.641
X3.495Y-3.0375
X3.495Y-3.1375
X5.3075Y-3.8225
X5.4075Y-3.8225
X4.1425Y-4.3138
X4.1425Y-4.3925
X7.77Y-2.7631
X7.77Y-2.96
X6.11Y-2.8256
X6.11Y-3.0225
X7.5725Y-3.3675
X7.6513Y-3.3675
X6.1887Y-4.19
X6.2675Y-4.19
X3.3125Y-3.85
X3.5094Y-3.85
X3.1606Y-3.125
X3.3575Y-3.125
X7.8675Y-3.2856
X7.8675Y-3.4825
X8.085Y-3.2981
X8.085Y-3.495
X5.9425Y-3.985
X6.0213Y-3.985
X3.7425Y-4.12
X3.7425Y-4.1987
T4
X3.6141Y-4.934
X3.7126Y-4.934
X3.811Y-4.934
X3.711Y-2.8216
X3.711Y-2.9201
X3.711Y-3.0185
X7.391Y-2.8216
X7.391Y-2.9201
X7.391Y-3.0185
T5
X7.31Y-3.4975
X7.41Y-3.4975
X5.325Y-3.1025
X5.325Y-3.2025
T6
X3.1225Y-2.8075
X3.2225Y-2.8075
X3.3225Y-2.8075
X6.0075Y-3.1956
X6.0075Y-3.3925
X2.91Y-3.14
X2.91Y-3.3369
X7.915Y-2.9325
X8.015Y-2.9325
X8.115Y-2.9325
X4.78Y-2.9725
X4.88Y-2.9725
X4.98Y-2.9725
X3.1225Y-2.99
X3.2225Y-2.99
X3.3225Y-2.99
X8.2325Y-3.9775
X8.4294Y-3.9775
X4.83Y-3.1531
X4.83Y-3.35
X7.3857Y-4.2075
X7.5825Y-4.2075
X7.8067Y-4.215
X8.0035Y-4.215
X7.915Y-2.78
X8.015Y-2.78
X8.115Y-2.78
X5.295Y-3.3831
X5.295Y-3.58
X3.395Y-4.325
X3.495Y-4.325
X3.595Y-4.325
X3.1225Y-3.5281
X3.1225Y-3.725
X5.895Y-2.8
X5.895Y-2.9
X5.895Y-3.0
T7
X3.92Y-4.305
X3.92Y-4.705
X4.01Y-4.165
X4.41Y-4.165
X2.5025Y-4.075
X2.9025Y-4.075
X2.776Y-4.213
X2.776Y-4.613
X2.906Y-4.213
X2.906Y-4.613
X2.5025Y-3.8165
X2.9025Y-3.8165
X3.3975Y-4.4525
X3.7975Y-4.4525
X2.5025Y-3.945
X2.9025Y-3.945
X2.6475Y-4.2125
X2.6475Y-4.6125
X3.3825Y-4.71
X3.7825Y-4.71
X3.04Y-4.215
X3.04Y-4.615
T8
X7.445Y-3.7925
X7.845Y-3.7925
X7.0875Y-2.7525
X7.0875Y-3.1525
X6.705Y-2.7525
X6.705Y-3.1525
X3.7425Y-3.2425
X3.7425Y-3.6425
X4.015Y-2.7225
X4.015Y-3.1225
X4.395Y-2.7225
X4.395Y-3.1225
T9
X6.6663Y-3.4012
X6.6663Y-3.8816
X6.9025Y-3.3225
X7.1387Y-3.4012
X7.1387Y-3.8816
X5.5956Y-4.9228
X5.8909Y-4.9228
X6.1468Y-4.9228
X6.442Y-4.9228
X6.698Y-4.9228
X6.9932Y-4.9228
X7.2491Y-4.9228
X7.5444Y-4.9228
X2.7769Y-5.0125
X2.9738Y-5.0125
X3.1706Y-5.0125
X3.3675Y-5.0125
X4.0363Y-3.3737
X4.0363Y-3.8541
X4.2725Y-3.295
X4.5087Y-3.3737
X4.5087Y-3.8541
X6.9281Y-4.38
X7.125Y-4.38
X4.7506Y-3.6675
X4.9475Y-3.6675
X4.7269Y-5.0675
X4.9238Y-5.0675
X5.1206Y-5.0675
X5.3175Y-5.0675
X4.0613Y-5.055
X4.2581Y-5.055
X4.455Y-5.055
X7.8613Y-5.0325
X8.0581Y-5.0325
X8.255Y-5.0325
T10
X5.6525Y-2.9601
X5.6525Y-3.1569
X5.6525Y-3.5506
X5.6525Y-3.7475
X2.555Y-2.8351
X2.555Y-3.0319
X2.555Y-3.4256
X2.555Y-3.6225
X8.3315Y-2.8416
X8.3315Y-3.0384
X8.3315Y-3.4321
X8.3315Y-3.629
X6.36Y-2.8826
X6.36Y-3.0794
X6.36Y-3.4731
X6.36Y-3.67
T11
X2.895Y-2.5775
X3.1096Y-2.5775
X3.3241Y-2.5775
X5.8925Y-2.58
X6.1071Y-2.58
X6.3217Y-2.58
X5.8909Y-5.2082
X6.442Y-5.2082
X6.9932Y-5.2082
X7.5444Y-5.2082
X4.7775Y-2.58
X4.992Y-2.58
X5.2066Y-2.58
X7.8869Y-2.58
X8.1014Y-2.58
X8.316Y-2.58
T12
X5.5011Y-5.0704
X7.6389Y-5.0704
T13
X6.57Y-5.0704
T0
M30
