%TF.GenerationSoftware,KiCad,Pcbnew,(5.1.4)-1*%
%TF.CreationDate,2020-04-20T22:06:07-04:00*%
%TF.ProjectId,AAMB,41414d42-2e6b-4696-9361-645f70636258,rev?*%
%TF.SameCoordinates,Original*%
%TF.FileFunction,Soldermask,Bot*%
%TF.FilePolarity,Negative*%
%FSLAX46Y46*%
G04 Gerber Fmt 4.6, Leading zero omitted, Abs format (unit mm)*
G04 Created by KiCad (PCBNEW (5.1.4)-1) date 2020-04-20 22:06:07*
%MOMM*%
%LPD*%
G04 APERTURE LIST*
%ADD10C,0.002000*%
%ADD11O,2.500000X2.500000*%
%ADD12R,2.500000X2.500000*%
%ADD13C,1.440000*%
%ADD14C,2.600000*%
%ADD15R,2.600000X2.600000*%
%ADD16C,2.200000*%
%ADD17C,2.000000*%
%ADD18C,1.524000*%
%ADD19O,2.400000X2.400000*%
%ADD20C,2.400000*%
%ADD21R,2.500000X4.500000*%
%ADD22O,2.500000X4.500000*%
%ADD23C,1.600000*%
%ADD24C,1.400000*%
%ADD25C,0.400000*%
%ADD26C,0.800000*%
%ADD27C,0.600000*%
G04 APERTURE END LIST*
D10*
G36*
X165217800Y-120790800D02*
G01*
X165233800Y-120994800D01*
X165281800Y-121192800D01*
X165359800Y-121381800D01*
X165466800Y-121555800D01*
X165599800Y-121710800D01*
X165754800Y-121843800D01*
X165928800Y-121950800D01*
X166117800Y-122028800D01*
X166315800Y-122076800D01*
X166519800Y-122092800D01*
X166723800Y-122076800D01*
X166921800Y-122028800D01*
X167110800Y-121950800D01*
X167284800Y-121843800D01*
X167439800Y-121710800D01*
X167572800Y-121555800D01*
X167679800Y-121381800D01*
X167757800Y-121192800D01*
X167805800Y-120994800D01*
X167821800Y-120790800D01*
X167821800Y-119490800D01*
X167805800Y-119286800D01*
X167757800Y-119088800D01*
X167679800Y-118899800D01*
X167572800Y-118725800D01*
X167439800Y-118570800D01*
X167284800Y-118437800D01*
X167110800Y-118330800D01*
X166921800Y-118252800D01*
X166723800Y-118204800D01*
X166519800Y-118188800D01*
X166315800Y-118204800D01*
X166117800Y-118252800D01*
X165928800Y-118330800D01*
X165754800Y-118437800D01*
X165599800Y-118570800D01*
X165466800Y-118725800D01*
X165359800Y-118899800D01*
X165281800Y-119088800D01*
X165233800Y-119286800D01*
X165217800Y-119490800D01*
X165217800Y-120790800D01*
G37*
X165217800Y-120790800D02*
X165233800Y-120994800D01*
X165281800Y-121192800D01*
X165359800Y-121381800D01*
X165466800Y-121555800D01*
X165599800Y-121710800D01*
X165754800Y-121843800D01*
X165928800Y-121950800D01*
X166117800Y-122028800D01*
X166315800Y-122076800D01*
X166519800Y-122092800D01*
X166723800Y-122076800D01*
X166921800Y-122028800D01*
X167110800Y-121950800D01*
X167284800Y-121843800D01*
X167439800Y-121710800D01*
X167572800Y-121555800D01*
X167679800Y-121381800D01*
X167757800Y-121192800D01*
X167805800Y-120994800D01*
X167821800Y-120790800D01*
X167821800Y-119490800D01*
X167805800Y-119286800D01*
X167757800Y-119088800D01*
X167679800Y-118899800D01*
X167572800Y-118725800D01*
X167439800Y-118570800D01*
X167284800Y-118437800D01*
X167110800Y-118330800D01*
X166921800Y-118252800D01*
X166723800Y-118204800D01*
X166519800Y-118188800D01*
X166315800Y-118204800D01*
X166117800Y-118252800D01*
X165928800Y-118330800D01*
X165754800Y-118437800D01*
X165599800Y-118570800D01*
X165466800Y-118725800D01*
X165359800Y-118899800D01*
X165281800Y-119088800D01*
X165233800Y-119286800D01*
X165217800Y-119490800D01*
X165217800Y-120790800D01*
G36*
X110917800Y-120790800D02*
G01*
X110933800Y-120994800D01*
X110981800Y-121192800D01*
X111059800Y-121381800D01*
X111166800Y-121555800D01*
X111299800Y-121710800D01*
X111454800Y-121843800D01*
X111628800Y-121950800D01*
X111817800Y-122028800D01*
X112015800Y-122076800D01*
X112219800Y-122092800D01*
X112423800Y-122076800D01*
X112621800Y-122028800D01*
X112810800Y-121950800D01*
X112984800Y-121843800D01*
X113139800Y-121710800D01*
X113272800Y-121555800D01*
X113379800Y-121381800D01*
X113457800Y-121192800D01*
X113505800Y-120994800D01*
X113521800Y-120790800D01*
X113521800Y-119490800D01*
X113505800Y-119286800D01*
X113457800Y-119088800D01*
X113379800Y-118899800D01*
X113272800Y-118725800D01*
X113139800Y-118570800D01*
X112984800Y-118437800D01*
X112810800Y-118330800D01*
X112621800Y-118252800D01*
X112423800Y-118204800D01*
X112219800Y-118188800D01*
X112015800Y-118204800D01*
X111817800Y-118252800D01*
X111628800Y-118330800D01*
X111454800Y-118437800D01*
X111299800Y-118570800D01*
X111166800Y-118725800D01*
X111059800Y-118899800D01*
X110981800Y-119088800D01*
X110933800Y-119286800D01*
X110917800Y-119490800D01*
X110917800Y-120790800D01*
G37*
X110917800Y-120790800D02*
X110933800Y-120994800D01*
X110981800Y-121192800D01*
X111059800Y-121381800D01*
X111166800Y-121555800D01*
X111299800Y-121710800D01*
X111454800Y-121843800D01*
X111628800Y-121950800D01*
X111817800Y-122028800D01*
X112015800Y-122076800D01*
X112219800Y-122092800D01*
X112423800Y-122076800D01*
X112621800Y-122028800D01*
X112810800Y-121950800D01*
X112984800Y-121843800D01*
X113139800Y-121710800D01*
X113272800Y-121555800D01*
X113379800Y-121381800D01*
X113457800Y-121192800D01*
X113505800Y-120994800D01*
X113521800Y-120790800D01*
X113521800Y-119490800D01*
X113505800Y-119286800D01*
X113457800Y-119088800D01*
X113379800Y-118899800D01*
X113272800Y-118725800D01*
X113139800Y-118570800D01*
X112984800Y-118437800D01*
X112810800Y-118330800D01*
X112621800Y-118252800D01*
X112423800Y-118204800D01*
X112219800Y-118188800D01*
X112015800Y-118204800D01*
X111817800Y-118252800D01*
X111628800Y-118330800D01*
X111454800Y-118437800D01*
X111299800Y-118570800D01*
X111166800Y-118725800D01*
X111059800Y-118899800D01*
X110981800Y-119088800D01*
X110933800Y-119286800D01*
X110917800Y-119490800D01*
X110917800Y-120790800D01*
G36*
X141019800Y-122092800D02*
G01*
X141324800Y-122068800D01*
X141622800Y-121996800D01*
X141905800Y-121879800D01*
X142166800Y-121719800D01*
X142399800Y-121520800D01*
X142598800Y-121287800D01*
X142758800Y-121026800D01*
X142875800Y-120743800D01*
X142947800Y-120445800D01*
X142971800Y-120140800D01*
X142947800Y-119835800D01*
X142875800Y-119537800D01*
X142758800Y-119254800D01*
X142598800Y-118993800D01*
X142399800Y-118760800D01*
X142166800Y-118561800D01*
X141905800Y-118401800D01*
X141622800Y-118284800D01*
X141324800Y-118212800D01*
X141019800Y-118188800D01*
X137719800Y-118188800D01*
X137414800Y-118212800D01*
X137116800Y-118284800D01*
X136833800Y-118401800D01*
X136572800Y-118561800D01*
X136339800Y-118760800D01*
X136140800Y-118993800D01*
X135980800Y-119254800D01*
X135863800Y-119537800D01*
X135791800Y-119835800D01*
X135767800Y-120140800D01*
X135791800Y-120445800D01*
X135863800Y-120743800D01*
X135980800Y-121026800D01*
X136140800Y-121287800D01*
X136339800Y-121520800D01*
X136572800Y-121719800D01*
X136833800Y-121879800D01*
X137116800Y-121996800D01*
X137414800Y-122068800D01*
X137719800Y-122092800D01*
X141019800Y-122092800D01*
G37*
X141019800Y-122092800D02*
X141324800Y-122068800D01*
X141622800Y-121996800D01*
X141905800Y-121879800D01*
X142166800Y-121719800D01*
X142399800Y-121520800D01*
X142598800Y-121287800D01*
X142758800Y-121026800D01*
X142875800Y-120743800D01*
X142947800Y-120445800D01*
X142971800Y-120140800D01*
X142947800Y-119835800D01*
X142875800Y-119537800D01*
X142758800Y-119254800D01*
X142598800Y-118993800D01*
X142399800Y-118760800D01*
X142166800Y-118561800D01*
X141905800Y-118401800D01*
X141622800Y-118284800D01*
X141324800Y-118212800D01*
X141019800Y-118188800D01*
X137719800Y-118188800D01*
X137414800Y-118212800D01*
X137116800Y-118284800D01*
X136833800Y-118401800D01*
X136572800Y-118561800D01*
X136339800Y-118760800D01*
X136140800Y-118993800D01*
X135980800Y-119254800D01*
X135863800Y-119537800D01*
X135791800Y-119835800D01*
X135767800Y-120140800D01*
X135791800Y-120445800D01*
X135863800Y-120743800D01*
X135980800Y-121026800D01*
X136140800Y-121287800D01*
X136339800Y-121520800D01*
X136572800Y-121719800D01*
X136833800Y-121879800D01*
X137116800Y-121996800D01*
X137414800Y-122068800D01*
X137719800Y-122092800D01*
X141019800Y-122092800D01*
D11*
X213391000Y-96043500D03*
X213391000Y-108243500D03*
X201391000Y-108243500D03*
X201391000Y-96043500D03*
D12*
X207391000Y-94043500D03*
X98425000Y-110934500D03*
D11*
X104425000Y-108934500D03*
X104425000Y-96734500D03*
X92425000Y-96734500D03*
X92425000Y-108934500D03*
D13*
X188849000Y-85026500D03*
X186309000Y-85026500D03*
X183769000Y-85026500D03*
X105918000Y-72390000D03*
X103378000Y-72390000D03*
X100838000Y-72390000D03*
D14*
X212899000Y-120459500D03*
D15*
X207899000Y-120459500D03*
X83693000Y-120396000D03*
D14*
X78693000Y-120396000D03*
D15*
X74041000Y-55689500D03*
D14*
X74041000Y-60689500D03*
X74041000Y-65689500D03*
X74041000Y-70689500D03*
X91139000Y-120332500D03*
X96139000Y-120332500D03*
X101139000Y-120332500D03*
D15*
X106139000Y-120332500D03*
D16*
X150119800Y-123640800D03*
X136119800Y-123640800D03*
X122119800Y-123640800D03*
X164119800Y-123640800D03*
D17*
X150119800Y-116390800D03*
X142619800Y-116390800D03*
X136119800Y-116390800D03*
X128619800Y-116390800D03*
X122119800Y-116390800D03*
X114619800Y-116390800D03*
X164119800Y-116390800D03*
X156619800Y-116390800D03*
D18*
X183363000Y-101822500D03*
X180863000Y-104322500D03*
X178363000Y-101822500D03*
D15*
X187706000Y-120840500D03*
D14*
X192706000Y-120840500D03*
X197706000Y-120840500D03*
X181530000Y-120840500D03*
X176530000Y-120840500D03*
D15*
X171530000Y-120840500D03*
D19*
X192283000Y-102332500D03*
D20*
X192283000Y-109952500D03*
D19*
X82042000Y-101917500D03*
D20*
X82042000Y-109537500D03*
X175307000Y-63182500D03*
X170307000Y-63182500D03*
X194945000Y-65849500D03*
X194945000Y-60849500D03*
X118364000Y-68770500D03*
X118364000Y-63770500D03*
X128270000Y-68770500D03*
X128270000Y-63770500D03*
D21*
X132737000Y-53149500D03*
D22*
X138187000Y-53149500D03*
X143637000Y-53149500D03*
X117453000Y-53403500D03*
X112003000Y-53403500D03*
D21*
X106553000Y-53403500D03*
D23*
X87249000Y-93615500D03*
X87249000Y-98615500D03*
X179498000Y-71437500D03*
X174498000Y-71437500D03*
X176149000Y-56832500D03*
X176149000Y-51832500D03*
X189611000Y-92392500D03*
X194611000Y-92392500D03*
X203327000Y-57785000D03*
X203327000Y-62785000D03*
X125095000Y-52848500D03*
X125095000Y-57848500D03*
D22*
X195542000Y-52916500D03*
X190092000Y-52916500D03*
D21*
X184642000Y-52916500D03*
X157592000Y-53066500D03*
D22*
X163042000Y-53066500D03*
X168492000Y-53066500D03*
D24*
X192976500Y-72390000D03*
X195516500Y-72390000D03*
X88392000Y-107632500D03*
X88392000Y-105092500D03*
X160093000Y-84752500D03*
X160093000Y-82212500D03*
X117059000Y-87376500D03*
X117059000Y-84836500D03*
X148843000Y-111482500D03*
X146303000Y-111482500D03*
X129159000Y-111125000D03*
X131699000Y-111125000D03*
D25*
X93091000Y-60769500D03*
X82423000Y-69723000D03*
D26*
X144145000Y-107315000D03*
D25*
X91630500Y-68580000D03*
X92900500Y-68961000D03*
X89027000Y-65341500D03*
X92329000Y-65468500D03*
X91059000Y-65468500D03*
X91821000Y-63754000D03*
X90297000Y-63690500D03*
X89725500Y-64389000D03*
X93091000Y-64071500D03*
X94869000Y-60134500D03*
X91249500Y-60071000D03*
X97536000Y-57975500D03*
D26*
X131445000Y-87058500D03*
X127381000Y-91567000D03*
D25*
X94996000Y-62083990D03*
X92646500Y-62083990D03*
D27*
X108839000Y-109156500D03*
X110617000Y-105727500D03*
X113411000Y-113982500D03*
X115189000Y-114300000D03*
X117838490Y-113605010D03*
X95440500Y-80137000D03*
X97472500Y-81026000D03*
X100012500Y-84201000D03*
X101028500Y-85915500D03*
X104457500Y-84010500D03*
X102997000Y-79883000D03*
X105918000Y-80454500D03*
X105854500Y-78549500D03*
X105727500Y-82994500D03*
X77787500Y-97980500D03*
X80073500Y-98107500D03*
X80073500Y-95250000D03*
X80200500Y-100965000D03*
X80073500Y-102743000D03*
X73152000Y-93535500D03*
X137350500Y-95694500D03*
X141605000Y-95758000D03*
X137477500Y-97853500D03*
X141668500Y-97917000D03*
X138811000Y-82550000D03*
X141224000Y-82550000D03*
X147447000Y-83883500D03*
X129984500Y-102616000D03*
X131000500Y-105283000D03*
X126301500Y-105219500D03*
X127444500Y-102806500D03*
X144970500Y-94869000D03*
X147066000Y-90678000D03*
X151701500Y-84010500D03*
X156781500Y-84264500D03*
X160401000Y-88011000D03*
X173736000Y-93789500D03*
X176466500Y-92900500D03*
X168973500Y-82423000D03*
X155384500Y-80518000D03*
X155384500Y-77470000D03*
X158623000Y-75946000D03*
X161671000Y-75946000D03*
X166370000Y-78232000D03*
X168846500Y-80645000D03*
X175133000Y-88265000D03*
X176212500Y-86868000D03*
X166814500Y-91313000D03*
X161544000Y-86042500D03*
X181737000Y-88138000D03*
X193611500Y-69469000D03*
X178943000Y-69278500D03*
X174879000Y-65214500D03*
X183578500Y-72072500D03*
X205359000Y-92075000D03*
X202057000Y-88074500D03*
X195707000Y-81724500D03*
X191071500Y-81661000D03*
X191135000Y-87757000D03*
X186372500Y-92837000D03*
X177038000Y-61912500D03*
X180594000Y-65659000D03*
X184531000Y-59753500D03*
X192341500Y-65659000D03*
X190373000Y-56070500D03*
X195961000Y-56070500D03*
X200533000Y-81280000D03*
X197358000Y-78105000D03*
X197358000Y-65976500D03*
X199326500Y-59372500D03*
X200406000Y-72453500D03*
X163195000Y-90678000D03*
X153733500Y-94361000D03*
X161544000Y-94424500D03*
X160464500Y-103378000D03*
X110617000Y-110871000D03*
X130937000Y-94805500D03*
X128079500Y-95694500D03*
X124333000Y-94805500D03*
X119380000Y-92646500D03*
X116840000Y-95250000D03*
X114173000Y-97917000D03*
X111252000Y-100711000D03*
X108902500Y-103187500D03*
X105156000Y-106807000D03*
X101790500Y-116078000D03*
X88519000Y-116014500D03*
X85979000Y-107950000D03*
X77089000Y-104584500D03*
X82613500Y-104584500D03*
X81978500Y-97536000D03*
X81978500Y-95567500D03*
X100139500Y-89090500D03*
X90043000Y-87312500D03*
X94043500Y-90360500D03*
X76263500Y-89344500D03*
X78867000Y-89344500D03*
X74612500Y-84391500D03*
X86233000Y-83439000D03*
X85915500Y-85598000D03*
X99631500Y-80899000D03*
X169037000Y-111760000D03*
X169291000Y-115252500D03*
X169418000Y-120269000D03*
X174053500Y-121793000D03*
X178435000Y-112077500D03*
X178308000Y-118237000D03*
X179006500Y-121348500D03*
X163703000Y-103314500D03*
X171704000Y-106616500D03*
X163195000Y-105664000D03*
X131572000Y-116586000D03*
X135763000Y-112649000D03*
X138684000Y-109347000D03*
X101854000Y-67437000D03*
X101854000Y-64897000D03*
X103886000Y-62992000D03*
X103759000Y-67183000D03*
X106299000Y-61595000D03*
X108712000Y-58039000D03*
X98933000Y-67183000D03*
X97409000Y-65278000D03*
X184658000Y-92075000D03*
X189357000Y-87503000D03*
X189484000Y-81280000D03*
X184658000Y-88773000D03*
X180594000Y-84582000D03*
X173736000Y-83439000D03*
X176022000Y-82169000D03*
X155702000Y-68199000D03*
X155448000Y-73914000D03*
X158496000Y-74295000D03*
X164592000Y-74295000D03*
X169037000Y-78613000D03*
X173228000Y-74676000D03*
X174752000Y-73279000D03*
X161798000Y-62484000D03*
X161798000Y-66294000D03*
X167005000Y-64897000D03*
X176022000Y-89916000D03*
X179705000Y-92202000D03*
X178816000Y-86995000D03*
X147447000Y-95250000D03*
X144780000Y-103124000D03*
X119634000Y-51435000D03*
X123698000Y-51435000D03*
X119507000Y-55245000D03*
X124841000Y-55245000D03*
X129159000Y-54610000D03*
X108585000Y-51562000D03*
X110109000Y-55753000D03*
X114173000Y-53467000D03*
X160401000Y-55372000D03*
X160401000Y-50927000D03*
X165227000Y-54610000D03*
X165735000Y-51054000D03*
X91567000Y-46990000D03*
X101567000Y-46990000D03*
X111567000Y-46990000D03*
X121567000Y-46990000D03*
X131567000Y-46990000D03*
X101567000Y-46990000D03*
X111567000Y-46990000D03*
X121567000Y-46990000D03*
X131567000Y-46990000D03*
X141567000Y-46990000D03*
X151567000Y-46990000D03*
X161567000Y-46990000D03*
X171567000Y-46990000D03*
X181567000Y-46990000D03*
X191567000Y-46990000D03*
X138303000Y-117348000D03*
X140970000Y-117348000D03*
X139065000Y-113030000D03*
D25*
X95250000Y-54864000D03*
X95885000Y-64344510D03*
X83121500Y-73596500D03*
X97472500Y-61023500D03*
D26*
X103187500Y-61277500D03*
X129413000Y-56007000D03*
D25*
X103187500Y-68154510D03*
D27*
X157226000Y-63627000D03*
X168275000Y-91249500D03*
X187007500Y-80391000D03*
D25*
X88519000Y-66294000D03*
X101092000Y-68154510D03*
D27*
X154913917Y-66510583D03*
X160528000Y-62357000D03*
D25*
X99123500Y-86423500D03*
X101346000Y-79756000D03*
D26*
X128778000Y-101600000D03*
X128397000Y-103758994D03*
X121158000Y-91821000D03*
X132334000Y-93916500D03*
X133921500Y-87185500D03*
X127063500Y-96583500D03*
D27*
X145161000Y-86296500D03*
X151892000Y-94043500D03*
D17*
X136080500Y-77597000D03*
X109156500Y-76327000D03*
D25*
X77152500Y-112712500D03*
D17*
X89471500Y-52641500D03*
X79121000Y-68359500D03*
X147701000Y-57340500D03*
D26*
X134366000Y-109537500D03*
X137414000Y-108978532D03*
X140281796Y-109204261D03*
X134745921Y-110810557D03*
X181483000Y-112839500D03*
D25*
X86550500Y-89598500D03*
X75819000Y-85661500D03*
D26*
X151193500Y-99187000D03*
D25*
X114681000Y-106045000D03*
X137350500Y-106533990D03*
D26*
X113157000Y-108902500D03*
X140716000Y-106870500D03*
D25*
X99568000Y-59563000D03*
X94996000Y-65893988D03*
D27*
X170243500Y-90360500D03*
X157099000Y-71056500D03*
D25*
X113855500Y-84455000D03*
X92627601Y-66694010D03*
M02*
