%TF.GenerationSoftware,KiCad,Pcbnew,5.1.5-52549c5~84~ubuntu19.10.1*%
%TF.CreationDate,2020-02-07T20:24:03-05:00*%
%TF.ProjectId,AAMB,41414d42-2e6b-4696-9361-645f70636258,rev?*%
%TF.SameCoordinates,Original*%
%TF.FileFunction,Paste,Bot*%
%TF.FilePolarity,Positive*%
%FSLAX46Y46*%
G04 Gerber Fmt 4.6, Leading zero omitted, Abs format (unit mm)*
G04 Created by KiCad (PCBNEW 5.1.5-52549c5~84~ubuntu19.10.1) date 2020-02-07 20:24:03*
%MOMM*%
%LPD*%
G04 APERTURE LIST*
%ADD10C,0.100000*%
%ADD11R,2.500000X1.800000*%
G04 APERTURE END LIST*
D10*
G36*
X110751779Y-117572144D02*
G01*
X110774834Y-117575563D01*
X110797443Y-117581227D01*
X110819387Y-117589079D01*
X110840457Y-117599044D01*
X110860448Y-117611026D01*
X110879168Y-117624910D01*
X110896438Y-117640562D01*
X110912090Y-117657832D01*
X110925974Y-117676552D01*
X110937956Y-117696543D01*
X110947921Y-117717613D01*
X110955773Y-117739557D01*
X110961437Y-117762166D01*
X110964856Y-117785221D01*
X110966000Y-117808500D01*
X110966000Y-118283500D01*
X110964856Y-118306779D01*
X110961437Y-118329834D01*
X110955773Y-118352443D01*
X110947921Y-118374387D01*
X110937956Y-118395457D01*
X110925974Y-118415448D01*
X110912090Y-118434168D01*
X110896438Y-118451438D01*
X110879168Y-118467090D01*
X110860448Y-118480974D01*
X110840457Y-118492956D01*
X110819387Y-118502921D01*
X110797443Y-118510773D01*
X110774834Y-118516437D01*
X110751779Y-118519856D01*
X110728500Y-118521000D01*
X110153500Y-118521000D01*
X110130221Y-118519856D01*
X110107166Y-118516437D01*
X110084557Y-118510773D01*
X110062613Y-118502921D01*
X110041543Y-118492956D01*
X110021552Y-118480974D01*
X110002832Y-118467090D01*
X109985562Y-118451438D01*
X109969910Y-118434168D01*
X109956026Y-118415448D01*
X109944044Y-118395457D01*
X109934079Y-118374387D01*
X109926227Y-118352443D01*
X109920563Y-118329834D01*
X109917144Y-118306779D01*
X109916000Y-118283500D01*
X109916000Y-117808500D01*
X109917144Y-117785221D01*
X109920563Y-117762166D01*
X109926227Y-117739557D01*
X109934079Y-117717613D01*
X109944044Y-117696543D01*
X109956026Y-117676552D01*
X109969910Y-117657832D01*
X109985562Y-117640562D01*
X110002832Y-117624910D01*
X110021552Y-117611026D01*
X110041543Y-117599044D01*
X110062613Y-117589079D01*
X110084557Y-117581227D01*
X110107166Y-117575563D01*
X110130221Y-117572144D01*
X110153500Y-117571000D01*
X110728500Y-117571000D01*
X110751779Y-117572144D01*
G37*
G36*
X112501779Y-117572144D02*
G01*
X112524834Y-117575563D01*
X112547443Y-117581227D01*
X112569387Y-117589079D01*
X112590457Y-117599044D01*
X112610448Y-117611026D01*
X112629168Y-117624910D01*
X112646438Y-117640562D01*
X112662090Y-117657832D01*
X112675974Y-117676552D01*
X112687956Y-117696543D01*
X112697921Y-117717613D01*
X112705773Y-117739557D01*
X112711437Y-117762166D01*
X112714856Y-117785221D01*
X112716000Y-117808500D01*
X112716000Y-118283500D01*
X112714856Y-118306779D01*
X112711437Y-118329834D01*
X112705773Y-118352443D01*
X112697921Y-118374387D01*
X112687956Y-118395457D01*
X112675974Y-118415448D01*
X112662090Y-118434168D01*
X112646438Y-118451438D01*
X112629168Y-118467090D01*
X112610448Y-118480974D01*
X112590457Y-118492956D01*
X112569387Y-118502921D01*
X112547443Y-118510773D01*
X112524834Y-118516437D01*
X112501779Y-118519856D01*
X112478500Y-118521000D01*
X111903500Y-118521000D01*
X111880221Y-118519856D01*
X111857166Y-118516437D01*
X111834557Y-118510773D01*
X111812613Y-118502921D01*
X111791543Y-118492956D01*
X111771552Y-118480974D01*
X111752832Y-118467090D01*
X111735562Y-118451438D01*
X111719910Y-118434168D01*
X111706026Y-118415448D01*
X111694044Y-118395457D01*
X111684079Y-118374387D01*
X111676227Y-118352443D01*
X111670563Y-118329834D01*
X111667144Y-118306779D01*
X111666000Y-118283500D01*
X111666000Y-117808500D01*
X111667144Y-117785221D01*
X111670563Y-117762166D01*
X111676227Y-117739557D01*
X111684079Y-117717613D01*
X111694044Y-117696543D01*
X111706026Y-117676552D01*
X111719910Y-117657832D01*
X111735562Y-117640562D01*
X111752832Y-117624910D01*
X111771552Y-117611026D01*
X111791543Y-117599044D01*
X111812613Y-117589079D01*
X111834557Y-117581227D01*
X111857166Y-117575563D01*
X111880221Y-117572144D01*
X111903500Y-117571000D01*
X112478500Y-117571000D01*
X112501779Y-117572144D01*
G37*
D11*
X106776000Y-93599000D03*
X110776000Y-93599000D03*
X108807000Y-105918000D03*
X104807000Y-105918000D03*
D10*
G36*
X94784779Y-88807144D02*
G01*
X94807834Y-88810563D01*
X94830443Y-88816227D01*
X94852387Y-88824079D01*
X94873457Y-88834044D01*
X94893448Y-88846026D01*
X94912168Y-88859910D01*
X94929438Y-88875562D01*
X94945090Y-88892832D01*
X94958974Y-88911552D01*
X94970956Y-88931543D01*
X94980921Y-88952613D01*
X94988773Y-88974557D01*
X94994437Y-88997166D01*
X94997856Y-89020221D01*
X94999000Y-89043500D01*
X94999000Y-89518500D01*
X94997856Y-89541779D01*
X94994437Y-89564834D01*
X94988773Y-89587443D01*
X94980921Y-89609387D01*
X94970956Y-89630457D01*
X94958974Y-89650448D01*
X94945090Y-89669168D01*
X94929438Y-89686438D01*
X94912168Y-89702090D01*
X94893448Y-89715974D01*
X94873457Y-89727956D01*
X94852387Y-89737921D01*
X94830443Y-89745773D01*
X94807834Y-89751437D01*
X94784779Y-89754856D01*
X94761500Y-89756000D01*
X94186500Y-89756000D01*
X94163221Y-89754856D01*
X94140166Y-89751437D01*
X94117557Y-89745773D01*
X94095613Y-89737921D01*
X94074543Y-89727956D01*
X94054552Y-89715974D01*
X94035832Y-89702090D01*
X94018562Y-89686438D01*
X94002910Y-89669168D01*
X93989026Y-89650448D01*
X93977044Y-89630457D01*
X93967079Y-89609387D01*
X93959227Y-89587443D01*
X93953563Y-89564834D01*
X93950144Y-89541779D01*
X93949000Y-89518500D01*
X93949000Y-89043500D01*
X93950144Y-89020221D01*
X93953563Y-88997166D01*
X93959227Y-88974557D01*
X93967079Y-88952613D01*
X93977044Y-88931543D01*
X93989026Y-88911552D01*
X94002910Y-88892832D01*
X94018562Y-88875562D01*
X94035832Y-88859910D01*
X94054552Y-88846026D01*
X94074543Y-88834044D01*
X94095613Y-88824079D01*
X94117557Y-88816227D01*
X94140166Y-88810563D01*
X94163221Y-88807144D01*
X94186500Y-88806000D01*
X94761500Y-88806000D01*
X94784779Y-88807144D01*
G37*
G36*
X93034779Y-88807144D02*
G01*
X93057834Y-88810563D01*
X93080443Y-88816227D01*
X93102387Y-88824079D01*
X93123457Y-88834044D01*
X93143448Y-88846026D01*
X93162168Y-88859910D01*
X93179438Y-88875562D01*
X93195090Y-88892832D01*
X93208974Y-88911552D01*
X93220956Y-88931543D01*
X93230921Y-88952613D01*
X93238773Y-88974557D01*
X93244437Y-88997166D01*
X93247856Y-89020221D01*
X93249000Y-89043500D01*
X93249000Y-89518500D01*
X93247856Y-89541779D01*
X93244437Y-89564834D01*
X93238773Y-89587443D01*
X93230921Y-89609387D01*
X93220956Y-89630457D01*
X93208974Y-89650448D01*
X93195090Y-89669168D01*
X93179438Y-89686438D01*
X93162168Y-89702090D01*
X93143448Y-89715974D01*
X93123457Y-89727956D01*
X93102387Y-89737921D01*
X93080443Y-89745773D01*
X93057834Y-89751437D01*
X93034779Y-89754856D01*
X93011500Y-89756000D01*
X92436500Y-89756000D01*
X92413221Y-89754856D01*
X92390166Y-89751437D01*
X92367557Y-89745773D01*
X92345613Y-89737921D01*
X92324543Y-89727956D01*
X92304552Y-89715974D01*
X92285832Y-89702090D01*
X92268562Y-89686438D01*
X92252910Y-89669168D01*
X92239026Y-89650448D01*
X92227044Y-89630457D01*
X92217079Y-89609387D01*
X92209227Y-89587443D01*
X92203563Y-89564834D01*
X92200144Y-89541779D01*
X92199000Y-89518500D01*
X92199000Y-89043500D01*
X92200144Y-89020221D01*
X92203563Y-88997166D01*
X92209227Y-88974557D01*
X92217079Y-88952613D01*
X92227044Y-88931543D01*
X92239026Y-88911552D01*
X92252910Y-88892832D01*
X92268562Y-88875562D01*
X92285832Y-88859910D01*
X92304552Y-88846026D01*
X92324543Y-88834044D01*
X92345613Y-88824079D01*
X92367557Y-88816227D01*
X92390166Y-88810563D01*
X92413221Y-88807144D01*
X92436500Y-88806000D01*
X93011500Y-88806000D01*
X93034779Y-88807144D01*
G37*
G36*
X69603279Y-91537644D02*
G01*
X69626334Y-91541063D01*
X69648943Y-91546727D01*
X69670887Y-91554579D01*
X69691957Y-91564544D01*
X69711948Y-91576526D01*
X69730668Y-91590410D01*
X69747938Y-91606062D01*
X69763590Y-91623332D01*
X69777474Y-91642052D01*
X69789456Y-91662043D01*
X69799421Y-91683113D01*
X69807273Y-91705057D01*
X69812937Y-91727666D01*
X69816356Y-91750721D01*
X69817500Y-91774000D01*
X69817500Y-92249000D01*
X69816356Y-92272279D01*
X69812937Y-92295334D01*
X69807273Y-92317943D01*
X69799421Y-92339887D01*
X69789456Y-92360957D01*
X69777474Y-92380948D01*
X69763590Y-92399668D01*
X69747938Y-92416938D01*
X69730668Y-92432590D01*
X69711948Y-92446474D01*
X69691957Y-92458456D01*
X69670887Y-92468421D01*
X69648943Y-92476273D01*
X69626334Y-92481937D01*
X69603279Y-92485356D01*
X69580000Y-92486500D01*
X69005000Y-92486500D01*
X68981721Y-92485356D01*
X68958666Y-92481937D01*
X68936057Y-92476273D01*
X68914113Y-92468421D01*
X68893043Y-92458456D01*
X68873052Y-92446474D01*
X68854332Y-92432590D01*
X68837062Y-92416938D01*
X68821410Y-92399668D01*
X68807526Y-92380948D01*
X68795544Y-92360957D01*
X68785579Y-92339887D01*
X68777727Y-92317943D01*
X68772063Y-92295334D01*
X68768644Y-92272279D01*
X68767500Y-92249000D01*
X68767500Y-91774000D01*
X68768644Y-91750721D01*
X68772063Y-91727666D01*
X68777727Y-91705057D01*
X68785579Y-91683113D01*
X68795544Y-91662043D01*
X68807526Y-91642052D01*
X68821410Y-91623332D01*
X68837062Y-91606062D01*
X68854332Y-91590410D01*
X68873052Y-91576526D01*
X68893043Y-91564544D01*
X68914113Y-91554579D01*
X68936057Y-91546727D01*
X68958666Y-91541063D01*
X68981721Y-91537644D01*
X69005000Y-91536500D01*
X69580000Y-91536500D01*
X69603279Y-91537644D01*
G37*
G36*
X71353279Y-91537644D02*
G01*
X71376334Y-91541063D01*
X71398943Y-91546727D01*
X71420887Y-91554579D01*
X71441957Y-91564544D01*
X71461948Y-91576526D01*
X71480668Y-91590410D01*
X71497938Y-91606062D01*
X71513590Y-91623332D01*
X71527474Y-91642052D01*
X71539456Y-91662043D01*
X71549421Y-91683113D01*
X71557273Y-91705057D01*
X71562937Y-91727666D01*
X71566356Y-91750721D01*
X71567500Y-91774000D01*
X71567500Y-92249000D01*
X71566356Y-92272279D01*
X71562937Y-92295334D01*
X71557273Y-92317943D01*
X71549421Y-92339887D01*
X71539456Y-92360957D01*
X71527474Y-92380948D01*
X71513590Y-92399668D01*
X71497938Y-92416938D01*
X71480668Y-92432590D01*
X71461948Y-92446474D01*
X71441957Y-92458456D01*
X71420887Y-92468421D01*
X71398943Y-92476273D01*
X71376334Y-92481937D01*
X71353279Y-92485356D01*
X71330000Y-92486500D01*
X70755000Y-92486500D01*
X70731721Y-92485356D01*
X70708666Y-92481937D01*
X70686057Y-92476273D01*
X70664113Y-92468421D01*
X70643043Y-92458456D01*
X70623052Y-92446474D01*
X70604332Y-92432590D01*
X70587062Y-92416938D01*
X70571410Y-92399668D01*
X70557526Y-92380948D01*
X70545544Y-92360957D01*
X70535579Y-92339887D01*
X70527727Y-92317943D01*
X70522063Y-92295334D01*
X70518644Y-92272279D01*
X70517500Y-92249000D01*
X70517500Y-91774000D01*
X70518644Y-91750721D01*
X70522063Y-91727666D01*
X70527727Y-91705057D01*
X70535579Y-91683113D01*
X70545544Y-91662043D01*
X70557526Y-91642052D01*
X70571410Y-91623332D01*
X70587062Y-91606062D01*
X70604332Y-91590410D01*
X70623052Y-91576526D01*
X70643043Y-91564544D01*
X70664113Y-91554579D01*
X70686057Y-91546727D01*
X70708666Y-91541063D01*
X70731721Y-91537644D01*
X70755000Y-91536500D01*
X71330000Y-91536500D01*
X71353279Y-91537644D01*
G37*
G36*
X77413279Y-111730144D02*
G01*
X77436334Y-111733563D01*
X77458943Y-111739227D01*
X77480887Y-111747079D01*
X77501957Y-111757044D01*
X77521948Y-111769026D01*
X77540668Y-111782910D01*
X77557938Y-111798562D01*
X77573590Y-111815832D01*
X77587474Y-111834552D01*
X77599456Y-111854543D01*
X77609421Y-111875613D01*
X77617273Y-111897557D01*
X77622937Y-111920166D01*
X77626356Y-111943221D01*
X77627500Y-111966500D01*
X77627500Y-112541500D01*
X77626356Y-112564779D01*
X77622937Y-112587834D01*
X77617273Y-112610443D01*
X77609421Y-112632387D01*
X77599456Y-112653457D01*
X77587474Y-112673448D01*
X77573590Y-112692168D01*
X77557938Y-112709438D01*
X77540668Y-112725090D01*
X77521948Y-112738974D01*
X77501957Y-112750956D01*
X77480887Y-112760921D01*
X77458943Y-112768773D01*
X77436334Y-112774437D01*
X77413279Y-112777856D01*
X77390000Y-112779000D01*
X76915000Y-112779000D01*
X76891721Y-112777856D01*
X76868666Y-112774437D01*
X76846057Y-112768773D01*
X76824113Y-112760921D01*
X76803043Y-112750956D01*
X76783052Y-112738974D01*
X76764332Y-112725090D01*
X76747062Y-112709438D01*
X76731410Y-112692168D01*
X76717526Y-112673448D01*
X76705544Y-112653457D01*
X76695579Y-112632387D01*
X76687727Y-112610443D01*
X76682063Y-112587834D01*
X76678644Y-112564779D01*
X76677500Y-112541500D01*
X76677500Y-111966500D01*
X76678644Y-111943221D01*
X76682063Y-111920166D01*
X76687727Y-111897557D01*
X76695579Y-111875613D01*
X76705544Y-111854543D01*
X76717526Y-111834552D01*
X76731410Y-111815832D01*
X76747062Y-111798562D01*
X76764332Y-111782910D01*
X76783052Y-111769026D01*
X76803043Y-111757044D01*
X76824113Y-111747079D01*
X76846057Y-111739227D01*
X76868666Y-111733563D01*
X76891721Y-111730144D01*
X76915000Y-111729000D01*
X77390000Y-111729000D01*
X77413279Y-111730144D01*
G37*
G36*
X77413279Y-109980144D02*
G01*
X77436334Y-109983563D01*
X77458943Y-109989227D01*
X77480887Y-109997079D01*
X77501957Y-110007044D01*
X77521948Y-110019026D01*
X77540668Y-110032910D01*
X77557938Y-110048562D01*
X77573590Y-110065832D01*
X77587474Y-110084552D01*
X77599456Y-110104543D01*
X77609421Y-110125613D01*
X77617273Y-110147557D01*
X77622937Y-110170166D01*
X77626356Y-110193221D01*
X77627500Y-110216500D01*
X77627500Y-110791500D01*
X77626356Y-110814779D01*
X77622937Y-110837834D01*
X77617273Y-110860443D01*
X77609421Y-110882387D01*
X77599456Y-110903457D01*
X77587474Y-110923448D01*
X77573590Y-110942168D01*
X77557938Y-110959438D01*
X77540668Y-110975090D01*
X77521948Y-110988974D01*
X77501957Y-111000956D01*
X77480887Y-111010921D01*
X77458943Y-111018773D01*
X77436334Y-111024437D01*
X77413279Y-111027856D01*
X77390000Y-111029000D01*
X76915000Y-111029000D01*
X76891721Y-111027856D01*
X76868666Y-111024437D01*
X76846057Y-111018773D01*
X76824113Y-111010921D01*
X76803043Y-111000956D01*
X76783052Y-110988974D01*
X76764332Y-110975090D01*
X76747062Y-110959438D01*
X76731410Y-110942168D01*
X76717526Y-110923448D01*
X76705544Y-110903457D01*
X76695579Y-110882387D01*
X76687727Y-110860443D01*
X76682063Y-110837834D01*
X76678644Y-110814779D01*
X76677500Y-110791500D01*
X76677500Y-110216500D01*
X76678644Y-110193221D01*
X76682063Y-110170166D01*
X76687727Y-110147557D01*
X76695579Y-110125613D01*
X76705544Y-110104543D01*
X76717526Y-110084552D01*
X76731410Y-110065832D01*
X76747062Y-110048562D01*
X76764332Y-110032910D01*
X76783052Y-110019026D01*
X76803043Y-110007044D01*
X76824113Y-109997079D01*
X76846057Y-109989227D01*
X76868666Y-109983563D01*
X76891721Y-109980144D01*
X76915000Y-109979000D01*
X77390000Y-109979000D01*
X77413279Y-109980144D01*
G37*
G36*
X87103379Y-101535144D02*
G01*
X87126434Y-101538563D01*
X87149043Y-101544227D01*
X87170987Y-101552079D01*
X87192057Y-101562044D01*
X87212048Y-101574026D01*
X87230768Y-101587910D01*
X87248038Y-101603562D01*
X87263690Y-101620832D01*
X87277574Y-101639552D01*
X87289556Y-101659543D01*
X87299521Y-101680613D01*
X87307373Y-101702557D01*
X87313037Y-101725166D01*
X87316456Y-101748221D01*
X87317600Y-101771500D01*
X87317600Y-102346500D01*
X87316456Y-102369779D01*
X87313037Y-102392834D01*
X87307373Y-102415443D01*
X87299521Y-102437387D01*
X87289556Y-102458457D01*
X87277574Y-102478448D01*
X87263690Y-102497168D01*
X87248038Y-102514438D01*
X87230768Y-102530090D01*
X87212048Y-102543974D01*
X87192057Y-102555956D01*
X87170987Y-102565921D01*
X87149043Y-102573773D01*
X87126434Y-102579437D01*
X87103379Y-102582856D01*
X87080100Y-102584000D01*
X86605100Y-102584000D01*
X86581821Y-102582856D01*
X86558766Y-102579437D01*
X86536157Y-102573773D01*
X86514213Y-102565921D01*
X86493143Y-102555956D01*
X86473152Y-102543974D01*
X86454432Y-102530090D01*
X86437162Y-102514438D01*
X86421510Y-102497168D01*
X86407626Y-102478448D01*
X86395644Y-102458457D01*
X86385679Y-102437387D01*
X86377827Y-102415443D01*
X86372163Y-102392834D01*
X86368744Y-102369779D01*
X86367600Y-102346500D01*
X86367600Y-101771500D01*
X86368744Y-101748221D01*
X86372163Y-101725166D01*
X86377827Y-101702557D01*
X86385679Y-101680613D01*
X86395644Y-101659543D01*
X86407626Y-101639552D01*
X86421510Y-101620832D01*
X86437162Y-101603562D01*
X86454432Y-101587910D01*
X86473152Y-101574026D01*
X86493143Y-101562044D01*
X86514213Y-101552079D01*
X86536157Y-101544227D01*
X86558766Y-101538563D01*
X86581821Y-101535144D01*
X86605100Y-101534000D01*
X87080100Y-101534000D01*
X87103379Y-101535144D01*
G37*
G36*
X87103379Y-103285144D02*
G01*
X87126434Y-103288563D01*
X87149043Y-103294227D01*
X87170987Y-103302079D01*
X87192057Y-103312044D01*
X87212048Y-103324026D01*
X87230768Y-103337910D01*
X87248038Y-103353562D01*
X87263690Y-103370832D01*
X87277574Y-103389552D01*
X87289556Y-103409543D01*
X87299521Y-103430613D01*
X87307373Y-103452557D01*
X87313037Y-103475166D01*
X87316456Y-103498221D01*
X87317600Y-103521500D01*
X87317600Y-104096500D01*
X87316456Y-104119779D01*
X87313037Y-104142834D01*
X87307373Y-104165443D01*
X87299521Y-104187387D01*
X87289556Y-104208457D01*
X87277574Y-104228448D01*
X87263690Y-104247168D01*
X87248038Y-104264438D01*
X87230768Y-104280090D01*
X87212048Y-104293974D01*
X87192057Y-104305956D01*
X87170987Y-104315921D01*
X87149043Y-104323773D01*
X87126434Y-104329437D01*
X87103379Y-104332856D01*
X87080100Y-104334000D01*
X86605100Y-104334000D01*
X86581821Y-104332856D01*
X86558766Y-104329437D01*
X86536157Y-104323773D01*
X86514213Y-104315921D01*
X86493143Y-104305956D01*
X86473152Y-104293974D01*
X86454432Y-104280090D01*
X86437162Y-104264438D01*
X86421510Y-104247168D01*
X86407626Y-104228448D01*
X86395644Y-104208457D01*
X86385679Y-104187387D01*
X86377827Y-104165443D01*
X86372163Y-104142834D01*
X86368744Y-104119779D01*
X86367600Y-104096500D01*
X86367600Y-103521500D01*
X86368744Y-103498221D01*
X86372163Y-103475166D01*
X86377827Y-103452557D01*
X86385679Y-103430613D01*
X86395644Y-103409543D01*
X86407626Y-103389552D01*
X86421510Y-103370832D01*
X86437162Y-103353562D01*
X86454432Y-103337910D01*
X86473152Y-103324026D01*
X86493143Y-103312044D01*
X86514213Y-103302079D01*
X86536157Y-103294227D01*
X86558766Y-103288563D01*
X86581821Y-103285144D01*
X86605100Y-103284000D01*
X87080100Y-103284000D01*
X87103379Y-103285144D01*
G37*
G36*
X91637279Y-102699144D02*
G01*
X91660334Y-102702563D01*
X91682943Y-102708227D01*
X91704887Y-102716079D01*
X91725957Y-102726044D01*
X91745948Y-102738026D01*
X91764668Y-102751910D01*
X91781938Y-102767562D01*
X91797590Y-102784832D01*
X91811474Y-102803552D01*
X91823456Y-102823543D01*
X91833421Y-102844613D01*
X91841273Y-102866557D01*
X91846937Y-102889166D01*
X91850356Y-102912221D01*
X91851500Y-102935500D01*
X91851500Y-103510500D01*
X91850356Y-103533779D01*
X91846937Y-103556834D01*
X91841273Y-103579443D01*
X91833421Y-103601387D01*
X91823456Y-103622457D01*
X91811474Y-103642448D01*
X91797590Y-103661168D01*
X91781938Y-103678438D01*
X91764668Y-103694090D01*
X91745948Y-103707974D01*
X91725957Y-103719956D01*
X91704887Y-103729921D01*
X91682943Y-103737773D01*
X91660334Y-103743437D01*
X91637279Y-103746856D01*
X91614000Y-103748000D01*
X91139000Y-103748000D01*
X91115721Y-103746856D01*
X91092666Y-103743437D01*
X91070057Y-103737773D01*
X91048113Y-103729921D01*
X91027043Y-103719956D01*
X91007052Y-103707974D01*
X90988332Y-103694090D01*
X90971062Y-103678438D01*
X90955410Y-103661168D01*
X90941526Y-103642448D01*
X90929544Y-103622457D01*
X90919579Y-103601387D01*
X90911727Y-103579443D01*
X90906063Y-103556834D01*
X90902644Y-103533779D01*
X90901500Y-103510500D01*
X90901500Y-102935500D01*
X90902644Y-102912221D01*
X90906063Y-102889166D01*
X90911727Y-102866557D01*
X90919579Y-102844613D01*
X90929544Y-102823543D01*
X90941526Y-102803552D01*
X90955410Y-102784832D01*
X90971062Y-102767562D01*
X90988332Y-102751910D01*
X91007052Y-102738026D01*
X91027043Y-102726044D01*
X91048113Y-102716079D01*
X91070057Y-102708227D01*
X91092666Y-102702563D01*
X91115721Y-102699144D01*
X91139000Y-102698000D01*
X91614000Y-102698000D01*
X91637279Y-102699144D01*
G37*
G36*
X91637279Y-100949144D02*
G01*
X91660334Y-100952563D01*
X91682943Y-100958227D01*
X91704887Y-100966079D01*
X91725957Y-100976044D01*
X91745948Y-100988026D01*
X91764668Y-101001910D01*
X91781938Y-101017562D01*
X91797590Y-101034832D01*
X91811474Y-101053552D01*
X91823456Y-101073543D01*
X91833421Y-101094613D01*
X91841273Y-101116557D01*
X91846937Y-101139166D01*
X91850356Y-101162221D01*
X91851500Y-101185500D01*
X91851500Y-101760500D01*
X91850356Y-101783779D01*
X91846937Y-101806834D01*
X91841273Y-101829443D01*
X91833421Y-101851387D01*
X91823456Y-101872457D01*
X91811474Y-101892448D01*
X91797590Y-101911168D01*
X91781938Y-101928438D01*
X91764668Y-101944090D01*
X91745948Y-101957974D01*
X91725957Y-101969956D01*
X91704887Y-101979921D01*
X91682943Y-101987773D01*
X91660334Y-101993437D01*
X91637279Y-101996856D01*
X91614000Y-101998000D01*
X91139000Y-101998000D01*
X91115721Y-101996856D01*
X91092666Y-101993437D01*
X91070057Y-101987773D01*
X91048113Y-101979921D01*
X91027043Y-101969956D01*
X91007052Y-101957974D01*
X90988332Y-101944090D01*
X90971062Y-101928438D01*
X90955410Y-101911168D01*
X90941526Y-101892448D01*
X90929544Y-101872457D01*
X90919579Y-101851387D01*
X90911727Y-101829443D01*
X90906063Y-101806834D01*
X90902644Y-101783779D01*
X90901500Y-101760500D01*
X90901500Y-101185500D01*
X90902644Y-101162221D01*
X90906063Y-101139166D01*
X90911727Y-101116557D01*
X90919579Y-101094613D01*
X90929544Y-101073543D01*
X90941526Y-101053552D01*
X90955410Y-101034832D01*
X90971062Y-101017562D01*
X90988332Y-101001910D01*
X91007052Y-100988026D01*
X91027043Y-100976044D01*
X91048113Y-100966079D01*
X91070057Y-100958227D01*
X91092666Y-100952563D01*
X91115721Y-100949144D01*
X91139000Y-100948000D01*
X91614000Y-100948000D01*
X91637279Y-100949144D01*
G37*
G36*
X98813279Y-121192144D02*
G01*
X98836334Y-121195563D01*
X98858943Y-121201227D01*
X98880887Y-121209079D01*
X98901957Y-121219044D01*
X98921948Y-121231026D01*
X98940668Y-121244910D01*
X98957938Y-121260562D01*
X98973590Y-121277832D01*
X98987474Y-121296552D01*
X98999456Y-121316543D01*
X99009421Y-121337613D01*
X99017273Y-121359557D01*
X99022937Y-121382166D01*
X99026356Y-121405221D01*
X99027500Y-121428500D01*
X99027500Y-121903500D01*
X99026356Y-121926779D01*
X99022937Y-121949834D01*
X99017273Y-121972443D01*
X99009421Y-121994387D01*
X98999456Y-122015457D01*
X98987474Y-122035448D01*
X98973590Y-122054168D01*
X98957938Y-122071438D01*
X98940668Y-122087090D01*
X98921948Y-122100974D01*
X98901957Y-122112956D01*
X98880887Y-122122921D01*
X98858943Y-122130773D01*
X98836334Y-122136437D01*
X98813279Y-122139856D01*
X98790000Y-122141000D01*
X98215000Y-122141000D01*
X98191721Y-122139856D01*
X98168666Y-122136437D01*
X98146057Y-122130773D01*
X98124113Y-122122921D01*
X98103043Y-122112956D01*
X98083052Y-122100974D01*
X98064332Y-122087090D01*
X98047062Y-122071438D01*
X98031410Y-122054168D01*
X98017526Y-122035448D01*
X98005544Y-122015457D01*
X97995579Y-121994387D01*
X97987727Y-121972443D01*
X97982063Y-121949834D01*
X97978644Y-121926779D01*
X97977500Y-121903500D01*
X97977500Y-121428500D01*
X97978644Y-121405221D01*
X97982063Y-121382166D01*
X97987727Y-121359557D01*
X97995579Y-121337613D01*
X98005544Y-121316543D01*
X98017526Y-121296552D01*
X98031410Y-121277832D01*
X98047062Y-121260562D01*
X98064332Y-121244910D01*
X98083052Y-121231026D01*
X98103043Y-121219044D01*
X98124113Y-121209079D01*
X98146057Y-121201227D01*
X98168666Y-121195563D01*
X98191721Y-121192144D01*
X98215000Y-121191000D01*
X98790000Y-121191000D01*
X98813279Y-121192144D01*
G37*
G36*
X100563279Y-121192144D02*
G01*
X100586334Y-121195563D01*
X100608943Y-121201227D01*
X100630887Y-121209079D01*
X100651957Y-121219044D01*
X100671948Y-121231026D01*
X100690668Y-121244910D01*
X100707938Y-121260562D01*
X100723590Y-121277832D01*
X100737474Y-121296552D01*
X100749456Y-121316543D01*
X100759421Y-121337613D01*
X100767273Y-121359557D01*
X100772937Y-121382166D01*
X100776356Y-121405221D01*
X100777500Y-121428500D01*
X100777500Y-121903500D01*
X100776356Y-121926779D01*
X100772937Y-121949834D01*
X100767273Y-121972443D01*
X100759421Y-121994387D01*
X100749456Y-122015457D01*
X100737474Y-122035448D01*
X100723590Y-122054168D01*
X100707938Y-122071438D01*
X100690668Y-122087090D01*
X100671948Y-122100974D01*
X100651957Y-122112956D01*
X100630887Y-122122921D01*
X100608943Y-122130773D01*
X100586334Y-122136437D01*
X100563279Y-122139856D01*
X100540000Y-122141000D01*
X99965000Y-122141000D01*
X99941721Y-122139856D01*
X99918666Y-122136437D01*
X99896057Y-122130773D01*
X99874113Y-122122921D01*
X99853043Y-122112956D01*
X99833052Y-122100974D01*
X99814332Y-122087090D01*
X99797062Y-122071438D01*
X99781410Y-122054168D01*
X99767526Y-122035448D01*
X99755544Y-122015457D01*
X99745579Y-121994387D01*
X99737727Y-121972443D01*
X99732063Y-121949834D01*
X99728644Y-121926779D01*
X99727500Y-121903500D01*
X99727500Y-121428500D01*
X99728644Y-121405221D01*
X99732063Y-121382166D01*
X99737727Y-121359557D01*
X99745579Y-121337613D01*
X99755544Y-121316543D01*
X99767526Y-121296552D01*
X99781410Y-121277832D01*
X99797062Y-121260562D01*
X99814332Y-121244910D01*
X99833052Y-121231026D01*
X99853043Y-121219044D01*
X99874113Y-121209079D01*
X99896057Y-121201227D01*
X99918666Y-121195563D01*
X99941721Y-121192144D01*
X99965000Y-121191000D01*
X100540000Y-121191000D01*
X100563279Y-121192144D01*
G37*
G36*
X110115779Y-108238144D02*
G01*
X110138834Y-108241563D01*
X110161443Y-108247227D01*
X110183387Y-108255079D01*
X110204457Y-108265044D01*
X110224448Y-108277026D01*
X110243168Y-108290910D01*
X110260438Y-108306562D01*
X110276090Y-108323832D01*
X110289974Y-108342552D01*
X110301956Y-108362543D01*
X110311921Y-108383613D01*
X110319773Y-108405557D01*
X110325437Y-108428166D01*
X110328856Y-108451221D01*
X110330000Y-108474500D01*
X110330000Y-108949500D01*
X110328856Y-108972779D01*
X110325437Y-108995834D01*
X110319773Y-109018443D01*
X110311921Y-109040387D01*
X110301956Y-109061457D01*
X110289974Y-109081448D01*
X110276090Y-109100168D01*
X110260438Y-109117438D01*
X110243168Y-109133090D01*
X110224448Y-109146974D01*
X110204457Y-109158956D01*
X110183387Y-109168921D01*
X110161443Y-109176773D01*
X110138834Y-109182437D01*
X110115779Y-109185856D01*
X110092500Y-109187000D01*
X109517500Y-109187000D01*
X109494221Y-109185856D01*
X109471166Y-109182437D01*
X109448557Y-109176773D01*
X109426613Y-109168921D01*
X109405543Y-109158956D01*
X109385552Y-109146974D01*
X109366832Y-109133090D01*
X109349562Y-109117438D01*
X109333910Y-109100168D01*
X109320026Y-109081448D01*
X109308044Y-109061457D01*
X109298079Y-109040387D01*
X109290227Y-109018443D01*
X109284563Y-108995834D01*
X109281144Y-108972779D01*
X109280000Y-108949500D01*
X109280000Y-108474500D01*
X109281144Y-108451221D01*
X109284563Y-108428166D01*
X109290227Y-108405557D01*
X109298079Y-108383613D01*
X109308044Y-108362543D01*
X109320026Y-108342552D01*
X109333910Y-108323832D01*
X109349562Y-108306562D01*
X109366832Y-108290910D01*
X109385552Y-108277026D01*
X109405543Y-108265044D01*
X109426613Y-108255079D01*
X109448557Y-108247227D01*
X109471166Y-108241563D01*
X109494221Y-108238144D01*
X109517500Y-108237000D01*
X110092500Y-108237000D01*
X110115779Y-108238144D01*
G37*
G36*
X111865779Y-108238144D02*
G01*
X111888834Y-108241563D01*
X111911443Y-108247227D01*
X111933387Y-108255079D01*
X111954457Y-108265044D01*
X111974448Y-108277026D01*
X111993168Y-108290910D01*
X112010438Y-108306562D01*
X112026090Y-108323832D01*
X112039974Y-108342552D01*
X112051956Y-108362543D01*
X112061921Y-108383613D01*
X112069773Y-108405557D01*
X112075437Y-108428166D01*
X112078856Y-108451221D01*
X112080000Y-108474500D01*
X112080000Y-108949500D01*
X112078856Y-108972779D01*
X112075437Y-108995834D01*
X112069773Y-109018443D01*
X112061921Y-109040387D01*
X112051956Y-109061457D01*
X112039974Y-109081448D01*
X112026090Y-109100168D01*
X112010438Y-109117438D01*
X111993168Y-109133090D01*
X111974448Y-109146974D01*
X111954457Y-109158956D01*
X111933387Y-109168921D01*
X111911443Y-109176773D01*
X111888834Y-109182437D01*
X111865779Y-109185856D01*
X111842500Y-109187000D01*
X111267500Y-109187000D01*
X111244221Y-109185856D01*
X111221166Y-109182437D01*
X111198557Y-109176773D01*
X111176613Y-109168921D01*
X111155543Y-109158956D01*
X111135552Y-109146974D01*
X111116832Y-109133090D01*
X111099562Y-109117438D01*
X111083910Y-109100168D01*
X111070026Y-109081448D01*
X111058044Y-109061457D01*
X111048079Y-109040387D01*
X111040227Y-109018443D01*
X111034563Y-108995834D01*
X111031144Y-108972779D01*
X111030000Y-108949500D01*
X111030000Y-108474500D01*
X111031144Y-108451221D01*
X111034563Y-108428166D01*
X111040227Y-108405557D01*
X111048079Y-108383613D01*
X111058044Y-108362543D01*
X111070026Y-108342552D01*
X111083910Y-108323832D01*
X111099562Y-108306562D01*
X111116832Y-108290910D01*
X111135552Y-108277026D01*
X111155543Y-108265044D01*
X111176613Y-108255079D01*
X111198557Y-108247227D01*
X111221166Y-108241563D01*
X111244221Y-108238144D01*
X111267500Y-108237000D01*
X111842500Y-108237000D01*
X111865779Y-108238144D01*
G37*
G36*
X110687779Y-119160144D02*
G01*
X110710834Y-119163563D01*
X110733443Y-119169227D01*
X110755387Y-119177079D01*
X110776457Y-119187044D01*
X110796448Y-119199026D01*
X110815168Y-119212910D01*
X110832438Y-119228562D01*
X110848090Y-119245832D01*
X110861974Y-119264552D01*
X110873956Y-119284543D01*
X110883921Y-119305613D01*
X110891773Y-119327557D01*
X110897437Y-119350166D01*
X110900856Y-119373221D01*
X110902000Y-119396500D01*
X110902000Y-119871500D01*
X110900856Y-119894779D01*
X110897437Y-119917834D01*
X110891773Y-119940443D01*
X110883921Y-119962387D01*
X110873956Y-119983457D01*
X110861974Y-120003448D01*
X110848090Y-120022168D01*
X110832438Y-120039438D01*
X110815168Y-120055090D01*
X110796448Y-120068974D01*
X110776457Y-120080956D01*
X110755387Y-120090921D01*
X110733443Y-120098773D01*
X110710834Y-120104437D01*
X110687779Y-120107856D01*
X110664500Y-120109000D01*
X110089500Y-120109000D01*
X110066221Y-120107856D01*
X110043166Y-120104437D01*
X110020557Y-120098773D01*
X109998613Y-120090921D01*
X109977543Y-120080956D01*
X109957552Y-120068974D01*
X109938832Y-120055090D01*
X109921562Y-120039438D01*
X109905910Y-120022168D01*
X109892026Y-120003448D01*
X109880044Y-119983457D01*
X109870079Y-119962387D01*
X109862227Y-119940443D01*
X109856563Y-119917834D01*
X109853144Y-119894779D01*
X109852000Y-119871500D01*
X109852000Y-119396500D01*
X109853144Y-119373221D01*
X109856563Y-119350166D01*
X109862227Y-119327557D01*
X109870079Y-119305613D01*
X109880044Y-119284543D01*
X109892026Y-119264552D01*
X109905910Y-119245832D01*
X109921562Y-119228562D01*
X109938832Y-119212910D01*
X109957552Y-119199026D01*
X109977543Y-119187044D01*
X109998613Y-119177079D01*
X110020557Y-119169227D01*
X110043166Y-119163563D01*
X110066221Y-119160144D01*
X110089500Y-119159000D01*
X110664500Y-119159000D01*
X110687779Y-119160144D01*
G37*
G36*
X112437779Y-119160144D02*
G01*
X112460834Y-119163563D01*
X112483443Y-119169227D01*
X112505387Y-119177079D01*
X112526457Y-119187044D01*
X112546448Y-119199026D01*
X112565168Y-119212910D01*
X112582438Y-119228562D01*
X112598090Y-119245832D01*
X112611974Y-119264552D01*
X112623956Y-119284543D01*
X112633921Y-119305613D01*
X112641773Y-119327557D01*
X112647437Y-119350166D01*
X112650856Y-119373221D01*
X112652000Y-119396500D01*
X112652000Y-119871500D01*
X112650856Y-119894779D01*
X112647437Y-119917834D01*
X112641773Y-119940443D01*
X112633921Y-119962387D01*
X112623956Y-119983457D01*
X112611974Y-120003448D01*
X112598090Y-120022168D01*
X112582438Y-120039438D01*
X112565168Y-120055090D01*
X112546448Y-120068974D01*
X112526457Y-120080956D01*
X112505387Y-120090921D01*
X112483443Y-120098773D01*
X112460834Y-120104437D01*
X112437779Y-120107856D01*
X112414500Y-120109000D01*
X111839500Y-120109000D01*
X111816221Y-120107856D01*
X111793166Y-120104437D01*
X111770557Y-120098773D01*
X111748613Y-120090921D01*
X111727543Y-120080956D01*
X111707552Y-120068974D01*
X111688832Y-120055090D01*
X111671562Y-120039438D01*
X111655910Y-120022168D01*
X111642026Y-120003448D01*
X111630044Y-119983457D01*
X111620079Y-119962387D01*
X111612227Y-119940443D01*
X111606563Y-119917834D01*
X111603144Y-119894779D01*
X111602000Y-119871500D01*
X111602000Y-119396500D01*
X111603144Y-119373221D01*
X111606563Y-119350166D01*
X111612227Y-119327557D01*
X111620079Y-119305613D01*
X111630044Y-119284543D01*
X111642026Y-119264552D01*
X111655910Y-119245832D01*
X111671562Y-119228562D01*
X111688832Y-119212910D01*
X111707552Y-119199026D01*
X111727543Y-119187044D01*
X111748613Y-119177079D01*
X111770557Y-119169227D01*
X111793166Y-119163563D01*
X111816221Y-119160144D01*
X111839500Y-119159000D01*
X112414500Y-119159000D01*
X112437779Y-119160144D01*
G37*
G36*
X108908779Y-119223144D02*
G01*
X108931834Y-119226563D01*
X108954443Y-119232227D01*
X108976387Y-119240079D01*
X108997457Y-119250044D01*
X109017448Y-119262026D01*
X109036168Y-119275910D01*
X109053438Y-119291562D01*
X109069090Y-119308832D01*
X109082974Y-119327552D01*
X109094956Y-119347543D01*
X109104921Y-119368613D01*
X109112773Y-119390557D01*
X109118437Y-119413166D01*
X109121856Y-119436221D01*
X109123000Y-119459500D01*
X109123000Y-120034500D01*
X109121856Y-120057779D01*
X109118437Y-120080834D01*
X109112773Y-120103443D01*
X109104921Y-120125387D01*
X109094956Y-120146457D01*
X109082974Y-120166448D01*
X109069090Y-120185168D01*
X109053438Y-120202438D01*
X109036168Y-120218090D01*
X109017448Y-120231974D01*
X108997457Y-120243956D01*
X108976387Y-120253921D01*
X108954443Y-120261773D01*
X108931834Y-120267437D01*
X108908779Y-120270856D01*
X108885500Y-120272000D01*
X108410500Y-120272000D01*
X108387221Y-120270856D01*
X108364166Y-120267437D01*
X108341557Y-120261773D01*
X108319613Y-120253921D01*
X108298543Y-120243956D01*
X108278552Y-120231974D01*
X108259832Y-120218090D01*
X108242562Y-120202438D01*
X108226910Y-120185168D01*
X108213026Y-120166448D01*
X108201044Y-120146457D01*
X108191079Y-120125387D01*
X108183227Y-120103443D01*
X108177563Y-120080834D01*
X108174144Y-120057779D01*
X108173000Y-120034500D01*
X108173000Y-119459500D01*
X108174144Y-119436221D01*
X108177563Y-119413166D01*
X108183227Y-119390557D01*
X108191079Y-119368613D01*
X108201044Y-119347543D01*
X108213026Y-119327552D01*
X108226910Y-119308832D01*
X108242562Y-119291562D01*
X108259832Y-119275910D01*
X108278552Y-119262026D01*
X108298543Y-119250044D01*
X108319613Y-119240079D01*
X108341557Y-119232227D01*
X108364166Y-119226563D01*
X108387221Y-119223144D01*
X108410500Y-119222000D01*
X108885500Y-119222000D01*
X108908779Y-119223144D01*
G37*
G36*
X108908779Y-117473144D02*
G01*
X108931834Y-117476563D01*
X108954443Y-117482227D01*
X108976387Y-117490079D01*
X108997457Y-117500044D01*
X109017448Y-117512026D01*
X109036168Y-117525910D01*
X109053438Y-117541562D01*
X109069090Y-117558832D01*
X109082974Y-117577552D01*
X109094956Y-117597543D01*
X109104921Y-117618613D01*
X109112773Y-117640557D01*
X109118437Y-117663166D01*
X109121856Y-117686221D01*
X109123000Y-117709500D01*
X109123000Y-118284500D01*
X109121856Y-118307779D01*
X109118437Y-118330834D01*
X109112773Y-118353443D01*
X109104921Y-118375387D01*
X109094956Y-118396457D01*
X109082974Y-118416448D01*
X109069090Y-118435168D01*
X109053438Y-118452438D01*
X109036168Y-118468090D01*
X109017448Y-118481974D01*
X108997457Y-118493956D01*
X108976387Y-118503921D01*
X108954443Y-118511773D01*
X108931834Y-118517437D01*
X108908779Y-118520856D01*
X108885500Y-118522000D01*
X108410500Y-118522000D01*
X108387221Y-118520856D01*
X108364166Y-118517437D01*
X108341557Y-118511773D01*
X108319613Y-118503921D01*
X108298543Y-118493956D01*
X108278552Y-118481974D01*
X108259832Y-118468090D01*
X108242562Y-118452438D01*
X108226910Y-118435168D01*
X108213026Y-118416448D01*
X108201044Y-118396457D01*
X108191079Y-118375387D01*
X108183227Y-118353443D01*
X108177563Y-118330834D01*
X108174144Y-118307779D01*
X108173000Y-118284500D01*
X108173000Y-117709500D01*
X108174144Y-117686221D01*
X108177563Y-117663166D01*
X108183227Y-117640557D01*
X108191079Y-117618613D01*
X108201044Y-117597543D01*
X108213026Y-117577552D01*
X108226910Y-117558832D01*
X108242562Y-117541562D01*
X108259832Y-117525910D01*
X108278552Y-117512026D01*
X108298543Y-117500044D01*
X108319613Y-117490079D01*
X108341557Y-117482227D01*
X108364166Y-117476563D01*
X108387221Y-117473144D01*
X108410500Y-117472000D01*
X108885500Y-117472000D01*
X108908779Y-117473144D01*
G37*
G36*
X175937779Y-114588144D02*
G01*
X175960834Y-114591563D01*
X175983443Y-114597227D01*
X176005387Y-114605079D01*
X176026457Y-114615044D01*
X176046448Y-114627026D01*
X176065168Y-114640910D01*
X176082438Y-114656562D01*
X176098090Y-114673832D01*
X176111974Y-114692552D01*
X176123956Y-114712543D01*
X176133921Y-114733613D01*
X176141773Y-114755557D01*
X176147437Y-114778166D01*
X176150856Y-114801221D01*
X176152000Y-114824500D01*
X176152000Y-115299500D01*
X176150856Y-115322779D01*
X176147437Y-115345834D01*
X176141773Y-115368443D01*
X176133921Y-115390387D01*
X176123956Y-115411457D01*
X176111974Y-115431448D01*
X176098090Y-115450168D01*
X176082438Y-115467438D01*
X176065168Y-115483090D01*
X176046448Y-115496974D01*
X176026457Y-115508956D01*
X176005387Y-115518921D01*
X175983443Y-115526773D01*
X175960834Y-115532437D01*
X175937779Y-115535856D01*
X175914500Y-115537000D01*
X175339500Y-115537000D01*
X175316221Y-115535856D01*
X175293166Y-115532437D01*
X175270557Y-115526773D01*
X175248613Y-115518921D01*
X175227543Y-115508956D01*
X175207552Y-115496974D01*
X175188832Y-115483090D01*
X175171562Y-115467438D01*
X175155910Y-115450168D01*
X175142026Y-115431448D01*
X175130044Y-115411457D01*
X175120079Y-115390387D01*
X175112227Y-115368443D01*
X175106563Y-115345834D01*
X175103144Y-115322779D01*
X175102000Y-115299500D01*
X175102000Y-114824500D01*
X175103144Y-114801221D01*
X175106563Y-114778166D01*
X175112227Y-114755557D01*
X175120079Y-114733613D01*
X175130044Y-114712543D01*
X175142026Y-114692552D01*
X175155910Y-114673832D01*
X175171562Y-114656562D01*
X175188832Y-114640910D01*
X175207552Y-114627026D01*
X175227543Y-114615044D01*
X175248613Y-114605079D01*
X175270557Y-114597227D01*
X175293166Y-114591563D01*
X175316221Y-114588144D01*
X175339500Y-114587000D01*
X175914500Y-114587000D01*
X175937779Y-114588144D01*
G37*
G36*
X174187779Y-114588144D02*
G01*
X174210834Y-114591563D01*
X174233443Y-114597227D01*
X174255387Y-114605079D01*
X174276457Y-114615044D01*
X174296448Y-114627026D01*
X174315168Y-114640910D01*
X174332438Y-114656562D01*
X174348090Y-114673832D01*
X174361974Y-114692552D01*
X174373956Y-114712543D01*
X174383921Y-114733613D01*
X174391773Y-114755557D01*
X174397437Y-114778166D01*
X174400856Y-114801221D01*
X174402000Y-114824500D01*
X174402000Y-115299500D01*
X174400856Y-115322779D01*
X174397437Y-115345834D01*
X174391773Y-115368443D01*
X174383921Y-115390387D01*
X174373956Y-115411457D01*
X174361974Y-115431448D01*
X174348090Y-115450168D01*
X174332438Y-115467438D01*
X174315168Y-115483090D01*
X174296448Y-115496974D01*
X174276457Y-115508956D01*
X174255387Y-115518921D01*
X174233443Y-115526773D01*
X174210834Y-115532437D01*
X174187779Y-115535856D01*
X174164500Y-115537000D01*
X173589500Y-115537000D01*
X173566221Y-115535856D01*
X173543166Y-115532437D01*
X173520557Y-115526773D01*
X173498613Y-115518921D01*
X173477543Y-115508956D01*
X173457552Y-115496974D01*
X173438832Y-115483090D01*
X173421562Y-115467438D01*
X173405910Y-115450168D01*
X173392026Y-115431448D01*
X173380044Y-115411457D01*
X173370079Y-115390387D01*
X173362227Y-115368443D01*
X173356563Y-115345834D01*
X173353144Y-115322779D01*
X173352000Y-115299500D01*
X173352000Y-114824500D01*
X173353144Y-114801221D01*
X173356563Y-114778166D01*
X173362227Y-114755557D01*
X173370079Y-114733613D01*
X173380044Y-114712543D01*
X173392026Y-114692552D01*
X173405910Y-114673832D01*
X173421562Y-114656562D01*
X173438832Y-114640910D01*
X173457552Y-114627026D01*
X173477543Y-114615044D01*
X173498613Y-114605079D01*
X173520557Y-114597227D01*
X173543166Y-114591563D01*
X173566221Y-114588144D01*
X173589500Y-114587000D01*
X174164500Y-114587000D01*
X174187779Y-114588144D01*
G37*
G36*
X87813779Y-98776644D02*
G01*
X87836834Y-98780063D01*
X87859443Y-98785727D01*
X87881387Y-98793579D01*
X87902457Y-98803544D01*
X87922448Y-98815526D01*
X87941168Y-98829410D01*
X87958438Y-98845062D01*
X87974090Y-98862332D01*
X87987974Y-98881052D01*
X87999956Y-98901043D01*
X88009921Y-98922113D01*
X88017773Y-98944057D01*
X88023437Y-98966666D01*
X88026856Y-98989721D01*
X88028000Y-99013000D01*
X88028000Y-99488000D01*
X88026856Y-99511279D01*
X88023437Y-99534334D01*
X88017773Y-99556943D01*
X88009921Y-99578887D01*
X87999956Y-99599957D01*
X87987974Y-99619948D01*
X87974090Y-99638668D01*
X87958438Y-99655938D01*
X87941168Y-99671590D01*
X87922448Y-99685474D01*
X87902457Y-99697456D01*
X87881387Y-99707421D01*
X87859443Y-99715273D01*
X87836834Y-99720937D01*
X87813779Y-99724356D01*
X87790500Y-99725500D01*
X87215500Y-99725500D01*
X87192221Y-99724356D01*
X87169166Y-99720937D01*
X87146557Y-99715273D01*
X87124613Y-99707421D01*
X87103543Y-99697456D01*
X87083552Y-99685474D01*
X87064832Y-99671590D01*
X87047562Y-99655938D01*
X87031910Y-99638668D01*
X87018026Y-99619948D01*
X87006044Y-99599957D01*
X86996079Y-99578887D01*
X86988227Y-99556943D01*
X86982563Y-99534334D01*
X86979144Y-99511279D01*
X86978000Y-99488000D01*
X86978000Y-99013000D01*
X86979144Y-98989721D01*
X86982563Y-98966666D01*
X86988227Y-98944057D01*
X86996079Y-98922113D01*
X87006044Y-98901043D01*
X87018026Y-98881052D01*
X87031910Y-98862332D01*
X87047562Y-98845062D01*
X87064832Y-98829410D01*
X87083552Y-98815526D01*
X87103543Y-98803544D01*
X87124613Y-98793579D01*
X87146557Y-98785727D01*
X87169166Y-98780063D01*
X87192221Y-98776644D01*
X87215500Y-98775500D01*
X87790500Y-98775500D01*
X87813779Y-98776644D01*
G37*
G36*
X86063779Y-98776644D02*
G01*
X86086834Y-98780063D01*
X86109443Y-98785727D01*
X86131387Y-98793579D01*
X86152457Y-98803544D01*
X86172448Y-98815526D01*
X86191168Y-98829410D01*
X86208438Y-98845062D01*
X86224090Y-98862332D01*
X86237974Y-98881052D01*
X86249956Y-98901043D01*
X86259921Y-98922113D01*
X86267773Y-98944057D01*
X86273437Y-98966666D01*
X86276856Y-98989721D01*
X86278000Y-99013000D01*
X86278000Y-99488000D01*
X86276856Y-99511279D01*
X86273437Y-99534334D01*
X86267773Y-99556943D01*
X86259921Y-99578887D01*
X86249956Y-99599957D01*
X86237974Y-99619948D01*
X86224090Y-99638668D01*
X86208438Y-99655938D01*
X86191168Y-99671590D01*
X86172448Y-99685474D01*
X86152457Y-99697456D01*
X86131387Y-99707421D01*
X86109443Y-99715273D01*
X86086834Y-99720937D01*
X86063779Y-99724356D01*
X86040500Y-99725500D01*
X85465500Y-99725500D01*
X85442221Y-99724356D01*
X85419166Y-99720937D01*
X85396557Y-99715273D01*
X85374613Y-99707421D01*
X85353543Y-99697456D01*
X85333552Y-99685474D01*
X85314832Y-99671590D01*
X85297562Y-99655938D01*
X85281910Y-99638668D01*
X85268026Y-99619948D01*
X85256044Y-99599957D01*
X85246079Y-99578887D01*
X85238227Y-99556943D01*
X85232563Y-99534334D01*
X85229144Y-99511279D01*
X85228000Y-99488000D01*
X85228000Y-99013000D01*
X85229144Y-98989721D01*
X85232563Y-98966666D01*
X85238227Y-98944057D01*
X85246079Y-98922113D01*
X85256044Y-98901043D01*
X85268026Y-98881052D01*
X85281910Y-98862332D01*
X85297562Y-98845062D01*
X85314832Y-98829410D01*
X85333552Y-98815526D01*
X85353543Y-98803544D01*
X85374613Y-98793579D01*
X85396557Y-98785727D01*
X85419166Y-98780063D01*
X85442221Y-98776644D01*
X85465500Y-98775500D01*
X86040500Y-98775500D01*
X86063779Y-98776644D01*
G37*
G36*
X84969779Y-93773644D02*
G01*
X84992834Y-93777063D01*
X85015443Y-93782727D01*
X85037387Y-93790579D01*
X85058457Y-93800544D01*
X85078448Y-93812526D01*
X85097168Y-93826410D01*
X85114438Y-93842062D01*
X85130090Y-93859332D01*
X85143974Y-93878052D01*
X85155956Y-93898043D01*
X85165921Y-93919113D01*
X85173773Y-93941057D01*
X85179437Y-93963666D01*
X85182856Y-93986721D01*
X85184000Y-94010000D01*
X85184000Y-94585000D01*
X85182856Y-94608279D01*
X85179437Y-94631334D01*
X85173773Y-94653943D01*
X85165921Y-94675887D01*
X85155956Y-94696957D01*
X85143974Y-94716948D01*
X85130090Y-94735668D01*
X85114438Y-94752938D01*
X85097168Y-94768590D01*
X85078448Y-94782474D01*
X85058457Y-94794456D01*
X85037387Y-94804421D01*
X85015443Y-94812273D01*
X84992834Y-94817937D01*
X84969779Y-94821356D01*
X84946500Y-94822500D01*
X84471500Y-94822500D01*
X84448221Y-94821356D01*
X84425166Y-94817937D01*
X84402557Y-94812273D01*
X84380613Y-94804421D01*
X84359543Y-94794456D01*
X84339552Y-94782474D01*
X84320832Y-94768590D01*
X84303562Y-94752938D01*
X84287910Y-94735668D01*
X84274026Y-94716948D01*
X84262044Y-94696957D01*
X84252079Y-94675887D01*
X84244227Y-94653943D01*
X84238563Y-94631334D01*
X84235144Y-94608279D01*
X84234000Y-94585000D01*
X84234000Y-94010000D01*
X84235144Y-93986721D01*
X84238563Y-93963666D01*
X84244227Y-93941057D01*
X84252079Y-93919113D01*
X84262044Y-93898043D01*
X84274026Y-93878052D01*
X84287910Y-93859332D01*
X84303562Y-93842062D01*
X84320832Y-93826410D01*
X84339552Y-93812526D01*
X84359543Y-93800544D01*
X84380613Y-93790579D01*
X84402557Y-93782727D01*
X84425166Y-93777063D01*
X84448221Y-93773644D01*
X84471500Y-93772500D01*
X84946500Y-93772500D01*
X84969779Y-93773644D01*
G37*
G36*
X84969779Y-92023644D02*
G01*
X84992834Y-92027063D01*
X85015443Y-92032727D01*
X85037387Y-92040579D01*
X85058457Y-92050544D01*
X85078448Y-92062526D01*
X85097168Y-92076410D01*
X85114438Y-92092062D01*
X85130090Y-92109332D01*
X85143974Y-92128052D01*
X85155956Y-92148043D01*
X85165921Y-92169113D01*
X85173773Y-92191057D01*
X85179437Y-92213666D01*
X85182856Y-92236721D01*
X85184000Y-92260000D01*
X85184000Y-92835000D01*
X85182856Y-92858279D01*
X85179437Y-92881334D01*
X85173773Y-92903943D01*
X85165921Y-92925887D01*
X85155956Y-92946957D01*
X85143974Y-92966948D01*
X85130090Y-92985668D01*
X85114438Y-93002938D01*
X85097168Y-93018590D01*
X85078448Y-93032474D01*
X85058457Y-93044456D01*
X85037387Y-93054421D01*
X85015443Y-93062273D01*
X84992834Y-93067937D01*
X84969779Y-93071356D01*
X84946500Y-93072500D01*
X84471500Y-93072500D01*
X84448221Y-93071356D01*
X84425166Y-93067937D01*
X84402557Y-93062273D01*
X84380613Y-93054421D01*
X84359543Y-93044456D01*
X84339552Y-93032474D01*
X84320832Y-93018590D01*
X84303562Y-93002938D01*
X84287910Y-92985668D01*
X84274026Y-92966948D01*
X84262044Y-92946957D01*
X84252079Y-92925887D01*
X84244227Y-92903943D01*
X84238563Y-92881334D01*
X84235144Y-92858279D01*
X84234000Y-92835000D01*
X84234000Y-92260000D01*
X84235144Y-92236721D01*
X84238563Y-92213666D01*
X84244227Y-92191057D01*
X84252079Y-92169113D01*
X84262044Y-92148043D01*
X84274026Y-92128052D01*
X84287910Y-92109332D01*
X84303562Y-92092062D01*
X84320832Y-92076410D01*
X84339552Y-92062526D01*
X84359543Y-92050544D01*
X84380613Y-92040579D01*
X84402557Y-92032727D01*
X84425166Y-92027063D01*
X84448221Y-92023644D01*
X84471500Y-92022500D01*
X84946500Y-92022500D01*
X84969779Y-92023644D01*
G37*
G36*
X83255279Y-92023644D02*
G01*
X83278334Y-92027063D01*
X83300943Y-92032727D01*
X83322887Y-92040579D01*
X83343957Y-92050544D01*
X83363948Y-92062526D01*
X83382668Y-92076410D01*
X83399938Y-92092062D01*
X83415590Y-92109332D01*
X83429474Y-92128052D01*
X83441456Y-92148043D01*
X83451421Y-92169113D01*
X83459273Y-92191057D01*
X83464937Y-92213666D01*
X83468356Y-92236721D01*
X83469500Y-92260000D01*
X83469500Y-92835000D01*
X83468356Y-92858279D01*
X83464937Y-92881334D01*
X83459273Y-92903943D01*
X83451421Y-92925887D01*
X83441456Y-92946957D01*
X83429474Y-92966948D01*
X83415590Y-92985668D01*
X83399938Y-93002938D01*
X83382668Y-93018590D01*
X83363948Y-93032474D01*
X83343957Y-93044456D01*
X83322887Y-93054421D01*
X83300943Y-93062273D01*
X83278334Y-93067937D01*
X83255279Y-93071356D01*
X83232000Y-93072500D01*
X82757000Y-93072500D01*
X82733721Y-93071356D01*
X82710666Y-93067937D01*
X82688057Y-93062273D01*
X82666113Y-93054421D01*
X82645043Y-93044456D01*
X82625052Y-93032474D01*
X82606332Y-93018590D01*
X82589062Y-93002938D01*
X82573410Y-92985668D01*
X82559526Y-92966948D01*
X82547544Y-92946957D01*
X82537579Y-92925887D01*
X82529727Y-92903943D01*
X82524063Y-92881334D01*
X82520644Y-92858279D01*
X82519500Y-92835000D01*
X82519500Y-92260000D01*
X82520644Y-92236721D01*
X82524063Y-92213666D01*
X82529727Y-92191057D01*
X82537579Y-92169113D01*
X82547544Y-92148043D01*
X82559526Y-92128052D01*
X82573410Y-92109332D01*
X82589062Y-92092062D01*
X82606332Y-92076410D01*
X82625052Y-92062526D01*
X82645043Y-92050544D01*
X82666113Y-92040579D01*
X82688057Y-92032727D01*
X82710666Y-92027063D01*
X82733721Y-92023644D01*
X82757000Y-92022500D01*
X83232000Y-92022500D01*
X83255279Y-92023644D01*
G37*
G36*
X83255279Y-93773644D02*
G01*
X83278334Y-93777063D01*
X83300943Y-93782727D01*
X83322887Y-93790579D01*
X83343957Y-93800544D01*
X83363948Y-93812526D01*
X83382668Y-93826410D01*
X83399938Y-93842062D01*
X83415590Y-93859332D01*
X83429474Y-93878052D01*
X83441456Y-93898043D01*
X83451421Y-93919113D01*
X83459273Y-93941057D01*
X83464937Y-93963666D01*
X83468356Y-93986721D01*
X83469500Y-94010000D01*
X83469500Y-94585000D01*
X83468356Y-94608279D01*
X83464937Y-94631334D01*
X83459273Y-94653943D01*
X83451421Y-94675887D01*
X83441456Y-94696957D01*
X83429474Y-94716948D01*
X83415590Y-94735668D01*
X83399938Y-94752938D01*
X83382668Y-94768590D01*
X83363948Y-94782474D01*
X83343957Y-94794456D01*
X83322887Y-94804421D01*
X83300943Y-94812273D01*
X83278334Y-94817937D01*
X83255279Y-94821356D01*
X83232000Y-94822500D01*
X82757000Y-94822500D01*
X82733721Y-94821356D01*
X82710666Y-94817937D01*
X82688057Y-94812273D01*
X82666113Y-94804421D01*
X82645043Y-94794456D01*
X82625052Y-94782474D01*
X82606332Y-94768590D01*
X82589062Y-94752938D01*
X82573410Y-94735668D01*
X82559526Y-94716948D01*
X82547544Y-94696957D01*
X82537579Y-94675887D01*
X82529727Y-94653943D01*
X82524063Y-94631334D01*
X82520644Y-94608279D01*
X82519500Y-94585000D01*
X82519500Y-94010000D01*
X82520644Y-93986721D01*
X82524063Y-93963666D01*
X82529727Y-93941057D01*
X82537579Y-93919113D01*
X82547544Y-93898043D01*
X82559526Y-93878052D01*
X82573410Y-93859332D01*
X82589062Y-93842062D01*
X82606332Y-93826410D01*
X82625052Y-93812526D01*
X82645043Y-93800544D01*
X82666113Y-93790579D01*
X82688057Y-93782727D01*
X82710666Y-93777063D01*
X82733721Y-93773644D01*
X82757000Y-93772500D01*
X83232000Y-93772500D01*
X83255279Y-93773644D01*
G37*
G36*
X99434279Y-88108644D02*
G01*
X99457334Y-88112063D01*
X99479943Y-88117727D01*
X99501887Y-88125579D01*
X99522957Y-88135544D01*
X99542948Y-88147526D01*
X99561668Y-88161410D01*
X99578938Y-88177062D01*
X99594590Y-88194332D01*
X99608474Y-88213052D01*
X99620456Y-88233043D01*
X99630421Y-88254113D01*
X99638273Y-88276057D01*
X99643937Y-88298666D01*
X99647356Y-88321721D01*
X99648500Y-88345000D01*
X99648500Y-88820000D01*
X99647356Y-88843279D01*
X99643937Y-88866334D01*
X99638273Y-88888943D01*
X99630421Y-88910887D01*
X99620456Y-88931957D01*
X99608474Y-88951948D01*
X99594590Y-88970668D01*
X99578938Y-88987938D01*
X99561668Y-89003590D01*
X99542948Y-89017474D01*
X99522957Y-89029456D01*
X99501887Y-89039421D01*
X99479943Y-89047273D01*
X99457334Y-89052937D01*
X99434279Y-89056356D01*
X99411000Y-89057500D01*
X98836000Y-89057500D01*
X98812721Y-89056356D01*
X98789666Y-89052937D01*
X98767057Y-89047273D01*
X98745113Y-89039421D01*
X98724043Y-89029456D01*
X98704052Y-89017474D01*
X98685332Y-89003590D01*
X98668062Y-88987938D01*
X98652410Y-88970668D01*
X98638526Y-88951948D01*
X98626544Y-88931957D01*
X98616579Y-88910887D01*
X98608727Y-88888943D01*
X98603063Y-88866334D01*
X98599644Y-88843279D01*
X98598500Y-88820000D01*
X98598500Y-88345000D01*
X98599644Y-88321721D01*
X98603063Y-88298666D01*
X98608727Y-88276057D01*
X98616579Y-88254113D01*
X98626544Y-88233043D01*
X98638526Y-88213052D01*
X98652410Y-88194332D01*
X98668062Y-88177062D01*
X98685332Y-88161410D01*
X98704052Y-88147526D01*
X98724043Y-88135544D01*
X98745113Y-88125579D01*
X98767057Y-88117727D01*
X98789666Y-88112063D01*
X98812721Y-88108644D01*
X98836000Y-88107500D01*
X99411000Y-88107500D01*
X99434279Y-88108644D01*
G37*
G36*
X97684279Y-88108644D02*
G01*
X97707334Y-88112063D01*
X97729943Y-88117727D01*
X97751887Y-88125579D01*
X97772957Y-88135544D01*
X97792948Y-88147526D01*
X97811668Y-88161410D01*
X97828938Y-88177062D01*
X97844590Y-88194332D01*
X97858474Y-88213052D01*
X97870456Y-88233043D01*
X97880421Y-88254113D01*
X97888273Y-88276057D01*
X97893937Y-88298666D01*
X97897356Y-88321721D01*
X97898500Y-88345000D01*
X97898500Y-88820000D01*
X97897356Y-88843279D01*
X97893937Y-88866334D01*
X97888273Y-88888943D01*
X97880421Y-88910887D01*
X97870456Y-88931957D01*
X97858474Y-88951948D01*
X97844590Y-88970668D01*
X97828938Y-88987938D01*
X97811668Y-89003590D01*
X97792948Y-89017474D01*
X97772957Y-89029456D01*
X97751887Y-89039421D01*
X97729943Y-89047273D01*
X97707334Y-89052937D01*
X97684279Y-89056356D01*
X97661000Y-89057500D01*
X97086000Y-89057500D01*
X97062721Y-89056356D01*
X97039666Y-89052937D01*
X97017057Y-89047273D01*
X96995113Y-89039421D01*
X96974043Y-89029456D01*
X96954052Y-89017474D01*
X96935332Y-89003590D01*
X96918062Y-88987938D01*
X96902410Y-88970668D01*
X96888526Y-88951948D01*
X96876544Y-88931957D01*
X96866579Y-88910887D01*
X96858727Y-88888943D01*
X96853063Y-88866334D01*
X96849644Y-88843279D01*
X96848500Y-88820000D01*
X96848500Y-88345000D01*
X96849644Y-88321721D01*
X96853063Y-88298666D01*
X96858727Y-88276057D01*
X96866579Y-88254113D01*
X96876544Y-88233043D01*
X96888526Y-88213052D01*
X96902410Y-88194332D01*
X96918062Y-88177062D01*
X96935332Y-88161410D01*
X96954052Y-88147526D01*
X96974043Y-88135544D01*
X96995113Y-88125579D01*
X97017057Y-88117727D01*
X97039666Y-88112063D01*
X97062721Y-88108644D01*
X97086000Y-88107500D01*
X97661000Y-88107500D01*
X97684279Y-88108644D01*
G37*
G36*
X99434279Y-86521144D02*
G01*
X99457334Y-86524563D01*
X99479943Y-86530227D01*
X99501887Y-86538079D01*
X99522957Y-86548044D01*
X99542948Y-86560026D01*
X99561668Y-86573910D01*
X99578938Y-86589562D01*
X99594590Y-86606832D01*
X99608474Y-86625552D01*
X99620456Y-86645543D01*
X99630421Y-86666613D01*
X99638273Y-86688557D01*
X99643937Y-86711166D01*
X99647356Y-86734221D01*
X99648500Y-86757500D01*
X99648500Y-87232500D01*
X99647356Y-87255779D01*
X99643937Y-87278834D01*
X99638273Y-87301443D01*
X99630421Y-87323387D01*
X99620456Y-87344457D01*
X99608474Y-87364448D01*
X99594590Y-87383168D01*
X99578938Y-87400438D01*
X99561668Y-87416090D01*
X99542948Y-87429974D01*
X99522957Y-87441956D01*
X99501887Y-87451921D01*
X99479943Y-87459773D01*
X99457334Y-87465437D01*
X99434279Y-87468856D01*
X99411000Y-87470000D01*
X98836000Y-87470000D01*
X98812721Y-87468856D01*
X98789666Y-87465437D01*
X98767057Y-87459773D01*
X98745113Y-87451921D01*
X98724043Y-87441956D01*
X98704052Y-87429974D01*
X98685332Y-87416090D01*
X98668062Y-87400438D01*
X98652410Y-87383168D01*
X98638526Y-87364448D01*
X98626544Y-87344457D01*
X98616579Y-87323387D01*
X98608727Y-87301443D01*
X98603063Y-87278834D01*
X98599644Y-87255779D01*
X98598500Y-87232500D01*
X98598500Y-86757500D01*
X98599644Y-86734221D01*
X98603063Y-86711166D01*
X98608727Y-86688557D01*
X98616579Y-86666613D01*
X98626544Y-86645543D01*
X98638526Y-86625552D01*
X98652410Y-86606832D01*
X98668062Y-86589562D01*
X98685332Y-86573910D01*
X98704052Y-86560026D01*
X98724043Y-86548044D01*
X98745113Y-86538079D01*
X98767057Y-86530227D01*
X98789666Y-86524563D01*
X98812721Y-86521144D01*
X98836000Y-86520000D01*
X99411000Y-86520000D01*
X99434279Y-86521144D01*
G37*
G36*
X97684279Y-86521144D02*
G01*
X97707334Y-86524563D01*
X97729943Y-86530227D01*
X97751887Y-86538079D01*
X97772957Y-86548044D01*
X97792948Y-86560026D01*
X97811668Y-86573910D01*
X97828938Y-86589562D01*
X97844590Y-86606832D01*
X97858474Y-86625552D01*
X97870456Y-86645543D01*
X97880421Y-86666613D01*
X97888273Y-86688557D01*
X97893937Y-86711166D01*
X97897356Y-86734221D01*
X97898500Y-86757500D01*
X97898500Y-87232500D01*
X97897356Y-87255779D01*
X97893937Y-87278834D01*
X97888273Y-87301443D01*
X97880421Y-87323387D01*
X97870456Y-87344457D01*
X97858474Y-87364448D01*
X97844590Y-87383168D01*
X97828938Y-87400438D01*
X97811668Y-87416090D01*
X97792948Y-87429974D01*
X97772957Y-87441956D01*
X97751887Y-87451921D01*
X97729943Y-87459773D01*
X97707334Y-87465437D01*
X97684279Y-87468856D01*
X97661000Y-87470000D01*
X97086000Y-87470000D01*
X97062721Y-87468856D01*
X97039666Y-87465437D01*
X97017057Y-87459773D01*
X96995113Y-87451921D01*
X96974043Y-87441956D01*
X96954052Y-87429974D01*
X96935332Y-87416090D01*
X96918062Y-87400438D01*
X96902410Y-87383168D01*
X96888526Y-87364448D01*
X96876544Y-87344457D01*
X96866579Y-87323387D01*
X96858727Y-87301443D01*
X96853063Y-87278834D01*
X96849644Y-87255779D01*
X96848500Y-87232500D01*
X96848500Y-86757500D01*
X96849644Y-86734221D01*
X96853063Y-86711166D01*
X96858727Y-86688557D01*
X96866579Y-86666613D01*
X96876544Y-86645543D01*
X96888526Y-86625552D01*
X96902410Y-86606832D01*
X96918062Y-86589562D01*
X96935332Y-86573910D01*
X96954052Y-86560026D01*
X96974043Y-86548044D01*
X96995113Y-86538079D01*
X97017057Y-86530227D01*
X97039666Y-86524563D01*
X97062721Y-86521144D01*
X97086000Y-86520000D01*
X97661000Y-86520000D01*
X97684279Y-86521144D01*
G37*
G36*
X82253779Y-77440644D02*
G01*
X82276834Y-77444063D01*
X82299443Y-77449727D01*
X82321387Y-77457579D01*
X82342457Y-77467544D01*
X82362448Y-77479526D01*
X82381168Y-77493410D01*
X82398438Y-77509062D01*
X82414090Y-77526332D01*
X82427974Y-77545052D01*
X82439956Y-77565043D01*
X82449921Y-77586113D01*
X82457773Y-77608057D01*
X82463437Y-77630666D01*
X82466856Y-77653721D01*
X82468000Y-77677000D01*
X82468000Y-78152000D01*
X82466856Y-78175279D01*
X82463437Y-78198334D01*
X82457773Y-78220943D01*
X82449921Y-78242887D01*
X82439956Y-78263957D01*
X82427974Y-78283948D01*
X82414090Y-78302668D01*
X82398438Y-78319938D01*
X82381168Y-78335590D01*
X82362448Y-78349474D01*
X82342457Y-78361456D01*
X82321387Y-78371421D01*
X82299443Y-78379273D01*
X82276834Y-78384937D01*
X82253779Y-78388356D01*
X82230500Y-78389500D01*
X81655500Y-78389500D01*
X81632221Y-78388356D01*
X81609166Y-78384937D01*
X81586557Y-78379273D01*
X81564613Y-78371421D01*
X81543543Y-78361456D01*
X81523552Y-78349474D01*
X81504832Y-78335590D01*
X81487562Y-78319938D01*
X81471910Y-78302668D01*
X81458026Y-78283948D01*
X81446044Y-78263957D01*
X81436079Y-78242887D01*
X81428227Y-78220943D01*
X81422563Y-78198334D01*
X81419144Y-78175279D01*
X81418000Y-78152000D01*
X81418000Y-77677000D01*
X81419144Y-77653721D01*
X81422563Y-77630666D01*
X81428227Y-77608057D01*
X81436079Y-77586113D01*
X81446044Y-77565043D01*
X81458026Y-77545052D01*
X81471910Y-77526332D01*
X81487562Y-77509062D01*
X81504832Y-77493410D01*
X81523552Y-77479526D01*
X81543543Y-77467544D01*
X81564613Y-77457579D01*
X81586557Y-77449727D01*
X81609166Y-77444063D01*
X81632221Y-77440644D01*
X81655500Y-77439500D01*
X82230500Y-77439500D01*
X82253779Y-77440644D01*
G37*
G36*
X84003779Y-77440644D02*
G01*
X84026834Y-77444063D01*
X84049443Y-77449727D01*
X84071387Y-77457579D01*
X84092457Y-77467544D01*
X84112448Y-77479526D01*
X84131168Y-77493410D01*
X84148438Y-77509062D01*
X84164090Y-77526332D01*
X84177974Y-77545052D01*
X84189956Y-77565043D01*
X84199921Y-77586113D01*
X84207773Y-77608057D01*
X84213437Y-77630666D01*
X84216856Y-77653721D01*
X84218000Y-77677000D01*
X84218000Y-78152000D01*
X84216856Y-78175279D01*
X84213437Y-78198334D01*
X84207773Y-78220943D01*
X84199921Y-78242887D01*
X84189956Y-78263957D01*
X84177974Y-78283948D01*
X84164090Y-78302668D01*
X84148438Y-78319938D01*
X84131168Y-78335590D01*
X84112448Y-78349474D01*
X84092457Y-78361456D01*
X84071387Y-78371421D01*
X84049443Y-78379273D01*
X84026834Y-78384937D01*
X84003779Y-78388356D01*
X83980500Y-78389500D01*
X83405500Y-78389500D01*
X83382221Y-78388356D01*
X83359166Y-78384937D01*
X83336557Y-78379273D01*
X83314613Y-78371421D01*
X83293543Y-78361456D01*
X83273552Y-78349474D01*
X83254832Y-78335590D01*
X83237562Y-78319938D01*
X83221910Y-78302668D01*
X83208026Y-78283948D01*
X83196044Y-78263957D01*
X83186079Y-78242887D01*
X83178227Y-78220943D01*
X83172563Y-78198334D01*
X83169144Y-78175279D01*
X83168000Y-78152000D01*
X83168000Y-77677000D01*
X83169144Y-77653721D01*
X83172563Y-77630666D01*
X83178227Y-77608057D01*
X83186079Y-77586113D01*
X83196044Y-77565043D01*
X83208026Y-77545052D01*
X83221910Y-77526332D01*
X83237562Y-77509062D01*
X83254832Y-77493410D01*
X83273552Y-77479526D01*
X83293543Y-77467544D01*
X83314613Y-77457579D01*
X83336557Y-77449727D01*
X83359166Y-77444063D01*
X83382221Y-77440644D01*
X83405500Y-77439500D01*
X83980500Y-77439500D01*
X84003779Y-77440644D01*
G37*
G36*
X128566779Y-81631644D02*
G01*
X128589834Y-81635063D01*
X128612443Y-81640727D01*
X128634387Y-81648579D01*
X128655457Y-81658544D01*
X128675448Y-81670526D01*
X128694168Y-81684410D01*
X128711438Y-81700062D01*
X128727090Y-81717332D01*
X128740974Y-81736052D01*
X128752956Y-81756043D01*
X128762921Y-81777113D01*
X128770773Y-81799057D01*
X128776437Y-81821666D01*
X128779856Y-81844721D01*
X128781000Y-81868000D01*
X128781000Y-82343000D01*
X128779856Y-82366279D01*
X128776437Y-82389334D01*
X128770773Y-82411943D01*
X128762921Y-82433887D01*
X128752956Y-82454957D01*
X128740974Y-82474948D01*
X128727090Y-82493668D01*
X128711438Y-82510938D01*
X128694168Y-82526590D01*
X128675448Y-82540474D01*
X128655457Y-82552456D01*
X128634387Y-82562421D01*
X128612443Y-82570273D01*
X128589834Y-82575937D01*
X128566779Y-82579356D01*
X128543500Y-82580500D01*
X127968500Y-82580500D01*
X127945221Y-82579356D01*
X127922166Y-82575937D01*
X127899557Y-82570273D01*
X127877613Y-82562421D01*
X127856543Y-82552456D01*
X127836552Y-82540474D01*
X127817832Y-82526590D01*
X127800562Y-82510938D01*
X127784910Y-82493668D01*
X127771026Y-82474948D01*
X127759044Y-82454957D01*
X127749079Y-82433887D01*
X127741227Y-82411943D01*
X127735563Y-82389334D01*
X127732144Y-82366279D01*
X127731000Y-82343000D01*
X127731000Y-81868000D01*
X127732144Y-81844721D01*
X127735563Y-81821666D01*
X127741227Y-81799057D01*
X127749079Y-81777113D01*
X127759044Y-81756043D01*
X127771026Y-81736052D01*
X127784910Y-81717332D01*
X127800562Y-81700062D01*
X127817832Y-81684410D01*
X127836552Y-81670526D01*
X127856543Y-81658544D01*
X127877613Y-81648579D01*
X127899557Y-81640727D01*
X127922166Y-81635063D01*
X127945221Y-81631644D01*
X127968500Y-81630500D01*
X128543500Y-81630500D01*
X128566779Y-81631644D01*
G37*
G36*
X126816779Y-81631644D02*
G01*
X126839834Y-81635063D01*
X126862443Y-81640727D01*
X126884387Y-81648579D01*
X126905457Y-81658544D01*
X126925448Y-81670526D01*
X126944168Y-81684410D01*
X126961438Y-81700062D01*
X126977090Y-81717332D01*
X126990974Y-81736052D01*
X127002956Y-81756043D01*
X127012921Y-81777113D01*
X127020773Y-81799057D01*
X127026437Y-81821666D01*
X127029856Y-81844721D01*
X127031000Y-81868000D01*
X127031000Y-82343000D01*
X127029856Y-82366279D01*
X127026437Y-82389334D01*
X127020773Y-82411943D01*
X127012921Y-82433887D01*
X127002956Y-82454957D01*
X126990974Y-82474948D01*
X126977090Y-82493668D01*
X126961438Y-82510938D01*
X126944168Y-82526590D01*
X126925448Y-82540474D01*
X126905457Y-82552456D01*
X126884387Y-82562421D01*
X126862443Y-82570273D01*
X126839834Y-82575937D01*
X126816779Y-82579356D01*
X126793500Y-82580500D01*
X126218500Y-82580500D01*
X126195221Y-82579356D01*
X126172166Y-82575937D01*
X126149557Y-82570273D01*
X126127613Y-82562421D01*
X126106543Y-82552456D01*
X126086552Y-82540474D01*
X126067832Y-82526590D01*
X126050562Y-82510938D01*
X126034910Y-82493668D01*
X126021026Y-82474948D01*
X126009044Y-82454957D01*
X125999079Y-82433887D01*
X125991227Y-82411943D01*
X125985563Y-82389334D01*
X125982144Y-82366279D01*
X125981000Y-82343000D01*
X125981000Y-81868000D01*
X125982144Y-81844721D01*
X125985563Y-81821666D01*
X125991227Y-81799057D01*
X125999079Y-81777113D01*
X126009044Y-81756043D01*
X126021026Y-81736052D01*
X126034910Y-81717332D01*
X126050562Y-81700062D01*
X126067832Y-81684410D01*
X126086552Y-81670526D01*
X126106543Y-81658544D01*
X126127613Y-81648579D01*
X126149557Y-81640727D01*
X126172166Y-81635063D01*
X126195221Y-81631644D01*
X126218500Y-81630500D01*
X126793500Y-81630500D01*
X126816779Y-81631644D01*
G37*
G36*
X126802779Y-78520144D02*
G01*
X126825834Y-78523563D01*
X126848443Y-78529227D01*
X126870387Y-78537079D01*
X126891457Y-78547044D01*
X126911448Y-78559026D01*
X126930168Y-78572910D01*
X126947438Y-78588562D01*
X126963090Y-78605832D01*
X126976974Y-78624552D01*
X126988956Y-78644543D01*
X126998921Y-78665613D01*
X127006773Y-78687557D01*
X127012437Y-78710166D01*
X127015856Y-78733221D01*
X127017000Y-78756500D01*
X127017000Y-79231500D01*
X127015856Y-79254779D01*
X127012437Y-79277834D01*
X127006773Y-79300443D01*
X126998921Y-79322387D01*
X126988956Y-79343457D01*
X126976974Y-79363448D01*
X126963090Y-79382168D01*
X126947438Y-79399438D01*
X126930168Y-79415090D01*
X126911448Y-79428974D01*
X126891457Y-79440956D01*
X126870387Y-79450921D01*
X126848443Y-79458773D01*
X126825834Y-79464437D01*
X126802779Y-79467856D01*
X126779500Y-79469000D01*
X126204500Y-79469000D01*
X126181221Y-79467856D01*
X126158166Y-79464437D01*
X126135557Y-79458773D01*
X126113613Y-79450921D01*
X126092543Y-79440956D01*
X126072552Y-79428974D01*
X126053832Y-79415090D01*
X126036562Y-79399438D01*
X126020910Y-79382168D01*
X126007026Y-79363448D01*
X125995044Y-79343457D01*
X125985079Y-79322387D01*
X125977227Y-79300443D01*
X125971563Y-79277834D01*
X125968144Y-79254779D01*
X125967000Y-79231500D01*
X125967000Y-78756500D01*
X125968144Y-78733221D01*
X125971563Y-78710166D01*
X125977227Y-78687557D01*
X125985079Y-78665613D01*
X125995044Y-78644543D01*
X126007026Y-78624552D01*
X126020910Y-78605832D01*
X126036562Y-78588562D01*
X126053832Y-78572910D01*
X126072552Y-78559026D01*
X126092543Y-78547044D01*
X126113613Y-78537079D01*
X126135557Y-78529227D01*
X126158166Y-78523563D01*
X126181221Y-78520144D01*
X126204500Y-78519000D01*
X126779500Y-78519000D01*
X126802779Y-78520144D01*
G37*
G36*
X128552779Y-78520144D02*
G01*
X128575834Y-78523563D01*
X128598443Y-78529227D01*
X128620387Y-78537079D01*
X128641457Y-78547044D01*
X128661448Y-78559026D01*
X128680168Y-78572910D01*
X128697438Y-78588562D01*
X128713090Y-78605832D01*
X128726974Y-78624552D01*
X128738956Y-78644543D01*
X128748921Y-78665613D01*
X128756773Y-78687557D01*
X128762437Y-78710166D01*
X128765856Y-78733221D01*
X128767000Y-78756500D01*
X128767000Y-79231500D01*
X128765856Y-79254779D01*
X128762437Y-79277834D01*
X128756773Y-79300443D01*
X128748921Y-79322387D01*
X128738956Y-79343457D01*
X128726974Y-79363448D01*
X128713090Y-79382168D01*
X128697438Y-79399438D01*
X128680168Y-79415090D01*
X128661448Y-79428974D01*
X128641457Y-79440956D01*
X128620387Y-79450921D01*
X128598443Y-79458773D01*
X128575834Y-79464437D01*
X128552779Y-79467856D01*
X128529500Y-79469000D01*
X127954500Y-79469000D01*
X127931221Y-79467856D01*
X127908166Y-79464437D01*
X127885557Y-79458773D01*
X127863613Y-79450921D01*
X127842543Y-79440956D01*
X127822552Y-79428974D01*
X127803832Y-79415090D01*
X127786562Y-79399438D01*
X127770910Y-79382168D01*
X127757026Y-79363448D01*
X127745044Y-79343457D01*
X127735079Y-79322387D01*
X127727227Y-79300443D01*
X127721563Y-79277834D01*
X127718144Y-79254779D01*
X127717000Y-79231500D01*
X127717000Y-78756500D01*
X127718144Y-78733221D01*
X127721563Y-78710166D01*
X127727227Y-78687557D01*
X127735079Y-78665613D01*
X127745044Y-78644543D01*
X127757026Y-78624552D01*
X127770910Y-78605832D01*
X127786562Y-78588562D01*
X127803832Y-78572910D01*
X127822552Y-78559026D01*
X127842543Y-78547044D01*
X127863613Y-78537079D01*
X127885557Y-78529227D01*
X127908166Y-78523563D01*
X127931221Y-78520144D01*
X127954500Y-78519000D01*
X128529500Y-78519000D01*
X128552779Y-78520144D01*
G37*
G36*
X126802779Y-80107644D02*
G01*
X126825834Y-80111063D01*
X126848443Y-80116727D01*
X126870387Y-80124579D01*
X126891457Y-80134544D01*
X126911448Y-80146526D01*
X126930168Y-80160410D01*
X126947438Y-80176062D01*
X126963090Y-80193332D01*
X126976974Y-80212052D01*
X126988956Y-80232043D01*
X126998921Y-80253113D01*
X127006773Y-80275057D01*
X127012437Y-80297666D01*
X127015856Y-80320721D01*
X127017000Y-80344000D01*
X127017000Y-80819000D01*
X127015856Y-80842279D01*
X127012437Y-80865334D01*
X127006773Y-80887943D01*
X126998921Y-80909887D01*
X126988956Y-80930957D01*
X126976974Y-80950948D01*
X126963090Y-80969668D01*
X126947438Y-80986938D01*
X126930168Y-81002590D01*
X126911448Y-81016474D01*
X126891457Y-81028456D01*
X126870387Y-81038421D01*
X126848443Y-81046273D01*
X126825834Y-81051937D01*
X126802779Y-81055356D01*
X126779500Y-81056500D01*
X126204500Y-81056500D01*
X126181221Y-81055356D01*
X126158166Y-81051937D01*
X126135557Y-81046273D01*
X126113613Y-81038421D01*
X126092543Y-81028456D01*
X126072552Y-81016474D01*
X126053832Y-81002590D01*
X126036562Y-80986938D01*
X126020910Y-80969668D01*
X126007026Y-80950948D01*
X125995044Y-80930957D01*
X125985079Y-80909887D01*
X125977227Y-80887943D01*
X125971563Y-80865334D01*
X125968144Y-80842279D01*
X125967000Y-80819000D01*
X125967000Y-80344000D01*
X125968144Y-80320721D01*
X125971563Y-80297666D01*
X125977227Y-80275057D01*
X125985079Y-80253113D01*
X125995044Y-80232043D01*
X126007026Y-80212052D01*
X126020910Y-80193332D01*
X126036562Y-80176062D01*
X126053832Y-80160410D01*
X126072552Y-80146526D01*
X126092543Y-80134544D01*
X126113613Y-80124579D01*
X126135557Y-80116727D01*
X126158166Y-80111063D01*
X126181221Y-80107644D01*
X126204500Y-80106500D01*
X126779500Y-80106500D01*
X126802779Y-80107644D01*
G37*
G36*
X128552779Y-80107644D02*
G01*
X128575834Y-80111063D01*
X128598443Y-80116727D01*
X128620387Y-80124579D01*
X128641457Y-80134544D01*
X128661448Y-80146526D01*
X128680168Y-80160410D01*
X128697438Y-80176062D01*
X128713090Y-80193332D01*
X128726974Y-80212052D01*
X128738956Y-80232043D01*
X128748921Y-80253113D01*
X128756773Y-80275057D01*
X128762437Y-80297666D01*
X128765856Y-80320721D01*
X128767000Y-80344000D01*
X128767000Y-80819000D01*
X128765856Y-80842279D01*
X128762437Y-80865334D01*
X128756773Y-80887943D01*
X128748921Y-80909887D01*
X128738956Y-80930957D01*
X128726974Y-80950948D01*
X128713090Y-80969668D01*
X128697438Y-80986938D01*
X128680168Y-81002590D01*
X128661448Y-81016474D01*
X128641457Y-81028456D01*
X128620387Y-81038421D01*
X128598443Y-81046273D01*
X128575834Y-81051937D01*
X128552779Y-81055356D01*
X128529500Y-81056500D01*
X127954500Y-81056500D01*
X127931221Y-81055356D01*
X127908166Y-81051937D01*
X127885557Y-81046273D01*
X127863613Y-81038421D01*
X127842543Y-81028456D01*
X127822552Y-81016474D01*
X127803832Y-81002590D01*
X127786562Y-80986938D01*
X127770910Y-80969668D01*
X127757026Y-80950948D01*
X127745044Y-80930957D01*
X127735079Y-80909887D01*
X127727227Y-80887943D01*
X127721563Y-80865334D01*
X127718144Y-80842279D01*
X127717000Y-80819000D01*
X127717000Y-80344000D01*
X127718144Y-80320721D01*
X127721563Y-80297666D01*
X127727227Y-80275057D01*
X127735079Y-80253113D01*
X127745044Y-80232043D01*
X127757026Y-80212052D01*
X127770910Y-80193332D01*
X127786562Y-80176062D01*
X127803832Y-80160410D01*
X127822552Y-80146526D01*
X127842543Y-80134544D01*
X127863613Y-80124579D01*
X127885557Y-80116727D01*
X127908166Y-80111063D01*
X127931221Y-80107644D01*
X127954500Y-80106500D01*
X128529500Y-80106500D01*
X128552779Y-80107644D01*
G37*
G36*
X128517779Y-76996144D02*
G01*
X128540834Y-76999563D01*
X128563443Y-77005227D01*
X128585387Y-77013079D01*
X128606457Y-77023044D01*
X128626448Y-77035026D01*
X128645168Y-77048910D01*
X128662438Y-77064562D01*
X128678090Y-77081832D01*
X128691974Y-77100552D01*
X128703956Y-77120543D01*
X128713921Y-77141613D01*
X128721773Y-77163557D01*
X128727437Y-77186166D01*
X128730856Y-77209221D01*
X128732000Y-77232500D01*
X128732000Y-77707500D01*
X128730856Y-77730779D01*
X128727437Y-77753834D01*
X128721773Y-77776443D01*
X128713921Y-77798387D01*
X128703956Y-77819457D01*
X128691974Y-77839448D01*
X128678090Y-77858168D01*
X128662438Y-77875438D01*
X128645168Y-77891090D01*
X128626448Y-77904974D01*
X128606457Y-77916956D01*
X128585387Y-77926921D01*
X128563443Y-77934773D01*
X128540834Y-77940437D01*
X128517779Y-77943856D01*
X128494500Y-77945000D01*
X127919500Y-77945000D01*
X127896221Y-77943856D01*
X127873166Y-77940437D01*
X127850557Y-77934773D01*
X127828613Y-77926921D01*
X127807543Y-77916956D01*
X127787552Y-77904974D01*
X127768832Y-77891090D01*
X127751562Y-77875438D01*
X127735910Y-77858168D01*
X127722026Y-77839448D01*
X127710044Y-77819457D01*
X127700079Y-77798387D01*
X127692227Y-77776443D01*
X127686563Y-77753834D01*
X127683144Y-77730779D01*
X127682000Y-77707500D01*
X127682000Y-77232500D01*
X127683144Y-77209221D01*
X127686563Y-77186166D01*
X127692227Y-77163557D01*
X127700079Y-77141613D01*
X127710044Y-77120543D01*
X127722026Y-77100552D01*
X127735910Y-77081832D01*
X127751562Y-77064562D01*
X127768832Y-77048910D01*
X127787552Y-77035026D01*
X127807543Y-77023044D01*
X127828613Y-77013079D01*
X127850557Y-77005227D01*
X127873166Y-76999563D01*
X127896221Y-76996144D01*
X127919500Y-76995000D01*
X128494500Y-76995000D01*
X128517779Y-76996144D01*
G37*
G36*
X126767779Y-76996144D02*
G01*
X126790834Y-76999563D01*
X126813443Y-77005227D01*
X126835387Y-77013079D01*
X126856457Y-77023044D01*
X126876448Y-77035026D01*
X126895168Y-77048910D01*
X126912438Y-77064562D01*
X126928090Y-77081832D01*
X126941974Y-77100552D01*
X126953956Y-77120543D01*
X126963921Y-77141613D01*
X126971773Y-77163557D01*
X126977437Y-77186166D01*
X126980856Y-77209221D01*
X126982000Y-77232500D01*
X126982000Y-77707500D01*
X126980856Y-77730779D01*
X126977437Y-77753834D01*
X126971773Y-77776443D01*
X126963921Y-77798387D01*
X126953956Y-77819457D01*
X126941974Y-77839448D01*
X126928090Y-77858168D01*
X126912438Y-77875438D01*
X126895168Y-77891090D01*
X126876448Y-77904974D01*
X126856457Y-77916956D01*
X126835387Y-77926921D01*
X126813443Y-77934773D01*
X126790834Y-77940437D01*
X126767779Y-77943856D01*
X126744500Y-77945000D01*
X126169500Y-77945000D01*
X126146221Y-77943856D01*
X126123166Y-77940437D01*
X126100557Y-77934773D01*
X126078613Y-77926921D01*
X126057543Y-77916956D01*
X126037552Y-77904974D01*
X126018832Y-77891090D01*
X126001562Y-77875438D01*
X125985910Y-77858168D01*
X125972026Y-77839448D01*
X125960044Y-77819457D01*
X125950079Y-77798387D01*
X125942227Y-77776443D01*
X125936563Y-77753834D01*
X125933144Y-77730779D01*
X125932000Y-77707500D01*
X125932000Y-77232500D01*
X125933144Y-77209221D01*
X125936563Y-77186166D01*
X125942227Y-77163557D01*
X125950079Y-77141613D01*
X125960044Y-77120543D01*
X125972026Y-77100552D01*
X125985910Y-77081832D01*
X126001562Y-77064562D01*
X126018832Y-77048910D01*
X126037552Y-77035026D01*
X126057543Y-77023044D01*
X126078613Y-77013079D01*
X126100557Y-77005227D01*
X126123166Y-76999563D01*
X126146221Y-76996144D01*
X126169500Y-76995000D01*
X126744500Y-76995000D01*
X126767779Y-76996144D01*
G37*
G36*
X81957779Y-73376644D02*
G01*
X81980834Y-73380063D01*
X82003443Y-73385727D01*
X82025387Y-73393579D01*
X82046457Y-73403544D01*
X82066448Y-73415526D01*
X82085168Y-73429410D01*
X82102438Y-73445062D01*
X82118090Y-73462332D01*
X82131974Y-73481052D01*
X82143956Y-73501043D01*
X82153921Y-73522113D01*
X82161773Y-73544057D01*
X82167437Y-73566666D01*
X82170856Y-73589721D01*
X82172000Y-73613000D01*
X82172000Y-74088000D01*
X82170856Y-74111279D01*
X82167437Y-74134334D01*
X82161773Y-74156943D01*
X82153921Y-74178887D01*
X82143956Y-74199957D01*
X82131974Y-74219948D01*
X82118090Y-74238668D01*
X82102438Y-74255938D01*
X82085168Y-74271590D01*
X82066448Y-74285474D01*
X82046457Y-74297456D01*
X82025387Y-74307421D01*
X82003443Y-74315273D01*
X81980834Y-74320937D01*
X81957779Y-74324356D01*
X81934500Y-74325500D01*
X81359500Y-74325500D01*
X81336221Y-74324356D01*
X81313166Y-74320937D01*
X81290557Y-74315273D01*
X81268613Y-74307421D01*
X81247543Y-74297456D01*
X81227552Y-74285474D01*
X81208832Y-74271590D01*
X81191562Y-74255938D01*
X81175910Y-74238668D01*
X81162026Y-74219948D01*
X81150044Y-74199957D01*
X81140079Y-74178887D01*
X81132227Y-74156943D01*
X81126563Y-74134334D01*
X81123144Y-74111279D01*
X81122000Y-74088000D01*
X81122000Y-73613000D01*
X81123144Y-73589721D01*
X81126563Y-73566666D01*
X81132227Y-73544057D01*
X81140079Y-73522113D01*
X81150044Y-73501043D01*
X81162026Y-73481052D01*
X81175910Y-73462332D01*
X81191562Y-73445062D01*
X81208832Y-73429410D01*
X81227552Y-73415526D01*
X81247543Y-73403544D01*
X81268613Y-73393579D01*
X81290557Y-73385727D01*
X81313166Y-73380063D01*
X81336221Y-73376644D01*
X81359500Y-73375500D01*
X81934500Y-73375500D01*
X81957779Y-73376644D01*
G37*
G36*
X80207779Y-73376644D02*
G01*
X80230834Y-73380063D01*
X80253443Y-73385727D01*
X80275387Y-73393579D01*
X80296457Y-73403544D01*
X80316448Y-73415526D01*
X80335168Y-73429410D01*
X80352438Y-73445062D01*
X80368090Y-73462332D01*
X80381974Y-73481052D01*
X80393956Y-73501043D01*
X80403921Y-73522113D01*
X80411773Y-73544057D01*
X80417437Y-73566666D01*
X80420856Y-73589721D01*
X80422000Y-73613000D01*
X80422000Y-74088000D01*
X80420856Y-74111279D01*
X80417437Y-74134334D01*
X80411773Y-74156943D01*
X80403921Y-74178887D01*
X80393956Y-74199957D01*
X80381974Y-74219948D01*
X80368090Y-74238668D01*
X80352438Y-74255938D01*
X80335168Y-74271590D01*
X80316448Y-74285474D01*
X80296457Y-74297456D01*
X80275387Y-74307421D01*
X80253443Y-74315273D01*
X80230834Y-74320937D01*
X80207779Y-74324356D01*
X80184500Y-74325500D01*
X79609500Y-74325500D01*
X79586221Y-74324356D01*
X79563166Y-74320937D01*
X79540557Y-74315273D01*
X79518613Y-74307421D01*
X79497543Y-74297456D01*
X79477552Y-74285474D01*
X79458832Y-74271590D01*
X79441562Y-74255938D01*
X79425910Y-74238668D01*
X79412026Y-74219948D01*
X79400044Y-74199957D01*
X79390079Y-74178887D01*
X79382227Y-74156943D01*
X79376563Y-74134334D01*
X79373144Y-74111279D01*
X79372000Y-74088000D01*
X79372000Y-73613000D01*
X79373144Y-73589721D01*
X79376563Y-73566666D01*
X79382227Y-73544057D01*
X79390079Y-73522113D01*
X79400044Y-73501043D01*
X79412026Y-73481052D01*
X79425910Y-73462332D01*
X79441562Y-73445062D01*
X79458832Y-73429410D01*
X79477552Y-73415526D01*
X79497543Y-73403544D01*
X79518613Y-73393579D01*
X79540557Y-73385727D01*
X79563166Y-73380063D01*
X79586221Y-73376644D01*
X79609500Y-73375500D01*
X80184500Y-73375500D01*
X80207779Y-73376644D01*
G37*
G36*
X94770779Y-87029144D02*
G01*
X94793834Y-87032563D01*
X94816443Y-87038227D01*
X94838387Y-87046079D01*
X94859457Y-87056044D01*
X94879448Y-87068026D01*
X94898168Y-87081910D01*
X94915438Y-87097562D01*
X94931090Y-87114832D01*
X94944974Y-87133552D01*
X94956956Y-87153543D01*
X94966921Y-87174613D01*
X94974773Y-87196557D01*
X94980437Y-87219166D01*
X94983856Y-87242221D01*
X94985000Y-87265500D01*
X94985000Y-87740500D01*
X94983856Y-87763779D01*
X94980437Y-87786834D01*
X94974773Y-87809443D01*
X94966921Y-87831387D01*
X94956956Y-87852457D01*
X94944974Y-87872448D01*
X94931090Y-87891168D01*
X94915438Y-87908438D01*
X94898168Y-87924090D01*
X94879448Y-87937974D01*
X94859457Y-87949956D01*
X94838387Y-87959921D01*
X94816443Y-87967773D01*
X94793834Y-87973437D01*
X94770779Y-87976856D01*
X94747500Y-87978000D01*
X94172500Y-87978000D01*
X94149221Y-87976856D01*
X94126166Y-87973437D01*
X94103557Y-87967773D01*
X94081613Y-87959921D01*
X94060543Y-87949956D01*
X94040552Y-87937974D01*
X94021832Y-87924090D01*
X94004562Y-87908438D01*
X93988910Y-87891168D01*
X93975026Y-87872448D01*
X93963044Y-87852457D01*
X93953079Y-87831387D01*
X93945227Y-87809443D01*
X93939563Y-87786834D01*
X93936144Y-87763779D01*
X93935000Y-87740500D01*
X93935000Y-87265500D01*
X93936144Y-87242221D01*
X93939563Y-87219166D01*
X93945227Y-87196557D01*
X93953079Y-87174613D01*
X93963044Y-87153543D01*
X93975026Y-87133552D01*
X93988910Y-87114832D01*
X94004562Y-87097562D01*
X94021832Y-87081910D01*
X94040552Y-87068026D01*
X94060543Y-87056044D01*
X94081613Y-87046079D01*
X94103557Y-87038227D01*
X94126166Y-87032563D01*
X94149221Y-87029144D01*
X94172500Y-87028000D01*
X94747500Y-87028000D01*
X94770779Y-87029144D01*
G37*
G36*
X93020779Y-87029144D02*
G01*
X93043834Y-87032563D01*
X93066443Y-87038227D01*
X93088387Y-87046079D01*
X93109457Y-87056044D01*
X93129448Y-87068026D01*
X93148168Y-87081910D01*
X93165438Y-87097562D01*
X93181090Y-87114832D01*
X93194974Y-87133552D01*
X93206956Y-87153543D01*
X93216921Y-87174613D01*
X93224773Y-87196557D01*
X93230437Y-87219166D01*
X93233856Y-87242221D01*
X93235000Y-87265500D01*
X93235000Y-87740500D01*
X93233856Y-87763779D01*
X93230437Y-87786834D01*
X93224773Y-87809443D01*
X93216921Y-87831387D01*
X93206956Y-87852457D01*
X93194974Y-87872448D01*
X93181090Y-87891168D01*
X93165438Y-87908438D01*
X93148168Y-87924090D01*
X93129448Y-87937974D01*
X93109457Y-87949956D01*
X93088387Y-87959921D01*
X93066443Y-87967773D01*
X93043834Y-87973437D01*
X93020779Y-87976856D01*
X92997500Y-87978000D01*
X92422500Y-87978000D01*
X92399221Y-87976856D01*
X92376166Y-87973437D01*
X92353557Y-87967773D01*
X92331613Y-87959921D01*
X92310543Y-87949956D01*
X92290552Y-87937974D01*
X92271832Y-87924090D01*
X92254562Y-87908438D01*
X92238910Y-87891168D01*
X92225026Y-87872448D01*
X92213044Y-87852457D01*
X92203079Y-87831387D01*
X92195227Y-87809443D01*
X92189563Y-87786834D01*
X92186144Y-87763779D01*
X92185000Y-87740500D01*
X92185000Y-87265500D01*
X92186144Y-87242221D01*
X92189563Y-87219166D01*
X92195227Y-87196557D01*
X92203079Y-87174613D01*
X92213044Y-87153543D01*
X92225026Y-87133552D01*
X92238910Y-87114832D01*
X92254562Y-87097562D01*
X92271832Y-87081910D01*
X92290552Y-87068026D01*
X92310543Y-87056044D01*
X92331613Y-87046079D01*
X92353557Y-87038227D01*
X92376166Y-87032563D01*
X92399221Y-87029144D01*
X92422500Y-87028000D01*
X92997500Y-87028000D01*
X93020779Y-87029144D01*
G37*
G36*
X91891279Y-72374144D02*
G01*
X91914334Y-72377563D01*
X91936943Y-72383227D01*
X91958887Y-72391079D01*
X91979957Y-72401044D01*
X91999948Y-72413026D01*
X92018668Y-72426910D01*
X92035938Y-72442562D01*
X92051590Y-72459832D01*
X92065474Y-72478552D01*
X92077456Y-72498543D01*
X92087421Y-72519613D01*
X92095273Y-72541557D01*
X92100937Y-72564166D01*
X92104356Y-72587221D01*
X92105500Y-72610500D01*
X92105500Y-73185500D01*
X92104356Y-73208779D01*
X92100937Y-73231834D01*
X92095273Y-73254443D01*
X92087421Y-73276387D01*
X92077456Y-73297457D01*
X92065474Y-73317448D01*
X92051590Y-73336168D01*
X92035938Y-73353438D01*
X92018668Y-73369090D01*
X91999948Y-73382974D01*
X91979957Y-73394956D01*
X91958887Y-73404921D01*
X91936943Y-73412773D01*
X91914334Y-73418437D01*
X91891279Y-73421856D01*
X91868000Y-73423000D01*
X91393000Y-73423000D01*
X91369721Y-73421856D01*
X91346666Y-73418437D01*
X91324057Y-73412773D01*
X91302113Y-73404921D01*
X91281043Y-73394956D01*
X91261052Y-73382974D01*
X91242332Y-73369090D01*
X91225062Y-73353438D01*
X91209410Y-73336168D01*
X91195526Y-73317448D01*
X91183544Y-73297457D01*
X91173579Y-73276387D01*
X91165727Y-73254443D01*
X91160063Y-73231834D01*
X91156644Y-73208779D01*
X91155500Y-73185500D01*
X91155500Y-72610500D01*
X91156644Y-72587221D01*
X91160063Y-72564166D01*
X91165727Y-72541557D01*
X91173579Y-72519613D01*
X91183544Y-72498543D01*
X91195526Y-72478552D01*
X91209410Y-72459832D01*
X91225062Y-72442562D01*
X91242332Y-72426910D01*
X91261052Y-72413026D01*
X91281043Y-72401044D01*
X91302113Y-72391079D01*
X91324057Y-72383227D01*
X91346666Y-72377563D01*
X91369721Y-72374144D01*
X91393000Y-72373000D01*
X91868000Y-72373000D01*
X91891279Y-72374144D01*
G37*
G36*
X91891279Y-74124144D02*
G01*
X91914334Y-74127563D01*
X91936943Y-74133227D01*
X91958887Y-74141079D01*
X91979957Y-74151044D01*
X91999948Y-74163026D01*
X92018668Y-74176910D01*
X92035938Y-74192562D01*
X92051590Y-74209832D01*
X92065474Y-74228552D01*
X92077456Y-74248543D01*
X92087421Y-74269613D01*
X92095273Y-74291557D01*
X92100937Y-74314166D01*
X92104356Y-74337221D01*
X92105500Y-74360500D01*
X92105500Y-74935500D01*
X92104356Y-74958779D01*
X92100937Y-74981834D01*
X92095273Y-75004443D01*
X92087421Y-75026387D01*
X92077456Y-75047457D01*
X92065474Y-75067448D01*
X92051590Y-75086168D01*
X92035938Y-75103438D01*
X92018668Y-75119090D01*
X91999948Y-75132974D01*
X91979957Y-75144956D01*
X91958887Y-75154921D01*
X91936943Y-75162773D01*
X91914334Y-75168437D01*
X91891279Y-75171856D01*
X91868000Y-75173000D01*
X91393000Y-75173000D01*
X91369721Y-75171856D01*
X91346666Y-75168437D01*
X91324057Y-75162773D01*
X91302113Y-75154921D01*
X91281043Y-75144956D01*
X91261052Y-75132974D01*
X91242332Y-75119090D01*
X91225062Y-75103438D01*
X91209410Y-75086168D01*
X91195526Y-75067448D01*
X91183544Y-75047457D01*
X91173579Y-75026387D01*
X91165727Y-75004443D01*
X91160063Y-74981834D01*
X91156644Y-74958779D01*
X91155500Y-74935500D01*
X91155500Y-74360500D01*
X91156644Y-74337221D01*
X91160063Y-74314166D01*
X91165727Y-74291557D01*
X91173579Y-74269613D01*
X91183544Y-74248543D01*
X91195526Y-74228552D01*
X91209410Y-74209832D01*
X91225062Y-74192562D01*
X91242332Y-74176910D01*
X91261052Y-74163026D01*
X91281043Y-74151044D01*
X91302113Y-74141079D01*
X91324057Y-74133227D01*
X91346666Y-74127563D01*
X91369721Y-74124144D01*
X91393000Y-74123000D01*
X91868000Y-74123000D01*
X91891279Y-74124144D01*
G37*
G36*
X196729779Y-83752544D02*
G01*
X196752834Y-83755963D01*
X196775443Y-83761627D01*
X196797387Y-83769479D01*
X196818457Y-83779444D01*
X196838448Y-83791426D01*
X196857168Y-83805310D01*
X196874438Y-83820962D01*
X196890090Y-83838232D01*
X196903974Y-83856952D01*
X196915956Y-83876943D01*
X196925921Y-83898013D01*
X196933773Y-83919957D01*
X196939437Y-83942566D01*
X196942856Y-83965621D01*
X196944000Y-83988900D01*
X196944000Y-84463900D01*
X196942856Y-84487179D01*
X196939437Y-84510234D01*
X196933773Y-84532843D01*
X196925921Y-84554787D01*
X196915956Y-84575857D01*
X196903974Y-84595848D01*
X196890090Y-84614568D01*
X196874438Y-84631838D01*
X196857168Y-84647490D01*
X196838448Y-84661374D01*
X196818457Y-84673356D01*
X196797387Y-84683321D01*
X196775443Y-84691173D01*
X196752834Y-84696837D01*
X196729779Y-84700256D01*
X196706500Y-84701400D01*
X196131500Y-84701400D01*
X196108221Y-84700256D01*
X196085166Y-84696837D01*
X196062557Y-84691173D01*
X196040613Y-84683321D01*
X196019543Y-84673356D01*
X195999552Y-84661374D01*
X195980832Y-84647490D01*
X195963562Y-84631838D01*
X195947910Y-84614568D01*
X195934026Y-84595848D01*
X195922044Y-84575857D01*
X195912079Y-84554787D01*
X195904227Y-84532843D01*
X195898563Y-84510234D01*
X195895144Y-84487179D01*
X195894000Y-84463900D01*
X195894000Y-83988900D01*
X195895144Y-83965621D01*
X195898563Y-83942566D01*
X195904227Y-83919957D01*
X195912079Y-83898013D01*
X195922044Y-83876943D01*
X195934026Y-83856952D01*
X195947910Y-83838232D01*
X195963562Y-83820962D01*
X195980832Y-83805310D01*
X195999552Y-83791426D01*
X196019543Y-83779444D01*
X196040613Y-83769479D01*
X196062557Y-83761627D01*
X196085166Y-83755963D01*
X196108221Y-83752544D01*
X196131500Y-83751400D01*
X196706500Y-83751400D01*
X196729779Y-83752544D01*
G37*
G36*
X198479779Y-83752544D02*
G01*
X198502834Y-83755963D01*
X198525443Y-83761627D01*
X198547387Y-83769479D01*
X198568457Y-83779444D01*
X198588448Y-83791426D01*
X198607168Y-83805310D01*
X198624438Y-83820962D01*
X198640090Y-83838232D01*
X198653974Y-83856952D01*
X198665956Y-83876943D01*
X198675921Y-83898013D01*
X198683773Y-83919957D01*
X198689437Y-83942566D01*
X198692856Y-83965621D01*
X198694000Y-83988900D01*
X198694000Y-84463900D01*
X198692856Y-84487179D01*
X198689437Y-84510234D01*
X198683773Y-84532843D01*
X198675921Y-84554787D01*
X198665956Y-84575857D01*
X198653974Y-84595848D01*
X198640090Y-84614568D01*
X198624438Y-84631838D01*
X198607168Y-84647490D01*
X198588448Y-84661374D01*
X198568457Y-84673356D01*
X198547387Y-84683321D01*
X198525443Y-84691173D01*
X198502834Y-84696837D01*
X198479779Y-84700256D01*
X198456500Y-84701400D01*
X197881500Y-84701400D01*
X197858221Y-84700256D01*
X197835166Y-84696837D01*
X197812557Y-84691173D01*
X197790613Y-84683321D01*
X197769543Y-84673356D01*
X197749552Y-84661374D01*
X197730832Y-84647490D01*
X197713562Y-84631838D01*
X197697910Y-84614568D01*
X197684026Y-84595848D01*
X197672044Y-84575857D01*
X197662079Y-84554787D01*
X197654227Y-84532843D01*
X197648563Y-84510234D01*
X197645144Y-84487179D01*
X197644000Y-84463900D01*
X197644000Y-83988900D01*
X197645144Y-83965621D01*
X197648563Y-83942566D01*
X197654227Y-83919957D01*
X197662079Y-83898013D01*
X197672044Y-83876943D01*
X197684026Y-83856952D01*
X197697910Y-83838232D01*
X197713562Y-83820962D01*
X197730832Y-83805310D01*
X197749552Y-83791426D01*
X197769543Y-83779444D01*
X197790613Y-83769479D01*
X197812557Y-83761627D01*
X197835166Y-83755963D01*
X197858221Y-83752544D01*
X197881500Y-83751400D01*
X198456500Y-83751400D01*
X198479779Y-83752544D01*
G37*
G36*
X196743779Y-85378144D02*
G01*
X196766834Y-85381563D01*
X196789443Y-85387227D01*
X196811387Y-85395079D01*
X196832457Y-85405044D01*
X196852448Y-85417026D01*
X196871168Y-85430910D01*
X196888438Y-85446562D01*
X196904090Y-85463832D01*
X196917974Y-85482552D01*
X196929956Y-85502543D01*
X196939921Y-85523613D01*
X196947773Y-85545557D01*
X196953437Y-85568166D01*
X196956856Y-85591221D01*
X196958000Y-85614500D01*
X196958000Y-86089500D01*
X196956856Y-86112779D01*
X196953437Y-86135834D01*
X196947773Y-86158443D01*
X196939921Y-86180387D01*
X196929956Y-86201457D01*
X196917974Y-86221448D01*
X196904090Y-86240168D01*
X196888438Y-86257438D01*
X196871168Y-86273090D01*
X196852448Y-86286974D01*
X196832457Y-86298956D01*
X196811387Y-86308921D01*
X196789443Y-86316773D01*
X196766834Y-86322437D01*
X196743779Y-86325856D01*
X196720500Y-86327000D01*
X196145500Y-86327000D01*
X196122221Y-86325856D01*
X196099166Y-86322437D01*
X196076557Y-86316773D01*
X196054613Y-86308921D01*
X196033543Y-86298956D01*
X196013552Y-86286974D01*
X195994832Y-86273090D01*
X195977562Y-86257438D01*
X195961910Y-86240168D01*
X195948026Y-86221448D01*
X195936044Y-86201457D01*
X195926079Y-86180387D01*
X195918227Y-86158443D01*
X195912563Y-86135834D01*
X195909144Y-86112779D01*
X195908000Y-86089500D01*
X195908000Y-85614500D01*
X195909144Y-85591221D01*
X195912563Y-85568166D01*
X195918227Y-85545557D01*
X195926079Y-85523613D01*
X195936044Y-85502543D01*
X195948026Y-85482552D01*
X195961910Y-85463832D01*
X195977562Y-85446562D01*
X195994832Y-85430910D01*
X196013552Y-85417026D01*
X196033543Y-85405044D01*
X196054613Y-85395079D01*
X196076557Y-85387227D01*
X196099166Y-85381563D01*
X196122221Y-85378144D01*
X196145500Y-85377000D01*
X196720500Y-85377000D01*
X196743779Y-85378144D01*
G37*
G36*
X198493779Y-85378144D02*
G01*
X198516834Y-85381563D01*
X198539443Y-85387227D01*
X198561387Y-85395079D01*
X198582457Y-85405044D01*
X198602448Y-85417026D01*
X198621168Y-85430910D01*
X198638438Y-85446562D01*
X198654090Y-85463832D01*
X198667974Y-85482552D01*
X198679956Y-85502543D01*
X198689921Y-85523613D01*
X198697773Y-85545557D01*
X198703437Y-85568166D01*
X198706856Y-85591221D01*
X198708000Y-85614500D01*
X198708000Y-86089500D01*
X198706856Y-86112779D01*
X198703437Y-86135834D01*
X198697773Y-86158443D01*
X198689921Y-86180387D01*
X198679956Y-86201457D01*
X198667974Y-86221448D01*
X198654090Y-86240168D01*
X198638438Y-86257438D01*
X198621168Y-86273090D01*
X198602448Y-86286974D01*
X198582457Y-86298956D01*
X198561387Y-86308921D01*
X198539443Y-86316773D01*
X198516834Y-86322437D01*
X198493779Y-86325856D01*
X198470500Y-86327000D01*
X197895500Y-86327000D01*
X197872221Y-86325856D01*
X197849166Y-86322437D01*
X197826557Y-86316773D01*
X197804613Y-86308921D01*
X197783543Y-86298956D01*
X197763552Y-86286974D01*
X197744832Y-86273090D01*
X197727562Y-86257438D01*
X197711910Y-86240168D01*
X197698026Y-86221448D01*
X197686044Y-86201457D01*
X197676079Y-86180387D01*
X197668227Y-86158443D01*
X197662563Y-86135834D01*
X197659144Y-86112779D01*
X197658000Y-86089500D01*
X197658000Y-85614500D01*
X197659144Y-85591221D01*
X197662563Y-85568166D01*
X197668227Y-85545557D01*
X197676079Y-85523613D01*
X197686044Y-85502543D01*
X197698026Y-85482552D01*
X197711910Y-85463832D01*
X197727562Y-85446562D01*
X197744832Y-85430910D01*
X197763552Y-85417026D01*
X197783543Y-85405044D01*
X197804613Y-85395079D01*
X197826557Y-85387227D01*
X197849166Y-85381563D01*
X197872221Y-85378144D01*
X197895500Y-85377000D01*
X198470500Y-85377000D01*
X198493779Y-85378144D01*
G37*
G36*
X198479779Y-82152344D02*
G01*
X198502834Y-82155763D01*
X198525443Y-82161427D01*
X198547387Y-82169279D01*
X198568457Y-82179244D01*
X198588448Y-82191226D01*
X198607168Y-82205110D01*
X198624438Y-82220762D01*
X198640090Y-82238032D01*
X198653974Y-82256752D01*
X198665956Y-82276743D01*
X198675921Y-82297813D01*
X198683773Y-82319757D01*
X198689437Y-82342366D01*
X198692856Y-82365421D01*
X198694000Y-82388700D01*
X198694000Y-82863700D01*
X198692856Y-82886979D01*
X198689437Y-82910034D01*
X198683773Y-82932643D01*
X198675921Y-82954587D01*
X198665956Y-82975657D01*
X198653974Y-82995648D01*
X198640090Y-83014368D01*
X198624438Y-83031638D01*
X198607168Y-83047290D01*
X198588448Y-83061174D01*
X198568457Y-83073156D01*
X198547387Y-83083121D01*
X198525443Y-83090973D01*
X198502834Y-83096637D01*
X198479779Y-83100056D01*
X198456500Y-83101200D01*
X197881500Y-83101200D01*
X197858221Y-83100056D01*
X197835166Y-83096637D01*
X197812557Y-83090973D01*
X197790613Y-83083121D01*
X197769543Y-83073156D01*
X197749552Y-83061174D01*
X197730832Y-83047290D01*
X197713562Y-83031638D01*
X197697910Y-83014368D01*
X197684026Y-82995648D01*
X197672044Y-82975657D01*
X197662079Y-82954587D01*
X197654227Y-82932643D01*
X197648563Y-82910034D01*
X197645144Y-82886979D01*
X197644000Y-82863700D01*
X197644000Y-82388700D01*
X197645144Y-82365421D01*
X197648563Y-82342366D01*
X197654227Y-82319757D01*
X197662079Y-82297813D01*
X197672044Y-82276743D01*
X197684026Y-82256752D01*
X197697910Y-82238032D01*
X197713562Y-82220762D01*
X197730832Y-82205110D01*
X197749552Y-82191226D01*
X197769543Y-82179244D01*
X197790613Y-82169279D01*
X197812557Y-82161427D01*
X197835166Y-82155763D01*
X197858221Y-82152344D01*
X197881500Y-82151200D01*
X198456500Y-82151200D01*
X198479779Y-82152344D01*
G37*
G36*
X196729779Y-82152344D02*
G01*
X196752834Y-82155763D01*
X196775443Y-82161427D01*
X196797387Y-82169279D01*
X196818457Y-82179244D01*
X196838448Y-82191226D01*
X196857168Y-82205110D01*
X196874438Y-82220762D01*
X196890090Y-82238032D01*
X196903974Y-82256752D01*
X196915956Y-82276743D01*
X196925921Y-82297813D01*
X196933773Y-82319757D01*
X196939437Y-82342366D01*
X196942856Y-82365421D01*
X196944000Y-82388700D01*
X196944000Y-82863700D01*
X196942856Y-82886979D01*
X196939437Y-82910034D01*
X196933773Y-82932643D01*
X196925921Y-82954587D01*
X196915956Y-82975657D01*
X196903974Y-82995648D01*
X196890090Y-83014368D01*
X196874438Y-83031638D01*
X196857168Y-83047290D01*
X196838448Y-83061174D01*
X196818457Y-83073156D01*
X196797387Y-83083121D01*
X196775443Y-83090973D01*
X196752834Y-83096637D01*
X196729779Y-83100056D01*
X196706500Y-83101200D01*
X196131500Y-83101200D01*
X196108221Y-83100056D01*
X196085166Y-83096637D01*
X196062557Y-83090973D01*
X196040613Y-83083121D01*
X196019543Y-83073156D01*
X195999552Y-83061174D01*
X195980832Y-83047290D01*
X195963562Y-83031638D01*
X195947910Y-83014368D01*
X195934026Y-82995648D01*
X195922044Y-82975657D01*
X195912079Y-82954587D01*
X195904227Y-82932643D01*
X195898563Y-82910034D01*
X195895144Y-82886979D01*
X195894000Y-82863700D01*
X195894000Y-82388700D01*
X195895144Y-82365421D01*
X195898563Y-82342366D01*
X195904227Y-82319757D01*
X195912079Y-82297813D01*
X195922044Y-82276743D01*
X195934026Y-82256752D01*
X195947910Y-82238032D01*
X195963562Y-82220762D01*
X195980832Y-82205110D01*
X195999552Y-82191226D01*
X196019543Y-82179244D01*
X196040613Y-82169279D01*
X196062557Y-82161427D01*
X196085166Y-82155763D01*
X196108221Y-82152344D01*
X196131500Y-82151200D01*
X196706500Y-82151200D01*
X196729779Y-82152344D01*
G37*
G36*
X201174779Y-106205144D02*
G01*
X201197834Y-106208563D01*
X201220443Y-106214227D01*
X201242387Y-106222079D01*
X201263457Y-106232044D01*
X201283448Y-106244026D01*
X201302168Y-106257910D01*
X201319438Y-106273562D01*
X201335090Y-106290832D01*
X201348974Y-106309552D01*
X201360956Y-106329543D01*
X201370921Y-106350613D01*
X201378773Y-106372557D01*
X201384437Y-106395166D01*
X201387856Y-106418221D01*
X201389000Y-106441500D01*
X201389000Y-107016500D01*
X201387856Y-107039779D01*
X201384437Y-107062834D01*
X201378773Y-107085443D01*
X201370921Y-107107387D01*
X201360956Y-107128457D01*
X201348974Y-107148448D01*
X201335090Y-107167168D01*
X201319438Y-107184438D01*
X201302168Y-107200090D01*
X201283448Y-107213974D01*
X201263457Y-107225956D01*
X201242387Y-107235921D01*
X201220443Y-107243773D01*
X201197834Y-107249437D01*
X201174779Y-107252856D01*
X201151500Y-107254000D01*
X200676500Y-107254000D01*
X200653221Y-107252856D01*
X200630166Y-107249437D01*
X200607557Y-107243773D01*
X200585613Y-107235921D01*
X200564543Y-107225956D01*
X200544552Y-107213974D01*
X200525832Y-107200090D01*
X200508562Y-107184438D01*
X200492910Y-107167168D01*
X200479026Y-107148448D01*
X200467044Y-107128457D01*
X200457079Y-107107387D01*
X200449227Y-107085443D01*
X200443563Y-107062834D01*
X200440144Y-107039779D01*
X200439000Y-107016500D01*
X200439000Y-106441500D01*
X200440144Y-106418221D01*
X200443563Y-106395166D01*
X200449227Y-106372557D01*
X200457079Y-106350613D01*
X200467044Y-106329543D01*
X200479026Y-106309552D01*
X200492910Y-106290832D01*
X200508562Y-106273562D01*
X200525832Y-106257910D01*
X200544552Y-106244026D01*
X200564543Y-106232044D01*
X200585613Y-106222079D01*
X200607557Y-106214227D01*
X200630166Y-106208563D01*
X200653221Y-106205144D01*
X200676500Y-106204000D01*
X201151500Y-106204000D01*
X201174779Y-106205144D01*
G37*
G36*
X201174779Y-104455144D02*
G01*
X201197834Y-104458563D01*
X201220443Y-104464227D01*
X201242387Y-104472079D01*
X201263457Y-104482044D01*
X201283448Y-104494026D01*
X201302168Y-104507910D01*
X201319438Y-104523562D01*
X201335090Y-104540832D01*
X201348974Y-104559552D01*
X201360956Y-104579543D01*
X201370921Y-104600613D01*
X201378773Y-104622557D01*
X201384437Y-104645166D01*
X201387856Y-104668221D01*
X201389000Y-104691500D01*
X201389000Y-105266500D01*
X201387856Y-105289779D01*
X201384437Y-105312834D01*
X201378773Y-105335443D01*
X201370921Y-105357387D01*
X201360956Y-105378457D01*
X201348974Y-105398448D01*
X201335090Y-105417168D01*
X201319438Y-105434438D01*
X201302168Y-105450090D01*
X201283448Y-105463974D01*
X201263457Y-105475956D01*
X201242387Y-105485921D01*
X201220443Y-105493773D01*
X201197834Y-105499437D01*
X201174779Y-105502856D01*
X201151500Y-105504000D01*
X200676500Y-105504000D01*
X200653221Y-105502856D01*
X200630166Y-105499437D01*
X200607557Y-105493773D01*
X200585613Y-105485921D01*
X200564543Y-105475956D01*
X200544552Y-105463974D01*
X200525832Y-105450090D01*
X200508562Y-105434438D01*
X200492910Y-105417168D01*
X200479026Y-105398448D01*
X200467044Y-105378457D01*
X200457079Y-105357387D01*
X200449227Y-105335443D01*
X200443563Y-105312834D01*
X200440144Y-105289779D01*
X200439000Y-105266500D01*
X200439000Y-104691500D01*
X200440144Y-104668221D01*
X200443563Y-104645166D01*
X200449227Y-104622557D01*
X200457079Y-104600613D01*
X200467044Y-104579543D01*
X200479026Y-104559552D01*
X200492910Y-104540832D01*
X200508562Y-104523562D01*
X200525832Y-104507910D01*
X200544552Y-104494026D01*
X200564543Y-104482044D01*
X200585613Y-104472079D01*
X200607557Y-104464227D01*
X200630166Y-104458563D01*
X200653221Y-104455144D01*
X200676500Y-104454000D01*
X201151500Y-104454000D01*
X201174779Y-104455144D01*
G37*
G36*
X205365779Y-96554144D02*
G01*
X205388834Y-96557563D01*
X205411443Y-96563227D01*
X205433387Y-96571079D01*
X205454457Y-96581044D01*
X205474448Y-96593026D01*
X205493168Y-96606910D01*
X205510438Y-96622562D01*
X205526090Y-96639832D01*
X205539974Y-96658552D01*
X205551956Y-96678543D01*
X205561921Y-96699613D01*
X205569773Y-96721557D01*
X205575437Y-96744166D01*
X205578856Y-96767221D01*
X205580000Y-96790500D01*
X205580000Y-97265500D01*
X205578856Y-97288779D01*
X205575437Y-97311834D01*
X205569773Y-97334443D01*
X205561921Y-97356387D01*
X205551956Y-97377457D01*
X205539974Y-97397448D01*
X205526090Y-97416168D01*
X205510438Y-97433438D01*
X205493168Y-97449090D01*
X205474448Y-97462974D01*
X205454457Y-97474956D01*
X205433387Y-97484921D01*
X205411443Y-97492773D01*
X205388834Y-97498437D01*
X205365779Y-97501856D01*
X205342500Y-97503000D01*
X204767500Y-97503000D01*
X204744221Y-97501856D01*
X204721166Y-97498437D01*
X204698557Y-97492773D01*
X204676613Y-97484921D01*
X204655543Y-97474956D01*
X204635552Y-97462974D01*
X204616832Y-97449090D01*
X204599562Y-97433438D01*
X204583910Y-97416168D01*
X204570026Y-97397448D01*
X204558044Y-97377457D01*
X204548079Y-97356387D01*
X204540227Y-97334443D01*
X204534563Y-97311834D01*
X204531144Y-97288779D01*
X204530000Y-97265500D01*
X204530000Y-96790500D01*
X204531144Y-96767221D01*
X204534563Y-96744166D01*
X204540227Y-96721557D01*
X204548079Y-96699613D01*
X204558044Y-96678543D01*
X204570026Y-96658552D01*
X204583910Y-96639832D01*
X204599562Y-96622562D01*
X204616832Y-96606910D01*
X204635552Y-96593026D01*
X204655543Y-96581044D01*
X204676613Y-96571079D01*
X204698557Y-96563227D01*
X204721166Y-96557563D01*
X204744221Y-96554144D01*
X204767500Y-96553000D01*
X205342500Y-96553000D01*
X205365779Y-96554144D01*
G37*
G36*
X207115779Y-96554144D02*
G01*
X207138834Y-96557563D01*
X207161443Y-96563227D01*
X207183387Y-96571079D01*
X207204457Y-96581044D01*
X207224448Y-96593026D01*
X207243168Y-96606910D01*
X207260438Y-96622562D01*
X207276090Y-96639832D01*
X207289974Y-96658552D01*
X207301956Y-96678543D01*
X207311921Y-96699613D01*
X207319773Y-96721557D01*
X207325437Y-96744166D01*
X207328856Y-96767221D01*
X207330000Y-96790500D01*
X207330000Y-97265500D01*
X207328856Y-97288779D01*
X207325437Y-97311834D01*
X207319773Y-97334443D01*
X207311921Y-97356387D01*
X207301956Y-97377457D01*
X207289974Y-97397448D01*
X207276090Y-97416168D01*
X207260438Y-97433438D01*
X207243168Y-97449090D01*
X207224448Y-97462974D01*
X207204457Y-97474956D01*
X207183387Y-97484921D01*
X207161443Y-97492773D01*
X207138834Y-97498437D01*
X207115779Y-97501856D01*
X207092500Y-97503000D01*
X206517500Y-97503000D01*
X206494221Y-97501856D01*
X206471166Y-97498437D01*
X206448557Y-97492773D01*
X206426613Y-97484921D01*
X206405543Y-97474956D01*
X206385552Y-97462974D01*
X206366832Y-97449090D01*
X206349562Y-97433438D01*
X206333910Y-97416168D01*
X206320026Y-97397448D01*
X206308044Y-97377457D01*
X206298079Y-97356387D01*
X206290227Y-97334443D01*
X206284563Y-97311834D01*
X206281144Y-97288779D01*
X206280000Y-97265500D01*
X206280000Y-96790500D01*
X206281144Y-96767221D01*
X206284563Y-96744166D01*
X206290227Y-96721557D01*
X206298079Y-96699613D01*
X206308044Y-96678543D01*
X206320026Y-96658552D01*
X206333910Y-96639832D01*
X206349562Y-96622562D01*
X206366832Y-96606910D01*
X206385552Y-96593026D01*
X206405543Y-96581044D01*
X206426613Y-96571079D01*
X206448557Y-96563227D01*
X206471166Y-96557563D01*
X206494221Y-96554144D01*
X206517500Y-96553000D01*
X207092500Y-96553000D01*
X207115779Y-96554144D01*
G37*
G36*
X203891779Y-76297644D02*
G01*
X203914834Y-76301063D01*
X203937443Y-76306727D01*
X203959387Y-76314579D01*
X203980457Y-76324544D01*
X204000448Y-76336526D01*
X204019168Y-76350410D01*
X204036438Y-76366062D01*
X204052090Y-76383332D01*
X204065974Y-76402052D01*
X204077956Y-76422043D01*
X204087921Y-76443113D01*
X204095773Y-76465057D01*
X204101437Y-76487666D01*
X204104856Y-76510721D01*
X204106000Y-76534000D01*
X204106000Y-77009000D01*
X204104856Y-77032279D01*
X204101437Y-77055334D01*
X204095773Y-77077943D01*
X204087921Y-77099887D01*
X204077956Y-77120957D01*
X204065974Y-77140948D01*
X204052090Y-77159668D01*
X204036438Y-77176938D01*
X204019168Y-77192590D01*
X204000448Y-77206474D01*
X203980457Y-77218456D01*
X203959387Y-77228421D01*
X203937443Y-77236273D01*
X203914834Y-77241937D01*
X203891779Y-77245356D01*
X203868500Y-77246500D01*
X203293500Y-77246500D01*
X203270221Y-77245356D01*
X203247166Y-77241937D01*
X203224557Y-77236273D01*
X203202613Y-77228421D01*
X203181543Y-77218456D01*
X203161552Y-77206474D01*
X203142832Y-77192590D01*
X203125562Y-77176938D01*
X203109910Y-77159668D01*
X203096026Y-77140948D01*
X203084044Y-77120957D01*
X203074079Y-77099887D01*
X203066227Y-77077943D01*
X203060563Y-77055334D01*
X203057144Y-77032279D01*
X203056000Y-77009000D01*
X203056000Y-76534000D01*
X203057144Y-76510721D01*
X203060563Y-76487666D01*
X203066227Y-76465057D01*
X203074079Y-76443113D01*
X203084044Y-76422043D01*
X203096026Y-76402052D01*
X203109910Y-76383332D01*
X203125562Y-76366062D01*
X203142832Y-76350410D01*
X203161552Y-76336526D01*
X203181543Y-76324544D01*
X203202613Y-76314579D01*
X203224557Y-76306727D01*
X203247166Y-76301063D01*
X203270221Y-76297644D01*
X203293500Y-76296500D01*
X203868500Y-76296500D01*
X203891779Y-76297644D01*
G37*
G36*
X202141779Y-76297644D02*
G01*
X202164834Y-76301063D01*
X202187443Y-76306727D01*
X202209387Y-76314579D01*
X202230457Y-76324544D01*
X202250448Y-76336526D01*
X202269168Y-76350410D01*
X202286438Y-76366062D01*
X202302090Y-76383332D01*
X202315974Y-76402052D01*
X202327956Y-76422043D01*
X202337921Y-76443113D01*
X202345773Y-76465057D01*
X202351437Y-76487666D01*
X202354856Y-76510721D01*
X202356000Y-76534000D01*
X202356000Y-77009000D01*
X202354856Y-77032279D01*
X202351437Y-77055334D01*
X202345773Y-77077943D01*
X202337921Y-77099887D01*
X202327956Y-77120957D01*
X202315974Y-77140948D01*
X202302090Y-77159668D01*
X202286438Y-77176938D01*
X202269168Y-77192590D01*
X202250448Y-77206474D01*
X202230457Y-77218456D01*
X202209387Y-77228421D01*
X202187443Y-77236273D01*
X202164834Y-77241937D01*
X202141779Y-77245356D01*
X202118500Y-77246500D01*
X201543500Y-77246500D01*
X201520221Y-77245356D01*
X201497166Y-77241937D01*
X201474557Y-77236273D01*
X201452613Y-77228421D01*
X201431543Y-77218456D01*
X201411552Y-77206474D01*
X201392832Y-77192590D01*
X201375562Y-77176938D01*
X201359910Y-77159668D01*
X201346026Y-77140948D01*
X201334044Y-77120957D01*
X201324079Y-77099887D01*
X201316227Y-77077943D01*
X201310563Y-77055334D01*
X201307144Y-77032279D01*
X201306000Y-77009000D01*
X201306000Y-76534000D01*
X201307144Y-76510721D01*
X201310563Y-76487666D01*
X201316227Y-76465057D01*
X201324079Y-76443113D01*
X201334044Y-76422043D01*
X201346026Y-76402052D01*
X201359910Y-76383332D01*
X201375562Y-76366062D01*
X201392832Y-76350410D01*
X201411552Y-76336526D01*
X201431543Y-76324544D01*
X201452613Y-76314579D01*
X201474557Y-76306727D01*
X201497166Y-76301063D01*
X201520221Y-76297644D01*
X201543500Y-76296500D01*
X202118500Y-76296500D01*
X202141779Y-76297644D01*
G37*
G36*
X204427779Y-72170144D02*
G01*
X204450834Y-72173563D01*
X204473443Y-72179227D01*
X204495387Y-72187079D01*
X204516457Y-72197044D01*
X204536448Y-72209026D01*
X204555168Y-72222910D01*
X204572438Y-72238562D01*
X204588090Y-72255832D01*
X204601974Y-72274552D01*
X204613956Y-72294543D01*
X204623921Y-72315613D01*
X204631773Y-72337557D01*
X204637437Y-72360166D01*
X204640856Y-72383221D01*
X204642000Y-72406500D01*
X204642000Y-72881500D01*
X204640856Y-72904779D01*
X204637437Y-72927834D01*
X204631773Y-72950443D01*
X204623921Y-72972387D01*
X204613956Y-72993457D01*
X204601974Y-73013448D01*
X204588090Y-73032168D01*
X204572438Y-73049438D01*
X204555168Y-73065090D01*
X204536448Y-73078974D01*
X204516457Y-73090956D01*
X204495387Y-73100921D01*
X204473443Y-73108773D01*
X204450834Y-73114437D01*
X204427779Y-73117856D01*
X204404500Y-73119000D01*
X203829500Y-73119000D01*
X203806221Y-73117856D01*
X203783166Y-73114437D01*
X203760557Y-73108773D01*
X203738613Y-73100921D01*
X203717543Y-73090956D01*
X203697552Y-73078974D01*
X203678832Y-73065090D01*
X203661562Y-73049438D01*
X203645910Y-73032168D01*
X203632026Y-73013448D01*
X203620044Y-72993457D01*
X203610079Y-72972387D01*
X203602227Y-72950443D01*
X203596563Y-72927834D01*
X203593144Y-72904779D01*
X203592000Y-72881500D01*
X203592000Y-72406500D01*
X203593144Y-72383221D01*
X203596563Y-72360166D01*
X203602227Y-72337557D01*
X203610079Y-72315613D01*
X203620044Y-72294543D01*
X203632026Y-72274552D01*
X203645910Y-72255832D01*
X203661562Y-72238562D01*
X203678832Y-72222910D01*
X203697552Y-72209026D01*
X203717543Y-72197044D01*
X203738613Y-72187079D01*
X203760557Y-72179227D01*
X203783166Y-72173563D01*
X203806221Y-72170144D01*
X203829500Y-72169000D01*
X204404500Y-72169000D01*
X204427779Y-72170144D01*
G37*
G36*
X206177779Y-72170144D02*
G01*
X206200834Y-72173563D01*
X206223443Y-72179227D01*
X206245387Y-72187079D01*
X206266457Y-72197044D01*
X206286448Y-72209026D01*
X206305168Y-72222910D01*
X206322438Y-72238562D01*
X206338090Y-72255832D01*
X206351974Y-72274552D01*
X206363956Y-72294543D01*
X206373921Y-72315613D01*
X206381773Y-72337557D01*
X206387437Y-72360166D01*
X206390856Y-72383221D01*
X206392000Y-72406500D01*
X206392000Y-72881500D01*
X206390856Y-72904779D01*
X206387437Y-72927834D01*
X206381773Y-72950443D01*
X206373921Y-72972387D01*
X206363956Y-72993457D01*
X206351974Y-73013448D01*
X206338090Y-73032168D01*
X206322438Y-73049438D01*
X206305168Y-73065090D01*
X206286448Y-73078974D01*
X206266457Y-73090956D01*
X206245387Y-73100921D01*
X206223443Y-73108773D01*
X206200834Y-73114437D01*
X206177779Y-73117856D01*
X206154500Y-73119000D01*
X205579500Y-73119000D01*
X205556221Y-73117856D01*
X205533166Y-73114437D01*
X205510557Y-73108773D01*
X205488613Y-73100921D01*
X205467543Y-73090956D01*
X205447552Y-73078974D01*
X205428832Y-73065090D01*
X205411562Y-73049438D01*
X205395910Y-73032168D01*
X205382026Y-73013448D01*
X205370044Y-72993457D01*
X205360079Y-72972387D01*
X205352227Y-72950443D01*
X205346563Y-72927834D01*
X205343144Y-72904779D01*
X205342000Y-72881500D01*
X205342000Y-72406500D01*
X205343144Y-72383221D01*
X205346563Y-72360166D01*
X205352227Y-72337557D01*
X205360079Y-72315613D01*
X205370044Y-72294543D01*
X205382026Y-72274552D01*
X205395910Y-72255832D01*
X205411562Y-72238562D01*
X205428832Y-72222910D01*
X205447552Y-72209026D01*
X205467543Y-72197044D01*
X205488613Y-72187079D01*
X205510557Y-72179227D01*
X205533166Y-72173563D01*
X205556221Y-72170144D01*
X205579500Y-72169000D01*
X206154500Y-72169000D01*
X206177779Y-72170144D01*
G37*
G36*
X202229379Y-89188144D02*
G01*
X202252434Y-89191563D01*
X202275043Y-89197227D01*
X202296987Y-89205079D01*
X202318057Y-89215044D01*
X202338048Y-89227026D01*
X202356768Y-89240910D01*
X202374038Y-89256562D01*
X202389690Y-89273832D01*
X202403574Y-89292552D01*
X202415556Y-89312543D01*
X202425521Y-89333613D01*
X202433373Y-89355557D01*
X202439037Y-89378166D01*
X202442456Y-89401221D01*
X202443600Y-89424500D01*
X202443600Y-89899500D01*
X202442456Y-89922779D01*
X202439037Y-89945834D01*
X202433373Y-89968443D01*
X202425521Y-89990387D01*
X202415556Y-90011457D01*
X202403574Y-90031448D01*
X202389690Y-90050168D01*
X202374038Y-90067438D01*
X202356768Y-90083090D01*
X202338048Y-90096974D01*
X202318057Y-90108956D01*
X202296987Y-90118921D01*
X202275043Y-90126773D01*
X202252434Y-90132437D01*
X202229379Y-90135856D01*
X202206100Y-90137000D01*
X201631100Y-90137000D01*
X201607821Y-90135856D01*
X201584766Y-90132437D01*
X201562157Y-90126773D01*
X201540213Y-90118921D01*
X201519143Y-90108956D01*
X201499152Y-90096974D01*
X201480432Y-90083090D01*
X201463162Y-90067438D01*
X201447510Y-90050168D01*
X201433626Y-90031448D01*
X201421644Y-90011457D01*
X201411679Y-89990387D01*
X201403827Y-89968443D01*
X201398163Y-89945834D01*
X201394744Y-89922779D01*
X201393600Y-89899500D01*
X201393600Y-89424500D01*
X201394744Y-89401221D01*
X201398163Y-89378166D01*
X201403827Y-89355557D01*
X201411679Y-89333613D01*
X201421644Y-89312543D01*
X201433626Y-89292552D01*
X201447510Y-89273832D01*
X201463162Y-89256562D01*
X201480432Y-89240910D01*
X201499152Y-89227026D01*
X201519143Y-89215044D01*
X201540213Y-89205079D01*
X201562157Y-89197227D01*
X201584766Y-89191563D01*
X201607821Y-89188144D01*
X201631100Y-89187000D01*
X202206100Y-89187000D01*
X202229379Y-89188144D01*
G37*
G36*
X203979379Y-89188144D02*
G01*
X204002434Y-89191563D01*
X204025043Y-89197227D01*
X204046987Y-89205079D01*
X204068057Y-89215044D01*
X204088048Y-89227026D01*
X204106768Y-89240910D01*
X204124038Y-89256562D01*
X204139690Y-89273832D01*
X204153574Y-89292552D01*
X204165556Y-89312543D01*
X204175521Y-89333613D01*
X204183373Y-89355557D01*
X204189037Y-89378166D01*
X204192456Y-89401221D01*
X204193600Y-89424500D01*
X204193600Y-89899500D01*
X204192456Y-89922779D01*
X204189037Y-89945834D01*
X204183373Y-89968443D01*
X204175521Y-89990387D01*
X204165556Y-90011457D01*
X204153574Y-90031448D01*
X204139690Y-90050168D01*
X204124038Y-90067438D01*
X204106768Y-90083090D01*
X204088048Y-90096974D01*
X204068057Y-90108956D01*
X204046987Y-90118921D01*
X204025043Y-90126773D01*
X204002434Y-90132437D01*
X203979379Y-90135856D01*
X203956100Y-90137000D01*
X203381100Y-90137000D01*
X203357821Y-90135856D01*
X203334766Y-90132437D01*
X203312157Y-90126773D01*
X203290213Y-90118921D01*
X203269143Y-90108956D01*
X203249152Y-90096974D01*
X203230432Y-90083090D01*
X203213162Y-90067438D01*
X203197510Y-90050168D01*
X203183626Y-90031448D01*
X203171644Y-90011457D01*
X203161679Y-89990387D01*
X203153827Y-89968443D01*
X203148163Y-89945834D01*
X203144744Y-89922779D01*
X203143600Y-89899500D01*
X203143600Y-89424500D01*
X203144744Y-89401221D01*
X203148163Y-89378166D01*
X203153827Y-89355557D01*
X203161679Y-89333613D01*
X203171644Y-89312543D01*
X203183626Y-89292552D01*
X203197510Y-89273832D01*
X203213162Y-89256562D01*
X203230432Y-89240910D01*
X203249152Y-89227026D01*
X203269143Y-89215044D01*
X203290213Y-89205079D01*
X203312157Y-89197227D01*
X203334766Y-89191563D01*
X203357821Y-89188144D01*
X203381100Y-89187000D01*
X203956100Y-89187000D01*
X203979379Y-89188144D01*
G37*
G36*
X191713779Y-74900644D02*
G01*
X191736834Y-74904063D01*
X191759443Y-74909727D01*
X191781387Y-74917579D01*
X191802457Y-74927544D01*
X191822448Y-74939526D01*
X191841168Y-74953410D01*
X191858438Y-74969062D01*
X191874090Y-74986332D01*
X191887974Y-75005052D01*
X191899956Y-75025043D01*
X191909921Y-75046113D01*
X191917773Y-75068057D01*
X191923437Y-75090666D01*
X191926856Y-75113721D01*
X191928000Y-75137000D01*
X191928000Y-75612000D01*
X191926856Y-75635279D01*
X191923437Y-75658334D01*
X191917773Y-75680943D01*
X191909921Y-75702887D01*
X191899956Y-75723957D01*
X191887974Y-75743948D01*
X191874090Y-75762668D01*
X191858438Y-75779938D01*
X191841168Y-75795590D01*
X191822448Y-75809474D01*
X191802457Y-75821456D01*
X191781387Y-75831421D01*
X191759443Y-75839273D01*
X191736834Y-75844937D01*
X191713779Y-75848356D01*
X191690500Y-75849500D01*
X191115500Y-75849500D01*
X191092221Y-75848356D01*
X191069166Y-75844937D01*
X191046557Y-75839273D01*
X191024613Y-75831421D01*
X191003543Y-75821456D01*
X190983552Y-75809474D01*
X190964832Y-75795590D01*
X190947562Y-75779938D01*
X190931910Y-75762668D01*
X190918026Y-75743948D01*
X190906044Y-75723957D01*
X190896079Y-75702887D01*
X190888227Y-75680943D01*
X190882563Y-75658334D01*
X190879144Y-75635279D01*
X190878000Y-75612000D01*
X190878000Y-75137000D01*
X190879144Y-75113721D01*
X190882563Y-75090666D01*
X190888227Y-75068057D01*
X190896079Y-75046113D01*
X190906044Y-75025043D01*
X190918026Y-75005052D01*
X190931910Y-74986332D01*
X190947562Y-74969062D01*
X190964832Y-74953410D01*
X190983552Y-74939526D01*
X191003543Y-74927544D01*
X191024613Y-74917579D01*
X191046557Y-74909727D01*
X191069166Y-74904063D01*
X191092221Y-74900644D01*
X191115500Y-74899500D01*
X191690500Y-74899500D01*
X191713779Y-74900644D01*
G37*
G36*
X193463779Y-74900644D02*
G01*
X193486834Y-74904063D01*
X193509443Y-74909727D01*
X193531387Y-74917579D01*
X193552457Y-74927544D01*
X193572448Y-74939526D01*
X193591168Y-74953410D01*
X193608438Y-74969062D01*
X193624090Y-74986332D01*
X193637974Y-75005052D01*
X193649956Y-75025043D01*
X193659921Y-75046113D01*
X193667773Y-75068057D01*
X193673437Y-75090666D01*
X193676856Y-75113721D01*
X193678000Y-75137000D01*
X193678000Y-75612000D01*
X193676856Y-75635279D01*
X193673437Y-75658334D01*
X193667773Y-75680943D01*
X193659921Y-75702887D01*
X193649956Y-75723957D01*
X193637974Y-75743948D01*
X193624090Y-75762668D01*
X193608438Y-75779938D01*
X193591168Y-75795590D01*
X193572448Y-75809474D01*
X193552457Y-75821456D01*
X193531387Y-75831421D01*
X193509443Y-75839273D01*
X193486834Y-75844937D01*
X193463779Y-75848356D01*
X193440500Y-75849500D01*
X192865500Y-75849500D01*
X192842221Y-75848356D01*
X192819166Y-75844937D01*
X192796557Y-75839273D01*
X192774613Y-75831421D01*
X192753543Y-75821456D01*
X192733552Y-75809474D01*
X192714832Y-75795590D01*
X192697562Y-75779938D01*
X192681910Y-75762668D01*
X192668026Y-75743948D01*
X192656044Y-75723957D01*
X192646079Y-75702887D01*
X192638227Y-75680943D01*
X192632563Y-75658334D01*
X192629144Y-75635279D01*
X192628000Y-75612000D01*
X192628000Y-75137000D01*
X192629144Y-75113721D01*
X192632563Y-75090666D01*
X192638227Y-75068057D01*
X192646079Y-75046113D01*
X192656044Y-75025043D01*
X192668026Y-75005052D01*
X192681910Y-74986332D01*
X192697562Y-74969062D01*
X192714832Y-74953410D01*
X192733552Y-74939526D01*
X192753543Y-74927544D01*
X192774613Y-74917579D01*
X192796557Y-74909727D01*
X192819166Y-74904063D01*
X192842221Y-74900644D01*
X192865500Y-74899500D01*
X193440500Y-74899500D01*
X193463779Y-74900644D01*
G37*
G36*
X109257703Y-114848722D02*
G01*
X109272264Y-114850882D01*
X109286543Y-114854459D01*
X109300403Y-114859418D01*
X109313710Y-114865712D01*
X109326336Y-114873280D01*
X109338159Y-114882048D01*
X109349066Y-114891934D01*
X109358952Y-114902841D01*
X109367720Y-114914664D01*
X109375288Y-114927290D01*
X109381582Y-114940597D01*
X109386541Y-114954457D01*
X109390118Y-114968736D01*
X109392278Y-114983297D01*
X109393000Y-114998000D01*
X109393000Y-116648000D01*
X109392278Y-116662703D01*
X109390118Y-116677264D01*
X109386541Y-116691543D01*
X109381582Y-116705403D01*
X109375288Y-116718710D01*
X109367720Y-116731336D01*
X109358952Y-116743159D01*
X109349066Y-116754066D01*
X109338159Y-116763952D01*
X109326336Y-116772720D01*
X109313710Y-116780288D01*
X109300403Y-116786582D01*
X109286543Y-116791541D01*
X109272264Y-116795118D01*
X109257703Y-116797278D01*
X109243000Y-116798000D01*
X108943000Y-116798000D01*
X108928297Y-116797278D01*
X108913736Y-116795118D01*
X108899457Y-116791541D01*
X108885597Y-116786582D01*
X108872290Y-116780288D01*
X108859664Y-116772720D01*
X108847841Y-116763952D01*
X108836934Y-116754066D01*
X108827048Y-116743159D01*
X108818280Y-116731336D01*
X108810712Y-116718710D01*
X108804418Y-116705403D01*
X108799459Y-116691543D01*
X108795882Y-116677264D01*
X108793722Y-116662703D01*
X108793000Y-116648000D01*
X108793000Y-114998000D01*
X108793722Y-114983297D01*
X108795882Y-114968736D01*
X108799459Y-114954457D01*
X108804418Y-114940597D01*
X108810712Y-114927290D01*
X108818280Y-114914664D01*
X108827048Y-114902841D01*
X108836934Y-114891934D01*
X108847841Y-114882048D01*
X108859664Y-114873280D01*
X108872290Y-114865712D01*
X108885597Y-114859418D01*
X108899457Y-114854459D01*
X108913736Y-114850882D01*
X108928297Y-114848722D01*
X108943000Y-114848000D01*
X109243000Y-114848000D01*
X109257703Y-114848722D01*
G37*
G36*
X110527703Y-114848722D02*
G01*
X110542264Y-114850882D01*
X110556543Y-114854459D01*
X110570403Y-114859418D01*
X110583710Y-114865712D01*
X110596336Y-114873280D01*
X110608159Y-114882048D01*
X110619066Y-114891934D01*
X110628952Y-114902841D01*
X110637720Y-114914664D01*
X110645288Y-114927290D01*
X110651582Y-114940597D01*
X110656541Y-114954457D01*
X110660118Y-114968736D01*
X110662278Y-114983297D01*
X110663000Y-114998000D01*
X110663000Y-116648000D01*
X110662278Y-116662703D01*
X110660118Y-116677264D01*
X110656541Y-116691543D01*
X110651582Y-116705403D01*
X110645288Y-116718710D01*
X110637720Y-116731336D01*
X110628952Y-116743159D01*
X110619066Y-116754066D01*
X110608159Y-116763952D01*
X110596336Y-116772720D01*
X110583710Y-116780288D01*
X110570403Y-116786582D01*
X110556543Y-116791541D01*
X110542264Y-116795118D01*
X110527703Y-116797278D01*
X110513000Y-116798000D01*
X110213000Y-116798000D01*
X110198297Y-116797278D01*
X110183736Y-116795118D01*
X110169457Y-116791541D01*
X110155597Y-116786582D01*
X110142290Y-116780288D01*
X110129664Y-116772720D01*
X110117841Y-116763952D01*
X110106934Y-116754066D01*
X110097048Y-116743159D01*
X110088280Y-116731336D01*
X110080712Y-116718710D01*
X110074418Y-116705403D01*
X110069459Y-116691543D01*
X110065882Y-116677264D01*
X110063722Y-116662703D01*
X110063000Y-116648000D01*
X110063000Y-114998000D01*
X110063722Y-114983297D01*
X110065882Y-114968736D01*
X110069459Y-114954457D01*
X110074418Y-114940597D01*
X110080712Y-114927290D01*
X110088280Y-114914664D01*
X110097048Y-114902841D01*
X110106934Y-114891934D01*
X110117841Y-114882048D01*
X110129664Y-114873280D01*
X110142290Y-114865712D01*
X110155597Y-114859418D01*
X110169457Y-114854459D01*
X110183736Y-114850882D01*
X110198297Y-114848722D01*
X110213000Y-114848000D01*
X110513000Y-114848000D01*
X110527703Y-114848722D01*
G37*
G36*
X111797703Y-114848722D02*
G01*
X111812264Y-114850882D01*
X111826543Y-114854459D01*
X111840403Y-114859418D01*
X111853710Y-114865712D01*
X111866336Y-114873280D01*
X111878159Y-114882048D01*
X111889066Y-114891934D01*
X111898952Y-114902841D01*
X111907720Y-114914664D01*
X111915288Y-114927290D01*
X111921582Y-114940597D01*
X111926541Y-114954457D01*
X111930118Y-114968736D01*
X111932278Y-114983297D01*
X111933000Y-114998000D01*
X111933000Y-116648000D01*
X111932278Y-116662703D01*
X111930118Y-116677264D01*
X111926541Y-116691543D01*
X111921582Y-116705403D01*
X111915288Y-116718710D01*
X111907720Y-116731336D01*
X111898952Y-116743159D01*
X111889066Y-116754066D01*
X111878159Y-116763952D01*
X111866336Y-116772720D01*
X111853710Y-116780288D01*
X111840403Y-116786582D01*
X111826543Y-116791541D01*
X111812264Y-116795118D01*
X111797703Y-116797278D01*
X111783000Y-116798000D01*
X111483000Y-116798000D01*
X111468297Y-116797278D01*
X111453736Y-116795118D01*
X111439457Y-116791541D01*
X111425597Y-116786582D01*
X111412290Y-116780288D01*
X111399664Y-116772720D01*
X111387841Y-116763952D01*
X111376934Y-116754066D01*
X111367048Y-116743159D01*
X111358280Y-116731336D01*
X111350712Y-116718710D01*
X111344418Y-116705403D01*
X111339459Y-116691543D01*
X111335882Y-116677264D01*
X111333722Y-116662703D01*
X111333000Y-116648000D01*
X111333000Y-114998000D01*
X111333722Y-114983297D01*
X111335882Y-114968736D01*
X111339459Y-114954457D01*
X111344418Y-114940597D01*
X111350712Y-114927290D01*
X111358280Y-114914664D01*
X111367048Y-114902841D01*
X111376934Y-114891934D01*
X111387841Y-114882048D01*
X111399664Y-114873280D01*
X111412290Y-114865712D01*
X111425597Y-114859418D01*
X111439457Y-114854459D01*
X111453736Y-114850882D01*
X111468297Y-114848722D01*
X111483000Y-114848000D01*
X111783000Y-114848000D01*
X111797703Y-114848722D01*
G37*
G36*
X113067703Y-114848722D02*
G01*
X113082264Y-114850882D01*
X113096543Y-114854459D01*
X113110403Y-114859418D01*
X113123710Y-114865712D01*
X113136336Y-114873280D01*
X113148159Y-114882048D01*
X113159066Y-114891934D01*
X113168952Y-114902841D01*
X113177720Y-114914664D01*
X113185288Y-114927290D01*
X113191582Y-114940597D01*
X113196541Y-114954457D01*
X113200118Y-114968736D01*
X113202278Y-114983297D01*
X113203000Y-114998000D01*
X113203000Y-116648000D01*
X113202278Y-116662703D01*
X113200118Y-116677264D01*
X113196541Y-116691543D01*
X113191582Y-116705403D01*
X113185288Y-116718710D01*
X113177720Y-116731336D01*
X113168952Y-116743159D01*
X113159066Y-116754066D01*
X113148159Y-116763952D01*
X113136336Y-116772720D01*
X113123710Y-116780288D01*
X113110403Y-116786582D01*
X113096543Y-116791541D01*
X113082264Y-116795118D01*
X113067703Y-116797278D01*
X113053000Y-116798000D01*
X112753000Y-116798000D01*
X112738297Y-116797278D01*
X112723736Y-116795118D01*
X112709457Y-116791541D01*
X112695597Y-116786582D01*
X112682290Y-116780288D01*
X112669664Y-116772720D01*
X112657841Y-116763952D01*
X112646934Y-116754066D01*
X112637048Y-116743159D01*
X112628280Y-116731336D01*
X112620712Y-116718710D01*
X112614418Y-116705403D01*
X112609459Y-116691543D01*
X112605882Y-116677264D01*
X112603722Y-116662703D01*
X112603000Y-116648000D01*
X112603000Y-114998000D01*
X112603722Y-114983297D01*
X112605882Y-114968736D01*
X112609459Y-114954457D01*
X112614418Y-114940597D01*
X112620712Y-114927290D01*
X112628280Y-114914664D01*
X112637048Y-114902841D01*
X112646934Y-114891934D01*
X112657841Y-114882048D01*
X112669664Y-114873280D01*
X112682290Y-114865712D01*
X112695597Y-114859418D01*
X112709457Y-114854459D01*
X112723736Y-114850882D01*
X112738297Y-114848722D01*
X112753000Y-114848000D01*
X113053000Y-114848000D01*
X113067703Y-114848722D01*
G37*
G36*
X113067703Y-109898722D02*
G01*
X113082264Y-109900882D01*
X113096543Y-109904459D01*
X113110403Y-109909418D01*
X113123710Y-109915712D01*
X113136336Y-109923280D01*
X113148159Y-109932048D01*
X113159066Y-109941934D01*
X113168952Y-109952841D01*
X113177720Y-109964664D01*
X113185288Y-109977290D01*
X113191582Y-109990597D01*
X113196541Y-110004457D01*
X113200118Y-110018736D01*
X113202278Y-110033297D01*
X113203000Y-110048000D01*
X113203000Y-111698000D01*
X113202278Y-111712703D01*
X113200118Y-111727264D01*
X113196541Y-111741543D01*
X113191582Y-111755403D01*
X113185288Y-111768710D01*
X113177720Y-111781336D01*
X113168952Y-111793159D01*
X113159066Y-111804066D01*
X113148159Y-111813952D01*
X113136336Y-111822720D01*
X113123710Y-111830288D01*
X113110403Y-111836582D01*
X113096543Y-111841541D01*
X113082264Y-111845118D01*
X113067703Y-111847278D01*
X113053000Y-111848000D01*
X112753000Y-111848000D01*
X112738297Y-111847278D01*
X112723736Y-111845118D01*
X112709457Y-111841541D01*
X112695597Y-111836582D01*
X112682290Y-111830288D01*
X112669664Y-111822720D01*
X112657841Y-111813952D01*
X112646934Y-111804066D01*
X112637048Y-111793159D01*
X112628280Y-111781336D01*
X112620712Y-111768710D01*
X112614418Y-111755403D01*
X112609459Y-111741543D01*
X112605882Y-111727264D01*
X112603722Y-111712703D01*
X112603000Y-111698000D01*
X112603000Y-110048000D01*
X112603722Y-110033297D01*
X112605882Y-110018736D01*
X112609459Y-110004457D01*
X112614418Y-109990597D01*
X112620712Y-109977290D01*
X112628280Y-109964664D01*
X112637048Y-109952841D01*
X112646934Y-109941934D01*
X112657841Y-109932048D01*
X112669664Y-109923280D01*
X112682290Y-109915712D01*
X112695597Y-109909418D01*
X112709457Y-109904459D01*
X112723736Y-109900882D01*
X112738297Y-109898722D01*
X112753000Y-109898000D01*
X113053000Y-109898000D01*
X113067703Y-109898722D01*
G37*
G36*
X111797703Y-109898722D02*
G01*
X111812264Y-109900882D01*
X111826543Y-109904459D01*
X111840403Y-109909418D01*
X111853710Y-109915712D01*
X111866336Y-109923280D01*
X111878159Y-109932048D01*
X111889066Y-109941934D01*
X111898952Y-109952841D01*
X111907720Y-109964664D01*
X111915288Y-109977290D01*
X111921582Y-109990597D01*
X111926541Y-110004457D01*
X111930118Y-110018736D01*
X111932278Y-110033297D01*
X111933000Y-110048000D01*
X111933000Y-111698000D01*
X111932278Y-111712703D01*
X111930118Y-111727264D01*
X111926541Y-111741543D01*
X111921582Y-111755403D01*
X111915288Y-111768710D01*
X111907720Y-111781336D01*
X111898952Y-111793159D01*
X111889066Y-111804066D01*
X111878159Y-111813952D01*
X111866336Y-111822720D01*
X111853710Y-111830288D01*
X111840403Y-111836582D01*
X111826543Y-111841541D01*
X111812264Y-111845118D01*
X111797703Y-111847278D01*
X111783000Y-111848000D01*
X111483000Y-111848000D01*
X111468297Y-111847278D01*
X111453736Y-111845118D01*
X111439457Y-111841541D01*
X111425597Y-111836582D01*
X111412290Y-111830288D01*
X111399664Y-111822720D01*
X111387841Y-111813952D01*
X111376934Y-111804066D01*
X111367048Y-111793159D01*
X111358280Y-111781336D01*
X111350712Y-111768710D01*
X111344418Y-111755403D01*
X111339459Y-111741543D01*
X111335882Y-111727264D01*
X111333722Y-111712703D01*
X111333000Y-111698000D01*
X111333000Y-110048000D01*
X111333722Y-110033297D01*
X111335882Y-110018736D01*
X111339459Y-110004457D01*
X111344418Y-109990597D01*
X111350712Y-109977290D01*
X111358280Y-109964664D01*
X111367048Y-109952841D01*
X111376934Y-109941934D01*
X111387841Y-109932048D01*
X111399664Y-109923280D01*
X111412290Y-109915712D01*
X111425597Y-109909418D01*
X111439457Y-109904459D01*
X111453736Y-109900882D01*
X111468297Y-109898722D01*
X111483000Y-109898000D01*
X111783000Y-109898000D01*
X111797703Y-109898722D01*
G37*
G36*
X110527703Y-109898722D02*
G01*
X110542264Y-109900882D01*
X110556543Y-109904459D01*
X110570403Y-109909418D01*
X110583710Y-109915712D01*
X110596336Y-109923280D01*
X110608159Y-109932048D01*
X110619066Y-109941934D01*
X110628952Y-109952841D01*
X110637720Y-109964664D01*
X110645288Y-109977290D01*
X110651582Y-109990597D01*
X110656541Y-110004457D01*
X110660118Y-110018736D01*
X110662278Y-110033297D01*
X110663000Y-110048000D01*
X110663000Y-111698000D01*
X110662278Y-111712703D01*
X110660118Y-111727264D01*
X110656541Y-111741543D01*
X110651582Y-111755403D01*
X110645288Y-111768710D01*
X110637720Y-111781336D01*
X110628952Y-111793159D01*
X110619066Y-111804066D01*
X110608159Y-111813952D01*
X110596336Y-111822720D01*
X110583710Y-111830288D01*
X110570403Y-111836582D01*
X110556543Y-111841541D01*
X110542264Y-111845118D01*
X110527703Y-111847278D01*
X110513000Y-111848000D01*
X110213000Y-111848000D01*
X110198297Y-111847278D01*
X110183736Y-111845118D01*
X110169457Y-111841541D01*
X110155597Y-111836582D01*
X110142290Y-111830288D01*
X110129664Y-111822720D01*
X110117841Y-111813952D01*
X110106934Y-111804066D01*
X110097048Y-111793159D01*
X110088280Y-111781336D01*
X110080712Y-111768710D01*
X110074418Y-111755403D01*
X110069459Y-111741543D01*
X110065882Y-111727264D01*
X110063722Y-111712703D01*
X110063000Y-111698000D01*
X110063000Y-110048000D01*
X110063722Y-110033297D01*
X110065882Y-110018736D01*
X110069459Y-110004457D01*
X110074418Y-109990597D01*
X110080712Y-109977290D01*
X110088280Y-109964664D01*
X110097048Y-109952841D01*
X110106934Y-109941934D01*
X110117841Y-109932048D01*
X110129664Y-109923280D01*
X110142290Y-109915712D01*
X110155597Y-109909418D01*
X110169457Y-109904459D01*
X110183736Y-109900882D01*
X110198297Y-109898722D01*
X110213000Y-109898000D01*
X110513000Y-109898000D01*
X110527703Y-109898722D01*
G37*
G36*
X109257703Y-109898722D02*
G01*
X109272264Y-109900882D01*
X109286543Y-109904459D01*
X109300403Y-109909418D01*
X109313710Y-109915712D01*
X109326336Y-109923280D01*
X109338159Y-109932048D01*
X109349066Y-109941934D01*
X109358952Y-109952841D01*
X109367720Y-109964664D01*
X109375288Y-109977290D01*
X109381582Y-109990597D01*
X109386541Y-110004457D01*
X109390118Y-110018736D01*
X109392278Y-110033297D01*
X109393000Y-110048000D01*
X109393000Y-111698000D01*
X109392278Y-111712703D01*
X109390118Y-111727264D01*
X109386541Y-111741543D01*
X109381582Y-111755403D01*
X109375288Y-111768710D01*
X109367720Y-111781336D01*
X109358952Y-111793159D01*
X109349066Y-111804066D01*
X109338159Y-111813952D01*
X109326336Y-111822720D01*
X109313710Y-111830288D01*
X109300403Y-111836582D01*
X109286543Y-111841541D01*
X109272264Y-111845118D01*
X109257703Y-111847278D01*
X109243000Y-111848000D01*
X108943000Y-111848000D01*
X108928297Y-111847278D01*
X108913736Y-111845118D01*
X108899457Y-111841541D01*
X108885597Y-111836582D01*
X108872290Y-111830288D01*
X108859664Y-111822720D01*
X108847841Y-111813952D01*
X108836934Y-111804066D01*
X108827048Y-111793159D01*
X108818280Y-111781336D01*
X108810712Y-111768710D01*
X108804418Y-111755403D01*
X108799459Y-111741543D01*
X108795882Y-111727264D01*
X108793722Y-111712703D01*
X108793000Y-111698000D01*
X108793000Y-110048000D01*
X108793722Y-110033297D01*
X108795882Y-110018736D01*
X108799459Y-110004457D01*
X108804418Y-109990597D01*
X108810712Y-109977290D01*
X108818280Y-109964664D01*
X108827048Y-109952841D01*
X108836934Y-109941934D01*
X108847841Y-109932048D01*
X108859664Y-109923280D01*
X108872290Y-109915712D01*
X108885597Y-109909418D01*
X108899457Y-109904459D01*
X108913736Y-109900882D01*
X108928297Y-109898722D01*
X108943000Y-109898000D01*
X109243000Y-109898000D01*
X109257703Y-109898722D01*
G37*
G36*
X165883779Y-79599644D02*
G01*
X165906834Y-79603063D01*
X165929443Y-79608727D01*
X165951387Y-79616579D01*
X165972457Y-79626544D01*
X165992448Y-79638526D01*
X166011168Y-79652410D01*
X166028438Y-79668062D01*
X166044090Y-79685332D01*
X166057974Y-79704052D01*
X166069956Y-79724043D01*
X166079921Y-79745113D01*
X166087773Y-79767057D01*
X166093437Y-79789666D01*
X166096856Y-79812721D01*
X166098000Y-79836000D01*
X166098000Y-80311000D01*
X166096856Y-80334279D01*
X166093437Y-80357334D01*
X166087773Y-80379943D01*
X166079921Y-80401887D01*
X166069956Y-80422957D01*
X166057974Y-80442948D01*
X166044090Y-80461668D01*
X166028438Y-80478938D01*
X166011168Y-80494590D01*
X165992448Y-80508474D01*
X165972457Y-80520456D01*
X165951387Y-80530421D01*
X165929443Y-80538273D01*
X165906834Y-80543937D01*
X165883779Y-80547356D01*
X165860500Y-80548500D01*
X165285500Y-80548500D01*
X165262221Y-80547356D01*
X165239166Y-80543937D01*
X165216557Y-80538273D01*
X165194613Y-80530421D01*
X165173543Y-80520456D01*
X165153552Y-80508474D01*
X165134832Y-80494590D01*
X165117562Y-80478938D01*
X165101910Y-80461668D01*
X165088026Y-80442948D01*
X165076044Y-80422957D01*
X165066079Y-80401887D01*
X165058227Y-80379943D01*
X165052563Y-80357334D01*
X165049144Y-80334279D01*
X165048000Y-80311000D01*
X165048000Y-79836000D01*
X165049144Y-79812721D01*
X165052563Y-79789666D01*
X165058227Y-79767057D01*
X165066079Y-79745113D01*
X165076044Y-79724043D01*
X165088026Y-79704052D01*
X165101910Y-79685332D01*
X165117562Y-79668062D01*
X165134832Y-79652410D01*
X165153552Y-79638526D01*
X165173543Y-79626544D01*
X165194613Y-79616579D01*
X165216557Y-79608727D01*
X165239166Y-79603063D01*
X165262221Y-79599644D01*
X165285500Y-79598500D01*
X165860500Y-79598500D01*
X165883779Y-79599644D01*
G37*
G36*
X167633779Y-79599644D02*
G01*
X167656834Y-79603063D01*
X167679443Y-79608727D01*
X167701387Y-79616579D01*
X167722457Y-79626544D01*
X167742448Y-79638526D01*
X167761168Y-79652410D01*
X167778438Y-79668062D01*
X167794090Y-79685332D01*
X167807974Y-79704052D01*
X167819956Y-79724043D01*
X167829921Y-79745113D01*
X167837773Y-79767057D01*
X167843437Y-79789666D01*
X167846856Y-79812721D01*
X167848000Y-79836000D01*
X167848000Y-80311000D01*
X167846856Y-80334279D01*
X167843437Y-80357334D01*
X167837773Y-80379943D01*
X167829921Y-80401887D01*
X167819956Y-80422957D01*
X167807974Y-80442948D01*
X167794090Y-80461668D01*
X167778438Y-80478938D01*
X167761168Y-80494590D01*
X167742448Y-80508474D01*
X167722457Y-80520456D01*
X167701387Y-80530421D01*
X167679443Y-80538273D01*
X167656834Y-80543937D01*
X167633779Y-80547356D01*
X167610500Y-80548500D01*
X167035500Y-80548500D01*
X167012221Y-80547356D01*
X166989166Y-80543937D01*
X166966557Y-80538273D01*
X166944613Y-80530421D01*
X166923543Y-80520456D01*
X166903552Y-80508474D01*
X166884832Y-80494590D01*
X166867562Y-80478938D01*
X166851910Y-80461668D01*
X166838026Y-80442948D01*
X166826044Y-80422957D01*
X166816079Y-80401887D01*
X166808227Y-80379943D01*
X166802563Y-80357334D01*
X166799144Y-80334279D01*
X166798000Y-80311000D01*
X166798000Y-79836000D01*
X166799144Y-79812721D01*
X166802563Y-79789666D01*
X166808227Y-79767057D01*
X166816079Y-79745113D01*
X166826044Y-79724043D01*
X166838026Y-79704052D01*
X166851910Y-79685332D01*
X166867562Y-79668062D01*
X166884832Y-79652410D01*
X166903552Y-79638526D01*
X166923543Y-79626544D01*
X166944613Y-79616579D01*
X166966557Y-79608727D01*
X166989166Y-79603063D01*
X167012221Y-79599644D01*
X167035500Y-79598500D01*
X167610500Y-79598500D01*
X167633779Y-79599644D01*
G37*
G36*
X71353279Y-99792144D02*
G01*
X71376334Y-99795563D01*
X71398943Y-99801227D01*
X71420887Y-99809079D01*
X71441957Y-99819044D01*
X71461948Y-99831026D01*
X71480668Y-99844910D01*
X71497938Y-99860562D01*
X71513590Y-99877832D01*
X71527474Y-99896552D01*
X71539456Y-99916543D01*
X71549421Y-99937613D01*
X71557273Y-99959557D01*
X71562937Y-99982166D01*
X71566356Y-100005221D01*
X71567500Y-100028500D01*
X71567500Y-100503500D01*
X71566356Y-100526779D01*
X71562937Y-100549834D01*
X71557273Y-100572443D01*
X71549421Y-100594387D01*
X71539456Y-100615457D01*
X71527474Y-100635448D01*
X71513590Y-100654168D01*
X71497938Y-100671438D01*
X71480668Y-100687090D01*
X71461948Y-100700974D01*
X71441957Y-100712956D01*
X71420887Y-100722921D01*
X71398943Y-100730773D01*
X71376334Y-100736437D01*
X71353279Y-100739856D01*
X71330000Y-100741000D01*
X70755000Y-100741000D01*
X70731721Y-100739856D01*
X70708666Y-100736437D01*
X70686057Y-100730773D01*
X70664113Y-100722921D01*
X70643043Y-100712956D01*
X70623052Y-100700974D01*
X70604332Y-100687090D01*
X70587062Y-100671438D01*
X70571410Y-100654168D01*
X70557526Y-100635448D01*
X70545544Y-100615457D01*
X70535579Y-100594387D01*
X70527727Y-100572443D01*
X70522063Y-100549834D01*
X70518644Y-100526779D01*
X70517500Y-100503500D01*
X70517500Y-100028500D01*
X70518644Y-100005221D01*
X70522063Y-99982166D01*
X70527727Y-99959557D01*
X70535579Y-99937613D01*
X70545544Y-99916543D01*
X70557526Y-99896552D01*
X70571410Y-99877832D01*
X70587062Y-99860562D01*
X70604332Y-99844910D01*
X70623052Y-99831026D01*
X70643043Y-99819044D01*
X70664113Y-99809079D01*
X70686057Y-99801227D01*
X70708666Y-99795563D01*
X70731721Y-99792144D01*
X70755000Y-99791000D01*
X71330000Y-99791000D01*
X71353279Y-99792144D01*
G37*
G36*
X69603279Y-99792144D02*
G01*
X69626334Y-99795563D01*
X69648943Y-99801227D01*
X69670887Y-99809079D01*
X69691957Y-99819044D01*
X69711948Y-99831026D01*
X69730668Y-99844910D01*
X69747938Y-99860562D01*
X69763590Y-99877832D01*
X69777474Y-99896552D01*
X69789456Y-99916543D01*
X69799421Y-99937613D01*
X69807273Y-99959557D01*
X69812937Y-99982166D01*
X69816356Y-100005221D01*
X69817500Y-100028500D01*
X69817500Y-100503500D01*
X69816356Y-100526779D01*
X69812937Y-100549834D01*
X69807273Y-100572443D01*
X69799421Y-100594387D01*
X69789456Y-100615457D01*
X69777474Y-100635448D01*
X69763590Y-100654168D01*
X69747938Y-100671438D01*
X69730668Y-100687090D01*
X69711948Y-100700974D01*
X69691957Y-100712956D01*
X69670887Y-100722921D01*
X69648943Y-100730773D01*
X69626334Y-100736437D01*
X69603279Y-100739856D01*
X69580000Y-100741000D01*
X69005000Y-100741000D01*
X68981721Y-100739856D01*
X68958666Y-100736437D01*
X68936057Y-100730773D01*
X68914113Y-100722921D01*
X68893043Y-100712956D01*
X68873052Y-100700974D01*
X68854332Y-100687090D01*
X68837062Y-100671438D01*
X68821410Y-100654168D01*
X68807526Y-100635448D01*
X68795544Y-100615457D01*
X68785579Y-100594387D01*
X68777727Y-100572443D01*
X68772063Y-100549834D01*
X68768644Y-100526779D01*
X68767500Y-100503500D01*
X68767500Y-100028500D01*
X68768644Y-100005221D01*
X68772063Y-99982166D01*
X68777727Y-99959557D01*
X68785579Y-99937613D01*
X68795544Y-99916543D01*
X68807526Y-99896552D01*
X68821410Y-99877832D01*
X68837062Y-99860562D01*
X68854332Y-99844910D01*
X68873052Y-99831026D01*
X68893043Y-99819044D01*
X68914113Y-99809079D01*
X68936057Y-99801227D01*
X68958666Y-99795563D01*
X68981721Y-99792144D01*
X69005000Y-99791000D01*
X69580000Y-99791000D01*
X69603279Y-99792144D01*
G37*
G36*
X71071004Y-109688204D02*
G01*
X71095273Y-109691804D01*
X71119071Y-109697765D01*
X71142171Y-109706030D01*
X71164349Y-109716520D01*
X71185393Y-109729133D01*
X71205098Y-109743747D01*
X71223277Y-109760223D01*
X71239753Y-109778402D01*
X71254367Y-109798107D01*
X71266980Y-109819151D01*
X71277470Y-109841329D01*
X71285735Y-109864429D01*
X71291696Y-109888227D01*
X71295296Y-109912496D01*
X71296500Y-109937000D01*
X71296500Y-110862000D01*
X71295296Y-110886504D01*
X71291696Y-110910773D01*
X71285735Y-110934571D01*
X71277470Y-110957671D01*
X71266980Y-110979849D01*
X71254367Y-111000893D01*
X71239753Y-111020598D01*
X71223277Y-111038777D01*
X71205098Y-111055253D01*
X71185393Y-111069867D01*
X71164349Y-111082480D01*
X71142171Y-111092970D01*
X71119071Y-111101235D01*
X71095273Y-111107196D01*
X71071004Y-111110796D01*
X71046500Y-111112000D01*
X69796500Y-111112000D01*
X69771996Y-111110796D01*
X69747727Y-111107196D01*
X69723929Y-111101235D01*
X69700829Y-111092970D01*
X69678651Y-111082480D01*
X69657607Y-111069867D01*
X69637902Y-111055253D01*
X69619723Y-111038777D01*
X69603247Y-111020598D01*
X69588633Y-111000893D01*
X69576020Y-110979849D01*
X69565530Y-110957671D01*
X69557265Y-110934571D01*
X69551304Y-110910773D01*
X69547704Y-110886504D01*
X69546500Y-110862000D01*
X69546500Y-109937000D01*
X69547704Y-109912496D01*
X69551304Y-109888227D01*
X69557265Y-109864429D01*
X69565530Y-109841329D01*
X69576020Y-109819151D01*
X69588633Y-109798107D01*
X69603247Y-109778402D01*
X69619723Y-109760223D01*
X69637902Y-109743747D01*
X69657607Y-109729133D01*
X69678651Y-109716520D01*
X69700829Y-109706030D01*
X69723929Y-109697765D01*
X69747727Y-109691804D01*
X69771996Y-109688204D01*
X69796500Y-109687000D01*
X71046500Y-109687000D01*
X71071004Y-109688204D01*
G37*
G36*
X71071004Y-112663204D02*
G01*
X71095273Y-112666804D01*
X71119071Y-112672765D01*
X71142171Y-112681030D01*
X71164349Y-112691520D01*
X71185393Y-112704133D01*
X71205098Y-112718747D01*
X71223277Y-112735223D01*
X71239753Y-112753402D01*
X71254367Y-112773107D01*
X71266980Y-112794151D01*
X71277470Y-112816329D01*
X71285735Y-112839429D01*
X71291696Y-112863227D01*
X71295296Y-112887496D01*
X71296500Y-112912000D01*
X71296500Y-113837000D01*
X71295296Y-113861504D01*
X71291696Y-113885773D01*
X71285735Y-113909571D01*
X71277470Y-113932671D01*
X71266980Y-113954849D01*
X71254367Y-113975893D01*
X71239753Y-113995598D01*
X71223277Y-114013777D01*
X71205098Y-114030253D01*
X71185393Y-114044867D01*
X71164349Y-114057480D01*
X71142171Y-114067970D01*
X71119071Y-114076235D01*
X71095273Y-114082196D01*
X71071004Y-114085796D01*
X71046500Y-114087000D01*
X69796500Y-114087000D01*
X69771996Y-114085796D01*
X69747727Y-114082196D01*
X69723929Y-114076235D01*
X69700829Y-114067970D01*
X69678651Y-114057480D01*
X69657607Y-114044867D01*
X69637902Y-114030253D01*
X69619723Y-114013777D01*
X69603247Y-113995598D01*
X69588633Y-113975893D01*
X69576020Y-113954849D01*
X69565530Y-113932671D01*
X69557265Y-113909571D01*
X69551304Y-113885773D01*
X69547704Y-113861504D01*
X69546500Y-113837000D01*
X69546500Y-112912000D01*
X69547704Y-112887496D01*
X69551304Y-112863227D01*
X69557265Y-112839429D01*
X69565530Y-112816329D01*
X69576020Y-112794151D01*
X69588633Y-112773107D01*
X69603247Y-112753402D01*
X69619723Y-112735223D01*
X69637902Y-112718747D01*
X69657607Y-112704133D01*
X69678651Y-112691520D01*
X69700829Y-112681030D01*
X69723929Y-112672765D01*
X69747727Y-112666804D01*
X69771996Y-112663204D01*
X69796500Y-112662000D01*
X71046500Y-112662000D01*
X71071004Y-112663204D01*
G37*
G36*
X67388004Y-99545704D02*
G01*
X67412273Y-99549304D01*
X67436071Y-99555265D01*
X67459171Y-99563530D01*
X67481349Y-99574020D01*
X67502393Y-99586633D01*
X67522098Y-99601247D01*
X67540277Y-99617723D01*
X67556753Y-99635902D01*
X67571367Y-99655607D01*
X67583980Y-99676651D01*
X67594470Y-99698829D01*
X67602735Y-99721929D01*
X67608696Y-99745727D01*
X67612296Y-99769996D01*
X67613500Y-99794500D01*
X67613500Y-100719500D01*
X67612296Y-100744004D01*
X67608696Y-100768273D01*
X67602735Y-100792071D01*
X67594470Y-100815171D01*
X67583980Y-100837349D01*
X67571367Y-100858393D01*
X67556753Y-100878098D01*
X67540277Y-100896277D01*
X67522098Y-100912753D01*
X67502393Y-100927367D01*
X67481349Y-100939980D01*
X67459171Y-100950470D01*
X67436071Y-100958735D01*
X67412273Y-100964696D01*
X67388004Y-100968296D01*
X67363500Y-100969500D01*
X66113500Y-100969500D01*
X66088996Y-100968296D01*
X66064727Y-100964696D01*
X66040929Y-100958735D01*
X66017829Y-100950470D01*
X65995651Y-100939980D01*
X65974607Y-100927367D01*
X65954902Y-100912753D01*
X65936723Y-100896277D01*
X65920247Y-100878098D01*
X65905633Y-100858393D01*
X65893020Y-100837349D01*
X65882530Y-100815171D01*
X65874265Y-100792071D01*
X65868304Y-100768273D01*
X65864704Y-100744004D01*
X65863500Y-100719500D01*
X65863500Y-99794500D01*
X65864704Y-99769996D01*
X65868304Y-99745727D01*
X65874265Y-99721929D01*
X65882530Y-99698829D01*
X65893020Y-99676651D01*
X65905633Y-99655607D01*
X65920247Y-99635902D01*
X65936723Y-99617723D01*
X65954902Y-99601247D01*
X65974607Y-99586633D01*
X65995651Y-99574020D01*
X66017829Y-99563530D01*
X66040929Y-99555265D01*
X66064727Y-99549304D01*
X66088996Y-99545704D01*
X66113500Y-99544500D01*
X67363500Y-99544500D01*
X67388004Y-99545704D01*
G37*
G36*
X67388004Y-96570704D02*
G01*
X67412273Y-96574304D01*
X67436071Y-96580265D01*
X67459171Y-96588530D01*
X67481349Y-96599020D01*
X67502393Y-96611633D01*
X67522098Y-96626247D01*
X67540277Y-96642723D01*
X67556753Y-96660902D01*
X67571367Y-96680607D01*
X67583980Y-96701651D01*
X67594470Y-96723829D01*
X67602735Y-96746929D01*
X67608696Y-96770727D01*
X67612296Y-96794996D01*
X67613500Y-96819500D01*
X67613500Y-97744500D01*
X67612296Y-97769004D01*
X67608696Y-97793273D01*
X67602735Y-97817071D01*
X67594470Y-97840171D01*
X67583980Y-97862349D01*
X67571367Y-97883393D01*
X67556753Y-97903098D01*
X67540277Y-97921277D01*
X67522098Y-97937753D01*
X67502393Y-97952367D01*
X67481349Y-97964980D01*
X67459171Y-97975470D01*
X67436071Y-97983735D01*
X67412273Y-97989696D01*
X67388004Y-97993296D01*
X67363500Y-97994500D01*
X66113500Y-97994500D01*
X66088996Y-97993296D01*
X66064727Y-97989696D01*
X66040929Y-97983735D01*
X66017829Y-97975470D01*
X65995651Y-97964980D01*
X65974607Y-97952367D01*
X65954902Y-97937753D01*
X65936723Y-97921277D01*
X65920247Y-97903098D01*
X65905633Y-97883393D01*
X65893020Y-97862349D01*
X65882530Y-97840171D01*
X65874265Y-97817071D01*
X65868304Y-97793273D01*
X65864704Y-97769004D01*
X65863500Y-97744500D01*
X65863500Y-96819500D01*
X65864704Y-96794996D01*
X65868304Y-96770727D01*
X65874265Y-96746929D01*
X65882530Y-96723829D01*
X65893020Y-96701651D01*
X65905633Y-96680607D01*
X65920247Y-96660902D01*
X65936723Y-96642723D01*
X65954902Y-96626247D01*
X65974607Y-96611633D01*
X65995651Y-96599020D01*
X66017829Y-96588530D01*
X66040929Y-96580265D01*
X66064727Y-96574304D01*
X66088996Y-96570704D01*
X66113500Y-96569500D01*
X67363500Y-96569500D01*
X67388004Y-96570704D01*
G37*
G36*
X137738779Y-80869144D02*
G01*
X137761834Y-80872563D01*
X137784443Y-80878227D01*
X137806387Y-80886079D01*
X137827457Y-80896044D01*
X137847448Y-80908026D01*
X137866168Y-80921910D01*
X137883438Y-80937562D01*
X137899090Y-80954832D01*
X137912974Y-80973552D01*
X137924956Y-80993543D01*
X137934921Y-81014613D01*
X137942773Y-81036557D01*
X137948437Y-81059166D01*
X137951856Y-81082221D01*
X137953000Y-81105500D01*
X137953000Y-81680500D01*
X137951856Y-81703779D01*
X137948437Y-81726834D01*
X137942773Y-81749443D01*
X137934921Y-81771387D01*
X137924956Y-81792457D01*
X137912974Y-81812448D01*
X137899090Y-81831168D01*
X137883438Y-81848438D01*
X137866168Y-81864090D01*
X137847448Y-81877974D01*
X137827457Y-81889956D01*
X137806387Y-81899921D01*
X137784443Y-81907773D01*
X137761834Y-81913437D01*
X137738779Y-81916856D01*
X137715500Y-81918000D01*
X137240500Y-81918000D01*
X137217221Y-81916856D01*
X137194166Y-81913437D01*
X137171557Y-81907773D01*
X137149613Y-81899921D01*
X137128543Y-81889956D01*
X137108552Y-81877974D01*
X137089832Y-81864090D01*
X137072562Y-81848438D01*
X137056910Y-81831168D01*
X137043026Y-81812448D01*
X137031044Y-81792457D01*
X137021079Y-81771387D01*
X137013227Y-81749443D01*
X137007563Y-81726834D01*
X137004144Y-81703779D01*
X137003000Y-81680500D01*
X137003000Y-81105500D01*
X137004144Y-81082221D01*
X137007563Y-81059166D01*
X137013227Y-81036557D01*
X137021079Y-81014613D01*
X137031044Y-80993543D01*
X137043026Y-80973552D01*
X137056910Y-80954832D01*
X137072562Y-80937562D01*
X137089832Y-80921910D01*
X137108552Y-80908026D01*
X137128543Y-80896044D01*
X137149613Y-80886079D01*
X137171557Y-80878227D01*
X137194166Y-80872563D01*
X137217221Y-80869144D01*
X137240500Y-80868000D01*
X137715500Y-80868000D01*
X137738779Y-80869144D01*
G37*
G36*
X137738779Y-79119144D02*
G01*
X137761834Y-79122563D01*
X137784443Y-79128227D01*
X137806387Y-79136079D01*
X137827457Y-79146044D01*
X137847448Y-79158026D01*
X137866168Y-79171910D01*
X137883438Y-79187562D01*
X137899090Y-79204832D01*
X137912974Y-79223552D01*
X137924956Y-79243543D01*
X137934921Y-79264613D01*
X137942773Y-79286557D01*
X137948437Y-79309166D01*
X137951856Y-79332221D01*
X137953000Y-79355500D01*
X137953000Y-79930500D01*
X137951856Y-79953779D01*
X137948437Y-79976834D01*
X137942773Y-79999443D01*
X137934921Y-80021387D01*
X137924956Y-80042457D01*
X137912974Y-80062448D01*
X137899090Y-80081168D01*
X137883438Y-80098438D01*
X137866168Y-80114090D01*
X137847448Y-80127974D01*
X137827457Y-80139956D01*
X137806387Y-80149921D01*
X137784443Y-80157773D01*
X137761834Y-80163437D01*
X137738779Y-80166856D01*
X137715500Y-80168000D01*
X137240500Y-80168000D01*
X137217221Y-80166856D01*
X137194166Y-80163437D01*
X137171557Y-80157773D01*
X137149613Y-80149921D01*
X137128543Y-80139956D01*
X137108552Y-80127974D01*
X137089832Y-80114090D01*
X137072562Y-80098438D01*
X137056910Y-80081168D01*
X137043026Y-80062448D01*
X137031044Y-80042457D01*
X137021079Y-80021387D01*
X137013227Y-79999443D01*
X137007563Y-79976834D01*
X137004144Y-79953779D01*
X137003000Y-79930500D01*
X137003000Y-79355500D01*
X137004144Y-79332221D01*
X137007563Y-79309166D01*
X137013227Y-79286557D01*
X137021079Y-79264613D01*
X137031044Y-79243543D01*
X137043026Y-79223552D01*
X137056910Y-79204832D01*
X137072562Y-79187562D01*
X137089832Y-79171910D01*
X137108552Y-79158026D01*
X137128543Y-79146044D01*
X137149613Y-79136079D01*
X137171557Y-79128227D01*
X137194166Y-79122563D01*
X137217221Y-79119144D01*
X137240500Y-79118000D01*
X137715500Y-79118000D01*
X137738779Y-79119144D01*
G37*
G36*
X92435279Y-119224144D02*
G01*
X92458334Y-119227563D01*
X92480943Y-119233227D01*
X92502887Y-119241079D01*
X92523957Y-119251044D01*
X92543948Y-119263026D01*
X92562668Y-119276910D01*
X92579938Y-119292562D01*
X92595590Y-119309832D01*
X92609474Y-119328552D01*
X92621456Y-119348543D01*
X92631421Y-119369613D01*
X92639273Y-119391557D01*
X92644937Y-119414166D01*
X92648356Y-119437221D01*
X92649500Y-119460500D01*
X92649500Y-119935500D01*
X92648356Y-119958779D01*
X92644937Y-119981834D01*
X92639273Y-120004443D01*
X92631421Y-120026387D01*
X92621456Y-120047457D01*
X92609474Y-120067448D01*
X92595590Y-120086168D01*
X92579938Y-120103438D01*
X92562668Y-120119090D01*
X92543948Y-120132974D01*
X92523957Y-120144956D01*
X92502887Y-120154921D01*
X92480943Y-120162773D01*
X92458334Y-120168437D01*
X92435279Y-120171856D01*
X92412000Y-120173000D01*
X91837000Y-120173000D01*
X91813721Y-120171856D01*
X91790666Y-120168437D01*
X91768057Y-120162773D01*
X91746113Y-120154921D01*
X91725043Y-120144956D01*
X91705052Y-120132974D01*
X91686332Y-120119090D01*
X91669062Y-120103438D01*
X91653410Y-120086168D01*
X91639526Y-120067448D01*
X91627544Y-120047457D01*
X91617579Y-120026387D01*
X91609727Y-120004443D01*
X91604063Y-119981834D01*
X91600644Y-119958779D01*
X91599500Y-119935500D01*
X91599500Y-119460500D01*
X91600644Y-119437221D01*
X91604063Y-119414166D01*
X91609727Y-119391557D01*
X91617579Y-119369613D01*
X91627544Y-119348543D01*
X91639526Y-119328552D01*
X91653410Y-119309832D01*
X91669062Y-119292562D01*
X91686332Y-119276910D01*
X91705052Y-119263026D01*
X91725043Y-119251044D01*
X91746113Y-119241079D01*
X91768057Y-119233227D01*
X91790666Y-119227563D01*
X91813721Y-119224144D01*
X91837000Y-119223000D01*
X92412000Y-119223000D01*
X92435279Y-119224144D01*
G37*
G36*
X90685279Y-119224144D02*
G01*
X90708334Y-119227563D01*
X90730943Y-119233227D01*
X90752887Y-119241079D01*
X90773957Y-119251044D01*
X90793948Y-119263026D01*
X90812668Y-119276910D01*
X90829938Y-119292562D01*
X90845590Y-119309832D01*
X90859474Y-119328552D01*
X90871456Y-119348543D01*
X90881421Y-119369613D01*
X90889273Y-119391557D01*
X90894937Y-119414166D01*
X90898356Y-119437221D01*
X90899500Y-119460500D01*
X90899500Y-119935500D01*
X90898356Y-119958779D01*
X90894937Y-119981834D01*
X90889273Y-120004443D01*
X90881421Y-120026387D01*
X90871456Y-120047457D01*
X90859474Y-120067448D01*
X90845590Y-120086168D01*
X90829938Y-120103438D01*
X90812668Y-120119090D01*
X90793948Y-120132974D01*
X90773957Y-120144956D01*
X90752887Y-120154921D01*
X90730943Y-120162773D01*
X90708334Y-120168437D01*
X90685279Y-120171856D01*
X90662000Y-120173000D01*
X90087000Y-120173000D01*
X90063721Y-120171856D01*
X90040666Y-120168437D01*
X90018057Y-120162773D01*
X89996113Y-120154921D01*
X89975043Y-120144956D01*
X89955052Y-120132974D01*
X89936332Y-120119090D01*
X89919062Y-120103438D01*
X89903410Y-120086168D01*
X89889526Y-120067448D01*
X89877544Y-120047457D01*
X89867579Y-120026387D01*
X89859727Y-120004443D01*
X89854063Y-119981834D01*
X89850644Y-119958779D01*
X89849500Y-119935500D01*
X89849500Y-119460500D01*
X89850644Y-119437221D01*
X89854063Y-119414166D01*
X89859727Y-119391557D01*
X89867579Y-119369613D01*
X89877544Y-119348543D01*
X89889526Y-119328552D01*
X89903410Y-119309832D01*
X89919062Y-119292562D01*
X89936332Y-119276910D01*
X89955052Y-119263026D01*
X89975043Y-119251044D01*
X89996113Y-119241079D01*
X90018057Y-119233227D01*
X90040666Y-119227563D01*
X90063721Y-119224144D01*
X90087000Y-119223000D01*
X90662000Y-119223000D01*
X90685279Y-119224144D01*
G37*
G36*
X208053605Y-79549804D02*
G01*
X208077873Y-79553404D01*
X208101672Y-79559365D01*
X208124771Y-79567630D01*
X208146950Y-79578120D01*
X208167993Y-79590732D01*
X208187699Y-79605347D01*
X208205877Y-79621823D01*
X208222353Y-79640001D01*
X208236968Y-79659707D01*
X208249580Y-79680750D01*
X208260070Y-79702929D01*
X208268335Y-79726028D01*
X208274296Y-79749827D01*
X208277896Y-79774095D01*
X208279100Y-79798599D01*
X208279100Y-81948601D01*
X208277896Y-81973105D01*
X208274296Y-81997373D01*
X208268335Y-82021172D01*
X208260070Y-82044271D01*
X208249580Y-82066450D01*
X208236968Y-82087493D01*
X208222353Y-82107199D01*
X208205877Y-82125377D01*
X208187699Y-82141853D01*
X208167993Y-82156468D01*
X208146950Y-82169080D01*
X208124771Y-82179570D01*
X208101672Y-82187835D01*
X208077873Y-82193796D01*
X208053605Y-82197396D01*
X208029101Y-82198600D01*
X207004099Y-82198600D01*
X206979595Y-82197396D01*
X206955327Y-82193796D01*
X206931528Y-82187835D01*
X206908429Y-82179570D01*
X206886250Y-82169080D01*
X206865207Y-82156468D01*
X206845501Y-82141853D01*
X206827323Y-82125377D01*
X206810847Y-82107199D01*
X206796232Y-82087493D01*
X206783620Y-82066450D01*
X206773130Y-82044271D01*
X206764865Y-82021172D01*
X206758904Y-81997373D01*
X206755304Y-81973105D01*
X206754100Y-81948601D01*
X206754100Y-79798599D01*
X206755304Y-79774095D01*
X206758904Y-79749827D01*
X206764865Y-79726028D01*
X206773130Y-79702929D01*
X206783620Y-79680750D01*
X206796232Y-79659707D01*
X206810847Y-79640001D01*
X206827323Y-79621823D01*
X206845501Y-79605347D01*
X206865207Y-79590732D01*
X206886250Y-79578120D01*
X206908429Y-79567630D01*
X206931528Y-79559365D01*
X206955327Y-79553404D01*
X206979595Y-79549804D01*
X207004099Y-79548600D01*
X208029101Y-79548600D01*
X208053605Y-79549804D01*
G37*
G36*
X212728605Y-79549804D02*
G01*
X212752873Y-79553404D01*
X212776672Y-79559365D01*
X212799771Y-79567630D01*
X212821950Y-79578120D01*
X212842993Y-79590732D01*
X212862699Y-79605347D01*
X212880877Y-79621823D01*
X212897353Y-79640001D01*
X212911968Y-79659707D01*
X212924580Y-79680750D01*
X212935070Y-79702929D01*
X212943335Y-79726028D01*
X212949296Y-79749827D01*
X212952896Y-79774095D01*
X212954100Y-79798599D01*
X212954100Y-81948601D01*
X212952896Y-81973105D01*
X212949296Y-81997373D01*
X212943335Y-82021172D01*
X212935070Y-82044271D01*
X212924580Y-82066450D01*
X212911968Y-82087493D01*
X212897353Y-82107199D01*
X212880877Y-82125377D01*
X212862699Y-82141853D01*
X212842993Y-82156468D01*
X212821950Y-82169080D01*
X212799771Y-82179570D01*
X212776672Y-82187835D01*
X212752873Y-82193796D01*
X212728605Y-82197396D01*
X212704101Y-82198600D01*
X211679099Y-82198600D01*
X211654595Y-82197396D01*
X211630327Y-82193796D01*
X211606528Y-82187835D01*
X211583429Y-82179570D01*
X211561250Y-82169080D01*
X211540207Y-82156468D01*
X211520501Y-82141853D01*
X211502323Y-82125377D01*
X211485847Y-82107199D01*
X211471232Y-82087493D01*
X211458620Y-82066450D01*
X211448130Y-82044271D01*
X211439865Y-82021172D01*
X211433904Y-81997373D01*
X211430304Y-81973105D01*
X211429100Y-81948601D01*
X211429100Y-79798599D01*
X211430304Y-79774095D01*
X211433904Y-79749827D01*
X211439865Y-79726028D01*
X211448130Y-79702929D01*
X211458620Y-79680750D01*
X211471232Y-79659707D01*
X211485847Y-79640001D01*
X211502323Y-79621823D01*
X211520501Y-79605347D01*
X211540207Y-79590732D01*
X211561250Y-79578120D01*
X211583429Y-79567630D01*
X211606528Y-79559365D01*
X211630327Y-79553404D01*
X211654595Y-79549804D01*
X211679099Y-79548600D01*
X212704101Y-79548600D01*
X212728605Y-79549804D01*
G37*
G36*
X206734905Y-91792604D02*
G01*
X206759173Y-91796204D01*
X206782972Y-91802165D01*
X206806071Y-91810430D01*
X206828250Y-91820920D01*
X206849293Y-91833532D01*
X206868999Y-91848147D01*
X206887177Y-91864623D01*
X206903653Y-91882801D01*
X206918268Y-91902507D01*
X206930880Y-91923550D01*
X206941370Y-91945729D01*
X206949635Y-91968828D01*
X206955596Y-91992627D01*
X206959196Y-92016895D01*
X206960400Y-92041399D01*
X206960400Y-94191401D01*
X206959196Y-94215905D01*
X206955596Y-94240173D01*
X206949635Y-94263972D01*
X206941370Y-94287071D01*
X206930880Y-94309250D01*
X206918268Y-94330293D01*
X206903653Y-94349999D01*
X206887177Y-94368177D01*
X206868999Y-94384653D01*
X206849293Y-94399268D01*
X206828250Y-94411880D01*
X206806071Y-94422370D01*
X206782972Y-94430635D01*
X206759173Y-94436596D01*
X206734905Y-94440196D01*
X206710401Y-94441400D01*
X205685399Y-94441400D01*
X205660895Y-94440196D01*
X205636627Y-94436596D01*
X205612828Y-94430635D01*
X205589729Y-94422370D01*
X205567550Y-94411880D01*
X205546507Y-94399268D01*
X205526801Y-94384653D01*
X205508623Y-94368177D01*
X205492147Y-94349999D01*
X205477532Y-94330293D01*
X205464920Y-94309250D01*
X205454430Y-94287071D01*
X205446165Y-94263972D01*
X205440204Y-94240173D01*
X205436604Y-94215905D01*
X205435400Y-94191401D01*
X205435400Y-92041399D01*
X205436604Y-92016895D01*
X205440204Y-91992627D01*
X205446165Y-91968828D01*
X205454430Y-91945729D01*
X205464920Y-91923550D01*
X205477532Y-91902507D01*
X205492147Y-91882801D01*
X205508623Y-91864623D01*
X205526801Y-91848147D01*
X205546507Y-91833532D01*
X205567550Y-91820920D01*
X205589729Y-91810430D01*
X205612828Y-91802165D01*
X205636627Y-91796204D01*
X205660895Y-91792604D01*
X205685399Y-91791400D01*
X206710401Y-91791400D01*
X206734905Y-91792604D01*
G37*
G36*
X202059905Y-91792604D02*
G01*
X202084173Y-91796204D01*
X202107972Y-91802165D01*
X202131071Y-91810430D01*
X202153250Y-91820920D01*
X202174293Y-91833532D01*
X202193999Y-91848147D01*
X202212177Y-91864623D01*
X202228653Y-91882801D01*
X202243268Y-91902507D01*
X202255880Y-91923550D01*
X202266370Y-91945729D01*
X202274635Y-91968828D01*
X202280596Y-91992627D01*
X202284196Y-92016895D01*
X202285400Y-92041399D01*
X202285400Y-94191401D01*
X202284196Y-94215905D01*
X202280596Y-94240173D01*
X202274635Y-94263972D01*
X202266370Y-94287071D01*
X202255880Y-94309250D01*
X202243268Y-94330293D01*
X202228653Y-94349999D01*
X202212177Y-94368177D01*
X202193999Y-94384653D01*
X202174293Y-94399268D01*
X202153250Y-94411880D01*
X202131071Y-94422370D01*
X202107972Y-94430635D01*
X202084173Y-94436596D01*
X202059905Y-94440196D01*
X202035401Y-94441400D01*
X201010399Y-94441400D01*
X200985895Y-94440196D01*
X200961627Y-94436596D01*
X200937828Y-94430635D01*
X200914729Y-94422370D01*
X200892550Y-94411880D01*
X200871507Y-94399268D01*
X200851801Y-94384653D01*
X200833623Y-94368177D01*
X200817147Y-94349999D01*
X200802532Y-94330293D01*
X200789920Y-94309250D01*
X200779430Y-94287071D01*
X200771165Y-94263972D01*
X200765204Y-94240173D01*
X200761604Y-94215905D01*
X200760400Y-94191401D01*
X200760400Y-92041399D01*
X200761604Y-92016895D01*
X200765204Y-91992627D01*
X200771165Y-91968828D01*
X200779430Y-91945729D01*
X200789920Y-91923550D01*
X200802532Y-91902507D01*
X200817147Y-91882801D01*
X200833623Y-91864623D01*
X200851801Y-91848147D01*
X200871507Y-91833532D01*
X200892550Y-91820920D01*
X200914729Y-91810430D01*
X200937828Y-91802165D01*
X200961627Y-91796204D01*
X200985895Y-91792604D01*
X201010399Y-91791400D01*
X202035401Y-91791400D01*
X202059905Y-91792604D01*
G37*
G36*
X99397505Y-84189704D02*
G01*
X99421773Y-84193304D01*
X99445572Y-84199265D01*
X99468671Y-84207530D01*
X99490850Y-84218020D01*
X99511893Y-84230632D01*
X99531599Y-84245247D01*
X99549777Y-84261723D01*
X99566253Y-84279901D01*
X99580868Y-84299607D01*
X99593480Y-84320650D01*
X99603970Y-84342829D01*
X99612235Y-84365928D01*
X99618196Y-84389727D01*
X99621796Y-84413995D01*
X99623000Y-84438499D01*
X99623000Y-85463501D01*
X99621796Y-85488005D01*
X99618196Y-85512273D01*
X99612235Y-85536072D01*
X99603970Y-85559171D01*
X99593480Y-85581350D01*
X99580868Y-85602393D01*
X99566253Y-85622099D01*
X99549777Y-85640277D01*
X99531599Y-85656753D01*
X99511893Y-85671368D01*
X99490850Y-85683980D01*
X99468671Y-85694470D01*
X99445572Y-85702735D01*
X99421773Y-85708696D01*
X99397505Y-85712296D01*
X99373001Y-85713500D01*
X97222999Y-85713500D01*
X97198495Y-85712296D01*
X97174227Y-85708696D01*
X97150428Y-85702735D01*
X97127329Y-85694470D01*
X97105150Y-85683980D01*
X97084107Y-85671368D01*
X97064401Y-85656753D01*
X97046223Y-85640277D01*
X97029747Y-85622099D01*
X97015132Y-85602393D01*
X97002520Y-85581350D01*
X96992030Y-85559171D01*
X96983765Y-85536072D01*
X96977804Y-85512273D01*
X96974204Y-85488005D01*
X96973000Y-85463501D01*
X96973000Y-84438499D01*
X96974204Y-84413995D01*
X96977804Y-84389727D01*
X96983765Y-84365928D01*
X96992030Y-84342829D01*
X97002520Y-84320650D01*
X97015132Y-84299607D01*
X97029747Y-84279901D01*
X97046223Y-84261723D01*
X97064401Y-84245247D01*
X97084107Y-84230632D01*
X97105150Y-84218020D01*
X97127329Y-84207530D01*
X97150428Y-84199265D01*
X97174227Y-84193304D01*
X97198495Y-84189704D01*
X97222999Y-84188500D01*
X99373001Y-84188500D01*
X99397505Y-84189704D01*
G37*
G36*
X99397505Y-79514704D02*
G01*
X99421773Y-79518304D01*
X99445572Y-79524265D01*
X99468671Y-79532530D01*
X99490850Y-79543020D01*
X99511893Y-79555632D01*
X99531599Y-79570247D01*
X99549777Y-79586723D01*
X99566253Y-79604901D01*
X99580868Y-79624607D01*
X99593480Y-79645650D01*
X99603970Y-79667829D01*
X99612235Y-79690928D01*
X99618196Y-79714727D01*
X99621796Y-79738995D01*
X99623000Y-79763499D01*
X99623000Y-80788501D01*
X99621796Y-80813005D01*
X99618196Y-80837273D01*
X99612235Y-80861072D01*
X99603970Y-80884171D01*
X99593480Y-80906350D01*
X99580868Y-80927393D01*
X99566253Y-80947099D01*
X99549777Y-80965277D01*
X99531599Y-80981753D01*
X99511893Y-80996368D01*
X99490850Y-81008980D01*
X99468671Y-81019470D01*
X99445572Y-81027735D01*
X99421773Y-81033696D01*
X99397505Y-81037296D01*
X99373001Y-81038500D01*
X97222999Y-81038500D01*
X97198495Y-81037296D01*
X97174227Y-81033696D01*
X97150428Y-81027735D01*
X97127329Y-81019470D01*
X97105150Y-81008980D01*
X97084107Y-80996368D01*
X97064401Y-80981753D01*
X97046223Y-80965277D01*
X97029747Y-80947099D01*
X97015132Y-80927393D01*
X97002520Y-80906350D01*
X96992030Y-80884171D01*
X96983765Y-80861072D01*
X96977804Y-80837273D01*
X96974204Y-80813005D01*
X96973000Y-80788501D01*
X96973000Y-79763499D01*
X96974204Y-79738995D01*
X96977804Y-79714727D01*
X96983765Y-79690928D01*
X96992030Y-79667829D01*
X97002520Y-79645650D01*
X97015132Y-79624607D01*
X97029747Y-79604901D01*
X97046223Y-79586723D01*
X97064401Y-79570247D01*
X97084107Y-79555632D01*
X97105150Y-79543020D01*
X97127329Y-79532530D01*
X97150428Y-79524265D01*
X97174227Y-79518304D01*
X97198495Y-79514704D01*
X97222999Y-79513500D01*
X99373001Y-79513500D01*
X99397505Y-79514704D01*
G37*
G36*
X180990504Y-102568204D02*
G01*
X181014773Y-102571804D01*
X181038571Y-102577765D01*
X181061671Y-102586030D01*
X181083849Y-102596520D01*
X181104893Y-102609133D01*
X181124598Y-102623747D01*
X181142777Y-102640223D01*
X181159253Y-102658402D01*
X181173867Y-102678107D01*
X181186480Y-102699151D01*
X181196970Y-102721329D01*
X181205235Y-102744429D01*
X181211196Y-102768227D01*
X181214796Y-102792496D01*
X181216000Y-102817000D01*
X181216000Y-104067000D01*
X181214796Y-104091504D01*
X181211196Y-104115773D01*
X181205235Y-104139571D01*
X181196970Y-104162671D01*
X181186480Y-104184849D01*
X181173867Y-104205893D01*
X181159253Y-104225598D01*
X181142777Y-104243777D01*
X181124598Y-104260253D01*
X181104893Y-104274867D01*
X181083849Y-104287480D01*
X181061671Y-104297970D01*
X181038571Y-104306235D01*
X181014773Y-104312196D01*
X180990504Y-104315796D01*
X180966000Y-104317000D01*
X180041000Y-104317000D01*
X180016496Y-104315796D01*
X179992227Y-104312196D01*
X179968429Y-104306235D01*
X179945329Y-104297970D01*
X179923151Y-104287480D01*
X179902107Y-104274867D01*
X179882402Y-104260253D01*
X179864223Y-104243777D01*
X179847747Y-104225598D01*
X179833133Y-104205893D01*
X179820520Y-104184849D01*
X179810030Y-104162671D01*
X179801765Y-104139571D01*
X179795804Y-104115773D01*
X179792204Y-104091504D01*
X179791000Y-104067000D01*
X179791000Y-102817000D01*
X179792204Y-102792496D01*
X179795804Y-102768227D01*
X179801765Y-102744429D01*
X179810030Y-102721329D01*
X179820520Y-102699151D01*
X179833133Y-102678107D01*
X179847747Y-102658402D01*
X179864223Y-102640223D01*
X179882402Y-102623747D01*
X179902107Y-102609133D01*
X179923151Y-102596520D01*
X179945329Y-102586030D01*
X179968429Y-102577765D01*
X179992227Y-102571804D01*
X180016496Y-102568204D01*
X180041000Y-102567000D01*
X180966000Y-102567000D01*
X180990504Y-102568204D01*
G37*
G36*
X183965504Y-102568204D02*
G01*
X183989773Y-102571804D01*
X184013571Y-102577765D01*
X184036671Y-102586030D01*
X184058849Y-102596520D01*
X184079893Y-102609133D01*
X184099598Y-102623747D01*
X184117777Y-102640223D01*
X184134253Y-102658402D01*
X184148867Y-102678107D01*
X184161480Y-102699151D01*
X184171970Y-102721329D01*
X184180235Y-102744429D01*
X184186196Y-102768227D01*
X184189796Y-102792496D01*
X184191000Y-102817000D01*
X184191000Y-104067000D01*
X184189796Y-104091504D01*
X184186196Y-104115773D01*
X184180235Y-104139571D01*
X184171970Y-104162671D01*
X184161480Y-104184849D01*
X184148867Y-104205893D01*
X184134253Y-104225598D01*
X184117777Y-104243777D01*
X184099598Y-104260253D01*
X184079893Y-104274867D01*
X184058849Y-104287480D01*
X184036671Y-104297970D01*
X184013571Y-104306235D01*
X183989773Y-104312196D01*
X183965504Y-104315796D01*
X183941000Y-104317000D01*
X183016000Y-104317000D01*
X182991496Y-104315796D01*
X182967227Y-104312196D01*
X182943429Y-104306235D01*
X182920329Y-104297970D01*
X182898151Y-104287480D01*
X182877107Y-104274867D01*
X182857402Y-104260253D01*
X182839223Y-104243777D01*
X182822747Y-104225598D01*
X182808133Y-104205893D01*
X182795520Y-104184849D01*
X182785030Y-104162671D01*
X182776765Y-104139571D01*
X182770804Y-104115773D01*
X182767204Y-104091504D01*
X182766000Y-104067000D01*
X182766000Y-102817000D01*
X182767204Y-102792496D01*
X182770804Y-102768227D01*
X182776765Y-102744429D01*
X182785030Y-102721329D01*
X182795520Y-102699151D01*
X182808133Y-102678107D01*
X182822747Y-102658402D01*
X182839223Y-102640223D01*
X182857402Y-102623747D01*
X182877107Y-102609133D01*
X182898151Y-102596520D01*
X182920329Y-102586030D01*
X182943429Y-102577765D01*
X182967227Y-102571804D01*
X182991496Y-102568204D01*
X183016000Y-102567000D01*
X183941000Y-102567000D01*
X183965504Y-102568204D01*
G37*
G36*
X100001504Y-93741204D02*
G01*
X100025773Y-93744804D01*
X100049571Y-93750765D01*
X100072671Y-93759030D01*
X100094849Y-93769520D01*
X100115893Y-93782133D01*
X100135598Y-93796747D01*
X100153777Y-93813223D01*
X100170253Y-93831402D01*
X100184867Y-93851107D01*
X100197480Y-93872151D01*
X100207970Y-93894329D01*
X100216235Y-93917429D01*
X100222196Y-93941227D01*
X100225796Y-93965496D01*
X100227000Y-93990000D01*
X100227000Y-95240000D01*
X100225796Y-95264504D01*
X100222196Y-95288773D01*
X100216235Y-95312571D01*
X100207970Y-95335671D01*
X100197480Y-95357849D01*
X100184867Y-95378893D01*
X100170253Y-95398598D01*
X100153777Y-95416777D01*
X100135598Y-95433253D01*
X100115893Y-95447867D01*
X100094849Y-95460480D01*
X100072671Y-95470970D01*
X100049571Y-95479235D01*
X100025773Y-95485196D01*
X100001504Y-95488796D01*
X99977000Y-95490000D01*
X99052000Y-95490000D01*
X99027496Y-95488796D01*
X99003227Y-95485196D01*
X98979429Y-95479235D01*
X98956329Y-95470970D01*
X98934151Y-95460480D01*
X98913107Y-95447867D01*
X98893402Y-95433253D01*
X98875223Y-95416777D01*
X98858747Y-95398598D01*
X98844133Y-95378893D01*
X98831520Y-95357849D01*
X98821030Y-95335671D01*
X98812765Y-95312571D01*
X98806804Y-95288773D01*
X98803204Y-95264504D01*
X98802000Y-95240000D01*
X98802000Y-93990000D01*
X98803204Y-93965496D01*
X98806804Y-93941227D01*
X98812765Y-93917429D01*
X98821030Y-93894329D01*
X98831520Y-93872151D01*
X98844133Y-93851107D01*
X98858747Y-93831402D01*
X98875223Y-93813223D01*
X98893402Y-93796747D01*
X98913107Y-93782133D01*
X98934151Y-93769520D01*
X98956329Y-93759030D01*
X98979429Y-93750765D01*
X99003227Y-93744804D01*
X99027496Y-93741204D01*
X99052000Y-93740000D01*
X99977000Y-93740000D01*
X100001504Y-93741204D01*
G37*
G36*
X102976504Y-93741204D02*
G01*
X103000773Y-93744804D01*
X103024571Y-93750765D01*
X103047671Y-93759030D01*
X103069849Y-93769520D01*
X103090893Y-93782133D01*
X103110598Y-93796747D01*
X103128777Y-93813223D01*
X103145253Y-93831402D01*
X103159867Y-93851107D01*
X103172480Y-93872151D01*
X103182970Y-93894329D01*
X103191235Y-93917429D01*
X103197196Y-93941227D01*
X103200796Y-93965496D01*
X103202000Y-93990000D01*
X103202000Y-95240000D01*
X103200796Y-95264504D01*
X103197196Y-95288773D01*
X103191235Y-95312571D01*
X103182970Y-95335671D01*
X103172480Y-95357849D01*
X103159867Y-95378893D01*
X103145253Y-95398598D01*
X103128777Y-95416777D01*
X103110598Y-95433253D01*
X103090893Y-95447867D01*
X103069849Y-95460480D01*
X103047671Y-95470970D01*
X103024571Y-95479235D01*
X103000773Y-95485196D01*
X102976504Y-95488796D01*
X102952000Y-95490000D01*
X102027000Y-95490000D01*
X102002496Y-95488796D01*
X101978227Y-95485196D01*
X101954429Y-95479235D01*
X101931329Y-95470970D01*
X101909151Y-95460480D01*
X101888107Y-95447867D01*
X101868402Y-95433253D01*
X101850223Y-95416777D01*
X101833747Y-95398598D01*
X101819133Y-95378893D01*
X101806520Y-95357849D01*
X101796030Y-95335671D01*
X101787765Y-95312571D01*
X101781804Y-95288773D01*
X101778204Y-95264504D01*
X101777000Y-95240000D01*
X101777000Y-93990000D01*
X101778204Y-93965496D01*
X101781804Y-93941227D01*
X101787765Y-93917429D01*
X101796030Y-93894329D01*
X101806520Y-93872151D01*
X101819133Y-93851107D01*
X101833747Y-93831402D01*
X101850223Y-93813223D01*
X101868402Y-93796747D01*
X101888107Y-93782133D01*
X101909151Y-93769520D01*
X101931329Y-93759030D01*
X101954429Y-93750765D01*
X101978227Y-93744804D01*
X102002496Y-93741204D01*
X102027000Y-93740000D01*
X102952000Y-93740000D01*
X102976504Y-93741204D01*
G37*
G36*
X166958505Y-82191404D02*
G01*
X166982773Y-82195004D01*
X167006572Y-82200965D01*
X167029671Y-82209230D01*
X167051850Y-82219720D01*
X167072893Y-82232332D01*
X167092599Y-82246947D01*
X167110777Y-82263423D01*
X167127253Y-82281601D01*
X167141868Y-82301307D01*
X167154480Y-82322350D01*
X167164970Y-82344529D01*
X167173235Y-82367628D01*
X167179196Y-82391427D01*
X167182796Y-82415695D01*
X167184000Y-82440199D01*
X167184000Y-84590201D01*
X167182796Y-84614705D01*
X167179196Y-84638973D01*
X167173235Y-84662772D01*
X167164970Y-84685871D01*
X167154480Y-84708050D01*
X167141868Y-84729093D01*
X167127253Y-84748799D01*
X167110777Y-84766977D01*
X167092599Y-84783453D01*
X167072893Y-84798068D01*
X167051850Y-84810680D01*
X167029671Y-84821170D01*
X167006572Y-84829435D01*
X166982773Y-84835396D01*
X166958505Y-84838996D01*
X166934001Y-84840200D01*
X165908999Y-84840200D01*
X165884495Y-84838996D01*
X165860227Y-84835396D01*
X165836428Y-84829435D01*
X165813329Y-84821170D01*
X165791150Y-84810680D01*
X165770107Y-84798068D01*
X165750401Y-84783453D01*
X165732223Y-84766977D01*
X165715747Y-84748799D01*
X165701132Y-84729093D01*
X165688520Y-84708050D01*
X165678030Y-84685871D01*
X165669765Y-84662772D01*
X165663804Y-84638973D01*
X165660204Y-84614705D01*
X165659000Y-84590201D01*
X165659000Y-82440199D01*
X165660204Y-82415695D01*
X165663804Y-82391427D01*
X165669765Y-82367628D01*
X165678030Y-82344529D01*
X165688520Y-82322350D01*
X165701132Y-82301307D01*
X165715747Y-82281601D01*
X165732223Y-82263423D01*
X165750401Y-82246947D01*
X165770107Y-82232332D01*
X165791150Y-82219720D01*
X165813329Y-82209230D01*
X165836428Y-82200965D01*
X165860227Y-82195004D01*
X165884495Y-82191404D01*
X165908999Y-82190200D01*
X166934001Y-82190200D01*
X166958505Y-82191404D01*
G37*
G36*
X162283505Y-82191404D02*
G01*
X162307773Y-82195004D01*
X162331572Y-82200965D01*
X162354671Y-82209230D01*
X162376850Y-82219720D01*
X162397893Y-82232332D01*
X162417599Y-82246947D01*
X162435777Y-82263423D01*
X162452253Y-82281601D01*
X162466868Y-82301307D01*
X162479480Y-82322350D01*
X162489970Y-82344529D01*
X162498235Y-82367628D01*
X162504196Y-82391427D01*
X162507796Y-82415695D01*
X162509000Y-82440199D01*
X162509000Y-84590201D01*
X162507796Y-84614705D01*
X162504196Y-84638973D01*
X162498235Y-84662772D01*
X162489970Y-84685871D01*
X162479480Y-84708050D01*
X162466868Y-84729093D01*
X162452253Y-84748799D01*
X162435777Y-84766977D01*
X162417599Y-84783453D01*
X162397893Y-84798068D01*
X162376850Y-84810680D01*
X162354671Y-84821170D01*
X162331572Y-84829435D01*
X162307773Y-84835396D01*
X162283505Y-84838996D01*
X162259001Y-84840200D01*
X161233999Y-84840200D01*
X161209495Y-84838996D01*
X161185227Y-84835396D01*
X161161428Y-84829435D01*
X161138329Y-84821170D01*
X161116150Y-84810680D01*
X161095107Y-84798068D01*
X161075401Y-84783453D01*
X161057223Y-84766977D01*
X161040747Y-84748799D01*
X161026132Y-84729093D01*
X161013520Y-84708050D01*
X161003030Y-84685871D01*
X160994765Y-84662772D01*
X160988804Y-84638973D01*
X160985204Y-84614705D01*
X160984000Y-84590201D01*
X160984000Y-82440199D01*
X160985204Y-82415695D01*
X160988804Y-82391427D01*
X160994765Y-82367628D01*
X161003030Y-82344529D01*
X161013520Y-82322350D01*
X161026132Y-82301307D01*
X161040747Y-82281601D01*
X161057223Y-82263423D01*
X161075401Y-82246947D01*
X161095107Y-82232332D01*
X161116150Y-82219720D01*
X161138329Y-82209230D01*
X161161428Y-82200965D01*
X161185227Y-82195004D01*
X161209495Y-82191404D01*
X161233999Y-82190200D01*
X162259001Y-82190200D01*
X162283505Y-82191404D01*
G37*
G36*
X172421979Y-87055344D02*
G01*
X172445034Y-87058763D01*
X172467643Y-87064427D01*
X172489587Y-87072279D01*
X172510657Y-87082244D01*
X172530648Y-87094226D01*
X172549368Y-87108110D01*
X172566638Y-87123762D01*
X172582290Y-87141032D01*
X172596174Y-87159752D01*
X172608156Y-87179743D01*
X172618121Y-87200813D01*
X172625973Y-87222757D01*
X172631637Y-87245366D01*
X172635056Y-87268421D01*
X172636200Y-87291700D01*
X172636200Y-87866700D01*
X172635056Y-87889979D01*
X172631637Y-87913034D01*
X172625973Y-87935643D01*
X172618121Y-87957587D01*
X172608156Y-87978657D01*
X172596174Y-87998648D01*
X172582290Y-88017368D01*
X172566638Y-88034638D01*
X172549368Y-88050290D01*
X172530648Y-88064174D01*
X172510657Y-88076156D01*
X172489587Y-88086121D01*
X172467643Y-88093973D01*
X172445034Y-88099637D01*
X172421979Y-88103056D01*
X172398700Y-88104200D01*
X171923700Y-88104200D01*
X171900421Y-88103056D01*
X171877366Y-88099637D01*
X171854757Y-88093973D01*
X171832813Y-88086121D01*
X171811743Y-88076156D01*
X171791752Y-88064174D01*
X171773032Y-88050290D01*
X171755762Y-88034638D01*
X171740110Y-88017368D01*
X171726226Y-87998648D01*
X171714244Y-87978657D01*
X171704279Y-87957587D01*
X171696427Y-87935643D01*
X171690763Y-87913034D01*
X171687344Y-87889979D01*
X171686200Y-87866700D01*
X171686200Y-87291700D01*
X171687344Y-87268421D01*
X171690763Y-87245366D01*
X171696427Y-87222757D01*
X171704279Y-87200813D01*
X171714244Y-87179743D01*
X171726226Y-87159752D01*
X171740110Y-87141032D01*
X171755762Y-87123762D01*
X171773032Y-87108110D01*
X171791752Y-87094226D01*
X171811743Y-87082244D01*
X171832813Y-87072279D01*
X171854757Y-87064427D01*
X171877366Y-87058763D01*
X171900421Y-87055344D01*
X171923700Y-87054200D01*
X172398700Y-87054200D01*
X172421979Y-87055344D01*
G37*
G36*
X172421979Y-85305344D02*
G01*
X172445034Y-85308763D01*
X172467643Y-85314427D01*
X172489587Y-85322279D01*
X172510657Y-85332244D01*
X172530648Y-85344226D01*
X172549368Y-85358110D01*
X172566638Y-85373762D01*
X172582290Y-85391032D01*
X172596174Y-85409752D01*
X172608156Y-85429743D01*
X172618121Y-85450813D01*
X172625973Y-85472757D01*
X172631637Y-85495366D01*
X172635056Y-85518421D01*
X172636200Y-85541700D01*
X172636200Y-86116700D01*
X172635056Y-86139979D01*
X172631637Y-86163034D01*
X172625973Y-86185643D01*
X172618121Y-86207587D01*
X172608156Y-86228657D01*
X172596174Y-86248648D01*
X172582290Y-86267368D01*
X172566638Y-86284638D01*
X172549368Y-86300290D01*
X172530648Y-86314174D01*
X172510657Y-86326156D01*
X172489587Y-86336121D01*
X172467643Y-86343973D01*
X172445034Y-86349637D01*
X172421979Y-86353056D01*
X172398700Y-86354200D01*
X171923700Y-86354200D01*
X171900421Y-86353056D01*
X171877366Y-86349637D01*
X171854757Y-86343973D01*
X171832813Y-86336121D01*
X171811743Y-86326156D01*
X171791752Y-86314174D01*
X171773032Y-86300290D01*
X171755762Y-86284638D01*
X171740110Y-86267368D01*
X171726226Y-86248648D01*
X171714244Y-86228657D01*
X171704279Y-86207587D01*
X171696427Y-86185643D01*
X171690763Y-86163034D01*
X171687344Y-86139979D01*
X171686200Y-86116700D01*
X171686200Y-85541700D01*
X171687344Y-85518421D01*
X171690763Y-85495366D01*
X171696427Y-85472757D01*
X171704279Y-85450813D01*
X171714244Y-85429743D01*
X171726226Y-85409752D01*
X171740110Y-85391032D01*
X171755762Y-85373762D01*
X171773032Y-85358110D01*
X171791752Y-85344226D01*
X171811743Y-85332244D01*
X171832813Y-85322279D01*
X171854757Y-85314427D01*
X171877366Y-85308763D01*
X171900421Y-85305344D01*
X171923700Y-85304200D01*
X172398700Y-85304200D01*
X172421979Y-85305344D01*
G37*
G36*
X186379779Y-86394144D02*
G01*
X186402834Y-86397563D01*
X186425443Y-86403227D01*
X186447387Y-86411079D01*
X186468457Y-86421044D01*
X186488448Y-86433026D01*
X186507168Y-86446910D01*
X186524438Y-86462562D01*
X186540090Y-86479832D01*
X186553974Y-86498552D01*
X186565956Y-86518543D01*
X186575921Y-86539613D01*
X186583773Y-86561557D01*
X186589437Y-86584166D01*
X186592856Y-86607221D01*
X186594000Y-86630500D01*
X186594000Y-87105500D01*
X186592856Y-87128779D01*
X186589437Y-87151834D01*
X186583773Y-87174443D01*
X186575921Y-87196387D01*
X186565956Y-87217457D01*
X186553974Y-87237448D01*
X186540090Y-87256168D01*
X186524438Y-87273438D01*
X186507168Y-87289090D01*
X186488448Y-87302974D01*
X186468457Y-87314956D01*
X186447387Y-87324921D01*
X186425443Y-87332773D01*
X186402834Y-87338437D01*
X186379779Y-87341856D01*
X186356500Y-87343000D01*
X185781500Y-87343000D01*
X185758221Y-87341856D01*
X185735166Y-87338437D01*
X185712557Y-87332773D01*
X185690613Y-87324921D01*
X185669543Y-87314956D01*
X185649552Y-87302974D01*
X185630832Y-87289090D01*
X185613562Y-87273438D01*
X185597910Y-87256168D01*
X185584026Y-87237448D01*
X185572044Y-87217457D01*
X185562079Y-87196387D01*
X185554227Y-87174443D01*
X185548563Y-87151834D01*
X185545144Y-87128779D01*
X185544000Y-87105500D01*
X185544000Y-86630500D01*
X185545144Y-86607221D01*
X185548563Y-86584166D01*
X185554227Y-86561557D01*
X185562079Y-86539613D01*
X185572044Y-86518543D01*
X185584026Y-86498552D01*
X185597910Y-86479832D01*
X185613562Y-86462562D01*
X185630832Y-86446910D01*
X185649552Y-86433026D01*
X185669543Y-86421044D01*
X185690613Y-86411079D01*
X185712557Y-86403227D01*
X185735166Y-86397563D01*
X185758221Y-86394144D01*
X185781500Y-86393000D01*
X186356500Y-86393000D01*
X186379779Y-86394144D01*
G37*
G36*
X188129779Y-86394144D02*
G01*
X188152834Y-86397563D01*
X188175443Y-86403227D01*
X188197387Y-86411079D01*
X188218457Y-86421044D01*
X188238448Y-86433026D01*
X188257168Y-86446910D01*
X188274438Y-86462562D01*
X188290090Y-86479832D01*
X188303974Y-86498552D01*
X188315956Y-86518543D01*
X188325921Y-86539613D01*
X188333773Y-86561557D01*
X188339437Y-86584166D01*
X188342856Y-86607221D01*
X188344000Y-86630500D01*
X188344000Y-87105500D01*
X188342856Y-87128779D01*
X188339437Y-87151834D01*
X188333773Y-87174443D01*
X188325921Y-87196387D01*
X188315956Y-87217457D01*
X188303974Y-87237448D01*
X188290090Y-87256168D01*
X188274438Y-87273438D01*
X188257168Y-87289090D01*
X188238448Y-87302974D01*
X188218457Y-87314956D01*
X188197387Y-87324921D01*
X188175443Y-87332773D01*
X188152834Y-87338437D01*
X188129779Y-87341856D01*
X188106500Y-87343000D01*
X187531500Y-87343000D01*
X187508221Y-87341856D01*
X187485166Y-87338437D01*
X187462557Y-87332773D01*
X187440613Y-87324921D01*
X187419543Y-87314956D01*
X187399552Y-87302974D01*
X187380832Y-87289090D01*
X187363562Y-87273438D01*
X187347910Y-87256168D01*
X187334026Y-87237448D01*
X187322044Y-87217457D01*
X187312079Y-87196387D01*
X187304227Y-87174443D01*
X187298563Y-87151834D01*
X187295144Y-87128779D01*
X187294000Y-87105500D01*
X187294000Y-86630500D01*
X187295144Y-86607221D01*
X187298563Y-86584166D01*
X187304227Y-86561557D01*
X187312079Y-86539613D01*
X187322044Y-86518543D01*
X187334026Y-86498552D01*
X187347910Y-86479832D01*
X187363562Y-86462562D01*
X187380832Y-86446910D01*
X187399552Y-86433026D01*
X187419543Y-86421044D01*
X187440613Y-86411079D01*
X187462557Y-86403227D01*
X187485166Y-86397563D01*
X187508221Y-86394144D01*
X187531500Y-86393000D01*
X188106500Y-86393000D01*
X188129779Y-86394144D01*
G37*
M02*
