M48
; DRILL file {KiCad (5.1.4)-1} date 1/15/2020 1:51:45 PM
; FORMAT={-:-/ absolute / inch / decimal}
; #@! TF.CreationDate,2020-01-15T13:51:45-05:00
; #@! TF.GenerationSoftware,Kicad,Pcbnew,(5.1.4)-1
; #@! TF.FileFunction,Plated,1,2,PTH
FMAT,2
INCH
T1C0.0157
T2C0.0295
T3C0.0315
T4C0.0340
T5C0.0354
T6C0.0394
T7C0.0472
T8C0.0531
T9C0.0591
T10C0.0669
%
G90
G05
T1
X4.3287Y-2.1154
X4.33Y-2.185
X4.42Y-2.345
X4.43Y-2.09
X4.65Y-1.855
X4.895Y-1.995
X5.135Y-2.22
X5.385Y-2.225
X5.605Y-2.225
X5.8091Y-2.374
X7.51Y-1.975
X7.685Y-2.095
X7.685Y-2.15
X7.865Y-2.215
X8.235Y-2.245
X8.405Y-2.245
X8.59Y-2.245
X8.77Y-2.245
X8.95Y-2.39
T2
X9.14Y-2.33
X9.14Y-2.38
X9.14Y-2.43
X6.139Y-2.2988
X6.139Y-2.3488
X6.139Y-2.3988
X7.485Y-2.46
X7.535Y-2.46
X7.585Y-2.46
X5.9724Y-2.2996
X5.9724Y-2.3496
X5.9724Y-2.3996
X4.8366Y-2.2539
X4.8866Y-2.2539
X4.9366Y-2.2539
X7.99Y-2.23
X8.04Y-2.23
X8.09Y-2.23
X4.3146Y-2.4449
X4.3646Y-2.4449
X4.4146Y-2.4449
X9.3Y-2.33
X9.3Y-2.38
X9.3Y-2.43
T3
X9.395Y-2.945
X9.395Y-3.1419
X6.2866Y-2.9437
X6.2866Y-3.1406
X5.9098Y-2.148
X6.1067Y-2.148
X6.0839Y-2.713
X6.0839Y-2.7917
X9.8Y-2.225
X9.9969Y-2.225
X6.6886Y-2.1736
X6.8854Y-2.1736
X9.0381Y-2.17
X9.235Y-2.17
X5.9984Y-2.5579
X6.1953Y-2.5579
X9.235Y-2.7263
X9.235Y-2.805
X4.3339Y-1.5346
X4.3339Y-1.7315
X7.47Y-1.5781
X7.47Y-1.775
X7.6931Y-2.365
X7.89Y-2.365
X4.5224Y-2.3406
X4.7193Y-2.3406
X9.2Y-2.575
X9.3969Y-2.575
T4
X4.821Y-1.8591
X4.821Y-1.9576
X4.821Y-2.056
X7.931Y-1.8491
X7.931Y-1.9476
X7.931Y-2.046
T5
X4.2705Y-1.9961
X4.3705Y-1.9961
X7.41Y-2.045
X7.51Y-2.045
T6
X4.6976Y-3.0634
X4.8945Y-3.0634
X9.345Y-1.86
X9.345Y-1.96
X9.345Y-2.06
X5.8776Y-1.9906
X5.9776Y-1.9906
X6.0776Y-1.9906
X7.8331Y-3.085
X8.03Y-3.085
X4.698Y-2.6343
X4.8949Y-2.6343
X8.995Y-2.03
X9.095Y-2.03
X9.195Y-2.03
X4.4319Y-2.1945
X4.5319Y-2.1945
X4.6319Y-2.1945
X6.8413Y-1.7524
X6.8413Y-1.9492
X9.95Y-1.805
X9.95Y-2.0019
X7.545Y-2.225
X7.645Y-2.225
X7.745Y-2.225
X7.835Y-2.66
X8.0319Y-2.66
X5.4736Y-1.5898
X5.4736Y-1.7866
X8.6Y-1.63
X8.6Y-1.8269
X6.2228Y-1.8717
X6.2228Y-1.9717
X6.2228Y-2.0717
T7
X8.73Y-2.0
X8.73Y-3.2
X5.2091Y-1.961
X8.345Y-2.0
X8.345Y-3.2
X5.6106Y-1.9583
X5.6106Y-3.1583
X5.2091Y-3.161
T8
X7.215Y-1.645
X7.215Y-1.8419
X7.215Y-2.2356
X7.215Y-2.4324
X6.4673Y-1.8378
X6.4673Y-2.0346
X6.4673Y-2.4283
X6.4673Y-2.6252
X4.0713Y-1.6031
X4.0713Y-1.8
X4.0713Y-2.1937
X4.0713Y-2.3906
X9.59Y-1.875
X9.59Y-2.0719
X9.59Y-2.4656
X9.59Y-2.6624
T9
X5.8764Y-1.5764
X6.0909Y-1.5764
X6.3055Y-1.5764
X9.005Y-1.615
X9.2196Y-1.615
X9.4341Y-1.615
X7.765Y-1.615
X7.9796Y-1.615
X8.1941Y-1.615
X4.6413Y-1.576
X4.8559Y-1.576
X5.0705Y-1.576
T10
X4.165Y-2.865
X4.321Y-2.865
X9.84Y-2.56
X9.996Y-2.56
X6.639Y-2.8622
X6.639Y-3.0182
X7.229Y-2.905
X7.385Y-2.905
X9.035Y-3.115
X9.191Y-3.115
X5.9244Y-3.1039
X6.0804Y-3.1039
X6.722Y-2.5091
X6.878Y-2.5091
X9.725Y-2.89
X9.725Y-3.046
T0
M30
