%TF.GenerationSoftware,KiCad,Pcbnew,(5.99.0-1346-gf663f199b)*%
%TF.CreationDate,2020-04-22T12:45:50-04:00*%
%TF.ProjectId,AAMB,41414d42-2e6b-4696-9361-645f70636258,rev?*%
%TF.SameCoordinates,Original*%
%TF.FileFunction,Soldermask,Top*%
%TF.FilePolarity,Negative*%
%FSLAX46Y46*%
G04 Gerber Fmt 4.6, Leading zero omitted, Abs format (unit mm)*
G04 Created by KiCad (PCBNEW (5.99.0-1346-gf663f199b)) date 2020-04-22 12:45:50*
%MOMM*%
%LPD*%
G01*
G04 APERTURE LIST*
%ADD10C,0.100000*%
%ADD11C,6.400000*%
%ADD12R,1.600000X1.600000*%
%ADD13C,2.600000*%
%ADD14R,2.600000X2.600000*%
%ADD15O,2.500000X2.500000*%
%ADD16R,2.500000X2.500000*%
%ADD17C,1.440000*%
%ADD18C,2.200000*%
%ADD19C,2.000000*%
%ADD20C,1.524000*%
%ADD21O,2.400000X2.400000*%
%ADD22C,2.400000*%
%ADD23R,0.800000X0.900000*%
%ADD24R,1.500000X2.000000*%
%ADD25R,3.800000X2.000000*%
%ADD26R,2.000000X1.500000*%
%ADD27R,2.000000X3.800000*%
%ADD28R,0.900000X0.800000*%
%ADD29R,0.650000X0.400000*%
%ADD30R,0.400000X0.650000*%
%ADD31R,1.800000X2.500000*%
%ADD32R,2.500000X1.800000*%
%ADD33R,2.500000X4.500000*%
%ADD34O,2.500000X4.500000*%
%ADD35C,1.600000*%
%ADD36R,1.500000X0.450000*%
%ADD37C,1.400000*%
%ADD38C,0.800000*%
%ADD39C,0.400000*%
%ADD40C,0.600000*%
G04 APERTURE END LIST*
G36*
X141324800Y-118212800D02*
G01*
X141622800Y-118284800D01*
X141905800Y-118401800D01*
X142166800Y-118561800D01*
X142399800Y-118760800D01*
X142598800Y-118993800D01*
X142758800Y-119254800D01*
X142875800Y-119537800D01*
X142947800Y-119835800D01*
X142971800Y-120140800D01*
X142947800Y-120445800D01*
X142875800Y-120743800D01*
X142758800Y-121026800D01*
X142598800Y-121287800D01*
X142399800Y-121520800D01*
X142166800Y-121719800D01*
X141905800Y-121879800D01*
X141622800Y-121996800D01*
X141324800Y-122068800D01*
X141019800Y-122092800D01*
X137719800Y-122092800D01*
X137414800Y-122068800D01*
X137116800Y-121996800D01*
X136833800Y-121879800D01*
X136572800Y-121719800D01*
X136339800Y-121520800D01*
X136140800Y-121287800D01*
X135980800Y-121026800D01*
X135863800Y-120743800D01*
X135791800Y-120445800D01*
X135767800Y-120140800D01*
X135791800Y-119835800D01*
X135863800Y-119537800D01*
X135980800Y-119254800D01*
X136140800Y-118993800D01*
X136339800Y-118760800D01*
X136572800Y-118561800D01*
X136833800Y-118401800D01*
X137116800Y-118284800D01*
X137414800Y-118212800D01*
X137719800Y-118188800D01*
X141019800Y-118188800D01*
X141324800Y-118212800D01*
G37*
D10*
X141324800Y-118212800D02*
X141622800Y-118284800D01*
X141905800Y-118401800D01*
X142166800Y-118561800D01*
X142399800Y-118760800D01*
X142598800Y-118993800D01*
X142758800Y-119254800D01*
X142875800Y-119537800D01*
X142947800Y-119835800D01*
X142971800Y-120140800D01*
X142947800Y-120445800D01*
X142875800Y-120743800D01*
X142758800Y-121026800D01*
X142598800Y-121287800D01*
X142399800Y-121520800D01*
X142166800Y-121719800D01*
X141905800Y-121879800D01*
X141622800Y-121996800D01*
X141324800Y-122068800D01*
X141019800Y-122092800D01*
X137719800Y-122092800D01*
X137414800Y-122068800D01*
X137116800Y-121996800D01*
X136833800Y-121879800D01*
X136572800Y-121719800D01*
X136339800Y-121520800D01*
X136140800Y-121287800D01*
X135980800Y-121026800D01*
X135863800Y-120743800D01*
X135791800Y-120445800D01*
X135767800Y-120140800D01*
X135791800Y-119835800D01*
X135863800Y-119537800D01*
X135980800Y-119254800D01*
X136140800Y-118993800D01*
X136339800Y-118760800D01*
X136572800Y-118561800D01*
X136833800Y-118401800D01*
X137116800Y-118284800D01*
X137414800Y-118212800D01*
X137719800Y-118188800D01*
X141019800Y-118188800D01*
X141324800Y-118212800D01*
G36*
X112423800Y-118204800D02*
G01*
X112621800Y-118252800D01*
X112810800Y-118330800D01*
X112984800Y-118437800D01*
X113139800Y-118570800D01*
X113272800Y-118725800D01*
X113379800Y-118899800D01*
X113457800Y-119088800D01*
X113505800Y-119286800D01*
X113521800Y-119490800D01*
X113521800Y-120790800D01*
X113505800Y-120994800D01*
X113457800Y-121192800D01*
X113379800Y-121381800D01*
X113272800Y-121555800D01*
X113139800Y-121710800D01*
X112984800Y-121843800D01*
X112810800Y-121950800D01*
X112621800Y-122028800D01*
X112423800Y-122076800D01*
X112219800Y-122092800D01*
X112015800Y-122076800D01*
X111817800Y-122028800D01*
X111628800Y-121950800D01*
X111454800Y-121843800D01*
X111299800Y-121710800D01*
X111166800Y-121555800D01*
X111059800Y-121381800D01*
X110981800Y-121192800D01*
X110933800Y-120994800D01*
X110917800Y-120790800D01*
X110917800Y-119490800D01*
X110933800Y-119286800D01*
X110981800Y-119088800D01*
X111059800Y-118899800D01*
X111166800Y-118725800D01*
X111299800Y-118570800D01*
X111454800Y-118437800D01*
X111628800Y-118330800D01*
X111817800Y-118252800D01*
X112015800Y-118204800D01*
X112219800Y-118188800D01*
X112423800Y-118204800D01*
G37*
X112423800Y-118204800D02*
X112621800Y-118252800D01*
X112810800Y-118330800D01*
X112984800Y-118437800D01*
X113139800Y-118570800D01*
X113272800Y-118725800D01*
X113379800Y-118899800D01*
X113457800Y-119088800D01*
X113505800Y-119286800D01*
X113521800Y-119490800D01*
X113521800Y-120790800D01*
X113505800Y-120994800D01*
X113457800Y-121192800D01*
X113379800Y-121381800D01*
X113272800Y-121555800D01*
X113139800Y-121710800D01*
X112984800Y-121843800D01*
X112810800Y-121950800D01*
X112621800Y-122028800D01*
X112423800Y-122076800D01*
X112219800Y-122092800D01*
X112015800Y-122076800D01*
X111817800Y-122028800D01*
X111628800Y-121950800D01*
X111454800Y-121843800D01*
X111299800Y-121710800D01*
X111166800Y-121555800D01*
X111059800Y-121381800D01*
X110981800Y-121192800D01*
X110933800Y-120994800D01*
X110917800Y-120790800D01*
X110917800Y-119490800D01*
X110933800Y-119286800D01*
X110981800Y-119088800D01*
X111059800Y-118899800D01*
X111166800Y-118725800D01*
X111299800Y-118570800D01*
X111454800Y-118437800D01*
X111628800Y-118330800D01*
X111817800Y-118252800D01*
X112015800Y-118204800D01*
X112219800Y-118188800D01*
X112423800Y-118204800D01*
G36*
X166723800Y-118204800D02*
G01*
X166921800Y-118252800D01*
X167110800Y-118330800D01*
X167284800Y-118437800D01*
X167439800Y-118570800D01*
X167572800Y-118725800D01*
X167679800Y-118899800D01*
X167757800Y-119088800D01*
X167805800Y-119286800D01*
X167821800Y-119490800D01*
X167821800Y-120790800D01*
X167805800Y-120994800D01*
X167757800Y-121192800D01*
X167679800Y-121381800D01*
X167572800Y-121555800D01*
X167439800Y-121710800D01*
X167284800Y-121843800D01*
X167110800Y-121950800D01*
X166921800Y-122028800D01*
X166723800Y-122076800D01*
X166519800Y-122092800D01*
X166315800Y-122076800D01*
X166117800Y-122028800D01*
X165928800Y-121950800D01*
X165754800Y-121843800D01*
X165599800Y-121710800D01*
X165466800Y-121555800D01*
X165359800Y-121381800D01*
X165281800Y-121192800D01*
X165233800Y-120994800D01*
X165217800Y-120790800D01*
X165217800Y-119490800D01*
X165233800Y-119286800D01*
X165281800Y-119088800D01*
X165359800Y-118899800D01*
X165466800Y-118725800D01*
X165599800Y-118570800D01*
X165754800Y-118437800D01*
X165928800Y-118330800D01*
X166117800Y-118252800D01*
X166315800Y-118204800D01*
X166519800Y-118188800D01*
X166723800Y-118204800D01*
G37*
X166723800Y-118204800D02*
X166921800Y-118252800D01*
X167110800Y-118330800D01*
X167284800Y-118437800D01*
X167439800Y-118570800D01*
X167572800Y-118725800D01*
X167679800Y-118899800D01*
X167757800Y-119088800D01*
X167805800Y-119286800D01*
X167821800Y-119490800D01*
X167821800Y-120790800D01*
X167805800Y-120994800D01*
X167757800Y-121192800D01*
X167679800Y-121381800D01*
X167572800Y-121555800D01*
X167439800Y-121710800D01*
X167284800Y-121843800D01*
X167110800Y-121950800D01*
X166921800Y-122028800D01*
X166723800Y-122076800D01*
X166519800Y-122092800D01*
X166315800Y-122076800D01*
X166117800Y-122028800D01*
X165928800Y-121950800D01*
X165754800Y-121843800D01*
X165599800Y-121710800D01*
X165466800Y-121555800D01*
X165359800Y-121381800D01*
X165281800Y-121192800D01*
X165233800Y-120994800D01*
X165217800Y-120790800D01*
X165217800Y-119490800D01*
X165233800Y-119286800D01*
X165281800Y-119088800D01*
X165359800Y-118899800D01*
X165466800Y-118725800D01*
X165599800Y-118570800D01*
X165754800Y-118437800D01*
X165928800Y-118330800D01*
X166117800Y-118252800D01*
X166315800Y-118204800D01*
X166519800Y-118188800D01*
X166723800Y-118204800D01*
D11*
X71866760Y-120881140D03*
X82697320Y-50162460D03*
X212369400Y-110566200D03*
X211582000Y-50716180D03*
D12*
X135669020Y-101836220D03*
X143289020Y-84056220D03*
X135669020Y-99296220D03*
X143289020Y-86596220D03*
X135669020Y-96756220D03*
X143289020Y-89136220D03*
X135669020Y-94216220D03*
X143289020Y-91676220D03*
X135669020Y-91676220D03*
X143289020Y-94216220D03*
X135669020Y-89136220D03*
X143289020Y-96756220D03*
X135669020Y-86596220D03*
X143289020Y-99296220D03*
X135669020Y-84056220D03*
X143289020Y-101836220D03*
G36*
G01*
X148816200Y-91447720D02*
X148516200Y-91447720D01*
G75*
G02*
X148366200Y-91297720I0J150000D01*
G01*
X148366200Y-89647720D01*
G75*
G02*
X148516200Y-89497720I150000J0D01*
G01*
X148816200Y-89497720D01*
G75*
G02*
X148966200Y-89647720I0J-150000D01*
G01*
X148966200Y-91297720D01*
G75*
G02*
X148816200Y-91447720I-150000J0D01*
G01*
G37*
G36*
G01*
X150086200Y-91447720D02*
X149786200Y-91447720D01*
G75*
G02*
X149636200Y-91297720I0J150000D01*
G01*
X149636200Y-89647720D01*
G75*
G02*
X149786200Y-89497720I150000J0D01*
G01*
X150086200Y-89497720D01*
G75*
G02*
X150236200Y-89647720I0J-150000D01*
G01*
X150236200Y-91297720D01*
G75*
G02*
X150086200Y-91447720I-150000J0D01*
G01*
G37*
G36*
G01*
X151356200Y-91447720D02*
X151056200Y-91447720D01*
G75*
G02*
X150906200Y-91297720I0J150000D01*
G01*
X150906200Y-89647720D01*
G75*
G02*
X151056200Y-89497720I150000J0D01*
G01*
X151356200Y-89497720D01*
G75*
G02*
X151506200Y-89647720I0J-150000D01*
G01*
X151506200Y-91297720D01*
G75*
G02*
X151356200Y-91447720I-150000J0D01*
G01*
G37*
G36*
G01*
X152626200Y-91447720D02*
X152326200Y-91447720D01*
G75*
G02*
X152176200Y-91297720I0J150000D01*
G01*
X152176200Y-89647720D01*
G75*
G02*
X152326200Y-89497720I150000J0D01*
G01*
X152626200Y-89497720D01*
G75*
G02*
X152776200Y-89647720I0J-150000D01*
G01*
X152776200Y-91297720D01*
G75*
G02*
X152626200Y-91447720I-150000J0D01*
G01*
G37*
G36*
G01*
X152626200Y-96397720D02*
X152326200Y-96397720D01*
G75*
G02*
X152176200Y-96247720I0J150000D01*
G01*
X152176200Y-94597720D01*
G75*
G02*
X152326200Y-94447720I150000J0D01*
G01*
X152626200Y-94447720D01*
G75*
G02*
X152776200Y-94597720I0J-150000D01*
G01*
X152776200Y-96247720D01*
G75*
G02*
X152626200Y-96397720I-150000J0D01*
G01*
G37*
G36*
G01*
X151356200Y-96397720D02*
X151056200Y-96397720D01*
G75*
G02*
X150906200Y-96247720I0J150000D01*
G01*
X150906200Y-94597720D01*
G75*
G02*
X151056200Y-94447720I150000J0D01*
G01*
X151356200Y-94447720D01*
G75*
G02*
X151506200Y-94597720I0J-150000D01*
G01*
X151506200Y-96247720D01*
G75*
G02*
X151356200Y-96397720I-150000J0D01*
G01*
G37*
G36*
G01*
X150086200Y-96397720D02*
X149786200Y-96397720D01*
G75*
G02*
X149636200Y-96247720I0J150000D01*
G01*
X149636200Y-94597720D01*
G75*
G02*
X149786200Y-94447720I150000J0D01*
G01*
X150086200Y-94447720D01*
G75*
G02*
X150236200Y-94597720I0J-150000D01*
G01*
X150236200Y-96247720D01*
G75*
G02*
X150086200Y-96397720I-150000J0D01*
G01*
G37*
G36*
G01*
X148816200Y-96397720D02*
X148516200Y-96397720D01*
G75*
G02*
X148366200Y-96247720I0J150000D01*
G01*
X148366200Y-94597720D01*
G75*
G02*
X148516200Y-94447720I150000J0D01*
G01*
X148816200Y-94447720D01*
G75*
G02*
X148966200Y-94597720I0J-150000D01*
G01*
X148966200Y-96247720D01*
G75*
G02*
X148816200Y-96397720I-150000J0D01*
G01*
G37*
D13*
X212899000Y-120459500D03*
D14*
X207899000Y-120459500D03*
D15*
X212804260Y-88245700D03*
X212804260Y-100445700D03*
X200804260Y-100445700D03*
X200804260Y-88245700D03*
D16*
X206804260Y-86245700D03*
X98425000Y-110934500D03*
D15*
X104425000Y-108934500D03*
X104425000Y-96734500D03*
X92425000Y-96734500D03*
X92425000Y-108934500D03*
D17*
X188849000Y-85026500D03*
X186309000Y-85026500D03*
X183769000Y-85026500D03*
X105918000Y-72390000D03*
X103378000Y-72390000D03*
X100838000Y-72390000D03*
D14*
X83693000Y-120396000D03*
D13*
X78693000Y-120396000D03*
D14*
X74041000Y-55689500D03*
D13*
X74041000Y-60689500D03*
X74041000Y-65689500D03*
X74041000Y-70689500D03*
X91139000Y-120332500D03*
X96139000Y-120332500D03*
X101139000Y-120332500D03*
D14*
X106139000Y-120332500D03*
G36*
G01*
X161928820Y-106511640D02*
X161453820Y-106511640D01*
G75*
G02*
X161216320Y-106274140I0J237500D01*
G01*
X161216320Y-105699140D01*
G75*
G02*
X161453820Y-105461640I237500J0D01*
G01*
X161928820Y-105461640D01*
G75*
G02*
X162166320Y-105699140I0J-237500D01*
G01*
X162166320Y-106274140D01*
G75*
G02*
X161928820Y-106511640I-237500J0D01*
G01*
G37*
G36*
G01*
X161928820Y-108261640D02*
X161453820Y-108261640D01*
G75*
G02*
X161216320Y-108024140I0J237500D01*
G01*
X161216320Y-107449140D01*
G75*
G02*
X161453820Y-107211640I237500J0D01*
G01*
X161928820Y-107211640D01*
G75*
G02*
X162166320Y-107449140I0J-237500D01*
G01*
X162166320Y-108024140D01*
G75*
G02*
X161928820Y-108261640I-237500J0D01*
G01*
G37*
G36*
G01*
X115151000Y-89248500D02*
X116751000Y-89248500D01*
G75*
G02*
X117001000Y-89498500I0J-250000D01*
G01*
X117001000Y-93598500D01*
G75*
G02*
X116751000Y-93848500I-250000J0D01*
G01*
X115151000Y-93848500D01*
G75*
G02*
X114901000Y-93598500I0J250000D01*
G01*
X114901000Y-89498500D01*
G75*
G02*
X115151000Y-89248500I250000J0D01*
G01*
G37*
G36*
G01*
X115151000Y-98048500D02*
X116751000Y-98048500D01*
G75*
G02*
X117001000Y-98298500I0J-250000D01*
G01*
X117001000Y-102398500D01*
G75*
G02*
X116751000Y-102648500I-250000J0D01*
G01*
X115151000Y-102648500D01*
G75*
G02*
X114901000Y-102398500I0J250000D01*
G01*
X114901000Y-98298500D01*
G75*
G02*
X115151000Y-98048500I250000J0D01*
G01*
G37*
D18*
X150119800Y-123640800D03*
X136119800Y-123640800D03*
X122119800Y-123640800D03*
X164119800Y-123640800D03*
D19*
X150119800Y-116390800D03*
X142619800Y-116390800D03*
X136119800Y-116390800D03*
X128619800Y-116390800D03*
X122119800Y-116390800D03*
X114619800Y-116390800D03*
X164119800Y-116390800D03*
X156619800Y-116390800D03*
D20*
X183363000Y-101822500D03*
X180863000Y-104322500D03*
X178363000Y-101822500D03*
D14*
X187706000Y-120840500D03*
D13*
X192706000Y-120840500D03*
X197706000Y-120840500D03*
X181530000Y-120840500D03*
X176530000Y-120840500D03*
D14*
X171530000Y-120840500D03*
G36*
G01*
X126896500Y-100191500D02*
X126421500Y-100191500D01*
G75*
G02*
X126184000Y-99954000I0J237500D01*
G01*
X126184000Y-99379000D01*
G75*
G02*
X126421500Y-99141500I237500J0D01*
G01*
X126896500Y-99141500D01*
G75*
G02*
X127134000Y-99379000I0J-237500D01*
G01*
X127134000Y-99954000D01*
G75*
G02*
X126896500Y-100191500I-237500J0D01*
G01*
G37*
G36*
G01*
X126896500Y-101941500D02*
X126421500Y-101941500D01*
G75*
G02*
X126184000Y-101704000I0J237500D01*
G01*
X126184000Y-101129000D01*
G75*
G02*
X126421500Y-100891500I237500J0D01*
G01*
X126896500Y-100891500D01*
G75*
G02*
X127134000Y-101129000I0J-237500D01*
G01*
X127134000Y-101704000D01*
G75*
G02*
X126896500Y-101941500I-237500J0D01*
G01*
G37*
G36*
G01*
X121726500Y-88216500D02*
X121251500Y-88216500D01*
G75*
G02*
X121014000Y-87979000I0J237500D01*
G01*
X121014000Y-87404000D01*
G75*
G02*
X121251500Y-87166500I237500J0D01*
G01*
X121726500Y-87166500D01*
G75*
G02*
X121964000Y-87404000I0J-237500D01*
G01*
X121964000Y-87979000D01*
G75*
G02*
X121726500Y-88216500I-237500J0D01*
G01*
G37*
G36*
G01*
X121726500Y-89966500D02*
X121251500Y-89966500D01*
G75*
G02*
X121014000Y-89729000I0J237500D01*
G01*
X121014000Y-89154000D01*
G75*
G02*
X121251500Y-88916500I237500J0D01*
G01*
X121726500Y-88916500D01*
G75*
G02*
X121964000Y-89154000I0J-237500D01*
G01*
X121964000Y-89729000D01*
G75*
G02*
X121726500Y-89966500I-237500J0D01*
G01*
G37*
G36*
G01*
X83810000Y-63768000D02*
X82560000Y-63768000D01*
G75*
G02*
X82310000Y-63518000I0J250000D01*
G01*
X82310000Y-62593000D01*
G75*
G02*
X82560000Y-62343000I250000J0D01*
G01*
X83810000Y-62343000D01*
G75*
G02*
X84060000Y-62593000I0J-250000D01*
G01*
X84060000Y-63518000D01*
G75*
G02*
X83810000Y-63768000I-250000J0D01*
G01*
G37*
G36*
G01*
X83810000Y-66743000D02*
X82560000Y-66743000D01*
G75*
G02*
X82310000Y-66493000I0J250000D01*
G01*
X82310000Y-65568000D01*
G75*
G02*
X82560000Y-65318000I250000J0D01*
G01*
X83810000Y-65318000D01*
G75*
G02*
X84060000Y-65568000I0J-250000D01*
G01*
X84060000Y-66493000D01*
G75*
G02*
X83810000Y-66743000I-250000J0D01*
G01*
G37*
G36*
G01*
X87643000Y-56187500D02*
X87643000Y-54937500D01*
G75*
G02*
X87893000Y-54687500I250000J0D01*
G01*
X88818000Y-54687500D01*
G75*
G02*
X89068000Y-54937500I0J-250000D01*
G01*
X89068000Y-56187500D01*
G75*
G02*
X88818000Y-56437500I-250000J0D01*
G01*
X87893000Y-56437500D01*
G75*
G02*
X87643000Y-56187500I0J250000D01*
G01*
G37*
G36*
G01*
X84668000Y-56187500D02*
X84668000Y-54937500D01*
G75*
G02*
X84918000Y-54687500I250000J0D01*
G01*
X85843000Y-54687500D01*
G75*
G02*
X86093000Y-54937500I0J-250000D01*
G01*
X86093000Y-56187500D01*
G75*
G02*
X85843000Y-56437500I-250000J0D01*
G01*
X84918000Y-56437500D01*
G75*
G02*
X84668000Y-56187500I0J250000D01*
G01*
G37*
D21*
X192283000Y-102332500D03*
D22*
X192283000Y-109952500D03*
D21*
X82042000Y-101917500D03*
D22*
X82042000Y-109537500D03*
G36*
G01*
X75631000Y-99278501D02*
X75631000Y-96428499D01*
G75*
G02*
X75880999Y-96178500I249999J0D01*
G01*
X76731001Y-96178500D01*
G75*
G02*
X76981000Y-96428499I0J-249999D01*
G01*
X76981000Y-99278501D01*
G75*
G02*
X76731001Y-99528500I-249999J0D01*
G01*
X75880999Y-99528500D01*
G75*
G02*
X75631000Y-99278501I0J249999D01*
G01*
G37*
G36*
G01*
X69831000Y-99278501D02*
X69831000Y-96428499D01*
G75*
G02*
X70080999Y-96178500I249999J0D01*
G01*
X70931001Y-96178500D01*
G75*
G02*
X71181000Y-96428499I0J-249999D01*
G01*
X71181000Y-99278501D01*
G75*
G02*
X70931001Y-99528500I-249999J0D01*
G01*
X70080999Y-99528500D01*
G75*
G02*
X69831000Y-99278501I0J249999D01*
G01*
G37*
X175307000Y-63182500D03*
X170307000Y-63182500D03*
X194945000Y-65849500D03*
X194945000Y-60849500D03*
X118364000Y-68770500D03*
X118364000Y-63770500D03*
X128270000Y-68770500D03*
X128270000Y-63770500D03*
D23*
X187264000Y-81184500D03*
X186314000Y-79184500D03*
X188214000Y-79184500D03*
D24*
X162828000Y-58000500D03*
X158228000Y-58000500D03*
X160528000Y-58000500D03*
D25*
X160528000Y-64300500D03*
D24*
X188355000Y-57873500D03*
X183755000Y-57873500D03*
X186055000Y-57873500D03*
D25*
X186055000Y-64173500D03*
D26*
X177533000Y-75462500D03*
X177533000Y-80062500D03*
X177533000Y-77762500D03*
D27*
X183833000Y-77762500D03*
D28*
X179543000Y-85752500D03*
X177543000Y-86702500D03*
X177543000Y-84802500D03*
X102870000Y-62674500D03*
X100870000Y-63624500D03*
X100870000Y-61724500D03*
D24*
X109869000Y-60057500D03*
X105269000Y-60057500D03*
X107569000Y-60057500D03*
D25*
X107569000Y-66357500D03*
D24*
X139460000Y-58381500D03*
X134860000Y-58381500D03*
X137160000Y-58381500D03*
D25*
X137160000Y-64681500D03*
D26*
X81686000Y-71804500D03*
X81686000Y-76404500D03*
X81686000Y-74104500D03*
D27*
X87986000Y-74104500D03*
D28*
X92440000Y-67500500D03*
X90440000Y-68450500D03*
X90440000Y-66550500D03*
D26*
X74447000Y-85901500D03*
X74447000Y-90501500D03*
X74447000Y-88201500D03*
D27*
X80747000Y-88201500D03*
D23*
X84201000Y-84788500D03*
X85151000Y-86788500D03*
X83251000Y-86788500D03*
X97475000Y-77946500D03*
X98425000Y-79946500D03*
X96525000Y-79946500D03*
D29*
X170403000Y-84742500D03*
X170403000Y-83442500D03*
X172303000Y-84092500D03*
X170403000Y-84092500D03*
X172303000Y-83442500D03*
X172303000Y-84742500D03*
D30*
X90409000Y-62867500D03*
X91709000Y-62867500D03*
X91059000Y-64767500D03*
X91059000Y-62867500D03*
X91709000Y-64767500D03*
X90409000Y-64767500D03*
D28*
X87360000Y-89852500D03*
X85360000Y-90802500D03*
X85360000Y-88902500D03*
G36*
G01*
X172730500Y-89877500D02*
X172255500Y-89877500D01*
G75*
G02*
X172018000Y-89640000I0J237500D01*
G01*
X172018000Y-89065000D01*
G75*
G02*
X172255500Y-88827500I237500J0D01*
G01*
X172730500Y-88827500D01*
G75*
G02*
X172968000Y-89065000I0J-237500D01*
G01*
X172968000Y-89640000D01*
G75*
G02*
X172730500Y-89877500I-237500J0D01*
G01*
G37*
G36*
G01*
X172730500Y-91627500D02*
X172255500Y-91627500D01*
G75*
G02*
X172018000Y-91390000I0J237500D01*
G01*
X172018000Y-90815000D01*
G75*
G02*
X172255500Y-90577500I237500J0D01*
G01*
X172730500Y-90577500D01*
G75*
G02*
X172968000Y-90815000I0J-237500D01*
G01*
X172968000Y-91390000D01*
G75*
G02*
X172730500Y-91627500I-237500J0D01*
G01*
G37*
G36*
G01*
X90977000Y-71581000D02*
X90977000Y-72056000D01*
G75*
G02*
X90739500Y-72293500I-237500J0D01*
G01*
X90164500Y-72293500D01*
G75*
G02*
X89927000Y-72056000I0J237500D01*
G01*
X89927000Y-71581000D01*
G75*
G02*
X90164500Y-71343500I237500J0D01*
G01*
X90739500Y-71343500D01*
G75*
G02*
X90977000Y-71581000I0J-237500D01*
G01*
G37*
G36*
G01*
X92727000Y-71581000D02*
X92727000Y-72056000D01*
G75*
G02*
X92489500Y-72293500I-237500J0D01*
G01*
X91914500Y-72293500D01*
G75*
G02*
X91677000Y-72056000I0J237500D01*
G01*
X91677000Y-71581000D01*
G75*
G02*
X91914500Y-71343500I237500J0D01*
G01*
X92489500Y-71343500D01*
G75*
G02*
X92727000Y-71581000I0J-237500D01*
G01*
G37*
G36*
G01*
X88789500Y-90075500D02*
X89264500Y-90075500D01*
G75*
G02*
X89502000Y-90313000I0J-237500D01*
G01*
X89502000Y-90888000D01*
G75*
G02*
X89264500Y-91125500I-237500J0D01*
G01*
X88789500Y-91125500D01*
G75*
G02*
X88552000Y-90888000I0J237500D01*
G01*
X88552000Y-90313000D01*
G75*
G02*
X88789500Y-90075500I237500J0D01*
G01*
G37*
G36*
G01*
X88789500Y-88325500D02*
X89264500Y-88325500D01*
G75*
G02*
X89502000Y-88563000I0J-237500D01*
G01*
X89502000Y-89138000D01*
G75*
G02*
X89264500Y-89375500I-237500J0D01*
G01*
X88789500Y-89375500D01*
G75*
G02*
X88552000Y-89138000I0J237500D01*
G01*
X88552000Y-88563000D01*
G75*
G02*
X88789500Y-88325500I237500J0D01*
G01*
G37*
G36*
G01*
X142478000Y-71342500D02*
X140478000Y-71342500D01*
G75*
G02*
X140228000Y-71092500I0J250000D01*
G01*
X140228000Y-67192500D01*
G75*
G02*
X140478000Y-66942500I250000J0D01*
G01*
X142478000Y-66942500D01*
G75*
G02*
X142728000Y-67192500I0J-250000D01*
G01*
X142728000Y-71092500D01*
G75*
G02*
X142478000Y-71342500I-250000J0D01*
G01*
G37*
G36*
G01*
X142478000Y-79742500D02*
X140478000Y-79742500D01*
G75*
G02*
X140228000Y-79492500I0J250000D01*
G01*
X140228000Y-75592500D01*
G75*
G02*
X140478000Y-75342500I250000J0D01*
G01*
X142478000Y-75342500D01*
G75*
G02*
X142728000Y-75592500I0J-250000D01*
G01*
X142728000Y-79492500D01*
G75*
G02*
X142478000Y-79742500I-250000J0D01*
G01*
G37*
G36*
G01*
X201565000Y-78082000D02*
X203565000Y-78082000D01*
G75*
G02*
X203815000Y-78332000I0J-250000D01*
G01*
X203815000Y-82232000D01*
G75*
G02*
X203565000Y-82482000I-250000J0D01*
G01*
X201565000Y-82482000D01*
G75*
G02*
X201315000Y-82232000I0J250000D01*
G01*
X201315000Y-78332000D01*
G75*
G02*
X201565000Y-78082000I250000J0D01*
G01*
G37*
G36*
G01*
X201565000Y-69682000D02*
X203565000Y-69682000D01*
G75*
G02*
X203815000Y-69932000I0J-250000D01*
G01*
X203815000Y-73832000D01*
G75*
G02*
X203565000Y-74082000I-250000J0D01*
G01*
X201565000Y-74082000D01*
G75*
G02*
X201315000Y-73832000I0J250000D01*
G01*
X201315000Y-69932000D01*
G75*
G02*
X201565000Y-69682000I250000J0D01*
G01*
G37*
G36*
G01*
X169115500Y-94017500D02*
X169590500Y-94017500D01*
G75*
G02*
X169828000Y-94255000I0J-237500D01*
G01*
X169828000Y-94830000D01*
G75*
G02*
X169590500Y-95067500I-237500J0D01*
G01*
X169115500Y-95067500D01*
G75*
G02*
X168878000Y-94830000I0J237500D01*
G01*
X168878000Y-94255000D01*
G75*
G02*
X169115500Y-94017500I237500J0D01*
G01*
G37*
G36*
G01*
X169115500Y-92267500D02*
X169590500Y-92267500D01*
G75*
G02*
X169828000Y-92505000I0J-237500D01*
G01*
X169828000Y-93080000D01*
G75*
G02*
X169590500Y-93317500I-237500J0D01*
G01*
X169115500Y-93317500D01*
G75*
G02*
X168878000Y-93080000I0J237500D01*
G01*
X168878000Y-92505000D01*
G75*
G02*
X169115500Y-92267500I237500J0D01*
G01*
G37*
G36*
G01*
X180538000Y-93342500D02*
X180538000Y-94442500D01*
G75*
G02*
X180288000Y-94692500I-250000J0D01*
G01*
X177463000Y-94692500D01*
G75*
G02*
X177213000Y-94442500I0J250000D01*
G01*
X177213000Y-93342500D01*
G75*
G02*
X177463000Y-93092500I250000J0D01*
G01*
X180288000Y-93092500D01*
G75*
G02*
X180538000Y-93342500I0J-250000D01*
G01*
G37*
G36*
G01*
X185613000Y-93342500D02*
X185613000Y-94442500D01*
G75*
G02*
X185363000Y-94692500I-250000J0D01*
G01*
X182538000Y-94692500D01*
G75*
G02*
X182288000Y-94442500I0J250000D01*
G01*
X182288000Y-93342500D01*
G75*
G02*
X182538000Y-93092500I250000J0D01*
G01*
X185363000Y-93092500D01*
G75*
G02*
X185613000Y-93342500I0J-250000D01*
G01*
G37*
G36*
G01*
X178718000Y-82920000D02*
X178718000Y-82445000D01*
G75*
G02*
X178955500Y-82207500I237500J0D01*
G01*
X179530500Y-82207500D01*
G75*
G02*
X179768000Y-82445000I0J-237500D01*
G01*
X179768000Y-82920000D01*
G75*
G02*
X179530500Y-83157500I-237500J0D01*
G01*
X178955500Y-83157500D01*
G75*
G02*
X178718000Y-82920000I0J237500D01*
G01*
G37*
G36*
G01*
X176968000Y-82920000D02*
X176968000Y-82445000D01*
G75*
G02*
X177205500Y-82207500I237500J0D01*
G01*
X177780500Y-82207500D01*
G75*
G02*
X178018000Y-82445000I0J-237500D01*
G01*
X178018000Y-82920000D01*
G75*
G02*
X177780500Y-83157500I-237500J0D01*
G01*
X177205500Y-83157500D01*
G75*
G02*
X176968000Y-82920000I0J237500D01*
G01*
G37*
G36*
G01*
X154946500Y-76399500D02*
X154946500Y-75299500D01*
G75*
G02*
X155196500Y-75049500I250000J0D01*
G01*
X157471500Y-75049500D01*
G75*
G02*
X157721500Y-75299500I0J-250000D01*
G01*
X157721500Y-76399500D01*
G75*
G02*
X157471500Y-76649500I-250000J0D01*
G01*
X155196500Y-76649500D01*
G75*
G02*
X154946500Y-76399500I0J250000D01*
G01*
G37*
G36*
G01*
X150821500Y-76399500D02*
X150821500Y-75299500D01*
G75*
G02*
X151071500Y-75049500I250000J0D01*
G01*
X153346500Y-75049500D01*
G75*
G02*
X153596500Y-75299500I0J-250000D01*
G01*
X153596500Y-76399500D01*
G75*
G02*
X153346500Y-76649500I-250000J0D01*
G01*
X151071500Y-76649500D01*
G75*
G02*
X150821500Y-76399500I0J250000D01*
G01*
G37*
G36*
G01*
X167103000Y-86020000D02*
X167103000Y-85545000D01*
G75*
G02*
X167340500Y-85307500I237500J0D01*
G01*
X167915500Y-85307500D01*
G75*
G02*
X168153000Y-85545000I0J-237500D01*
G01*
X168153000Y-86020000D01*
G75*
G02*
X167915500Y-86257500I-237500J0D01*
G01*
X167340500Y-86257500D01*
G75*
G02*
X167103000Y-86020000I0J237500D01*
G01*
G37*
G36*
G01*
X165353000Y-86020000D02*
X165353000Y-85545000D01*
G75*
G02*
X165590500Y-85307500I237500J0D01*
G01*
X166165500Y-85307500D01*
G75*
G02*
X166403000Y-85545000I0J-237500D01*
G01*
X166403000Y-86020000D01*
G75*
G02*
X166165500Y-86257500I-237500J0D01*
G01*
X165590500Y-86257500D01*
G75*
G02*
X165353000Y-86020000I0J237500D01*
G01*
G37*
G36*
G01*
X151622000Y-60166500D02*
X149622000Y-60166500D01*
G75*
G02*
X149372000Y-59916500I0J250000D01*
G01*
X149372000Y-56016500D01*
G75*
G02*
X149622000Y-55766500I250000J0D01*
G01*
X151622000Y-55766500D01*
G75*
G02*
X151872000Y-56016500I0J-250000D01*
G01*
X151872000Y-59916500D01*
G75*
G02*
X151622000Y-60166500I-250000J0D01*
G01*
G37*
G36*
G01*
X151622000Y-68566500D02*
X149622000Y-68566500D01*
G75*
G02*
X149372000Y-68316500I0J250000D01*
G01*
X149372000Y-64416500D01*
G75*
G02*
X149622000Y-64166500I250000J0D01*
G01*
X151622000Y-64166500D01*
G75*
G02*
X151872000Y-64416500I0J-250000D01*
G01*
X151872000Y-68316500D01*
G75*
G02*
X151622000Y-68566500I-250000J0D01*
G01*
G37*
G36*
G01*
X162830000Y-75723500D02*
X164830000Y-75723500D01*
G75*
G02*
X165080000Y-75973500I0J-250000D01*
G01*
X165080000Y-79873500D01*
G75*
G02*
X164830000Y-80123500I-250000J0D01*
G01*
X162830000Y-80123500D01*
G75*
G02*
X162580000Y-79873500I0J250000D01*
G01*
X162580000Y-75973500D01*
G75*
G02*
X162830000Y-75723500I250000J0D01*
G01*
G37*
G36*
G01*
X162830000Y-67323500D02*
X164830000Y-67323500D01*
G75*
G02*
X165080000Y-67573500I0J-250000D01*
G01*
X165080000Y-71473500D01*
G75*
G02*
X164830000Y-71723500I-250000J0D01*
G01*
X162830000Y-71723500D01*
G75*
G02*
X162580000Y-71473500I0J250000D01*
G01*
X162580000Y-67573500D01*
G75*
G02*
X162830000Y-67323500I250000J0D01*
G01*
G37*
G36*
G01*
X106917000Y-58213000D02*
X106917000Y-57738000D01*
G75*
G02*
X107154500Y-57500500I237500J0D01*
G01*
X107729500Y-57500500D01*
G75*
G02*
X107967000Y-57738000I0J-237500D01*
G01*
X107967000Y-58213000D01*
G75*
G02*
X107729500Y-58450500I-237500J0D01*
G01*
X107154500Y-58450500D01*
G75*
G02*
X106917000Y-58213000I0J237500D01*
G01*
G37*
G36*
G01*
X105167000Y-58213000D02*
X105167000Y-57738000D01*
G75*
G02*
X105404500Y-57500500I237500J0D01*
G01*
X105979500Y-57500500D01*
G75*
G02*
X106217000Y-57738000I0J-237500D01*
G01*
X106217000Y-58213000D01*
G75*
G02*
X105979500Y-58450500I-237500J0D01*
G01*
X105404500Y-58450500D01*
G75*
G02*
X105167000Y-58213000I0J237500D01*
G01*
G37*
G36*
G01*
X114723000Y-77801500D02*
X113623000Y-77801500D01*
G75*
G02*
X113373000Y-77551500I0J250000D01*
G01*
X113373000Y-74726500D01*
G75*
G02*
X113623000Y-74476500I250000J0D01*
G01*
X114723000Y-74476500D01*
G75*
G02*
X114973000Y-74726500I0J-250000D01*
G01*
X114973000Y-77551500D01*
G75*
G02*
X114723000Y-77801500I-250000J0D01*
G01*
G37*
G36*
G01*
X114723000Y-82876500D02*
X113623000Y-82876500D01*
G75*
G02*
X113373000Y-82626500I0J250000D01*
G01*
X113373000Y-79801500D01*
G75*
G02*
X113623000Y-79551500I250000J0D01*
G01*
X114723000Y-79551500D01*
G75*
G02*
X114973000Y-79801500I0J-250000D01*
G01*
X114973000Y-82626500D01*
G75*
G02*
X114723000Y-82876500I-250000J0D01*
G01*
G37*
G36*
G01*
X79739500Y-75419500D02*
X79264500Y-75419500D01*
G75*
G02*
X79027000Y-75182000I0J237500D01*
G01*
X79027000Y-74607000D01*
G75*
G02*
X79264500Y-74369500I237500J0D01*
G01*
X79739500Y-74369500D01*
G75*
G02*
X79977000Y-74607000I0J-237500D01*
G01*
X79977000Y-75182000D01*
G75*
G02*
X79739500Y-75419500I-237500J0D01*
G01*
G37*
G36*
G01*
X79739500Y-77169500D02*
X79264500Y-77169500D01*
G75*
G02*
X79027000Y-76932000I0J237500D01*
G01*
X79027000Y-76357000D01*
G75*
G02*
X79264500Y-76119500I237500J0D01*
G01*
X79739500Y-76119500D01*
G75*
G02*
X79977000Y-76357000I0J-237500D01*
G01*
X79977000Y-76932000D01*
G75*
G02*
X79739500Y-77169500I-237500J0D01*
G01*
G37*
G36*
G01*
X93557000Y-53697500D02*
X94657000Y-53697500D01*
G75*
G02*
X94907000Y-53947500I0J-250000D01*
G01*
X94907000Y-56222500D01*
G75*
G02*
X94657000Y-56472500I-250000J0D01*
G01*
X93557000Y-56472500D01*
G75*
G02*
X93307000Y-56222500I0J250000D01*
G01*
X93307000Y-53947500D01*
G75*
G02*
X93557000Y-53697500I250000J0D01*
G01*
G37*
G36*
G01*
X93557000Y-49572500D02*
X94657000Y-49572500D01*
G75*
G02*
X94907000Y-49822500I0J-250000D01*
G01*
X94907000Y-52097500D01*
G75*
G02*
X94657000Y-52347500I-250000J0D01*
G01*
X93557000Y-52347500D01*
G75*
G02*
X93307000Y-52097500I0J250000D01*
G01*
X93307000Y-49822500D01*
G75*
G02*
X93557000Y-49572500I250000J0D01*
G01*
G37*
G36*
G01*
X93615500Y-62516500D02*
X94090500Y-62516500D01*
G75*
G02*
X94328000Y-62754000I0J-237500D01*
G01*
X94328000Y-63329000D01*
G75*
G02*
X94090500Y-63566500I-237500J0D01*
G01*
X93615500Y-63566500D01*
G75*
G02*
X93378000Y-63329000I0J237500D01*
G01*
X93378000Y-62754000D01*
G75*
G02*
X93615500Y-62516500I237500J0D01*
G01*
G37*
G36*
G01*
X93615500Y-60766500D02*
X94090500Y-60766500D01*
G75*
G02*
X94328000Y-61004000I0J-237500D01*
G01*
X94328000Y-61579000D01*
G75*
G02*
X94090500Y-61816500I-237500J0D01*
G01*
X93615500Y-61816500D01*
G75*
G02*
X93378000Y-61579000I0J237500D01*
G01*
X93378000Y-61004000D01*
G75*
G02*
X93615500Y-60766500I237500J0D01*
G01*
G37*
G36*
G01*
X123729000Y-83106500D02*
X123729000Y-84206500D01*
G75*
G02*
X123479000Y-84456500I-250000J0D01*
G01*
X120979000Y-84456500D01*
G75*
G02*
X120729000Y-84206500I0J250000D01*
G01*
X120729000Y-83106500D01*
G75*
G02*
X120979000Y-82856500I250000J0D01*
G01*
X123479000Y-82856500D01*
G75*
G02*
X123729000Y-83106500I0J-250000D01*
G01*
G37*
G36*
G01*
X128129000Y-83106500D02*
X128129000Y-84206500D01*
G75*
G02*
X127879000Y-84456500I-250000J0D01*
G01*
X125379000Y-84456500D01*
G75*
G02*
X125129000Y-84206500I0J250000D01*
G01*
X125129000Y-83106500D01*
G75*
G02*
X125379000Y-82856500I250000J0D01*
G01*
X127879000Y-82856500D01*
G75*
G02*
X128129000Y-83106500I0J-250000D01*
G01*
G37*
G36*
G01*
X154653000Y-82732500D02*
X154653000Y-81632500D01*
G75*
G02*
X154903000Y-81382500I250000J0D01*
G01*
X157403000Y-81382500D01*
G75*
G02*
X157653000Y-81632500I0J-250000D01*
G01*
X157653000Y-82732500D01*
G75*
G02*
X157403000Y-82982500I-250000J0D01*
G01*
X154903000Y-82982500D01*
G75*
G02*
X154653000Y-82732500I0J250000D01*
G01*
G37*
G36*
G01*
X150253000Y-82732500D02*
X150253000Y-81632500D01*
G75*
G02*
X150503000Y-81382500I250000J0D01*
G01*
X153003000Y-81382500D01*
G75*
G02*
X153253000Y-81632500I0J-250000D01*
G01*
X153253000Y-82732500D01*
G75*
G02*
X153003000Y-82982500I-250000J0D01*
G01*
X150503000Y-82982500D01*
G75*
G02*
X150253000Y-82732500I0J250000D01*
G01*
G37*
G36*
G01*
X124989000Y-107082500D02*
X124989000Y-108182500D01*
G75*
G02*
X124739000Y-108432500I-250000J0D01*
G01*
X122239000Y-108432500D01*
G75*
G02*
X121989000Y-108182500I0J250000D01*
G01*
X121989000Y-107082500D01*
G75*
G02*
X122239000Y-106832500I250000J0D01*
G01*
X124739000Y-106832500D01*
G75*
G02*
X124989000Y-107082500I0J-250000D01*
G01*
G37*
G36*
G01*
X129389000Y-107082500D02*
X129389000Y-108182500D01*
G75*
G02*
X129139000Y-108432500I-250000J0D01*
G01*
X126639000Y-108432500D01*
G75*
G02*
X126389000Y-108182500I0J250000D01*
G01*
X126389000Y-107082500D01*
G75*
G02*
X126639000Y-106832500I250000J0D01*
G01*
X129139000Y-106832500D01*
G75*
G02*
X129389000Y-107082500I0J-250000D01*
G01*
G37*
G36*
G01*
X149933000Y-102962500D02*
X149933000Y-101862500D01*
G75*
G02*
X150183000Y-101612500I250000J0D01*
G01*
X152683000Y-101612500D01*
G75*
G02*
X152933000Y-101862500I0J-250000D01*
G01*
X152933000Y-102962500D01*
G75*
G02*
X152683000Y-103212500I-250000J0D01*
G01*
X150183000Y-103212500D01*
G75*
G02*
X149933000Y-102962500I0J250000D01*
G01*
G37*
G36*
G01*
X145533000Y-102962500D02*
X145533000Y-101862500D01*
G75*
G02*
X145783000Y-101612500I250000J0D01*
G01*
X148283000Y-101612500D01*
G75*
G02*
X148533000Y-101862500I0J-250000D01*
G01*
X148533000Y-102962500D01*
G75*
G02*
X148283000Y-103212500I-250000J0D01*
G01*
X145783000Y-103212500D01*
G75*
G02*
X145533000Y-102962500I0J250000D01*
G01*
G37*
G36*
G01*
X87767000Y-112725500D02*
X89017000Y-112725500D01*
G75*
G02*
X89267000Y-112975500I0J-250000D01*
G01*
X89267000Y-113725500D01*
G75*
G02*
X89017000Y-113975500I-250000J0D01*
G01*
X87767000Y-113975500D01*
G75*
G02*
X87517000Y-113725500I0J250000D01*
G01*
X87517000Y-112975500D01*
G75*
G02*
X87767000Y-112725500I250000J0D01*
G01*
G37*
G36*
G01*
X87767000Y-109925500D02*
X89017000Y-109925500D01*
G75*
G02*
X89267000Y-110175500I0J-250000D01*
G01*
X89267000Y-110925500D01*
G75*
G02*
X89017000Y-111175500I-250000J0D01*
G01*
X87767000Y-111175500D01*
G75*
G02*
X87517000Y-110925500I0J250000D01*
G01*
X87517000Y-110175500D01*
G75*
G02*
X87767000Y-109925500I250000J0D01*
G01*
G37*
G36*
G01*
X196408000Y-99907500D02*
X196408000Y-98657500D01*
G75*
G02*
X196658000Y-98407500I250000J0D01*
G01*
X197408000Y-98407500D01*
G75*
G02*
X197658000Y-98657500I0J-250000D01*
G01*
X197658000Y-99907500D01*
G75*
G02*
X197408000Y-100157500I-250000J0D01*
G01*
X196658000Y-100157500D01*
G75*
G02*
X196408000Y-99907500I0J250000D01*
G01*
G37*
G36*
G01*
X193608000Y-99907500D02*
X193608000Y-98657500D01*
G75*
G02*
X193858000Y-98407500I250000J0D01*
G01*
X194608000Y-98407500D01*
G75*
G02*
X194858000Y-98657500I0J-250000D01*
G01*
X194858000Y-99907500D01*
G75*
G02*
X194608000Y-100157500I-250000J0D01*
G01*
X193858000Y-100157500D01*
G75*
G02*
X193608000Y-99907500I0J250000D01*
G01*
G37*
G36*
G01*
X84971000Y-80412500D02*
X84971000Y-81512500D01*
G75*
G02*
X84721000Y-81762500I-250000J0D01*
G01*
X82621000Y-81762500D01*
G75*
G02*
X82371000Y-81512500I0J250000D01*
G01*
X82371000Y-80412500D01*
G75*
G02*
X82621000Y-80162500I250000J0D01*
G01*
X84721000Y-80162500D01*
G75*
G02*
X84971000Y-80412500I0J-250000D01*
G01*
G37*
G36*
G01*
X88571000Y-80412500D02*
X88571000Y-81512500D01*
G75*
G02*
X88321000Y-81762500I-250000J0D01*
G01*
X86221000Y-81762500D01*
G75*
G02*
X85971000Y-81512500I0J250000D01*
G01*
X85971000Y-80412500D01*
G75*
G02*
X86221000Y-80162500I250000J0D01*
G01*
X88321000Y-80162500D01*
G75*
G02*
X88571000Y-80412500I0J-250000D01*
G01*
G37*
G36*
G01*
X97474000Y-88243500D02*
X97474000Y-87143500D01*
G75*
G02*
X97724000Y-86893500I250000J0D01*
G01*
X100224000Y-86893500D01*
G75*
G02*
X100474000Y-87143500I0J-250000D01*
G01*
X100474000Y-88243500D01*
G75*
G02*
X100224000Y-88493500I-250000J0D01*
G01*
X97724000Y-88493500D01*
G75*
G02*
X97474000Y-88243500I0J250000D01*
G01*
G37*
G36*
G01*
X93074000Y-88243500D02*
X93074000Y-87143500D01*
G75*
G02*
X93324000Y-86893500I250000J0D01*
G01*
X95824000Y-86893500D01*
G75*
G02*
X96074000Y-87143500I0J-250000D01*
G01*
X96074000Y-88243500D01*
G75*
G02*
X95824000Y-88493500I-250000J0D01*
G01*
X93324000Y-88493500D01*
G75*
G02*
X93074000Y-88243500I0J250000D01*
G01*
G37*
G36*
G01*
X104892000Y-81607500D02*
X104892000Y-82857500D01*
G75*
G02*
X104642000Y-83107500I-250000J0D01*
G01*
X103892000Y-83107500D01*
G75*
G02*
X103642000Y-82857500I0J250000D01*
G01*
X103642000Y-81607500D01*
G75*
G02*
X103892000Y-81357500I250000J0D01*
G01*
X104642000Y-81357500D01*
G75*
G02*
X104892000Y-81607500I0J-250000D01*
G01*
G37*
G36*
G01*
X107692000Y-81607500D02*
X107692000Y-82857500D01*
G75*
G02*
X107442000Y-83107500I-250000J0D01*
G01*
X106692000Y-83107500D01*
G75*
G02*
X106442000Y-82857500I0J250000D01*
G01*
X106442000Y-81607500D01*
G75*
G02*
X106692000Y-81357500I250000J0D01*
G01*
X107442000Y-81357500D01*
G75*
G02*
X107692000Y-81607500I0J-250000D01*
G01*
G37*
G36*
G01*
X79238000Y-97205500D02*
X77988000Y-97205500D01*
G75*
G02*
X77738000Y-96955500I0J250000D01*
G01*
X77738000Y-96205500D01*
G75*
G02*
X77988000Y-95955500I250000J0D01*
G01*
X79238000Y-95955500D01*
G75*
G02*
X79488000Y-96205500I0J-250000D01*
G01*
X79488000Y-96955500D01*
G75*
G02*
X79238000Y-97205500I-250000J0D01*
G01*
G37*
G36*
G01*
X79238000Y-100005500D02*
X77988000Y-100005500D01*
G75*
G02*
X77738000Y-99755500I0J250000D01*
G01*
X77738000Y-99005500D01*
G75*
G02*
X77988000Y-98755500I250000J0D01*
G01*
X79238000Y-98755500D01*
G75*
G02*
X79488000Y-99005500I0J-250000D01*
G01*
X79488000Y-99755500D01*
G75*
G02*
X79238000Y-100005500I-250000J0D01*
G01*
G37*
D31*
X106299000Y-89090500D03*
X106299000Y-85090500D03*
X102616000Y-89090500D03*
X102616000Y-85090500D03*
X75311000Y-108807500D03*
X75311000Y-112807500D03*
X71628000Y-105695500D03*
X71628000Y-101695500D03*
D32*
X71120000Y-93789500D03*
X75120000Y-93789500D03*
X75978000Y-82613500D03*
X79978000Y-82613500D03*
X91821000Y-75120500D03*
X95821000Y-75120500D03*
X94139000Y-82740500D03*
X98139000Y-82740500D03*
D31*
X101473000Y-77978500D03*
X101473000Y-81978500D03*
X90805000Y-81216500D03*
X90805000Y-85216500D03*
D32*
X78391000Y-93789500D03*
X82391000Y-93789500D03*
G36*
G01*
X122739000Y-87874000D02*
X122739000Y-87399000D01*
G75*
G02*
X122976500Y-87161500I237500J0D01*
G01*
X123551500Y-87161500D01*
G75*
G02*
X123789000Y-87399000I0J-237500D01*
G01*
X123789000Y-87874000D01*
G75*
G02*
X123551500Y-88111500I-237500J0D01*
G01*
X122976500Y-88111500D01*
G75*
G02*
X122739000Y-87874000I0J237500D01*
G01*
G37*
G36*
G01*
X124489000Y-87874000D02*
X124489000Y-87399000D01*
G75*
G02*
X124726500Y-87161500I237500J0D01*
G01*
X125301500Y-87161500D01*
G75*
G02*
X125539000Y-87399000I0J-237500D01*
G01*
X125539000Y-87874000D01*
G75*
G02*
X125301500Y-88111500I-237500J0D01*
G01*
X124726500Y-88111500D01*
G75*
G02*
X124489000Y-87874000I0J237500D01*
G01*
G37*
G36*
G01*
X165968000Y-110640000D02*
X165968000Y-111115000D01*
G75*
G02*
X165730500Y-111352500I-237500J0D01*
G01*
X165155500Y-111352500D01*
G75*
G02*
X164918000Y-111115000I0J237500D01*
G01*
X164918000Y-110640000D01*
G75*
G02*
X165155500Y-110402500I237500J0D01*
G01*
X165730500Y-110402500D01*
G75*
G02*
X165968000Y-110640000I0J-237500D01*
G01*
G37*
G36*
G01*
X164218000Y-110640000D02*
X164218000Y-111115000D01*
G75*
G02*
X163980500Y-111352500I-237500J0D01*
G01*
X163405500Y-111352500D01*
G75*
G02*
X163168000Y-111115000I0J237500D01*
G01*
X163168000Y-110640000D01*
G75*
G02*
X163405500Y-110402500I237500J0D01*
G01*
X163980500Y-110402500D01*
G75*
G02*
X164218000Y-110640000I0J-237500D01*
G01*
G37*
G36*
G01*
X177093000Y-106765000D02*
X177093000Y-107240000D01*
G75*
G02*
X176855500Y-107477500I-237500J0D01*
G01*
X176280500Y-107477500D01*
G75*
G02*
X176043000Y-107240000I0J237500D01*
G01*
X176043000Y-106765000D01*
G75*
G02*
X176280500Y-106527500I237500J0D01*
G01*
X176855500Y-106527500D01*
G75*
G02*
X177093000Y-106765000I0J-237500D01*
G01*
G37*
G36*
G01*
X178843000Y-106765000D02*
X178843000Y-107240000D01*
G75*
G02*
X178605500Y-107477500I-237500J0D01*
G01*
X178030500Y-107477500D01*
G75*
G02*
X177793000Y-107240000I0J237500D01*
G01*
X177793000Y-106765000D01*
G75*
G02*
X178030500Y-106527500I237500J0D01*
G01*
X178605500Y-106527500D01*
G75*
G02*
X178843000Y-106765000I0J-237500D01*
G01*
G37*
G36*
G01*
X148750500Y-88717500D02*
X148275500Y-88717500D01*
G75*
G02*
X148038000Y-88480000I0J237500D01*
G01*
X148038000Y-87905000D01*
G75*
G02*
X148275500Y-87667500I237500J0D01*
G01*
X148750500Y-87667500D01*
G75*
G02*
X148988000Y-87905000I0J-237500D01*
G01*
X148988000Y-88480000D01*
G75*
G02*
X148750500Y-88717500I-237500J0D01*
G01*
G37*
G36*
G01*
X148750500Y-86967500D02*
X148275500Y-86967500D01*
G75*
G02*
X148038000Y-86730000I0J237500D01*
G01*
X148038000Y-86155000D01*
G75*
G02*
X148275500Y-85917500I237500J0D01*
G01*
X148750500Y-85917500D01*
G75*
G02*
X148988000Y-86155000I0J-237500D01*
G01*
X148988000Y-86730000D01*
G75*
G02*
X148750500Y-86967500I-237500J0D01*
G01*
G37*
G36*
G01*
X154040500Y-98882500D02*
X153565500Y-98882500D01*
G75*
G02*
X153328000Y-98645000I0J237500D01*
G01*
X153328000Y-98070000D01*
G75*
G02*
X153565500Y-97832500I237500J0D01*
G01*
X154040500Y-97832500D01*
G75*
G02*
X154278000Y-98070000I0J-237500D01*
G01*
X154278000Y-98645000D01*
G75*
G02*
X154040500Y-98882500I-237500J0D01*
G01*
G37*
G36*
G01*
X154040500Y-100632500D02*
X153565500Y-100632500D01*
G75*
G02*
X153328000Y-100395000I0J237500D01*
G01*
X153328000Y-99820000D01*
G75*
G02*
X153565500Y-99582500I237500J0D01*
G01*
X154040500Y-99582500D01*
G75*
G02*
X154278000Y-99820000I0J-237500D01*
G01*
X154278000Y-100395000D01*
G75*
G02*
X154040500Y-100632500I-237500J0D01*
G01*
G37*
G36*
G01*
X138320000Y-81296500D02*
X138320000Y-81771500D01*
G75*
G02*
X138082500Y-82009000I-237500J0D01*
G01*
X137507500Y-82009000D01*
G75*
G02*
X137270000Y-81771500I0J237500D01*
G01*
X137270000Y-81296500D01*
G75*
G02*
X137507500Y-81059000I237500J0D01*
G01*
X138082500Y-81059000D01*
G75*
G02*
X138320000Y-81296500I0J-237500D01*
G01*
G37*
G36*
G01*
X136570000Y-81296500D02*
X136570000Y-81771500D01*
G75*
G02*
X136332500Y-82009000I-237500J0D01*
G01*
X135757500Y-82009000D01*
G75*
G02*
X135520000Y-81771500I0J237500D01*
G01*
X135520000Y-81296500D01*
G75*
G02*
X135757500Y-81059000I237500J0D01*
G01*
X136332500Y-81059000D01*
G75*
G02*
X136570000Y-81296500I0J-237500D01*
G01*
G37*
G36*
G01*
X132585500Y-84902500D02*
X133060500Y-84902500D01*
G75*
G02*
X133298000Y-85140000I0J-237500D01*
G01*
X133298000Y-85715000D01*
G75*
G02*
X133060500Y-85952500I-237500J0D01*
G01*
X132585500Y-85952500D01*
G75*
G02*
X132348000Y-85715000I0J237500D01*
G01*
X132348000Y-85140000D01*
G75*
G02*
X132585500Y-84902500I237500J0D01*
G01*
G37*
G36*
G01*
X132585500Y-83152500D02*
X133060500Y-83152500D01*
G75*
G02*
X133298000Y-83390000I0J-237500D01*
G01*
X133298000Y-83965000D01*
G75*
G02*
X133060500Y-84202500I-237500J0D01*
G01*
X132585500Y-84202500D01*
G75*
G02*
X132348000Y-83965000I0J237500D01*
G01*
X132348000Y-83390000D01*
G75*
G02*
X132585500Y-83152500I237500J0D01*
G01*
G37*
G36*
G01*
X141803000Y-81850000D02*
X141803000Y-81375000D01*
G75*
G02*
X142040500Y-81137500I237500J0D01*
G01*
X142615500Y-81137500D01*
G75*
G02*
X142853000Y-81375000I0J-237500D01*
G01*
X142853000Y-81850000D01*
G75*
G02*
X142615500Y-82087500I-237500J0D01*
G01*
X142040500Y-82087500D01*
G75*
G02*
X141803000Y-81850000I0J237500D01*
G01*
G37*
G36*
G01*
X143553000Y-81850000D02*
X143553000Y-81375000D01*
G75*
G02*
X143790500Y-81137500I237500J0D01*
G01*
X144365500Y-81137500D01*
G75*
G02*
X144603000Y-81375000I0J-237500D01*
G01*
X144603000Y-81850000D01*
G75*
G02*
X144365500Y-82087500I-237500J0D01*
G01*
X143790500Y-82087500D01*
G75*
G02*
X143553000Y-81850000I0J237500D01*
G01*
G37*
G36*
G01*
X145905500Y-84932500D02*
X146380500Y-84932500D01*
G75*
G02*
X146618000Y-85170000I0J-237500D01*
G01*
X146618000Y-85745000D01*
G75*
G02*
X146380500Y-85982500I-237500J0D01*
G01*
X145905500Y-85982500D01*
G75*
G02*
X145668000Y-85745000I0J237500D01*
G01*
X145668000Y-85170000D01*
G75*
G02*
X145905500Y-84932500I237500J0D01*
G01*
G37*
G36*
G01*
X145905500Y-83182500D02*
X146380500Y-83182500D01*
G75*
G02*
X146618000Y-83420000I0J-237500D01*
G01*
X146618000Y-83995000D01*
G75*
G02*
X146380500Y-84232500I-237500J0D01*
G01*
X145905500Y-84232500D01*
G75*
G02*
X145668000Y-83995000I0J237500D01*
G01*
X145668000Y-83420000D01*
G75*
G02*
X145905500Y-83182500I237500J0D01*
G01*
G37*
G36*
G01*
X118634500Y-110296500D02*
X119109500Y-110296500D01*
G75*
G02*
X119347000Y-110534000I0J-237500D01*
G01*
X119347000Y-111109000D01*
G75*
G02*
X119109500Y-111346500I-237500J0D01*
G01*
X118634500Y-111346500D01*
G75*
G02*
X118397000Y-111109000I0J237500D01*
G01*
X118397000Y-110534000D01*
G75*
G02*
X118634500Y-110296500I237500J0D01*
G01*
G37*
G36*
G01*
X118634500Y-112046500D02*
X119109500Y-112046500D01*
G75*
G02*
X119347000Y-112284000I0J-237500D01*
G01*
X119347000Y-112859000D01*
G75*
G02*
X119109500Y-113096500I-237500J0D01*
G01*
X118634500Y-113096500D01*
G75*
G02*
X118397000Y-112859000I0J237500D01*
G01*
X118397000Y-112284000D01*
G75*
G02*
X118634500Y-112046500I237500J0D01*
G01*
G37*
G36*
G01*
X146423000Y-108480000D02*
X146423000Y-108005000D01*
G75*
G02*
X146660500Y-107767500I237500J0D01*
G01*
X147235500Y-107767500D01*
G75*
G02*
X147473000Y-108005000I0J-237500D01*
G01*
X147473000Y-108480000D01*
G75*
G02*
X147235500Y-108717500I-237500J0D01*
G01*
X146660500Y-108717500D01*
G75*
G02*
X146423000Y-108480000I0J237500D01*
G01*
G37*
G36*
G01*
X144673000Y-108480000D02*
X144673000Y-108005000D01*
G75*
G02*
X144910500Y-107767500I237500J0D01*
G01*
X145485500Y-107767500D01*
G75*
G02*
X145723000Y-108005000I0J-237500D01*
G01*
X145723000Y-108480000D01*
G75*
G02*
X145485500Y-108717500I-237500J0D01*
G01*
X144910500Y-108717500D01*
G75*
G02*
X144673000Y-108480000I0J237500D01*
G01*
G37*
D33*
X132737000Y-53149500D03*
D34*
X138187000Y-53149500D03*
X143637000Y-53149500D03*
X117453000Y-53403500D03*
X112003000Y-53403500D03*
D33*
X106553000Y-53403500D03*
D35*
X87249000Y-93615500D03*
X87249000Y-98615500D03*
X179498000Y-71437500D03*
X174498000Y-71437500D03*
X176149000Y-56832500D03*
X176149000Y-51832500D03*
X189611000Y-92392500D03*
X194611000Y-92392500D03*
X203327000Y-57785000D03*
X203327000Y-62785000D03*
X125095000Y-52848500D03*
X125095000Y-57848500D03*
D31*
X71628000Y-108807500D03*
X71628000Y-112807500D03*
X75311000Y-101695500D03*
X75311000Y-105695500D03*
D34*
X195542000Y-52916500D03*
X190092000Y-52916500D03*
D33*
X184642000Y-52916500D03*
X157592000Y-53066500D03*
D34*
X163042000Y-53066500D03*
X168492000Y-53066500D03*
G36*
G01*
X83315000Y-99013000D02*
X83315000Y-99488000D01*
G75*
G02*
X83077500Y-99725500I-237500J0D01*
G01*
X82502500Y-99725500D01*
G75*
G02*
X82265000Y-99488000I0J237500D01*
G01*
X82265000Y-99013000D01*
G75*
G02*
X82502500Y-98775500I237500J0D01*
G01*
X83077500Y-98775500D01*
G75*
G02*
X83315000Y-99013000I0J-237500D01*
G01*
G37*
G36*
G01*
X81565000Y-99013000D02*
X81565000Y-99488000D01*
G75*
G02*
X81327500Y-99725500I-237500J0D01*
G01*
X80752500Y-99725500D01*
G75*
G02*
X80515000Y-99488000I0J237500D01*
G01*
X80515000Y-99013000D01*
G75*
G02*
X80752500Y-98775500I237500J0D01*
G01*
X81327500Y-98775500D01*
G75*
G02*
X81565000Y-99013000I0J-237500D01*
G01*
G37*
G36*
G01*
X81023000Y-68563500D02*
X81023000Y-68088500D01*
G75*
G02*
X81260500Y-67851000I237500J0D01*
G01*
X81835500Y-67851000D01*
G75*
G02*
X82073000Y-68088500I0J-237500D01*
G01*
X82073000Y-68563500D01*
G75*
G02*
X81835500Y-68801000I-237500J0D01*
G01*
X81260500Y-68801000D01*
G75*
G02*
X81023000Y-68563500I0J237500D01*
G01*
G37*
G36*
G01*
X82773000Y-68563500D02*
X82773000Y-68088500D01*
G75*
G02*
X83010500Y-67851000I237500J0D01*
G01*
X83585500Y-67851000D01*
G75*
G02*
X83823000Y-68088500I0J-237500D01*
G01*
X83823000Y-68563500D01*
G75*
G02*
X83585500Y-68801000I-237500J0D01*
G01*
X83010500Y-68801000D01*
G75*
G02*
X82773000Y-68563500I0J237500D01*
G01*
G37*
G36*
G01*
X91464000Y-89525000D02*
X91464000Y-90000000D01*
G75*
G02*
X91226500Y-90237500I-237500J0D01*
G01*
X90651500Y-90237500D01*
G75*
G02*
X90414000Y-90000000I0J237500D01*
G01*
X90414000Y-89525000D01*
G75*
G02*
X90651500Y-89287500I237500J0D01*
G01*
X91226500Y-89287500D01*
G75*
G02*
X91464000Y-89525000I0J-237500D01*
G01*
G37*
G36*
G01*
X93214000Y-89525000D02*
X93214000Y-90000000D01*
G75*
G02*
X92976500Y-90237500I-237500J0D01*
G01*
X92401500Y-90237500D01*
G75*
G02*
X92164000Y-90000000I0J237500D01*
G01*
X92164000Y-89525000D01*
G75*
G02*
X92401500Y-89287500I237500J0D01*
G01*
X92976500Y-89287500D01*
G75*
G02*
X93214000Y-89525000I0J-237500D01*
G01*
G37*
G36*
G01*
X104885500Y-79695500D02*
X104410500Y-79695500D01*
G75*
G02*
X104173000Y-79458000I0J237500D01*
G01*
X104173000Y-78883000D01*
G75*
G02*
X104410500Y-78645500I237500J0D01*
G01*
X104885500Y-78645500D01*
G75*
G02*
X105123000Y-78883000I0J-237500D01*
G01*
X105123000Y-79458000D01*
G75*
G02*
X104885500Y-79695500I-237500J0D01*
G01*
G37*
G36*
G01*
X104885500Y-77945500D02*
X104410500Y-77945500D01*
G75*
G02*
X104173000Y-77708000I0J237500D01*
G01*
X104173000Y-77133000D01*
G75*
G02*
X104410500Y-76895500I237500J0D01*
G01*
X104885500Y-76895500D01*
G75*
G02*
X105123000Y-77133000I0J-237500D01*
G01*
X105123000Y-77708000D01*
G75*
G02*
X104885500Y-77945500I-237500J0D01*
G01*
G37*
G36*
G01*
X93996500Y-79280500D02*
X94471500Y-79280500D01*
G75*
G02*
X94709000Y-79518000I0J-237500D01*
G01*
X94709000Y-80093000D01*
G75*
G02*
X94471500Y-80330500I-237500J0D01*
G01*
X93996500Y-80330500D01*
G75*
G02*
X93759000Y-80093000I0J237500D01*
G01*
X93759000Y-79518000D01*
G75*
G02*
X93996500Y-79280500I237500J0D01*
G01*
G37*
G36*
G01*
X93996500Y-77530500D02*
X94471500Y-77530500D01*
G75*
G02*
X94709000Y-77768000I0J-237500D01*
G01*
X94709000Y-78343000D01*
G75*
G02*
X94471500Y-78580500I-237500J0D01*
G01*
X93996500Y-78580500D01*
G75*
G02*
X93759000Y-78343000I0J237500D01*
G01*
X93759000Y-77768000D01*
G75*
G02*
X93996500Y-77530500I237500J0D01*
G01*
G37*
G36*
G01*
X83074500Y-88452500D02*
X83549500Y-88452500D01*
G75*
G02*
X83787000Y-88690000I0J-237500D01*
G01*
X83787000Y-89265000D01*
G75*
G02*
X83549500Y-89502500I-237500J0D01*
G01*
X83074500Y-89502500D01*
G75*
G02*
X82837000Y-89265000I0J237500D01*
G01*
X82837000Y-88690000D01*
G75*
G02*
X83074500Y-88452500I237500J0D01*
G01*
G37*
G36*
G01*
X83074500Y-90202500D02*
X83549500Y-90202500D01*
G75*
G02*
X83787000Y-90440000I0J-237500D01*
G01*
X83787000Y-91015000D01*
G75*
G02*
X83549500Y-91252500I-237500J0D01*
G01*
X83074500Y-91252500D01*
G75*
G02*
X82837000Y-91015000I0J237500D01*
G01*
X82837000Y-90440000D01*
G75*
G02*
X83074500Y-90202500I237500J0D01*
G01*
G37*
G36*
G01*
X87011500Y-86392500D02*
X87486500Y-86392500D01*
G75*
G02*
X87724000Y-86630000I0J-237500D01*
G01*
X87724000Y-87205000D01*
G75*
G02*
X87486500Y-87442500I-237500J0D01*
G01*
X87011500Y-87442500D01*
G75*
G02*
X86774000Y-87205000I0J237500D01*
G01*
X86774000Y-86630000D01*
G75*
G02*
X87011500Y-86392500I237500J0D01*
G01*
G37*
G36*
G01*
X87011500Y-84642500D02*
X87486500Y-84642500D01*
G75*
G02*
X87724000Y-84880000I0J-237500D01*
G01*
X87724000Y-85455000D01*
G75*
G02*
X87486500Y-85692500I-237500J0D01*
G01*
X87011500Y-85692500D01*
G75*
G02*
X86774000Y-85455000I0J237500D01*
G01*
X86774000Y-84880000D01*
G75*
G02*
X87011500Y-84642500I237500J0D01*
G01*
G37*
G36*
G01*
X73168500Y-81213500D02*
X73643500Y-81213500D01*
G75*
G02*
X73881000Y-81451000I0J-237500D01*
G01*
X73881000Y-82026000D01*
G75*
G02*
X73643500Y-82263500I-237500J0D01*
G01*
X73168500Y-82263500D01*
G75*
G02*
X72931000Y-82026000I0J237500D01*
G01*
X72931000Y-81451000D01*
G75*
G02*
X73168500Y-81213500I237500J0D01*
G01*
G37*
G36*
G01*
X73168500Y-82963500D02*
X73643500Y-82963500D01*
G75*
G02*
X73881000Y-83201000I0J-237500D01*
G01*
X73881000Y-83776000D01*
G75*
G02*
X73643500Y-84013500I-237500J0D01*
G01*
X73168500Y-84013500D01*
G75*
G02*
X72931000Y-83776000I0J237500D01*
G01*
X72931000Y-83201000D01*
G75*
G02*
X73168500Y-82963500I237500J0D01*
G01*
G37*
G36*
G01*
X170593000Y-113740000D02*
X170593000Y-114215000D01*
G75*
G02*
X170355500Y-114452500I-237500J0D01*
G01*
X169780500Y-114452500D01*
G75*
G02*
X169543000Y-114215000I0J237500D01*
G01*
X169543000Y-113740000D01*
G75*
G02*
X169780500Y-113502500I237500J0D01*
G01*
X170355500Y-113502500D01*
G75*
G02*
X170593000Y-113740000I0J-237500D01*
G01*
G37*
G36*
G01*
X168843000Y-113740000D02*
X168843000Y-114215000D01*
G75*
G02*
X168605500Y-114452500I-237500J0D01*
G01*
X168030500Y-114452500D01*
G75*
G02*
X167793000Y-114215000I0J237500D01*
G01*
X167793000Y-113740000D01*
G75*
G02*
X168030500Y-113502500I237500J0D01*
G01*
X168605500Y-113502500D01*
G75*
G02*
X168843000Y-113740000I0J-237500D01*
G01*
G37*
G36*
G01*
X179343000Y-114140000D02*
X179343000Y-113665000D01*
G75*
G02*
X179580500Y-113427500I237500J0D01*
G01*
X180155500Y-113427500D01*
G75*
G02*
X180393000Y-113665000I0J-237500D01*
G01*
X180393000Y-114140000D01*
G75*
G02*
X180155500Y-114377500I-237500J0D01*
G01*
X179580500Y-114377500D01*
G75*
G02*
X179343000Y-114140000I0J237500D01*
G01*
G37*
G36*
G01*
X181093000Y-114140000D02*
X181093000Y-113665000D01*
G75*
G02*
X181330500Y-113427500I237500J0D01*
G01*
X181905500Y-113427500D01*
G75*
G02*
X182143000Y-113665000I0J-237500D01*
G01*
X182143000Y-114140000D01*
G75*
G02*
X181905500Y-114377500I-237500J0D01*
G01*
X181330500Y-114377500D01*
G75*
G02*
X181093000Y-114140000I0J237500D01*
G01*
G37*
G36*
G01*
X176043000Y-108865000D02*
X176043000Y-108390000D01*
G75*
G02*
X176280500Y-108152500I237500J0D01*
G01*
X176855500Y-108152500D01*
G75*
G02*
X177093000Y-108390000I0J-237500D01*
G01*
X177093000Y-108865000D01*
G75*
G02*
X176855500Y-109102500I-237500J0D01*
G01*
X176280500Y-109102500D01*
G75*
G02*
X176043000Y-108865000I0J237500D01*
G01*
G37*
G36*
G01*
X177793000Y-108865000D02*
X177793000Y-108390000D01*
G75*
G02*
X178030500Y-108152500I237500J0D01*
G01*
X178605500Y-108152500D01*
G75*
G02*
X178843000Y-108390000I0J-237500D01*
G01*
X178843000Y-108865000D01*
G75*
G02*
X178605500Y-109102500I-237500J0D01*
G01*
X178030500Y-109102500D01*
G75*
G02*
X177793000Y-108865000I0J237500D01*
G01*
G37*
G36*
G01*
X165293000Y-107165000D02*
X165293000Y-106690000D01*
G75*
G02*
X165530500Y-106452500I237500J0D01*
G01*
X166105500Y-106452500D01*
G75*
G02*
X166343000Y-106690000I0J-237500D01*
G01*
X166343000Y-107165000D01*
G75*
G02*
X166105500Y-107402500I-237500J0D01*
G01*
X165530500Y-107402500D01*
G75*
G02*
X165293000Y-107165000I0J237500D01*
G01*
G37*
G36*
G01*
X163543000Y-107165000D02*
X163543000Y-106690000D01*
G75*
G02*
X163780500Y-106452500I237500J0D01*
G01*
X164355500Y-106452500D01*
G75*
G02*
X164593000Y-106690000I0J-237500D01*
G01*
X164593000Y-107165000D01*
G75*
G02*
X164355500Y-107402500I-237500J0D01*
G01*
X163780500Y-107402500D01*
G75*
G02*
X163543000Y-107165000I0J237500D01*
G01*
G37*
G36*
G01*
X178843000Y-110615000D02*
X178843000Y-111090000D01*
G75*
G02*
X178605500Y-111327500I-237500J0D01*
G01*
X178030500Y-111327500D01*
G75*
G02*
X177793000Y-111090000I0J237500D01*
G01*
X177793000Y-110615000D01*
G75*
G02*
X178030500Y-110377500I237500J0D01*
G01*
X178605500Y-110377500D01*
G75*
G02*
X178843000Y-110615000I0J-237500D01*
G01*
G37*
G36*
G01*
X177093000Y-110615000D02*
X177093000Y-111090000D01*
G75*
G02*
X176855500Y-111327500I-237500J0D01*
G01*
X176280500Y-111327500D01*
G75*
G02*
X176043000Y-111090000I0J237500D01*
G01*
X176043000Y-110615000D01*
G75*
G02*
X176280500Y-110377500I237500J0D01*
G01*
X176855500Y-110377500D01*
G75*
G02*
X177093000Y-110615000I0J-237500D01*
G01*
G37*
G36*
G01*
X165293000Y-108765000D02*
X165293000Y-108290000D01*
G75*
G02*
X165530500Y-108052500I237500J0D01*
G01*
X166105500Y-108052500D01*
G75*
G02*
X166343000Y-108290000I0J-237500D01*
G01*
X166343000Y-108765000D01*
G75*
G02*
X166105500Y-109002500I-237500J0D01*
G01*
X165530500Y-109002500D01*
G75*
G02*
X165293000Y-108765000I0J237500D01*
G01*
G37*
G36*
G01*
X163543000Y-108765000D02*
X163543000Y-108290000D01*
G75*
G02*
X163780500Y-108052500I237500J0D01*
G01*
X164355500Y-108052500D01*
G75*
G02*
X164593000Y-108290000I0J-237500D01*
G01*
X164593000Y-108765000D01*
G75*
G02*
X164355500Y-109002500I-237500J0D01*
G01*
X163780500Y-109002500D01*
G75*
G02*
X163543000Y-108765000I0J237500D01*
G01*
G37*
G36*
G01*
X150648000Y-98270000D02*
X150648000Y-97795000D01*
G75*
G02*
X150885500Y-97557500I237500J0D01*
G01*
X151460500Y-97557500D01*
G75*
G02*
X151698000Y-97795000I0J-237500D01*
G01*
X151698000Y-98270000D01*
G75*
G02*
X151460500Y-98507500I-237500J0D01*
G01*
X150885500Y-98507500D01*
G75*
G02*
X150648000Y-98270000I0J237500D01*
G01*
G37*
G36*
G01*
X148898000Y-98270000D02*
X148898000Y-97795000D01*
G75*
G02*
X149135500Y-97557500I237500J0D01*
G01*
X149710500Y-97557500D01*
G75*
G02*
X149948000Y-97795000I0J-237500D01*
G01*
X149948000Y-98270000D01*
G75*
G02*
X149710500Y-98507500I-237500J0D01*
G01*
X149135500Y-98507500D01*
G75*
G02*
X148898000Y-98270000I0J237500D01*
G01*
G37*
G36*
G01*
X125016500Y-101941500D02*
X124541500Y-101941500D01*
G75*
G02*
X124304000Y-101704000I0J237500D01*
G01*
X124304000Y-101129000D01*
G75*
G02*
X124541500Y-100891500I237500J0D01*
G01*
X125016500Y-100891500D01*
G75*
G02*
X125254000Y-101129000I0J-237500D01*
G01*
X125254000Y-101704000D01*
G75*
G02*
X125016500Y-101941500I-237500J0D01*
G01*
G37*
G36*
G01*
X125016500Y-100191500D02*
X124541500Y-100191500D01*
G75*
G02*
X124304000Y-99954000I0J237500D01*
G01*
X124304000Y-99379000D01*
G75*
G02*
X124541500Y-99141500I237500J0D01*
G01*
X125016500Y-99141500D01*
G75*
G02*
X125254000Y-99379000I0J-237500D01*
G01*
X125254000Y-99954000D01*
G75*
G02*
X125016500Y-100191500I-237500J0D01*
G01*
G37*
G36*
G01*
X134015500Y-105042500D02*
X134490500Y-105042500D01*
G75*
G02*
X134728000Y-105280000I0J-237500D01*
G01*
X134728000Y-105855000D01*
G75*
G02*
X134490500Y-106092500I-237500J0D01*
G01*
X134015500Y-106092500D01*
G75*
G02*
X133778000Y-105855000I0J237500D01*
G01*
X133778000Y-105280000D01*
G75*
G02*
X134015500Y-105042500I237500J0D01*
G01*
G37*
G36*
G01*
X134015500Y-106792500D02*
X134490500Y-106792500D01*
G75*
G02*
X134728000Y-107030000I0J-237500D01*
G01*
X134728000Y-107605000D01*
G75*
G02*
X134490500Y-107842500I-237500J0D01*
G01*
X134015500Y-107842500D01*
G75*
G02*
X133778000Y-107605000I0J237500D01*
G01*
X133778000Y-107030000D01*
G75*
G02*
X134015500Y-106792500I237500J0D01*
G01*
G37*
G36*
G01*
X145813000Y-104225000D02*
X145813000Y-104700000D01*
G75*
G02*
X145575500Y-104937500I-237500J0D01*
G01*
X145000500Y-104937500D01*
G75*
G02*
X144763000Y-104700000I0J237500D01*
G01*
X144763000Y-104225000D01*
G75*
G02*
X145000500Y-103987500I237500J0D01*
G01*
X145575500Y-103987500D01*
G75*
G02*
X145813000Y-104225000I0J-237500D01*
G01*
G37*
G36*
G01*
X144063000Y-104225000D02*
X144063000Y-104700000D01*
G75*
G02*
X143825500Y-104937500I-237500J0D01*
G01*
X143250500Y-104937500D01*
G75*
G02*
X143013000Y-104700000I0J237500D01*
G01*
X143013000Y-104225000D01*
G75*
G02*
X143250500Y-103987500I237500J0D01*
G01*
X143825500Y-103987500D01*
G75*
G02*
X144063000Y-104225000I0J-237500D01*
G01*
G37*
G36*
G01*
X129378000Y-101600000D02*
X129378000Y-101125000D01*
G75*
G02*
X129615500Y-100887500I237500J0D01*
G01*
X130190500Y-100887500D01*
G75*
G02*
X130428000Y-101125000I0J-237500D01*
G01*
X130428000Y-101600000D01*
G75*
G02*
X130190500Y-101837500I-237500J0D01*
G01*
X129615500Y-101837500D01*
G75*
G02*
X129378000Y-101600000I0J237500D01*
G01*
G37*
G36*
G01*
X131128000Y-101600000D02*
X131128000Y-101125000D01*
G75*
G02*
X131365500Y-100887500I237500J0D01*
G01*
X131940500Y-100887500D01*
G75*
G02*
X132178000Y-101125000I0J-237500D01*
G01*
X132178000Y-101600000D01*
G75*
G02*
X131940500Y-101837500I-237500J0D01*
G01*
X131365500Y-101837500D01*
G75*
G02*
X131128000Y-101600000I0J237500D01*
G01*
G37*
G36*
G01*
X146045500Y-93807500D02*
X146520500Y-93807500D01*
G75*
G02*
X146758000Y-94045000I0J-237500D01*
G01*
X146758000Y-94620000D01*
G75*
G02*
X146520500Y-94857500I-237500J0D01*
G01*
X146045500Y-94857500D01*
G75*
G02*
X145808000Y-94620000I0J237500D01*
G01*
X145808000Y-94045000D01*
G75*
G02*
X146045500Y-93807500I237500J0D01*
G01*
G37*
G36*
G01*
X146045500Y-92057500D02*
X146520500Y-92057500D01*
G75*
G02*
X146758000Y-92295000I0J-237500D01*
G01*
X146758000Y-92870000D01*
G75*
G02*
X146520500Y-93107500I-237500J0D01*
G01*
X146045500Y-93107500D01*
G75*
G02*
X145808000Y-92870000I0J237500D01*
G01*
X145808000Y-92295000D01*
G75*
G02*
X146045500Y-92057500I237500J0D01*
G01*
G37*
G36*
G01*
X132556240Y-92480880D02*
X133031240Y-92480880D01*
G75*
G02*
X133268740Y-92718380I0J-237500D01*
G01*
X133268740Y-93293380D01*
G75*
G02*
X133031240Y-93530880I-237500J0D01*
G01*
X132556240Y-93530880D01*
G75*
G02*
X132318740Y-93293380I0J237500D01*
G01*
X132318740Y-92718380D01*
G75*
G02*
X132556240Y-92480880I237500J0D01*
G01*
G37*
G36*
G01*
X132556240Y-90730880D02*
X133031240Y-90730880D01*
G75*
G02*
X133268740Y-90968380I0J-237500D01*
G01*
X133268740Y-91543380D01*
G75*
G02*
X133031240Y-91780880I-237500J0D01*
G01*
X132556240Y-91780880D01*
G75*
G02*
X132318740Y-91543380I0J237500D01*
G01*
X132318740Y-90968380D01*
G75*
G02*
X132556240Y-90730880I237500J0D01*
G01*
G37*
G36*
G01*
X145915500Y-86777500D02*
X146390500Y-86777500D01*
G75*
G02*
X146628000Y-87015000I0J-237500D01*
G01*
X146628000Y-87590000D01*
G75*
G02*
X146390500Y-87827500I-237500J0D01*
G01*
X145915500Y-87827500D01*
G75*
G02*
X145678000Y-87590000I0J237500D01*
G01*
X145678000Y-87015000D01*
G75*
G02*
X145915500Y-86777500I237500J0D01*
G01*
G37*
G36*
G01*
X145915500Y-88527500D02*
X146390500Y-88527500D01*
G75*
G02*
X146628000Y-88765000I0J-237500D01*
G01*
X146628000Y-89340000D01*
G75*
G02*
X146390500Y-89577500I-237500J0D01*
G01*
X145915500Y-89577500D01*
G75*
G02*
X145678000Y-89340000I0J237500D01*
G01*
X145678000Y-88765000D01*
G75*
G02*
X145915500Y-88527500I237500J0D01*
G01*
G37*
G36*
G01*
X132575500Y-88472500D02*
X133050500Y-88472500D01*
G75*
G02*
X133288000Y-88710000I0J-237500D01*
G01*
X133288000Y-89285000D01*
G75*
G02*
X133050500Y-89522500I-237500J0D01*
G01*
X132575500Y-89522500D01*
G75*
G02*
X132338000Y-89285000I0J237500D01*
G01*
X132338000Y-88710000D01*
G75*
G02*
X132575500Y-88472500I237500J0D01*
G01*
G37*
G36*
G01*
X132575500Y-86722500D02*
X133050500Y-86722500D01*
G75*
G02*
X133288000Y-86960000I0J-237500D01*
G01*
X133288000Y-87535000D01*
G75*
G02*
X133050500Y-87772500I-237500J0D01*
G01*
X132575500Y-87772500D01*
G75*
G02*
X132338000Y-87535000I0J237500D01*
G01*
X132338000Y-86960000D01*
G75*
G02*
X132575500Y-86722500I237500J0D01*
G01*
G37*
G36*
G01*
X152533000Y-86155000D02*
X152533000Y-86630000D01*
G75*
G02*
X152295500Y-86867500I-237500J0D01*
G01*
X151720500Y-86867500D01*
G75*
G02*
X151483000Y-86630000I0J237500D01*
G01*
X151483000Y-86155000D01*
G75*
G02*
X151720500Y-85917500I237500J0D01*
G01*
X152295500Y-85917500D01*
G75*
G02*
X152533000Y-86155000I0J-237500D01*
G01*
G37*
G36*
G01*
X150783000Y-86155000D02*
X150783000Y-86630000D01*
G75*
G02*
X150545500Y-86867500I-237500J0D01*
G01*
X149970500Y-86867500D01*
G75*
G02*
X149733000Y-86630000I0J237500D01*
G01*
X149733000Y-86155000D01*
G75*
G02*
X149970500Y-85917500I237500J0D01*
G01*
X150545500Y-85917500D01*
G75*
G02*
X150783000Y-86155000I0J-237500D01*
G01*
G37*
G36*
G01*
X123784000Y-89039000D02*
X123784000Y-89514000D01*
G75*
G02*
X123546500Y-89751500I-237500J0D01*
G01*
X122971500Y-89751500D01*
G75*
G02*
X122734000Y-89514000I0J237500D01*
G01*
X122734000Y-89039000D01*
G75*
G02*
X122971500Y-88801500I237500J0D01*
G01*
X123546500Y-88801500D01*
G75*
G02*
X123784000Y-89039000I0J-237500D01*
G01*
G37*
G36*
G01*
X125534000Y-89039000D02*
X125534000Y-89514000D01*
G75*
G02*
X125296500Y-89751500I-237500J0D01*
G01*
X124721500Y-89751500D01*
G75*
G02*
X124484000Y-89514000I0J237500D01*
G01*
X124484000Y-89039000D01*
G75*
G02*
X124721500Y-88801500I237500J0D01*
G01*
X125296500Y-88801500D01*
G75*
G02*
X125534000Y-89039000I0J-237500D01*
G01*
G37*
G36*
G01*
X149040500Y-82697500D02*
X148565500Y-82697500D01*
G75*
G02*
X148328000Y-82460000I0J237500D01*
G01*
X148328000Y-81885000D01*
G75*
G02*
X148565500Y-81647500I237500J0D01*
G01*
X149040500Y-81647500D01*
G75*
G02*
X149278000Y-81885000I0J-237500D01*
G01*
X149278000Y-82460000D01*
G75*
G02*
X149040500Y-82697500I-237500J0D01*
G01*
G37*
G36*
G01*
X149040500Y-84447500D02*
X148565500Y-84447500D01*
G75*
G02*
X148328000Y-84210000I0J237500D01*
G01*
X148328000Y-83635000D01*
G75*
G02*
X148565500Y-83397500I237500J0D01*
G01*
X149040500Y-83397500D01*
G75*
G02*
X149278000Y-83635000I0J-237500D01*
G01*
X149278000Y-84210000D01*
G75*
G02*
X149040500Y-84447500I-237500J0D01*
G01*
G37*
G36*
G01*
X128176500Y-89201500D02*
X127701500Y-89201500D01*
G75*
G02*
X127464000Y-88964000I0J237500D01*
G01*
X127464000Y-88389000D01*
G75*
G02*
X127701500Y-88151500I237500J0D01*
G01*
X128176500Y-88151500D01*
G75*
G02*
X128414000Y-88389000I0J-237500D01*
G01*
X128414000Y-88964000D01*
G75*
G02*
X128176500Y-89201500I-237500J0D01*
G01*
G37*
G36*
G01*
X128176500Y-87451500D02*
X127701500Y-87451500D01*
G75*
G02*
X127464000Y-87214000I0J237500D01*
G01*
X127464000Y-86639000D01*
G75*
G02*
X127701500Y-86401500I237500J0D01*
G01*
X128176500Y-86401500D01*
G75*
G02*
X128414000Y-86639000I0J-237500D01*
G01*
X128414000Y-87214000D01*
G75*
G02*
X128176500Y-87451500I-237500J0D01*
G01*
G37*
G36*
G01*
X132870500Y-106107500D02*
X132395500Y-106107500D01*
G75*
G02*
X132158000Y-105870000I0J237500D01*
G01*
X132158000Y-105295000D01*
G75*
G02*
X132395500Y-105057500I237500J0D01*
G01*
X132870500Y-105057500D01*
G75*
G02*
X133108000Y-105295000I0J-237500D01*
G01*
X133108000Y-105870000D01*
G75*
G02*
X132870500Y-106107500I-237500J0D01*
G01*
G37*
G36*
G01*
X132870500Y-107857500D02*
X132395500Y-107857500D01*
G75*
G02*
X132158000Y-107620000I0J237500D01*
G01*
X132158000Y-107045000D01*
G75*
G02*
X132395500Y-106807500I237500J0D01*
G01*
X132870500Y-106807500D01*
G75*
G02*
X133108000Y-107045000I0J-237500D01*
G01*
X133108000Y-107620000D01*
G75*
G02*
X132870500Y-107857500I-237500J0D01*
G01*
G37*
G36*
G01*
X120158500Y-110282500D02*
X120633500Y-110282500D01*
G75*
G02*
X120871000Y-110520000I0J-237500D01*
G01*
X120871000Y-111095000D01*
G75*
G02*
X120633500Y-111332500I-237500J0D01*
G01*
X120158500Y-111332500D01*
G75*
G02*
X119921000Y-111095000I0J237500D01*
G01*
X119921000Y-110520000D01*
G75*
G02*
X120158500Y-110282500I237500J0D01*
G01*
G37*
G36*
G01*
X120158500Y-112032500D02*
X120633500Y-112032500D01*
G75*
G02*
X120871000Y-112270000I0J-237500D01*
G01*
X120871000Y-112845000D01*
G75*
G02*
X120633500Y-113082500I-237500J0D01*
G01*
X120158500Y-113082500D01*
G75*
G02*
X119921000Y-112845000I0J237500D01*
G01*
X119921000Y-112270000D01*
G75*
G02*
X120158500Y-112032500I237500J0D01*
G01*
G37*
G36*
G01*
X114713500Y-105204000D02*
X114713500Y-104729000D01*
G75*
G02*
X114951000Y-104491500I237500J0D01*
G01*
X115526000Y-104491500D01*
G75*
G02*
X115763500Y-104729000I0J-237500D01*
G01*
X115763500Y-105204000D01*
G75*
G02*
X115526000Y-105441500I-237500J0D01*
G01*
X114951000Y-105441500D01*
G75*
G02*
X114713500Y-105204000I0J237500D01*
G01*
G37*
G36*
G01*
X112963500Y-105204000D02*
X112963500Y-104729000D01*
G75*
G02*
X113201000Y-104491500I237500J0D01*
G01*
X113776000Y-104491500D01*
G75*
G02*
X114013500Y-104729000I0J-237500D01*
G01*
X114013500Y-105204000D01*
G75*
G02*
X113776000Y-105441500I-237500J0D01*
G01*
X113201000Y-105441500D01*
G75*
G02*
X112963500Y-105204000I0J237500D01*
G01*
G37*
G36*
G01*
X112207500Y-104709000D02*
X112207500Y-105184000D01*
G75*
G02*
X111970000Y-105421500I-237500J0D01*
G01*
X111395000Y-105421500D01*
G75*
G02*
X111157500Y-105184000I0J237500D01*
G01*
X111157500Y-104709000D01*
G75*
G02*
X111395000Y-104471500I237500J0D01*
G01*
X111970000Y-104471500D01*
G75*
G02*
X112207500Y-104709000I0J-237500D01*
G01*
G37*
G36*
G01*
X110457500Y-104709000D02*
X110457500Y-105184000D01*
G75*
G02*
X110220000Y-105421500I-237500J0D01*
G01*
X109645000Y-105421500D01*
G75*
G02*
X109407500Y-105184000I0J237500D01*
G01*
X109407500Y-104709000D01*
G75*
G02*
X109645000Y-104471500I237500J0D01*
G01*
X110220000Y-104471500D01*
G75*
G02*
X110457500Y-104709000I0J-237500D01*
G01*
G37*
G36*
G01*
X95647500Y-67991500D02*
X96122500Y-67991500D01*
G75*
G02*
X96360000Y-68229000I0J-237500D01*
G01*
X96360000Y-68804000D01*
G75*
G02*
X96122500Y-69041500I-237500J0D01*
G01*
X95647500Y-69041500D01*
G75*
G02*
X95410000Y-68804000I0J237500D01*
G01*
X95410000Y-68229000D01*
G75*
G02*
X95647500Y-67991500I237500J0D01*
G01*
G37*
G36*
G01*
X95647500Y-66241500D02*
X96122500Y-66241500D01*
G75*
G02*
X96360000Y-66479000I0J-237500D01*
G01*
X96360000Y-67054000D01*
G75*
G02*
X96122500Y-67291500I-237500J0D01*
G01*
X95647500Y-67291500D01*
G75*
G02*
X95410000Y-67054000I0J237500D01*
G01*
X95410000Y-66479000D01*
G75*
G02*
X95647500Y-66241500I237500J0D01*
G01*
G37*
G36*
G01*
X95266500Y-60766500D02*
X95741500Y-60766500D01*
G75*
G02*
X95979000Y-61004000I0J-237500D01*
G01*
X95979000Y-61579000D01*
G75*
G02*
X95741500Y-61816500I-237500J0D01*
G01*
X95266500Y-61816500D01*
G75*
G02*
X95029000Y-61579000I0J237500D01*
G01*
X95029000Y-61004000D01*
G75*
G02*
X95266500Y-60766500I237500J0D01*
G01*
G37*
G36*
G01*
X95266500Y-62516500D02*
X95741500Y-62516500D01*
G75*
G02*
X95979000Y-62754000I0J-237500D01*
G01*
X95979000Y-63329000D01*
G75*
G02*
X95741500Y-63566500I-237500J0D01*
G01*
X95266500Y-63566500D01*
G75*
G02*
X95029000Y-63329000I0J237500D01*
G01*
X95029000Y-62754000D01*
G75*
G02*
X95266500Y-62516500I237500J0D01*
G01*
G37*
G36*
G01*
X89899000Y-61515000D02*
X89899000Y-61040000D01*
G75*
G02*
X90136500Y-60802500I237500J0D01*
G01*
X90711500Y-60802500D01*
G75*
G02*
X90949000Y-61040000I0J-237500D01*
G01*
X90949000Y-61515000D01*
G75*
G02*
X90711500Y-61752500I-237500J0D01*
G01*
X90136500Y-61752500D01*
G75*
G02*
X89899000Y-61515000I0J237500D01*
G01*
G37*
G36*
G01*
X91649000Y-61515000D02*
X91649000Y-61040000D01*
G75*
G02*
X91886500Y-60802500I237500J0D01*
G01*
X92461500Y-60802500D01*
G75*
G02*
X92699000Y-61040000I0J-237500D01*
G01*
X92699000Y-61515000D01*
G75*
G02*
X92461500Y-61752500I-237500J0D01*
G01*
X91886500Y-61752500D01*
G75*
G02*
X91649000Y-61515000I0J237500D01*
G01*
G37*
G36*
G01*
X94965000Y-65198000D02*
X94965000Y-64723000D01*
G75*
G02*
X95202500Y-64485500I237500J0D01*
G01*
X95777500Y-64485500D01*
G75*
G02*
X96015000Y-64723000I0J-237500D01*
G01*
X96015000Y-65198000D01*
G75*
G02*
X95777500Y-65435500I-237500J0D01*
G01*
X95202500Y-65435500D01*
G75*
G02*
X94965000Y-65198000I0J237500D01*
G01*
G37*
G36*
G01*
X93215000Y-65198000D02*
X93215000Y-64723000D01*
G75*
G02*
X93452500Y-64485500I237500J0D01*
G01*
X94027500Y-64485500D01*
G75*
G02*
X94265000Y-64723000I0J-237500D01*
G01*
X94265000Y-65198000D01*
G75*
G02*
X94027500Y-65435500I-237500J0D01*
G01*
X93452500Y-65435500D01*
G75*
G02*
X93215000Y-65198000I0J237500D01*
G01*
G37*
G36*
G01*
X114156500Y-87696500D02*
X113681500Y-87696500D01*
G75*
G02*
X113444000Y-87459000I0J237500D01*
G01*
X113444000Y-86884000D01*
G75*
G02*
X113681500Y-86646500I237500J0D01*
G01*
X114156500Y-86646500D01*
G75*
G02*
X114394000Y-86884000I0J-237500D01*
G01*
X114394000Y-87459000D01*
G75*
G02*
X114156500Y-87696500I-237500J0D01*
G01*
G37*
G36*
G01*
X114156500Y-85946500D02*
X113681500Y-85946500D01*
G75*
G02*
X113444000Y-85709000I0J237500D01*
G01*
X113444000Y-85134000D01*
G75*
G02*
X113681500Y-84896500I237500J0D01*
G01*
X114156500Y-84896500D01*
G75*
G02*
X114394000Y-85134000I0J-237500D01*
G01*
X114394000Y-85709000D01*
G75*
G02*
X114156500Y-85946500I-237500J0D01*
G01*
G37*
G36*
G01*
X85341000Y-69389000D02*
X85341000Y-68914000D01*
G75*
G02*
X85578500Y-68676500I237500J0D01*
G01*
X86153500Y-68676500D01*
G75*
G02*
X86391000Y-68914000I0J-237500D01*
G01*
X86391000Y-69389000D01*
G75*
G02*
X86153500Y-69626500I-237500J0D01*
G01*
X85578500Y-69626500D01*
G75*
G02*
X85341000Y-69389000I0J237500D01*
G01*
G37*
G36*
G01*
X87091000Y-69389000D02*
X87091000Y-68914000D01*
G75*
G02*
X87328500Y-68676500I237500J0D01*
G01*
X87903500Y-68676500D01*
G75*
G02*
X88141000Y-68914000I0J-237500D01*
G01*
X88141000Y-69389000D01*
G75*
G02*
X87903500Y-69626500I-237500J0D01*
G01*
X87328500Y-69626500D01*
G75*
G02*
X87091000Y-69389000I0J237500D01*
G01*
G37*
G36*
G01*
X93869500Y-66241500D02*
X94344500Y-66241500D01*
G75*
G02*
X94582000Y-66479000I0J-237500D01*
G01*
X94582000Y-67054000D01*
G75*
G02*
X94344500Y-67291500I-237500J0D01*
G01*
X93869500Y-67291500D01*
G75*
G02*
X93632000Y-67054000I0J237500D01*
G01*
X93632000Y-66479000D01*
G75*
G02*
X93869500Y-66241500I237500J0D01*
G01*
G37*
G36*
G01*
X93869500Y-67991500D02*
X94344500Y-67991500D01*
G75*
G02*
X94582000Y-68229000I0J-237500D01*
G01*
X94582000Y-68804000D01*
G75*
G02*
X94344500Y-69041500I-237500J0D01*
G01*
X93869500Y-69041500D01*
G75*
G02*
X93632000Y-68804000I0J237500D01*
G01*
X93632000Y-68229000D01*
G75*
G02*
X93869500Y-67991500I237500J0D01*
G01*
G37*
G36*
G01*
X111395500Y-72422500D02*
X111870500Y-72422500D01*
G75*
G02*
X112108000Y-72660000I0J-237500D01*
G01*
X112108000Y-73235000D01*
G75*
G02*
X111870500Y-73472500I-237500J0D01*
G01*
X111395500Y-73472500D01*
G75*
G02*
X111158000Y-73235000I0J237500D01*
G01*
X111158000Y-72660000D01*
G75*
G02*
X111395500Y-72422500I237500J0D01*
G01*
G37*
G36*
G01*
X111395500Y-70672500D02*
X111870500Y-70672500D01*
G75*
G02*
X112108000Y-70910000I0J-237500D01*
G01*
X112108000Y-71485000D01*
G75*
G02*
X111870500Y-71722500I-237500J0D01*
G01*
X111395500Y-71722500D01*
G75*
G02*
X111158000Y-71485000I0J237500D01*
G01*
X111158000Y-70910000D01*
G75*
G02*
X111395500Y-70672500I237500J0D01*
G01*
G37*
G36*
G01*
X109965500Y-73486500D02*
X109490500Y-73486500D01*
G75*
G02*
X109253000Y-73249000I0J237500D01*
G01*
X109253000Y-72674000D01*
G75*
G02*
X109490500Y-72436500I237500J0D01*
G01*
X109965500Y-72436500D01*
G75*
G02*
X110203000Y-72674000I0J-237500D01*
G01*
X110203000Y-73249000D01*
G75*
G02*
X109965500Y-73486500I-237500J0D01*
G01*
G37*
G36*
G01*
X109965500Y-71736500D02*
X109490500Y-71736500D01*
G75*
G02*
X109253000Y-71499000I0J237500D01*
G01*
X109253000Y-70924000D01*
G75*
G02*
X109490500Y-70686500I237500J0D01*
G01*
X109965500Y-70686500D01*
G75*
G02*
X110203000Y-70924000I0J-237500D01*
G01*
X110203000Y-71499000D01*
G75*
G02*
X109965500Y-71736500I-237500J0D01*
G01*
G37*
G36*
G01*
X112157500Y-68372500D02*
X112632500Y-68372500D01*
G75*
G02*
X112870000Y-68610000I0J-237500D01*
G01*
X112870000Y-69185000D01*
G75*
G02*
X112632500Y-69422500I-237500J0D01*
G01*
X112157500Y-69422500D01*
G75*
G02*
X111920000Y-69185000I0J237500D01*
G01*
X111920000Y-68610000D01*
G75*
G02*
X112157500Y-68372500I237500J0D01*
G01*
G37*
G36*
G01*
X112157500Y-66622500D02*
X112632500Y-66622500D01*
G75*
G02*
X112870000Y-66860000I0J-237500D01*
G01*
X112870000Y-67435000D01*
G75*
G02*
X112632500Y-67672500I-237500J0D01*
G01*
X112157500Y-67672500D01*
G75*
G02*
X111920000Y-67435000I0J237500D01*
G01*
X111920000Y-66860000D01*
G75*
G02*
X112157500Y-66622500I237500J0D01*
G01*
G37*
G36*
G01*
X87994500Y-66134500D02*
X87519500Y-66134500D01*
G75*
G02*
X87282000Y-65897000I0J237500D01*
G01*
X87282000Y-65322000D01*
G75*
G02*
X87519500Y-65084500I237500J0D01*
G01*
X87994500Y-65084500D01*
G75*
G02*
X88232000Y-65322000I0J-237500D01*
G01*
X88232000Y-65897000D01*
G75*
G02*
X87994500Y-66134500I-237500J0D01*
G01*
G37*
G36*
G01*
X87994500Y-67884500D02*
X87519500Y-67884500D01*
G75*
G02*
X87282000Y-67647000I0J237500D01*
G01*
X87282000Y-67072000D01*
G75*
G02*
X87519500Y-66834500I237500J0D01*
G01*
X87994500Y-66834500D01*
G75*
G02*
X88232000Y-67072000I0J-237500D01*
G01*
X88232000Y-67647000D01*
G75*
G02*
X87994500Y-67884500I-237500J0D01*
G01*
G37*
G36*
G01*
X88629500Y-103317500D02*
X88154500Y-103317500D01*
G75*
G02*
X87917000Y-103080000I0J237500D01*
G01*
X87917000Y-102505000D01*
G75*
G02*
X88154500Y-102267500I237500J0D01*
G01*
X88629500Y-102267500D01*
G75*
G02*
X88867000Y-102505000I0J-237500D01*
G01*
X88867000Y-103080000D01*
G75*
G02*
X88629500Y-103317500I-237500J0D01*
G01*
G37*
G36*
G01*
X88629500Y-101567500D02*
X88154500Y-101567500D01*
G75*
G02*
X87917000Y-101330000I0J237500D01*
G01*
X87917000Y-100755000D01*
G75*
G02*
X88154500Y-100517500I237500J0D01*
G01*
X88629500Y-100517500D01*
G75*
G02*
X88867000Y-100755000I0J-237500D01*
G01*
X88867000Y-101330000D01*
G75*
G02*
X88629500Y-101567500I-237500J0D01*
G01*
G37*
G36*
G01*
X97806500Y-63024500D02*
X98281500Y-63024500D01*
G75*
G02*
X98519000Y-63262000I0J-237500D01*
G01*
X98519000Y-63837000D01*
G75*
G02*
X98281500Y-64074500I-237500J0D01*
G01*
X97806500Y-64074500D01*
G75*
G02*
X97569000Y-63837000I0J237500D01*
G01*
X97569000Y-63262000D01*
G75*
G02*
X97806500Y-63024500I237500J0D01*
G01*
G37*
G36*
G01*
X97806500Y-61274500D02*
X98281500Y-61274500D01*
G75*
G02*
X98519000Y-61512000I0J-237500D01*
G01*
X98519000Y-62087000D01*
G75*
G02*
X98281500Y-62324500I-237500J0D01*
G01*
X97806500Y-62324500D01*
G75*
G02*
X97569000Y-62087000I0J237500D01*
G01*
X97569000Y-61512000D01*
G75*
G02*
X97806500Y-61274500I237500J0D01*
G01*
G37*
G36*
G01*
X163820500Y-82887500D02*
X163345500Y-82887500D01*
G75*
G02*
X163108000Y-82650000I0J237500D01*
G01*
X163108000Y-82075000D01*
G75*
G02*
X163345500Y-81837500I237500J0D01*
G01*
X163820500Y-81837500D01*
G75*
G02*
X164058000Y-82075000I0J-237500D01*
G01*
X164058000Y-82650000D01*
G75*
G02*
X163820500Y-82887500I-237500J0D01*
G01*
G37*
G36*
G01*
X163820500Y-84637500D02*
X163345500Y-84637500D01*
G75*
G02*
X163108000Y-84400000I0J237500D01*
G01*
X163108000Y-83825000D01*
G75*
G02*
X163345500Y-83587500I237500J0D01*
G01*
X163820500Y-83587500D01*
G75*
G02*
X164058000Y-83825000I0J-237500D01*
G01*
X164058000Y-84400000D01*
G75*
G02*
X163820500Y-84637500I-237500J0D01*
G01*
G37*
G36*
G01*
X167063000Y-82530000D02*
X167063000Y-82055000D01*
G75*
G02*
X167300500Y-81817500I237500J0D01*
G01*
X167875500Y-81817500D01*
G75*
G02*
X168113000Y-82055000I0J-237500D01*
G01*
X168113000Y-82530000D01*
G75*
G02*
X167875500Y-82767500I-237500J0D01*
G01*
X167300500Y-82767500D01*
G75*
G02*
X167063000Y-82530000I0J237500D01*
G01*
G37*
G36*
G01*
X165313000Y-82530000D02*
X165313000Y-82055000D01*
G75*
G02*
X165550500Y-81817500I237500J0D01*
G01*
X166125500Y-81817500D01*
G75*
G02*
X166363000Y-82055000I0J-237500D01*
G01*
X166363000Y-82530000D01*
G75*
G02*
X166125500Y-82767500I-237500J0D01*
G01*
X165550500Y-82767500D01*
G75*
G02*
X165313000Y-82530000I0J237500D01*
G01*
G37*
G36*
G01*
X166376900Y-83796900D02*
X166376900Y-84271900D01*
G75*
G02*
X166139400Y-84509400I-237500J0D01*
G01*
X165564400Y-84509400D01*
G75*
G02*
X165326900Y-84271900I0J237500D01*
G01*
X165326900Y-83796900D01*
G75*
G02*
X165564400Y-83559400I237500J0D01*
G01*
X166139400Y-83559400D01*
G75*
G02*
X166376900Y-83796900I0J-237500D01*
G01*
G37*
G36*
G01*
X168126900Y-83796900D02*
X168126900Y-84271900D01*
G75*
G02*
X167889400Y-84509400I-237500J0D01*
G01*
X167314400Y-84509400D01*
G75*
G02*
X167076900Y-84271900I0J237500D01*
G01*
X167076900Y-83796900D01*
G75*
G02*
X167314400Y-83559400I237500J0D01*
G01*
X167889400Y-83559400D01*
G75*
G02*
X168126900Y-83796900I0J-237500D01*
G01*
G37*
G36*
G01*
X170678000Y-81455000D02*
X170678000Y-81930000D01*
G75*
G02*
X170440500Y-82167500I-237500J0D01*
G01*
X169865500Y-82167500D01*
G75*
G02*
X169628000Y-81930000I0J237500D01*
G01*
X169628000Y-81455000D01*
G75*
G02*
X169865500Y-81217500I237500J0D01*
G01*
X170440500Y-81217500D01*
G75*
G02*
X170678000Y-81455000I0J-237500D01*
G01*
G37*
G36*
G01*
X172428000Y-81455000D02*
X172428000Y-81930000D01*
G75*
G02*
X172190500Y-82167500I-237500J0D01*
G01*
X171615500Y-82167500D01*
G75*
G02*
X171378000Y-81930000I0J237500D01*
G01*
X171378000Y-81455000D01*
G75*
G02*
X171615500Y-81217500I237500J0D01*
G01*
X172190500Y-81217500D01*
G75*
G02*
X172428000Y-81455000I0J-237500D01*
G01*
G37*
G36*
G01*
X175200500Y-86377500D02*
X174725500Y-86377500D01*
G75*
G02*
X174488000Y-86140000I0J237500D01*
G01*
X174488000Y-85565000D01*
G75*
G02*
X174725500Y-85327500I237500J0D01*
G01*
X175200500Y-85327500D01*
G75*
G02*
X175438000Y-85565000I0J-237500D01*
G01*
X175438000Y-86140000D01*
G75*
G02*
X175200500Y-86377500I-237500J0D01*
G01*
G37*
G36*
G01*
X175200500Y-84627500D02*
X174725500Y-84627500D01*
G75*
G02*
X174488000Y-84390000I0J237500D01*
G01*
X174488000Y-83815000D01*
G75*
G02*
X174725500Y-83577500I237500J0D01*
G01*
X175200500Y-83577500D01*
G75*
G02*
X175438000Y-83815000I0J-237500D01*
G01*
X175438000Y-84390000D01*
G75*
G02*
X175200500Y-84627500I-237500J0D01*
G01*
G37*
G36*
G01*
X173770280Y-79156100D02*
X174245280Y-79156100D01*
G75*
G02*
X174482780Y-79393600I0J-237500D01*
G01*
X174482780Y-79968600D01*
G75*
G02*
X174245280Y-80206100I-237500J0D01*
G01*
X173770280Y-80206100D01*
G75*
G02*
X173532780Y-79968600I0J237500D01*
G01*
X173532780Y-79393600D01*
G75*
G02*
X173770280Y-79156100I237500J0D01*
G01*
G37*
G36*
G01*
X173770280Y-80906100D02*
X174245280Y-80906100D01*
G75*
G02*
X174482780Y-81143600I0J-237500D01*
G01*
X174482780Y-81718600D01*
G75*
G02*
X174245280Y-81956100I-237500J0D01*
G01*
X173770280Y-81956100D01*
G75*
G02*
X173532780Y-81718600I0J237500D01*
G01*
X173532780Y-81143600D01*
G75*
G02*
X173770280Y-80906100I237500J0D01*
G01*
G37*
G36*
G01*
X169620500Y-91677500D02*
X169145500Y-91677500D01*
G75*
G02*
X168908000Y-91440000I0J237500D01*
G01*
X168908000Y-90865000D01*
G75*
G02*
X169145500Y-90627500I237500J0D01*
G01*
X169620500Y-90627500D01*
G75*
G02*
X169858000Y-90865000I0J-237500D01*
G01*
X169858000Y-91440000D01*
G75*
G02*
X169620500Y-91677500I-237500J0D01*
G01*
G37*
G36*
G01*
X169620500Y-89927500D02*
X169145500Y-89927500D01*
G75*
G02*
X168908000Y-89690000I0J237500D01*
G01*
X168908000Y-89115000D01*
G75*
G02*
X169145500Y-88877500I237500J0D01*
G01*
X169620500Y-88877500D01*
G75*
G02*
X169858000Y-89115000I0J-237500D01*
G01*
X169858000Y-89690000D01*
G75*
G02*
X169620500Y-89927500I-237500J0D01*
G01*
G37*
G36*
G01*
X170675500Y-90637500D02*
X171150500Y-90637500D01*
G75*
G02*
X171388000Y-90875000I0J-237500D01*
G01*
X171388000Y-91450000D01*
G75*
G02*
X171150500Y-91687500I-237500J0D01*
G01*
X170675500Y-91687500D01*
G75*
G02*
X170438000Y-91450000I0J237500D01*
G01*
X170438000Y-90875000D01*
G75*
G02*
X170675500Y-90637500I237500J0D01*
G01*
G37*
G36*
G01*
X170675500Y-88887500D02*
X171150500Y-88887500D01*
G75*
G02*
X171388000Y-89125000I0J-237500D01*
G01*
X171388000Y-89700000D01*
G75*
G02*
X171150500Y-89937500I-237500J0D01*
G01*
X170675500Y-89937500D01*
G75*
G02*
X170438000Y-89700000I0J237500D01*
G01*
X170438000Y-89125000D01*
G75*
G02*
X170675500Y-88887500I237500J0D01*
G01*
G37*
G36*
G01*
X171150500Y-93307500D02*
X170675500Y-93307500D01*
G75*
G02*
X170438000Y-93070000I0J237500D01*
G01*
X170438000Y-92495000D01*
G75*
G02*
X170675500Y-92257500I237500J0D01*
G01*
X171150500Y-92257500D01*
G75*
G02*
X171388000Y-92495000I0J-237500D01*
G01*
X171388000Y-93070000D01*
G75*
G02*
X171150500Y-93307500I-237500J0D01*
G01*
G37*
G36*
G01*
X171150500Y-95057500D02*
X170675500Y-95057500D01*
G75*
G02*
X170438000Y-94820000I0J237500D01*
G01*
X170438000Y-94245000D01*
G75*
G02*
X170675500Y-94007500I237500J0D01*
G01*
X171150500Y-94007500D01*
G75*
G02*
X171388000Y-94245000I0J-237500D01*
G01*
X171388000Y-94820000D01*
G75*
G02*
X171150500Y-95057500I-237500J0D01*
G01*
G37*
G36*
G01*
X181593500Y-59022500D02*
X181118500Y-59022500D01*
G75*
G02*
X180881000Y-58785000I0J237500D01*
G01*
X180881000Y-58210000D01*
G75*
G02*
X181118500Y-57972500I237500J0D01*
G01*
X181593500Y-57972500D01*
G75*
G02*
X181831000Y-58210000I0J-237500D01*
G01*
X181831000Y-58785000D01*
G75*
G02*
X181593500Y-59022500I-237500J0D01*
G01*
G37*
G36*
G01*
X181593500Y-60772500D02*
X181118500Y-60772500D01*
G75*
G02*
X180881000Y-60535000I0J237500D01*
G01*
X180881000Y-59960000D01*
G75*
G02*
X181118500Y-59722500I237500J0D01*
G01*
X181593500Y-59722500D01*
G75*
G02*
X181831000Y-59960000I0J-237500D01*
G01*
X181831000Y-60535000D01*
G75*
G02*
X181593500Y-60772500I-237500J0D01*
G01*
G37*
G36*
G01*
X192217500Y-96727000D02*
X192217500Y-97202000D01*
G75*
G02*
X191980000Y-97439500I-237500J0D01*
G01*
X191405000Y-97439500D01*
G75*
G02*
X191167500Y-97202000I0J237500D01*
G01*
X191167500Y-96727000D01*
G75*
G02*
X191405000Y-96489500I237500J0D01*
G01*
X191980000Y-96489500D01*
G75*
G02*
X192217500Y-96727000I0J-237500D01*
G01*
G37*
G36*
G01*
X190467500Y-96727000D02*
X190467500Y-97202000D01*
G75*
G02*
X190230000Y-97439500I-237500J0D01*
G01*
X189655000Y-97439500D01*
G75*
G02*
X189417500Y-97202000I0J237500D01*
G01*
X189417500Y-96727000D01*
G75*
G02*
X189655000Y-96489500I237500J0D01*
G01*
X190230000Y-96489500D01*
G75*
G02*
X190467500Y-96727000I0J-237500D01*
G01*
G37*
G36*
G01*
X186862000Y-76915000D02*
X186862000Y-77390000D01*
G75*
G02*
X186624500Y-77627500I-237500J0D01*
G01*
X186049500Y-77627500D01*
G75*
G02*
X185812000Y-77390000I0J237500D01*
G01*
X185812000Y-76915000D01*
G75*
G02*
X186049500Y-76677500I237500J0D01*
G01*
X186624500Y-76677500D01*
G75*
G02*
X186862000Y-76915000I0J-237500D01*
G01*
G37*
G36*
G01*
X188612000Y-76915000D02*
X188612000Y-77390000D01*
G75*
G02*
X188374500Y-77627500I-237500J0D01*
G01*
X187799500Y-77627500D01*
G75*
G02*
X187562000Y-77390000I0J237500D01*
G01*
X187562000Y-76915000D01*
G75*
G02*
X187799500Y-76677500I237500J0D01*
G01*
X188374500Y-76677500D01*
G75*
G02*
X188612000Y-76915000I0J-237500D01*
G01*
G37*
G36*
G01*
X174768000Y-110717500D02*
X174768000Y-111017500D01*
G75*
G02*
X174618000Y-111167500I-150000J0D01*
G01*
X172968000Y-111167500D01*
G75*
G02*
X172818000Y-111017500I0J150000D01*
G01*
X172818000Y-110717500D01*
G75*
G02*
X172968000Y-110567500I150000J0D01*
G01*
X174618000Y-110567500D01*
G75*
G02*
X174768000Y-110717500I0J-150000D01*
G01*
G37*
G36*
G01*
X174768000Y-109447500D02*
X174768000Y-109747500D01*
G75*
G02*
X174618000Y-109897500I-150000J0D01*
G01*
X172968000Y-109897500D01*
G75*
G02*
X172818000Y-109747500I0J150000D01*
G01*
X172818000Y-109447500D01*
G75*
G02*
X172968000Y-109297500I150000J0D01*
G01*
X174618000Y-109297500D01*
G75*
G02*
X174768000Y-109447500I0J-150000D01*
G01*
G37*
G36*
G01*
X174768000Y-108177500D02*
X174768000Y-108477500D01*
G75*
G02*
X174618000Y-108627500I-150000J0D01*
G01*
X172968000Y-108627500D01*
G75*
G02*
X172818000Y-108477500I0J150000D01*
G01*
X172818000Y-108177500D01*
G75*
G02*
X172968000Y-108027500I150000J0D01*
G01*
X174618000Y-108027500D01*
G75*
G02*
X174768000Y-108177500I0J-150000D01*
G01*
G37*
G36*
G01*
X174768000Y-106907500D02*
X174768000Y-107207500D01*
G75*
G02*
X174618000Y-107357500I-150000J0D01*
G01*
X172968000Y-107357500D01*
G75*
G02*
X172818000Y-107207500I0J150000D01*
G01*
X172818000Y-106907500D01*
G75*
G02*
X172968000Y-106757500I150000J0D01*
G01*
X174618000Y-106757500D01*
G75*
G02*
X174768000Y-106907500I0J-150000D01*
G01*
G37*
G36*
G01*
X169818000Y-106907500D02*
X169818000Y-107207500D01*
G75*
G02*
X169668000Y-107357500I-150000J0D01*
G01*
X168018000Y-107357500D01*
G75*
G02*
X167868000Y-107207500I0J150000D01*
G01*
X167868000Y-106907500D01*
G75*
G02*
X168018000Y-106757500I150000J0D01*
G01*
X169668000Y-106757500D01*
G75*
G02*
X169818000Y-106907500I0J-150000D01*
G01*
G37*
G36*
G01*
X169818000Y-108177500D02*
X169818000Y-108477500D01*
G75*
G02*
X169668000Y-108627500I-150000J0D01*
G01*
X168018000Y-108627500D01*
G75*
G02*
X167868000Y-108477500I0J150000D01*
G01*
X167868000Y-108177500D01*
G75*
G02*
X168018000Y-108027500I150000J0D01*
G01*
X169668000Y-108027500D01*
G75*
G02*
X169818000Y-108177500I0J-150000D01*
G01*
G37*
G36*
G01*
X169818000Y-109447500D02*
X169818000Y-109747500D01*
G75*
G02*
X169668000Y-109897500I-150000J0D01*
G01*
X168018000Y-109897500D01*
G75*
G02*
X167868000Y-109747500I0J150000D01*
G01*
X167868000Y-109447500D01*
G75*
G02*
X168018000Y-109297500I150000J0D01*
G01*
X169668000Y-109297500D01*
G75*
G02*
X169818000Y-109447500I0J-150000D01*
G01*
G37*
G36*
G01*
X169818000Y-110717500D02*
X169818000Y-111017500D01*
G75*
G02*
X169668000Y-111167500I-150000J0D01*
G01*
X168018000Y-111167500D01*
G75*
G02*
X167868000Y-111017500I0J150000D01*
G01*
X167868000Y-110717500D01*
G75*
G02*
X168018000Y-110567500I150000J0D01*
G01*
X169668000Y-110567500D01*
G75*
G02*
X169818000Y-110717500I0J-150000D01*
G01*
G37*
G36*
G01*
X122554000Y-92636500D02*
X122254000Y-92636500D01*
G75*
G02*
X122104000Y-92486500I0J150000D01*
G01*
X122104000Y-90836500D01*
G75*
G02*
X122254000Y-90686500I150000J0D01*
G01*
X122554000Y-90686500D01*
G75*
G02*
X122704000Y-90836500I0J-150000D01*
G01*
X122704000Y-92486500D01*
G75*
G02*
X122554000Y-92636500I-150000J0D01*
G01*
G37*
G36*
G01*
X123824000Y-92636500D02*
X123524000Y-92636500D01*
G75*
G02*
X123374000Y-92486500I0J150000D01*
G01*
X123374000Y-90836500D01*
G75*
G02*
X123524000Y-90686500I150000J0D01*
G01*
X123824000Y-90686500D01*
G75*
G02*
X123974000Y-90836500I0J-150000D01*
G01*
X123974000Y-92486500D01*
G75*
G02*
X123824000Y-92636500I-150000J0D01*
G01*
G37*
G36*
G01*
X125094000Y-92636500D02*
X124794000Y-92636500D01*
G75*
G02*
X124644000Y-92486500I0J150000D01*
G01*
X124644000Y-90836500D01*
G75*
G02*
X124794000Y-90686500I150000J0D01*
G01*
X125094000Y-90686500D01*
G75*
G02*
X125244000Y-90836500I0J-150000D01*
G01*
X125244000Y-92486500D01*
G75*
G02*
X125094000Y-92636500I-150000J0D01*
G01*
G37*
G36*
G01*
X126364000Y-92636500D02*
X126064000Y-92636500D01*
G75*
G02*
X125914000Y-92486500I0J150000D01*
G01*
X125914000Y-90836500D01*
G75*
G02*
X126064000Y-90686500I150000J0D01*
G01*
X126364000Y-90686500D01*
G75*
G02*
X126514000Y-90836500I0J-150000D01*
G01*
X126514000Y-92486500D01*
G75*
G02*
X126364000Y-92636500I-150000J0D01*
G01*
G37*
G36*
G01*
X126364000Y-97586500D02*
X126064000Y-97586500D01*
G75*
G02*
X125914000Y-97436500I0J150000D01*
G01*
X125914000Y-95786500D01*
G75*
G02*
X126064000Y-95636500I150000J0D01*
G01*
X126364000Y-95636500D01*
G75*
G02*
X126514000Y-95786500I0J-150000D01*
G01*
X126514000Y-97436500D01*
G75*
G02*
X126364000Y-97586500I-150000J0D01*
G01*
G37*
G36*
G01*
X125094000Y-97586500D02*
X124794000Y-97586500D01*
G75*
G02*
X124644000Y-97436500I0J150000D01*
G01*
X124644000Y-95786500D01*
G75*
G02*
X124794000Y-95636500I150000J0D01*
G01*
X125094000Y-95636500D01*
G75*
G02*
X125244000Y-95786500I0J-150000D01*
G01*
X125244000Y-97436500D01*
G75*
G02*
X125094000Y-97586500I-150000J0D01*
G01*
G37*
G36*
G01*
X123824000Y-97586500D02*
X123524000Y-97586500D01*
G75*
G02*
X123374000Y-97436500I0J150000D01*
G01*
X123374000Y-95786500D01*
G75*
G02*
X123524000Y-95636500I150000J0D01*
G01*
X123824000Y-95636500D01*
G75*
G02*
X123974000Y-95786500I0J-150000D01*
G01*
X123974000Y-97436500D01*
G75*
G02*
X123824000Y-97586500I-150000J0D01*
G01*
G37*
G36*
G01*
X122554000Y-97586500D02*
X122254000Y-97586500D01*
G75*
G02*
X122104000Y-97436500I0J150000D01*
G01*
X122104000Y-95786500D01*
G75*
G02*
X122254000Y-95636500I150000J0D01*
G01*
X122554000Y-95636500D01*
G75*
G02*
X122704000Y-95786500I0J-150000D01*
G01*
X122704000Y-97436500D01*
G75*
G02*
X122554000Y-97586500I-150000J0D01*
G01*
G37*
D36*
X136157000Y-106900500D03*
X136157000Y-107550500D03*
X136157000Y-108200500D03*
X136157000Y-108850500D03*
X136157000Y-109500500D03*
X136157000Y-110150500D03*
X136157000Y-110800500D03*
X136157000Y-111450500D03*
X142057000Y-111450500D03*
X142057000Y-110800500D03*
X142057000Y-110150500D03*
X142057000Y-109500500D03*
X142057000Y-108850500D03*
X142057000Y-108200500D03*
X142057000Y-107550500D03*
X142057000Y-106900500D03*
G36*
G01*
X116817000Y-106405000D02*
X117117000Y-106405000D01*
G75*
G02*
X117267000Y-106555000I0J-150000D01*
G01*
X117267000Y-108205000D01*
G75*
G02*
X117117000Y-108355000I-150000J0D01*
G01*
X116817000Y-108355000D01*
G75*
G02*
X116667000Y-108205000I0J150000D01*
G01*
X116667000Y-106555000D01*
G75*
G02*
X116817000Y-106405000I150000J0D01*
G01*
G37*
G36*
G01*
X115547000Y-106405000D02*
X115847000Y-106405000D01*
G75*
G02*
X115997000Y-106555000I0J-150000D01*
G01*
X115997000Y-108205000D01*
G75*
G02*
X115847000Y-108355000I-150000J0D01*
G01*
X115547000Y-108355000D01*
G75*
G02*
X115397000Y-108205000I0J150000D01*
G01*
X115397000Y-106555000D01*
G75*
G02*
X115547000Y-106405000I150000J0D01*
G01*
G37*
G36*
G01*
X114277000Y-106405000D02*
X114577000Y-106405000D01*
G75*
G02*
X114727000Y-106555000I0J-150000D01*
G01*
X114727000Y-108205000D01*
G75*
G02*
X114577000Y-108355000I-150000J0D01*
G01*
X114277000Y-108355000D01*
G75*
G02*
X114127000Y-108205000I0J150000D01*
G01*
X114127000Y-106555000D01*
G75*
G02*
X114277000Y-106405000I150000J0D01*
G01*
G37*
G36*
G01*
X113007000Y-106405000D02*
X113307000Y-106405000D01*
G75*
G02*
X113457000Y-106555000I0J-150000D01*
G01*
X113457000Y-108205000D01*
G75*
G02*
X113307000Y-108355000I-150000J0D01*
G01*
X113007000Y-108355000D01*
G75*
G02*
X112857000Y-108205000I0J150000D01*
G01*
X112857000Y-106555000D01*
G75*
G02*
X113007000Y-106405000I150000J0D01*
G01*
G37*
G36*
G01*
X111737000Y-106405000D02*
X112037000Y-106405000D01*
G75*
G02*
X112187000Y-106555000I0J-150000D01*
G01*
X112187000Y-108205000D01*
G75*
G02*
X112037000Y-108355000I-150000J0D01*
G01*
X111737000Y-108355000D01*
G75*
G02*
X111587000Y-108205000I0J150000D01*
G01*
X111587000Y-106555000D01*
G75*
G02*
X111737000Y-106405000I150000J0D01*
G01*
G37*
G36*
G01*
X110467000Y-106405000D02*
X110767000Y-106405000D01*
G75*
G02*
X110917000Y-106555000I0J-150000D01*
G01*
X110917000Y-108205000D01*
G75*
G02*
X110767000Y-108355000I-150000J0D01*
G01*
X110467000Y-108355000D01*
G75*
G02*
X110317000Y-108205000I0J150000D01*
G01*
X110317000Y-106555000D01*
G75*
G02*
X110467000Y-106405000I150000J0D01*
G01*
G37*
G36*
G01*
X109197000Y-106405000D02*
X109497000Y-106405000D01*
G75*
G02*
X109647000Y-106555000I0J-150000D01*
G01*
X109647000Y-108205000D01*
G75*
G02*
X109497000Y-108355000I-150000J0D01*
G01*
X109197000Y-108355000D01*
G75*
G02*
X109047000Y-108205000I0J150000D01*
G01*
X109047000Y-106555000D01*
G75*
G02*
X109197000Y-106405000I150000J0D01*
G01*
G37*
G36*
G01*
X109197000Y-111355000D02*
X109497000Y-111355000D01*
G75*
G02*
X109647000Y-111505000I0J-150000D01*
G01*
X109647000Y-113155000D01*
G75*
G02*
X109497000Y-113305000I-150000J0D01*
G01*
X109197000Y-113305000D01*
G75*
G02*
X109047000Y-113155000I0J150000D01*
G01*
X109047000Y-111505000D01*
G75*
G02*
X109197000Y-111355000I150000J0D01*
G01*
G37*
G36*
G01*
X110467000Y-111355000D02*
X110767000Y-111355000D01*
G75*
G02*
X110917000Y-111505000I0J-150000D01*
G01*
X110917000Y-113155000D01*
G75*
G02*
X110767000Y-113305000I-150000J0D01*
G01*
X110467000Y-113305000D01*
G75*
G02*
X110317000Y-113155000I0J150000D01*
G01*
X110317000Y-111505000D01*
G75*
G02*
X110467000Y-111355000I150000J0D01*
G01*
G37*
G36*
G01*
X111737000Y-111355000D02*
X112037000Y-111355000D01*
G75*
G02*
X112187000Y-111505000I0J-150000D01*
G01*
X112187000Y-113155000D01*
G75*
G02*
X112037000Y-113305000I-150000J0D01*
G01*
X111737000Y-113305000D01*
G75*
G02*
X111587000Y-113155000I0J150000D01*
G01*
X111587000Y-111505000D01*
G75*
G02*
X111737000Y-111355000I150000J0D01*
G01*
G37*
G36*
G01*
X113007000Y-111355000D02*
X113307000Y-111355000D01*
G75*
G02*
X113457000Y-111505000I0J-150000D01*
G01*
X113457000Y-113155000D01*
G75*
G02*
X113307000Y-113305000I-150000J0D01*
G01*
X113007000Y-113305000D01*
G75*
G02*
X112857000Y-113155000I0J150000D01*
G01*
X112857000Y-111505000D01*
G75*
G02*
X113007000Y-111355000I150000J0D01*
G01*
G37*
G36*
G01*
X114277000Y-111355000D02*
X114577000Y-111355000D01*
G75*
G02*
X114727000Y-111505000I0J-150000D01*
G01*
X114727000Y-113155000D01*
G75*
G02*
X114577000Y-113305000I-150000J0D01*
G01*
X114277000Y-113305000D01*
G75*
G02*
X114127000Y-113155000I0J150000D01*
G01*
X114127000Y-111505000D01*
G75*
G02*
X114277000Y-111355000I150000J0D01*
G01*
G37*
G36*
G01*
X115547000Y-111355000D02*
X115847000Y-111355000D01*
G75*
G02*
X115997000Y-111505000I0J-150000D01*
G01*
X115997000Y-113155000D01*
G75*
G02*
X115847000Y-113305000I-150000J0D01*
G01*
X115547000Y-113305000D01*
G75*
G02*
X115397000Y-113155000I0J150000D01*
G01*
X115397000Y-111505000D01*
G75*
G02*
X115547000Y-111355000I150000J0D01*
G01*
G37*
G36*
G01*
X116817000Y-111355000D02*
X117117000Y-111355000D01*
G75*
G02*
X117267000Y-111505000I0J-150000D01*
G01*
X117267000Y-113155000D01*
G75*
G02*
X117117000Y-113305000I-150000J0D01*
G01*
X116817000Y-113305000D01*
G75*
G02*
X116667000Y-113155000I0J150000D01*
G01*
X116667000Y-111505000D01*
G75*
G02*
X116817000Y-111355000I150000J0D01*
G01*
G37*
G36*
G01*
X106823500Y-78532500D02*
X107298500Y-78532500D01*
G75*
G02*
X107536000Y-78770000I0J-237500D01*
G01*
X107536000Y-79345000D01*
G75*
G02*
X107298500Y-79582500I-237500J0D01*
G01*
X106823500Y-79582500D01*
G75*
G02*
X106586000Y-79345000I0J237500D01*
G01*
X106586000Y-78770000D01*
G75*
G02*
X106823500Y-78532500I237500J0D01*
G01*
G37*
G36*
G01*
X106823500Y-76782500D02*
X107298500Y-76782500D01*
G75*
G02*
X107536000Y-77020000I0J-237500D01*
G01*
X107536000Y-77595000D01*
G75*
G02*
X107298500Y-77832500I-237500J0D01*
G01*
X106823500Y-77832500D01*
G75*
G02*
X106586000Y-77595000I0J237500D01*
G01*
X106586000Y-77020000D01*
G75*
G02*
X106823500Y-76782500I237500J0D01*
G01*
G37*
G36*
G01*
X91282000Y-79041000D02*
X91282000Y-78566000D01*
G75*
G02*
X91519500Y-78328500I237500J0D01*
G01*
X92094500Y-78328500D01*
G75*
G02*
X92332000Y-78566000I0J-237500D01*
G01*
X92332000Y-79041000D01*
G75*
G02*
X92094500Y-79278500I-237500J0D01*
G01*
X91519500Y-79278500D01*
G75*
G02*
X91282000Y-79041000I0J237500D01*
G01*
G37*
G36*
G01*
X89532000Y-79041000D02*
X89532000Y-78566000D01*
G75*
G02*
X89769500Y-78328500I237500J0D01*
G01*
X90344500Y-78328500D01*
G75*
G02*
X90582000Y-78566000I0J-237500D01*
G01*
X90582000Y-79041000D01*
G75*
G02*
X90344500Y-79278500I-237500J0D01*
G01*
X89769500Y-79278500D01*
G75*
G02*
X89532000Y-79041000I0J237500D01*
G01*
G37*
G36*
G01*
X89913000Y-70405000D02*
X89913000Y-69930000D01*
G75*
G02*
X90150500Y-69692500I237500J0D01*
G01*
X90725500Y-69692500D01*
G75*
G02*
X90963000Y-69930000I0J-237500D01*
G01*
X90963000Y-70405000D01*
G75*
G02*
X90725500Y-70642500I-237500J0D01*
G01*
X90150500Y-70642500D01*
G75*
G02*
X89913000Y-70405000I0J237500D01*
G01*
G37*
G36*
G01*
X91663000Y-70405000D02*
X91663000Y-69930000D01*
G75*
G02*
X91900500Y-69692500I237500J0D01*
G01*
X92475500Y-69692500D01*
G75*
G02*
X92713000Y-69930000I0J-237500D01*
G01*
X92713000Y-70405000D01*
G75*
G02*
X92475500Y-70642500I-237500J0D01*
G01*
X91900500Y-70642500D01*
G75*
G02*
X91663000Y-70405000I0J237500D01*
G01*
G37*
G36*
G01*
X70897000Y-90885000D02*
X70897000Y-91360000D01*
G75*
G02*
X70659500Y-91597500I-237500J0D01*
G01*
X70084500Y-91597500D01*
G75*
G02*
X69847000Y-91360000I0J237500D01*
G01*
X69847000Y-90885000D01*
G75*
G02*
X70084500Y-90647500I237500J0D01*
G01*
X70659500Y-90647500D01*
G75*
G02*
X70897000Y-90885000I0J-237500D01*
G01*
G37*
G36*
G01*
X72647000Y-90885000D02*
X72647000Y-91360000D01*
G75*
G02*
X72409500Y-91597500I-237500J0D01*
G01*
X71834500Y-91597500D01*
G75*
G02*
X71597000Y-91360000I0J237500D01*
G01*
X71597000Y-90885000D01*
G75*
G02*
X71834500Y-90647500I237500J0D01*
G01*
X72409500Y-90647500D01*
G75*
G02*
X72647000Y-90885000I0J-237500D01*
G01*
G37*
G36*
G01*
X169937999Y-78237500D02*
X172088001Y-78237500D01*
G75*
G02*
X172338000Y-78487499I0J-249999D01*
G01*
X172338000Y-79512501D01*
G75*
G02*
X172088001Y-79762500I-249999J0D01*
G01*
X169937999Y-79762500D01*
G75*
G02*
X169688000Y-79512501I0J249999D01*
G01*
X169688000Y-78487499D01*
G75*
G02*
X169937999Y-78237500I249999J0D01*
G01*
G37*
G36*
G01*
X169937999Y-73562500D02*
X172088001Y-73562500D01*
G75*
G02*
X172338000Y-73812499I0J-249999D01*
G01*
X172338000Y-74837501D01*
G75*
G02*
X172088001Y-75087500I-249999J0D01*
G01*
X169937999Y-75087500D01*
G75*
G02*
X169688000Y-74837501I0J249999D01*
G01*
X169688000Y-73812499D01*
G75*
G02*
X169937999Y-73562500I249999J0D01*
G01*
G37*
G36*
G01*
X184725999Y-71488500D02*
X186876001Y-71488500D01*
G75*
G02*
X187126000Y-71738499I0J-249999D01*
G01*
X187126000Y-72763501D01*
G75*
G02*
X186876001Y-73013500I-249999J0D01*
G01*
X184725999Y-73013500D01*
G75*
G02*
X184476000Y-72763501I0J249999D01*
G01*
X184476000Y-71738499D01*
G75*
G02*
X184725999Y-71488500I249999J0D01*
G01*
G37*
G36*
G01*
X184725999Y-66813500D02*
X186876001Y-66813500D01*
G75*
G02*
X187126000Y-67063499I0J-249999D01*
G01*
X187126000Y-68088501D01*
G75*
G02*
X186876001Y-68338500I-249999J0D01*
G01*
X184725999Y-68338500D01*
G75*
G02*
X184476000Y-68088501I0J249999D01*
G01*
X184476000Y-67063499D01*
G75*
G02*
X184725999Y-66813500I249999J0D01*
G01*
G37*
G36*
G01*
X98492999Y-57518500D02*
X100643001Y-57518500D01*
G75*
G02*
X100893000Y-57768499I0J-249999D01*
G01*
X100893000Y-58793501D01*
G75*
G02*
X100643001Y-59043500I-249999J0D01*
G01*
X98492999Y-59043500D01*
G75*
G02*
X98243000Y-58793501I0J249999D01*
G01*
X98243000Y-57768499D01*
G75*
G02*
X98492999Y-57518500I249999J0D01*
G01*
G37*
G36*
G01*
X98492999Y-52843500D02*
X100643001Y-52843500D01*
G75*
G02*
X100893000Y-53093499I0J-249999D01*
G01*
X100893000Y-54118501D01*
G75*
G02*
X100643001Y-54368500I-249999J0D01*
G01*
X98492999Y-54368500D01*
G75*
G02*
X98243000Y-54118501I0J249999D01*
G01*
X98243000Y-53093499D01*
G75*
G02*
X98492999Y-52843500I249999J0D01*
G01*
G37*
G36*
G01*
X85221499Y-62039000D02*
X87371501Y-62039000D01*
G75*
G02*
X87621500Y-62288999I0J-249999D01*
G01*
X87621500Y-63314001D01*
G75*
G02*
X87371501Y-63564000I-249999J0D01*
G01*
X85221499Y-63564000D01*
G75*
G02*
X84971500Y-63314001I0J249999D01*
G01*
X84971500Y-62288999D01*
G75*
G02*
X85221499Y-62039000I249999J0D01*
G01*
G37*
G36*
G01*
X85221499Y-57364000D02*
X87371501Y-57364000D01*
G75*
G02*
X87621500Y-57613999I0J-249999D01*
G01*
X87621500Y-58639001D01*
G75*
G02*
X87371501Y-58889000I-249999J0D01*
G01*
X85221499Y-58889000D01*
G75*
G02*
X84971500Y-58639001I0J249999D01*
G01*
X84971500Y-57613999D01*
G75*
G02*
X85221499Y-57364000I249999J0D01*
G01*
G37*
G36*
G01*
X129108000Y-76585499D02*
X129108000Y-78735501D01*
G75*
G02*
X128858001Y-78985500I-249999J0D01*
G01*
X127832999Y-78985500D01*
G75*
G02*
X127583000Y-78735501I0J249999D01*
G01*
X127583000Y-76585499D01*
G75*
G02*
X127832999Y-76335500I249999J0D01*
G01*
X128858001Y-76335500D01*
G75*
G02*
X129108000Y-76585499I0J-249999D01*
G01*
G37*
G36*
G01*
X133783000Y-76585499D02*
X133783000Y-78735501D01*
G75*
G02*
X133533001Y-78985500I-249999J0D01*
G01*
X132507999Y-78985500D01*
G75*
G02*
X132258000Y-78735501I0J249999D01*
G01*
X132258000Y-76585499D01*
G75*
G02*
X132507999Y-76335500I249999J0D01*
G01*
X133533001Y-76335500D01*
G75*
G02*
X133783000Y-76585499I0J-249999D01*
G01*
G37*
D37*
X192976500Y-72390000D03*
X195516500Y-72390000D03*
X88392000Y-107632500D03*
X88392000Y-105092500D03*
X160093000Y-84752500D03*
X160093000Y-82212500D03*
X117059000Y-87376500D03*
X117059000Y-84836500D03*
X148843000Y-111482500D03*
X146303000Y-111482500D03*
X129159000Y-111125000D03*
X131699000Y-111125000D03*
G36*
G01*
X160473000Y-97752500D02*
X162073000Y-97752500D01*
G75*
G02*
X162323000Y-98002500I0J-250000D01*
G01*
X162323000Y-102102500D01*
G75*
G02*
X162073000Y-102352500I-250000J0D01*
G01*
X160473000Y-102352500D01*
G75*
G02*
X160223000Y-102102500I0J250000D01*
G01*
X160223000Y-98002500D01*
G75*
G02*
X160473000Y-97752500I250000J0D01*
G01*
G37*
G36*
G01*
X160473000Y-88952500D02*
X162073000Y-88952500D01*
G75*
G02*
X162323000Y-89202500I0J-250000D01*
G01*
X162323000Y-93302500D01*
G75*
G02*
X162073000Y-93552500I-250000J0D01*
G01*
X160473000Y-93552500D01*
G75*
G02*
X160223000Y-93302500I0J250000D01*
G01*
X160223000Y-89202500D01*
G75*
G02*
X160473000Y-88952500I250000J0D01*
G01*
G37*
G36*
G01*
X151478000Y-88470000D02*
X151478000Y-87995000D01*
G75*
G02*
X151715500Y-87757500I237500J0D01*
G01*
X152290500Y-87757500D01*
G75*
G02*
X152528000Y-87995000I0J-237500D01*
G01*
X152528000Y-88470000D01*
G75*
G02*
X152290500Y-88707500I-237500J0D01*
G01*
X151715500Y-88707500D01*
G75*
G02*
X151478000Y-88470000I0J237500D01*
G01*
G37*
G36*
G01*
X149728000Y-88470000D02*
X149728000Y-87995000D01*
G75*
G02*
X149965500Y-87757500I237500J0D01*
G01*
X150540500Y-87757500D01*
G75*
G02*
X150778000Y-87995000I0J-237500D01*
G01*
X150778000Y-88470000D01*
G75*
G02*
X150540500Y-88707500I-237500J0D01*
G01*
X149965500Y-88707500D01*
G75*
G02*
X149728000Y-88470000I0J237500D01*
G01*
G37*
G36*
G01*
X154927500Y-72068001D02*
X154927500Y-69917999D01*
G75*
G02*
X155177499Y-69668000I249999J0D01*
G01*
X156202501Y-69668000D01*
G75*
G02*
X156452500Y-69917999I0J-249999D01*
G01*
X156452500Y-72068001D01*
G75*
G02*
X156202501Y-72318000I-249999J0D01*
G01*
X155177499Y-72318000D01*
G75*
G02*
X154927500Y-72068001I0J249999D01*
G01*
G37*
G36*
G01*
X150252500Y-72068001D02*
X150252500Y-69917999D01*
G75*
G02*
X150502499Y-69668000I249999J0D01*
G01*
X151527501Y-69668000D01*
G75*
G02*
X151777500Y-69917999I0J-249999D01*
G01*
X151777500Y-72068001D01*
G75*
G02*
X151527501Y-72318000I-249999J0D01*
G01*
X150502499Y-72318000D01*
G75*
G02*
X150252500Y-72068001I0J249999D01*
G01*
G37*
G36*
G01*
X172690500Y-95057500D02*
X172215500Y-95057500D01*
G75*
G02*
X171978000Y-94820000I0J237500D01*
G01*
X171978000Y-94245000D01*
G75*
G02*
X172215500Y-94007500I237500J0D01*
G01*
X172690500Y-94007500D01*
G75*
G02*
X172928000Y-94245000I0J-237500D01*
G01*
X172928000Y-94820000D01*
G75*
G02*
X172690500Y-95057500I-237500J0D01*
G01*
G37*
G36*
G01*
X172690500Y-93307500D02*
X172215500Y-93307500D01*
G75*
G02*
X171978000Y-93070000I0J237500D01*
G01*
X171978000Y-92495000D01*
G75*
G02*
X172215500Y-92257500I237500J0D01*
G01*
X172690500Y-92257500D01*
G75*
G02*
X172928000Y-92495000I0J-237500D01*
G01*
X172928000Y-93070000D01*
G75*
G02*
X172690500Y-93307500I-237500J0D01*
G01*
G37*
G36*
G01*
X173785500Y-90637500D02*
X174260500Y-90637500D01*
G75*
G02*
X174498000Y-90875000I0J-237500D01*
G01*
X174498000Y-91450000D01*
G75*
G02*
X174260500Y-91687500I-237500J0D01*
G01*
X173785500Y-91687500D01*
G75*
G02*
X173548000Y-91450000I0J237500D01*
G01*
X173548000Y-90875000D01*
G75*
G02*
X173785500Y-90637500I237500J0D01*
G01*
G37*
G36*
G01*
X173785500Y-88887500D02*
X174260500Y-88887500D01*
G75*
G02*
X174498000Y-89125000I0J-237500D01*
G01*
X174498000Y-89700000D01*
G75*
G02*
X174260500Y-89937500I-237500J0D01*
G01*
X173785500Y-89937500D01*
G75*
G02*
X173548000Y-89700000I0J237500D01*
G01*
X173548000Y-89125000D01*
G75*
G02*
X173785500Y-88887500I237500J0D01*
G01*
G37*
D38*
X104013000Y-69977000D03*
D39*
X92900500Y-68961000D03*
X91630500Y-68580000D03*
X94869000Y-60134500D03*
D38*
X143891000Y-107188000D03*
D39*
X91249500Y-60071000D03*
X97142300Y-58808620D03*
D38*
X131445000Y-87058500D03*
D39*
X89352120Y-65211960D03*
D38*
X127381000Y-91567000D03*
D40*
X141224000Y-82550000D03*
X191135000Y-87757000D03*
X105727500Y-82994500D03*
X100012500Y-84201000D03*
X80200500Y-100965000D03*
X73152000Y-93535500D03*
X117838490Y-113605010D03*
X137477500Y-97853500D03*
X141668500Y-97917000D03*
X156781500Y-84264500D03*
X155384500Y-80518000D03*
X166370000Y-78232000D03*
X168973500Y-82423000D03*
X166814500Y-91313000D03*
X161544000Y-86042500D03*
X138811000Y-82550000D03*
X104457500Y-84010500D03*
D39*
X92641420Y-63025020D03*
D40*
X158623000Y-75946000D03*
X178943000Y-69278500D03*
X105854500Y-78549500D03*
X161671000Y-75946000D03*
X191071500Y-81661000D03*
X80073500Y-98107500D03*
X186372500Y-92837000D03*
X141605000Y-95758000D03*
X108839000Y-109156500D03*
X95440500Y-80137000D03*
X97472500Y-81026000D03*
X173736000Y-93789500D03*
X168846500Y-80645000D03*
X115189000Y-114300000D03*
X112649000Y-114173000D03*
X105918000Y-80454500D03*
X77787500Y-97980500D03*
X126624080Y-105351580D03*
X147066000Y-90678000D03*
X160401000Y-88011000D03*
X193611500Y-69469000D03*
X151701500Y-84010500D03*
X180594000Y-65659000D03*
X131000500Y-105283000D03*
X184531000Y-59753500D03*
X192341500Y-65659000D03*
X183578500Y-72072500D03*
X177038000Y-61912500D03*
X190373000Y-56070500D03*
X137350500Y-95694500D03*
X195961000Y-56070500D03*
X102997000Y-79883000D03*
X80073500Y-95250000D03*
X110617000Y-105727500D03*
X147447000Y-83883500D03*
X80073500Y-102743000D03*
X175133000Y-88265000D03*
X176212500Y-86868000D03*
X176466500Y-92900500D03*
X181737000Y-88138000D03*
X155384500Y-77470000D03*
X200533000Y-81280000D03*
X197358000Y-78105000D03*
X98933000Y-67183000D03*
X116840000Y-95250000D03*
X199326500Y-59372500D03*
X135763000Y-112649000D03*
X101790500Y-116078000D03*
X163195000Y-90678000D03*
X200406000Y-72453500D03*
X81978500Y-95567500D03*
X110617000Y-110871000D03*
X85979000Y-107950000D03*
X76263500Y-89344500D03*
X99631500Y-80899000D03*
X74612500Y-84391500D03*
X77089000Y-104584500D03*
X78867000Y-89344500D03*
X169418000Y-120015000D03*
X174053500Y-121285000D03*
X171704000Y-106616500D03*
X90043000Y-87312500D03*
X103886000Y-62992000D03*
X197358000Y-65976500D03*
X161544000Y-94424500D03*
X109062520Y-58049160D03*
X81978500Y-97536000D03*
X184658000Y-92075000D03*
X101854000Y-67437000D03*
X189357000Y-87503000D03*
X188805820Y-81465420D03*
X111252000Y-100711000D03*
X184658000Y-88773000D03*
X179506880Y-84013040D03*
X105156000Y-106807000D03*
X85915500Y-85598000D03*
X103759000Y-67183000D03*
X106299000Y-61595000D03*
X175691800Y-82722720D03*
X155702000Y-68199000D03*
X88519000Y-116014500D03*
X155448000Y-73914000D03*
X97409000Y-65278000D03*
X108902500Y-103187500D03*
X158496000Y-74295000D03*
X164592000Y-74295000D03*
X177927000Y-112395000D03*
X168849040Y-77739240D03*
X179006500Y-121348500D03*
X94043500Y-90360500D03*
X86233000Y-83439000D03*
X100139500Y-89090500D03*
X128079500Y-95694500D03*
X169545000Y-115443000D03*
X178054000Y-117856000D03*
X119380000Y-92646500D03*
X131572000Y-116586000D03*
X130937000Y-94805500D03*
X160464500Y-103378000D03*
X82613500Y-104584500D03*
X169545000Y-112268000D03*
X124333000Y-94805500D03*
X114173000Y-97917000D03*
X153733500Y-94361000D03*
X163703000Y-103314500D03*
X138684000Y-109347000D03*
X101854000Y-64897000D03*
X144780000Y-103124000D03*
X165227000Y-54610000D03*
X124841000Y-55245000D03*
X161798000Y-62484000D03*
D38*
X88646000Y-70866000D03*
D40*
X103632000Y-120777000D03*
X123698000Y-51435000D03*
X108742480Y-51643280D03*
X116586000Y-110363000D03*
D38*
X153670000Y-108585000D03*
D40*
X173228000Y-74676000D03*
X167005000Y-64897000D03*
X114731800Y-54711600D03*
D38*
X131064000Y-69215000D03*
X138430000Y-69342000D03*
D40*
X174752000Y-73279000D03*
X160401000Y-55372000D03*
X119634000Y-51435000D03*
X133350000Y-102616000D03*
X108331000Y-114554000D03*
D38*
X128270000Y-66294000D03*
D40*
X176022000Y-89916000D03*
X140970000Y-117348000D03*
D38*
X134112000Y-64262000D03*
D40*
X141754860Y-91257120D03*
X165735000Y-51054000D03*
X141696440Y-88356440D03*
X147447000Y-95250000D03*
X128813560Y-53835300D03*
D38*
X137243820Y-89258140D03*
D40*
X119507000Y-55245000D03*
D38*
X106553000Y-69215000D03*
D40*
X113344960Y-110329980D03*
D39*
X148127720Y-98511360D03*
D40*
X178816000Y-86995000D03*
D39*
X151828500Y-100741480D03*
X152829260Y-105062020D03*
X159067500Y-105062020D03*
X154978100Y-101201220D03*
X152473660Y-98071940D03*
D40*
X160401000Y-50927000D03*
X73533000Y-100076000D03*
X179705000Y-92202000D03*
D38*
X144272000Y-109601000D03*
D39*
X115943380Y-105554780D03*
D38*
X171323000Y-109347000D03*
D40*
X161798000Y-66294000D03*
D38*
X85344000Y-71501000D03*
D39*
X87391240Y-64312800D03*
D19*
X79121000Y-68359500D03*
D39*
X114655600Y-105796080D03*
D40*
X168233732Y-91373255D03*
D38*
X127063488Y-96563503D03*
X128802140Y-101362500D03*
D40*
X151892000Y-94176150D03*
D38*
X137577150Y-108806185D03*
D39*
X97435991Y-61023500D03*
X86561524Y-89585478D03*
X99568000Y-59563000D03*
X99123500Y-86423500D03*
D19*
X89471500Y-52641500D03*
D39*
X113855500Y-84455000D03*
D38*
X127972820Y-103675180D03*
D40*
X157520640Y-63891160D03*
D38*
X181483000Y-112839500D03*
X151193500Y-99187000D03*
D19*
X147701000Y-57340500D03*
D38*
X134282180Y-109420660D03*
D39*
X102987488Y-67954498D03*
D38*
X139942852Y-109239717D03*
D19*
X109156500Y-76327000D03*
D39*
X82423000Y-69723000D03*
D38*
X102854760Y-60924440D03*
D39*
X75819000Y-85661500D03*
X137350500Y-106406151D03*
D38*
X133921500Y-87185500D03*
D39*
X92627601Y-66700488D03*
X101346000Y-79756000D03*
D40*
X154913917Y-66510583D03*
X187007500Y-80391000D03*
D39*
X101092000Y-68154510D03*
D38*
X120857562Y-91548500D03*
D39*
X77152500Y-112712500D03*
D38*
X140716000Y-106870500D03*
X113157000Y-108902500D03*
D40*
X157099000Y-71056500D03*
D38*
X133720840Y-110817660D03*
D40*
X170243500Y-90360562D03*
D39*
X94996000Y-65853990D03*
X83121500Y-73596500D03*
D38*
X129451100Y-55392322D03*
D39*
X95585280Y-64041018D03*
X95250000Y-54864000D03*
D40*
X160528000Y-62357000D03*
D38*
X131884420Y-93842840D03*
D40*
X96918780Y-69032120D03*
D39*
X88519000Y-66294000D03*
D40*
X145161000Y-86296500D03*
D19*
X136080500Y-77597000D03*
D40*
X191567000Y-46990000D03*
X181567000Y-46990000D03*
X171567000Y-46990000D03*
X161567000Y-46990000D03*
X151567000Y-46990000D03*
X141567000Y-46990000D03*
X131567000Y-46990000D03*
X121567000Y-46990000D03*
X111567000Y-46990000D03*
X101567000Y-46990000D03*
X131567000Y-46990000D03*
X121567000Y-46990000D03*
X111567000Y-46990000D03*
X101567000Y-46990000D03*
X91567000Y-46990000D03*
M02*
