G04 #@! TF.GenerationSoftware,KiCad,Pcbnew,(5.1.4)-1*
G04 #@! TF.CreationDate,2020-01-15T13:51:39-05:00*
G04 #@! TF.ProjectId,AAMB,41414d42-2e6b-4696-9361-645f70636258,rev?*
G04 #@! TF.SameCoordinates,Original*
G04 #@! TF.FileFunction,Paste,Top*
G04 #@! TF.FilePolarity,Positive*
%FSLAX46Y46*%
G04 Gerber Fmt 4.6, Leading zero omitted, Abs format (unit mm)*
G04 Created by KiCad (PCBNEW (5.1.4)-1) date 2020-01-15 13:51:39*
%MOMM*%
%LPD*%
G04 APERTURE LIST*
%ADD10C,0.100000*%
%ADD11C,0.950000*%
G04 APERTURE END LIST*
D10*
G36*
X206127779Y-46437144D02*
G01*
X206150834Y-46440563D01*
X206173443Y-46446227D01*
X206195387Y-46454079D01*
X206216457Y-46464044D01*
X206236448Y-46476026D01*
X206255168Y-46489910D01*
X206272438Y-46505562D01*
X206288090Y-46522832D01*
X206301974Y-46541552D01*
X206313956Y-46561543D01*
X206323921Y-46582613D01*
X206331773Y-46604557D01*
X206337437Y-46627166D01*
X206340856Y-46650221D01*
X206342000Y-46673500D01*
X206342000Y-47248500D01*
X206340856Y-47271779D01*
X206337437Y-47294834D01*
X206331773Y-47317443D01*
X206323921Y-47339387D01*
X206313956Y-47360457D01*
X206301974Y-47380448D01*
X206288090Y-47399168D01*
X206272438Y-47416438D01*
X206255168Y-47432090D01*
X206236448Y-47445974D01*
X206216457Y-47457956D01*
X206195387Y-47467921D01*
X206173443Y-47475773D01*
X206150834Y-47481437D01*
X206127779Y-47484856D01*
X206104500Y-47486000D01*
X205629500Y-47486000D01*
X205606221Y-47484856D01*
X205583166Y-47481437D01*
X205560557Y-47475773D01*
X205538613Y-47467921D01*
X205517543Y-47457956D01*
X205497552Y-47445974D01*
X205478832Y-47432090D01*
X205461562Y-47416438D01*
X205445910Y-47399168D01*
X205432026Y-47380448D01*
X205420044Y-47360457D01*
X205410079Y-47339387D01*
X205402227Y-47317443D01*
X205396563Y-47294834D01*
X205393144Y-47271779D01*
X205392000Y-47248500D01*
X205392000Y-46673500D01*
X205393144Y-46650221D01*
X205396563Y-46627166D01*
X205402227Y-46604557D01*
X205410079Y-46582613D01*
X205420044Y-46561543D01*
X205432026Y-46541552D01*
X205445910Y-46522832D01*
X205461562Y-46505562D01*
X205478832Y-46489910D01*
X205497552Y-46476026D01*
X205517543Y-46464044D01*
X205538613Y-46454079D01*
X205560557Y-46446227D01*
X205583166Y-46440563D01*
X205606221Y-46437144D01*
X205629500Y-46436000D01*
X206104500Y-46436000D01*
X206127779Y-46437144D01*
X206127779Y-46437144D01*
G37*
D11*
X205867000Y-46961000D03*
D10*
G36*
X206127779Y-48187144D02*
G01*
X206150834Y-48190563D01*
X206173443Y-48196227D01*
X206195387Y-48204079D01*
X206216457Y-48214044D01*
X206236448Y-48226026D01*
X206255168Y-48239910D01*
X206272438Y-48255562D01*
X206288090Y-48272832D01*
X206301974Y-48291552D01*
X206313956Y-48311543D01*
X206323921Y-48332613D01*
X206331773Y-48354557D01*
X206337437Y-48377166D01*
X206340856Y-48400221D01*
X206342000Y-48423500D01*
X206342000Y-48998500D01*
X206340856Y-49021779D01*
X206337437Y-49044834D01*
X206331773Y-49067443D01*
X206323921Y-49089387D01*
X206313956Y-49110457D01*
X206301974Y-49130448D01*
X206288090Y-49149168D01*
X206272438Y-49166438D01*
X206255168Y-49182090D01*
X206236448Y-49195974D01*
X206216457Y-49207956D01*
X206195387Y-49217921D01*
X206173443Y-49225773D01*
X206150834Y-49231437D01*
X206127779Y-49234856D01*
X206104500Y-49236000D01*
X205629500Y-49236000D01*
X205606221Y-49234856D01*
X205583166Y-49231437D01*
X205560557Y-49225773D01*
X205538613Y-49217921D01*
X205517543Y-49207956D01*
X205497552Y-49195974D01*
X205478832Y-49182090D01*
X205461562Y-49166438D01*
X205445910Y-49149168D01*
X205432026Y-49130448D01*
X205420044Y-49110457D01*
X205410079Y-49089387D01*
X205402227Y-49067443D01*
X205396563Y-49044834D01*
X205393144Y-49021779D01*
X205392000Y-48998500D01*
X205392000Y-48423500D01*
X205393144Y-48400221D01*
X205396563Y-48377166D01*
X205402227Y-48354557D01*
X205410079Y-48332613D01*
X205420044Y-48311543D01*
X205432026Y-48291552D01*
X205445910Y-48272832D01*
X205461562Y-48255562D01*
X205478832Y-48239910D01*
X205497552Y-48226026D01*
X205517543Y-48214044D01*
X205538613Y-48204079D01*
X205560557Y-48196227D01*
X205583166Y-48190563D01*
X205606221Y-48187144D01*
X205629500Y-48186000D01*
X206104500Y-48186000D01*
X206127779Y-48187144D01*
X206127779Y-48187144D01*
G37*
D11*
X205867000Y-48711000D03*
D10*
G36*
X230801779Y-67598144D02*
G01*
X230824834Y-67601563D01*
X230847443Y-67607227D01*
X230869387Y-67615079D01*
X230890457Y-67625044D01*
X230910448Y-67637026D01*
X230929168Y-67650910D01*
X230946438Y-67666562D01*
X230962090Y-67683832D01*
X230975974Y-67702552D01*
X230987956Y-67722543D01*
X230997921Y-67743613D01*
X231005773Y-67765557D01*
X231011437Y-67788166D01*
X231014856Y-67811221D01*
X231016000Y-67834500D01*
X231016000Y-68309500D01*
X231014856Y-68332779D01*
X231011437Y-68355834D01*
X231005773Y-68378443D01*
X230997921Y-68400387D01*
X230987956Y-68421457D01*
X230975974Y-68441448D01*
X230962090Y-68460168D01*
X230946438Y-68477438D01*
X230929168Y-68493090D01*
X230910448Y-68506974D01*
X230890457Y-68518956D01*
X230869387Y-68528921D01*
X230847443Y-68536773D01*
X230824834Y-68542437D01*
X230801779Y-68545856D01*
X230778500Y-68547000D01*
X230203500Y-68547000D01*
X230180221Y-68545856D01*
X230157166Y-68542437D01*
X230134557Y-68536773D01*
X230112613Y-68528921D01*
X230091543Y-68518956D01*
X230071552Y-68506974D01*
X230052832Y-68493090D01*
X230035562Y-68477438D01*
X230019910Y-68460168D01*
X230006026Y-68441448D01*
X229994044Y-68421457D01*
X229984079Y-68400387D01*
X229976227Y-68378443D01*
X229970563Y-68355834D01*
X229967144Y-68332779D01*
X229966000Y-68309500D01*
X229966000Y-67834500D01*
X229967144Y-67811221D01*
X229970563Y-67788166D01*
X229976227Y-67765557D01*
X229984079Y-67743613D01*
X229994044Y-67722543D01*
X230006026Y-67702552D01*
X230019910Y-67683832D01*
X230035562Y-67666562D01*
X230052832Y-67650910D01*
X230071552Y-67637026D01*
X230091543Y-67625044D01*
X230112613Y-67615079D01*
X230134557Y-67607227D01*
X230157166Y-67601563D01*
X230180221Y-67598144D01*
X230203500Y-67597000D01*
X230778500Y-67597000D01*
X230801779Y-67598144D01*
X230801779Y-67598144D01*
G37*
D11*
X230491000Y-68072000D03*
D10*
G36*
X229051779Y-67598144D02*
G01*
X229074834Y-67601563D01*
X229097443Y-67607227D01*
X229119387Y-67615079D01*
X229140457Y-67625044D01*
X229160448Y-67637026D01*
X229179168Y-67650910D01*
X229196438Y-67666562D01*
X229212090Y-67683832D01*
X229225974Y-67702552D01*
X229237956Y-67722543D01*
X229247921Y-67743613D01*
X229255773Y-67765557D01*
X229261437Y-67788166D01*
X229264856Y-67811221D01*
X229266000Y-67834500D01*
X229266000Y-68309500D01*
X229264856Y-68332779D01*
X229261437Y-68355834D01*
X229255773Y-68378443D01*
X229247921Y-68400387D01*
X229237956Y-68421457D01*
X229225974Y-68441448D01*
X229212090Y-68460168D01*
X229196438Y-68477438D01*
X229179168Y-68493090D01*
X229160448Y-68506974D01*
X229140457Y-68518956D01*
X229119387Y-68528921D01*
X229097443Y-68536773D01*
X229074834Y-68542437D01*
X229051779Y-68545856D01*
X229028500Y-68547000D01*
X228453500Y-68547000D01*
X228430221Y-68545856D01*
X228407166Y-68542437D01*
X228384557Y-68536773D01*
X228362613Y-68528921D01*
X228341543Y-68518956D01*
X228321552Y-68506974D01*
X228302832Y-68493090D01*
X228285562Y-68477438D01*
X228269910Y-68460168D01*
X228256026Y-68441448D01*
X228244044Y-68421457D01*
X228234079Y-68400387D01*
X228226227Y-68378443D01*
X228220563Y-68355834D01*
X228217144Y-68332779D01*
X228216000Y-68309500D01*
X228216000Y-67834500D01*
X228217144Y-67811221D01*
X228220563Y-67788166D01*
X228226227Y-67765557D01*
X228234079Y-67743613D01*
X228244044Y-67722543D01*
X228256026Y-67702552D01*
X228269910Y-67683832D01*
X228285562Y-67666562D01*
X228302832Y-67650910D01*
X228321552Y-67637026D01*
X228341543Y-67625044D01*
X228362613Y-67615079D01*
X228384557Y-67607227D01*
X228407166Y-67601563D01*
X228430221Y-67598144D01*
X228453500Y-67597000D01*
X229028500Y-67597000D01*
X229051779Y-67598144D01*
X229051779Y-67598144D01*
G37*
D11*
X228741000Y-68072000D03*
D10*
G36*
X230758779Y-69122144D02*
G01*
X230781834Y-69125563D01*
X230804443Y-69131227D01*
X230826387Y-69139079D01*
X230847457Y-69149044D01*
X230867448Y-69161026D01*
X230886168Y-69174910D01*
X230903438Y-69190562D01*
X230919090Y-69207832D01*
X230932974Y-69226552D01*
X230944956Y-69246543D01*
X230954921Y-69267613D01*
X230962773Y-69289557D01*
X230968437Y-69312166D01*
X230971856Y-69335221D01*
X230973000Y-69358500D01*
X230973000Y-69833500D01*
X230971856Y-69856779D01*
X230968437Y-69879834D01*
X230962773Y-69902443D01*
X230954921Y-69924387D01*
X230944956Y-69945457D01*
X230932974Y-69965448D01*
X230919090Y-69984168D01*
X230903438Y-70001438D01*
X230886168Y-70017090D01*
X230867448Y-70030974D01*
X230847457Y-70042956D01*
X230826387Y-70052921D01*
X230804443Y-70060773D01*
X230781834Y-70066437D01*
X230758779Y-70069856D01*
X230735500Y-70071000D01*
X230160500Y-70071000D01*
X230137221Y-70069856D01*
X230114166Y-70066437D01*
X230091557Y-70060773D01*
X230069613Y-70052921D01*
X230048543Y-70042956D01*
X230028552Y-70030974D01*
X230009832Y-70017090D01*
X229992562Y-70001438D01*
X229976910Y-69984168D01*
X229963026Y-69965448D01*
X229951044Y-69945457D01*
X229941079Y-69924387D01*
X229933227Y-69902443D01*
X229927563Y-69879834D01*
X229924144Y-69856779D01*
X229923000Y-69833500D01*
X229923000Y-69358500D01*
X229924144Y-69335221D01*
X229927563Y-69312166D01*
X229933227Y-69289557D01*
X229941079Y-69267613D01*
X229951044Y-69246543D01*
X229963026Y-69226552D01*
X229976910Y-69207832D01*
X229992562Y-69190562D01*
X230009832Y-69174910D01*
X230028552Y-69161026D01*
X230048543Y-69149044D01*
X230069613Y-69139079D01*
X230091557Y-69131227D01*
X230114166Y-69125563D01*
X230137221Y-69122144D01*
X230160500Y-69121000D01*
X230735500Y-69121000D01*
X230758779Y-69122144D01*
X230758779Y-69122144D01*
G37*
D11*
X230448000Y-69596000D03*
D10*
G36*
X229008779Y-69122144D02*
G01*
X229031834Y-69125563D01*
X229054443Y-69131227D01*
X229076387Y-69139079D01*
X229097457Y-69149044D01*
X229117448Y-69161026D01*
X229136168Y-69174910D01*
X229153438Y-69190562D01*
X229169090Y-69207832D01*
X229182974Y-69226552D01*
X229194956Y-69246543D01*
X229204921Y-69267613D01*
X229212773Y-69289557D01*
X229218437Y-69312166D01*
X229221856Y-69335221D01*
X229223000Y-69358500D01*
X229223000Y-69833500D01*
X229221856Y-69856779D01*
X229218437Y-69879834D01*
X229212773Y-69902443D01*
X229204921Y-69924387D01*
X229194956Y-69945457D01*
X229182974Y-69965448D01*
X229169090Y-69984168D01*
X229153438Y-70001438D01*
X229136168Y-70017090D01*
X229117448Y-70030974D01*
X229097457Y-70042956D01*
X229076387Y-70052921D01*
X229054443Y-70060773D01*
X229031834Y-70066437D01*
X229008779Y-70069856D01*
X228985500Y-70071000D01*
X228410500Y-70071000D01*
X228387221Y-70069856D01*
X228364166Y-70066437D01*
X228341557Y-70060773D01*
X228319613Y-70052921D01*
X228298543Y-70042956D01*
X228278552Y-70030974D01*
X228259832Y-70017090D01*
X228242562Y-70001438D01*
X228226910Y-69984168D01*
X228213026Y-69965448D01*
X228201044Y-69945457D01*
X228191079Y-69924387D01*
X228183227Y-69902443D01*
X228177563Y-69879834D01*
X228174144Y-69856779D01*
X228173000Y-69833500D01*
X228173000Y-69358500D01*
X228174144Y-69335221D01*
X228177563Y-69312166D01*
X228183227Y-69289557D01*
X228191079Y-69267613D01*
X228201044Y-69246543D01*
X228213026Y-69226552D01*
X228226910Y-69207832D01*
X228242562Y-69190562D01*
X228259832Y-69174910D01*
X228278552Y-69161026D01*
X228298543Y-69149044D01*
X228319613Y-69139079D01*
X228341557Y-69131227D01*
X228364166Y-69125563D01*
X228387221Y-69122144D01*
X228410500Y-69121000D01*
X228985500Y-69121000D01*
X229008779Y-69122144D01*
X229008779Y-69122144D01*
G37*
D11*
X228698000Y-69596000D03*
D10*
G36*
X126720779Y-45711144D02*
G01*
X126743834Y-45714563D01*
X126766443Y-45720227D01*
X126788387Y-45728079D01*
X126809457Y-45738044D01*
X126829448Y-45750026D01*
X126848168Y-45763910D01*
X126865438Y-45779562D01*
X126881090Y-45796832D01*
X126894974Y-45815552D01*
X126906956Y-45835543D01*
X126916921Y-45856613D01*
X126924773Y-45878557D01*
X126930437Y-45901166D01*
X126933856Y-45924221D01*
X126935000Y-45947500D01*
X126935000Y-46522500D01*
X126933856Y-46545779D01*
X126930437Y-46568834D01*
X126924773Y-46591443D01*
X126916921Y-46613387D01*
X126906956Y-46634457D01*
X126894974Y-46654448D01*
X126881090Y-46673168D01*
X126865438Y-46690438D01*
X126848168Y-46706090D01*
X126829448Y-46719974D01*
X126809457Y-46731956D01*
X126788387Y-46741921D01*
X126766443Y-46749773D01*
X126743834Y-46755437D01*
X126720779Y-46758856D01*
X126697500Y-46760000D01*
X126222500Y-46760000D01*
X126199221Y-46758856D01*
X126176166Y-46755437D01*
X126153557Y-46749773D01*
X126131613Y-46741921D01*
X126110543Y-46731956D01*
X126090552Y-46719974D01*
X126071832Y-46706090D01*
X126054562Y-46690438D01*
X126038910Y-46673168D01*
X126025026Y-46654448D01*
X126013044Y-46634457D01*
X126003079Y-46613387D01*
X125995227Y-46591443D01*
X125989563Y-46568834D01*
X125986144Y-46545779D01*
X125985000Y-46522500D01*
X125985000Y-45947500D01*
X125986144Y-45924221D01*
X125989563Y-45901166D01*
X125995227Y-45878557D01*
X126003079Y-45856613D01*
X126013044Y-45835543D01*
X126025026Y-45815552D01*
X126038910Y-45796832D01*
X126054562Y-45779562D01*
X126071832Y-45763910D01*
X126090552Y-45750026D01*
X126110543Y-45738044D01*
X126131613Y-45728079D01*
X126153557Y-45720227D01*
X126176166Y-45714563D01*
X126199221Y-45711144D01*
X126222500Y-45710000D01*
X126697500Y-45710000D01*
X126720779Y-45711144D01*
X126720779Y-45711144D01*
G37*
D11*
X126460000Y-46235000D03*
D10*
G36*
X126720779Y-47461144D02*
G01*
X126743834Y-47464563D01*
X126766443Y-47470227D01*
X126788387Y-47478079D01*
X126809457Y-47488044D01*
X126829448Y-47500026D01*
X126848168Y-47513910D01*
X126865438Y-47529562D01*
X126881090Y-47546832D01*
X126894974Y-47565552D01*
X126906956Y-47585543D01*
X126916921Y-47606613D01*
X126924773Y-47628557D01*
X126930437Y-47651166D01*
X126933856Y-47674221D01*
X126935000Y-47697500D01*
X126935000Y-48272500D01*
X126933856Y-48295779D01*
X126930437Y-48318834D01*
X126924773Y-48341443D01*
X126916921Y-48363387D01*
X126906956Y-48384457D01*
X126894974Y-48404448D01*
X126881090Y-48423168D01*
X126865438Y-48440438D01*
X126848168Y-48456090D01*
X126829448Y-48469974D01*
X126809457Y-48481956D01*
X126788387Y-48491921D01*
X126766443Y-48499773D01*
X126743834Y-48505437D01*
X126720779Y-48508856D01*
X126697500Y-48510000D01*
X126222500Y-48510000D01*
X126199221Y-48508856D01*
X126176166Y-48505437D01*
X126153557Y-48499773D01*
X126131613Y-48491921D01*
X126110543Y-48481956D01*
X126090552Y-48469974D01*
X126071832Y-48456090D01*
X126054562Y-48440438D01*
X126038910Y-48423168D01*
X126025026Y-48404448D01*
X126013044Y-48384457D01*
X126003079Y-48363387D01*
X125995227Y-48341443D01*
X125989563Y-48318834D01*
X125986144Y-48295779D01*
X125985000Y-48272500D01*
X125985000Y-47697500D01*
X125986144Y-47674221D01*
X125989563Y-47651166D01*
X125995227Y-47628557D01*
X126003079Y-47606613D01*
X126013044Y-47585543D01*
X126025026Y-47565552D01*
X126038910Y-47546832D01*
X126054562Y-47529562D01*
X126071832Y-47513910D01*
X126090552Y-47500026D01*
X126110543Y-47488044D01*
X126131613Y-47478079D01*
X126153557Y-47470227D01*
X126176166Y-47464563D01*
X126199221Y-47461144D01*
X126222500Y-47460000D01*
X126697500Y-47460000D01*
X126720779Y-47461144D01*
X126720779Y-47461144D01*
G37*
D11*
X126460000Y-47985000D03*
D10*
G36*
X150745779Y-67256144D02*
G01*
X150768834Y-67259563D01*
X150791443Y-67265227D01*
X150813387Y-67273079D01*
X150834457Y-67283044D01*
X150854448Y-67295026D01*
X150873168Y-67308910D01*
X150890438Y-67324562D01*
X150906090Y-67341832D01*
X150919974Y-67360552D01*
X150931956Y-67380543D01*
X150941921Y-67401613D01*
X150949773Y-67423557D01*
X150955437Y-67446166D01*
X150958856Y-67469221D01*
X150960000Y-67492500D01*
X150960000Y-67967500D01*
X150958856Y-67990779D01*
X150955437Y-68013834D01*
X150949773Y-68036443D01*
X150941921Y-68058387D01*
X150931956Y-68079457D01*
X150919974Y-68099448D01*
X150906090Y-68118168D01*
X150890438Y-68135438D01*
X150873168Y-68151090D01*
X150854448Y-68164974D01*
X150834457Y-68176956D01*
X150813387Y-68186921D01*
X150791443Y-68194773D01*
X150768834Y-68200437D01*
X150745779Y-68203856D01*
X150722500Y-68205000D01*
X150147500Y-68205000D01*
X150124221Y-68203856D01*
X150101166Y-68200437D01*
X150078557Y-68194773D01*
X150056613Y-68186921D01*
X150035543Y-68176956D01*
X150015552Y-68164974D01*
X149996832Y-68151090D01*
X149979562Y-68135438D01*
X149963910Y-68118168D01*
X149950026Y-68099448D01*
X149938044Y-68079457D01*
X149928079Y-68058387D01*
X149920227Y-68036443D01*
X149914563Y-68013834D01*
X149911144Y-67990779D01*
X149910000Y-67967500D01*
X149910000Y-67492500D01*
X149911144Y-67469221D01*
X149914563Y-67446166D01*
X149920227Y-67423557D01*
X149928079Y-67401613D01*
X149938044Y-67380543D01*
X149950026Y-67360552D01*
X149963910Y-67341832D01*
X149979562Y-67324562D01*
X149996832Y-67308910D01*
X150015552Y-67295026D01*
X150035543Y-67283044D01*
X150056613Y-67273079D01*
X150078557Y-67265227D01*
X150101166Y-67259563D01*
X150124221Y-67256144D01*
X150147500Y-67255000D01*
X150722500Y-67255000D01*
X150745779Y-67256144D01*
X150745779Y-67256144D01*
G37*
D11*
X150435000Y-67730000D03*
D10*
G36*
X148995779Y-67256144D02*
G01*
X149018834Y-67259563D01*
X149041443Y-67265227D01*
X149063387Y-67273079D01*
X149084457Y-67283044D01*
X149104448Y-67295026D01*
X149123168Y-67308910D01*
X149140438Y-67324562D01*
X149156090Y-67341832D01*
X149169974Y-67360552D01*
X149181956Y-67380543D01*
X149191921Y-67401613D01*
X149199773Y-67423557D01*
X149205437Y-67446166D01*
X149208856Y-67469221D01*
X149210000Y-67492500D01*
X149210000Y-67967500D01*
X149208856Y-67990779D01*
X149205437Y-68013834D01*
X149199773Y-68036443D01*
X149191921Y-68058387D01*
X149181956Y-68079457D01*
X149169974Y-68099448D01*
X149156090Y-68118168D01*
X149140438Y-68135438D01*
X149123168Y-68151090D01*
X149104448Y-68164974D01*
X149084457Y-68176956D01*
X149063387Y-68186921D01*
X149041443Y-68194773D01*
X149018834Y-68200437D01*
X148995779Y-68203856D01*
X148972500Y-68205000D01*
X148397500Y-68205000D01*
X148374221Y-68203856D01*
X148351166Y-68200437D01*
X148328557Y-68194773D01*
X148306613Y-68186921D01*
X148285543Y-68176956D01*
X148265552Y-68164974D01*
X148246832Y-68151090D01*
X148229562Y-68135438D01*
X148213910Y-68118168D01*
X148200026Y-68099448D01*
X148188044Y-68079457D01*
X148178079Y-68058387D01*
X148170227Y-68036443D01*
X148164563Y-68013834D01*
X148161144Y-67990779D01*
X148160000Y-67967500D01*
X148160000Y-67492500D01*
X148161144Y-67469221D01*
X148164563Y-67446166D01*
X148170227Y-67423557D01*
X148178079Y-67401613D01*
X148188044Y-67380543D01*
X148200026Y-67360552D01*
X148213910Y-67341832D01*
X148229562Y-67324562D01*
X148246832Y-67308910D01*
X148265552Y-67295026D01*
X148285543Y-67283044D01*
X148306613Y-67273079D01*
X148328557Y-67265227D01*
X148351166Y-67259563D01*
X148374221Y-67256144D01*
X148397500Y-67255000D01*
X148972500Y-67255000D01*
X148995779Y-67256144D01*
X148995779Y-67256144D01*
G37*
D11*
X148685000Y-67730000D03*
D10*
G36*
X150755779Y-68796144D02*
G01*
X150778834Y-68799563D01*
X150801443Y-68805227D01*
X150823387Y-68813079D01*
X150844457Y-68823044D01*
X150864448Y-68835026D01*
X150883168Y-68848910D01*
X150900438Y-68864562D01*
X150916090Y-68881832D01*
X150929974Y-68900552D01*
X150941956Y-68920543D01*
X150951921Y-68941613D01*
X150959773Y-68963557D01*
X150965437Y-68986166D01*
X150968856Y-69009221D01*
X150970000Y-69032500D01*
X150970000Y-69507500D01*
X150968856Y-69530779D01*
X150965437Y-69553834D01*
X150959773Y-69576443D01*
X150951921Y-69598387D01*
X150941956Y-69619457D01*
X150929974Y-69639448D01*
X150916090Y-69658168D01*
X150900438Y-69675438D01*
X150883168Y-69691090D01*
X150864448Y-69704974D01*
X150844457Y-69716956D01*
X150823387Y-69726921D01*
X150801443Y-69734773D01*
X150778834Y-69740437D01*
X150755779Y-69743856D01*
X150732500Y-69745000D01*
X150157500Y-69745000D01*
X150134221Y-69743856D01*
X150111166Y-69740437D01*
X150088557Y-69734773D01*
X150066613Y-69726921D01*
X150045543Y-69716956D01*
X150025552Y-69704974D01*
X150006832Y-69691090D01*
X149989562Y-69675438D01*
X149973910Y-69658168D01*
X149960026Y-69639448D01*
X149948044Y-69619457D01*
X149938079Y-69598387D01*
X149930227Y-69576443D01*
X149924563Y-69553834D01*
X149921144Y-69530779D01*
X149920000Y-69507500D01*
X149920000Y-69032500D01*
X149921144Y-69009221D01*
X149924563Y-68986166D01*
X149930227Y-68963557D01*
X149938079Y-68941613D01*
X149948044Y-68920543D01*
X149960026Y-68900552D01*
X149973910Y-68881832D01*
X149989562Y-68864562D01*
X150006832Y-68848910D01*
X150025552Y-68835026D01*
X150045543Y-68823044D01*
X150066613Y-68813079D01*
X150088557Y-68805227D01*
X150111166Y-68799563D01*
X150134221Y-68796144D01*
X150157500Y-68795000D01*
X150732500Y-68795000D01*
X150755779Y-68796144D01*
X150755779Y-68796144D01*
G37*
D11*
X150445000Y-69270000D03*
D10*
G36*
X149005779Y-68796144D02*
G01*
X149028834Y-68799563D01*
X149051443Y-68805227D01*
X149073387Y-68813079D01*
X149094457Y-68823044D01*
X149114448Y-68835026D01*
X149133168Y-68848910D01*
X149150438Y-68864562D01*
X149166090Y-68881832D01*
X149179974Y-68900552D01*
X149191956Y-68920543D01*
X149201921Y-68941613D01*
X149209773Y-68963557D01*
X149215437Y-68986166D01*
X149218856Y-69009221D01*
X149220000Y-69032500D01*
X149220000Y-69507500D01*
X149218856Y-69530779D01*
X149215437Y-69553834D01*
X149209773Y-69576443D01*
X149201921Y-69598387D01*
X149191956Y-69619457D01*
X149179974Y-69639448D01*
X149166090Y-69658168D01*
X149150438Y-69675438D01*
X149133168Y-69691090D01*
X149114448Y-69704974D01*
X149094457Y-69716956D01*
X149073387Y-69726921D01*
X149051443Y-69734773D01*
X149028834Y-69740437D01*
X149005779Y-69743856D01*
X148982500Y-69745000D01*
X148407500Y-69745000D01*
X148384221Y-69743856D01*
X148361166Y-69740437D01*
X148338557Y-69734773D01*
X148316613Y-69726921D01*
X148295543Y-69716956D01*
X148275552Y-69704974D01*
X148256832Y-69691090D01*
X148239562Y-69675438D01*
X148223910Y-69658168D01*
X148210026Y-69639448D01*
X148198044Y-69619457D01*
X148188079Y-69598387D01*
X148180227Y-69576443D01*
X148174563Y-69553834D01*
X148171144Y-69530779D01*
X148170000Y-69507500D01*
X148170000Y-69032500D01*
X148171144Y-69009221D01*
X148174563Y-68986166D01*
X148180227Y-68963557D01*
X148188079Y-68941613D01*
X148198044Y-68920543D01*
X148210026Y-68900552D01*
X148223910Y-68881832D01*
X148239562Y-68864562D01*
X148256832Y-68848910D01*
X148275552Y-68835026D01*
X148295543Y-68823044D01*
X148316613Y-68813079D01*
X148338557Y-68805227D01*
X148361166Y-68799563D01*
X148384221Y-68796144D01*
X148407500Y-68795000D01*
X148982500Y-68795000D01*
X149005779Y-68796144D01*
X149005779Y-68796144D01*
G37*
D11*
X148695000Y-69270000D03*
M02*
